<svg width="350" height="74" viewBox="0 0 350 74" fill="none" xmlns="http://www.w3.org/2000/svg">
<g filter="url(#filter0_d_203_79)">
<rect x="4" y="3" width="342" height="65" rx="6" fill="white"/>
</g>
<path d="M70.243 28.21C69.235 28.21 68.3717 27.9907 67.653 27.552C66.9343 27.1087 66.3813 26.4927 65.994 25.704C65.6113 24.9153 65.42 24.0007 65.42 22.96C65.42 21.9193 65.6113 21.0047 65.994 20.216C66.3813 19.4273 66.9343 18.8137 67.653 18.375C68.3717 17.9317 69.235 17.71 70.243 17.71C71.405 17.71 72.3733 18.0017 73.148 18.585C73.9227 19.1637 74.4663 19.9453 74.779 20.93L73.078 21.399C72.882 20.741 72.5483 20.2277 72.077 19.859C71.6057 19.4857 70.9943 19.299 70.243 19.299C69.5663 19.299 69.0017 19.4507 68.549 19.754C68.101 20.0573 67.7627 20.4843 67.534 21.035C67.31 21.581 67.1957 22.2227 67.191 22.96C67.191 23.6973 67.303 24.3413 67.527 24.892C67.7557 25.438 68.0963 25.8627 68.549 26.166C69.0017 26.4693 69.5663 26.621 70.243 26.621C70.9943 26.621 71.6057 26.4343 72.077 26.061C72.5483 25.6877 72.882 25.1743 73.078 24.521L74.779 24.99C74.4663 25.9747 73.9227 26.7587 73.148 27.342C72.3733 27.9207 71.405 28.21 70.243 28.21ZM79.6549 28.21C78.8989 28.21 78.2386 28.0397 77.6739 27.699C77.1093 27.3583 76.6706 26.8893 76.3579 26.292C76.0499 25.69 75.8959 24.9993 75.8959 24.22C75.8959 23.4267 76.0546 22.7313 76.3719 22.134C76.6893 21.5367 77.1303 21.07 77.6949 20.734C78.2596 20.398 78.9129 20.23 79.6549 20.23C80.4156 20.23 81.0783 20.4003 81.6429 20.741C82.2076 21.0817 82.6463 21.553 82.9589 22.155C83.2716 22.7523 83.4279 23.4407 83.4279 24.22C83.4279 25.004 83.2693 25.697 82.9519 26.299C82.6393 26.8963 82.2006 27.3653 81.6359 27.706C81.0713 28.042 80.4109 28.21 79.6549 28.21ZM79.6549 26.628C80.3269 26.628 80.8263 26.404 81.1529 25.956C81.4796 25.508 81.6429 24.9293 81.6429 24.22C81.6429 23.4873 81.4773 22.904 81.1459 22.47C80.8146 22.0313 80.3176 21.812 79.6549 21.812C79.2023 21.812 78.8289 21.9147 78.5349 22.12C78.2456 22.3207 78.0309 22.603 77.8909 22.967C77.7509 23.3263 77.6809 23.744 77.6809 24.22C77.6809 24.9527 77.8466 25.5383 78.1779 25.977C78.5139 26.411 79.0063 26.628 79.6549 26.628ZM90.1992 28V24.36C90.1992 24.122 90.1829 23.8583 90.1502 23.569C90.1176 23.2797 90.0406 23.002 89.9192 22.736C89.8026 22.4653 89.6252 22.2437 89.3872 22.071C89.1539 21.8983 88.8366 21.812 88.4352 21.812C88.2206 21.812 88.0082 21.847 87.7982 21.917C87.5882 21.987 87.3969 22.1083 87.2242 22.281C87.0562 22.449 86.9209 22.6823 86.8182 22.981C86.7156 23.275 86.6642 23.653 86.6642 24.115L85.6632 23.688C85.6632 23.044 85.7869 22.4607 86.0342 21.938C86.2862 21.4153 86.6549 21 87.1402 20.692C87.6256 20.3793 88.2229 20.223 88.9322 20.223C89.4922 20.223 89.9542 20.3163 90.3182 20.503C90.6822 20.6897 90.9716 20.9277 91.1862 21.217C91.4009 21.5063 91.5596 21.8143 91.6622 22.141C91.7649 22.4677 91.8302 22.778 91.8582 23.072C91.8909 23.3613 91.9072 23.597 91.9072 23.779V28H90.1992ZM84.9562 28V20.44H86.4612V22.785H86.6642V28H84.9562ZM98.1649 28C97.6656 28.0933 97.1756 28.133 96.6949 28.119C96.2189 28.1097 95.7919 28.0233 95.4139 27.86C95.0359 27.692 94.7489 27.4283 94.5529 27.069C94.3802 26.7423 94.2892 26.4087 94.2799 26.068C94.2706 25.7273 94.2659 25.3423 94.2659 24.913V18.34H95.9459V24.815C95.9459 25.1183 95.9482 25.3843 95.9529 25.613C95.9622 25.8417 96.0112 26.0283 96.0999 26.173C96.2679 26.453 96.5362 26.6093 96.9049 26.642C97.2736 26.6747 97.6936 26.656 98.1649 26.586V28ZM92.8939 21.763V20.44H98.1649V21.763H92.8939ZM101.905 28.21C101.359 28.21 100.897 28.1073 100.519 27.902C100.141 27.692 99.8535 27.4143 99.6575 27.069C99.4662 26.7237 99.3705 26.3433 99.3705 25.928C99.3705 25.564 99.4312 25.2373 99.5525 24.948C99.6739 24.654 99.8605 24.402 100.113 24.192C100.365 23.9773 100.691 23.8023 101.093 23.667C101.396 23.569 101.751 23.4803 102.157 23.401C102.567 23.3217 103.011 23.2493 103.487 23.184C103.967 23.114 104.469 23.0393 104.992 22.96L104.39 23.303C104.394 22.7803 104.278 22.3953 104.04 22.148C103.802 21.9007 103.4 21.777 102.836 21.777C102.495 21.777 102.166 21.8563 101.849 22.015C101.531 22.1737 101.31 22.4467 101.184 22.834L99.6435 22.351C99.8302 21.7117 100.185 21.1983 100.708 20.811C101.235 20.4237 101.944 20.23 102.836 20.23C103.508 20.23 104.098 20.3397 104.607 20.559C105.12 20.7783 105.5 21.1377 105.748 21.637C105.883 21.903 105.965 22.176 105.993 22.456C106.021 22.7313 106.035 23.0323 106.035 23.359V28H104.558V26.362L104.803 26.628C104.462 27.174 104.063 27.5753 103.606 27.832C103.153 28.084 102.586 28.21 101.905 28.21ZM102.241 26.866C102.623 26.866 102.95 26.7983 103.221 26.663C103.491 26.5277 103.706 26.362 103.865 26.166C104.028 25.97 104.138 25.7857 104.194 25.613C104.282 25.3983 104.331 25.1533 104.341 24.878C104.355 24.598 104.362 24.3717 104.362 24.199L104.88 24.353C104.371 24.4323 103.935 24.5023 103.571 24.563C103.207 24.6237 102.894 24.682 102.633 24.738C102.371 24.7893 102.14 24.8477 101.94 24.913C101.744 24.983 101.578 25.0647 101.443 25.158C101.307 25.2513 101.202 25.3587 101.128 25.48C101.058 25.6013 101.023 25.7437 101.023 25.907C101.023 26.0937 101.069 26.2593 101.163 26.404C101.256 26.544 101.391 26.656 101.569 26.74C101.751 26.824 101.975 26.866 102.241 26.866ZM111.14 28.21C110.361 28.21 109.696 28.0373 109.145 27.692C108.594 27.342 108.172 26.866 107.878 26.264C107.589 25.662 107.442 24.9807 107.437 24.22C107.442 23.4453 107.593 22.7593 107.892 22.162C108.195 21.56 108.625 21.0887 109.18 20.748C109.735 20.4027 110.396 20.23 111.161 20.23C112.02 20.23 112.745 20.447 113.338 20.881C113.935 21.3103 114.325 21.8983 114.507 22.645L112.827 23.1C112.696 22.694 112.479 22.379 112.176 22.155C111.873 21.9263 111.527 21.812 111.14 21.812C110.701 21.812 110.34 21.917 110.055 22.127C109.77 22.3323 109.56 22.617 109.425 22.981C109.29 23.345 109.222 23.758 109.222 24.22C109.222 24.9387 109.383 25.5197 109.705 25.963C110.027 26.4063 110.505 26.628 111.14 26.628C111.588 26.628 111.94 26.5253 112.197 26.32C112.458 26.1147 112.654 25.8183 112.785 25.431L114.507 25.816C114.274 26.586 113.865 27.1787 113.282 27.594C112.699 28.0047 111.985 28.21 111.14 28.21ZM120.341 28C119.841 28.0933 119.351 28.133 118.871 28.119C118.395 28.1097 117.968 28.0233 117.59 27.86C117.212 27.692 116.925 27.4283 116.729 27.069C116.556 26.7423 116.465 26.4087 116.456 26.068C116.446 25.7273 116.442 25.3423 116.442 24.913V18.34H118.122V24.815C118.122 25.1183 118.124 25.3843 118.129 25.613C118.138 25.8417 118.187 26.0283 118.276 26.173C118.444 26.453 118.712 26.6093 119.081 26.642C119.449 26.6747 119.869 26.656 120.341 26.586V28ZM115.07 21.763V20.44H120.341V21.763H115.07Z" fill="#3C3C3F"/>
<rect x="24" y="14" width="33" height="33" rx="3" fill="#59B9AF" fill-opacity="0.13"/>
<path d="M69.918 50.836C69.45 50.296 69.048 49.69 68.712 49.018C68.376 48.346 68.118 47.64 67.938 46.9C67.758 46.16 67.672 45.42 67.68 44.68C67.672 43.936 67.758 43.194 67.938 42.454C68.118 41.714 68.376 41.01 68.712 40.342C69.048 39.67 69.45 39.064 69.918 38.524L70.71 39.124C70.238 39.684 69.85 40.266 69.546 40.87C69.246 41.474 69.024 42.096 68.88 42.736C68.736 43.372 68.662 44.02 68.658 44.68C68.662 45.332 68.736 45.98 68.88 46.624C69.028 47.264 69.252 47.888 69.552 48.496C69.856 49.1 70.242 49.678 70.71 50.23L69.918 50.836ZM71.8148 48.994L71.8208 48.034L75.6548 44.584C75.9748 44.296 76.1888 44.024 76.2968 43.768C76.4088 43.508 76.4648 43.242 76.4648 42.97C76.4648 42.638 76.3888 42.338 76.2368 42.07C76.0848 41.802 75.8768 41.59 75.6128 41.434C75.3528 41.278 75.0568 41.2 74.7248 41.2C74.3808 41.2 74.0748 41.282 73.8068 41.446C73.5388 41.606 73.3268 41.82 73.1708 42.088C73.0188 42.356 72.9448 42.648 72.9488 42.964H71.8568C71.8568 42.42 71.9828 41.94 72.2348 41.524C72.4868 41.104 72.8288 40.776 73.2608 40.54C73.6968 40.3 74.1908 40.18 74.7428 40.18C75.2788 40.18 75.7588 40.304 76.1828 40.552C76.6068 40.796 76.9408 41.13 77.1848 41.554C77.4328 41.974 77.5568 42.45 77.5568 42.982C77.5568 43.358 77.5088 43.684 77.4128 43.96C77.3208 44.236 77.1768 44.492 76.9808 44.728C76.7848 44.96 76.5388 45.208 76.2428 45.472L73.0568 48.334L72.9188 47.974H77.5568V48.994H71.8148ZM81.9083 49.18C81.3483 49.18 80.8483 49.054 80.4083 48.802C79.9723 48.546 79.6263 48.2 79.3703 47.764C79.1183 47.324 78.9923 46.824 78.9923 46.264V43.096C78.9923 42.536 79.1183 42.036 79.3703 41.596C79.6263 41.156 79.9723 40.81 80.4083 40.558C80.8483 40.306 81.3483 40.18 81.9083 40.18C82.4683 40.18 82.9683 40.306 83.4083 40.558C83.8483 40.81 84.1943 41.156 84.4463 41.596C84.6983 42.036 84.8243 42.536 84.8243 43.096V46.264C84.8243 46.824 84.6983 47.324 84.4463 47.764C84.1943 48.2 83.8483 48.546 83.4083 48.802C82.9683 49.054 82.4683 49.18 81.9083 49.18ZM81.9083 48.154C82.2483 48.154 82.5563 48.072 82.8323 47.908C83.1083 47.744 83.3283 47.524 83.4923 47.248C83.6563 46.968 83.7383 46.66 83.7383 46.324V43.03C83.7383 42.69 83.6563 42.382 83.4923 42.106C83.3283 41.83 83.1083 41.61 82.8323 41.446C82.5563 41.282 82.2483 41.2 81.9083 41.2C81.5723 41.2 81.2643 41.282 80.9843 41.446C80.7083 41.61 80.4883 41.83 80.3243 42.106C80.1603 42.382 80.0783 42.69 80.0783 43.03V46.324C80.0783 46.66 80.1603 46.968 80.3243 47.248C80.4883 47.524 80.7083 47.744 80.9843 47.908C81.2643 48.072 81.5723 48.154 81.9083 48.154ZM88.0101 49V41.542L86.3841 42.526V41.332L88.0101 40.36H89.0961V49H88.0101ZM91.8411 50.836L91.0491 50.23C91.5171 49.678 91.9011 49.1 92.2011 48.496C92.5051 47.888 92.7311 47.264 92.8791 46.624C93.0271 45.98 93.1011 45.332 93.1011 44.68C93.1011 44.02 93.0271 43.372 92.8791 42.736C92.7351 42.096 92.5111 41.474 92.2071 40.87C91.9071 40.266 91.5211 39.684 91.0491 39.124L91.8411 38.524C92.3091 39.064 92.7111 39.67 93.0471 40.342C93.3871 41.01 93.6451 41.714 93.8211 42.454C94.0011 43.194 94.0871 43.936 94.0791 44.68C94.0871 45.42 94.0011 46.16 93.8211 46.9C93.6451 47.64 93.3871 48.346 93.0471 49.018C92.7111 49.69 92.3091 50.296 91.8411 50.836ZM101.552 49.18C101.108 49.18 100.694 49.088 100.31 48.904C99.9303 48.72 99.6043 48.468 99.3323 48.148C99.0643 47.824 98.8723 47.452 98.7563 47.032L99.7823 46.756C99.8543 47.04 99.9823 47.286 100.166 47.494C100.35 47.698 100.564 47.858 100.808 47.974C101.056 48.086 101.314 48.142 101.582 48.142C101.934 48.142 102.25 48.058 102.53 47.89C102.814 47.718 103.038 47.492 103.202 47.212C103.366 46.928 103.448 46.618 103.448 46.282C103.448 45.934 103.362 45.62 103.19 45.34C103.022 45.056 102.796 44.832 102.512 44.668C102.228 44.504 101.918 44.422 101.582 44.422C101.202 44.422 100.876 44.502 100.604 44.662C100.336 44.818 100.124 45.01 99.9683 45.238L99.0203 44.878L99.2843 40.36H103.922V41.374H99.8003L100.274 40.93L100.052 44.548L99.8183 44.242C100.058 43.986 100.344 43.788 100.676 43.648C101.012 43.508 101.354 43.438 101.702 43.438C102.238 43.438 102.718 43.564 103.142 43.816C103.566 44.064 103.902 44.404 104.15 44.836C104.398 45.264 104.522 45.746 104.522 46.282C104.522 46.814 104.386 47.3 104.114 47.74C103.842 48.176 103.48 48.526 103.028 48.79C102.58 49.05 102.088 49.18 101.552 49.18ZM108.513 49.18C108.069 49.18 107.655 49.088 107.271 48.904C106.891 48.72 106.565 48.468 106.293 48.148C106.025 47.824 105.833 47.452 105.717 47.032L106.743 46.756C106.815 47.04 106.943 47.286 107.127 47.494C107.311 47.698 107.525 47.858 107.769 47.974C108.017 48.086 108.275 48.142 108.543 48.142C108.895 48.142 109.211 48.058 109.491 47.89C109.775 47.718 109.999 47.492 110.163 47.212C110.327 46.928 110.409 46.618 110.409 46.282C110.409 45.934 110.323 45.62 110.151 45.34C109.983 45.056 109.757 44.832 109.473 44.668C109.189 44.504 108.879 44.422 108.543 44.422C108.163 44.422 107.837 44.502 107.565 44.662C107.297 44.818 107.085 45.01 106.929 45.238L105.981 44.878L106.245 40.36H110.883V41.374H106.761L107.235 40.93L107.013 44.548L106.779 44.242C107.019 43.986 107.305 43.788 107.637 43.648C107.973 43.508 108.315 43.438 108.663 43.438C109.199 43.438 109.679 43.564 110.103 43.816C110.527 44.064 110.863 44.404 111.111 44.836C111.359 45.264 111.483 45.746 111.483 46.282C111.483 46.814 111.347 47.3 111.075 47.74C110.803 48.176 110.441 48.526 109.989 48.79C109.541 49.05 109.049 49.18 108.513 49.18ZM115.474 49.18C115.03 49.18 114.616 49.088 114.232 48.904C113.852 48.72 113.526 48.468 113.254 48.148C112.986 47.824 112.794 47.452 112.678 47.032L113.704 46.756C113.776 47.04 113.904 47.286 114.088 47.494C114.272 47.698 114.486 47.858 114.73 47.974C114.978 48.086 115.236 48.142 115.504 48.142C115.856 48.142 116.172 48.058 116.452 47.89C116.736 47.718 116.96 47.492 117.124 47.212C117.288 46.928 117.37 46.618 117.37 46.282C117.37 45.934 117.284 45.62 117.112 45.34C116.944 45.056 116.718 44.832 116.434 44.668C116.15 44.504 115.84 44.422 115.504 44.422C115.124 44.422 114.798 44.502 114.526 44.662C114.258 44.818 114.046 45.01 113.89 45.238L112.942 44.878L113.206 40.36H117.844V41.374H113.722L114.196 40.93L113.974 44.548L113.74 44.242C113.98 43.986 114.266 43.788 114.598 43.648C114.934 43.508 115.276 43.438 115.624 43.438C116.16 43.438 116.64 43.564 117.064 43.816C117.488 44.064 117.824 44.404 118.072 44.836C118.32 45.264 118.444 45.746 118.444 46.282C118.444 46.814 118.308 47.3 118.036 47.74C117.764 48.176 117.402 48.526 116.95 48.79C116.502 49.05 116.01 49.18 115.474 49.18ZM119.759 45.118V44.236H123.359V45.118H119.759ZM127.834 49.18C127.274 49.18 126.774 49.054 126.334 48.802C125.898 48.546 125.552 48.2 125.296 47.764C125.044 47.324 124.918 46.824 124.918 46.264V43.096C124.918 42.536 125.044 42.036 125.296 41.596C125.552 41.156 125.898 40.81 126.334 40.558C126.774 40.306 127.274 40.18 127.834 40.18C128.394 40.18 128.894 40.306 129.334 40.558C129.774 40.81 130.12 41.156 130.372 41.596C130.624 42.036 130.75 42.536 130.75 43.096V46.264C130.75 46.824 130.624 47.324 130.372 47.764C130.12 48.2 129.774 48.546 129.334 48.802C128.894 49.054 128.394 49.18 127.834 49.18ZM127.834 48.154C128.174 48.154 128.482 48.072 128.758 47.908C129.034 47.744 129.254 47.524 129.418 47.248C129.582 46.968 129.664 46.66 129.664 46.324V43.03C129.664 42.69 129.582 42.382 129.418 42.106C129.254 41.83 129.034 41.61 128.758 41.446C128.482 41.282 128.174 41.2 127.834 41.2C127.498 41.2 127.19 41.282 126.91 41.446C126.634 41.61 126.414 41.83 126.25 42.106C126.086 42.382 126.004 42.69 126.004 43.03V46.324C126.004 46.66 126.086 46.968 126.25 47.248C126.414 47.524 126.634 47.744 126.91 47.908C127.19 48.072 127.498 48.154 127.834 48.154ZM133.936 49V41.542L132.31 42.526V41.332L133.936 40.36H135.022V49H133.936ZM137.065 48.994L137.071 48.034L140.905 44.584C141.225 44.296 141.439 44.024 141.547 43.768C141.659 43.508 141.715 43.242 141.715 42.97C141.715 42.638 141.639 42.338 141.487 42.07C141.335 41.802 141.127 41.59 140.863 41.434C140.603 41.278 140.307 41.2 139.975 41.2C139.631 41.2 139.325 41.282 139.057 41.446C138.789 41.606 138.577 41.82 138.421 42.088C138.269 42.356 138.195 42.648 138.199 42.964H137.107C137.107 42.42 137.233 41.94 137.485 41.524C137.737 41.104 138.079 40.776 138.511 40.54C138.947 40.3 139.441 40.18 139.993 40.18C140.529 40.18 141.009 40.304 141.433 40.552C141.857 40.796 142.191 41.13 142.435 41.554C142.683 41.974 142.807 42.45 142.807 42.982C142.807 43.358 142.759 43.684 142.663 43.96C142.571 44.236 142.427 44.492 142.231 44.728C142.035 44.96 141.789 45.208 141.493 45.472L138.307 48.334L138.169 47.974H142.807V48.994H137.065ZM146.612 49.168C146.184 49.168 145.786 49.09 145.418 48.934C145.05 48.774 144.732 48.55 144.464 48.262C144.2 47.97 144.006 47.624 143.882 47.224L144.908 46.93C145.04 47.33 145.26 47.634 145.568 47.842C145.876 48.05 146.222 48.152 146.606 48.148C146.958 48.14 147.262 48.06 147.518 47.908C147.778 47.752 147.978 47.54 148.118 47.272C148.262 47.004 148.334 46.694 148.334 46.342C148.334 45.806 148.174 45.372 147.854 45.04C147.534 44.704 147.114 44.536 146.594 44.536C146.45 44.536 146.298 44.556 146.138 44.596C145.982 44.636 145.836 44.692 145.7 44.764L145.184 43.918L148.388 41.02L148.526 41.38H144.224V40.36H149.318V41.386L146.588 44.002L146.576 43.624C147.148 43.584 147.648 43.678 148.076 43.906C148.504 44.134 148.836 44.46 149.072 44.884C149.312 45.308 149.432 45.794 149.432 46.342C149.432 46.894 149.308 47.382 149.06 47.806C148.812 48.23 148.476 48.564 148.052 48.808C147.628 49.048 147.148 49.168 146.612 49.168Z" fill="#1F2937"/>
<path d="M36.9185 22C35.3067 22 33.9778 23.3103 34.1361 24.9144C34.9219 32.8758 39.1242 37.0781 47.0856 37.8639C48.6897 38.0222 50 36.6933 50 35.0815V35.0815C50 33.7784 49.1362 32.6332 47.8832 32.2752L46.8002 31.9658C46.0375 31.7479 45.2214 32.0478 44.7815 32.7078V32.7078C44.4432 33.2152 43.8647 33.5436 43.2765 33.3827C41.2694 32.834 39.166 30.7306 38.6173 28.7235C38.4564 28.1353 38.7848 27.5568 39.2922 27.2185V27.2185C39.9522 26.7785 40.2521 25.9625 40.0342 25.1998L39.7248 24.1168C39.3668 22.8638 38.2216 22 36.9185 22V22Z" stroke="#27544F" stroke-width="1.5" stroke-linecap="round" stroke-linejoin="round"/>
<defs>
<filter id="filter0_d_203_79" x="0" y="0.5" width="350" height="73" filterUnits="userSpaceOnUse" color-interpolation-filters="sRGB">
<feFlood flood-opacity="0" result="BackgroundImageFix"/>
<feColorMatrix in="SourceAlpha" type="matrix" values="0 0 0 0 0 0 0 0 0 0 0 0 0 0 0 0 0 0 127 0" result="hardAlpha"/>
<feOffset dy="1.5"/>
<feGaussianBlur stdDeviation="2"/>
<feComposite in2="hardAlpha" operator="out"/>
<feColorMatrix type="matrix" values="0 0 0 0 0 0 0 0 0 0 0 0 0 0 0 0 0 0 0.25 0"/>
<feBlend mode="normal" in2="BackgroundImageFix" result="effect1_dropShadow_203_79"/>
<feBlend mode="normal" in="SourceGraphic" in2="effect1_dropShadow_203_79" result="shape"/>
</filter>
</defs>
</svg>
