<svg width="350" height="86" viewBox="0 0 350 86" fill="none" xmlns="http://www.w3.org/2000/svg">
<g filter="url(#filter0_d_358_85)">
<rect x="4" y="3" width="342" height="77" rx="6" fill="white"/>
</g>
<path d="M69.711 26.21C68.9737 26.21 68.3087 26.0817 67.716 25.825C67.128 25.5683 66.6427 25.202 66.26 24.726C65.882 24.2453 65.6417 23.676 65.539 23.018L67.289 22.752C67.4383 23.3493 67.744 23.8113 68.206 24.138C68.6727 24.4647 69.2093 24.628 69.816 24.628C70.1753 24.628 70.5137 24.572 70.831 24.46C71.1483 24.348 71.405 24.1847 71.601 23.97C71.8017 23.7553 71.902 23.4917 71.902 23.179C71.902 23.039 71.8787 22.9107 71.832 22.794C71.7853 22.6727 71.7153 22.5653 71.622 22.472C71.5333 22.3787 71.4167 22.2947 71.272 22.22C71.132 22.1407 70.9687 22.073 70.782 22.017L68.178 21.247C67.954 21.1817 67.7113 21.0953 67.45 20.988C67.1933 20.876 66.9483 20.7243 66.715 20.533C66.4863 20.337 66.2973 20.0897 66.148 19.791C66.0033 19.4877 65.931 19.1143 65.931 18.671C65.931 18.0223 66.0943 17.4787 66.421 17.04C66.7523 16.5967 67.1957 16.2653 67.751 16.046C68.311 15.8267 68.9317 15.7193 69.613 15.724C70.3037 15.7287 70.9197 15.8477 71.461 16.081C72.0023 16.3097 72.455 16.6433 72.819 17.082C73.183 17.5207 73.4397 18.0503 73.589 18.671L71.776 18.986C71.7013 18.6313 71.5567 18.3303 71.342 18.083C71.132 17.831 70.873 17.6397 70.565 17.509C70.2617 17.3783 69.9373 17.3083 69.592 17.299C69.256 17.2943 68.9433 17.3457 68.654 17.453C68.3693 17.5557 68.1383 17.705 67.961 17.901C67.7883 18.097 67.702 18.3257 67.702 18.587C67.702 18.8343 67.7767 19.0373 67.926 19.196C68.0753 19.35 68.2597 19.4737 68.479 19.567C68.703 19.6557 68.9293 19.7303 69.158 19.791L70.964 20.295C71.2113 20.3603 71.489 20.449 71.797 20.561C72.105 20.673 72.4013 20.8293 72.686 21.03C72.9707 21.2307 73.204 21.4943 73.386 21.821C73.5727 22.1477 73.666 22.563 73.666 23.067C73.666 23.5897 73.5563 24.0493 73.337 24.446C73.1223 24.838 72.8307 25.1647 72.462 25.426C72.0933 25.6873 71.671 25.8833 71.195 26.014C70.7237 26.1447 70.229 26.21 69.711 26.21ZM80.4102 26V22.36C80.4102 22.122 80.3938 21.8583 80.3612 21.569C80.3285 21.2797 80.2515 21.002 80.1302 20.736C80.0135 20.4653 79.8362 20.2437 79.5982 20.071C79.3648 19.8983 79.0475 19.812 78.6462 19.812C78.4315 19.812 78.2192 19.847 78.0092 19.917C77.7992 19.987 77.6078 20.1083 77.4352 20.281C77.2672 20.449 77.1318 20.6823 77.0292 20.981C76.9265 21.275 76.8752 21.653 76.8752 22.115L75.8742 21.688C75.8742 21.044 75.9978 20.4607 76.2452 19.938C76.4972 19.4153 76.8658 19 77.3512 18.692C77.8365 18.3793 78.4338 18.223 79.1432 18.223C79.7032 18.223 80.1652 18.3163 80.5292 18.503C80.8932 18.6897 81.1825 18.9277 81.3972 19.217C81.6118 19.5063 81.7705 19.8143 81.8732 20.141C81.9758 20.4677 82.0412 20.778 82.0692 21.072C82.1018 21.3613 82.1182 21.597 82.1182 21.779V26H80.4102ZM75.1672 26V15.92H76.6722V21.226H76.8752V26H75.1672ZM84.0848 17.292V15.745H85.7718V17.292H84.0848ZM84.0848 26V18.44H85.7718V26H84.0848ZM91.5017 26.21C90.7643 26.21 90.146 26.035 89.6467 25.685C89.1473 25.335 88.7717 24.859 88.5197 24.257C88.2677 23.6503 88.1417 22.9713 88.1417 22.22C88.1417 21.4593 88.2677 20.778 88.5197 20.176C88.7717 19.574 89.1403 19.1003 89.6257 18.755C90.1157 18.405 90.72 18.23 91.4387 18.23C92.1527 18.23 92.771 18.405 93.2937 18.755C93.821 19.1003 94.2293 19.574 94.5187 20.176C94.808 20.7733 94.9527 21.4547 94.9527 22.22C94.9527 22.976 94.8103 23.655 94.5257 24.257C94.241 24.859 93.8397 25.335 93.3217 25.685C92.8037 26.035 92.197 26.21 91.5017 26.21ZM87.8547 29.36V18.44H89.3457V23.746H89.5557V29.36H87.8547ZM91.2427 24.698C91.6813 24.698 92.043 24.5883 92.3277 24.369C92.6123 24.1497 92.8223 23.8533 92.9577 23.48C93.0977 23.102 93.1677 22.682 93.1677 22.22C93.1677 21.7627 93.0977 21.3473 92.9577 20.974C92.8177 20.596 92.6007 20.2973 92.3067 20.078C92.0127 19.854 91.6393 19.742 91.1867 19.742C90.7573 19.742 90.4073 19.847 90.1367 20.057C89.866 20.2623 89.6653 20.5517 89.5347 20.925C89.4087 21.2937 89.3457 21.7253 89.3457 22.22C89.3457 22.71 89.4087 23.1417 89.5347 23.515C89.6653 23.8883 89.8683 24.18 90.1437 24.39C90.4237 24.5953 90.79 24.698 91.2427 24.698ZM100.129 26.21C99.3913 26.21 98.773 26.035 98.2736 25.685C97.7743 25.335 97.3986 24.859 97.1466 24.257C96.8946 23.6503 96.7686 22.9713 96.7686 22.22C96.7686 21.4593 96.8946 20.778 97.1466 20.176C97.3986 19.574 97.7673 19.1003 98.2526 18.755C98.7426 18.405 99.347 18.23 100.066 18.23C100.78 18.23 101.398 18.405 101.921 18.755C102.448 19.1003 102.856 19.574 103.146 20.176C103.435 20.7733 103.58 21.4547 103.58 22.22C103.58 22.976 103.437 23.655 103.153 24.257C102.868 24.859 102.467 25.335 101.949 25.685C101.431 26.035 100.824 26.21 100.129 26.21ZM96.4816 29.36V18.44H97.9726V23.746H98.1826V29.36H96.4816ZM99.8696 24.698C100.308 24.698 100.67 24.5883 100.955 24.369C101.239 24.1497 101.449 23.8533 101.585 23.48C101.725 23.102 101.795 22.682 101.795 22.22C101.795 21.7627 101.725 21.3473 101.585 20.974C101.445 20.596 101.228 20.2973 100.934 20.078C100.64 19.854 100.266 19.742 99.8136 19.742C99.3843 19.742 99.0343 19.847 98.7636 20.057C98.493 20.2623 98.2923 20.5517 98.1616 20.925C98.0356 21.2937 97.9726 21.7253 97.9726 22.22C97.9726 22.71 98.0356 23.1417 98.1616 23.515C98.2923 23.8883 98.4953 24.18 98.7706 24.39C99.0506 24.5953 99.417 24.698 99.8696 24.698ZM105.263 17.292V15.745H106.95V17.292H105.263ZM105.263 26V18.44H106.95V26H105.263ZM114.275 26V22.36C114.275 22.122 114.259 21.8583 114.226 21.569C114.194 21.2797 114.117 21.002 113.995 20.736C113.879 20.4653 113.701 20.2437 113.463 20.071C113.23 19.8983 112.913 19.812 112.511 19.812C112.297 19.812 112.084 19.847 111.874 19.917C111.664 19.987 111.473 20.1083 111.3 20.281C111.132 20.449 110.997 20.6823 110.894 20.981C110.792 21.275 110.74 21.653 110.74 22.115L109.739 21.688C109.739 21.044 109.863 20.4607 110.11 19.938C110.362 19.4153 110.731 19 111.216 18.692C111.702 18.3793 112.299 18.223 113.008 18.223C113.568 18.223 114.03 18.3163 114.394 18.503C114.758 18.6897 115.048 18.9277 115.262 19.217C115.477 19.5063 115.636 19.8143 115.738 20.141C115.841 20.4677 115.906 20.778 115.934 21.072C115.967 21.3613 115.983 21.597 115.983 21.779V26H114.275ZM109.032 26V18.44H110.537V20.785H110.74V26H109.032ZM120.988 29.57C120.568 29.57 120.164 29.5047 119.777 29.374C119.394 29.2433 119.049 29.0543 118.741 28.807C118.433 28.5643 118.181 28.2703 117.985 27.925L119.539 27.155C119.684 27.4303 119.887 27.6333 120.148 27.764C120.414 27.8993 120.696 27.967 120.995 27.967C121.345 27.967 121.658 27.904 121.933 27.778C122.208 27.6567 122.421 27.4747 122.57 27.232C122.724 26.994 122.796 26.6953 122.787 26.336V24.187H122.997V18.44H124.474V26.364C124.474 26.5553 124.465 26.7373 124.446 26.91C124.432 27.0873 124.406 27.26 124.369 27.428C124.257 27.918 124.042 28.3193 123.725 28.632C123.408 28.9493 123.013 29.185 122.542 29.339C122.075 29.493 121.557 29.57 120.988 29.57ZM120.841 26.21C120.146 26.21 119.539 26.035 119.021 25.685C118.503 25.335 118.102 24.859 117.817 24.257C117.532 23.655 117.39 22.976 117.39 22.22C117.39 21.4547 117.532 20.7733 117.817 20.176C118.106 19.574 118.515 19.1003 119.042 18.755C119.569 18.405 120.19 18.23 120.904 18.23C121.623 18.23 122.225 18.405 122.71 18.755C123.2 19.1003 123.571 19.574 123.823 20.176C124.075 20.778 124.201 21.4593 124.201 22.22C124.201 22.9713 124.075 23.6503 123.823 24.257C123.571 24.859 123.195 25.335 122.696 25.685C122.197 26.035 121.578 26.21 120.841 26.21ZM121.1 24.698C121.553 24.698 121.917 24.5953 122.192 24.39C122.472 24.18 122.675 23.8883 122.801 23.515C122.932 23.1417 122.997 22.71 122.997 22.22C122.997 21.7253 122.932 21.2937 122.801 20.925C122.675 20.5517 122.477 20.2623 122.206 20.057C121.935 19.847 121.585 19.742 121.156 19.742C120.703 19.742 120.33 19.854 120.036 20.078C119.742 20.2973 119.525 20.596 119.385 20.974C119.245 21.3473 119.175 21.7627 119.175 22.22C119.175 22.682 119.243 23.102 119.378 23.48C119.518 23.8533 119.73 24.1497 120.015 24.369C120.3 24.5883 120.661 24.698 121.1 24.698ZM129.38 26V15.92H131.067V26H129.38ZM138.393 26V22.36C138.393 22.122 138.376 21.8583 138.344 21.569C138.311 21.2797 138.234 21.002 138.113 20.736C137.996 20.4653 137.819 20.2437 137.581 20.071C137.347 19.8983 137.03 19.812 136.629 19.812C136.414 19.812 136.202 19.847 135.992 19.917C135.782 19.987 135.59 20.1083 135.418 20.281C135.25 20.449 135.114 20.6823 135.012 20.981C134.909 21.275 134.858 21.653 134.858 22.115L133.857 21.688C133.857 21.044 133.98 20.4607 134.228 19.938C134.48 19.4153 134.848 19 135.334 18.692C135.819 18.3793 136.416 18.223 137.126 18.223C137.686 18.223 138.148 18.3163 138.512 18.503C138.876 18.6897 139.165 18.9277 139.38 19.217C139.594 19.5063 139.753 19.8143 139.856 20.141C139.958 20.4677 140.024 20.778 140.052 21.072C140.084 21.3613 140.101 21.597 140.101 21.779V26H138.393ZM133.15 26V18.44H134.655V20.785H134.858V26H133.15ZM142.585 26V18.321C142.585 18.1297 142.592 17.9197 142.606 17.691C142.62 17.4577 142.66 17.2267 142.725 16.998C142.791 16.7693 142.91 16.5617 143.082 16.375C143.297 16.137 143.528 15.9737 143.775 15.885C144.027 15.7917 144.275 15.7403 144.517 15.731C144.76 15.717 144.972 15.71 145.154 15.71H146.099V17.082H145.224C144.902 17.082 144.662 17.1637 144.503 17.327C144.349 17.4857 144.272 17.6957 144.272 17.957V26H142.585ZM141.367 19.763V18.44H146.099V19.763H141.367ZM150.284 26.21C149.528 26.21 148.868 26.0397 148.303 25.699C147.738 25.3583 147.3 24.8893 146.987 24.292C146.679 23.69 146.525 22.9993 146.525 22.22C146.525 21.4267 146.684 20.7313 147.001 20.134C147.318 19.5367 147.759 19.07 148.324 18.734C148.889 18.398 149.542 18.23 150.284 18.23C151.045 18.23 151.707 18.4003 152.272 18.741C152.837 19.0817 153.275 19.553 153.588 20.155C153.901 20.7523 154.057 21.4407 154.057 22.22C154.057 23.004 153.898 23.697 153.581 24.299C153.268 24.8963 152.83 25.3653 152.265 25.706C151.7 26.042 151.04 26.21 150.284 26.21ZM150.284 24.628C150.956 24.628 151.455 24.404 151.782 23.956C152.109 23.508 152.272 22.9293 152.272 22.22C152.272 21.4873 152.106 20.904 151.775 20.47C151.444 20.0313 150.947 19.812 150.284 19.812C149.831 19.812 149.458 19.9147 149.164 20.12C148.875 20.3207 148.66 20.603 148.52 20.967C148.38 21.3263 148.31 21.744 148.31 22.22C148.31 22.9527 148.476 23.5383 148.807 23.977C149.143 24.411 149.635 24.628 150.284 24.628Z" fill="#3C3C3F"/>
<rect x="24" y="12" width="33" height="33" rx="3" fill="#59B9AF" fill-opacity="0.13"/>
<path d="M32.8998 29.8001H33.7998V35.4C33.7998 36.2824 34.6072 37 35.5999 37H46.4001C47.3928 37 48.2002 36.2824 48.2002 35.4V29.8001H49.1002C49.2782 29.8 49.4521 29.7531 49.6001 29.6652C49.7481 29.5773 49.8634 29.4524 49.9315 29.3062C49.9996 29.16 50.0174 28.9992 49.9827 28.8441C49.948 28.6889 49.8623 28.5464 49.7365 28.4345L41.6363 21.2346C41.5528 21.1602 41.4536 21.1012 41.3444 21.061C41.2352 21.0207 41.1182 21 41 21C40.8818 21 40.7648 21.0207 40.6556 21.061C40.5464 21.1012 40.4472 21.1602 40.3637 21.2346L32.2635 28.4345C32.1377 28.5464 32.052 28.6889 32.0173 28.8441C31.9826 28.9992 32.0004 29.16 32.0685 29.3062C32.1366 29.4524 32.2519 29.5773 32.3999 29.6652C32.5479 29.7531 32.7218 29.8 32.8998 29.8001ZM39.2 35.4V31.4001H42.8V35.4H39.2ZM41 22.9313L46.4001 27.7313V31.4001L46.401 35.4H44.6001V31.4001C44.6001 30.5177 43.7928 29.8001 42.8 29.8001H39.2C38.2072 29.8001 37.3999 30.5177 37.3999 31.4001V35.4H35.5999V27.7313L41 22.9313Z" fill="#27544F"/>
<path d="M66.84 47V38.36H67.722V42.254H72.498V38.36H73.374V47H72.498V43.1H67.722V47H66.84ZM77.0288 47.18C76.5408 47.18 76.1308 47.092 75.7988 46.916C75.4708 46.74 75.2248 46.506 75.0608 46.214C74.8968 45.922 74.8148 45.604 74.8148 45.26C74.8148 44.908 74.8848 44.608 75.0248 44.36C75.1688 44.108 75.3628 43.902 75.6068 43.742C75.8548 43.582 76.1408 43.46 76.4648 43.376C76.7928 43.296 77.1548 43.226 77.5508 43.166C77.9508 43.102 78.3408 43.048 78.7208 43.004C79.1048 42.956 79.4408 42.91 79.7288 42.866L79.4168 43.058C79.4288 42.418 79.3048 41.944 79.0448 41.636C78.7848 41.328 78.3328 41.174 77.6888 41.174C77.2448 41.174 76.8688 41.274 76.5608 41.474C76.2568 41.674 76.0428 41.99 75.9188 42.422L75.0608 42.17C75.2088 41.59 75.5068 41.14 75.9548 40.82C76.4028 40.5 76.9848 40.34 77.7008 40.34C78.2928 40.34 78.7948 40.452 79.2068 40.676C79.6228 40.896 79.9168 41.216 80.0888 41.636C80.1688 41.824 80.2208 42.034 80.2448 42.266C80.2688 42.498 80.2808 42.734 80.2808 42.974V47H79.4948V45.374L79.7228 45.47C79.5028 46.026 79.1608 46.45 78.6968 46.742C78.2328 47.034 77.6768 47.18 77.0288 47.18ZM77.1308 46.418C77.5428 46.418 77.9028 46.344 78.2108 46.196C78.5188 46.048 78.7668 45.846 78.9548 45.59C79.1428 45.33 79.2648 45.038 79.3208 44.714C79.3688 44.506 79.3948 44.278 79.3988 44.03C79.4028 43.778 79.4048 43.59 79.4048 43.466L79.7408 43.64C79.4408 43.68 79.1148 43.72 78.7628 43.76C78.4148 43.8 78.0708 43.846 77.7308 43.898C77.3948 43.95 77.0908 44.012 76.8188 44.084C76.6348 44.136 76.4568 44.21 76.2848 44.306C76.1128 44.398 75.9708 44.522 75.8588 44.678C75.7508 44.834 75.6968 45.028 75.6968 45.26C75.6968 45.448 75.7428 45.63 75.8348 45.806C75.9308 45.982 76.0828 46.128 76.2908 46.244C76.5028 46.36 76.7828 46.418 77.1308 46.418ZM84.4768 47.18C83.8728 47.18 83.3568 47.03 82.9288 46.73C82.5008 46.426 82.1728 46.016 81.9448 45.5C81.7168 44.984 81.6028 44.402 81.6028 43.754C81.6028 43.11 81.7148 42.53 81.9388 42.014C82.1668 41.498 82.4928 41.09 82.9168 40.79C83.3408 40.49 83.8488 40.34 84.4408 40.34C85.0488 40.34 85.5608 40.488 85.9768 40.784C86.3928 41.08 86.7068 41.486 86.9188 42.002C87.1348 42.514 87.2428 43.098 87.2428 43.754C87.2428 44.398 87.1368 44.98 86.9248 45.5C86.7128 46.016 86.4008 46.426 85.9888 46.73C85.5768 47.03 85.0728 47.18 84.4768 47.18ZM84.5668 46.358C85.0268 46.358 85.4068 46.246 85.7068 46.022C86.0068 45.798 86.2308 45.49 86.3788 45.098C86.5268 44.702 86.6008 44.254 86.6008 43.754C86.6008 43.246 86.5268 42.798 86.3788 42.41C86.2308 42.018 86.0068 41.712 85.7068 41.492C85.4108 41.272 85.0368 41.162 84.5848 41.162C84.1208 41.162 83.7368 41.276 83.4328 41.504C83.1288 41.732 82.9028 42.042 82.7548 42.434C82.6108 42.826 82.5388 43.266 82.5388 43.754C82.5388 44.246 82.6128 44.69 82.7608 45.086C82.9128 45.478 83.1388 45.788 83.4388 46.016C83.7388 46.244 84.1148 46.358 84.5668 46.358ZM86.6008 47V42.122H86.5048V38.36H87.3928V47H86.6008ZM89.3161 39.29V38.3H90.1981V39.29H89.3161ZM89.3161 47V40.52H90.1981V47H89.3161ZM93.9709 47.18C93.4829 47.18 93.0729 47.092 92.7409 46.916C92.4129 46.74 92.1669 46.506 92.0029 46.214C91.8389 45.922 91.7569 45.604 91.7569 45.26C91.7569 44.908 91.8269 44.608 91.9669 44.36C92.1109 44.108 92.3049 43.902 92.5489 43.742C92.7969 43.582 93.0829 43.46 93.4069 43.376C93.7349 43.296 94.0969 43.226 94.4929 43.166C94.8929 43.102 95.2829 43.048 95.6629 43.004C96.0469 42.956 96.3829 42.91 96.6709 42.866L96.3589 43.058C96.3709 42.418 96.2469 41.944 95.9869 41.636C95.7269 41.328 95.2749 41.174 94.6309 41.174C94.1869 41.174 93.8109 41.274 93.5029 41.474C93.1989 41.674 92.9849 41.99 92.8609 42.422L92.0029 42.17C92.1509 41.59 92.4489 41.14 92.8969 40.82C93.3449 40.5 93.9269 40.34 94.6429 40.34C95.2349 40.34 95.7369 40.452 96.1489 40.676C96.5649 40.896 96.8589 41.216 97.0309 41.636C97.1109 41.824 97.1629 42.034 97.1869 42.266C97.2109 42.498 97.2229 42.734 97.2229 42.974V47H96.4369V45.374L96.6649 45.47C96.4449 46.026 96.1029 46.45 95.6389 46.742C95.1749 47.034 94.6189 47.18 93.9709 47.18ZM94.0729 46.418C94.4849 46.418 94.8449 46.344 95.1529 46.196C95.4609 46.048 95.7089 45.846 95.8969 45.59C96.0849 45.33 96.2069 45.038 96.2629 44.714C96.3109 44.506 96.3369 44.278 96.3409 44.03C96.3449 43.778 96.3469 43.59 96.3469 43.466L96.6829 43.64C96.3829 43.68 96.0569 43.72 95.7049 43.76C95.3569 43.8 95.0129 43.846 94.6729 43.898C94.3369 43.95 94.0329 44.012 93.7609 44.084C93.5769 44.136 93.3989 44.21 93.2269 44.306C93.0549 44.398 92.9129 44.522 92.8009 44.678C92.6929 44.834 92.6389 45.028 92.6389 45.26C92.6389 45.448 92.6849 45.63 92.7769 45.806C92.8729 45.982 93.0249 46.128 93.2329 46.244C93.4449 46.36 93.7249 46.418 94.0729 46.418ZM100.827 47L103.803 38.36H104.973L107.949 47H107.031L104.205 38.852H104.553L101.745 47H100.827ZM102.153 44.906V44.078H106.617V44.906H102.153ZM109.273 47V38.18H110.155V47H109.273ZM112.193 39.29V38.3H113.075V39.29H112.193ZM112.193 47V40.52H113.075V47H112.193ZM69.39 63.18C68.942 63.18 68.528 63.088 68.148 62.904C67.768 62.72 67.444 62.466 67.176 62.142C66.908 61.818 66.716 61.446 66.6 61.026L67.446 60.798C67.522 61.11 67.66 61.38 67.86 61.608C68.06 61.832 68.294 62.006 68.562 62.13C68.834 62.254 69.118 62.316 69.414 62.316C69.798 62.316 70.142 62.224 70.446 62.04C70.754 61.852 70.998 61.604 71.178 61.296C71.358 60.988 71.448 60.65 71.448 60.282C71.448 59.902 71.354 59.56 71.166 59.256C70.978 58.948 70.73 58.704 70.422 58.524C70.114 58.344 69.778 58.254 69.414 58.254C69.006 58.254 68.654 58.344 68.358 58.524C68.062 58.7 67.826 58.922 67.65 59.19L66.846 58.854L67.11 54.36H71.724V55.206H67.5L67.938 54.792L67.704 58.626L67.482 58.332C67.73 58.048 68.03 57.826 68.382 57.666C68.734 57.506 69.104 57.426 69.492 57.426C70.024 57.426 70.504 57.554 70.932 57.81C71.36 58.062 71.7 58.404 71.952 58.836C72.204 59.268 72.33 59.75 72.33 60.282C72.33 60.81 72.196 61.294 71.928 61.734C71.66 62.17 71.304 62.52 70.86 62.784C70.416 63.048 69.926 63.18 69.39 63.18ZM77.6898 63V61.326H73.6458V60.486L76.5378 54.36H77.5278L74.6358 60.486H77.6898V57.966H78.5778V60.486H79.5198V61.326H78.5778V63H77.6898ZM83.6339 63.18C83.1859 63.18 82.7719 63.088 82.3919 62.904C82.0119 62.72 81.6879 62.466 81.4199 62.142C81.1519 61.818 80.9599 61.446 80.8439 61.026L81.6899 60.798C81.7659 61.11 81.9039 61.38 82.1039 61.608C82.3039 61.832 82.5379 62.006 82.8059 62.13C83.0779 62.254 83.3619 62.316 83.6579 62.316C84.0419 62.316 84.3859 62.224 84.6899 62.04C84.9979 61.852 85.2419 61.604 85.4219 61.296C85.6019 60.988 85.6919 60.65 85.6919 60.282C85.6919 59.902 85.5979 59.56 85.4099 59.256C85.2219 58.948 84.9739 58.704 84.6659 58.524C84.3579 58.344 84.0219 58.254 83.6579 58.254C83.2499 58.254 82.8979 58.344 82.6019 58.524C82.3059 58.7 82.0699 58.922 81.8939 59.19L81.0899 58.854L81.3539 54.36H85.9679V55.206H81.7439L82.1819 54.792L81.9479 58.626L81.7259 58.332C81.9739 58.048 82.2739 57.826 82.6259 57.666C82.9779 57.506 83.3479 57.426 83.7359 57.426C84.2679 57.426 84.7479 57.554 85.1759 57.81C85.6039 58.062 85.9439 58.404 86.1959 58.836C86.4479 59.268 86.5739 59.75 86.5739 60.282C86.5739 60.81 86.4399 61.294 86.1719 61.734C85.9039 62.17 85.5479 62.52 85.1039 62.784C84.6599 63.048 84.1699 63.18 83.6339 63.18ZM92.506 63L90.01 54.36H90.928L92.95 61.494L94.96 54.366L95.884 54.36L97.906 61.494L99.916 54.36H100.84L98.35 63H97.462L95.422 55.914L93.394 63H92.506ZM101.452 63V61.974H102.478V63H101.452ZM108.479 63V55.344L106.853 56.322V55.332L108.479 54.36H109.373V63H108.479ZM115.573 63V61.326H111.529V60.486L114.421 54.36H115.411L112.519 60.486H115.573V57.966H116.461V60.486H117.403V61.326H116.461V63H115.573ZM122.495 63C122.131 63.076 121.771 63.106 121.415 63.09C121.063 63.074 120.747 62.998 120.467 62.862C120.191 62.726 119.981 62.514 119.837 62.226C119.721 61.986 119.657 61.744 119.645 61.5C119.637 61.252 119.633 60.97 119.633 60.654V54.72H120.509V60.618C120.509 60.89 120.511 61.118 120.515 61.302C120.523 61.482 120.565 61.642 120.641 61.782C120.785 62.05 121.013 62.21 121.325 62.262C121.641 62.314 122.031 62.302 122.495 62.226V63ZM118.247 57.276V56.52H122.495V57.276H118.247ZM128.572 63V59.694C128.572 59.334 128.538 59.004 128.47 58.704C128.402 58.4 128.292 58.136 128.14 57.912C127.992 57.684 127.798 57.508 127.558 57.384C127.322 57.26 127.034 57.198 126.694 57.198C126.382 57.198 126.106 57.252 125.866 57.36C125.63 57.468 125.43 57.624 125.266 57.828C125.106 58.028 124.984 58.272 124.9 58.56C124.816 58.848 124.774 59.176 124.774 59.544L124.15 59.406C124.15 58.742 124.266 58.184 124.498 57.732C124.73 57.28 125.05 56.938 125.458 56.706C125.866 56.474 126.334 56.358 126.862 56.358C127.25 56.358 127.588 56.418 127.876 56.538C128.168 56.658 128.414 56.82 128.614 57.024C128.818 57.228 128.982 57.462 129.106 57.726C129.23 57.986 129.32 58.264 129.376 58.56C129.432 58.852 129.46 59.144 129.46 59.436V63H128.572ZM123.886 63V54.36H124.684V59.238H124.774V63H123.886ZM136.659 63.18C136.055 63.18 135.511 63.08 135.027 62.88C134.547 62.676 134.149 62.388 133.833 62.016C133.521 61.644 133.317 61.202 133.221 60.69L134.121 60.54C134.265 61.1 134.569 61.54 135.033 61.86C135.497 62.176 136.051 62.334 136.695 62.334C137.119 62.334 137.499 62.268 137.835 62.136C138.171 62 138.435 61.808 138.627 61.56C138.819 61.312 138.915 61.018 138.915 60.678C138.915 60.454 138.875 60.264 138.795 60.108C138.715 59.948 138.609 59.816 138.477 59.712C138.345 59.608 138.201 59.522 138.045 59.454C137.889 59.382 137.737 59.324 137.589 59.28L135.399 58.626C135.135 58.55 134.891 58.454 134.667 58.338C134.443 58.218 134.247 58.076 134.079 57.912C133.915 57.744 133.787 57.548 133.695 57.324C133.603 57.1 133.557 56.844 133.557 56.556C133.557 56.068 133.685 55.646 133.941 55.29C134.197 54.934 134.547 54.66 134.991 54.468C135.435 54.276 135.941 54.182 136.509 54.186C137.085 54.186 137.599 54.288 138.051 54.492C138.507 54.696 138.883 54.988 139.179 55.368C139.475 55.744 139.671 56.19 139.767 56.706L138.843 56.874C138.783 56.498 138.645 56.172 138.429 55.896C138.213 55.62 137.937 55.408 137.601 55.26C137.269 55.108 136.903 55.03 136.503 55.026C136.115 55.026 135.769 55.092 135.465 55.224C135.165 55.352 134.927 55.528 134.751 55.752C134.575 55.976 134.487 56.232 134.487 56.52C134.487 56.812 134.567 57.046 134.727 57.222C134.891 57.398 135.091 57.536 135.327 57.636C135.567 57.736 135.799 57.818 136.023 57.882L137.715 58.38C137.891 58.428 138.097 58.498 138.333 58.59C138.573 58.678 138.805 58.806 139.029 58.974C139.257 59.138 139.445 59.354 139.593 59.622C139.741 59.89 139.815 60.23 139.815 60.642C139.815 61.042 139.735 61.4 139.575 61.716C139.419 62.032 139.197 62.298 138.909 62.514C138.625 62.73 138.291 62.894 137.907 63.006C137.527 63.122 137.111 63.18 136.659 63.18ZM144.701 63C144.337 63.076 143.977 63.106 143.621 63.09C143.269 63.074 142.953 62.998 142.673 62.862C142.397 62.726 142.187 62.514 142.043 62.226C141.927 61.986 141.863 61.744 141.851 61.5C141.843 61.252 141.839 60.97 141.839 60.654V54.72H142.715V60.618C142.715 60.89 142.717 61.118 142.721 61.302C142.729 61.482 142.771 61.642 142.847 61.782C142.991 62.05 143.219 62.21 143.531 62.262C143.847 62.314 144.237 62.302 144.701 62.226V63ZM140.453 57.276V56.52H144.701V57.276H140.453ZM146.098 63V56.52H146.89V58.08L146.734 57.876C146.806 57.684 146.9 57.508 147.016 57.348C147.132 57.184 147.258 57.05 147.394 56.946C147.562 56.798 147.758 56.686 147.982 56.61C148.206 56.53 148.432 56.484 148.66 56.472C148.888 56.456 149.096 56.472 149.284 56.52V57.348C149.048 57.288 148.79 57.274 148.51 57.306C148.23 57.338 147.972 57.45 147.736 57.642C147.52 57.81 147.358 58.012 147.25 58.248C147.142 58.48 147.07 58.728 147.034 58.992C146.998 59.252 146.98 59.51 146.98 59.766V63H146.098ZM153.167 63.18C152.535 63.18 151.987 63.04 151.523 62.76C151.063 62.48 150.705 62.086 150.449 61.578C150.193 61.07 150.065 60.474 150.065 59.79C150.065 59.082 150.191 58.47 150.443 57.954C150.695 57.438 151.049 57.04 151.505 56.76C151.965 56.48 152.507 56.34 153.131 56.34C153.771 56.34 154.317 56.488 154.769 56.784C155.221 57.076 155.563 57.496 155.795 58.044C156.027 58.592 156.133 59.246 156.113 60.006H155.213V59.694C155.197 58.854 155.015 58.22 154.667 57.792C154.323 57.364 153.819 57.15 153.155 57.15C152.459 57.15 151.925 57.376 151.553 57.828C151.185 58.28 151.001 58.924 151.001 59.76C151.001 60.576 151.185 61.21 151.553 61.662C151.925 62.11 152.451 62.334 153.131 62.334C153.595 62.334 153.999 62.228 154.343 62.016C154.691 61.8 154.965 61.49 155.165 61.086L155.987 61.404C155.731 61.968 155.353 62.406 154.853 62.718C154.357 63.026 153.795 63.18 153.167 63.18ZM150.689 60.006V59.268H155.639V60.006H150.689ZM160.307 63.18C159.675 63.18 159.127 63.04 158.663 62.76C158.203 62.48 157.845 62.086 157.589 61.578C157.333 61.07 157.205 60.474 157.205 59.79C157.205 59.082 157.331 58.47 157.583 57.954C157.835 57.438 158.189 57.04 158.645 56.76C159.105 56.48 159.647 56.34 160.271 56.34C160.911 56.34 161.457 56.488 161.909 56.784C162.361 57.076 162.703 57.496 162.935 58.044C163.167 58.592 163.273 59.246 163.253 60.006H162.353V59.694C162.337 58.854 162.155 58.22 161.807 57.792C161.463 57.364 160.959 57.15 160.295 57.15C159.599 57.15 159.065 57.376 158.693 57.828C158.325 58.28 158.141 58.924 158.141 59.76C158.141 60.576 158.325 61.21 158.693 61.662C159.065 62.11 159.591 62.334 160.271 62.334C160.735 62.334 161.139 62.228 161.483 62.016C161.831 61.8 162.105 61.49 162.305 61.086L163.127 61.404C162.871 61.968 162.493 62.406 161.993 62.718C161.497 63.026 160.935 63.18 160.307 63.18ZM157.829 60.006V59.268H162.779V60.006H157.829ZM168.232 63C167.868 63.076 167.508 63.106 167.152 63.09C166.8 63.074 166.484 62.998 166.204 62.862C165.928 62.726 165.718 62.514 165.574 62.226C165.458 61.986 165.394 61.744 165.382 61.5C165.374 61.252 165.37 60.97 165.37 60.654V54.72H166.246V60.618C166.246 60.89 166.248 61.118 166.252 61.302C166.26 61.482 166.302 61.642 166.378 61.782C166.522 62.05 166.75 62.21 167.062 62.262C167.378 62.314 167.768 62.302 168.232 62.226V63ZM163.984 57.276V56.52H168.232V57.276H163.984ZM173.531 63L171.551 56.514L172.433 56.52L173.969 61.554L175.511 56.52H176.315L177.857 61.554L179.405 56.52H180.281L178.301 63H177.533L175.913 57.84L174.299 63H173.531ZM182.973 63.18C182.485 63.18 182.075 63.092 181.743 62.916C181.415 62.74 181.169 62.506 181.005 62.214C180.841 61.922 180.759 61.604 180.759 61.26C180.759 60.908 180.829 60.608 180.969 60.36C181.113 60.108 181.307 59.902 181.551 59.742C181.799 59.582 182.085 59.46 182.409 59.376C182.737 59.296 183.099 59.226 183.495 59.166C183.895 59.102 184.285 59.048 184.665 59.004C185.049 58.956 185.385 58.91 185.673 58.866L185.361 59.058C185.373 58.418 185.249 57.944 184.989 57.636C184.729 57.328 184.277 57.174 183.633 57.174C183.189 57.174 182.813 57.274 182.505 57.474C182.201 57.674 181.987 57.99 181.863 58.422L181.005 58.17C181.153 57.59 181.451 57.14 181.899 56.82C182.347 56.5 182.929 56.34 183.645 56.34C184.237 56.34 184.739 56.452 185.151 56.676C185.567 56.896 185.861 57.216 186.033 57.636C186.113 57.824 186.165 58.034 186.189 58.266C186.213 58.498 186.225 58.734 186.225 58.974V63H185.439V61.374L185.667 61.47C185.447 62.026 185.105 62.45 184.641 62.742C184.177 63.034 183.621 63.18 182.973 63.18ZM183.075 62.418C183.487 62.418 183.847 62.344 184.155 62.196C184.463 62.048 184.711 61.846 184.899 61.59C185.087 61.33 185.209 61.038 185.265 60.714C185.313 60.506 185.339 60.278 185.343 60.03C185.347 59.778 185.349 59.59 185.349 59.466L185.685 59.64C185.385 59.68 185.059 59.72 184.707 59.76C184.359 59.8 184.015 59.846 183.675 59.898C183.339 59.95 183.035 60.012 182.763 60.084C182.579 60.136 182.401 60.21 182.229 60.306C182.057 60.398 181.915 60.522 181.803 60.678C181.695 60.834 181.641 61.028 181.641 61.26C181.641 61.448 181.687 61.63 181.779 61.806C181.875 61.982 182.027 62.128 182.235 62.244C182.447 62.36 182.727 62.418 183.075 62.418ZM188.468 65.88L189.722 62.478L189.74 63.486L186.902 56.52H187.838L190.166 62.346H189.782L191.93 56.52H192.83L189.35 65.88H188.468ZM192.911 64.254L192.965 63.816C193.125 63.828 193.241 63.796 193.313 63.72C193.385 63.644 193.429 63.542 193.445 63.414C193.461 63.286 193.465 63.148 193.457 63H192.911V61.734H193.937V63.24C193.937 63.608 193.843 63.884 193.655 64.068C193.471 64.252 193.223 64.314 192.911 64.254ZM198.861 63V54.36H199.749L204.507 61.44V54.36H205.395V63H204.507L199.749 55.914V63H198.861ZM209.253 63V59.382L206.355 54.36H207.375L209.697 58.374L212.007 54.36H213.027L210.141 59.382V63H209.253ZM216.487 63L219.667 55.218H215.665V54.36H220.609V55.218L217.435 63H216.487ZM222.947 63L226.127 55.218H222.125V54.36H227.069V55.218L223.895 63H222.947ZM231.449 63.18C230.917 63.18 230.437 63.056 230.009 62.808C229.585 62.56 229.249 62.224 229.001 61.8C228.753 61.372 228.629 60.892 228.629 60.36V57C228.629 56.468 228.753 55.99 229.001 55.566C229.249 55.138 229.585 54.8 230.009 54.552C230.437 54.304 230.917 54.18 231.449 54.18C231.981 54.18 232.459 54.304 232.883 54.552C233.311 54.8 233.649 55.138 233.897 55.566C234.145 55.99 234.269 56.468 234.269 57V60.36C234.269 60.892 234.145 61.372 233.897 61.8C233.649 62.224 233.311 62.56 232.883 62.808C232.459 63.056 231.981 63.18 231.449 63.18ZM231.449 62.328C231.805 62.328 232.129 62.242 232.421 62.07C232.713 61.894 232.945 61.66 233.117 61.368C233.289 61.076 233.375 60.754 233.375 60.402V56.958C233.375 56.602 233.289 56.278 233.117 55.986C232.945 55.694 232.713 55.462 232.421 55.29C232.129 55.114 231.805 55.026 231.449 55.026C231.093 55.026 230.769 55.114 230.477 55.29C230.185 55.462 229.953 55.694 229.781 55.986C229.609 56.278 229.523 56.602 229.523 56.958V60.402C229.523 60.754 229.609 61.076 229.781 61.368C229.953 61.66 230.185 61.894 230.477 62.07C230.769 62.242 231.093 62.328 231.449 62.328ZM237.579 63V55.344L235.953 56.322V55.332L237.579 54.36H238.473V63H237.579ZM242.375 63V55.344L240.749 56.322V55.332L242.375 54.36H243.269V63H242.375Z" fill="#374151"/>
<defs>
<filter id="filter0_d_358_85" x="0" y="0.5" width="350" height="85" filterUnits="userSpaceOnUse" color-interpolation-filters="sRGB">
<feFlood flood-opacity="0" result="BackgroundImageFix"/>
<feColorMatrix in="SourceAlpha" type="matrix" values="0 0 0 0 0 0 0 0 0 0 0 0 0 0 0 0 0 0 127 0" result="hardAlpha"/>
<feOffset dy="1.5"/>
<feGaussianBlur stdDeviation="2"/>
<feComposite in2="hardAlpha" operator="out"/>
<feColorMatrix type="matrix" values="0 0 0 0 0 0 0 0 0 0 0 0 0 0 0 0 0 0 0.25 0"/>
<feBlend mode="normal" in2="BackgroundImageFix" result="effect1_dropShadow_358_85"/>
<feBlend mode="normal" in="SourceGraphic" in2="effect1_dropShadow_358_85" result="shape"/>
</filter>
</defs>
</svg>
