<svg width="344" height="106" viewBox="0 0 344 106" fill="none" xmlns="http://www.w3.org/2000/svg">
<path d="M9.2315 15.195C8.5685 15.195 7.9705 15.0823 7.4375 14.857C6.90883 14.6317 6.47117 14.311 6.1245 13.895C5.78217 13.4747 5.559 12.9785 5.455 12.4065L6.651 12.218C6.80267 12.8073 7.11683 13.2688 7.5935 13.6025C8.0745 13.9318 8.64 14.0965 9.29 14.0965C9.71033 14.0965 10.0895 14.0315 10.4275 13.9015C10.7698 13.7672 11.0407 13.5765 11.24 13.3295C11.4393 13.0825 11.539 12.79 11.539 12.452C11.539 12.244 11.5022 12.0663 11.4285 11.919C11.3592 11.7673 11.2617 11.6395 11.136 11.5355C11.0147 11.4272 10.876 11.3362 10.72 11.2625C10.564 11.1888 10.4015 11.1282 10.2325 11.0805L7.847 10.372C7.587 10.294 7.33567 10.1965 7.093 10.0795C6.85033 9.95817 6.63367 9.80867 6.443 9.631C6.25233 9.449 6.10067 9.23233 5.988 8.981C5.87533 8.72533 5.819 8.42417 5.819 8.0775C5.819 7.52283 5.962 7.0505 6.248 6.6605C6.53833 6.26617 6.9305 5.965 7.4245 5.757C7.9185 5.549 8.47533 5.44717 9.095 5.4515C9.72333 5.45583 10.2845 5.5685 10.7785 5.7895C11.2768 6.00617 11.6885 6.31817 12.0135 6.7255C12.3428 7.13283 12.5638 7.62033 12.6765 8.188L11.448 8.4025C11.383 8.02117 11.2378 7.694 11.0125 7.421C10.7915 7.14367 10.5142 6.93133 10.1805 6.784C9.84683 6.63233 9.48067 6.55433 9.082 6.55C8.70067 6.54567 8.35617 6.60633 8.0485 6.732C7.74083 6.85767 7.496 7.03317 7.314 7.2585C7.132 7.4795 7.041 7.73517 7.041 8.0255C7.041 8.3115 7.12333 8.54333 7.288 8.721C7.45267 8.89433 7.65417 9.033 7.8925 9.137C8.13517 9.23667 8.37133 9.319 8.601 9.384L10.382 9.8975C10.5857 9.95383 10.8197 10.0318 11.084 10.1315C11.3527 10.2312 11.6127 10.372 11.864 10.554C12.1153 10.7317 12.3233 10.97 12.488 11.269C12.6527 11.5637 12.735 11.9363 12.735 12.387C12.735 12.8377 12.644 13.2385 12.462 13.5895C12.2843 13.9405 12.0352 14.2352 11.7145 14.4735C11.3938 14.7075 11.0212 14.8852 10.5965 15.0065C10.1718 15.1322 9.71683 15.195 9.2315 15.195ZM16.7635 15.182C16.3128 15.182 15.925 15.1105 15.6 14.9675C15.2793 14.8245 15.0128 14.6338 14.8005 14.3955C14.5881 14.1572 14.4213 13.8928 14.3 13.6025C14.1786 13.3122 14.092 13.0153 14.04 12.712C13.9923 12.4087 13.9685 12.1248 13.9685 11.8605V7.98H15.1385V11.4965C15.1385 11.8258 15.1688 12.1443 15.2295 12.452C15.2901 12.7597 15.392 13.037 15.535 13.284C15.6823 13.531 15.8773 13.726 16.12 13.869C16.367 14.012 16.6746 14.0835 17.043 14.0835C17.3333 14.0835 17.5976 14.0337 17.836 13.934C18.0743 13.8343 18.278 13.687 18.447 13.492C18.616 13.2927 18.746 13.0413 18.837 12.738C18.928 12.4347 18.9735 12.0815 18.9735 11.6785L19.734 11.9125C19.734 12.5885 19.6105 13.1713 19.3635 13.661C19.1208 14.1507 18.7763 14.5277 18.33 14.792C17.888 15.052 17.3658 15.182 16.7635 15.182ZM19.1035 15V13.1215H18.9735V7.98H20.137V15H19.1035ZM25.1809 15.195C24.5222 15.195 23.9675 15.0325 23.5169 14.7075C23.0662 14.3782 22.7239 13.934 22.4899 13.375C22.2602 12.8117 22.1454 12.1812 22.1454 11.4835C22.1454 10.7772 22.2602 10.1445 22.4899 9.5855C22.7239 9.0265 23.0662 8.58667 23.5169 8.266C23.9719 7.94533 24.5287 7.785 25.1874 7.785C25.8374 7.785 26.3964 7.9475 26.8644 8.2725C27.3367 8.59317 27.6985 9.033 27.9499 9.592C28.2012 10.151 28.3269 10.7815 28.3269 11.4835C28.3269 12.1855 28.2012 12.816 27.9499 13.375C27.6985 13.934 27.3367 14.3782 26.8644 14.7075C26.3964 15.0325 25.8352 15.195 25.1809 15.195ZM21.9504 15V5.64H23.1139V9.8325H22.9839V15H21.9504ZM25.0379 14.1355C25.5015 14.1355 25.885 14.0185 26.1884 13.7845C26.4917 13.5505 26.7192 13.2342 26.8709 12.8355C27.0225 12.4325 27.0984 11.9818 27.0984 11.4835C27.0984 10.9895 27.0225 10.5432 26.8709 10.1445C26.7235 9.74583 26.4939 9.4295 26.1819 9.1955C25.8742 8.9615 25.482 8.8445 25.0054 8.8445C24.5504 8.8445 24.1734 8.95717 23.8744 9.1825C23.5754 9.4035 23.3522 9.71333 23.2049 10.112C23.0575 10.5063 22.9839 10.9635 22.9839 11.4835C22.9839 11.9948 23.0554 12.452 23.1984 12.855C23.3457 13.2537 23.571 13.5678 23.8744 13.7975C24.1777 14.0228 24.5655 14.1355 25.0379 14.1355ZM33.6713 15C33.2553 15.0823 32.8436 15.1148 32.4363 15.0975C32.0333 15.0845 31.6736 15.0043 31.3573 14.857C31.041 14.7053 30.8005 14.4713 30.6358 14.155C30.4971 13.8777 30.4213 13.5982 30.4083 13.3165C30.3996 13.0305 30.3953 12.7077 30.3953 12.348V6.03H31.5523V12.296C31.5523 12.582 31.5545 12.8268 31.5588 13.0305C31.5675 13.2342 31.613 13.4097 31.6953 13.557C31.8513 13.8343 32.0983 13.9968 32.4363 14.0445C32.7786 14.0922 33.1903 14.0792 33.6713 14.0055V15ZM28.9718 8.9355V7.98H33.6713V8.9355H28.9718ZM37.7945 15.195C37.0969 15.195 36.4945 15.0368 35.9875 14.7205C35.4849 14.4042 35.097 13.9665 34.824 13.4075C34.551 12.8485 34.4145 12.2072 34.4145 11.4835C34.4145 10.7468 34.5532 10.1012 34.8305 9.5465C35.1079 8.99183 35.5 8.56067 36.007 8.253C36.514 7.941 37.1099 7.785 37.7945 7.785C38.4965 7.785 39.101 7.94317 39.608 8.2595C40.115 8.5715 40.5029 9.007 40.7715 9.566C41.0445 10.1207 41.181 10.7598 41.181 11.4835C41.181 12.2158 41.0445 12.8615 40.7715 13.4205C40.4985 13.9752 40.1085 14.4107 39.6015 14.727C39.0945 15.039 38.4922 15.195 37.7945 15.195ZM37.7945 14.0965C38.5225 14.0965 39.0642 13.8538 39.4195 13.3685C39.7749 12.8832 39.9525 12.2548 39.9525 11.4835C39.9525 10.6905 39.7727 10.06 39.413 9.592C39.0534 9.11967 38.5139 8.8835 37.7945 8.8835C37.3049 8.8835 36.9019 8.994 36.5855 9.215C36.2692 9.436 36.033 9.7415 35.877 10.1315C35.721 10.5215 35.643 10.9722 35.643 11.4835C35.643 12.2722 35.825 12.9048 36.189 13.3815C36.553 13.8582 37.0882 14.0965 37.7945 14.0965ZM46.5316 15C46.1156 15.0823 45.704 15.1148 45.2966 15.0975C44.8936 15.0845 44.534 15.0043 44.2176 14.857C43.9013 14.7053 43.6608 14.4713 43.4961 14.155C43.3575 13.8777 43.2816 13.5982 43.2686 13.3165C43.26 13.0305 43.2556 12.7077 43.2556 12.348V6.03H44.4126V12.296C44.4126 12.582 44.4148 12.8268 44.4191 13.0305C44.4278 13.2342 44.4733 13.4097 44.5556 13.557C44.7116 13.8343 44.9586 13.9968 45.2966 14.0445C45.639 14.0922 46.0506 14.0792 46.5316 14.0055V15ZM41.8321 8.9355V7.98H46.5316V8.9355H41.8321ZM49.9524 15.195C49.428 15.195 48.9882 15.0997 48.6329 14.909C48.2819 14.714 48.0154 14.4583 47.8334 14.142C47.6557 13.8257 47.5669 13.479 47.5669 13.102C47.5669 12.7337 47.6362 12.4152 47.7749 12.1465C47.9179 11.8735 48.1172 11.6482 48.3729 11.4705C48.6285 11.2885 48.934 11.1455 49.2894 11.0415C49.623 10.9505 49.9957 10.8725 50.4074 10.8075C50.8234 10.7382 51.2437 10.6753 51.6684 10.619C52.093 10.5627 52.4895 10.5085 52.8579 10.4565L52.4419 10.697C52.4549 10.073 52.3292 9.6115 52.0649 9.3125C51.8049 9.0135 51.3542 8.864 50.7129 8.864C50.2882 8.864 49.9155 8.9615 49.5949 9.1565C49.2785 9.34717 49.0554 9.65917 48.9254 10.0925L47.8269 9.761C47.9959 9.14567 48.323 8.6625 48.8084 8.3115C49.2937 7.9605 49.9329 7.785 50.7259 7.785C51.3629 7.785 51.9089 7.89983 52.3639 8.1295C52.8232 8.35483 53.1525 8.69717 53.3519 9.1565C53.4515 9.37317 53.5144 9.60933 53.5404 9.865C53.5664 10.1163 53.5794 10.3807 53.5794 10.658V15H52.5524V13.3165L52.7929 13.4725C52.5285 14.0402 52.158 14.4692 51.6814 14.7595C51.209 15.0498 50.6327 15.195 49.9524 15.195ZM50.1279 14.2265C50.5439 14.2265 50.9035 14.1528 51.2069 14.0055C51.5145 13.8538 51.7615 13.6567 51.9479 13.414C52.1342 13.167 52.2555 12.8983 52.3119 12.608C52.3769 12.3913 52.4115 12.1508 52.4159 11.8865C52.4245 11.6178 52.4289 11.412 52.4289 11.269L52.8319 11.4445C52.4549 11.4965 52.0844 11.5463 51.7204 11.594C51.3564 11.6417 51.0119 11.6937 50.6869 11.75C50.3619 11.802 50.0694 11.8648 49.8094 11.9385C49.6187 11.9992 49.4389 12.0772 49.2699 12.1725C49.1052 12.2678 48.9709 12.3913 48.8669 12.543C48.7672 12.6903 48.7174 12.8745 48.7174 13.0955C48.7174 13.2862 48.765 13.4682 48.8604 13.6415C48.96 13.8148 49.1117 13.9557 49.3154 14.064C49.5234 14.1723 49.7942 14.2265 50.1279 14.2265ZM55.3994 15V5.445H56.5564V15H55.3994Z" fill="black"/>
<path d="M8.2315 39.195C7.5685 39.195 6.9705 39.0823 6.4375 38.857C5.90883 38.6317 5.47117 38.311 5.1245 37.895C4.78217 37.4747 4.559 36.9785 4.455 36.4065L5.651 36.218C5.80267 36.8073 6.11683 37.2688 6.5935 37.6025C7.0745 37.9318 7.64 38.0965 8.29 38.0965C8.71033 38.0965 9.0895 38.0315 9.4275 37.9015C9.76983 37.7672 10.0407 37.5765 10.24 37.3295C10.4393 37.0825 10.539 36.79 10.539 36.452C10.539 36.244 10.5022 36.0663 10.4285 35.919C10.3592 35.7673 10.2617 35.6395 10.136 35.5355C10.0147 35.4272 9.876 35.3362 9.72 35.2625C9.564 35.1888 9.4015 35.1282 9.2325 35.0805L6.847 34.372C6.587 34.294 6.33567 34.1965 6.093 34.0795C5.85033 33.9582 5.63367 33.8087 5.443 33.631C5.25233 33.449 5.10067 33.2323 4.988 32.981C4.87533 32.7253 4.819 32.4242 4.819 32.0775C4.819 31.5228 4.962 31.0505 5.248 30.6605C5.53833 30.2662 5.9305 29.965 6.4245 29.757C6.9185 29.549 7.47533 29.4472 8.095 29.4515C8.72333 29.4558 9.2845 29.5685 9.7785 29.7895C10.2768 30.0062 10.6885 30.3182 11.0135 30.7255C11.3428 31.1328 11.5638 31.6203 11.6765 32.188L10.448 32.4025C10.383 32.0212 10.2378 31.694 10.0125 31.421C9.7915 31.1437 9.51417 30.9313 9.1805 30.784C8.84683 30.6323 8.48067 30.5543 8.082 30.55C7.70067 30.5457 7.35617 30.6063 7.0485 30.732C6.74083 30.8577 6.496 31.0332 6.314 31.2585C6.132 31.4795 6.041 31.7352 6.041 32.0255C6.041 32.3115 6.12333 32.5433 6.288 32.721C6.45267 32.8943 6.65417 33.033 6.8925 33.137C7.13517 33.2367 7.37133 33.319 7.601 33.384L9.382 33.8975C9.58567 33.9538 9.81967 34.0318 10.084 34.1315C10.3527 34.2312 10.6127 34.372 10.864 34.554C11.1153 34.7317 11.3233 34.97 11.488 35.269C11.6527 35.5637 11.735 35.9363 11.735 36.387C11.735 36.8377 11.644 37.2385 11.462 37.5895C11.2843 37.9405 11.0352 38.2352 10.7145 38.4735C10.3938 38.7075 10.0212 38.8852 9.5965 39.0065C9.17183 39.1322 8.71683 39.195 8.2315 39.195ZM18.097 39V35.4835C18.097 35.1498 18.0666 34.8292 18.006 34.5215C17.9496 34.2138 17.8478 33.9387 17.7005 33.696C17.5575 33.449 17.3625 33.254 17.1155 33.111C16.8728 32.968 16.5651 32.8965 16.1925 32.8965C15.9021 32.8965 15.6378 32.9463 15.3995 33.046C15.1655 33.1413 14.964 33.2887 14.795 33.488C14.626 33.6873 14.4938 33.9387 14.3985 34.242C14.3075 34.541 14.262 34.8942 14.262 35.3015L13.5015 35.0675C13.5015 34.3872 13.6228 33.8043 13.8655 33.319C14.1125 32.8293 14.457 32.4545 14.899 32.1945C15.3453 31.9302 15.8696 31.798 16.472 31.798C16.927 31.798 17.3148 31.8695 17.6355 32.0125C17.9561 32.1555 18.2226 32.3462 18.435 32.5845C18.6473 32.8185 18.8141 33.0828 18.9355 33.3775C19.0568 33.6678 19.1413 33.9647 19.189 34.268C19.241 34.567 19.267 34.8508 19.267 35.1195V39H18.097ZM13.092 39V29.64H14.132V34.8075H14.262V39H13.092ZM21.0869 30.7385V29.5425H22.2439V30.7385H21.0869ZM21.0869 39V31.98H22.2439V39H21.0869ZM27.4182 39.195C26.7595 39.195 26.2048 39.0325 25.7542 38.7075C25.3035 38.3782 24.9612 37.934 24.7272 37.375C24.4975 36.8117 24.3827 36.1812 24.3827 35.4835C24.3827 34.7772 24.4975 34.1445 24.7272 33.5855C24.9612 33.0265 25.3035 32.5867 25.7542 32.266C26.2092 31.9453 26.766 31.785 27.4247 31.785C28.0747 31.785 28.6337 31.9475 29.1017 32.2725C29.574 32.5932 29.9358 33.033 30.1872 33.592C30.4385 34.151 30.5642 34.7815 30.5642 35.4835C30.5642 36.1855 30.4385 36.816 30.1872 37.375C29.9358 37.934 29.574 38.3782 29.1017 38.7075C28.6337 39.0325 28.0725 39.195 27.4182 39.195ZM24.1877 42.12V31.98H25.2212V37.1475H25.3512V42.12H24.1877ZM27.2752 38.1355C27.7388 38.1355 28.1223 38.0185 28.4257 37.7845C28.729 37.5505 28.9565 37.2342 29.1082 36.8355C29.2598 36.4325 29.3357 35.9818 29.3357 35.4835C29.3357 34.9895 29.2598 34.5432 29.1082 34.1445C28.9608 33.7458 28.7312 33.4295 28.4192 33.1955C28.1115 32.9615 27.7193 32.8445 27.2427 32.8445C26.7877 32.8445 26.4107 32.9572 26.1117 33.1825C25.8127 33.4035 25.5895 33.7133 25.4422 34.112C25.2948 34.5063 25.2212 34.9635 25.2212 35.4835C25.2212 35.9948 25.2927 36.452 25.4357 36.855C25.583 37.2537 25.8083 37.5678 26.1117 37.7975C26.415 38.0228 26.8028 38.1355 27.2752 38.1355ZM35.2131 39.195C34.5544 39.195 33.9998 39.0325 33.5491 38.7075C33.0984 38.3782 32.7561 37.934 32.5221 37.375C32.2924 36.8117 32.1776 36.1812 32.1776 35.4835C32.1776 34.7772 32.2924 34.1445 32.5221 33.5855C32.7561 33.0265 33.0984 32.5867 33.5491 32.266C34.0041 31.9453 34.5609 31.785 35.2196 31.785C35.8696 31.785 36.4286 31.9475 36.8966 32.2725C37.3689 32.5932 37.7308 33.033 37.9821 33.592C38.2334 34.151 38.3591 34.7815 38.3591 35.4835C38.3591 36.1855 38.2334 36.816 37.9821 37.375C37.7308 37.934 37.3689 38.3782 36.8966 38.7075C36.4286 39.0325 35.8674 39.195 35.2131 39.195ZM31.9826 42.12V31.98H33.0161V37.1475H33.1461V42.12H31.9826ZM35.0701 38.1355C35.5338 38.1355 35.9173 38.0185 36.2206 37.7845C36.5239 37.5505 36.7514 37.2342 36.9031 36.8355C37.0548 36.4325 37.1306 35.9818 37.1306 35.4835C37.1306 34.9895 37.0548 34.5432 36.9031 34.1445C36.7558 33.7458 36.5261 33.4295 36.2141 33.1955C35.9064 32.9615 35.5143 32.8445 35.0376 32.8445C34.5826 32.8445 34.2056 32.9572 33.9066 33.1825C33.6076 33.4035 33.3844 33.7133 33.2371 34.112C33.0898 34.5063 33.0161 34.9635 33.0161 35.4835C33.0161 35.9948 33.0876 36.452 33.2306 36.855C33.3779 37.2537 33.6033 37.5678 33.9066 37.7975C34.2099 38.0228 34.5978 38.1355 35.0701 38.1355ZM39.914 30.7385V29.5425H41.071V30.7385H39.914ZM39.914 39V31.98H41.071V39H39.914ZM48.0198 39V35.4835C48.0198 35.1498 47.9895 34.8292 47.9288 34.5215C47.8725 34.2138 47.7707 33.9387 47.6233 33.696C47.4803 33.449 47.2853 33.254 47.0383 33.111C46.7957 32.968 46.488 32.8965 46.1153 32.8965C45.825 32.8965 45.5607 32.9463 45.3223 33.046C45.0883 33.1413 44.8868 33.2887 44.7178 33.488C44.5488 33.6873 44.4167 33.9387 44.3213 34.242C44.2303 34.541 44.1848 34.8942 44.1848 35.3015L43.4243 35.0675C43.4243 34.3872 43.5457 33.8043 43.7883 33.319C44.0353 32.8293 44.3798 32.4545 44.8218 32.1945C45.2682 31.9302 45.7925 31.798 46.3948 31.798C46.8498 31.798 47.2377 31.8695 47.5583 32.0125C47.879 32.1555 48.1455 32.3462 48.3578 32.5845C48.5702 32.8185 48.737 33.0828 48.8583 33.3775C48.9797 33.6678 49.0642 33.9647 49.1118 34.268C49.1638 34.567 49.1898 34.8508 49.1898 35.1195V39H48.0198ZM43.0148 39V31.98H44.0548V33.8585H44.1848V39H43.0148ZM53.7202 42.315C53.3519 42.315 52.9922 42.2587 52.6412 42.146C52.2902 42.0333 51.9674 41.8622 51.6727 41.6325C51.3824 41.4072 51.1397 41.1212 50.9447 40.7745L52.0042 40.2155C52.1776 40.5578 52.4224 40.807 52.7387 40.963C53.0594 41.119 53.3887 41.197 53.7267 41.197C54.1731 41.197 54.5436 41.1147 54.8382 40.95C55.1329 40.7897 55.3496 40.5492 55.4882 40.2285C55.6312 39.9078 55.7006 39.5092 55.6962 39.0325V37.115H55.8327V31.98H56.8597V39.0455C56.8597 39.2362 56.8532 39.4203 56.8402 39.598C56.8316 39.7757 56.8099 39.9512 56.7752 40.1245C56.6842 40.6228 56.5044 41.0323 56.2357 41.353C55.9671 41.678 55.6204 41.9185 55.1957 42.0745C54.7711 42.2348 54.2792 42.315 53.7202 42.315ZM53.6357 39.195C52.9814 39.195 52.4202 39.0325 51.9522 38.7075C51.4842 38.3782 51.1224 37.934 50.8667 37.375C50.6154 36.816 50.4897 36.1855 50.4897 35.4835C50.4897 34.7815 50.6154 34.151 50.8667 33.592C51.1224 33.033 51.4842 32.5932 51.9522 32.2725C52.4202 31.9475 52.9792 31.785 53.6292 31.785C54.2922 31.785 54.8491 31.9453 55.2997 32.266C55.7504 32.5867 56.0906 33.0265 56.3202 33.5855C56.5542 34.1445 56.6712 34.7772 56.6712 35.4835C56.6712 36.1812 56.5542 36.8117 56.3202 37.375C56.0906 37.934 55.7504 38.3782 55.2997 38.7075C54.8491 39.0325 54.2944 39.195 53.6357 39.195ZM53.7787 38.1355C54.2511 38.1355 54.6389 38.0228 54.9422 37.7975C55.2456 37.5678 55.4687 37.2537 55.6117 36.855C55.7591 36.452 55.8327 35.9948 55.8327 35.4835C55.8327 34.9635 55.7591 34.5063 55.6117 34.112C55.4687 33.7133 55.2477 33.4035 54.9487 33.1825C54.6497 32.9572 54.2706 32.8445 53.8112 32.8445C53.3346 32.8445 52.9402 32.9615 52.6282 33.1955C52.3206 33.4295 52.0909 33.7458 51.9392 34.1445C51.7919 34.5432 51.7182 34.9895 51.7182 35.4835C51.7182 35.9818 51.7941 36.4325 51.9457 36.8355C52.0974 37.2342 52.3249 37.5505 52.6282 37.7845C52.9359 38.0185 53.3194 38.1355 53.7787 38.1355Z" fill="black"/>
<path d="M5.91 66V56.64H11.825V57.7385H7.067V60.67H11.045V61.7685H7.067V64.9015H11.825V66H5.91ZM16.0395 66.1885C15.2032 66.1885 14.5164 66.0065 13.979 65.6425C13.446 65.2742 13.1189 64.7607 12.9975 64.102L14.1805 63.9135C14.2759 64.2948 14.4947 64.5982 14.837 64.8235C15.1794 65.0445 15.604 65.155 16.111 65.155C16.592 65.155 16.969 65.0553 17.242 64.856C17.515 64.6567 17.6515 64.3858 17.6515 64.0435C17.6515 63.8442 17.606 63.6838 17.515 63.5625C17.424 63.4368 17.2355 63.3198 16.9495 63.2115C16.6679 63.1032 16.241 62.9732 15.669 62.8215C15.0494 62.6568 14.5619 62.4857 14.2065 62.308C13.8512 62.1303 13.5977 61.9245 13.446 61.6905C13.2944 61.4565 13.2185 61.1727 13.2185 60.839C13.2185 60.4273 13.3312 60.0677 13.5565 59.76C13.7819 59.448 14.096 59.2075 14.499 59.0385C14.9064 58.8695 15.3787 58.785 15.916 58.785C16.449 58.785 16.9257 58.8695 17.346 59.0385C17.7664 59.2075 18.1044 59.448 18.36 59.76C18.62 60.0677 18.7739 60.4273 18.8215 60.839L17.6385 61.0535C17.5822 60.6765 17.4002 60.3797 17.0925 60.163C16.7892 59.9463 16.397 59.8315 15.916 59.8185C15.461 59.8012 15.0905 59.8813 14.8045 60.059C14.5229 60.2367 14.382 60.4772 14.382 60.7805C14.382 60.9495 14.434 61.0947 14.538 61.216C14.6464 61.3373 14.8435 61.4522 15.1295 61.5605C15.4199 61.6688 15.8402 61.7923 16.3905 61.931C17.0102 62.087 17.4977 62.2582 17.853 62.4445C18.2127 62.6265 18.4684 62.8432 18.62 63.0945C18.7717 63.3415 18.8475 63.647 18.8475 64.011C18.8475 64.687 18.5984 65.22 18.1 65.61C17.6017 65.9957 16.9149 66.1885 16.0395 66.1885ZM24.2006 66C23.7846 66.0823 23.3729 66.1148 22.9656 66.0975C22.5626 66.0845 22.2029 66.0043 21.8866 65.857C21.5703 65.7053 21.3298 65.4713 21.1651 65.155C21.0264 64.8777 20.9506 64.5982 20.9376 64.3165C20.9289 64.0305 20.9246 63.7077 20.9246 63.348V57.03H22.0816V63.296C22.0816 63.582 22.0838 63.8268 22.0881 64.0305C22.0968 64.2342 22.1423 64.4097 22.2246 64.557C22.3806 64.8343 22.6276 64.9968 22.9656 65.0445C23.3079 65.0922 23.7196 65.0792 24.2006 65.0055V66ZM19.5011 59.9355V58.98H24.2006V59.9355H19.5011ZM25.7558 57.7385V56.5425H26.9128V57.7385H25.7558ZM25.7558 66V58.98H26.9128V66H25.7558ZM37.2546 66L37.2611 61.5085C37.2611 60.9842 37.1203 60.5747 36.8386 60.28C36.5613 59.981 36.1995 59.8315 35.7531 59.8315C35.4931 59.8315 35.2461 59.8922 35.0121 60.0135C34.7781 60.1305 34.5875 60.3168 34.4401 60.5725C34.2928 60.8238 34.2191 61.1467 34.2191 61.541L33.6081 61.294C33.5995 60.7957 33.7013 60.3602 33.9136 59.9875C34.1303 59.6105 34.425 59.318 34.7976 59.11C35.1703 58.902 35.5906 58.798 36.0586 58.798C36.791 58.798 37.3673 59.0212 37.7876 59.4675C38.208 59.9095 38.4181 60.5053 38.4181 61.255L38.4116 66H37.2546ZM28.8566 66V58.98H29.8901V60.8585H30.0201V66H28.8566ZM33.0621 66L33.0686 61.554C33.0686 61.0167 32.93 60.5963 32.6526 60.293C32.3753 59.9853 32.007 59.8315 31.5476 59.8315C31.0926 59.8315 30.7243 59.9875 30.4426 60.2995C30.161 60.6115 30.0201 61.0253 30.0201 61.541L29.4091 61.177C29.4091 60.722 29.5175 60.3147 29.7341 59.955C29.9508 59.5953 30.2455 59.3137 30.6181 59.11C30.9908 58.902 31.4133 58.798 31.8856 58.798C32.358 58.798 32.7696 58.8977 33.1206 59.097C33.4716 59.2963 33.7425 59.5823 33.9331 59.955C34.1238 60.3233 34.2191 60.7632 34.2191 61.2745L34.2126 66H33.0621ZM42.1067 66.195C41.5823 66.195 41.1425 66.0997 40.7872 65.909C40.4362 65.714 40.1697 65.4583 39.9877 65.142C39.81 64.8257 39.7212 64.479 39.7212 64.102C39.7212 63.7337 39.7905 63.4152 39.9292 63.1465C40.0722 62.8735 40.2715 62.6482 40.5272 62.4705C40.7828 62.2885 41.0883 62.1455 41.4437 62.0415C41.7773 61.9505 42.15 61.8725 42.5617 61.8075C42.9777 61.7382 43.398 61.6753 43.8227 61.619C44.2473 61.5627 44.6438 61.5085 45.0122 61.4565L44.5962 61.697C44.6092 61.073 44.4835 60.6115 44.2192 60.3125C43.9592 60.0135 43.5085 59.864 42.8672 59.864C42.4425 59.864 42.0698 59.9615 41.7492 60.1565C41.4328 60.3472 41.2097 60.6592 41.0797 61.0925L39.9812 60.761C40.1502 60.1457 40.4773 59.6625 40.9627 59.3115C41.448 58.9605 42.0872 58.785 42.8802 58.785C43.5172 58.785 44.0632 58.8998 44.5182 59.1295C44.9775 59.3548 45.3068 59.6972 45.5062 60.1565C45.6058 60.3732 45.6687 60.6093 45.6947 60.865C45.7207 61.1163 45.7337 61.3807 45.7337 61.658V66H44.7067V64.3165L44.9472 64.4725C44.6828 65.0402 44.3123 65.4692 43.8357 65.7595C43.3633 66.0498 42.787 66.195 42.1067 66.195ZM42.2822 65.2265C42.6982 65.2265 43.0578 65.1528 43.3612 65.0055C43.6688 64.8538 43.9158 64.6567 44.1022 64.414C44.2885 64.167 44.4098 63.8983 44.4662 63.608C44.5312 63.3913 44.5658 63.1508 44.5702 62.8865C44.5788 62.6178 44.5832 62.412 44.5832 62.269L44.9862 62.4445C44.6092 62.4965 44.2387 62.5463 43.8747 62.594C43.5107 62.6417 43.1662 62.6937 42.8412 62.75C42.5162 62.802 42.2237 62.8648 41.9637 62.9385C41.773 62.9992 41.5932 63.0772 41.4242 63.1725C41.2595 63.2678 41.1252 63.3913 41.0212 63.543C40.9215 63.6903 40.8717 63.8745 40.8717 64.0955C40.8717 64.2862 40.9193 64.4682 41.0147 64.6415C41.1143 64.8148 41.266 64.9557 41.4697 65.064C41.6777 65.1723 41.9485 65.2265 42.2822 65.2265ZM51.3432 66C50.9272 66.0823 50.5155 66.1148 50.1082 66.0975C49.7052 66.0845 49.3455 66.0043 49.0292 65.857C48.7128 65.7053 48.4723 65.4713 48.3077 65.155C48.169 64.8777 48.0932 64.5982 48.0802 64.3165C48.0715 64.0305 48.0672 63.7077 48.0672 63.348V57.03H49.2242V63.296C49.2242 63.582 49.2263 63.8268 49.2307 64.0305C49.2393 64.2342 49.2848 64.4097 49.3672 64.557C49.5232 64.8343 49.7702 64.9968 50.1082 65.0445C50.4505 65.0922 50.8622 65.0792 51.3432 65.0055V66ZM46.6437 59.9355V58.98H51.3432V59.9355H46.6437ZM55.5184 66.195C54.8294 66.195 54.2271 66.0433 53.7114 65.74C53.2001 65.4323 52.8014 65.0055 52.5154 64.4595C52.2294 63.9092 52.0864 63.2678 52.0864 62.5355C52.0864 61.7685 52.2272 61.1055 52.5089 60.5465C52.7906 59.9832 53.1827 59.5498 53.6854 59.2465C54.1924 58.9388 54.7861 58.785 55.4664 58.785C56.1727 58.785 56.7729 58.9475 57.2669 59.2725C57.7652 59.5975 58.1379 60.0612 58.3849 60.6635C58.6362 61.2658 58.7446 61.983 58.7099 62.815H57.5399V62.399C57.5269 61.5367 57.3514 60.8932 57.0134 60.4685C56.6754 60.0395 56.1727 59.825 55.5054 59.825C54.7904 59.825 54.2466 60.0547 53.8739 60.514C53.5012 60.9733 53.3149 61.632 53.3149 62.49C53.3149 63.3177 53.5012 63.959 53.8739 64.414C54.2466 64.869 54.7774 65.0965 55.4664 65.0965C55.9301 65.0965 56.3331 64.9903 56.6754 64.778C57.0177 64.5657 57.2864 64.2602 57.4814 63.8615L58.5929 64.245C58.3199 64.8647 57.9082 65.3457 57.3579 65.688C56.8119 66.026 56.1987 66.195 55.5184 66.195ZM52.9249 62.815V61.8855H58.1119V62.815H52.9249ZM62.9131 66.195C62.2587 66.195 61.6976 66.0325 61.2296 65.7075C60.7616 65.3782 60.3997 64.934 60.1441 64.375C59.8927 63.816 59.7671 63.1855 59.7671 62.4835C59.7671 61.7815 59.8927 61.151 60.1441 60.592C60.3997 60.033 60.7616 59.5932 61.2296 59.2725C61.6976 58.9475 62.2566 58.785 62.9066 58.785C63.5696 58.785 64.1264 58.9453 64.5771 59.266C65.0277 59.5867 65.3679 60.0265 65.5976 60.5855C65.8316 61.1445 65.9486 61.7772 65.9486 62.4835C65.9486 63.1812 65.8316 63.8117 65.5976 64.375C65.3679 64.934 65.0277 65.3782 64.5771 65.7075C64.1264 66.0325 63.5717 66.195 62.9131 66.195ZM63.0561 65.1355C63.5284 65.1355 63.9162 65.0228 64.2196 64.7975C64.5229 64.5678 64.7461 64.2537 64.8891 63.855C65.0364 63.452 65.1101 62.9948 65.1101 62.4835C65.1101 61.9635 65.0364 61.5063 64.8891 61.112C64.7461 60.7133 64.5251 60.4035 64.2261 60.1825C63.9271 59.9572 63.5479 59.8445 63.0886 59.8445C62.6119 59.8445 62.2176 59.9615 61.9056 60.1955C61.5979 60.4295 61.3682 60.7458 61.2166 61.1445C61.0692 61.5432 60.9956 61.9895 60.9956 62.4835C60.9956 62.9818 61.0714 63.4325 61.2231 63.8355C61.3747 64.2342 61.6022 64.5505 61.9056 64.7845C62.2132 65.0185 62.5967 65.1355 63.0561 65.1355ZM65.1101 66V60.8325H64.9801V56.64H66.1436V66H65.1101ZM74.4867 66C74.0707 66.0823 73.6591 66.1148 73.2517 66.0975C72.8487 66.0845 72.4891 66.0043 72.1727 65.857C71.8564 65.7053 71.6159 65.4713 71.4512 65.155C71.3126 64.8777 71.2367 64.5982 71.2237 64.3165C71.2151 64.0305 71.2107 63.7077 71.2107 63.348V57.03H72.3677V63.296C72.3677 63.582 72.3699 63.8268 72.3742 64.0305C72.3829 64.2342 72.4284 64.4097 72.5107 64.557C72.6667 64.8343 72.9137 64.9968 73.2517 65.0445C73.5941 65.0922 74.0057 65.0792 74.4867 65.0055V66ZM69.7872 59.9355V58.98H74.4867V59.9355H69.7872ZM77.9075 66.195C77.3831 66.195 76.9433 66.0997 76.588 65.909C76.237 65.714 75.9705 65.4583 75.7885 65.142C75.6108 64.8257 75.522 64.479 75.522 64.102C75.522 63.7337 75.5913 63.4152 75.73 63.1465C75.873 62.8735 76.0723 62.6482 76.328 62.4705C76.5836 62.2885 76.8891 62.1455 77.2445 62.0415C77.5781 61.9505 77.9508 61.8725 78.3625 61.8075C78.7785 61.7382 79.1988 61.6753 79.6235 61.619C80.0481 61.5627 80.4446 61.5085 80.813 61.4565L80.397 61.697C80.41 61.073 80.2843 60.6115 80.02 60.3125C79.76 60.0135 79.3093 59.864 78.668 59.864C78.2433 59.864 77.8706 59.9615 77.55 60.1565C77.2336 60.3472 77.0105 60.6592 76.8805 61.0925L75.782 60.761C75.951 60.1457 76.2781 59.6625 76.7635 59.3115C77.2488 58.9605 77.888 58.785 78.681 58.785C79.318 58.785 79.864 58.8998 80.319 59.1295C80.7783 59.3548 81.1076 59.6972 81.307 60.1565C81.4066 60.3732 81.4695 60.6093 81.4955 60.865C81.5215 61.1163 81.5345 61.3807 81.5345 61.658V66H80.5075V64.3165L80.748 64.4725C80.4836 65.0402 80.1131 65.4692 79.6365 65.7595C79.1641 66.0498 78.5878 66.195 77.9075 66.195ZM78.083 65.2265C78.499 65.2265 78.8586 65.1528 79.162 65.0055C79.4696 64.8538 79.7166 64.6567 79.903 64.414C80.0893 64.167 80.2106 63.8983 80.267 63.608C80.332 63.3913 80.3666 63.1508 80.371 62.8865C80.3796 62.6178 80.384 62.412 80.384 62.269L80.787 62.4445C80.41 62.4965 80.0395 62.5463 79.6755 62.594C79.3115 62.6417 78.967 62.6937 78.642 62.75C78.317 62.802 78.0245 62.8648 77.7645 62.9385C77.5738 62.9992 77.394 63.0772 77.225 63.1725C77.0603 63.2678 76.926 63.3913 76.822 63.543C76.7223 63.6903 76.6725 63.8745 76.6725 64.0955C76.6725 64.2862 76.7201 64.4682 76.8155 64.6415C76.9151 64.8148 77.0668 64.9557 77.2705 65.064C77.4785 65.1723 77.7493 65.2265 78.083 65.2265ZM82.4445 66L85.129 62.451L82.503 58.98H83.881L85.805 61.554L87.7095 58.98H89.0875L86.4615 62.451L89.1525 66H87.768L85.805 63.348L83.829 66H82.4445Z" fill="black"/>
<path d="M8.1214 105V95.288H4.3934V93.48H13.7774V95.288H10.0494V105H8.1214ZM17.5913 105.24C16.7273 105.24 15.9726 105.045 15.3273 104.656C14.6819 104.267 14.1806 103.731 13.8233 103.048C13.4713 102.36 13.2953 101.571 13.2953 100.68C13.2953 99.7733 13.4766 98.9787 13.8393 98.296C14.2019 97.6133 14.7059 97.08 15.3513 96.696C15.9966 96.312 16.7433 96.12 17.5913 96.12C18.4606 96.12 19.2179 96.3147 19.8633 96.704C20.5086 97.0933 21.0099 97.632 21.3673 98.32C21.7246 99.0027 21.9033 99.7893 21.9033 100.68C21.9033 101.576 21.7219 102.368 21.3593 103.056C21.0019 103.739 20.5006 104.275 19.8553 104.664C19.2099 105.048 18.4553 105.24 17.5913 105.24ZM17.5913 103.432C18.3593 103.432 18.9299 103.176 19.3033 102.664C19.6766 102.152 19.8633 101.491 19.8633 100.68C19.8633 99.8427 19.6739 99.176 19.2953 98.68C18.9166 98.1787 18.3486 97.928 17.5913 97.928C17.0739 97.928 16.6473 98.0453 16.3113 98.28C15.9806 98.5093 15.7353 98.832 15.5753 99.248C15.4153 99.6587 15.3353 100.136 15.3353 100.68C15.3353 101.517 15.5246 102.187 15.9033 102.688C16.2873 103.184 16.8499 103.432 17.5913 103.432ZM28.7299 105C28.1592 105.107 27.5992 105.152 27.0499 105.136C26.5059 105.125 26.0179 105.027 25.5859 104.84C25.1539 104.648 24.8259 104.347 24.6019 103.936C24.4046 103.563 24.3006 103.181 24.2899 102.792C24.2792 102.403 24.2739 101.963 24.2739 101.472V93.96H26.1939V101.36C26.1939 101.707 26.1966 102.011 26.2019 102.272C26.2126 102.533 26.2686 102.747 26.3699 102.912C26.5619 103.232 26.8686 103.411 27.2899 103.448C27.7112 103.485 28.1912 103.464 28.7299 103.384V105ZM22.7059 97.872V96.36H28.7299V97.872H22.7059ZM33.0038 105.24C32.3798 105.24 31.8518 105.123 31.4198 104.888C30.9878 104.648 30.6598 104.331 30.4358 103.936C30.2171 103.541 30.1078 103.107 30.1078 102.632C30.1078 102.216 30.1771 101.843 30.3158 101.512C30.4544 101.176 30.6678 100.888 30.9558 100.648C31.2438 100.403 31.6171 100.203 32.0758 100.048C32.4224 99.936 32.8278 99.8347 33.2918 99.744C33.7611 99.6533 34.2678 99.5707 34.8118 99.496C35.3611 99.416 35.9344 99.3307 36.5318 99.24L35.8438 99.632C35.8491 99.0347 35.7158 98.5947 35.4438 98.312C35.1718 98.0293 34.7131 97.888 34.0678 97.888C33.6784 97.888 33.3024 97.9787 32.9398 98.16C32.5771 98.3413 32.3238 98.6533 32.1798 99.096L30.4198 98.544C30.6331 97.8133 31.0384 97.2267 31.6358 96.784C32.2384 96.3413 33.0491 96.12 34.0678 96.12C34.8358 96.12 35.5104 96.2453 36.0918 96.496C36.6784 96.7467 37.1131 97.1573 37.3958 97.728C37.5504 98.032 37.6438 98.344 37.6758 98.664C37.7078 98.9787 37.7238 99.3227 37.7238 99.696V105H36.0358V103.128L36.3158 103.432C35.9264 104.056 35.4704 104.515 34.9478 104.808C34.4304 105.096 33.7824 105.24 33.0038 105.24ZM33.3878 103.704C33.8251 103.704 34.1984 103.627 34.5078 103.472C34.8171 103.317 35.0624 103.128 35.2438 102.904C35.4304 102.68 35.5558 102.469 35.6198 102.272C35.7211 102.027 35.7771 101.747 35.7878 101.432C35.8038 101.112 35.8118 100.853 35.8118 100.656L36.4038 100.832C35.8224 100.923 35.3238 101.003 34.9078 101.072C34.4918 101.141 34.1344 101.208 33.8358 101.272C33.5371 101.331 33.2731 101.397 33.0438 101.472C32.8198 101.552 32.6304 101.645 32.4758 101.752C32.3211 101.859 32.2011 101.981 32.1158 102.12C32.0358 102.259 31.9958 102.421 31.9958 102.608C31.9958 102.821 32.0491 103.011 32.1558 103.176C32.2624 103.336 32.4171 103.464 32.6198 103.56C32.8278 103.656 33.0838 103.704 33.3878 103.704ZM39.9665 105V93.24H41.8945V105H39.9665Z" fill="black"/>
<path d="M293.633 42.386V40.769H294.879V42.386H293.633ZM293.633 31.151V29.527H294.879V31.151H293.633ZM294.354 41.21C293.673 41.21 293.059 41.0887 292.513 40.846C291.972 40.5987 291.526 40.251 291.176 39.803C290.826 39.3503 290.597 38.8183 290.49 38.207L291.715 38.004C291.864 38.6247 292.179 39.117 292.66 39.481C293.145 39.845 293.729 40.027 294.41 40.027C295.096 40.027 295.651 39.8613 296.076 39.53C296.501 39.1987 296.713 38.7717 296.713 38.249C296.713 37.8663 296.599 37.5583 296.37 37.325C296.146 37.0917 295.768 36.8933 295.236 36.73L292.933 36.016C291.556 35.5867 290.868 34.7653 290.868 33.552C290.868 32.9827 291.006 32.4857 291.281 32.061C291.561 31.6317 291.951 31.3003 292.45 31.067C292.954 30.829 293.54 30.7123 294.207 30.717C294.856 30.7217 295.434 30.843 295.943 31.081C296.452 31.3143 296.872 31.6503 297.203 32.089C297.539 32.5277 297.765 33.0527 297.882 33.664L296.622 33.895C296.557 33.4983 296.412 33.1507 296.188 32.852C295.969 32.5533 295.689 32.3223 295.348 32.159C295.007 31.991 294.625 31.9047 294.2 31.9C293.803 31.8953 293.446 31.9607 293.129 32.096C292.816 32.2313 292.569 32.4203 292.387 32.663C292.205 32.9057 292.114 33.1833 292.114 33.496C292.114 33.8367 292.24 34.126 292.492 34.364C292.749 34.5973 293.15 34.798 293.696 34.966L295.586 35.526C296.417 35.7733 297.016 36.107 297.385 36.527C297.754 36.9423 297.938 37.4977 297.938 38.193C297.938 38.795 297.789 39.3223 297.49 39.775C297.196 40.2277 296.778 40.58 296.237 40.832C295.7 41.084 295.073 41.21 294.354 41.21ZM305.187 41.21C304.669 41.21 304.186 41.1027 303.738 40.888C303.294 40.6733 302.914 40.3793 302.597 40.006C302.284 39.628 302.06 39.194 301.925 38.704L303.122 38.382C303.206 38.7133 303.355 39.0003 303.57 39.243C303.784 39.481 304.034 39.6677 304.319 39.803C304.608 39.9337 304.909 39.999 305.222 39.999C305.632 39.999 306.001 39.901 306.328 39.705C306.659 39.5043 306.92 39.2407 307.112 38.914C307.303 38.5827 307.399 38.221 307.399 37.829C307.399 37.423 307.298 37.0567 307.098 36.73C306.902 36.3987 306.638 36.1373 306.307 35.946C305.975 35.7547 305.614 35.659 305.222 35.659C304.778 35.659 304.398 35.7523 304.081 35.939C303.768 36.121 303.521 36.345 303.339 36.611L302.233 36.191L302.541 30.92H307.952V32.103H303.143L303.696 31.585L303.437 35.806L303.164 35.449C303.444 35.1503 303.777 34.9193 304.165 34.756C304.557 34.5927 304.956 34.511 305.362 34.511C305.987 34.511 306.547 34.658 307.042 34.952C307.536 35.2413 307.928 35.638 308.218 36.142C308.507 36.6413 308.652 37.2037 308.652 37.829C308.652 38.4497 308.493 39.0167 308.176 39.53C307.858 40.0387 307.436 40.447 306.909 40.755C306.386 41.0583 305.812 41.21 305.187 41.21ZM310.55 41V39.628H311.922V41H310.55ZM317.396 30.717C318.04 30.717 318.621 30.871 319.139 31.179C319.657 31.487 320.068 31.907 320.371 32.439C320.679 32.971 320.833 33.5753 320.833 34.252V37.605C320.833 38.3097 320.681 38.9327 320.378 39.474C320.075 40.0153 319.655 40.44 319.118 40.748C318.586 41.056 317.975 41.21 317.284 41.21C316.733 41.21 316.218 41.0957 315.737 40.867C315.261 40.6383 314.857 40.314 314.526 39.894L315.457 39.068C315.662 39.3573 315.926 39.5907 316.248 39.768C316.57 39.9407 316.915 40.027 317.284 40.027C317.732 40.027 318.126 39.9197 318.467 39.705C318.812 39.4903 319.081 39.2103 319.272 38.865C319.468 38.5197 319.566 38.1463 319.566 37.745V35.722L319.839 36.03C319.55 36.45 319.179 36.786 318.726 37.038C318.273 37.29 317.781 37.416 317.249 37.416C316.624 37.416 316.064 37.269 315.569 36.975C315.074 36.681 314.682 36.2843 314.393 35.785C314.104 35.281 313.959 34.7163 313.959 34.091C313.959 33.4657 314.115 32.8987 314.428 32.39C314.741 31.8767 315.156 31.4707 315.674 31.172C316.197 30.8687 316.771 30.717 317.396 30.717ZM317.396 31.921C316.995 31.921 316.628 32.019 316.297 32.215C315.97 32.4063 315.709 32.6677 315.513 32.999C315.317 33.3257 315.219 33.6897 315.219 34.091C315.219 34.4923 315.315 34.8587 315.506 35.19C315.702 35.5167 315.963 35.778 316.29 35.974C316.621 36.17 316.988 36.268 317.389 36.268C317.79 36.268 318.157 36.17 318.488 35.974C318.819 35.778 319.081 35.5167 319.272 35.19C319.468 34.8587 319.566 34.4923 319.566 34.091C319.566 33.6943 319.468 33.3327 319.272 33.006C319.081 32.6747 318.819 32.411 318.488 32.215C318.161 32.019 317.797 31.921 317.396 31.921ZM325.776 41.21C325.258 41.21 324.775 41.1027 324.327 40.888C323.884 40.6733 323.504 40.3793 323.186 40.006C322.874 39.628 322.65 39.194 322.514 38.704L323.711 38.382C323.795 38.7133 323.945 39.0003 324.159 39.243C324.374 39.481 324.624 39.6677 324.908 39.803C325.198 39.9337 325.499 39.999 325.811 39.999C326.222 39.999 326.591 39.901 326.917 39.705C327.249 39.5043 327.51 39.2407 327.701 38.914C327.893 38.5827 327.988 38.221 327.988 37.829C327.988 37.423 327.888 37.0567 327.687 36.73C327.491 36.3987 327.228 36.1373 326.896 35.946C326.565 35.7547 326.203 35.659 325.811 35.659C325.368 35.659 324.988 35.7523 324.67 35.939C324.358 36.121 324.11 36.345 323.928 36.611L322.822 36.191L323.13 30.92H328.541V32.103H323.732L324.285 31.585L324.026 35.806L323.753 35.449C324.033 35.1503 324.367 34.9193 324.754 34.756C325.146 34.5927 325.545 34.511 325.951 34.511C326.577 34.511 327.137 34.658 327.631 34.952C328.126 35.2413 328.518 35.638 328.807 36.142C329.097 36.6413 329.241 37.2037 329.241 37.829C329.241 38.4497 329.083 39.0167 328.765 39.53C328.448 40.0387 328.026 40.447 327.498 40.755C326.976 41.0583 326.402 41.21 325.776 41.21Z" fill="black"/>
<path d="M280.633 16.386V14.769H281.879V16.386H280.633ZM280.633 5.151V3.527H281.879V5.151H280.633ZM281.354 15.21C280.673 15.21 280.059 15.0887 279.513 14.846C278.972 14.5987 278.526 14.251 278.176 13.803C277.826 13.3503 277.597 12.8183 277.49 12.207L278.715 12.004C278.864 12.6247 279.179 13.117 279.66 13.481C280.145 13.845 280.729 14.027 281.41 14.027C282.096 14.027 282.651 13.8613 283.076 13.53C283.501 13.1987 283.713 12.7717 283.713 12.249C283.713 11.8663 283.599 11.5583 283.37 11.325C283.146 11.0917 282.768 10.8933 282.236 10.73L279.933 10.016C278.556 9.58667 277.868 8.76533 277.868 7.552C277.868 6.98267 278.006 6.48567 278.281 6.061C278.561 5.63167 278.951 5.30033 279.45 5.067C279.954 4.829 280.54 4.71233 281.207 4.717C281.856 4.72167 282.434 4.843 282.943 5.081C283.452 5.31433 283.872 5.65033 284.203 6.089C284.539 6.52767 284.765 7.05267 284.882 7.664L283.622 7.895C283.557 7.49833 283.412 7.15067 283.188 6.852C282.969 6.55333 282.689 6.32233 282.348 6.159C282.007 5.991 281.625 5.90467 281.2 5.9C280.803 5.89533 280.446 5.96067 280.129 6.096C279.816 6.23133 279.569 6.42033 279.387 6.663C279.205 6.90567 279.114 7.18333 279.114 7.496C279.114 7.83667 279.24 8.126 279.492 8.364C279.749 8.59733 280.15 8.798 280.696 8.966L282.586 9.526C283.417 9.77333 284.016 10.107 284.385 10.527C284.754 10.9423 284.938 11.4977 284.938 12.193C284.938 12.795 284.789 13.3223 284.49 13.775C284.196 14.2277 283.778 14.58 283.237 14.832C282.7 15.084 282.073 15.21 281.354 15.21ZM289.167 15.196C288.668 15.196 288.203 15.105 287.774 14.923C287.345 14.7363 286.974 14.475 286.661 14.139C286.353 13.7983 286.127 13.3947 285.982 12.928L287.179 12.585C287.333 13.0517 287.59 13.4063 287.949 13.649C288.308 13.8917 288.712 14.0107 289.16 14.006C289.571 13.9967 289.925 13.9033 290.224 13.726C290.527 13.544 290.761 13.2967 290.924 12.984C291.092 12.6713 291.176 12.3097 291.176 11.899C291.176 11.2737 290.989 10.7673 290.616 10.38C290.243 9.988 289.753 9.792 289.146 9.792C288.978 9.792 288.801 9.81533 288.614 9.862C288.432 9.90867 288.262 9.974 288.103 10.058L287.501 9.071L291.239 5.69L291.4 6.11H286.381V4.92H292.324V6.117L289.139 9.169L289.125 8.728C289.792 8.68133 290.376 8.791 290.875 9.057C291.374 9.323 291.762 9.70333 292.037 10.198C292.317 10.6927 292.457 11.2597 292.457 11.899C292.457 12.543 292.312 13.1123 292.023 13.607C291.734 14.1017 291.342 14.4913 290.847 14.776C290.352 15.056 289.792 15.196 289.167 15.196ZM297.714 15.21C297.075 15.21 296.494 15.056 295.971 14.748C295.453 14.44 295.04 14.02 294.732 13.488C294.429 12.9513 294.277 12.347 294.277 11.675V8.322C294.277 7.61733 294.429 6.99433 294.732 6.453C295.04 5.907 295.46 5.48233 295.992 5.179C296.529 4.871 297.14 4.717 297.826 4.717C298.381 4.717 298.897 4.83133 299.373 5.06C299.854 5.284 300.257 5.60833 300.584 6.033L299.653 6.859C299.452 6.565 299.191 6.33167 298.869 6.159C298.547 5.98633 298.199 5.9 297.826 5.9C297.383 5.9 296.988 6.00733 296.643 6.222C296.302 6.432 296.034 6.712 295.838 7.062C295.642 7.40733 295.544 7.78067 295.544 8.182V10.205L295.271 9.897C295.565 9.477 295.938 9.141 296.391 8.889C296.844 8.637 297.334 8.511 297.861 8.511C298.486 8.511 299.046 8.658 299.541 8.952C300.04 9.246 300.432 9.645 300.717 10.149C301.006 10.6483 301.151 11.2107 301.151 11.836C301.151 12.4613 300.995 13.0283 300.682 13.537C300.369 14.0457 299.952 14.4517 299.429 14.755C298.911 15.0583 298.339 15.21 297.714 15.21ZM297.714 14.006C298.115 14.006 298.482 13.9103 298.813 13.719C299.144 13.523 299.406 13.2617 299.597 12.935C299.793 12.6037 299.891 12.2373 299.891 11.836C299.891 11.4347 299.793 11.0683 299.597 10.737C299.406 10.4057 299.144 10.1443 298.813 9.953C298.486 9.757 298.122 9.659 297.721 9.659C297.32 9.659 296.953 9.757 296.622 9.953C296.295 10.1443 296.034 10.4057 295.838 10.737C295.642 11.0683 295.544 11.4347 295.544 11.836C295.544 12.2327 295.64 12.5967 295.831 12.928C296.027 13.2547 296.288 13.516 296.615 13.712C296.946 13.908 297.313 14.006 297.714 14.006ZM306.374 15.21C305.721 15.21 305.138 15.063 304.624 14.769C304.116 14.4703 303.712 14.0667 303.413 13.558C303.119 13.0447 302.972 12.4613 302.972 11.808V8.112C302.972 7.45867 303.119 6.87533 303.413 6.362C303.712 5.84867 304.116 5.445 304.624 5.151C305.138 4.857 305.721 4.71 306.374 4.71C307.028 4.71 307.611 4.857 308.124 5.151C308.638 5.445 309.041 5.84867 309.335 6.362C309.629 6.87533 309.776 7.45867 309.776 8.112V11.808C309.776 12.4613 309.629 13.0447 309.335 13.558C309.041 14.0667 308.638 14.4703 308.124 14.769C307.611 15.063 307.028 15.21 306.374 15.21ZM306.374 14.013C306.771 14.013 307.13 13.9173 307.452 13.726C307.774 13.5347 308.031 13.278 308.222 12.956C308.414 12.6293 308.509 12.27 308.509 11.878V8.035C308.509 7.63833 308.414 7.279 308.222 6.957C308.031 6.635 307.774 6.37833 307.452 6.187C307.13 5.99567 306.771 5.9 306.374 5.9C305.982 5.9 305.623 5.99567 305.296 6.187C304.974 6.37833 304.718 6.635 304.526 6.957C304.335 7.279 304.239 7.63833 304.239 8.035V11.878C304.239 12.27 304.335 12.6293 304.526 12.956C304.718 13.278 304.974 13.5347 305.296 13.726C305.623 13.9173 305.982 14.013 306.374 14.013ZM311.96 15V13.628H313.332V15H311.96ZM318.911 15.21C318.258 15.21 317.675 15.063 317.161 14.769C316.653 14.4703 316.249 14.0667 315.95 13.558C315.656 13.0447 315.509 12.4613 315.509 11.808V8.112C315.509 7.45867 315.656 6.87533 315.95 6.362C316.249 5.84867 316.653 5.445 317.161 5.151C317.675 4.857 318.258 4.71 318.911 4.71C319.565 4.71 320.148 4.857 320.661 5.151C321.175 5.445 321.578 5.84867 321.872 6.362C322.166 6.87533 322.313 7.45867 322.313 8.112V11.808C322.313 12.4613 322.166 13.0447 321.872 13.558C321.578 14.0667 321.175 14.4703 320.661 14.769C320.148 15.063 319.565 15.21 318.911 15.21ZM318.911 14.013C319.308 14.013 319.667 13.9173 319.989 13.726C320.311 13.5347 320.568 13.278 320.759 12.956C320.951 12.6293 321.046 12.27 321.046 11.878V8.035C321.046 7.63833 320.951 7.279 320.759 6.957C320.568 6.635 320.311 6.37833 319.989 6.187C319.667 5.99567 319.308 5.9 318.911 5.9C318.519 5.9 318.16 5.99567 317.833 6.187C317.511 6.37833 317.255 6.635 317.063 6.957C316.872 7.279 316.776 7.63833 316.776 8.035V11.878C316.776 12.27 316.872 12.6293 317.063 12.956C317.255 13.278 317.511 13.5347 317.833 13.726C318.16 13.9173 318.519 14.013 318.911 14.013ZM327.675 15.21C327.022 15.21 326.438 15.063 325.925 14.769C325.416 14.4703 325.013 14.0667 324.714 13.558C324.42 13.0447 324.273 12.4613 324.273 11.808V8.112C324.273 7.45867 324.42 6.87533 324.714 6.362C325.013 5.84867 325.416 5.445 325.925 5.151C326.438 4.857 327.022 4.71 327.675 4.71C328.328 4.71 328.912 4.857 329.425 5.151C329.938 5.445 330.342 5.84867 330.636 6.362C330.93 6.87533 331.077 7.45867 331.077 8.112V11.808C331.077 12.4613 330.93 13.0447 330.636 13.558C330.342 14.0667 329.938 14.4703 329.425 14.769C328.912 15.063 328.328 15.21 327.675 15.21ZM327.675 14.013C328.072 14.013 328.431 13.9173 328.753 13.726C329.075 13.5347 329.332 13.278 329.523 12.956C329.714 12.6293 329.81 12.27 329.81 11.878V8.035C329.81 7.63833 329.714 7.279 329.523 6.957C329.332 6.635 329.075 6.37833 328.753 6.187C328.431 5.99567 328.072 5.9 327.675 5.9C327.283 5.9 326.924 5.99567 326.597 6.187C326.275 6.37833 326.018 6.635 325.827 6.957C325.636 7.279 325.54 7.63833 325.54 8.035V11.878C325.54 12.27 325.636 12.6293 325.827 12.956C326.018 13.278 326.275 13.5347 326.597 13.726C326.924 13.9173 327.283 14.013 327.675 14.013Z" fill="black"/>
<path d="M270.136 105.592V103.696H272.064V105.592H270.136ZM270.136 92.792V90.896H272.064V92.792H270.136ZM271.144 104.24C270.333 104.24 269.608 104.091 268.968 103.792C268.328 103.493 267.803 103.072 267.392 102.528C266.987 101.984 266.728 101.339 266.616 100.592L268.52 100.288C268.669 100.944 268.989 101.467 269.48 101.856C269.976 102.24 270.568 102.432 271.256 102.432C271.917 102.432 272.461 102.277 272.888 101.968C273.315 101.653 273.528 101.256 273.528 100.776C273.528 100.44 273.427 100.168 273.224 99.96C273.021 99.7467 272.696 99.5707 272.248 99.432L269.472 98.568C267.856 98.0667 267.048 97.0853 267.048 95.624C267.048 94.9413 267.211 94.3467 267.536 93.84C267.867 93.328 268.331 92.936 268.928 92.664C269.525 92.3867 270.229 92.2507 271.04 92.256C271.792 92.2613 272.461 92.3973 273.048 92.664C273.64 92.9307 274.131 93.3147 274.52 93.816C274.915 94.3173 275.195 94.92 275.36 95.624L273.384 95.984C273.309 95.6053 273.163 95.272 272.944 94.984C272.725 94.696 272.451 94.472 272.12 94.312C271.789 94.152 271.421 94.0667 271.016 94.056C270.627 94.0507 270.277 94.112 269.968 94.24C269.659 94.3627 269.413 94.5387 269.232 94.768C269.051 94.992 268.96 95.2453 268.96 95.528C268.96 95.8427 269.085 96.112 269.336 96.336C269.592 96.56 269.995 96.752 270.544 96.912L272.616 97.512C273.613 97.8 274.331 98.192 274.768 98.688C275.211 99.1787 275.432 99.832 275.432 100.648C275.432 101.363 275.253 101.989 274.896 102.528C274.539 103.067 274.037 103.488 273.392 103.792C272.747 104.091 271.997 104.24 271.144 104.24ZM283.666 104.216C283.09 104.216 282.546 104.104 282.034 103.88C281.522 103.656 281.077 103.339 280.698 102.928C280.325 102.517 280.055 102.032 279.89 101.472L281.754 100.968C281.887 101.427 282.13 101.781 282.482 102.032C282.839 102.277 283.231 102.397 283.658 102.392C284.037 102.392 284.375 102.304 284.674 102.128C284.973 101.952 285.207 101.715 285.378 101.416C285.549 101.112 285.634 100.773 285.634 100.4C285.634 99.8293 285.45 99.352 285.082 98.968C284.714 98.584 284.239 98.392 283.658 98.392C283.482 98.392 283.309 98.416 283.138 98.464C282.973 98.512 282.813 98.5787 282.658 98.664L281.778 97.144L285.65 93.832L285.818 94.296H280.338V92.48H287.402V94.304L284.29 97.296L284.274 96.728C284.973 96.776 285.567 96.9707 286.058 97.312C286.554 97.6533 286.933 98.0933 287.194 98.632C287.461 99.1707 287.594 99.76 287.594 100.4C287.594 101.125 287.415 101.776 287.058 102.352C286.706 102.928 286.231 103.384 285.634 103.72C285.042 104.051 284.386 104.216 283.666 104.216ZM293.651 104.24C292.899 104.24 292.222 104.064 291.619 103.712C291.022 103.355 290.547 102.861 290.195 102.232C289.843 101.603 289.667 100.88 289.667 100.064V96.56C289.667 95.6853 289.84 94.9253 290.187 94.28C290.539 93.6347 291.03 93.136 291.659 92.784C292.294 92.432 293.03 92.256 293.867 92.256C294.448 92.256 295 92.3547 295.523 92.552C296.046 92.744 296.51 93.0533 296.915 93.48L295.523 94.832C295.32 94.592 295.072 94.4027 294.779 94.264C294.491 94.1253 294.187 94.056 293.867 94.056C293.419 94.056 293.027 94.1627 292.691 94.376C292.355 94.584 292.094 94.8587 291.907 95.2C291.726 95.5413 291.635 95.9067 291.635 96.296V98.208L291.283 97.824C291.614 97.44 292.011 97.1413 292.475 96.928C292.939 96.7093 293.424 96.6 293.931 96.6C294.656 96.6 295.296 96.7653 295.851 97.096C296.406 97.4213 296.843 97.8693 297.163 98.44C297.483 99.0053 297.643 99.6507 297.643 100.376C297.643 101.096 297.459 101.749 297.091 102.336C296.728 102.917 296.246 103.381 295.643 103.728C295.04 104.069 294.376 104.24 293.651 104.24ZM293.651 102.392C294.024 102.392 294.366 102.304 294.675 102.128C294.984 101.947 295.23 101.704 295.411 101.4C295.598 101.091 295.691 100.749 295.691 100.376C295.691 100.003 295.6 99.6613 295.419 99.352C295.238 99.0427 294.992 98.7973 294.683 98.616C294.379 98.4293 294.04 98.336 293.667 98.336C293.294 98.336 292.952 98.4293 292.643 98.616C292.334 98.7973 292.088 99.0427 291.907 99.352C291.726 99.6613 291.635 100.003 291.635 100.376C291.635 100.739 291.723 101.075 291.899 101.384C292.08 101.688 292.323 101.933 292.627 102.12C292.936 102.301 293.278 102.392 293.651 102.392ZM300.188 104L304.156 94.304H299.124V92.48H306.22V94.304L302.268 104H300.188ZM308.19 104V102.024H310.166V104H308.19ZM312.409 103.984V102.304L317.337 97.912C317.721 97.5707 317.988 97.248 318.137 96.944C318.287 96.64 318.361 96.3467 318.361 96.064C318.361 95.68 318.279 95.3387 318.113 95.04C317.948 94.736 317.719 94.496 317.425 94.32C317.137 94.144 316.804 94.056 316.425 94.056C316.025 94.056 315.671 94.1493 315.361 94.336C315.057 94.5173 314.82 94.76 314.649 95.064C314.479 95.368 314.399 95.696 314.409 96.048H312.425C312.425 95.28 312.596 94.6107 312.937 94.04C313.284 93.4693 313.759 93.0267 314.361 92.712C314.969 92.3973 315.671 92.24 316.465 92.24C317.201 92.24 317.863 92.4053 318.449 92.736C319.036 93.0613 319.497 93.5147 319.833 94.096C320.169 94.672 320.337 95.336 320.337 96.088C320.337 96.6373 320.263 97.0987 320.113 97.472C319.964 97.8453 319.74 98.1893 319.441 98.504C319.148 98.8187 318.783 99.168 318.345 99.552L314.849 102.648L314.673 102.168H320.337V103.984H312.409ZM321.941 103.984V102.304L326.869 97.912C327.253 97.5707 327.519 97.248 327.669 96.944C327.818 96.64 327.893 96.3467 327.893 96.064C327.893 95.68 327.81 95.3387 327.645 95.04C327.479 94.736 327.25 94.496 326.957 94.32C326.669 94.144 326.335 94.056 325.957 94.056C325.557 94.056 325.202 94.1493 324.893 94.336C324.589 94.5173 324.351 94.76 324.181 95.064C324.01 95.368 323.93 95.696 323.941 96.048H321.957C321.957 95.28 322.127 94.6107 322.469 94.04C322.815 93.4693 323.29 93.0267 323.893 92.712C324.501 92.3973 325.202 92.24 325.997 92.24C326.733 92.24 327.394 92.4053 327.981 92.736C328.567 93.0613 329.029 93.5147 329.365 94.096C329.701 94.672 329.869 95.336 329.869 96.088C329.869 96.6373 329.794 97.0987 329.645 97.472C329.495 97.8453 329.271 98.1893 328.973 98.504C328.679 98.8187 328.314 99.168 327.877 99.552L324.381 102.648L324.205 102.168H329.869V103.984H321.941Z" fill="black"/>
<path d="M296.633 68.386V66.769H297.879V68.386H296.633ZM296.633 57.151V55.527H297.879V57.151H296.633ZM297.354 67.21C296.673 67.21 296.059 67.0887 295.513 66.846C294.972 66.5987 294.526 66.251 294.176 65.803C293.826 65.3503 293.597 64.8183 293.49 64.207L294.715 64.004C294.864 64.6247 295.179 65.117 295.66 65.481C296.145 65.845 296.729 66.027 297.41 66.027C298.096 66.027 298.651 65.8613 299.076 65.53C299.501 65.1987 299.713 64.7717 299.713 64.249C299.713 63.8663 299.599 63.5583 299.37 63.325C299.146 63.0917 298.768 62.8933 298.236 62.73L295.933 62.016C294.556 61.5867 293.868 60.7653 293.868 59.552C293.868 58.9827 294.006 58.4857 294.281 58.061C294.561 57.6317 294.951 57.3003 295.45 57.067C295.954 56.829 296.54 56.7123 297.207 56.717C297.856 56.7217 298.434 56.843 298.943 57.081C299.452 57.3143 299.872 57.6503 300.203 58.089C300.539 58.5277 300.765 59.0527 300.882 59.664L299.622 59.895C299.557 59.4983 299.412 59.1507 299.188 58.852C298.969 58.5533 298.689 58.3223 298.348 58.159C298.007 57.991 297.625 57.9047 297.2 57.9C296.803 57.8953 296.446 57.9607 296.129 58.096C295.816 58.2313 295.569 58.4203 295.387 58.663C295.205 58.9057 295.114 59.1833 295.114 59.496C295.114 59.8367 295.24 60.126 295.492 60.364C295.749 60.5973 296.15 60.798 296.696 60.966L298.586 61.526C299.417 61.7733 300.016 62.107 300.385 62.527C300.754 62.9423 300.938 63.4977 300.938 64.193C300.938 64.795 300.789 65.3223 300.49 65.775C300.196 66.2277 299.778 66.58 299.237 66.832C298.7 67.084 298.073 67.21 297.354 67.21ZM306.962 67V58.299L305.065 59.447V58.054L306.962 56.92H308.229V67H306.962ZM310.556 67V65.628H311.928V67H310.556ZM313.825 66.993L313.832 65.873L318.305 61.848C318.678 61.512 318.928 61.1947 319.054 60.896C319.185 60.5927 319.25 60.2823 319.25 59.965C319.25 59.5777 319.161 59.2277 318.984 58.915C318.807 58.6023 318.564 58.355 318.256 58.173C317.953 57.991 317.607 57.9 317.22 57.9C316.819 57.9 316.462 57.9957 316.149 58.187C315.836 58.3737 315.589 58.6233 315.407 58.936C315.23 59.2487 315.143 59.5893 315.148 59.958H313.874C313.874 59.3233 314.021 58.7633 314.315 58.278C314.609 57.788 315.008 57.4053 315.512 57.13C316.021 56.85 316.597 56.71 317.241 56.71C317.866 56.71 318.426 56.8547 318.921 57.144C319.416 57.4287 319.805 57.8183 320.09 58.313C320.379 58.803 320.524 59.3583 320.524 59.979C320.524 60.4177 320.468 60.798 320.356 61.12C320.249 61.442 320.081 61.7407 319.852 62.016C319.623 62.2867 319.336 62.576 318.991 62.884L315.274 66.223L315.113 65.803H320.524V66.993H313.825ZM325.636 67.21C324.996 67.21 324.415 67.056 323.893 66.748C323.375 66.44 322.962 66.02 322.654 65.488C322.35 64.9513 322.199 64.347 322.199 63.675V60.322C322.199 59.6173 322.35 58.9943 322.654 58.453C322.962 57.907 323.382 57.4823 323.914 57.179C324.45 56.871 325.062 56.717 325.748 56.717C326.303 56.717 326.819 56.8313 327.295 57.06C327.775 57.284 328.179 57.6083 328.506 58.033L327.575 58.859C327.374 58.565 327.113 58.3317 326.791 58.159C326.469 57.9863 326.121 57.9 325.748 57.9C325.304 57.9 324.91 58.0073 324.565 58.222C324.224 58.432 323.956 58.712 323.76 59.062C323.564 59.4073 323.466 59.7807 323.466 60.182V62.205L323.193 61.897C323.487 61.477 323.86 61.141 324.313 60.889C324.765 60.637 325.255 60.511 325.783 60.511C326.408 60.511 326.968 60.658 327.463 60.952C327.962 61.246 328.354 61.645 328.639 62.149C328.928 62.6483 329.073 63.2107 329.073 63.836C329.073 64.4613 328.916 65.0283 328.604 65.537C328.291 66.0457 327.873 66.4517 327.351 66.755C326.833 67.0583 326.261 67.21 325.636 67.21ZM325.636 66.006C326.037 66.006 326.403 65.9103 326.735 65.719C327.066 65.523 327.327 65.2617 327.519 64.935C327.715 64.6037 327.813 64.2373 327.813 63.836C327.813 63.4347 327.715 63.0683 327.519 62.737C327.327 62.4057 327.066 62.1443 326.735 61.953C326.408 61.757 326.044 61.659 325.643 61.659C325.241 61.659 324.875 61.757 324.544 61.953C324.217 62.1443 323.956 62.4057 323.76 62.737C323.564 63.0683 323.466 63.4347 323.466 63.836C323.466 64.2327 323.561 64.5967 323.753 64.928C323.949 65.2547 324.21 65.516 324.537 65.712C324.868 65.908 325.234 66.006 325.636 66.006Z" fill="black"/>
<path d="M0 77.75L335 77.75" stroke="#CECECE" stroke-width="0.5"/>
</svg>
