<svg width="348" height="114" viewBox="0 0 348 114" fill="none" xmlns="http://www.w3.org/2000/svg">
<g filter="url(#filter0_d_225_93)">
<path d="M13.2315 15.195C12.5685 15.195 11.9705 15.0823 11.4375 14.857C10.9088 14.6317 10.4712 14.311 10.1245 13.895C9.78217 13.4747 9.559 12.9785 9.455 12.4065L10.651 12.218C10.8027 12.8073 11.1168 13.2688 11.5935 13.6025C12.0745 13.9318 12.64 14.0965 13.29 14.0965C13.7103 14.0965 14.0895 14.0315 14.4275 13.9015C14.7698 13.7672 15.0407 13.5765 15.24 13.3295C15.4393 13.0825 15.539 12.79 15.539 12.452C15.539 12.244 15.5022 12.0663 15.4285 11.919C15.3592 11.7673 15.2617 11.6395 15.136 11.5355C15.0147 11.4272 14.876 11.3362 14.72 11.2625C14.564 11.1888 14.4015 11.1282 14.2325 11.0805L11.847 10.372C11.587 10.294 11.3357 10.1965 11.093 10.0795C10.8503 9.95817 10.6337 9.80867 10.443 9.631C10.2523 9.449 10.1007 9.23233 9.988 8.981C9.87533 8.72533 9.819 8.42417 9.819 8.0775C9.819 7.52283 9.962 7.0505 10.248 6.6605C10.5383 6.26617 10.9305 5.965 11.4245 5.757C11.9185 5.549 12.4753 5.44717 13.095 5.4515C13.7233 5.45583 14.2845 5.5685 14.7785 5.7895C15.2768 6.00617 15.6885 6.31817 16.0135 6.7255C16.3428 7.13283 16.5638 7.62033 16.6765 8.188L15.448 8.4025C15.383 8.02117 15.2378 7.694 15.0125 7.421C14.7915 7.14367 14.5142 6.93133 14.1805 6.784C13.8468 6.63233 13.4807 6.55433 13.082 6.55C12.7007 6.54567 12.3562 6.60633 12.0485 6.732C11.7408 6.85767 11.496 7.03317 11.314 7.2585C11.132 7.4795 11.041 7.73517 11.041 8.0255C11.041 8.3115 11.1233 8.54333 11.288 8.721C11.4527 8.89433 11.6542 9.033 11.8925 9.137C12.1352 9.23667 12.3713 9.319 12.601 9.384L14.382 9.8975C14.5857 9.95383 14.8197 10.0318 15.084 10.1315C15.3527 10.2312 15.6127 10.372 15.864 10.554C16.1153 10.7317 16.3233 10.97 16.488 11.269C16.6527 11.5637 16.735 11.9363 16.735 12.387C16.735 12.8377 16.644 13.2385 16.462 13.5895C16.2843 13.9405 16.0352 14.2352 15.7145 14.4735C15.3938 14.7075 15.0212 14.8852 14.5965 15.0065C14.1718 15.1322 13.7168 15.195 13.2315 15.195ZM20.7635 15.182C20.3128 15.182 19.925 15.1105 19.6 14.9675C19.2793 14.8245 19.0128 14.6338 18.8005 14.3955C18.5881 14.1572 18.4213 13.8928 18.3 13.6025C18.1786 13.3122 18.092 13.0153 18.04 12.712C17.9923 12.4087 17.9685 12.1248 17.9685 11.8605V7.98H19.1385V11.4965C19.1385 11.8258 19.1688 12.1443 19.2295 12.452C19.2901 12.7597 19.392 13.037 19.535 13.284C19.6823 13.531 19.8773 13.726 20.12 13.869C20.367 14.012 20.6746 14.0835 21.043 14.0835C21.3333 14.0835 21.5976 14.0337 21.836 13.934C22.0743 13.8343 22.278 13.687 22.447 13.492C22.616 13.2927 22.746 13.0413 22.837 12.738C22.928 12.4347 22.9735 12.0815 22.9735 11.6785L23.734 11.9125C23.734 12.5885 23.6105 13.1713 23.3635 13.661C23.1208 14.1507 22.7763 14.5277 22.33 14.792C21.888 15.052 21.3658 15.182 20.7635 15.182ZM23.1035 15V13.1215H22.9735V7.98H24.137V15H23.1035ZM29.1809 15.195C28.5222 15.195 27.9675 15.0325 27.5169 14.7075C27.0662 14.3782 26.7239 13.934 26.4899 13.375C26.2602 12.8117 26.1454 12.1812 26.1454 11.4835C26.1454 10.7772 26.2602 10.1445 26.4899 9.5855C26.7239 9.0265 27.0662 8.58667 27.5169 8.266C27.9719 7.94533 28.5287 7.785 29.1874 7.785C29.8374 7.785 30.3964 7.9475 30.8644 8.2725C31.3367 8.59317 31.6985 9.033 31.9499 9.592C32.2012 10.151 32.3269 10.7815 32.3269 11.4835C32.3269 12.1855 32.2012 12.816 31.9499 13.375C31.6985 13.934 31.3367 14.3782 30.8644 14.7075C30.3964 15.0325 29.8352 15.195 29.1809 15.195ZM25.9504 15V5.64H27.1139V9.8325H26.9839V15H25.9504ZM29.0379 14.1355C29.5015 14.1355 29.885 14.0185 30.1884 13.7845C30.4917 13.5505 30.7192 13.2342 30.8709 12.8355C31.0225 12.4325 31.0984 11.9818 31.0984 11.4835C31.0984 10.9895 31.0225 10.5432 30.8709 10.1445C30.7235 9.74583 30.4939 9.4295 30.1819 9.1955C29.8742 8.9615 29.482 8.8445 29.0054 8.8445C28.5504 8.8445 28.1734 8.95717 27.8744 9.1825C27.5754 9.4035 27.3522 9.71333 27.2049 10.112C27.0575 10.5063 26.9839 10.9635 26.9839 11.4835C26.9839 11.9948 27.0554 12.452 27.1984 12.855C27.3457 13.2537 27.571 13.5678 27.8744 13.7975C28.1777 14.0228 28.5655 14.1355 29.0379 14.1355ZM37.6713 15C37.2553 15.0823 36.8436 15.1148 36.4363 15.0975C36.0333 15.0845 35.6736 15.0043 35.3573 14.857C35.041 14.7053 34.8005 14.4713 34.6358 14.155C34.4971 13.8777 34.4213 13.5982 34.4083 13.3165C34.3996 13.0305 34.3953 12.7077 34.3953 12.348V6.03H35.5523V12.296C35.5523 12.582 35.5545 12.8268 35.5588 13.0305C35.5675 13.2342 35.613 13.4097 35.6953 13.557C35.8513 13.8343 36.0983 13.9968 36.4363 14.0445C36.7786 14.0922 37.1903 14.0792 37.6713 14.0055V15ZM32.9718 8.9355V7.98H37.6713V8.9355H32.9718ZM41.7945 15.195C41.0969 15.195 40.4945 15.0368 39.9875 14.7205C39.4849 14.4042 39.097 13.9665 38.824 13.4075C38.551 12.8485 38.4145 12.2072 38.4145 11.4835C38.4145 10.7468 38.5532 10.1012 38.8305 9.5465C39.1079 8.99183 39.5 8.56067 40.007 8.253C40.514 7.941 41.1099 7.785 41.7945 7.785C42.4965 7.785 43.101 7.94317 43.608 8.2595C44.115 8.5715 44.5029 9.007 44.7715 9.566C45.0445 10.1207 45.181 10.7598 45.181 11.4835C45.181 12.2158 45.0445 12.8615 44.7715 13.4205C44.4985 13.9752 44.1085 14.4107 43.6015 14.727C43.0945 15.039 42.4922 15.195 41.7945 15.195ZM41.7945 14.0965C42.5225 14.0965 43.0642 13.8538 43.4195 13.3685C43.7749 12.8832 43.9525 12.2548 43.9525 11.4835C43.9525 10.6905 43.7727 10.06 43.413 9.592C43.0534 9.11967 42.5139 8.8835 41.7945 8.8835C41.3049 8.8835 40.9019 8.994 40.5855 9.215C40.2692 9.436 40.033 9.7415 39.877 10.1315C39.721 10.5215 39.643 10.9722 39.643 11.4835C39.643 12.2722 39.825 12.9048 40.189 13.3815C40.553 13.8582 41.0882 14.0965 41.7945 14.0965ZM50.5316 15C50.1156 15.0823 49.704 15.1148 49.2966 15.0975C48.8936 15.0845 48.534 15.0043 48.2176 14.857C47.9013 14.7053 47.6608 14.4713 47.4961 14.155C47.3575 13.8777 47.2816 13.5982 47.2686 13.3165C47.26 13.0305 47.2556 12.7077 47.2556 12.348V6.03H48.4126V12.296C48.4126 12.582 48.4148 12.8268 48.4191 13.0305C48.4278 13.2342 48.4733 13.4097 48.5556 13.557C48.7116 13.8343 48.9586 13.9968 49.2966 14.0445C49.639 14.0922 50.0506 14.0792 50.5316 14.0055V15ZM45.8321 8.9355V7.98H50.5316V8.9355H45.8321ZM53.9524 15.195C53.428 15.195 52.9882 15.0997 52.6329 14.909C52.2819 14.714 52.0154 14.4583 51.8334 14.142C51.6557 13.8257 51.5669 13.479 51.5669 13.102C51.5669 12.7337 51.6362 12.4152 51.7749 12.1465C51.9179 11.8735 52.1172 11.6482 52.3729 11.4705C52.6285 11.2885 52.934 11.1455 53.2894 11.0415C53.623 10.9505 53.9957 10.8725 54.4074 10.8075C54.8234 10.7382 55.2437 10.6753 55.6684 10.619C56.093 10.5627 56.4895 10.5085 56.8579 10.4565L56.4419 10.697C56.4549 10.073 56.3292 9.6115 56.0649 9.3125C55.8049 9.0135 55.3542 8.864 54.7129 8.864C54.2882 8.864 53.9155 8.9615 53.5949 9.1565C53.2785 9.34717 53.0554 9.65917 52.9254 10.0925L51.8269 9.761C51.9959 9.14567 52.323 8.6625 52.8084 8.3115C53.2937 7.9605 53.9329 7.785 54.7259 7.785C55.3629 7.785 55.9089 7.89983 56.3639 8.1295C56.8232 8.35483 57.1525 8.69717 57.3519 9.1565C57.4515 9.37317 57.5144 9.60933 57.5404 9.865C57.5664 10.1163 57.5794 10.3807 57.5794 10.658V15H56.5524V13.3165L56.7929 13.4725C56.5285 14.0402 56.158 14.4692 55.6814 14.7595C55.209 15.0498 54.6327 15.195 53.9524 15.195ZM54.1279 14.2265C54.5439 14.2265 54.9035 14.1528 55.2069 14.0055C55.5145 13.8538 55.7615 13.6567 55.9479 13.414C56.1342 13.167 56.2555 12.8983 56.3119 12.608C56.3769 12.3913 56.4115 12.1508 56.4159 11.8865C56.4245 11.6178 56.4289 11.412 56.4289 11.269L56.8319 11.4445C56.4549 11.4965 56.0844 11.5463 55.7204 11.594C55.3564 11.6417 55.0119 11.6937 54.6869 11.75C54.3619 11.802 54.0694 11.8648 53.8094 11.9385C53.6187 11.9992 53.4389 12.0772 53.2699 12.1725C53.1052 12.2678 52.9709 12.3913 52.8669 12.543C52.7672 12.6903 52.7174 12.8745 52.7174 13.0955C52.7174 13.2862 52.765 13.4682 52.8604 13.6415C52.96 13.8148 53.1117 13.9557 53.3154 14.064C53.5234 14.1723 53.7942 14.2265 54.1279 14.2265ZM59.3994 15V5.445H60.5564V15H59.3994Z" fill="black"/>
<path d="M12.2315 39.195C11.5685 39.195 10.9705 39.0823 10.4375 38.857C9.90883 38.6317 9.47117 38.311 9.1245 37.895C8.78217 37.4747 8.559 36.9785 8.455 36.4065L9.651 36.218C9.80267 36.8073 10.1168 37.2688 10.5935 37.6025C11.0745 37.9318 11.64 38.0965 12.29 38.0965C12.7103 38.0965 13.0895 38.0315 13.4275 37.9015C13.7698 37.7672 14.0407 37.5765 14.24 37.3295C14.4393 37.0825 14.539 36.79 14.539 36.452C14.539 36.244 14.5022 36.0663 14.4285 35.919C14.3592 35.7673 14.2617 35.6395 14.136 35.5355C14.0147 35.4272 13.876 35.3362 13.72 35.2625C13.564 35.1888 13.4015 35.1282 13.2325 35.0805L10.847 34.372C10.587 34.294 10.3357 34.1965 10.093 34.0795C9.85033 33.9582 9.63367 33.8087 9.443 33.631C9.25233 33.449 9.10067 33.2323 8.988 32.981C8.87533 32.7253 8.819 32.4242 8.819 32.0775C8.819 31.5228 8.962 31.0505 9.248 30.6605C9.53833 30.2662 9.9305 29.965 10.4245 29.757C10.9185 29.549 11.4753 29.4472 12.095 29.4515C12.7233 29.4558 13.2845 29.5685 13.7785 29.7895C14.2768 30.0062 14.6885 30.3182 15.0135 30.7255C15.3428 31.1328 15.5638 31.6203 15.6765 32.188L14.448 32.4025C14.383 32.0212 14.2378 31.694 14.0125 31.421C13.7915 31.1437 13.5142 30.9313 13.1805 30.784C12.8468 30.6323 12.4807 30.5543 12.082 30.55C11.7007 30.5457 11.3562 30.6063 11.0485 30.732C10.7408 30.8577 10.496 31.0332 10.314 31.2585C10.132 31.4795 10.041 31.7352 10.041 32.0255C10.041 32.3115 10.1233 32.5433 10.288 32.721C10.4527 32.8943 10.6542 33.033 10.8925 33.137C11.1352 33.2367 11.3713 33.319 11.601 33.384L13.382 33.8975C13.5857 33.9538 13.8197 34.0318 14.084 34.1315C14.3527 34.2312 14.6127 34.372 14.864 34.554C15.1153 34.7317 15.3233 34.97 15.488 35.269C15.6527 35.5637 15.735 35.9363 15.735 36.387C15.735 36.8377 15.644 37.2385 15.462 37.5895C15.2843 37.9405 15.0352 38.2352 14.7145 38.4735C14.3938 38.7075 14.0212 38.8852 13.5965 39.0065C13.1718 39.1322 12.7168 39.195 12.2315 39.195ZM22.097 39V35.4835C22.097 35.1498 22.0666 34.8292 22.006 34.5215C21.9496 34.2138 21.8478 33.9387 21.7005 33.696C21.5575 33.449 21.3625 33.254 21.1155 33.111C20.8728 32.968 20.5651 32.8965 20.1925 32.8965C19.9021 32.8965 19.6378 32.9463 19.3995 33.046C19.1655 33.1413 18.964 33.2887 18.795 33.488C18.626 33.6873 18.4938 33.9387 18.3985 34.242C18.3075 34.541 18.262 34.8942 18.262 35.3015L17.5015 35.0675C17.5015 34.3872 17.6228 33.8043 17.8655 33.319C18.1125 32.8293 18.457 32.4545 18.899 32.1945C19.3453 31.9302 19.8696 31.798 20.472 31.798C20.927 31.798 21.3148 31.8695 21.6355 32.0125C21.9561 32.1555 22.2226 32.3462 22.435 32.5845C22.6473 32.8185 22.8141 33.0828 22.9355 33.3775C23.0568 33.6678 23.1413 33.9647 23.189 34.268C23.241 34.567 23.267 34.8508 23.267 35.1195V39H22.097ZM17.092 39V29.64H18.132V34.8075H18.262V39H17.092ZM25.0869 30.7385V29.5425H26.2439V30.7385H25.0869ZM25.0869 39V31.98H26.2439V39H25.0869ZM31.4182 39.195C30.7595 39.195 30.2048 39.0325 29.7542 38.7075C29.3035 38.3782 28.9612 37.934 28.7272 37.375C28.4975 36.8117 28.3827 36.1812 28.3827 35.4835C28.3827 34.7772 28.4975 34.1445 28.7272 33.5855C28.9612 33.0265 29.3035 32.5867 29.7542 32.266C30.2092 31.9453 30.766 31.785 31.4247 31.785C32.0747 31.785 32.6337 31.9475 33.1017 32.2725C33.574 32.5932 33.9358 33.033 34.1872 33.592C34.4385 34.151 34.5642 34.7815 34.5642 35.4835C34.5642 36.1855 34.4385 36.816 34.1872 37.375C33.9358 37.934 33.574 38.3782 33.1017 38.7075C32.6337 39.0325 32.0725 39.195 31.4182 39.195ZM28.1877 42.12V31.98H29.2212V37.1475H29.3512V42.12H28.1877ZM31.2752 38.1355C31.7388 38.1355 32.1223 38.0185 32.4257 37.7845C32.729 37.5505 32.9565 37.2342 33.1082 36.8355C33.2598 36.4325 33.3357 35.9818 33.3357 35.4835C33.3357 34.9895 33.2598 34.5432 33.1082 34.1445C32.9608 33.7458 32.7312 33.4295 32.4192 33.1955C32.1115 32.9615 31.7193 32.8445 31.2427 32.8445C30.7877 32.8445 30.4107 32.9572 30.1117 33.1825C29.8127 33.4035 29.5895 33.7133 29.4422 34.112C29.2948 34.5063 29.2212 34.9635 29.2212 35.4835C29.2212 35.9948 29.2927 36.452 29.4357 36.855C29.583 37.2537 29.8083 37.5678 30.1117 37.7975C30.415 38.0228 30.8028 38.1355 31.2752 38.1355ZM39.2131 39.195C38.5544 39.195 37.9998 39.0325 37.5491 38.7075C37.0984 38.3782 36.7561 37.934 36.5221 37.375C36.2924 36.8117 36.1776 36.1812 36.1776 35.4835C36.1776 34.7772 36.2924 34.1445 36.5221 33.5855C36.7561 33.0265 37.0984 32.5867 37.5491 32.266C38.0041 31.9453 38.5609 31.785 39.2196 31.785C39.8696 31.785 40.4286 31.9475 40.8966 32.2725C41.3689 32.5932 41.7308 33.033 41.9821 33.592C42.2334 34.151 42.3591 34.7815 42.3591 35.4835C42.3591 36.1855 42.2334 36.816 41.9821 37.375C41.7308 37.934 41.3689 38.3782 40.8966 38.7075C40.4286 39.0325 39.8674 39.195 39.2131 39.195ZM35.9826 42.12V31.98H37.0161V37.1475H37.1461V42.12H35.9826ZM39.0701 38.1355C39.5338 38.1355 39.9173 38.0185 40.2206 37.7845C40.5239 37.5505 40.7514 37.2342 40.9031 36.8355C41.0548 36.4325 41.1306 35.9818 41.1306 35.4835C41.1306 34.9895 41.0548 34.5432 40.9031 34.1445C40.7558 33.7458 40.5261 33.4295 40.2141 33.1955C39.9064 32.9615 39.5143 32.8445 39.0376 32.8445C38.5826 32.8445 38.2056 32.9572 37.9066 33.1825C37.6076 33.4035 37.3844 33.7133 37.2371 34.112C37.0898 34.5063 37.0161 34.9635 37.0161 35.4835C37.0161 35.9948 37.0876 36.452 37.2306 36.855C37.3779 37.2537 37.6033 37.5678 37.9066 37.7975C38.2099 38.0228 38.5978 38.1355 39.0701 38.1355ZM43.914 30.7385V29.5425H45.071V30.7385H43.914ZM43.914 39V31.98H45.071V39H43.914ZM52.0198 39V35.4835C52.0198 35.1498 51.9895 34.8292 51.9288 34.5215C51.8725 34.2138 51.7707 33.9387 51.6233 33.696C51.4803 33.449 51.2853 33.254 51.0383 33.111C50.7957 32.968 50.488 32.8965 50.1153 32.8965C49.825 32.8965 49.5607 32.9463 49.3223 33.046C49.0883 33.1413 48.8868 33.2887 48.7178 33.488C48.5488 33.6873 48.4167 33.9387 48.3213 34.242C48.2303 34.541 48.1848 34.8942 48.1848 35.3015L47.4243 35.0675C47.4243 34.3872 47.5457 33.8043 47.7883 33.319C48.0353 32.8293 48.3798 32.4545 48.8218 32.1945C49.2682 31.9302 49.7925 31.798 50.3948 31.798C50.8498 31.798 51.2377 31.8695 51.5583 32.0125C51.879 32.1555 52.1455 32.3462 52.3578 32.5845C52.5702 32.8185 52.737 33.0828 52.8583 33.3775C52.9797 33.6678 53.0642 33.9647 53.1118 34.268C53.1638 34.567 53.1898 34.8508 53.1898 35.1195V39H52.0198ZM47.0148 39V31.98H48.0548V33.8585H48.1848V39H47.0148ZM57.7202 42.315C57.3519 42.315 56.9922 42.2587 56.6412 42.146C56.2902 42.0333 55.9674 41.8622 55.6727 41.6325C55.3824 41.4072 55.1397 41.1212 54.9447 40.7745L56.0042 40.2155C56.1776 40.5578 56.4224 40.807 56.7387 40.963C57.0594 41.119 57.3887 41.197 57.7267 41.197C58.1731 41.197 58.5436 41.1147 58.8382 40.95C59.1329 40.7897 59.3496 40.5492 59.4882 40.2285C59.6312 39.9078 59.7006 39.5092 59.6962 39.0325V37.115H59.8327V31.98H60.8597V39.0455C60.8597 39.2362 60.8532 39.4203 60.8402 39.598C60.8316 39.7757 60.8099 39.9512 60.7752 40.1245C60.6842 40.6228 60.5044 41.0323 60.2357 41.353C59.9671 41.678 59.6204 41.9185 59.1957 42.0745C58.7711 42.2348 58.2792 42.315 57.7202 42.315ZM57.6357 39.195C56.9814 39.195 56.4202 39.0325 55.9522 38.7075C55.4842 38.3782 55.1224 37.934 54.8667 37.375C54.6154 36.816 54.4897 36.1855 54.4897 35.4835C54.4897 34.7815 54.6154 34.151 54.8667 33.592C55.1224 33.033 55.4842 32.5932 55.9522 32.2725C56.4202 31.9475 56.9792 31.785 57.6292 31.785C58.2922 31.785 58.8491 31.9453 59.2997 32.266C59.7504 32.5867 60.0906 33.0265 60.3202 33.5855C60.5542 34.1445 60.6712 34.7772 60.6712 35.4835C60.6712 36.1812 60.5542 36.8117 60.3202 37.375C60.0906 37.934 59.7504 38.3782 59.2997 38.7075C58.8491 39.0325 58.2944 39.195 57.6357 39.195ZM57.7787 38.1355C58.2511 38.1355 58.6389 38.0228 58.9422 37.7975C59.2456 37.5678 59.4687 37.2537 59.6117 36.855C59.7591 36.452 59.8327 35.9948 59.8327 35.4835C59.8327 34.9635 59.7591 34.5063 59.6117 34.112C59.4687 33.7133 59.2477 33.4035 58.9487 33.1825C58.6497 32.9572 58.2706 32.8445 57.8112 32.8445C57.3346 32.8445 56.9402 32.9615 56.6282 33.1955C56.3206 33.4295 56.0909 33.7458 55.9392 34.1445C55.7919 34.5432 55.7182 34.9895 55.7182 35.4835C55.7182 35.9818 55.7941 36.4325 55.9457 36.8355C56.0974 37.2342 56.3249 37.5505 56.6282 37.7845C56.9359 38.0185 57.3194 38.1355 57.7787 38.1355Z" fill="black"/>
<path d="M9.91 66V56.64H15.825V57.7385H11.067V60.67H15.045V61.7685H11.067V64.9015H15.825V66H9.91ZM20.0395 66.1885C19.2032 66.1885 18.5164 66.0065 17.979 65.6425C17.446 65.2742 17.1189 64.7607 16.9975 64.102L18.1805 63.9135C18.2759 64.2948 18.4947 64.5982 18.837 64.8235C19.1794 65.0445 19.604 65.155 20.111 65.155C20.592 65.155 20.969 65.0553 21.242 64.856C21.515 64.6567 21.6515 64.3858 21.6515 64.0435C21.6515 63.8442 21.606 63.6838 21.515 63.5625C21.424 63.4368 21.2355 63.3198 20.9495 63.2115C20.6679 63.1032 20.241 62.9732 19.669 62.8215C19.0494 62.6568 18.5619 62.4857 18.2065 62.308C17.8512 62.1303 17.5977 61.9245 17.446 61.6905C17.2944 61.4565 17.2185 61.1727 17.2185 60.839C17.2185 60.4273 17.3312 60.0677 17.5565 59.76C17.7819 59.448 18.096 59.2075 18.499 59.0385C18.9064 58.8695 19.3787 58.785 19.916 58.785C20.449 58.785 20.9257 58.8695 21.346 59.0385C21.7664 59.2075 22.1044 59.448 22.36 59.76C22.62 60.0677 22.7739 60.4273 22.8215 60.839L21.6385 61.0535C21.5822 60.6765 21.4002 60.3797 21.0925 60.163C20.7892 59.9463 20.397 59.8315 19.916 59.8185C19.461 59.8012 19.0905 59.8813 18.8045 60.059C18.5229 60.2367 18.382 60.4772 18.382 60.7805C18.382 60.9495 18.434 61.0947 18.538 61.216C18.6464 61.3373 18.8435 61.4522 19.1295 61.5605C19.4199 61.6688 19.8402 61.7923 20.3905 61.931C21.0102 62.087 21.4977 62.2582 21.853 62.4445C22.2127 62.6265 22.4684 62.8432 22.62 63.0945C22.7717 63.3415 22.8475 63.647 22.8475 64.011C22.8475 64.687 22.5984 65.22 22.1 65.61C21.6017 65.9957 20.9149 66.1885 20.0395 66.1885ZM28.2006 66C27.7846 66.0823 27.3729 66.1148 26.9656 66.0975C26.5626 66.0845 26.2029 66.0043 25.8866 65.857C25.5703 65.7053 25.3298 65.4713 25.1651 65.155C25.0264 64.8777 24.9506 64.5982 24.9376 64.3165C24.9289 64.0305 24.9246 63.7077 24.9246 63.348V57.03H26.0816V63.296C26.0816 63.582 26.0838 63.8268 26.0881 64.0305C26.0968 64.2342 26.1423 64.4097 26.2246 64.557C26.3806 64.8343 26.6276 64.9968 26.9656 65.0445C27.3079 65.0922 27.7196 65.0792 28.2006 65.0055V66ZM23.5011 59.9355V58.98H28.2006V59.9355H23.5011ZM29.7558 57.7385V56.5425H30.9128V57.7385H29.7558ZM29.7558 66V58.98H30.9128V66H29.7558ZM41.2546 66L41.2611 61.5085C41.2611 60.9842 41.1203 60.5747 40.8386 60.28C40.5613 59.981 40.1995 59.8315 39.7531 59.8315C39.4931 59.8315 39.2461 59.8922 39.0121 60.0135C38.7781 60.1305 38.5875 60.3168 38.4401 60.5725C38.2928 60.8238 38.2191 61.1467 38.2191 61.541L37.6081 61.294C37.5995 60.7957 37.7013 60.3602 37.9136 59.9875C38.1303 59.6105 38.425 59.318 38.7976 59.11C39.1703 58.902 39.5906 58.798 40.0586 58.798C40.791 58.798 41.3673 59.0212 41.7876 59.4675C42.208 59.9095 42.4181 60.5053 42.4181 61.255L42.4116 66H41.2546ZM32.8566 66V58.98H33.8901V60.8585H34.0201V66H32.8566ZM37.0621 66L37.0686 61.554C37.0686 61.0167 36.93 60.5963 36.6526 60.293C36.3753 59.9853 36.007 59.8315 35.5476 59.8315C35.0926 59.8315 34.7243 59.9875 34.4426 60.2995C34.161 60.6115 34.0201 61.0253 34.0201 61.541L33.4091 61.177C33.4091 60.722 33.5175 60.3147 33.7341 59.955C33.9508 59.5953 34.2455 59.3137 34.6181 59.11C34.9908 58.902 35.4133 58.798 35.8856 58.798C36.358 58.798 36.7696 58.8977 37.1206 59.097C37.4716 59.2963 37.7425 59.5823 37.9331 59.955C38.1238 60.3233 38.2191 60.7632 38.2191 61.2745L38.2126 66H37.0621ZM46.1067 66.195C45.5823 66.195 45.1425 66.0997 44.7872 65.909C44.4362 65.714 44.1697 65.4583 43.9877 65.142C43.81 64.8257 43.7212 64.479 43.7212 64.102C43.7212 63.7337 43.7905 63.4152 43.9292 63.1465C44.0722 62.8735 44.2715 62.6482 44.5272 62.4705C44.7828 62.2885 45.0883 62.1455 45.4437 62.0415C45.7773 61.9505 46.15 61.8725 46.5617 61.8075C46.9777 61.7382 47.398 61.6753 47.8227 61.619C48.2473 61.5627 48.6438 61.5085 49.0122 61.4565L48.5962 61.697C48.6092 61.073 48.4835 60.6115 48.2192 60.3125C47.9592 60.0135 47.5085 59.864 46.8672 59.864C46.4425 59.864 46.0698 59.9615 45.7492 60.1565C45.4328 60.3472 45.2097 60.6592 45.0797 61.0925L43.9812 60.761C44.1502 60.1457 44.4773 59.6625 44.9627 59.3115C45.448 58.9605 46.0872 58.785 46.8802 58.785C47.5172 58.785 48.0632 58.8998 48.5182 59.1295C48.9775 59.3548 49.3068 59.6972 49.5062 60.1565C49.6058 60.3732 49.6687 60.6093 49.6947 60.865C49.7207 61.1163 49.7337 61.3807 49.7337 61.658V66H48.7067V64.3165L48.9472 64.4725C48.6828 65.0402 48.3123 65.4692 47.8357 65.7595C47.3633 66.0498 46.787 66.195 46.1067 66.195ZM46.2822 65.2265C46.6982 65.2265 47.0578 65.1528 47.3612 65.0055C47.6688 64.8538 47.9158 64.6567 48.1022 64.414C48.2885 64.167 48.4098 63.8983 48.4662 63.608C48.5312 63.3913 48.5658 63.1508 48.5702 62.8865C48.5788 62.6178 48.5832 62.412 48.5832 62.269L48.9862 62.4445C48.6092 62.4965 48.2387 62.5463 47.8747 62.594C47.5107 62.6417 47.1662 62.6937 46.8412 62.75C46.5162 62.802 46.2237 62.8648 45.9637 62.9385C45.773 62.9992 45.5932 63.0772 45.4242 63.1725C45.2595 63.2678 45.1252 63.3913 45.0212 63.543C44.9215 63.6903 44.8717 63.8745 44.8717 64.0955C44.8717 64.2862 44.9193 64.4682 45.0147 64.6415C45.1143 64.8148 45.266 64.9557 45.4697 65.064C45.6777 65.1723 45.9485 65.2265 46.2822 65.2265ZM55.3432 66C54.9272 66.0823 54.5155 66.1148 54.1082 66.0975C53.7052 66.0845 53.3455 66.0043 53.0292 65.857C52.7128 65.7053 52.4723 65.4713 52.3077 65.155C52.169 64.8777 52.0932 64.5982 52.0802 64.3165C52.0715 64.0305 52.0672 63.7077 52.0672 63.348V57.03H53.2242V63.296C53.2242 63.582 53.2263 63.8268 53.2307 64.0305C53.2393 64.2342 53.2848 64.4097 53.3672 64.557C53.5232 64.8343 53.7702 64.9968 54.1082 65.0445C54.4505 65.0922 54.8622 65.0792 55.3432 65.0055V66ZM50.6437 59.9355V58.98H55.3432V59.9355H50.6437ZM59.5184 66.195C58.8294 66.195 58.2271 66.0433 57.7114 65.74C57.2001 65.4323 56.8014 65.0055 56.5154 64.4595C56.2294 63.9092 56.0864 63.2678 56.0864 62.5355C56.0864 61.7685 56.2272 61.1055 56.5089 60.5465C56.7906 59.9832 57.1827 59.5498 57.6854 59.2465C58.1924 58.9388 58.7861 58.785 59.4664 58.785C60.1727 58.785 60.7729 58.9475 61.2669 59.2725C61.7652 59.5975 62.1379 60.0612 62.3849 60.6635C62.6362 61.2658 62.7446 61.983 62.7099 62.815H61.5399V62.399C61.5269 61.5367 61.3514 60.8932 61.0134 60.4685C60.6754 60.0395 60.1727 59.825 59.5054 59.825C58.7904 59.825 58.2466 60.0547 57.8739 60.514C57.5012 60.9733 57.3149 61.632 57.3149 62.49C57.3149 63.3177 57.5012 63.959 57.8739 64.414C58.2466 64.869 58.7774 65.0965 59.4664 65.0965C59.9301 65.0965 60.3331 64.9903 60.6754 64.778C61.0177 64.5657 61.2864 64.2602 61.4814 63.8615L62.5929 64.245C62.3199 64.8647 61.9082 65.3457 61.3579 65.688C60.8119 66.026 60.1987 66.195 59.5184 66.195ZM56.9249 62.815V61.8855H62.1119V62.815H56.9249ZM66.9131 66.195C66.2587 66.195 65.6976 66.0325 65.2296 65.7075C64.7616 65.3782 64.3997 64.934 64.1441 64.375C63.8927 63.816 63.7671 63.1855 63.7671 62.4835C63.7671 61.7815 63.8927 61.151 64.1441 60.592C64.3997 60.033 64.7616 59.5932 65.2296 59.2725C65.6976 58.9475 66.2566 58.785 66.9066 58.785C67.5696 58.785 68.1264 58.9453 68.5771 59.266C69.0277 59.5867 69.3679 60.0265 69.5976 60.5855C69.8316 61.1445 69.9486 61.7772 69.9486 62.4835C69.9486 63.1812 69.8316 63.8117 69.5976 64.375C69.3679 64.934 69.0277 65.3782 68.5771 65.7075C68.1264 66.0325 67.5717 66.195 66.9131 66.195ZM67.0561 65.1355C67.5284 65.1355 67.9162 65.0228 68.2196 64.7975C68.5229 64.5678 68.7461 64.2537 68.8891 63.855C69.0364 63.452 69.1101 62.9948 69.1101 62.4835C69.1101 61.9635 69.0364 61.5063 68.8891 61.112C68.7461 60.7133 68.5251 60.4035 68.2261 60.1825C67.9271 59.9572 67.5479 59.8445 67.0886 59.8445C66.6119 59.8445 66.2176 59.9615 65.9056 60.1955C65.5979 60.4295 65.3682 60.7458 65.2166 61.1445C65.0692 61.5432 64.9956 61.9895 64.9956 62.4835C64.9956 62.9818 65.0714 63.4325 65.2231 63.8355C65.3747 64.2342 65.6022 64.5505 65.9056 64.7845C66.2132 65.0185 66.5967 65.1355 67.0561 65.1355ZM69.1101 66V60.8325H68.9801V56.64H70.1436V66H69.1101ZM78.4867 66C78.0707 66.0823 77.6591 66.1148 77.2517 66.0975C76.8487 66.0845 76.4891 66.0043 76.1727 65.857C75.8564 65.7053 75.6159 65.4713 75.4512 65.155C75.3126 64.8777 75.2367 64.5982 75.2237 64.3165C75.2151 64.0305 75.2107 63.7077 75.2107 63.348V57.03H76.3677V63.296C76.3677 63.582 76.3699 63.8268 76.3742 64.0305C76.3829 64.2342 76.4284 64.4097 76.5107 64.557C76.6667 64.8343 76.9137 64.9968 77.2517 65.0445C77.5941 65.0922 78.0057 65.0792 78.4867 65.0055V66ZM73.7872 59.9355V58.98H78.4867V59.9355H73.7872ZM81.9075 66.195C81.3831 66.195 80.9433 66.0997 80.588 65.909C80.237 65.714 79.9705 65.4583 79.7885 65.142C79.6108 64.8257 79.522 64.479 79.522 64.102C79.522 63.7337 79.5913 63.4152 79.73 63.1465C79.873 62.8735 80.0723 62.6482 80.328 62.4705C80.5836 62.2885 80.8891 62.1455 81.2445 62.0415C81.5781 61.9505 81.9508 61.8725 82.3625 61.8075C82.7785 61.7382 83.1988 61.6753 83.6235 61.619C84.0481 61.5627 84.4446 61.5085 84.813 61.4565L84.397 61.697C84.41 61.073 84.2843 60.6115 84.02 60.3125C83.76 60.0135 83.3093 59.864 82.668 59.864C82.2433 59.864 81.8706 59.9615 81.55 60.1565C81.2336 60.3472 81.0105 60.6592 80.8805 61.0925L79.782 60.761C79.951 60.1457 80.2781 59.6625 80.7635 59.3115C81.2488 58.9605 81.888 58.785 82.681 58.785C83.318 58.785 83.864 58.8998 84.319 59.1295C84.7783 59.3548 85.1076 59.6972 85.307 60.1565C85.4066 60.3732 85.4695 60.6093 85.4955 60.865C85.5215 61.1163 85.5345 61.3807 85.5345 61.658V66H84.5075V64.3165L84.748 64.4725C84.4836 65.0402 84.1131 65.4692 83.6365 65.7595C83.1641 66.0498 82.5878 66.195 81.9075 66.195ZM82.083 65.2265C82.499 65.2265 82.8586 65.1528 83.162 65.0055C83.4696 64.8538 83.7166 64.6567 83.903 64.414C84.0893 64.167 84.2106 63.8983 84.267 63.608C84.332 63.3913 84.3666 63.1508 84.371 62.8865C84.3796 62.6178 84.384 62.412 84.384 62.269L84.787 62.4445C84.41 62.4965 84.0395 62.5463 83.6755 62.594C83.3115 62.6417 82.967 62.6937 82.642 62.75C82.317 62.802 82.0245 62.8648 81.7645 62.9385C81.5738 62.9992 81.394 63.0772 81.225 63.1725C81.0603 63.2678 80.926 63.3913 80.822 63.543C80.7223 63.6903 80.6725 63.8745 80.6725 64.0955C80.6725 64.2862 80.7201 64.4682 80.8155 64.6415C80.9151 64.8148 81.0668 64.9557 81.2705 65.064C81.4785 65.1723 81.7493 65.2265 82.083 65.2265ZM86.4445 66L89.129 62.451L86.503 58.98H87.881L89.805 61.554L91.7095 58.98H93.0875L90.4615 62.451L93.1525 66H91.768L89.805 63.348L87.829 66H86.4445Z" fill="black"/>
<path d="M12.1214 105V95.288H8.3934V93.48H17.7774V95.288H14.0494V105H12.1214ZM21.5913 105.24C20.7273 105.24 19.9726 105.045 19.3273 104.656C18.6819 104.267 18.1806 103.731 17.8233 103.048C17.4713 102.36 17.2953 101.571 17.2953 100.68C17.2953 99.7733 17.4766 98.9787 17.8393 98.296C18.2019 97.6133 18.7059 97.08 19.3513 96.696C19.9966 96.312 20.7433 96.12 21.5913 96.12C22.4606 96.12 23.2179 96.3147 23.8633 96.704C24.5086 97.0933 25.0099 97.632 25.3673 98.32C25.7246 99.0027 25.9033 99.7893 25.9033 100.68C25.9033 101.576 25.7219 102.368 25.3593 103.056C25.0019 103.739 24.5006 104.275 23.8553 104.664C23.2099 105.048 22.4553 105.24 21.5913 105.24ZM21.5913 103.432C22.3593 103.432 22.9299 103.176 23.3033 102.664C23.6766 102.152 23.8633 101.491 23.8633 100.68C23.8633 99.8427 23.6739 99.176 23.2953 98.68C22.9166 98.1787 22.3486 97.928 21.5913 97.928C21.0739 97.928 20.6473 98.0453 20.3113 98.28C19.9806 98.5093 19.7353 98.832 19.5753 99.248C19.4153 99.6587 19.3353 100.136 19.3353 100.68C19.3353 101.517 19.5246 102.187 19.9033 102.688C20.2873 103.184 20.8499 103.432 21.5913 103.432ZM32.7299 105C32.1592 105.107 31.5992 105.152 31.0499 105.136C30.5059 105.125 30.0179 105.027 29.5859 104.84C29.1539 104.648 28.8259 104.347 28.6019 103.936C28.4046 103.563 28.3006 103.181 28.2899 102.792C28.2792 102.403 28.2739 101.963 28.2739 101.472V93.96H30.1939V101.36C30.1939 101.707 30.1966 102.011 30.2019 102.272C30.2126 102.533 30.2686 102.747 30.3699 102.912C30.5619 103.232 30.8686 103.411 31.2899 103.448C31.7112 103.485 32.1912 103.464 32.7299 103.384V105ZM26.7059 97.872V96.36H32.7299V97.872H26.7059ZM37.0038 105.24C36.3798 105.24 35.8518 105.123 35.4198 104.888C34.9878 104.648 34.6598 104.331 34.4358 103.936C34.2171 103.541 34.1078 103.107 34.1078 102.632C34.1078 102.216 34.1771 101.843 34.3158 101.512C34.4544 101.176 34.6678 100.888 34.9558 100.648C35.2438 100.403 35.6171 100.203 36.0758 100.048C36.4224 99.936 36.8278 99.8347 37.2918 99.744C37.7611 99.6533 38.2678 99.5707 38.8118 99.496C39.3611 99.416 39.9344 99.3307 40.5318 99.24L39.8438 99.632C39.8491 99.0347 39.7158 98.5947 39.4438 98.312C39.1718 98.0293 38.7131 97.888 38.0678 97.888C37.6784 97.888 37.3024 97.9787 36.9398 98.16C36.5771 98.3413 36.3238 98.6533 36.1798 99.096L34.4198 98.544C34.6331 97.8133 35.0384 97.2267 35.6358 96.784C36.2384 96.3413 37.0491 96.12 38.0678 96.12C38.8358 96.12 39.5104 96.2453 40.0918 96.496C40.6784 96.7467 41.1131 97.1573 41.3958 97.728C41.5504 98.032 41.6438 98.344 41.6758 98.664C41.7078 98.9787 41.7238 99.3227 41.7238 99.696V105H40.0358V103.128L40.3158 103.432C39.9264 104.056 39.4704 104.515 38.9478 104.808C38.4304 105.096 37.7824 105.24 37.0038 105.24ZM37.3878 103.704C37.8251 103.704 38.1984 103.627 38.5078 103.472C38.8171 103.317 39.0624 103.128 39.2438 102.904C39.4304 102.68 39.5558 102.469 39.6198 102.272C39.7211 102.027 39.7771 101.747 39.7878 101.432C39.8038 101.112 39.8118 100.853 39.8118 100.656L40.4038 100.832C39.8224 100.923 39.3238 101.003 38.9078 101.072C38.4918 101.141 38.1344 101.208 37.8358 101.272C37.5371 101.331 37.2731 101.397 37.0438 101.472C36.8198 101.552 36.6304 101.645 36.4758 101.752C36.3211 101.859 36.2011 101.981 36.1158 102.12C36.0358 102.259 35.9958 102.421 35.9958 102.608C35.9958 102.821 36.0491 103.011 36.1558 103.176C36.2624 103.336 36.4171 103.464 36.6198 103.56C36.8278 103.656 37.0838 103.704 37.3878 103.704ZM43.9665 105V93.24H45.8945V105H43.9665Z" fill="black"/>
<path d="M297.633 42.386V40.769H298.879V42.386H297.633ZM297.633 31.151V29.527H298.879V31.151H297.633ZM298.354 41.21C297.673 41.21 297.059 41.0887 296.513 40.846C295.972 40.5987 295.526 40.251 295.176 39.803C294.826 39.3503 294.597 38.8183 294.49 38.207L295.715 38.004C295.864 38.6247 296.179 39.117 296.66 39.481C297.145 39.845 297.729 40.027 298.41 40.027C299.096 40.027 299.651 39.8613 300.076 39.53C300.501 39.1987 300.713 38.7717 300.713 38.249C300.713 37.8663 300.599 37.5583 300.37 37.325C300.146 37.0917 299.768 36.8933 299.236 36.73L296.933 36.016C295.556 35.5867 294.868 34.7653 294.868 33.552C294.868 32.9827 295.006 32.4857 295.281 32.061C295.561 31.6317 295.951 31.3003 296.45 31.067C296.954 30.829 297.54 30.7123 298.207 30.717C298.856 30.7217 299.434 30.843 299.943 31.081C300.452 31.3143 300.872 31.6503 301.203 32.089C301.539 32.5277 301.765 33.0527 301.882 33.664L300.622 33.895C300.557 33.4983 300.412 33.1507 300.188 32.852C299.969 32.5533 299.689 32.3223 299.348 32.159C299.007 31.991 298.625 31.9047 298.2 31.9C297.803 31.8953 297.446 31.9607 297.129 32.096C296.816 32.2313 296.569 32.4203 296.387 32.663C296.205 32.9057 296.114 33.1833 296.114 33.496C296.114 33.8367 296.24 34.126 296.492 34.364C296.749 34.5973 297.15 34.798 297.696 34.966L299.586 35.526C300.417 35.7733 301.016 36.107 301.385 36.527C301.754 36.9423 301.938 37.4977 301.938 38.193C301.938 38.795 301.789 39.3223 301.49 39.775C301.196 40.2277 300.778 40.58 300.237 40.832C299.7 41.084 299.073 41.21 298.354 41.21ZM309.187 41.21C308.669 41.21 308.186 41.1027 307.738 40.888C307.294 40.6733 306.914 40.3793 306.597 40.006C306.284 39.628 306.06 39.194 305.925 38.704L307.122 38.382C307.206 38.7133 307.355 39.0003 307.57 39.243C307.784 39.481 308.034 39.6677 308.319 39.803C308.608 39.9337 308.909 39.999 309.222 39.999C309.632 39.999 310.001 39.901 310.328 39.705C310.659 39.5043 310.92 39.2407 311.112 38.914C311.303 38.5827 311.399 38.221 311.399 37.829C311.399 37.423 311.298 37.0567 311.098 36.73C310.902 36.3987 310.638 36.1373 310.307 35.946C309.975 35.7547 309.614 35.659 309.222 35.659C308.778 35.659 308.398 35.7523 308.081 35.939C307.768 36.121 307.521 36.345 307.339 36.611L306.233 36.191L306.541 30.92H311.952V32.103H307.143L307.696 31.585L307.437 35.806L307.164 35.449C307.444 35.1503 307.777 34.9193 308.165 34.756C308.557 34.5927 308.956 34.511 309.362 34.511C309.987 34.511 310.547 34.658 311.042 34.952C311.536 35.2413 311.928 35.638 312.218 36.142C312.507 36.6413 312.652 37.2037 312.652 37.829C312.652 38.4497 312.493 39.0167 312.176 39.53C311.858 40.0387 311.436 40.447 310.909 40.755C310.386 41.0583 309.812 41.21 309.187 41.21ZM314.55 41V39.628H315.922V41H314.55ZM321.396 30.717C322.04 30.717 322.621 30.871 323.139 31.179C323.657 31.487 324.068 31.907 324.371 32.439C324.679 32.971 324.833 33.5753 324.833 34.252V37.605C324.833 38.3097 324.681 38.9327 324.378 39.474C324.075 40.0153 323.655 40.44 323.118 40.748C322.586 41.056 321.975 41.21 321.284 41.21C320.733 41.21 320.218 41.0957 319.737 40.867C319.261 40.6383 318.857 40.314 318.526 39.894L319.457 39.068C319.662 39.3573 319.926 39.5907 320.248 39.768C320.57 39.9407 320.915 40.027 321.284 40.027C321.732 40.027 322.126 39.9197 322.467 39.705C322.812 39.4903 323.081 39.2103 323.272 38.865C323.468 38.5197 323.566 38.1463 323.566 37.745V35.722L323.839 36.03C323.55 36.45 323.179 36.786 322.726 37.038C322.273 37.29 321.781 37.416 321.249 37.416C320.624 37.416 320.064 37.269 319.569 36.975C319.074 36.681 318.682 36.2843 318.393 35.785C318.104 35.281 317.959 34.7163 317.959 34.091C317.959 33.4657 318.115 32.8987 318.428 32.39C318.741 31.8767 319.156 31.4707 319.674 31.172C320.197 30.8687 320.771 30.717 321.396 30.717ZM321.396 31.921C320.995 31.921 320.628 32.019 320.297 32.215C319.97 32.4063 319.709 32.6677 319.513 32.999C319.317 33.3257 319.219 33.6897 319.219 34.091C319.219 34.4923 319.315 34.8587 319.506 35.19C319.702 35.5167 319.963 35.778 320.29 35.974C320.621 36.17 320.988 36.268 321.389 36.268C321.79 36.268 322.157 36.17 322.488 35.974C322.819 35.778 323.081 35.5167 323.272 35.19C323.468 34.8587 323.566 34.4923 323.566 34.091C323.566 33.6943 323.468 33.3327 323.272 33.006C323.081 32.6747 322.819 32.411 322.488 32.215C322.161 32.019 321.797 31.921 321.396 31.921ZM329.776 41.21C329.258 41.21 328.775 41.1027 328.327 40.888C327.884 40.6733 327.504 40.3793 327.186 40.006C326.874 39.628 326.65 39.194 326.514 38.704L327.711 38.382C327.795 38.7133 327.945 39.0003 328.159 39.243C328.374 39.481 328.624 39.6677 328.908 39.803C329.198 39.9337 329.499 39.999 329.811 39.999C330.222 39.999 330.591 39.901 330.917 39.705C331.249 39.5043 331.51 39.2407 331.701 38.914C331.893 38.5827 331.988 38.221 331.988 37.829C331.988 37.423 331.888 37.0567 331.687 36.73C331.491 36.3987 331.228 36.1373 330.896 35.946C330.565 35.7547 330.203 35.659 329.811 35.659C329.368 35.659 328.988 35.7523 328.67 35.939C328.358 36.121 328.11 36.345 327.928 36.611L326.822 36.191L327.13 30.92H332.541V32.103H327.732L328.285 31.585L328.026 35.806L327.753 35.449C328.033 35.1503 328.367 34.9193 328.754 34.756C329.146 34.5927 329.545 34.511 329.951 34.511C330.577 34.511 331.137 34.658 331.631 34.952C332.126 35.2413 332.518 35.638 332.807 36.142C333.097 36.6413 333.241 37.2037 333.241 37.829C333.241 38.4497 333.083 39.0167 332.765 39.53C332.448 40.0387 332.026 40.447 331.498 40.755C330.976 41.0583 330.402 41.21 329.776 41.21Z" fill="black"/>
<path d="M284.633 16.386V14.769H285.879V16.386H284.633ZM284.633 5.151V3.527H285.879V5.151H284.633ZM285.354 15.21C284.673 15.21 284.059 15.0887 283.513 14.846C282.972 14.5987 282.526 14.251 282.176 13.803C281.826 13.3503 281.597 12.8183 281.49 12.207L282.715 12.004C282.864 12.6247 283.179 13.117 283.66 13.481C284.145 13.845 284.729 14.027 285.41 14.027C286.096 14.027 286.651 13.8613 287.076 13.53C287.501 13.1987 287.713 12.7717 287.713 12.249C287.713 11.8663 287.599 11.5583 287.37 11.325C287.146 11.0917 286.768 10.8933 286.236 10.73L283.933 10.016C282.556 9.58667 281.868 8.76533 281.868 7.552C281.868 6.98267 282.006 6.48567 282.281 6.061C282.561 5.63167 282.951 5.30033 283.45 5.067C283.954 4.829 284.54 4.71233 285.207 4.717C285.856 4.72167 286.434 4.843 286.943 5.081C287.452 5.31433 287.872 5.65033 288.203 6.089C288.539 6.52767 288.765 7.05267 288.882 7.664L287.622 7.895C287.557 7.49833 287.412 7.15067 287.188 6.852C286.969 6.55333 286.689 6.32233 286.348 6.159C286.007 5.991 285.625 5.90467 285.2 5.9C284.803 5.89533 284.446 5.96067 284.129 6.096C283.816 6.23133 283.569 6.42033 283.387 6.663C283.205 6.90567 283.114 7.18333 283.114 7.496C283.114 7.83667 283.24 8.126 283.492 8.364C283.749 8.59733 284.15 8.798 284.696 8.966L286.586 9.526C287.417 9.77333 288.016 10.107 288.385 10.527C288.754 10.9423 288.938 11.4977 288.938 12.193C288.938 12.795 288.789 13.3223 288.49 13.775C288.196 14.2277 287.778 14.58 287.237 14.832C286.7 15.084 286.073 15.21 285.354 15.21ZM293.167 15.196C292.668 15.196 292.203 15.105 291.774 14.923C291.345 14.7363 290.974 14.475 290.661 14.139C290.353 13.7983 290.127 13.3947 289.982 12.928L291.179 12.585C291.333 13.0517 291.59 13.4063 291.949 13.649C292.308 13.8917 292.712 14.0107 293.16 14.006C293.571 13.9967 293.925 13.9033 294.224 13.726C294.527 13.544 294.761 13.2967 294.924 12.984C295.092 12.6713 295.176 12.3097 295.176 11.899C295.176 11.2737 294.989 10.7673 294.616 10.38C294.243 9.988 293.753 9.792 293.146 9.792C292.978 9.792 292.801 9.81533 292.614 9.862C292.432 9.90867 292.262 9.974 292.103 10.058L291.501 9.071L295.239 5.69L295.4 6.11H290.381V4.92H296.324V6.117L293.139 9.169L293.125 8.728C293.792 8.68133 294.376 8.791 294.875 9.057C295.374 9.323 295.762 9.70333 296.037 10.198C296.317 10.6927 296.457 11.2597 296.457 11.899C296.457 12.543 296.312 13.1123 296.023 13.607C295.734 14.1017 295.342 14.4913 294.847 14.776C294.352 15.056 293.792 15.196 293.167 15.196ZM301.714 15.21C301.075 15.21 300.494 15.056 299.971 14.748C299.453 14.44 299.04 14.02 298.732 13.488C298.429 12.9513 298.277 12.347 298.277 11.675V8.322C298.277 7.61733 298.429 6.99433 298.732 6.453C299.04 5.907 299.46 5.48233 299.992 5.179C300.529 4.871 301.14 4.717 301.826 4.717C302.381 4.717 302.897 4.83133 303.373 5.06C303.854 5.284 304.257 5.60833 304.584 6.033L303.653 6.859C303.452 6.565 303.191 6.33167 302.869 6.159C302.547 5.98633 302.199 5.9 301.826 5.9C301.383 5.9 300.988 6.00733 300.643 6.222C300.302 6.432 300.034 6.712 299.838 7.062C299.642 7.40733 299.544 7.78067 299.544 8.182V10.205L299.271 9.897C299.565 9.477 299.938 9.141 300.391 8.889C300.844 8.637 301.334 8.511 301.861 8.511C302.486 8.511 303.046 8.658 303.541 8.952C304.04 9.246 304.432 9.645 304.717 10.149C305.006 10.6483 305.151 11.2107 305.151 11.836C305.151 12.4613 304.995 13.0283 304.682 13.537C304.369 14.0457 303.952 14.4517 303.429 14.755C302.911 15.0583 302.339 15.21 301.714 15.21ZM301.714 14.006C302.115 14.006 302.482 13.9103 302.813 13.719C303.144 13.523 303.406 13.2617 303.597 12.935C303.793 12.6037 303.891 12.2373 303.891 11.836C303.891 11.4347 303.793 11.0683 303.597 10.737C303.406 10.4057 303.144 10.1443 302.813 9.953C302.486 9.757 302.122 9.659 301.721 9.659C301.32 9.659 300.953 9.757 300.622 9.953C300.295 10.1443 300.034 10.4057 299.838 10.737C299.642 11.0683 299.544 11.4347 299.544 11.836C299.544 12.2327 299.64 12.5967 299.831 12.928C300.027 13.2547 300.288 13.516 300.615 13.712C300.946 13.908 301.313 14.006 301.714 14.006ZM310.374 15.21C309.721 15.21 309.138 15.063 308.624 14.769C308.116 14.4703 307.712 14.0667 307.413 13.558C307.119 13.0447 306.972 12.4613 306.972 11.808V8.112C306.972 7.45867 307.119 6.87533 307.413 6.362C307.712 5.84867 308.116 5.445 308.624 5.151C309.138 4.857 309.721 4.71 310.374 4.71C311.028 4.71 311.611 4.857 312.124 5.151C312.638 5.445 313.041 5.84867 313.335 6.362C313.629 6.87533 313.776 7.45867 313.776 8.112V11.808C313.776 12.4613 313.629 13.0447 313.335 13.558C313.041 14.0667 312.638 14.4703 312.124 14.769C311.611 15.063 311.028 15.21 310.374 15.21ZM310.374 14.013C310.771 14.013 311.13 13.9173 311.452 13.726C311.774 13.5347 312.031 13.278 312.222 12.956C312.414 12.6293 312.509 12.27 312.509 11.878V8.035C312.509 7.63833 312.414 7.279 312.222 6.957C312.031 6.635 311.774 6.37833 311.452 6.187C311.13 5.99567 310.771 5.9 310.374 5.9C309.982 5.9 309.623 5.99567 309.296 6.187C308.974 6.37833 308.718 6.635 308.526 6.957C308.335 7.279 308.239 7.63833 308.239 8.035V11.878C308.239 12.27 308.335 12.6293 308.526 12.956C308.718 13.278 308.974 13.5347 309.296 13.726C309.623 13.9173 309.982 14.013 310.374 14.013ZM315.96 15V13.628H317.332V15H315.96ZM322.911 15.21C322.258 15.21 321.675 15.063 321.161 14.769C320.653 14.4703 320.249 14.0667 319.95 13.558C319.656 13.0447 319.509 12.4613 319.509 11.808V8.112C319.509 7.45867 319.656 6.87533 319.95 6.362C320.249 5.84867 320.653 5.445 321.161 5.151C321.675 4.857 322.258 4.71 322.911 4.71C323.565 4.71 324.148 4.857 324.661 5.151C325.175 5.445 325.578 5.84867 325.872 6.362C326.166 6.87533 326.313 7.45867 326.313 8.112V11.808C326.313 12.4613 326.166 13.0447 325.872 13.558C325.578 14.0667 325.175 14.4703 324.661 14.769C324.148 15.063 323.565 15.21 322.911 15.21ZM322.911 14.013C323.308 14.013 323.667 13.9173 323.989 13.726C324.311 13.5347 324.568 13.278 324.759 12.956C324.951 12.6293 325.046 12.27 325.046 11.878V8.035C325.046 7.63833 324.951 7.279 324.759 6.957C324.568 6.635 324.311 6.37833 323.989 6.187C323.667 5.99567 323.308 5.9 322.911 5.9C322.519 5.9 322.16 5.99567 321.833 6.187C321.511 6.37833 321.255 6.635 321.063 6.957C320.872 7.279 320.776 7.63833 320.776 8.035V11.878C320.776 12.27 320.872 12.6293 321.063 12.956C321.255 13.278 321.511 13.5347 321.833 13.726C322.16 13.9173 322.519 14.013 322.911 14.013ZM331.675 15.21C331.022 15.21 330.438 15.063 329.925 14.769C329.416 14.4703 329.013 14.0667 328.714 13.558C328.42 13.0447 328.273 12.4613 328.273 11.808V8.112C328.273 7.45867 328.42 6.87533 328.714 6.362C329.013 5.84867 329.416 5.445 329.925 5.151C330.438 4.857 331.022 4.71 331.675 4.71C332.328 4.71 332.912 4.857 333.425 5.151C333.938 5.445 334.342 5.84867 334.636 6.362C334.93 6.87533 335.077 7.45867 335.077 8.112V11.808C335.077 12.4613 334.93 13.0447 334.636 13.558C334.342 14.0667 333.938 14.4703 333.425 14.769C332.912 15.063 332.328 15.21 331.675 15.21ZM331.675 14.013C332.072 14.013 332.431 13.9173 332.753 13.726C333.075 13.5347 333.332 13.278 333.523 12.956C333.714 12.6293 333.81 12.27 333.81 11.878V8.035C333.81 7.63833 333.714 7.279 333.523 6.957C333.332 6.635 333.075 6.37833 332.753 6.187C332.431 5.99567 332.072 5.9 331.675 5.9C331.283 5.9 330.924 5.99567 330.597 6.187C330.275 6.37833 330.018 6.635 329.827 6.957C329.636 7.279 329.54 7.63833 329.54 8.035V11.878C329.54 12.27 329.636 12.6293 329.827 12.956C330.018 13.278 330.275 13.5347 330.597 13.726C330.924 13.9173 331.283 14.013 331.675 14.013Z" fill="black"/>
<path d="M274.136 105.592V103.696H276.064V105.592H274.136ZM274.136 92.792V90.896H276.064V92.792H274.136ZM275.144 104.24C274.333 104.24 273.608 104.091 272.968 103.792C272.328 103.493 271.803 103.072 271.392 102.528C270.987 101.984 270.728 101.339 270.616 100.592L272.52 100.288C272.669 100.944 272.989 101.467 273.48 101.856C273.976 102.24 274.568 102.432 275.256 102.432C275.917 102.432 276.461 102.277 276.888 101.968C277.315 101.653 277.528 101.256 277.528 100.776C277.528 100.44 277.427 100.168 277.224 99.96C277.021 99.7467 276.696 99.5707 276.248 99.432L273.472 98.568C271.856 98.0667 271.048 97.0853 271.048 95.624C271.048 94.9413 271.211 94.3467 271.536 93.84C271.867 93.328 272.331 92.936 272.928 92.664C273.525 92.3867 274.229 92.2507 275.04 92.256C275.792 92.2613 276.461 92.3973 277.048 92.664C277.64 92.9307 278.131 93.3147 278.52 93.816C278.915 94.3173 279.195 94.92 279.36 95.624L277.384 95.984C277.309 95.6053 277.163 95.272 276.944 94.984C276.725 94.696 276.451 94.472 276.12 94.312C275.789 94.152 275.421 94.0667 275.016 94.056C274.627 94.0507 274.277 94.112 273.968 94.24C273.659 94.3627 273.413 94.5387 273.232 94.768C273.051 94.992 272.96 95.2453 272.96 95.528C272.96 95.8427 273.085 96.112 273.336 96.336C273.592 96.56 273.995 96.752 274.544 96.912L276.616 97.512C277.613 97.8 278.331 98.192 278.768 98.688C279.211 99.1787 279.432 99.832 279.432 100.648C279.432 101.363 279.253 101.989 278.896 102.528C278.539 103.067 278.037 103.488 277.392 103.792C276.747 104.091 275.997 104.24 275.144 104.24ZM287.666 104.216C287.09 104.216 286.546 104.104 286.034 103.88C285.522 103.656 285.077 103.339 284.698 102.928C284.325 102.517 284.055 102.032 283.89 101.472L285.754 100.968C285.887 101.427 286.13 101.781 286.482 102.032C286.839 102.277 287.231 102.397 287.658 102.392C288.037 102.392 288.375 102.304 288.674 102.128C288.973 101.952 289.207 101.715 289.378 101.416C289.549 101.112 289.634 100.773 289.634 100.4C289.634 99.8293 289.45 99.352 289.082 98.968C288.714 98.584 288.239 98.392 287.658 98.392C287.482 98.392 287.309 98.416 287.138 98.464C286.973 98.512 286.813 98.5787 286.658 98.664L285.778 97.144L289.65 93.832L289.818 94.296H284.338V92.48H291.402V94.304L288.29 97.296L288.274 96.728C288.973 96.776 289.567 96.9707 290.058 97.312C290.554 97.6533 290.933 98.0933 291.194 98.632C291.461 99.1707 291.594 99.76 291.594 100.4C291.594 101.125 291.415 101.776 291.058 102.352C290.706 102.928 290.231 103.384 289.634 103.72C289.042 104.051 288.386 104.216 287.666 104.216ZM297.651 104.24C296.899 104.24 296.222 104.064 295.619 103.712C295.022 103.355 294.547 102.861 294.195 102.232C293.843 101.603 293.667 100.88 293.667 100.064V96.56C293.667 95.6853 293.84 94.9253 294.187 94.28C294.539 93.6347 295.03 93.136 295.659 92.784C296.294 92.432 297.03 92.256 297.867 92.256C298.448 92.256 299 92.3547 299.523 92.552C300.046 92.744 300.51 93.0533 300.915 93.48L299.523 94.832C299.32 94.592 299.072 94.4027 298.779 94.264C298.491 94.1253 298.187 94.056 297.867 94.056C297.419 94.056 297.027 94.1627 296.691 94.376C296.355 94.584 296.094 94.8587 295.907 95.2C295.726 95.5413 295.635 95.9067 295.635 96.296V98.208L295.283 97.824C295.614 97.44 296.011 97.1413 296.475 96.928C296.939 96.7093 297.424 96.6 297.931 96.6C298.656 96.6 299.296 96.7653 299.851 97.096C300.406 97.4213 300.843 97.8693 301.163 98.44C301.483 99.0053 301.643 99.6507 301.643 100.376C301.643 101.096 301.459 101.749 301.091 102.336C300.728 102.917 300.246 103.381 299.643 103.728C299.04 104.069 298.376 104.24 297.651 104.24ZM297.651 102.392C298.024 102.392 298.366 102.304 298.675 102.128C298.984 101.947 299.23 101.704 299.411 101.4C299.598 101.091 299.691 100.749 299.691 100.376C299.691 100.003 299.6 99.6613 299.419 99.352C299.238 99.0427 298.992 98.7973 298.683 98.616C298.379 98.4293 298.04 98.336 297.667 98.336C297.294 98.336 296.952 98.4293 296.643 98.616C296.334 98.7973 296.088 99.0427 295.907 99.352C295.726 99.6613 295.635 100.003 295.635 100.376C295.635 100.739 295.723 101.075 295.899 101.384C296.08 101.688 296.323 101.933 296.627 102.12C296.936 102.301 297.278 102.392 297.651 102.392ZM304.188 104L308.156 94.304H303.124V92.48H310.22V94.304L306.268 104H304.188ZM312.19 104V102.024H314.166V104H312.19ZM316.409 103.984V102.304L321.337 97.912C321.721 97.5707 321.988 97.248 322.137 96.944C322.287 96.64 322.361 96.3467 322.361 96.064C322.361 95.68 322.279 95.3387 322.113 95.04C321.948 94.736 321.719 94.496 321.425 94.32C321.137 94.144 320.804 94.056 320.425 94.056C320.025 94.056 319.671 94.1493 319.361 94.336C319.057 94.5173 318.82 94.76 318.649 95.064C318.479 95.368 318.399 95.696 318.409 96.048H316.425C316.425 95.28 316.596 94.6107 316.937 94.04C317.284 93.4693 317.759 93.0267 318.361 92.712C318.969 92.3973 319.671 92.24 320.465 92.24C321.201 92.24 321.863 92.4053 322.449 92.736C323.036 93.0613 323.497 93.5147 323.833 94.096C324.169 94.672 324.337 95.336 324.337 96.088C324.337 96.6373 324.263 97.0987 324.113 97.472C323.964 97.8453 323.74 98.1893 323.441 98.504C323.148 98.8187 322.783 99.168 322.345 99.552L318.849 102.648L318.673 102.168H324.337V103.984H316.409ZM325.941 103.984V102.304L330.869 97.912C331.253 97.5707 331.519 97.248 331.669 96.944C331.818 96.64 331.893 96.3467 331.893 96.064C331.893 95.68 331.81 95.3387 331.645 95.04C331.479 94.736 331.25 94.496 330.957 94.32C330.669 94.144 330.335 94.056 329.957 94.056C329.557 94.056 329.202 94.1493 328.893 94.336C328.589 94.5173 328.351 94.76 328.181 95.064C328.01 95.368 327.93 95.696 327.941 96.048H325.957C325.957 95.28 326.127 94.6107 326.469 94.04C326.815 93.4693 327.29 93.0267 327.893 92.712C328.501 92.3973 329.202 92.24 329.997 92.24C330.733 92.24 331.394 92.4053 331.981 92.736C332.567 93.0613 333.029 93.5147 333.365 94.096C333.701 94.672 333.869 95.336 333.869 96.088C333.869 96.6373 333.794 97.0987 333.645 97.472C333.495 97.8453 333.271 98.1893 332.973 98.504C332.679 98.8187 332.314 99.168 331.877 99.552L328.381 102.648L328.205 102.168H333.869V103.984H325.941Z" fill="black"/>
<path d="M300.633 68.386V66.769H301.879V68.386H300.633ZM300.633 57.151V55.527H301.879V57.151H300.633ZM301.354 67.21C300.673 67.21 300.059 67.0887 299.513 66.846C298.972 66.5987 298.526 66.251 298.176 65.803C297.826 65.3503 297.597 64.8183 297.49 64.207L298.715 64.004C298.864 64.6247 299.179 65.117 299.66 65.481C300.145 65.845 300.729 66.027 301.41 66.027C302.096 66.027 302.651 65.8613 303.076 65.53C303.501 65.1987 303.713 64.7717 303.713 64.249C303.713 63.8663 303.599 63.5583 303.37 63.325C303.146 63.0917 302.768 62.8933 302.236 62.73L299.933 62.016C298.556 61.5867 297.868 60.7653 297.868 59.552C297.868 58.9827 298.006 58.4857 298.281 58.061C298.561 57.6317 298.951 57.3003 299.45 57.067C299.954 56.829 300.54 56.7123 301.207 56.717C301.856 56.7217 302.434 56.843 302.943 57.081C303.452 57.3143 303.872 57.6503 304.203 58.089C304.539 58.5277 304.765 59.0527 304.882 59.664L303.622 59.895C303.557 59.4983 303.412 59.1507 303.188 58.852C302.969 58.5533 302.689 58.3223 302.348 58.159C302.007 57.991 301.625 57.9047 301.2 57.9C300.803 57.8953 300.446 57.9607 300.129 58.096C299.816 58.2313 299.569 58.4203 299.387 58.663C299.205 58.9057 299.114 59.1833 299.114 59.496C299.114 59.8367 299.24 60.126 299.492 60.364C299.749 60.5973 300.15 60.798 300.696 60.966L302.586 61.526C303.417 61.7733 304.016 62.107 304.385 62.527C304.754 62.9423 304.938 63.4977 304.938 64.193C304.938 64.795 304.789 65.3223 304.49 65.775C304.196 66.2277 303.778 66.58 303.237 66.832C302.7 67.084 302.073 67.21 301.354 67.21ZM310.962 67V58.299L309.065 59.447V58.054L310.962 56.92H312.229V67H310.962ZM314.556 67V65.628H315.928V67H314.556ZM317.825 66.993L317.832 65.873L322.305 61.848C322.678 61.512 322.928 61.1947 323.054 60.896C323.185 60.5927 323.25 60.2823 323.25 59.965C323.25 59.5777 323.161 59.2277 322.984 58.915C322.807 58.6023 322.564 58.355 322.256 58.173C321.953 57.991 321.607 57.9 321.22 57.9C320.819 57.9 320.462 57.9957 320.149 58.187C319.836 58.3737 319.589 58.6233 319.407 58.936C319.23 59.2487 319.143 59.5893 319.148 59.958H317.874C317.874 59.3233 318.021 58.7633 318.315 58.278C318.609 57.788 319.008 57.4053 319.512 57.13C320.021 56.85 320.597 56.71 321.241 56.71C321.866 56.71 322.426 56.8547 322.921 57.144C323.416 57.4287 323.805 57.8183 324.09 58.313C324.379 58.803 324.524 59.3583 324.524 59.979C324.524 60.4177 324.468 60.798 324.356 61.12C324.249 61.442 324.081 61.7407 323.852 62.016C323.623 62.2867 323.336 62.576 322.991 62.884L319.274 66.223L319.113 65.803H324.524V66.993H317.825ZM329.636 67.21C328.996 67.21 328.415 67.056 327.893 66.748C327.375 66.44 326.962 66.02 326.654 65.488C326.35 64.9513 326.199 64.347 326.199 63.675V60.322C326.199 59.6173 326.35 58.9943 326.654 58.453C326.962 57.907 327.382 57.4823 327.914 57.179C328.45 56.871 329.062 56.717 329.748 56.717C330.303 56.717 330.819 56.8313 331.295 57.06C331.775 57.284 332.179 57.6083 332.506 58.033L331.575 58.859C331.374 58.565 331.113 58.3317 330.791 58.159C330.469 57.9863 330.121 57.9 329.748 57.9C329.304 57.9 328.91 58.0073 328.565 58.222C328.224 58.432 327.956 58.712 327.76 59.062C327.564 59.4073 327.466 59.7807 327.466 60.182V62.205L327.193 61.897C327.487 61.477 327.86 61.141 328.313 60.889C328.765 60.637 329.255 60.511 329.783 60.511C330.408 60.511 330.968 60.658 331.463 60.952C331.962 61.246 332.354 61.645 332.639 62.149C332.928 62.6483 333.073 63.2107 333.073 63.836C333.073 64.4613 332.916 65.0283 332.604 65.537C332.291 66.0457 331.873 66.4517 331.351 66.755C330.833 67.0583 330.261 67.21 329.636 67.21ZM329.636 66.006C330.037 66.006 330.403 65.9103 330.735 65.719C331.066 65.523 331.327 65.2617 331.519 64.935C331.715 64.6037 331.813 64.2373 331.813 63.836C331.813 63.4347 331.715 63.0683 331.519 62.737C331.327 62.4057 331.066 62.1443 330.735 61.953C330.408 61.757 330.044 61.659 329.643 61.659C329.241 61.659 328.875 61.757 328.544 61.953C328.217 62.1443 327.956 62.4057 327.76 62.737C327.564 63.0683 327.466 63.4347 327.466 63.836C327.466 64.2327 327.561 64.5967 327.753 64.928C327.949 65.2547 328.21 65.516 328.537 65.712C328.868 65.908 329.234 66.006 329.636 66.006Z" fill="black"/>
<path d="M4 77.75L339 77.75" stroke="#CECECE" stroke-width="0.5"/>
</g>
<defs>
<filter id="filter0_d_225_93" x="0" y="3.5271" width="343" height="110.065" filterUnits="userSpaceOnUse" color-interpolation-filters="sRGB">
<feFlood flood-opacity="0" result="BackgroundImageFix"/>
<feColorMatrix in="SourceAlpha" type="matrix" values="0 0 0 0 0 0 0 0 0 0 0 0 0 0 0 0 0 0 127 0" result="hardAlpha"/>
<feOffset dy="4"/>
<feGaussianBlur stdDeviation="2"/>
<feComposite in2="hardAlpha" operator="out"/>
<feColorMatrix type="matrix" values="0 0 0 0 0 0 0 0 0 0 0 0 0 0 0 0 0 0 0.25 0"/>
<feBlend mode="normal" in2="BackgroundImageFix" result="effect1_dropShadow_225_93"/>
<feBlend mode="normal" in="SourceGraphic" in2="effect1_dropShadow_225_93" result="shape"/>
</filter>
</defs>
</svg>
