<svg width="346" height="81" viewBox="0 0 346 81" fill="none" xmlns="http://www.w3.org/2000/svg">
<rect width="346" height="81" rx="6" fill="#F4F4F4"/>
<path d="M42.7553 30.18C41.8953 30.18 41.1653 29.99 40.5653 29.61C39.9653 29.23 39.5073 28.702 39.1913 28.026C38.8793 27.35 38.7233 26.568 38.7233 25.68C38.7233 24.792 38.8793 24.01 39.1913 23.334C39.5073 22.658 39.9653 22.13 40.5653 21.75C41.1653 21.37 41.8953 21.18 42.7553 21.18C43.7553 21.18 44.5773 21.434 45.2213 21.942C45.8693 22.45 46.3153 23.134 46.5593 23.994L45.4733 24.282C45.2973 23.638 44.9833 23.13 44.5313 22.758C44.0793 22.386 43.4873 22.2 42.7553 22.2C42.1113 22.2 41.5753 22.346 41.1473 22.638C40.7193 22.93 40.3973 23.338 40.1813 23.862C39.9653 24.382 39.8553 24.988 39.8513 25.68C39.8473 26.368 39.9533 26.974 40.1693 27.498C40.3853 28.018 40.7093 28.426 41.1413 28.722C41.5733 29.014 42.1113 29.16 42.7553 29.16C43.4873 29.16 44.0793 28.974 44.5313 28.602C44.9833 28.226 45.2973 27.718 45.4733 27.078L46.5593 27.366C46.3153 28.222 45.8693 28.906 45.2213 29.418C44.5773 29.926 43.7553 30.18 42.7553 30.18ZM50.6352 30.18C49.9912 30.18 49.4352 30.034 48.9672 29.742C48.5032 29.45 48.1452 29.046 47.8932 28.53C47.6412 28.014 47.5152 27.422 47.5152 26.754C47.5152 26.074 47.6432 25.478 47.8992 24.966C48.1552 24.454 48.5172 24.056 48.9852 23.772C49.4532 23.484 50.0032 23.34 50.6352 23.34C51.2832 23.34 51.8412 23.486 52.3092 23.778C52.7772 24.066 53.1352 24.468 53.3832 24.984C53.6352 25.496 53.7612 26.086 53.7612 26.754C53.7612 27.43 53.6352 28.026 53.3832 28.542C53.1312 29.054 52.7712 29.456 52.3032 29.748C51.8352 30.036 51.2792 30.18 50.6352 30.18ZM50.6352 29.166C51.3072 29.166 51.8072 28.942 52.1352 28.494C52.4632 28.046 52.6272 27.466 52.6272 26.754C52.6272 26.022 52.4612 25.44 52.1292 25.008C51.7972 24.572 51.2992 24.354 50.6352 24.354C50.1832 24.354 49.8112 24.456 49.5192 24.66C49.2272 24.864 49.0092 25.146 48.8652 25.506C48.7212 25.866 48.6492 26.282 48.6492 26.754C48.6492 27.482 48.8172 28.066 49.1532 28.506C49.4892 28.946 49.9832 29.166 50.6352 29.166ZM62.8282 30L62.8342 25.854C62.8342 25.37 62.7042 24.992 62.4442 24.72C62.1882 24.444 61.8542 24.306 61.4422 24.306C61.2022 24.306 60.9742 24.362 60.7582 24.474C60.5422 24.582 60.3662 24.754 60.2302 24.99C60.0942 25.222 60.0262 25.52 60.0262 25.884L59.4622 25.656C59.4542 25.196 59.5482 24.794 59.7442 24.45C59.9442 24.102 60.2162 23.832 60.5602 23.64C60.9042 23.448 61.2922 23.352 61.7242 23.352C62.4002 23.352 62.9322 23.558 63.3202 23.97C63.7082 24.378 63.9022 24.928 63.9022 25.62L63.8962 30H62.8282ZM55.0762 30V23.52H56.0302V25.254H56.1502V30H55.0762ZM58.9582 30L58.9642 25.896C58.9642 25.4 58.8362 25.012 58.5802 24.732C58.3242 24.448 57.9842 24.306 57.5602 24.306C57.1402 24.306 56.8002 24.45 56.5402 24.738C56.2802 25.026 56.1502 25.408 56.1502 25.884L55.5862 25.548C55.5862 25.128 55.6862 24.752 55.8862 24.42C56.0862 24.088 56.3582 23.828 56.7022 23.64C57.0462 23.448 57.4362 23.352 57.8722 23.352C58.3082 23.352 58.6882 23.444 59.0122 23.628C59.3362 23.812 59.5862 24.076 59.7622 24.42C59.9382 24.76 60.0262 25.166 60.0262 25.638L60.0202 30H58.9582ZM68.441 30.18C67.833 30.18 67.321 30.03 66.905 29.73C66.489 29.426 66.173 29.016 65.957 28.5C65.745 27.98 65.639 27.398 65.639 26.754C65.639 26.102 65.745 25.518 65.957 25.002C66.173 24.486 66.489 24.08 66.905 23.784C67.325 23.488 67.839 23.34 68.447 23.34C69.047 23.34 69.563 23.49 69.995 23.79C70.431 24.086 70.765 24.492 70.997 25.008C71.229 25.524 71.345 26.106 71.345 26.754C71.345 27.402 71.229 27.984 70.997 28.5C70.765 29.016 70.431 29.426 69.995 29.73C69.563 30.03 69.045 30.18 68.441 30.18ZM65.459 32.88V23.52H66.413V28.29H66.533V32.88H65.459ZM68.309 29.202C68.737 29.202 69.091 29.094 69.371 28.878C69.651 28.662 69.861 28.37 70.001 28.002C70.141 27.63 70.211 27.214 70.211 26.754C70.211 26.298 70.141 25.886 70.001 25.518C69.865 25.15 69.653 24.858 69.365 24.642C69.081 24.426 68.719 24.318 68.279 24.318C67.859 24.318 67.511 24.422 67.235 24.63C66.959 24.834 66.753 25.12 66.617 25.488C66.481 25.852 66.413 26.274 66.413 26.754C66.413 27.226 66.479 27.648 66.611 28.02C66.747 28.388 66.955 28.678 67.235 28.89C67.515 29.098 67.873 29.202 68.309 29.202ZM72.7803 30V21.18H73.8483V30H72.7803ZM78.4566 30.18C77.8206 30.18 77.2646 30.04 76.7886 29.76C76.3166 29.476 75.9486 29.082 75.6846 28.578C75.4206 28.07 75.2886 27.478 75.2886 26.802C75.2886 26.094 75.4186 25.482 75.6786 24.966C75.9386 24.446 76.3006 24.046 76.7646 23.766C77.2326 23.482 77.7806 23.34 78.4086 23.34C79.0606 23.34 79.6146 23.49 80.0706 23.79C80.5306 24.09 80.8746 24.518 81.1026 25.074C81.3346 25.63 81.4346 26.292 81.4026 27.06H80.3226V26.676C80.3106 25.88 80.1486 25.286 79.8366 24.894C79.5246 24.498 79.0606 24.3 78.4446 24.3C77.7846 24.3 77.2826 24.512 76.9386 24.936C76.5946 25.36 76.4226 25.968 76.4226 26.76C76.4226 27.524 76.5946 28.116 76.9386 28.536C77.2826 28.956 77.7726 29.166 78.4086 29.166C78.8366 29.166 79.2086 29.068 79.5246 28.872C79.8406 28.676 80.0886 28.394 80.2686 28.026L81.2946 28.38C81.0426 28.952 80.6626 29.396 80.1546 29.712C79.6506 30.024 79.0846 30.18 78.4566 30.18ZM76.0626 27.06V26.202H80.8506V27.06H76.0626ZM86.3564 30C85.9724 30.076 85.5924 30.106 85.2164 30.09C84.8444 30.078 84.5124 30.004 84.2204 29.868C83.9284 29.728 83.7064 29.512 83.5544 29.22C83.4264 28.964 83.3564 28.706 83.3444 28.446C83.3364 28.182 83.3324 27.884 83.3324 27.552V21.72H84.4004V27.504C84.4004 27.768 84.4024 27.994 84.4064 28.182C84.4144 28.37 84.4564 28.532 84.5324 28.668C84.6764 28.924 84.9044 29.074 85.2164 29.118C85.5324 29.162 85.9124 29.15 86.3564 29.082V30ZM82.0184 24.402V23.52H86.3564V24.402H82.0184ZM90.2105 30.18C89.5745 30.18 89.0185 30.04 88.5425 29.76C88.0705 29.476 87.7025 29.082 87.4385 28.578C87.1745 28.07 87.0425 27.478 87.0425 26.802C87.0425 26.094 87.1725 25.482 87.4325 24.966C87.6925 24.446 88.0545 24.046 88.5185 23.766C88.9865 23.482 89.5345 23.34 90.1625 23.34C90.8145 23.34 91.3685 23.49 91.8245 23.79C92.2845 24.09 92.6285 24.518 92.8565 25.074C93.0885 25.63 93.1885 26.292 93.1565 27.06H92.0765V26.676C92.0645 25.88 91.9025 25.286 91.5905 24.894C91.2785 24.498 90.8145 24.3 90.1985 24.3C89.5385 24.3 89.0365 24.512 88.6925 24.936C88.3485 25.36 88.1765 25.968 88.1765 26.76C88.1765 27.524 88.3485 28.116 88.6925 28.536C89.0365 28.956 89.5265 29.166 90.1625 29.166C90.5905 29.166 90.9625 29.068 91.2785 28.872C91.5945 28.676 91.8425 28.394 92.0225 28.026L93.0485 28.38C92.7965 28.952 92.4165 29.396 91.9085 29.712C91.4045 30.024 90.8385 30.18 90.2105 30.18ZM87.8165 27.06V26.202H92.6045V27.06H87.8165ZM97.7947 32.88L99.0487 29.472L99.0667 30.48L96.2347 23.52H97.3567L99.5767 29.118H99.1927L101.275 23.52H102.361L98.8327 32.88H97.7947ZM105.877 30.18C105.233 30.18 104.677 30.034 104.209 29.742C103.745 29.45 103.387 29.046 103.135 28.53C102.883 28.014 102.757 27.422 102.757 26.754C102.757 26.074 102.885 25.478 103.141 24.966C103.397 24.454 103.759 24.056 104.227 23.772C104.695 23.484 105.245 23.34 105.877 23.34C106.525 23.34 107.083 23.486 107.551 23.778C108.019 24.066 108.377 24.468 108.625 24.984C108.877 25.496 109.003 26.086 109.003 26.754C109.003 27.43 108.877 28.026 108.625 28.542C108.373 29.054 108.013 29.456 107.545 29.748C107.077 30.036 106.521 30.18 105.877 30.18ZM105.877 29.166C106.549 29.166 107.049 28.942 107.377 28.494C107.705 28.046 107.869 27.466 107.869 26.754C107.869 26.022 107.703 25.44 107.371 25.008C107.039 24.572 106.541 24.354 105.877 24.354C105.425 24.354 105.053 24.456 104.761 24.66C104.469 24.864 104.251 25.146 104.107 25.506C103.963 25.866 103.891 26.282 103.891 26.754C103.891 27.482 104.059 28.066 104.395 28.506C104.731 28.946 105.225 29.166 105.877 29.166ZM112.784 30.168C112.368 30.168 112.01 30.102 111.71 29.97C111.414 29.838 111.168 29.662 110.972 29.442C110.776 29.222 110.622 28.978 110.51 28.71C110.398 28.442 110.318 28.168 110.27 27.888C110.226 27.608 110.204 27.346 110.204 27.102V23.52H111.284V26.766C111.284 27.07 111.312 27.364 111.368 27.648C111.424 27.932 111.518 28.188 111.65 28.416C111.786 28.644 111.966 28.824 112.19 28.956C112.418 29.088 112.702 29.154 113.042 29.154C113.31 29.154 113.554 29.108 113.774 29.016C113.994 28.924 114.182 28.788 114.338 28.608C114.494 28.424 114.614 28.192 114.698 27.912C114.782 27.632 114.824 27.306 114.824 26.934L115.526 27.15C115.526 27.774 115.412 28.312 115.184 28.764C114.96 29.216 114.642 29.564 114.23 29.808C113.822 30.048 113.34 30.168 112.784 30.168ZM114.944 30V28.266H114.824V23.52H115.898V30H114.944ZM117.578 30V23.52H118.532V25.086L118.376 24.882C118.452 24.682 118.55 24.498 118.67 24.33C118.794 24.162 118.932 24.024 119.084 23.916C119.252 23.78 119.442 23.676 119.654 23.604C119.866 23.532 120.082 23.49 120.302 23.478C120.522 23.462 120.728 23.476 120.92 23.52V24.522C120.696 24.462 120.45 24.446 120.182 24.474C119.914 24.502 119.666 24.6 119.438 24.768C119.23 24.916 119.068 25.096 118.952 25.308C118.84 25.52 118.762 25.75 118.718 25.998C118.674 26.242 118.652 26.492 118.652 26.748V30H117.578ZM128.075 30C127.691 30.076 127.311 30.106 126.935 30.09C126.563 30.078 126.231 30.004 125.939 29.868C125.647 29.728 125.425 29.512 125.273 29.22C125.145 28.964 125.075 28.706 125.063 28.446C125.055 28.182 125.051 27.884 125.051 27.552V21.72H126.119V27.504C126.119 27.768 126.121 27.994 126.125 28.182C126.133 28.37 126.175 28.532 126.251 28.668C126.395 28.924 126.623 29.074 126.935 29.118C127.251 29.162 127.631 29.15 128.075 29.082V30ZM123.737 24.402V23.52H128.075V24.402H123.737ZM129.391 30V23.52H130.345V25.086L130.189 24.882C130.265 24.682 130.363 24.498 130.483 24.33C130.607 24.162 130.745 24.024 130.897 23.916C131.065 23.78 131.255 23.676 131.467 23.604C131.679 23.532 131.895 23.49 132.115 23.478C132.335 23.462 132.541 23.476 132.733 23.52V24.522C132.509 24.462 132.263 24.446 131.995 24.474C131.727 24.502 131.479 24.6 131.251 24.768C131.043 24.916 130.881 25.096 130.765 25.308C130.653 25.52 130.575 25.75 130.531 25.998C130.487 26.242 130.465 26.492 130.465 26.748V30H129.391ZM135.498 30.18C135.014 30.18 134.608 30.092 134.28 29.916C133.956 29.736 133.71 29.5 133.542 29.208C133.378 28.916 133.296 28.596 133.296 28.248C133.296 27.908 133.36 27.614 133.488 27.366C133.62 27.114 133.804 26.906 134.04 26.742C134.276 26.574 134.558 26.442 134.886 26.346C135.194 26.262 135.538 26.19 135.918 26.13C136.302 26.066 136.69 26.008 137.082 25.956C137.474 25.904 137.84 25.854 138.18 25.806L137.796 26.028C137.808 25.452 137.692 25.026 137.448 24.75C137.208 24.474 136.792 24.336 136.2 24.336C135.808 24.336 135.464 24.426 135.168 24.606C134.876 24.782 134.67 25.07 134.55 25.47L133.536 25.164C133.692 24.596 133.994 24.15 134.442 23.826C134.89 23.502 135.48 23.34 136.212 23.34C136.8 23.34 137.304 23.446 137.724 23.658C138.148 23.866 138.452 24.182 138.636 24.606C138.728 24.806 138.786 25.024 138.81 25.26C138.834 25.492 138.846 25.736 138.846 25.992V30H137.898V28.446L138.12 28.59C137.876 29.114 137.534 29.51 137.094 29.778C136.658 30.046 136.126 30.18 135.498 30.18ZM135.66 29.286C136.044 29.286 136.376 29.218 136.656 29.082C136.94 28.942 137.168 28.76 137.34 28.536C137.512 28.308 137.624 28.06 137.676 27.792C137.736 27.592 137.768 27.37 137.772 27.126C137.78 26.878 137.784 26.688 137.784 26.556L138.156 26.718C137.808 26.766 137.466 26.812 137.13 26.856C136.794 26.9 136.476 26.948 136.176 27C135.876 27.048 135.606 27.106 135.366 27.174C135.19 27.23 135.024 27.302 134.868 27.39C134.716 27.478 134.592 27.592 134.496 27.732C134.404 27.868 134.358 28.038 134.358 28.242C134.358 28.418 134.402 28.586 134.49 28.746C134.582 28.906 134.722 29.036 134.91 29.136C135.102 29.236 135.352 29.286 135.66 29.286ZM145.02 30V26.754C145.02 26.446 144.992 26.15 144.936 25.866C144.884 25.582 144.79 25.328 144.654 25.104C144.522 24.876 144.342 24.696 144.114 24.564C143.89 24.432 143.606 24.366 143.262 24.366C142.994 24.366 142.75 24.412 142.53 24.504C142.314 24.592 142.128 24.728 141.972 24.912C141.816 25.096 141.694 25.328 141.606 25.608C141.522 25.884 141.48 26.21 141.48 26.586L140.778 26.37C140.778 25.742 140.89 25.204 141.114 24.756C141.342 24.304 141.66 23.958 142.068 23.718C142.48 23.474 142.964 23.352 143.52 23.352C143.94 23.352 144.298 23.418 144.594 23.55C144.89 23.682 145.136 23.858 145.332 24.078C145.528 24.294 145.682 24.538 145.794 24.81C145.906 25.078 145.984 25.352 146.028 25.632C146.076 25.908 146.1 26.17 146.1 26.418V30H145.02ZM140.4 30V23.52H141.36V25.254H141.48V30H140.4ZM150.108 30.174C149.336 30.174 148.702 30.006 148.206 29.67C147.714 29.33 147.412 28.856 147.3 28.248L148.392 28.074C148.48 28.426 148.682 28.706 148.998 28.914C149.314 29.118 149.706 29.22 150.174 29.22C150.618 29.22 150.966 29.128 151.218 28.944C151.47 28.76 151.596 28.51 151.596 28.194C151.596 28.01 151.554 27.862 151.47 27.75C151.386 27.634 151.212 27.526 150.948 27.426C150.688 27.326 150.294 27.206 149.766 27.066C149.194 26.914 148.744 26.756 148.416 26.592C148.088 26.428 147.854 26.238 147.714 26.022C147.574 25.806 147.504 25.544 147.504 25.236C147.504 24.856 147.608 24.524 147.816 24.24C148.024 23.952 148.314 23.73 148.686 23.574C149.062 23.418 149.498 23.34 149.994 23.34C150.486 23.34 150.926 23.418 151.314 23.574C151.702 23.73 152.014 23.952 152.25 24.24C152.49 24.524 152.632 24.856 152.676 25.236L151.584 25.434C151.532 25.086 151.364 24.812 151.08 24.612C150.8 24.412 150.438 24.306 149.994 24.294C149.574 24.278 149.232 24.352 148.968 24.516C148.708 24.68 148.578 24.902 148.578 25.182C148.578 25.338 148.626 25.472 148.722 25.584C148.822 25.696 149.004 25.802 149.268 25.902C149.536 26.002 149.924 26.116 150.432 26.244C151.004 26.388 151.454 26.546 151.782 26.718C152.114 26.886 152.35 27.086 152.49 27.318C152.63 27.546 152.7 27.828 152.7 28.164C152.7 28.788 152.47 29.28 152.01 29.64C151.55 29.996 150.916 30.174 150.108 30.174ZM155.866 30.18C155.382 30.18 154.976 30.092 154.648 29.916C154.324 29.736 154.078 29.5 153.91 29.208C153.746 28.916 153.664 28.596 153.664 28.248C153.664 27.908 153.728 27.614 153.856 27.366C153.988 27.114 154.172 26.906 154.408 26.742C154.644 26.574 154.926 26.442 155.254 26.346C155.562 26.262 155.906 26.19 156.286 26.13C156.67 26.066 157.058 26.008 157.45 25.956C157.842 25.904 158.208 25.854 158.548 25.806L158.164 26.028C158.176 25.452 158.06 25.026 157.816 24.75C157.576 24.474 157.16 24.336 156.568 24.336C156.176 24.336 155.832 24.426 155.536 24.606C155.244 24.782 155.038 25.07 154.918 25.47L153.904 25.164C154.06 24.596 154.362 24.15 154.81 23.826C155.258 23.502 155.848 23.34 156.58 23.34C157.168 23.34 157.672 23.446 158.092 23.658C158.516 23.866 158.82 24.182 159.004 24.606C159.096 24.806 159.154 25.024 159.178 25.26C159.202 25.492 159.214 25.736 159.214 25.992V30H158.266V28.446L158.488 28.59C158.244 29.114 157.902 29.51 157.462 29.778C157.026 30.046 156.494 30.18 155.866 30.18ZM156.028 29.286C156.412 29.286 156.744 29.218 157.024 29.082C157.308 28.942 157.536 28.76 157.708 28.536C157.88 28.308 157.992 28.06 158.044 27.792C158.104 27.592 158.136 27.37 158.14 27.126C158.148 26.878 158.152 26.688 158.152 26.556L158.524 26.718C158.176 26.766 157.834 26.812 157.498 26.856C157.162 26.9 156.844 26.948 156.544 27C156.244 27.048 155.974 27.106 155.734 27.174C155.558 27.23 155.392 27.302 155.236 27.39C155.084 27.478 154.96 27.592 154.864 27.732C154.772 27.868 154.726 28.038 154.726 28.242C154.726 28.418 154.77 28.586 154.858 28.746C154.95 28.906 155.09 29.036 155.278 29.136C155.47 29.236 155.72 29.286 156.028 29.286ZM163.504 30.18C162.848 30.18 162.29 30.034 161.83 29.742C161.374 29.446 161.026 29.04 160.786 28.524C160.546 28.008 160.422 27.42 160.414 26.76C160.422 26.084 160.548 25.49 160.792 24.978C161.04 24.462 161.394 24.06 161.854 23.772C162.314 23.484 162.868 23.34 163.516 23.34C164.2 23.34 164.788 23.508 165.28 23.844C165.776 24.18 166.108 24.64 166.276 25.224L165.22 25.542C165.084 25.166 164.862 24.874 164.554 24.666C164.25 24.458 163.9 24.354 163.504 24.354C163.06 24.354 162.694 24.458 162.406 24.666C162.118 24.87 161.904 25.154 161.764 25.518C161.624 25.878 161.552 26.292 161.548 26.76C161.556 27.48 161.722 28.062 162.046 28.506C162.374 28.946 162.86 29.166 163.504 29.166C163.928 29.166 164.28 29.07 164.56 28.878C164.84 28.682 165.052 28.4 165.196 28.032L166.276 28.314C166.052 28.918 165.702 29.38 165.226 29.7C164.75 30.02 164.176 30.18 163.504 30.18ZM171.118 30C170.734 30.076 170.354 30.106 169.978 30.09C169.606 30.078 169.274 30.004 168.982 29.868C168.69 29.728 168.468 29.512 168.316 29.22C168.188 28.964 168.118 28.706 168.106 28.446C168.098 28.182 168.094 27.884 168.094 27.552V21.72H169.162V27.504C169.162 27.768 169.164 27.994 169.168 28.182C169.176 28.37 169.218 28.532 169.294 28.668C169.438 28.924 169.666 29.074 169.978 29.118C170.294 29.162 170.674 29.15 171.118 29.082V30ZM166.78 24.402V23.52H171.118V24.402H166.78ZM172.554 22.374V21.27H173.622V22.374H172.554ZM172.554 30V23.52H173.622V30H172.554ZM178.182 30.18C177.538 30.18 176.982 30.034 176.514 29.742C176.05 29.45 175.692 29.046 175.44 28.53C175.188 28.014 175.062 27.422 175.062 26.754C175.062 26.074 175.19 25.478 175.446 24.966C175.702 24.454 176.064 24.056 176.532 23.772C177 23.484 177.55 23.34 178.182 23.34C178.83 23.34 179.388 23.486 179.856 23.778C180.324 24.066 180.682 24.468 180.93 24.984C181.182 25.496 181.308 26.086 181.308 26.754C181.308 27.43 181.182 28.026 180.93 28.542C180.678 29.054 180.318 29.456 179.85 29.748C179.382 30.036 178.826 30.18 178.182 30.18ZM178.182 29.166C178.854 29.166 179.354 28.942 179.682 28.494C180.01 28.046 180.174 27.466 180.174 26.754C180.174 26.022 180.008 25.44 179.676 25.008C179.344 24.572 178.846 24.354 178.182 24.354C177.73 24.354 177.358 24.456 177.066 24.66C176.774 24.864 176.556 25.146 176.412 25.506C176.268 25.866 176.196 26.282 176.196 26.754C176.196 27.482 176.364 28.066 176.7 28.506C177.036 28.946 177.53 29.166 178.182 29.166ZM187.243 30V26.754C187.243 26.446 187.215 26.15 187.159 25.866C187.107 25.582 187.013 25.328 186.877 25.104C186.745 24.876 186.565 24.696 186.337 24.564C186.113 24.432 185.829 24.366 185.485 24.366C185.217 24.366 184.973 24.412 184.753 24.504C184.537 24.592 184.351 24.728 184.195 24.912C184.039 25.096 183.917 25.328 183.829 25.608C183.745 25.884 183.703 26.21 183.703 26.586L183.001 26.37C183.001 25.742 183.113 25.204 183.337 24.756C183.565 24.304 183.883 23.958 184.291 23.718C184.703 23.474 185.187 23.352 185.743 23.352C186.163 23.352 186.521 23.418 186.817 23.55C187.113 23.682 187.359 23.858 187.555 24.078C187.751 24.294 187.905 24.538 188.017 24.81C188.129 25.078 188.207 25.352 188.251 25.632C188.299 25.908 188.323 26.17 188.323 26.418V30H187.243ZM182.623 30V23.52H183.583V25.254H183.703V30H182.623ZM194.037 30L191.685 23.52H192.765L194.583 28.638L196.395 23.52H197.481L195.129 30H194.037ZM198.687 22.374V21.27H199.755V22.374H198.687ZM198.687 30V23.52H199.755V30H198.687ZM203.397 30.18C202.913 30.18 202.507 30.092 202.179 29.916C201.855 29.736 201.609 29.5 201.441 29.208C201.277 28.916 201.195 28.596 201.195 28.248C201.195 27.908 201.259 27.614 201.387 27.366C201.519 27.114 201.703 26.906 201.939 26.742C202.175 26.574 202.457 26.442 202.785 26.346C203.093 26.262 203.437 26.19 203.817 26.13C204.201 26.066 204.589 26.008 204.981 25.956C205.373 25.904 205.739 25.854 206.079 25.806L205.695 26.028C205.707 25.452 205.591 25.026 205.347 24.75C205.107 24.474 204.691 24.336 204.099 24.336C203.707 24.336 203.363 24.426 203.067 24.606C202.775 24.782 202.569 25.07 202.449 25.47L201.435 25.164C201.591 24.596 201.893 24.15 202.341 23.826C202.789 23.502 203.379 23.34 204.111 23.34C204.699 23.34 205.203 23.446 205.623 23.658C206.047 23.866 206.351 24.182 206.535 24.606C206.627 24.806 206.685 25.024 206.709 25.26C206.733 25.492 206.745 25.736 206.745 25.992V30H205.797V28.446L206.019 28.59C205.775 29.114 205.433 29.51 204.993 29.778C204.557 30.046 204.025 30.18 203.397 30.18ZM203.559 29.286C203.943 29.286 204.275 29.218 204.555 29.082C204.839 28.942 205.067 28.76 205.239 28.536C205.411 28.308 205.523 28.06 205.575 27.792C205.635 27.592 205.667 27.37 205.671 27.126C205.679 26.878 205.683 26.688 205.683 26.556L206.055 26.718C205.707 26.766 205.365 26.812 205.029 26.856C204.693 26.9 204.375 26.948 204.075 27C203.775 27.048 203.505 27.106 203.265 27.174C203.089 27.23 202.923 27.302 202.767 27.39C202.615 27.478 202.491 27.592 202.395 27.732C202.303 27.868 202.257 28.038 202.257 28.242C202.257 28.418 202.301 28.586 202.389 28.746C202.481 28.906 202.621 29.036 202.809 29.136C203.001 29.236 203.251 29.286 203.559 29.286ZM210.707 30V21.36H214.121C214.205 21.36 214.305 21.364 214.421 21.372C214.537 21.376 214.649 21.388 214.757 21.408C215.225 21.48 215.617 21.64 215.933 21.888C216.253 22.136 216.493 22.45 216.653 22.83C216.813 23.206 216.893 23.624 216.893 24.084C216.893 24.54 216.811 24.958 216.647 25.338C216.487 25.714 216.247 26.028 215.927 26.28C215.611 26.528 215.221 26.688 214.757 26.76C214.649 26.776 214.537 26.788 214.421 26.796C214.305 26.804 214.205 26.808 214.121 26.808H211.775V30H210.707ZM211.775 25.794H214.085C214.161 25.794 214.247 25.79 214.343 25.782C214.443 25.774 214.537 25.76 214.625 25.74C214.901 25.676 215.125 25.56 215.297 25.392C215.473 25.22 215.601 25.02 215.681 24.792C215.761 24.56 215.801 24.324 215.801 24.084C215.801 23.844 215.761 23.61 215.681 23.382C215.601 23.15 215.473 22.948 215.297 22.776C215.125 22.604 214.901 22.488 214.625 22.428C214.537 22.404 214.443 22.39 214.343 22.386C214.247 22.378 214.161 22.374 214.085 22.374H211.775V25.794ZM219.686 30.18C219.202 30.18 218.796 30.092 218.468 29.916C218.144 29.736 217.898 29.5 217.73 29.208C217.566 28.916 217.484 28.596 217.484 28.248C217.484 27.908 217.548 27.614 217.676 27.366C217.808 27.114 217.992 26.906 218.228 26.742C218.464 26.574 218.746 26.442 219.074 26.346C219.382 26.262 219.726 26.19 220.106 26.13C220.49 26.066 220.878 26.008 221.27 25.956C221.662 25.904 222.028 25.854 222.368 25.806L221.984 26.028C221.996 25.452 221.88 25.026 221.636 24.75C221.396 24.474 220.98 24.336 220.388 24.336C219.996 24.336 219.652 24.426 219.356 24.606C219.064 24.782 218.858 25.07 218.738 25.47L217.724 25.164C217.88 24.596 218.182 24.15 218.63 23.826C219.078 23.502 219.668 23.34 220.4 23.34C220.988 23.34 221.492 23.446 221.912 23.658C222.336 23.866 222.64 24.182 222.824 24.606C222.916 24.806 222.974 25.024 222.998 25.26C223.022 25.492 223.034 25.736 223.034 25.992V30H222.086V28.446L222.308 28.59C222.064 29.114 221.722 29.51 221.282 29.778C220.846 30.046 220.314 30.18 219.686 30.18ZM219.848 29.286C220.232 29.286 220.564 29.218 220.844 29.082C221.128 28.942 221.356 28.76 221.528 28.536C221.7 28.308 221.812 28.06 221.864 27.792C221.924 27.592 221.956 27.37 221.96 27.126C221.968 26.878 221.972 26.688 221.972 26.556L222.344 26.718C221.996 26.766 221.654 26.812 221.318 26.856C220.982 26.9 220.664 26.948 220.364 27C220.064 27.048 219.794 27.106 219.554 27.174C219.378 27.23 219.212 27.302 219.056 27.39C218.904 27.478 218.78 27.592 218.684 27.732C218.592 27.868 218.546 28.038 218.546 28.242C218.546 28.418 218.59 28.586 218.678 28.746C218.77 28.906 218.91 29.036 219.098 29.136C219.29 29.236 219.54 29.286 219.848 29.286ZM225.131 32.88L226.385 29.472L226.403 30.48L223.571 23.52H224.693L226.913 29.118H226.529L228.611 23.52H229.697L226.169 32.88H225.131ZM230.688 30V21.36H234.102C234.186 21.36 234.286 21.364 234.402 21.372C234.518 21.376 234.63 21.388 234.738 21.408C235.206 21.48 235.598 21.64 235.914 21.888C236.234 22.136 236.474 22.45 236.634 22.83C236.794 23.206 236.874 23.624 236.874 24.084C236.874 24.54 236.792 24.958 236.628 25.338C236.468 25.714 236.228 26.028 235.908 26.28C235.592 26.528 235.202 26.688 234.738 26.76C234.63 26.776 234.518 26.788 234.402 26.796C234.286 26.804 234.186 26.808 234.102 26.808H231.756V30H230.688ZM231.756 25.794H234.066C234.142 25.794 234.228 25.79 234.324 25.782C234.424 25.774 234.518 25.76 234.606 25.74C234.882 25.676 235.106 25.56 235.278 25.392C235.454 25.22 235.582 25.02 235.662 24.792C235.742 24.56 235.782 24.324 235.782 24.084C235.782 23.844 235.742 23.61 235.662 23.382C235.582 23.15 235.454 22.948 235.278 22.776C235.106 22.604 234.882 22.488 234.606 22.428C234.518 22.404 234.424 22.39 234.324 22.386C234.228 22.378 234.142 22.374 234.066 22.374H231.756V25.794ZM239.666 30.18C239.182 30.18 238.776 30.092 238.448 29.916C238.124 29.736 237.878 29.5 237.71 29.208C237.546 28.916 237.464 28.596 237.464 28.248C237.464 27.908 237.528 27.614 237.656 27.366C237.788 27.114 237.972 26.906 238.208 26.742C238.444 26.574 238.726 26.442 239.054 26.346C239.362 26.262 239.706 26.19 240.086 26.13C240.47 26.066 240.858 26.008 241.25 25.956C241.642 25.904 242.008 25.854 242.348 25.806L241.964 26.028C241.976 25.452 241.86 25.026 241.616 24.75C241.376 24.474 240.96 24.336 240.368 24.336C239.976 24.336 239.632 24.426 239.336 24.606C239.044 24.782 238.838 25.07 238.718 25.47L237.704 25.164C237.86 24.596 238.162 24.15 238.61 23.826C239.058 23.502 239.648 23.34 240.38 23.34C240.968 23.34 241.472 23.446 241.892 23.658C242.316 23.866 242.62 24.182 242.804 24.606C242.896 24.806 242.954 25.024 242.978 25.26C243.002 25.492 243.014 25.736 243.014 25.992V30H242.066V28.446L242.288 28.59C242.044 29.114 241.702 29.51 241.262 29.778C240.826 30.046 240.294 30.18 239.666 30.18ZM239.828 29.286C240.212 29.286 240.544 29.218 240.824 29.082C241.108 28.942 241.336 28.76 241.508 28.536C241.68 28.308 241.792 28.06 241.844 27.792C241.904 27.592 241.936 27.37 241.94 27.126C241.948 26.878 241.952 26.688 241.952 26.556L242.324 26.718C241.976 26.766 241.634 26.812 241.298 26.856C240.962 26.9 240.644 26.948 240.344 27C240.044 27.048 239.774 27.106 239.534 27.174C239.358 27.23 239.192 27.302 239.036 27.39C238.884 27.478 238.76 27.592 238.664 27.732C238.572 27.868 238.526 28.038 238.526 28.242C238.526 28.418 238.57 28.586 238.658 28.746C238.75 28.906 238.89 29.036 239.078 29.136C239.27 29.236 239.52 29.286 239.828 29.286ZM244.694 30V21.18H245.762V30H244.694ZM252.941 30.18C252.333 30.18 251.821 30.03 251.405 29.73C250.989 29.426 250.673 29.016 250.457 28.5C250.245 27.98 250.139 27.398 250.139 26.754C250.139 26.102 250.245 25.518 250.457 25.002C250.673 24.486 250.989 24.08 251.405 23.784C251.825 23.488 252.339 23.34 252.947 23.34C253.547 23.34 254.063 23.49 254.495 23.79C254.931 24.086 255.265 24.492 255.497 25.008C255.729 25.524 255.845 26.106 255.845 26.754C255.845 27.402 255.729 27.984 255.497 28.5C255.265 29.016 254.931 29.426 254.495 29.73C254.063 30.03 253.545 30.18 252.941 30.18ZM249.959 30V21.36H251.033V25.23H250.913V30H249.959ZM252.809 29.202C253.237 29.202 253.591 29.094 253.871 28.878C254.151 28.662 254.361 28.37 254.501 28.002C254.641 27.63 254.711 27.214 254.711 26.754C254.711 26.298 254.641 25.886 254.501 25.518C254.365 25.15 254.153 24.858 253.865 24.642C253.581 24.426 253.219 24.318 252.779 24.318C252.359 24.318 252.011 24.422 251.735 24.63C251.459 24.834 251.253 25.12 251.117 25.488C250.981 25.852 250.913 26.274 250.913 26.754C250.913 27.226 250.979 27.648 251.111 28.02C251.247 28.388 251.455 28.678 251.735 28.89C252.015 29.098 252.373 29.202 252.809 29.202ZM257.709 32.88L258.963 29.472L258.981 30.48L256.149 23.52H257.271L259.491 29.118H259.107L261.189 23.52H262.275L258.747 32.88H257.709ZM268.398 30.18C267.742 30.18 267.184 30.034 266.724 29.742C266.268 29.446 265.92 29.04 265.68 28.524C265.44 28.008 265.316 27.42 265.308 26.76C265.316 26.084 265.442 25.49 265.686 24.978C265.934 24.462 266.288 24.06 266.748 23.772C267.208 23.484 267.762 23.34 268.41 23.34C269.094 23.34 269.682 23.508 270.174 23.844C270.67 24.18 271.002 24.64 271.17 25.224L270.114 25.542C269.978 25.166 269.756 24.874 269.448 24.666C269.144 24.458 268.794 24.354 268.398 24.354C267.954 24.354 267.588 24.458 267.3 24.666C267.012 24.87 266.798 25.154 266.658 25.518C266.518 25.878 266.446 26.292 266.442 26.76C266.45 27.48 266.616 28.062 266.94 28.506C267.268 28.946 267.754 29.166 268.398 29.166C268.822 29.166 269.174 29.07 269.454 28.878C269.734 28.682 269.946 28.4 270.09 28.032L271.17 28.314C270.946 28.918 270.596 29.38 270.12 29.7C269.644 30.02 269.07 30.18 268.398 30.18ZM272.339 30V21.18H273.407V30H272.339ZM275.327 22.374V21.27H276.395V22.374H275.327ZM275.327 30V23.52H276.395V30H275.327ZM280.925 30.18C280.269 30.18 279.711 30.034 279.251 29.742C278.795 29.446 278.447 29.04 278.207 28.524C277.967 28.008 277.843 27.42 277.835 26.76C277.843 26.084 277.969 25.49 278.213 24.978C278.461 24.462 278.815 24.06 279.275 23.772C279.735 23.484 280.289 23.34 280.937 23.34C281.621 23.34 282.209 23.508 282.701 23.844C283.197 24.18 283.529 24.64 283.697 25.224L282.641 25.542C282.505 25.166 282.283 24.874 281.975 24.666C281.671 24.458 281.321 24.354 280.925 24.354C280.481 24.354 280.115 24.458 279.827 24.666C279.539 24.87 279.325 25.154 279.185 25.518C279.045 25.878 278.973 26.292 278.969 26.76C278.977 27.48 279.143 28.062 279.467 28.506C279.795 28.946 280.281 29.166 280.925 29.166C281.349 29.166 281.701 29.07 281.981 28.878C282.261 28.682 282.473 28.4 282.617 28.032L283.697 28.314C283.473 28.918 283.123 29.38 282.647 29.7C282.171 30.02 281.597 30.18 280.925 30.18ZM284.916 30L284.922 21.36H286.002V26.64L288.72 23.52H290.106L287.244 26.76L290.442 30H288.948L286.002 26.88V30H284.916ZM291.159 22.374V21.27H292.227V22.374H291.159ZM291.159 30V23.52H292.227V30H291.159ZM298.642 30V26.754C298.642 26.446 298.614 26.15 298.558 25.866C298.506 25.582 298.412 25.328 298.276 25.104C298.144 24.876 297.964 24.696 297.736 24.564C297.512 24.432 297.228 24.366 296.884 24.366C296.616 24.366 296.372 24.412 296.152 24.504C295.936 24.592 295.75 24.728 295.594 24.912C295.438 25.096 295.316 25.328 295.228 25.608C295.144 25.884 295.102 26.21 295.102 26.586L294.4 26.37C294.4 25.742 294.512 25.204 294.736 24.756C294.964 24.304 295.282 23.958 295.69 23.718C296.102 23.474 296.586 23.352 297.142 23.352C297.562 23.352 297.92 23.418 298.216 23.55C298.512 23.682 298.758 23.858 298.954 24.078C299.15 24.294 299.304 24.538 299.416 24.81C299.528 25.078 299.606 25.352 299.65 25.632C299.698 25.908 299.722 26.17 299.722 26.418V30H298.642ZM294.022 30V23.52H294.982V25.254H295.102V30H294.022ZM303.903 33.06C303.563 33.06 303.231 33.008 302.907 32.904C302.583 32.8 302.285 32.642 302.013 32.43C301.745 32.222 301.521 31.958 301.341 31.638L302.319 31.122C302.479 31.438 302.705 31.668 302.997 31.812C303.293 31.956 303.597 32.028 303.909 32.028C304.321 32.028 304.663 31.952 304.935 31.8C305.207 31.652 305.407 31.43 305.535 31.134C305.667 30.838 305.731 30.47 305.727 30.03V28.26H305.853V23.52H306.801V30.042C306.801 30.218 306.795 30.388 306.783 30.552C306.775 30.716 306.755 30.878 306.723 31.038C306.639 31.498 306.473 31.876 306.225 32.172C305.977 32.472 305.657 32.694 305.265 32.838C304.873 32.986 304.419 33.06 303.903 33.06ZM303.825 30.18C303.221 30.18 302.703 30.03 302.271 29.73C301.839 29.426 301.505 29.016 301.269 28.5C301.037 27.984 300.921 27.402 300.921 26.754C300.921 26.106 301.037 25.524 301.269 25.008C301.505 24.492 301.839 24.086 302.271 23.79C302.703 23.49 303.219 23.34 303.819 23.34C304.431 23.34 304.945 23.488 305.361 23.784C305.777 24.08 306.091 24.486 306.303 25.002C306.519 25.518 306.627 26.102 306.627 26.754C306.627 27.398 306.519 27.98 306.303 28.5C306.091 29.016 305.777 29.426 305.361 29.73C304.945 30.03 304.433 30.18 303.825 30.18ZM303.957 29.202C304.393 29.202 304.751 29.098 305.031 28.89C305.311 28.678 305.517 28.388 305.649 28.02C305.785 27.648 305.853 27.226 305.853 26.754C305.853 26.274 305.785 25.852 305.649 25.488C305.517 25.12 305.313 24.834 305.037 24.63C304.761 24.422 304.411 24.318 303.987 24.318C303.547 24.318 303.183 24.426 302.895 24.642C302.611 24.858 302.399 25.15 302.259 25.518C302.123 25.886 302.055 26.298 302.055 26.754C302.055 27.214 302.125 27.63 302.265 28.002C302.405 28.37 302.615 28.662 302.895 28.878C303.179 29.094 303.533 29.202 303.957 29.202ZM120.297 46.18C119.653 46.18 119.097 46.034 118.629 45.742C118.165 45.45 117.807 45.046 117.555 44.53C117.303 44.014 117.177 43.422 117.177 42.754C117.177 42.074 117.305 41.478 117.561 40.966C117.817 40.454 118.179 40.056 118.647 39.772C119.115 39.484 119.665 39.34 120.297 39.34C120.945 39.34 121.503 39.486 121.971 39.778C122.439 40.066 122.797 40.468 123.045 40.984C123.297 41.496 123.423 42.086 123.423 42.754C123.423 43.43 123.297 44.026 123.045 44.542C122.793 45.054 122.433 45.456 121.965 45.748C121.497 46.036 120.941 46.18 120.297 46.18ZM120.297 45.166C120.969 45.166 121.469 44.942 121.797 44.494C122.125 44.046 122.289 43.466 122.289 42.754C122.289 42.022 122.123 41.44 121.791 41.008C121.459 40.572 120.961 40.354 120.297 40.354C119.845 40.354 119.473 40.456 119.181 40.66C118.889 40.864 118.671 41.146 118.527 41.506C118.383 41.866 118.311 42.282 118.311 42.754C118.311 43.482 118.479 44.066 118.815 44.506C119.151 44.946 119.645 45.166 120.297 45.166ZM129.358 46V42.754C129.358 42.446 129.33 42.15 129.274 41.866C129.222 41.582 129.128 41.328 128.992 41.104C128.86 40.876 128.68 40.696 128.452 40.564C128.228 40.432 127.944 40.366 127.6 40.366C127.332 40.366 127.088 40.412 126.868 40.504C126.652 40.592 126.466 40.728 126.31 40.912C126.154 41.096 126.032 41.328 125.944 41.608C125.86 41.884 125.818 42.21 125.818 42.586L125.116 42.37C125.116 41.742 125.228 41.204 125.452 40.756C125.68 40.304 125.998 39.958 126.406 39.718C126.818 39.474 127.302 39.352 127.858 39.352C128.278 39.352 128.636 39.418 128.932 39.55C129.228 39.682 129.474 39.858 129.67 40.078C129.866 40.294 130.02 40.538 130.132 40.81C130.244 41.078 130.322 41.352 130.366 41.632C130.414 41.908 130.438 42.17 130.438 42.418V46H129.358ZM124.738 46V39.52H125.698V41.254H125.818V46H124.738ZM138.019 46C137.635 46.076 137.255 46.106 136.879 46.09C136.507 46.078 136.175 46.004 135.883 45.868C135.591 45.728 135.369 45.512 135.217 45.22C135.089 44.964 135.019 44.706 135.007 44.446C134.999 44.182 134.995 43.884 134.995 43.552V37.72H136.063V43.504C136.063 43.768 136.065 43.994 136.069 44.182C136.077 44.37 136.119 44.532 136.195 44.668C136.339 44.924 136.567 45.074 136.879 45.118C137.195 45.162 137.575 45.15 138.019 45.082V46ZM133.681 40.402V39.52H138.019V40.402H133.681ZM143.948 46V42.754C143.948 42.446 143.92 42.15 143.864 41.866C143.812 41.582 143.718 41.328 143.582 41.104C143.45 40.876 143.27 40.696 143.042 40.564C142.818 40.432 142.534 40.366 142.19 40.366C141.922 40.366 141.678 40.412 141.458 40.504C141.242 40.592 141.056 40.728 140.9 40.912C140.744 41.096 140.622 41.328 140.534 41.608C140.45 41.884 140.408 42.21 140.408 42.586L139.706 42.37C139.706 41.742 139.818 41.204 140.042 40.756C140.27 40.304 140.588 39.958 140.996 39.718C141.408 39.474 141.892 39.352 142.448 39.352C142.868 39.352 143.226 39.418 143.522 39.55C143.818 39.682 144.064 39.858 144.26 40.078C144.456 40.294 144.61 40.538 144.722 40.81C144.834 41.078 144.912 41.352 144.956 41.632C145.004 41.908 145.028 42.17 145.028 42.418V46H143.948ZM139.328 46V37.36H140.288V42.13H140.408V46H139.328ZM149.396 46.18C148.76 46.18 148.204 46.04 147.728 45.76C147.256 45.476 146.888 45.082 146.624 44.578C146.36 44.07 146.228 43.478 146.228 42.802C146.228 42.094 146.358 41.482 146.618 40.966C146.878 40.446 147.24 40.046 147.704 39.766C148.172 39.482 148.72 39.34 149.348 39.34C150 39.34 150.554 39.49 151.01 39.79C151.47 40.09 151.814 40.518 152.042 41.074C152.274 41.63 152.374 42.292 152.342 43.06H151.262V42.676C151.25 41.88 151.088 41.286 150.776 40.894C150.464 40.498 150 40.3 149.384 40.3C148.724 40.3 148.222 40.512 147.878 40.936C147.534 41.36 147.362 41.968 147.362 42.76C147.362 43.524 147.534 44.116 147.878 44.536C148.222 44.956 148.712 45.166 149.348 45.166C149.776 45.166 150.148 45.068 150.464 44.872C150.78 44.676 151.028 44.394 151.208 44.026L152.234 44.38C151.982 44.952 151.602 45.396 151.094 45.712C150.59 46.024 150.024 46.18 149.396 46.18ZM147.002 43.06V42.202H151.79V43.06H147.002ZM159.056 46.18C158.448 46.18 157.936 46.03 157.52 45.73C157.104 45.426 156.788 45.016 156.572 44.5C156.36 43.98 156.254 43.398 156.254 42.754C156.254 42.102 156.36 41.518 156.572 41.002C156.788 40.486 157.104 40.08 157.52 39.784C157.94 39.488 158.454 39.34 159.062 39.34C159.662 39.34 160.178 39.49 160.61 39.79C161.046 40.086 161.38 40.492 161.612 41.008C161.844 41.524 161.96 42.106 161.96 42.754C161.96 43.402 161.844 43.984 161.612 44.5C161.38 45.016 161.046 45.426 160.61 45.73C160.178 46.03 159.66 46.18 159.056 46.18ZM156.074 46V37.36H157.148V41.23H157.028V46H156.074ZM158.924 45.202C159.352 45.202 159.706 45.094 159.986 44.878C160.266 44.662 160.476 44.37 160.616 44.002C160.756 43.63 160.826 43.214 160.826 42.754C160.826 42.298 160.756 41.886 160.616 41.518C160.48 41.15 160.268 40.858 159.98 40.642C159.696 40.426 159.334 40.318 158.894 40.318C158.474 40.318 158.126 40.422 157.85 40.63C157.574 40.834 157.368 41.12 157.232 41.488C157.096 41.852 157.028 42.274 157.028 42.754C157.028 43.226 157.094 43.648 157.226 44.02C157.362 44.388 157.57 44.678 157.85 44.89C158.13 45.098 158.488 45.202 158.924 45.202ZM165.736 46.168C165.32 46.168 164.962 46.102 164.662 45.97C164.366 45.838 164.12 45.662 163.924 45.442C163.728 45.222 163.574 44.978 163.462 44.71C163.35 44.442 163.27 44.168 163.222 43.888C163.178 43.608 163.156 43.346 163.156 43.102V39.52H164.236V42.766C164.236 43.07 164.264 43.364 164.32 43.648C164.376 43.932 164.47 44.188 164.602 44.416C164.738 44.644 164.918 44.824 165.142 44.956C165.37 45.088 165.654 45.154 165.994 45.154C166.262 45.154 166.506 45.108 166.726 45.016C166.946 44.924 167.134 44.788 167.29 44.608C167.446 44.424 167.566 44.192 167.65 43.912C167.734 43.632 167.776 43.306 167.776 42.934L168.478 43.15C168.478 43.774 168.364 44.312 168.136 44.764C167.912 45.216 167.594 45.564 167.182 45.808C166.774 46.048 166.292 46.168 165.736 46.168ZM167.896 46V44.266H167.776V39.52H168.85V46H167.896ZM174.147 46C173.763 46.076 173.383 46.106 173.007 46.09C172.635 46.078 172.303 46.004 172.011 45.868C171.719 45.728 171.497 45.512 171.345 45.22C171.217 44.964 171.147 44.706 171.135 44.446C171.127 44.182 171.123 43.884 171.123 43.552V37.72H172.191V43.504C172.191 43.768 172.193 43.994 172.197 44.182C172.205 44.37 172.247 44.532 172.323 44.668C172.467 44.924 172.695 45.074 173.007 45.118C173.323 45.162 173.703 45.15 174.147 45.082V46ZM169.809 40.402V39.52H174.147V40.402H169.809ZM178.365 46C177.981 46.076 177.601 46.106 177.225 46.09C176.853 46.078 176.521 46.004 176.229 45.868C175.937 45.728 175.715 45.512 175.563 45.22C175.435 44.964 175.365 44.706 175.353 44.446C175.345 44.182 175.341 43.884 175.341 43.552V37.72H176.409V43.504C176.409 43.768 176.411 43.994 176.415 44.182C176.423 44.37 176.465 44.532 176.541 44.668C176.685 44.924 176.913 45.074 177.225 45.118C177.541 45.162 177.921 45.15 178.365 45.082V46ZM174.027 40.402V39.52H178.365V40.402H174.027ZM182.442 46.18C181.798 46.18 181.242 46.034 180.774 45.742C180.31 45.45 179.952 45.046 179.7 44.53C179.448 44.014 179.322 43.422 179.322 42.754C179.322 42.074 179.45 41.478 179.706 40.966C179.962 40.454 180.324 40.056 180.792 39.772C181.26 39.484 181.81 39.34 182.442 39.34C183.09 39.34 183.648 39.486 184.116 39.778C184.584 40.066 184.942 40.468 185.19 40.984C185.442 41.496 185.568 42.086 185.568 42.754C185.568 43.43 185.442 44.026 185.19 44.542C184.938 45.054 184.578 45.456 184.11 45.748C183.642 46.036 183.086 46.18 182.442 46.18ZM182.442 45.166C183.114 45.166 183.614 44.942 183.942 44.494C184.27 44.046 184.434 43.466 184.434 42.754C184.434 42.022 184.268 41.44 183.936 41.008C183.604 40.572 183.106 40.354 182.442 40.354C181.99 40.354 181.618 40.456 181.326 40.66C181.034 40.864 180.816 41.146 180.672 41.506C180.528 41.866 180.456 42.282 180.456 42.754C180.456 43.482 180.624 44.066 180.96 44.506C181.296 44.946 181.79 45.166 182.442 45.166ZM191.503 46V42.754C191.503 42.446 191.475 42.15 191.419 41.866C191.367 41.582 191.273 41.328 191.137 41.104C191.005 40.876 190.825 40.696 190.597 40.564C190.373 40.432 190.089 40.366 189.745 40.366C189.477 40.366 189.233 40.412 189.013 40.504C188.797 40.592 188.611 40.728 188.455 40.912C188.299 41.096 188.177 41.328 188.089 41.608C188.005 41.884 187.963 42.21 187.963 42.586L187.261 42.37C187.261 41.742 187.373 41.204 187.597 40.756C187.825 40.304 188.143 39.958 188.551 39.718C188.963 39.474 189.447 39.352 190.003 39.352C190.423 39.352 190.781 39.418 191.077 39.55C191.373 39.682 191.619 39.858 191.815 40.078C192.011 40.294 192.165 40.538 192.277 40.81C192.389 41.078 192.467 41.352 192.511 41.632C192.559 41.908 192.583 42.17 192.583 42.418V46H191.503ZM186.883 46V39.52H187.843V41.254H187.963V46H186.883ZM199.521 46.18C198.913 46.18 198.401 46.03 197.985 45.73C197.569 45.426 197.253 45.016 197.037 44.5C196.825 43.98 196.719 43.398 196.719 42.754C196.719 42.102 196.825 41.518 197.037 41.002C197.253 40.486 197.569 40.08 197.985 39.784C198.405 39.488 198.919 39.34 199.527 39.34C200.127 39.34 200.643 39.49 201.075 39.79C201.511 40.086 201.845 40.492 202.077 41.008C202.309 41.524 202.425 42.106 202.425 42.754C202.425 43.402 202.309 43.984 202.077 44.5C201.845 45.016 201.511 45.426 201.075 45.73C200.643 46.03 200.125 46.18 199.521 46.18ZM196.539 46V37.36H197.613V41.23H197.493V46H196.539ZM199.389 45.202C199.817 45.202 200.171 45.094 200.451 44.878C200.731 44.662 200.941 44.37 201.081 44.002C201.221 43.63 201.291 43.214 201.291 42.754C201.291 42.298 201.221 41.886 201.081 41.518C200.945 41.15 200.733 40.858 200.445 40.642C200.161 40.426 199.799 40.318 199.359 40.318C198.939 40.318 198.591 40.422 198.315 40.63C198.039 40.834 197.833 41.12 197.697 41.488C197.561 41.852 197.493 42.274 197.493 42.754C197.493 43.226 197.559 43.648 197.691 44.02C197.827 44.388 198.035 44.678 198.315 44.89C198.595 45.098 198.953 45.202 199.389 45.202ZM206.548 46.18C205.912 46.18 205.356 46.04 204.88 45.76C204.408 45.476 204.04 45.082 203.776 44.578C203.512 44.07 203.38 43.478 203.38 42.802C203.38 42.094 203.51 41.482 203.77 40.966C204.03 40.446 204.392 40.046 204.856 39.766C205.324 39.482 205.872 39.34 206.5 39.34C207.152 39.34 207.706 39.49 208.162 39.79C208.622 40.09 208.966 40.518 209.194 41.074C209.426 41.63 209.526 42.292 209.494 43.06H208.414V42.676C208.402 41.88 208.24 41.286 207.928 40.894C207.616 40.498 207.152 40.3 206.536 40.3C205.876 40.3 205.374 40.512 205.03 40.936C204.686 41.36 204.514 41.968 204.514 42.76C204.514 43.524 204.686 44.116 205.03 44.536C205.374 44.956 205.864 45.166 206.5 45.166C206.928 45.166 207.3 45.068 207.616 44.872C207.932 44.676 208.18 44.394 208.36 44.026L209.386 44.38C209.134 44.952 208.754 45.396 208.246 45.712C207.742 46.024 207.176 46.18 206.548 46.18ZM204.154 43.06V42.202H208.942V43.06H204.154ZM210.95 46V37.18H212.018V46H210.95ZM216.579 46.18C215.935 46.18 215.379 46.034 214.911 45.742C214.447 45.45 214.089 45.046 213.837 44.53C213.585 44.014 213.459 43.422 213.459 42.754C213.459 42.074 213.587 41.478 213.843 40.966C214.099 40.454 214.461 40.056 214.929 39.772C215.397 39.484 215.947 39.34 216.579 39.34C217.227 39.34 217.785 39.486 218.253 39.778C218.721 40.066 219.079 40.468 219.327 40.984C219.579 41.496 219.705 42.086 219.705 42.754C219.705 43.43 219.579 44.026 219.327 44.542C219.075 45.054 218.715 45.456 218.247 45.748C217.779 46.036 217.223 46.18 216.579 46.18ZM216.579 45.166C217.251 45.166 217.751 44.942 218.079 44.494C218.407 44.046 218.571 43.466 218.571 42.754C218.571 42.022 218.405 41.44 218.073 41.008C217.741 40.572 217.243 40.354 216.579 40.354C216.127 40.354 215.755 40.456 215.463 40.66C215.171 40.864 214.953 41.146 214.809 41.506C214.665 41.866 214.593 42.282 214.593 42.754C214.593 43.482 214.761 44.066 215.097 44.506C215.433 44.946 215.927 45.166 216.579 45.166ZM222.171 46L220.191 39.514L221.253 39.52L222.699 44.26L224.157 39.52H225.099L226.551 44.26L228.003 39.52H229.059L227.079 46H226.191L224.625 41.074L223.059 46H222.171Z" fill="black"/>
<path d="M98.77 62V54.08H101.828C101.905 54.08 101.991 54.0837 102.087 54.091C102.186 54.0947 102.285 54.1057 102.384 54.124C102.798 54.1863 103.148 54.3312 103.434 54.5585C103.724 54.7822 103.942 55.0645 104.088 55.4055C104.239 55.7465 104.314 56.1242 104.314 56.5385C104.314 56.9492 104.239 57.325 104.088 57.666C103.938 58.007 103.718 58.2912 103.429 58.5185C103.143 58.7422 102.794 58.8852 102.384 58.9475C102.285 58.9622 102.186 58.9732 102.087 58.9805C101.991 58.9878 101.905 58.9915 101.828 58.9915H99.5785V62H98.77ZM99.5785 58.2215H101.806C101.872 58.2215 101.949 58.2178 102.037 58.2105C102.125 58.2032 102.211 58.1903 102.296 58.172C102.567 58.1133 102.789 58.0015 102.961 57.8365C103.137 57.6715 103.267 57.4753 103.352 57.248C103.44 57.0207 103.484 56.7842 103.484 56.5385C103.484 56.2928 103.44 56.0563 103.352 55.829C103.267 55.598 103.137 55.4 102.961 55.235C102.789 55.07 102.567 54.9582 102.296 54.8995C102.211 54.8812 102.125 54.8702 102.037 54.8665C101.949 54.8592 101.872 54.8555 101.806 54.8555H99.5785V58.2215ZM106.85 62.165C106.403 62.165 106.027 62.0843 105.723 61.923C105.422 61.7617 105.197 61.5472 105.046 61.2795C104.896 61.0118 104.821 60.7203 104.821 60.405C104.821 60.0823 104.885 59.8073 105.013 59.58C105.145 59.349 105.323 59.1602 105.547 59.0135C105.774 58.8668 106.036 58.755 106.333 58.678C106.634 58.6047 106.966 58.5405 107.329 58.4855C107.696 58.4268 108.053 58.3773 108.401 58.337C108.753 58.293 109.061 58.2508 109.325 58.2105L109.039 58.3865C109.05 57.7998 108.937 57.3653 108.698 57.083C108.46 56.8007 108.046 56.6595 107.455 56.6595C107.048 56.6595 106.704 56.7512 106.421 56.9345C106.143 57.1178 105.947 57.4075 105.833 57.8035L105.046 57.5725C105.182 57.0408 105.455 56.6283 105.866 56.335C106.277 56.0417 106.81 55.895 107.466 55.895C108.009 55.895 108.469 55.9977 108.847 56.203C109.228 56.4047 109.498 56.698 109.655 57.083C109.729 57.2553 109.776 57.4478 109.798 57.6605C109.82 57.8732 109.831 58.0895 109.831 58.3095V62H109.111V60.5095L109.32 60.5975C109.118 61.1072 108.805 61.4958 108.379 61.7635C107.954 62.0312 107.444 62.165 106.85 62.165ZM106.944 61.4665C107.322 61.4665 107.652 61.3987 107.934 61.263C108.216 61.1273 108.444 60.9422 108.616 60.7075C108.788 60.4692 108.9 60.2015 108.951 59.9045C108.995 59.7138 109.019 59.5048 109.023 59.2775C109.027 59.0465 109.028 58.8742 109.028 58.7605L109.336 58.92C109.061 58.9567 108.763 58.9933 108.44 59.03C108.121 59.0667 107.806 59.1088 107.494 59.1565C107.186 59.2042 106.907 59.261 106.658 59.327C106.489 59.3747 106.326 59.4425 106.168 59.5305C106.011 59.6148 105.881 59.7285 105.778 59.8715C105.679 60.0145 105.629 60.1923 105.629 60.405C105.629 60.5773 105.672 60.7442 105.756 60.9055C105.844 61.0668 105.983 61.2007 106.174 61.307C106.368 61.4133 106.625 61.4665 106.944 61.4665ZM111.777 64.64L112.927 61.5215L112.943 62.4455L110.342 56.06H111.2L113.334 61.4005H112.982L114.951 56.06H115.776L112.586 64.64H111.777ZM116.731 62V54.08H119.789C119.866 54.08 119.952 54.0837 120.047 54.091C120.146 54.0947 120.245 54.1057 120.344 54.124C120.759 54.1863 121.109 54.3312 121.395 54.5585C121.685 54.7822 121.903 55.0645 122.049 55.4055C122.2 55.7465 122.275 56.1242 122.275 56.5385C122.275 56.9492 122.2 57.325 122.049 57.666C121.899 58.007 121.679 58.2912 121.389 58.5185C121.103 58.7422 120.755 58.8852 120.344 58.9475C120.245 58.9622 120.146 58.9732 120.047 58.9805C119.952 58.9878 119.866 58.9915 119.789 58.9915H117.539V62H116.731ZM117.539 58.2215H119.767C119.833 58.2215 119.91 58.2178 119.998 58.2105C120.086 58.2032 120.172 58.1903 120.256 58.172C120.528 58.1133 120.75 58.0015 120.922 57.8365C121.098 57.6715 121.228 57.4753 121.312 57.248C121.4 57.0207 121.444 56.7842 121.444 56.5385C121.444 56.2928 121.4 56.0563 121.312 55.829C121.228 55.598 121.098 55.4 120.922 55.235C120.75 55.07 120.528 54.9582 120.256 54.8995C120.172 54.8812 120.086 54.8702 119.998 54.8665C119.91 54.8592 119.833 54.8555 119.767 54.8555H117.539V58.2215ZM124.811 62.165C124.364 62.165 123.988 62.0843 123.684 61.923C123.383 61.7617 123.158 61.5472 123.007 61.2795C122.857 61.0118 122.782 60.7203 122.782 60.405C122.782 60.0823 122.846 59.8073 122.974 59.58C123.106 59.349 123.284 59.1602 123.508 59.0135C123.735 58.8668 123.997 58.755 124.294 58.678C124.595 58.6047 124.927 58.5405 125.29 58.4855C125.656 58.4268 126.014 58.3773 126.362 58.337C126.714 58.293 127.022 58.2508 127.286 58.2105L127 58.3865C127.011 57.7998 126.898 57.3653 126.659 57.083C126.421 56.8007 126.007 56.6595 125.416 56.6595C125.009 56.6595 124.665 56.7512 124.382 56.9345C124.104 57.1178 123.907 57.4075 123.794 57.8035L123.007 57.5725C123.143 57.0408 123.416 56.6283 123.827 56.335C124.237 56.0417 124.771 55.895 125.427 55.895C125.97 55.895 126.43 55.9977 126.808 56.203C127.189 56.4047 127.459 56.698 127.616 57.083C127.69 57.2553 127.737 57.4478 127.759 57.6605C127.781 57.8732 127.792 58.0895 127.792 58.3095V62H127.072V60.5095L127.281 60.5975C127.079 61.1072 126.766 61.4958 126.34 61.7635C125.915 62.0312 125.405 62.165 124.811 62.165ZM124.905 61.4665C125.282 61.4665 125.612 61.3987 125.895 61.263C126.177 61.1273 126.404 60.9422 126.577 60.7075C126.749 60.4692 126.861 60.2015 126.912 59.9045C126.956 59.7138 126.98 59.5048 126.984 59.2775C126.987 59.0465 126.989 58.8742 126.989 58.7605L127.297 58.92C127.022 58.9567 126.723 58.9933 126.401 59.03C126.082 59.0667 125.766 59.1088 125.455 59.1565C125.147 59.2042 124.868 59.261 124.619 59.327C124.45 59.3747 124.287 59.4425 124.129 59.5305C123.972 59.6148 123.841 59.7285 123.739 59.8715C123.64 60.0145 123.59 60.1923 123.59 60.405C123.59 60.5773 123.632 60.7442 123.717 60.9055C123.805 61.0668 123.944 61.2007 124.135 61.307C124.329 61.4133 124.586 61.4665 124.905 61.4665ZM129.334 62V53.915H130.143V62H129.334ZM135.259 62L133.444 56.0545L134.252 56.06L135.66 60.6745L137.074 56.06H137.811L139.224 60.6745L140.643 56.06H141.446L139.631 62H138.927L137.442 57.27L135.963 62H135.259ZM142.547 54.9325V54.025H143.355V54.9325H142.547ZM142.547 62V56.06H143.355V62H142.547ZM145.114 62V53.915H145.923V62H145.114ZM147.682 62V53.915H148.49V62H147.682ZM154.822 62.165C154.231 62.165 153.727 62.0312 153.309 61.7635C152.891 61.4958 152.57 61.1255 152.347 60.6525C152.123 60.1795 152.011 59.6368 152.011 59.0245C152.011 58.4012 152.125 57.8548 152.352 57.3855C152.58 56.9162 152.902 56.5513 153.32 56.291C153.742 56.027 154.242 55.895 154.822 55.895C155.416 55.895 155.922 56.0288 156.34 56.2965C156.761 56.5605 157.082 56.929 157.302 57.402C157.526 57.8713 157.638 58.4122 157.638 59.0245C157.638 59.6478 157.526 60.196 157.302 60.669C157.079 61.1383 156.756 61.505 156.334 61.769C155.913 62.033 155.408 62.165 154.822 62.165ZM154.822 61.3895C155.482 61.3895 155.973 61.1713 156.296 60.735C156.618 60.295 156.78 59.7248 156.78 59.0245C156.78 58.3058 156.617 57.7338 156.29 57.3085C155.968 56.8832 155.478 56.6705 154.822 56.6705C154.378 56.6705 154.011 56.7713 153.722 56.973C153.436 57.171 153.221 57.4478 153.078 57.8035C152.939 58.1555 152.869 58.5625 152.869 59.0245C152.869 59.7395 153.034 60.3133 153.364 60.746C153.694 61.175 154.18 61.3895 154.822 61.3895ZM161.519 62.165C160.972 62.165 160.51 62.0275 160.133 61.7525C159.755 61.4738 159.469 61.098 159.275 60.625C159.08 60.1483 158.983 59.6148 158.983 59.0245C158.983 58.4232 159.08 57.8878 159.275 57.4185C159.473 56.9455 159.762 56.5733 160.144 56.302C160.525 56.0307 160.994 55.895 161.552 55.895C162.094 55.895 162.56 56.0325 162.949 56.3075C163.337 56.5825 163.634 56.9565 163.84 57.4295C164.049 57.9025 164.153 58.4342 164.153 59.0245C164.153 59.6185 164.049 60.152 163.84 60.625C163.631 61.098 163.33 61.4738 162.938 61.7525C162.545 62.0275 162.072 62.165 161.519 62.165ZM158.846 64.64V56.06H159.572V60.5315H159.66V64.64H158.846ZM161.436 61.4115C161.85 61.4115 162.195 61.307 162.47 61.098C162.745 60.889 162.95 60.6048 163.086 60.2455C163.225 59.8825 163.295 59.4755 163.295 59.0245C163.295 58.5772 163.227 58.1738 163.092 57.8145C162.956 57.4552 162.749 57.171 162.47 56.962C162.195 56.753 161.845 56.6485 161.42 56.6485C161.005 56.6485 160.661 56.7493 160.386 56.951C160.114 57.1527 159.911 57.4332 159.775 57.7925C159.639 58.1482 159.572 58.5588 159.572 59.0245C159.572 59.4828 159.639 59.8935 159.775 60.2565C159.911 60.6158 160.116 60.8982 160.391 61.1035C160.666 61.3088 161.014 61.4115 161.436 61.4115ZM167.874 62.165C167.295 62.165 166.793 62.0367 166.367 61.78C165.946 61.5233 165.617 61.1622 165.383 60.6965C165.148 60.2308 165.031 59.6845 165.031 59.0575C165.031 58.4085 165.146 57.8475 165.377 57.3745C165.608 56.9015 165.933 56.5367 166.351 56.28C166.772 56.0233 167.269 55.895 167.841 55.895C168.428 55.895 168.928 56.0307 169.343 56.302C169.757 56.5697 170.071 56.9547 170.283 57.457C170.496 57.9593 170.593 58.5588 170.575 59.2555H169.75V58.9695C169.735 58.1995 169.568 57.6183 169.249 57.226C168.934 56.8337 168.472 56.6375 167.863 56.6375C167.225 56.6375 166.736 56.8447 166.395 57.259C166.057 57.6733 165.889 58.2637 165.889 59.03C165.889 59.778 166.057 60.3592 166.395 60.7735C166.736 61.1842 167.218 61.3895 167.841 61.3895C168.267 61.3895 168.637 61.2923 168.952 61.098C169.271 60.9 169.522 60.6158 169.706 60.2455L170.459 60.537C170.225 61.054 169.878 61.4555 169.42 61.7415C168.965 62.0238 168.45 62.165 167.874 62.165ZM165.603 59.2555V58.579H170.14V59.2555H165.603ZM175.924 62V58.9695C175.924 58.6395 175.893 58.337 175.831 58.062C175.768 57.7833 175.668 57.5413 175.528 57.336C175.393 57.127 175.215 56.9657 174.995 56.852C174.778 56.7383 174.514 56.6815 174.203 56.6815C173.917 56.6815 173.664 56.731 173.444 56.83C173.227 56.929 173.044 57.072 172.894 57.259C172.747 57.4423 172.635 57.666 172.558 57.93C172.481 58.194 172.443 58.4947 172.443 58.832L171.871 58.7055C171.871 58.0968 171.977 57.5853 172.19 57.171C172.402 56.7567 172.696 56.4432 173.07 56.2305C173.444 56.0178 173.873 55.9115 174.357 55.9115C174.712 55.9115 175.022 55.9665 175.286 56.0765C175.554 56.1865 175.779 56.335 175.963 56.522C176.15 56.709 176.3 56.9235 176.414 57.1655C176.527 57.4038 176.61 57.6587 176.661 57.93C176.713 58.1977 176.738 58.4653 176.738 58.733V62H175.924ZM171.629 62V56.06H172.36V57.523H172.443V62H171.629ZM180.478 54.9325V54.025H181.286V54.9325H180.478ZM180.478 62V56.06H181.286V62H180.478ZM187.225 62V58.9695C187.225 58.6395 187.194 58.337 187.132 58.062C187.069 57.7833 186.968 57.5413 186.829 57.336C186.693 57.127 186.516 56.9657 186.296 56.852C186.079 56.7383 185.815 56.6815 185.504 56.6815C185.218 56.6815 184.965 56.731 184.745 56.83C184.528 56.929 184.345 57.072 184.195 57.259C184.048 57.4423 183.936 57.666 183.859 57.93C183.782 58.194 183.744 58.4947 183.744 58.832L183.172 58.7055C183.172 58.0968 183.278 57.5853 183.491 57.171C183.703 56.7567 183.997 56.4432 184.371 56.2305C184.745 56.0178 185.174 55.9115 185.658 55.9115C186.013 55.9115 186.323 55.9665 186.587 56.0765C186.855 56.1865 187.08 56.335 187.264 56.522C187.451 56.709 187.601 56.9235 187.715 57.1655C187.828 57.4038 187.911 57.6587 187.962 57.93C188.013 58.1977 188.039 58.4653 188.039 58.733V62H187.225ZM182.93 62V56.06H183.661V57.523H183.744V62H182.93ZM193.368 62.165C192.921 62.165 192.545 62.0843 192.24 61.923C191.94 61.7617 191.714 61.5472 191.564 61.2795C191.414 61.0118 191.338 60.7203 191.338 60.405C191.338 60.0823 191.403 59.8073 191.531 59.58C191.663 59.349 191.841 59.1602 192.064 59.0135C192.292 58.8668 192.554 58.755 192.851 58.678C193.152 58.6047 193.483 58.5405 193.846 58.4855C194.213 58.4268 194.571 58.3773 194.919 58.337C195.271 58.293 195.579 58.2508 195.843 58.2105L195.557 58.3865C195.568 57.7998 195.454 57.3653 195.216 57.083C194.978 56.8007 194.563 56.6595 193.973 56.6595C193.566 56.6595 193.221 56.7512 192.939 56.9345C192.66 57.1178 192.464 57.4075 192.35 57.8035L191.564 57.5725C191.7 57.0408 191.973 56.6283 192.383 56.335C192.794 56.0417 193.328 55.895 193.984 55.895C194.527 55.895 194.987 55.9977 195.364 56.203C195.746 56.4047 196.015 56.698 196.173 57.083C196.246 57.2553 196.294 57.4478 196.316 57.6605C196.338 57.8732 196.349 58.0895 196.349 58.3095V62H195.628V60.5095L195.837 60.5975C195.636 61.1072 195.322 61.4958 194.897 61.7635C194.472 62.0312 193.962 62.165 193.368 62.165ZM193.461 61.4665C193.839 61.4665 194.169 61.3987 194.451 61.263C194.734 61.1273 194.961 60.9422 195.133 60.7075C195.306 60.4692 195.418 60.2015 195.469 59.9045C195.513 59.7138 195.537 59.5048 195.54 59.2775C195.544 59.0465 195.546 58.8742 195.546 58.7605L195.854 58.92C195.579 58.9567 195.28 58.9933 194.957 59.03C194.638 59.0667 194.323 59.1088 194.011 59.1565C193.703 59.2042 193.425 59.261 193.175 59.327C193.007 59.3747 192.844 59.4425 192.686 59.5305C192.528 59.6148 192.398 59.7285 192.295 59.8715C192.196 60.0145 192.147 60.1923 192.147 60.405C192.147 60.5773 192.189 60.7442 192.273 60.9055C192.361 61.0668 192.501 61.2007 192.691 61.307C192.886 61.4133 193.142 61.4665 193.461 61.4665ZM204.273 62V58.9695C204.273 58.6395 204.242 58.337 204.179 58.062C204.117 57.7833 204.016 57.5413 203.877 57.336C203.741 57.127 203.563 56.9657 203.343 56.852C203.127 56.7383 202.863 56.6815 202.551 56.6815C202.265 56.6815 202.012 56.731 201.792 56.83C201.576 56.929 201.393 57.072 201.242 57.259C201.096 57.4423 200.984 57.666 200.907 57.93C200.83 58.194 200.791 58.4947 200.791 58.832L200.219 58.7055C200.219 58.0968 200.326 57.5853 200.538 57.171C200.751 56.7567 201.044 56.4432 201.418 56.2305C201.792 56.0178 202.221 55.9115 202.705 55.9115C203.061 55.9115 203.371 55.9665 203.635 56.0765C203.903 56.1865 204.128 56.335 204.311 56.522C204.498 56.709 204.649 56.9235 204.762 57.1655C204.876 57.4038 204.959 57.6587 205.01 57.93C205.061 58.1977 205.087 58.4653 205.087 58.733V62H204.273ZM199.977 62V56.06H200.709V57.523H200.791V62H199.977ZM208.995 62.165C208.416 62.165 207.914 62.0367 207.488 61.78C207.067 61.5233 206.739 61.1622 206.504 60.6965C206.269 60.2308 206.152 59.6845 206.152 59.0575C206.152 58.4085 206.267 57.8475 206.498 57.3745C206.729 56.9015 207.054 56.5367 207.472 56.28C207.894 56.0233 208.39 55.895 208.962 55.895C209.549 55.895 210.05 56.0307 210.464 56.302C210.878 56.5697 211.192 56.9547 211.404 57.457C211.617 57.9593 211.714 58.5588 211.696 59.2555H210.871V58.9695C210.856 58.1995 210.689 57.6183 210.37 57.226C210.055 56.8337 209.593 56.6375 208.984 56.6375C208.346 56.6375 207.857 56.8447 207.516 57.259C207.179 57.6733 207.01 58.2637 207.01 59.03C207.01 59.778 207.179 60.3592 207.516 60.7735C207.857 61.1842 208.339 61.3895 208.962 61.3895C209.388 61.3895 209.758 61.2923 210.073 61.098C210.392 60.9 210.644 60.6158 210.827 60.2455L211.58 60.537C211.346 61.054 210.999 61.4555 210.541 61.7415C210.086 62.0238 209.571 62.165 208.995 62.165ZM206.724 59.2555V58.579H211.261V59.2555H206.724ZM213.967 62L212.152 56.0545L212.96 56.06L214.368 60.6745L215.782 56.06H216.519L217.932 60.6745L219.351 56.06H220.154L218.339 62H217.635L216.15 57.27L214.671 62H213.967ZM226.581 62C226.247 62.0697 225.917 62.0972 225.591 62.0825C225.268 62.0678 224.979 61.9982 224.722 61.8735C224.469 61.7488 224.277 61.5545 224.145 61.2905C224.038 61.0705 223.98 60.8487 223.969 60.625C223.961 60.3977 223.958 60.1392 223.958 59.8495V54.41H224.761V59.8165C224.761 60.0658 224.762 60.2748 224.766 60.4435C224.773 60.6085 224.812 60.7552 224.882 60.8835C225.014 61.1292 225.223 61.2758 225.509 61.3235C225.798 61.3712 226.156 61.3602 226.581 61.2905V62ZM222.687 56.753V56.06H226.581V56.753H222.687ZM229.451 62.165C229.004 62.165 228.628 62.0843 228.323 61.923C228.023 61.7617 227.797 61.5472 227.647 61.2795C227.497 61.0118 227.421 60.7203 227.421 60.405C227.421 60.0823 227.486 59.8073 227.614 59.58C227.746 59.349 227.924 59.1602 228.147 59.0135C228.375 58.8668 228.637 58.755 228.934 58.678C229.235 58.6047 229.566 58.5405 229.929 58.4855C230.296 58.4268 230.654 58.3773 231.002 58.337C231.354 58.293 231.662 58.2508 231.926 58.2105L231.64 58.3865C231.651 57.7998 231.537 57.3653 231.299 57.083C231.061 56.8007 230.646 56.6595 230.056 56.6595C229.649 56.6595 229.304 56.7512 229.022 56.9345C228.743 57.1178 228.547 57.4075 228.433 57.8035L227.647 57.5725C227.783 57.0408 228.056 56.6283 228.466 56.335C228.877 56.0417 229.411 55.895 230.067 55.895C230.61 55.895 231.07 55.9977 231.447 56.203C231.829 56.4047 232.098 56.698 232.256 57.083C232.329 57.2553 232.377 57.4478 232.399 57.6605C232.421 57.8732 232.432 58.0895 232.432 58.3095V62H231.711V60.5095L231.92 60.5975C231.719 61.1072 231.405 61.4958 230.98 61.7635C230.555 62.0312 230.045 62.165 229.451 62.165ZM229.544 61.4665C229.922 61.4665 230.252 61.3987 230.534 61.263C230.817 61.1273 231.044 60.9422 231.216 60.7075C231.389 60.4692 231.501 60.2015 231.552 59.9045C231.596 59.7138 231.62 59.5048 231.623 59.2775C231.627 59.0465 231.629 58.8742 231.629 58.7605L231.937 58.92C231.662 58.9567 231.363 58.9933 231.04 59.03C230.721 59.0667 230.406 59.1088 230.094 59.1565C229.786 59.2042 229.508 59.261 229.258 59.327C229.09 59.3747 228.927 59.4425 228.769 59.5305C228.611 59.6148 228.481 59.7285 228.378 59.8715C228.279 60.0145 228.23 60.1923 228.23 60.405C228.23 60.5773 228.272 60.7442 228.356 60.9055C228.444 61.0668 228.584 61.2007 228.774 61.307C228.969 61.4133 229.225 61.4665 229.544 61.4665ZM236.531 62.165C235.985 62.165 235.523 62.0275 235.145 61.7525C234.768 61.4738 234.482 61.098 234.287 60.625C234.093 60.1483 233.996 59.6148 233.996 59.0245C233.996 58.4232 234.093 57.8878 234.287 57.4185C234.485 56.9455 234.775 56.5733 235.156 56.302C235.538 56.0307 236.007 55.895 236.564 55.895C237.107 55.895 237.573 56.0325 237.961 56.3075C238.35 56.5825 238.647 56.9565 238.852 57.4295C239.061 57.9025 239.166 58.4342 239.166 59.0245C239.166 59.6185 239.061 60.152 238.852 60.625C238.643 61.098 238.343 61.4738 237.95 61.7525C237.558 62.0275 237.085 62.165 236.531 62.165ZM233.858 62V54.08H234.672V57.5285H234.584V62H233.858ZM236.449 61.4115C236.863 61.4115 237.208 61.307 237.483 61.098C237.758 60.889 237.963 60.6048 238.099 60.2455C238.238 59.8825 238.308 59.4755 238.308 59.0245C238.308 58.5772 238.24 58.1738 238.104 57.8145C237.969 57.4552 237.761 57.171 237.483 56.962C237.208 56.753 236.858 56.6485 236.432 56.6485C236.018 56.6485 235.673 56.7493 235.398 56.951C235.127 57.1527 234.923 57.4332 234.788 57.7925C234.652 58.1482 234.584 58.5588 234.584 59.0245C234.584 59.4828 234.652 59.8935 234.788 60.2565C234.923 60.6158 235.129 60.8982 235.404 61.1035C235.679 61.3088 236.027 61.4115 236.449 61.4115ZM240.313 62V61.0595H241.253V62H240.313Z" fill="#808080"/>
</svg>
