<svg width="63" height="10" viewBox="0 0 63 10" fill="none" xmlns="http://www.w3.org/2000/svg">
<path d="M0.63 7V0.52H3.132C3.195 0.52 3.2655 0.523 3.3435 0.529C3.4245 0.532 3.5055 0.541 3.5865 0.556C3.9255 0.607 4.212 0.7255 4.446 0.9115C4.683 1.0945 4.8615 1.3255 4.9815 1.6045C5.1045 1.8835 5.166 2.1925 5.166 2.5315C5.166 2.8675 5.1045 3.175 4.9815 3.454C4.8585 3.733 4.6785 3.9655 4.4415 4.1515C4.2075 4.3345 3.9225 4.4515 3.5865 4.5025C3.5055 4.5145 3.4245 4.5235 3.3435 4.5295C3.2655 4.5355 3.195 4.5385 3.132 4.5385H1.2915V7H0.63ZM1.2915 3.9085H3.114C3.168 3.9085 3.231 3.9055 3.303 3.8995C3.375 3.8935 3.4455 3.883 3.5145 3.868C3.7365 3.82 3.918 3.7285 4.059 3.5935C4.203 3.4585 4.3095 3.298 4.3785 3.112C4.4505 2.926 4.4865 2.7325 4.4865 2.5315C4.4865 2.3305 4.4505 2.137 4.3785 1.951C4.3095 1.762 4.203 1.6 4.059 1.465C3.918 1.33 3.7365 1.2385 3.5145 1.1905C3.4455 1.1755 3.375 1.1665 3.303 1.1635C3.231 1.1575 3.168 1.1545 3.114 1.1545H1.2915V3.9085ZM7.2412 7.135C6.8752 7.135 6.5677 7.069 6.3187 6.937C6.0727 6.805 5.8882 6.6295 5.7652 6.4105C5.6422 6.1915 5.5807 5.953 5.5807 5.695C5.5807 5.431 5.6332 5.206 5.7382 5.02C5.8462 4.831 5.9917 4.6765 6.1747 4.5565C6.3607 4.4365 6.5752 4.345 6.8182 4.282C7.0642 4.222 7.3357 4.1695 7.6327 4.1245C7.9327 4.0765 8.2252 4.036 8.5102 4.003C8.7982 3.967 9.0502 3.9325 9.2662 3.8995L9.0322 4.0435C9.0412 3.5635 8.9482 3.208 8.7532 2.977C8.5582 2.746 8.2192 2.6305 7.7362 2.6305C7.4032 2.6305 7.1212 2.7055 6.8902 2.8555C6.6622 3.0055 6.5017 3.2425 6.4087 3.5665L5.7652 3.3775C5.8762 2.9425 6.0997 2.605 6.4357 2.365C6.7717 2.125 7.2082 2.005 7.7452 2.005C8.1892 2.005 8.5657 2.089 8.8747 2.257C9.1867 2.422 9.4072 2.662 9.5362 2.977C9.5962 3.118 9.6352 3.2755 9.6532 3.4495C9.6712 3.6235 9.6802 3.8005 9.6802 3.9805V7H9.0907V5.7805L9.2617 5.8525C9.0967 6.2695 8.8402 6.5875 8.4922 6.8065C8.1442 7.0255 7.7272 7.135 7.2412 7.135ZM7.3177 6.5635C7.6267 6.5635 7.8967 6.508 8.1277 6.397C8.3587 6.286 8.5447 6.1345 8.6857 5.9425C8.8267 5.7475 8.9182 5.5285 8.9602 5.2855C8.9962 5.1295 9.0157 4.9585 9.0187 4.7725C9.0217 4.5835 9.0232 4.4425 9.0232 4.3495L9.2752 4.48C9.0502 4.51 8.8057 4.54 8.5417 4.57C8.2807 4.6 8.0227 4.6345 7.7677 4.6735C7.5157 4.7125 7.2877 4.759 7.0837 4.813C6.9457 4.852 6.8122 4.9075 6.6832 4.9795C6.5542 5.0485 6.4477 5.1415 6.3637 5.2585C6.2827 5.3755 6.2422 5.521 6.2422 5.695C6.2422 5.836 6.2767 5.9725 6.3457 6.1045C6.4177 6.2365 6.5317 6.346 6.6877 6.433C6.8467 6.52 7.0567 6.5635 7.3177 6.5635ZM11.2722 9.16L12.2127 6.6085L12.2262 7.3645L10.0977 2.14H10.7997L12.5457 6.5095H12.2577L13.8687 2.14H14.5437L11.9337 9.16H11.2722ZM18.1621 7L16.6771 2.1355L17.3386 2.14L18.4906 5.9155L19.6471 2.14H20.2501L21.4066 5.9155L22.5676 2.14H23.2246L21.7396 7H21.1636L19.9486 3.13L18.7381 7H18.1621ZM24.1253 1.2175V0.475H24.7868V1.2175H24.1253ZM24.1253 7V2.14H24.7868V7H24.1253ZM28.7819 7C28.5089 7.057 28.2389 7.0795 27.9719 7.0675C27.7079 7.0555 27.4709 6.9985 27.2609 6.8965C27.0539 6.7945 26.8964 6.6355 26.7884 6.4195C26.7014 6.2395 26.6534 6.058 26.6444 5.875C26.6384 5.689 26.6354 5.4775 26.6354 5.2405V0.789999H27.2924V5.2135C27.2924 5.4175 27.2939 5.5885 27.2969 5.7265C27.3029 5.8615 27.3344 5.9815 27.3914 6.0865C27.4994 6.2875 27.6704 6.4075 27.9044 6.4465C28.1414 6.4855 28.4339 6.4765 28.7819 6.4195V7ZM25.5959 2.707V2.14H28.7819V2.707H25.5959ZM33.2494 7V4.5205C33.2494 4.2505 33.2239 4.003 33.1729 3.778C33.1219 3.55 33.0394 3.352 32.9254 3.184C32.8144 3.013 32.6689 2.881 32.4889 2.788C32.3119 2.695 32.0959 2.6485 31.8409 2.6485C31.6069 2.6485 31.3999 2.689 31.2199 2.77C31.0429 2.851 30.8929 2.968 30.7699 3.121C30.6499 3.271 30.5584 3.454 30.4954 3.67C30.4324 3.886 30.4009 4.132 30.4009 4.408L29.9329 4.3045C29.9329 3.8065 30.0199 3.388 30.1939 3.049C30.3679 2.71 30.6079 2.4535 30.9139 2.2795C31.2199 2.1055 31.5709 2.0185 31.9669 2.0185C32.2579 2.0185 32.5114 2.0635 32.7274 2.1535C32.9464 2.2435 33.1309 2.365 33.2809 2.518C33.4339 2.671 33.5569 2.8465 33.6499 3.0445C33.7429 3.2395 33.8104 3.448 33.8524 3.67C33.8944 3.889 33.9154 4.108 33.9154 4.327V7H33.2494ZM29.7349 7V0.52H30.3334V4.1785H30.4009V7H29.7349ZM36.8849 7V0.52H39.3869C39.4499 0.52 39.5204 0.523 39.5984 0.529C39.6794 0.532 39.7604 0.541 39.8414 0.556C40.1804 0.607 40.4669 0.7255 40.7009 0.9115C40.9379 1.0945 41.1164 1.3255 41.2364 1.6045C41.3594 1.8835 41.4209 2.1925 41.4209 2.5315C41.4209 2.8675 41.3594 3.175 41.2364 3.454C41.1134 3.733 40.9334 3.9655 40.6964 4.1515C40.4624 4.3345 40.1774 4.4515 39.8414 4.5025C39.7604 4.5145 39.6794 4.5235 39.5984 4.5295C39.5204 4.5355 39.4499 4.5385 39.3869 4.5385H37.5464V7H36.8849ZM37.5464 3.9085H39.3689C39.4229 3.9085 39.4859 3.9055 39.5579 3.8995C39.6299 3.8935 39.7004 3.883 39.7694 3.868C39.9914 3.82 40.1729 3.7285 40.3139 3.5935C40.4579 3.4585 40.5644 3.298 40.6334 3.112C40.7054 2.926 40.7414 2.7325 40.7414 2.5315C40.7414 2.3305 40.7054 2.137 40.6334 1.951C40.5644 1.762 40.4579 1.6 40.3139 1.465C40.1729 1.33 39.9914 1.2385 39.7694 1.1905C39.7004 1.1755 39.6299 1.1665 39.5579 1.1635C39.4859 1.1575 39.4229 1.1545 39.3689 1.1545H37.5464V3.9085ZM43.4961 7.135C43.1301 7.135 42.8226 7.069 42.5736 6.937C42.3276 6.805 42.1431 6.6295 42.0201 6.4105C41.8971 6.1915 41.8356 5.953 41.8356 5.695C41.8356 5.431 41.8881 5.206 41.9931 5.02C42.1011 4.831 42.2466 4.6765 42.4296 4.5565C42.6156 4.4365 42.8301 4.345 43.0731 4.282C43.3191 4.222 43.5906 4.1695 43.8876 4.1245C44.1876 4.0765 44.4801 4.036 44.7651 4.003C45.0531 3.967 45.3051 3.9325 45.5211 3.8995L45.2871 4.0435C45.2961 3.5635 45.2031 3.208 45.0081 2.977C44.8131 2.746 44.4741 2.6305 43.9911 2.6305C43.6581 2.6305 43.3761 2.7055 43.1451 2.8555C42.9171 3.0055 42.7566 3.2425 42.6636 3.5665L42.0201 3.3775C42.1311 2.9425 42.3546 2.605 42.6906 2.365C43.0266 2.125 43.4631 2.005 44.0001 2.005C44.4441 2.005 44.8206 2.089 45.1296 2.257C45.4416 2.422 45.6621 2.662 45.7911 2.977C45.8511 3.118 45.8901 3.2755 45.9081 3.4495C45.9261 3.6235 45.9351 3.8005 45.9351 3.9805V7H45.3456V5.7805L45.5166 5.8525C45.3516 6.2695 45.0951 6.5875 44.7471 6.8065C44.3991 7.0255 43.9821 7.135 43.4961 7.135ZM43.5726 6.5635C43.8816 6.5635 44.1516 6.508 44.3826 6.397C44.6136 6.286 44.7996 6.1345 44.9406 5.9425C45.0816 5.7475 45.1731 5.5285 45.2151 5.2855C45.2511 5.1295 45.2706 4.9585 45.2736 4.7725C45.2766 4.5835 45.2781 4.4425 45.2781 4.3495L45.5301 4.48C45.3051 4.51 45.0606 4.54 44.7966 4.57C44.5356 4.6 44.2776 4.6345 44.0226 4.6735C43.7706 4.7125 43.5426 4.759 43.3386 4.813C43.2006 4.852 43.0671 4.9075 42.9381 4.9795C42.8091 5.0485 42.7026 5.1415 42.6186 5.2585C42.5376 5.3755 42.4971 5.521 42.4971 5.695C42.4971 5.836 42.5316 5.9725 42.6006 6.1045C42.6726 6.2365 42.7866 6.346 42.9426 6.433C43.1016 6.52 43.3116 6.5635 43.5726 6.5635ZM47.5271 9.16L48.4676 6.6085L48.4811 7.3645L46.3526 2.14H47.0546L48.8006 6.5095H48.5126L50.1236 2.14H50.7986L48.1886 9.16H47.5271ZM51.5802 7V0.52H54.0822C54.1452 0.52 54.2157 0.523 54.2937 0.529C54.3747 0.532 54.4557 0.541 54.5367 0.556C54.8757 0.607 55.1622 0.7255 55.3962 0.9115C55.6332 1.0945 55.8117 1.3255 55.9317 1.6045C56.0547 1.8835 56.1162 2.1925 56.1162 2.5315C56.1162 2.8675 56.0547 3.175 55.9317 3.454C55.8087 3.733 55.6287 3.9655 55.3917 4.1515C55.1577 4.3345 54.8727 4.4515 54.5367 4.5025C54.4557 4.5145 54.3747 4.5235 54.2937 4.5295C54.2157 4.5355 54.1452 4.5385 54.0822 4.5385H52.2417V7H51.5802ZM52.2417 3.9085H54.0642C54.1182 3.9085 54.1812 3.9055 54.2532 3.8995C54.3252 3.8935 54.3957 3.883 54.4647 3.868C54.6867 3.82 54.8682 3.7285 55.0092 3.5935C55.1532 3.4585 55.2597 3.298 55.3287 3.112C55.4007 2.926 55.4367 2.7325 55.4367 2.5315C55.4367 2.3305 55.4007 2.137 55.3287 1.951C55.2597 1.762 55.1532 1.6 55.0092 1.465C54.8682 1.33 54.6867 1.2385 54.4647 1.1905C54.3957 1.1755 54.3252 1.1665 54.2532 1.1635C54.1812 1.1575 54.1182 1.1545 54.0642 1.1545H52.2417V3.9085ZM58.1914 7.135C57.8254 7.135 57.5179 7.069 57.2689 6.937C57.0229 6.805 56.8384 6.6295 56.7154 6.4105C56.5924 6.1915 56.5309 5.953 56.5309 5.695C56.5309 5.431 56.5834 5.206 56.6884 5.02C56.7964 4.831 56.9419 4.6765 57.1249 4.5565C57.3109 4.4365 57.5254 4.345 57.7684 4.282C58.0144 4.222 58.2859 4.1695 58.5829 4.1245C58.8829 4.0765 59.1754 4.036 59.4604 4.003C59.7484 3.967 60.0004 3.9325 60.2164 3.8995L59.9824 4.0435C59.9914 3.5635 59.8984 3.208 59.7034 2.977C59.5084 2.746 59.1694 2.6305 58.6864 2.6305C58.3534 2.6305 58.0714 2.7055 57.8404 2.8555C57.6124 3.0055 57.4519 3.2425 57.3589 3.5665L56.7154 3.3775C56.8264 2.9425 57.0499 2.605 57.3859 2.365C57.7219 2.125 58.1584 2.005 58.6954 2.005C59.1394 2.005 59.5159 2.089 59.8249 2.257C60.1369 2.422 60.3574 2.662 60.4864 2.977C60.5464 3.118 60.5854 3.2755 60.6034 3.4495C60.6214 3.6235 60.6304 3.8005 60.6304 3.9805V7H60.0409V5.7805L60.2119 5.8525C60.0469 6.2695 59.7904 6.5875 59.4424 6.8065C59.0944 7.0255 58.6774 7.135 58.1914 7.135ZM58.2679 6.5635C58.5769 6.5635 58.8469 6.508 59.0779 6.397C59.3089 6.286 59.4949 6.1345 59.6359 5.9425C59.7769 5.7475 59.8684 5.5285 59.9104 5.2855C59.9464 5.1295 59.9659 4.9585 59.9689 4.7725C59.9719 4.5835 59.9734 4.4425 59.9734 4.3495L60.2254 4.48C60.0004 4.51 59.7559 4.54 59.4919 4.57C59.2309 4.6 58.9729 4.6345 58.7179 4.6735C58.4659 4.7125 58.2379 4.759 58.0339 4.813C57.8959 4.852 57.7624 4.9075 57.6334 4.9795C57.5044 5.0485 57.3979 5.1415 57.3139 5.2585C57.2329 5.3755 57.1924 5.521 57.1924 5.695C57.1924 5.836 57.2269 5.9725 57.2959 6.1045C57.3679 6.2365 57.4819 6.346 57.6379 6.433C57.7969 6.52 58.0069 6.5635 58.2679 6.5635ZM61.8919 7V0.385H62.5534V7H61.8919Z" fill="black"/>
</svg>
