<svg width="339" height="29" viewBox="0 0 339 29" fill="none" xmlns="http://www.w3.org/2000/svg">
<path d="M0.77 9V1.08H3.971C4.048 1.08 4.14333 1.08367 4.257 1.091C4.37067 1.09467 4.47883 1.10567 4.5815 1.124C5.0215 1.19367 5.38817 1.344 5.6815 1.575C5.9785 1.806 6.20033 2.0975 6.347 2.4495C6.49367 2.8015 6.567 3.19017 6.567 3.6155C6.567 4.0445 6.49367 4.435 6.347 4.787C6.20033 5.139 5.9785 5.4305 5.6815 5.6615C5.38817 5.8925 5.0215 6.04283 4.5815 6.1125C4.47883 6.12717 4.36883 6.13817 4.2515 6.1455C4.13783 6.15283 4.04433 6.1565 3.971 6.1565H1.9195V9H0.77ZM1.9195 5.0675H3.927C4.00033 5.0675 4.081 5.06383 4.169 5.0565C4.26067 5.04917 4.34683 5.03633 4.4275 5.018C4.66217 4.963 4.851 4.86217 4.994 4.7155C5.137 4.56517 5.23967 4.39283 5.302 4.1985C5.36433 4.00417 5.3955 3.80983 5.3955 3.6155C5.3955 3.42117 5.36433 3.22867 5.302 3.038C5.23967 2.84367 5.137 2.67317 4.994 2.5265C4.851 2.37617 4.66217 2.2735 4.4275 2.2185C4.34683 2.1965 4.26067 2.18183 4.169 2.1745C4.081 2.16717 4.00033 2.1635 3.927 2.1635H1.9195V5.0675ZM7.83148 9V3.06H8.85448V4.501L8.71148 4.314C8.78482 4.12333 8.88015 3.94917 8.99748 3.7915C9.11482 3.63017 9.25048 3.49817 9.40448 3.3955C9.55482 3.2855 9.72165 3.20117 9.90498 3.1425C10.092 3.08017 10.2827 3.0435 10.477 3.0325C10.6713 3.01783 10.8583 3.027 11.038 3.06V4.138C10.8437 4.08667 10.6273 4.072 10.389 4.094C10.1543 4.116 9.93798 4.19117 9.73998 4.3195C9.55298 4.4405 9.40448 4.58717 9.29448 4.7595C9.18815 4.93183 9.11115 5.12433 9.06348 5.337C9.01582 5.546 8.99198 5.76783 8.99198 6.0025V9H7.83148ZM14.7225 9.165C14.1285 9.165 13.6133 9.03117 13.177 8.7635C12.7406 8.49583 12.4033 8.12733 12.165 7.658C11.9303 7.185 11.813 6.6405 11.813 6.0245C11.813 5.40483 11.934 4.86033 12.176 4.391C12.418 3.918 12.7571 3.55133 13.1935 3.291C13.6298 3.027 14.1395 2.895 14.7225 2.895C15.3165 2.895 15.8316 3.02883 16.268 3.2965C16.7043 3.56417 17.0416 3.93267 17.28 4.402C17.5183 4.87133 17.6375 5.41217 17.6375 6.0245C17.6375 6.64417 17.5165 7.1905 17.2745 7.6635C17.0361 8.13283 16.6988 8.50133 16.2625 8.769C15.8261 9.033 15.3128 9.165 14.7225 9.165ZM14.7225 8.0815C15.2908 8.0815 15.7143 7.89083 15.993 7.5095C16.2753 7.1245 16.4165 6.6295 16.4165 6.0245C16.4165 5.40483 16.2735 4.90983 15.9875 4.5395C15.7051 4.1655 15.2835 3.9785 14.7225 3.9785C14.3375 3.9785 14.0203 4.0665 13.771 4.2425C13.5216 4.41483 13.3365 4.655 13.2155 4.963C13.0945 5.26733 13.034 5.62117 13.034 6.0245C13.034 6.64783 13.177 7.1465 13.463 7.5205C13.749 7.8945 14.1688 8.0815 14.7225 8.0815ZM26.1281 9L26.1336 5.2985C26.1336 4.8695 26.0236 4.53583 25.8036 4.2975C25.5836 4.0555 25.2939 3.9345 24.9346 3.9345C24.7146 3.9345 24.5129 3.98583 24.3296 4.0885C24.1499 4.1875 24.0033 4.33783 23.8896 4.5395C23.7796 4.7375 23.7246 4.98683 23.7246 5.2875L23.1691 5.007C23.1618 4.589 23.2498 4.22233 23.4331 3.907C23.6201 3.59167 23.8731 3.34783 24.1921 3.1755C24.5111 2.9995 24.8686 2.9115 25.2646 2.9115C25.9063 2.9115 26.4031 3.104 26.7551 3.489C27.1071 3.874 27.2831 4.3855 27.2831 5.0235L27.2776 9H26.1281ZM19.0056 9V3.06H20.0286V4.776H20.1606V9H19.0056ZM22.5696 9L22.5751 5.3205C22.5751 4.88783 22.4651 4.54867 22.2451 4.303C22.0288 4.05733 21.7373 3.9345 21.3706 3.9345C21.0076 3.9345 20.7143 4.05917 20.4906 4.3085C20.2706 4.55783 20.1606 4.88417 20.1606 5.2875L19.6106 4.9355C19.6106 4.54683 19.7041 4.20033 19.8911 3.896C20.0781 3.59167 20.3311 3.3515 20.6501 3.1755C20.9691 2.9995 21.3303 2.9115 21.7336 2.9115C22.1553 2.9115 22.5146 3.00133 22.8116 3.181C23.1086 3.357 23.3341 3.6045 23.4881 3.9235C23.6458 4.2425 23.7246 4.61283 23.7246 5.0345L23.7191 9H22.5696ZM31.3806 9.165C30.7866 9.165 30.2714 9.03117 29.8351 8.7635C29.3988 8.49583 29.0614 8.12733 28.8231 7.658C28.5884 7.185 28.4711 6.6405 28.4711 6.0245C28.4711 5.40483 28.5921 4.86033 28.8341 4.391C29.0761 3.918 29.4153 3.55133 29.8516 3.291C30.2879 3.027 30.7976 2.895 31.3806 2.895C31.9746 2.895 32.4898 3.02883 32.9261 3.2965C33.3624 3.56417 33.6998 3.93267 33.9381 4.402C34.1764 4.87133 34.2956 5.41217 34.2956 6.0245C34.2956 6.64417 34.1746 7.1905 33.9326 7.6635C33.6943 8.13283 33.3569 8.50133 32.9206 8.769C32.4843 9.033 31.9709 9.165 31.3806 9.165ZM31.3806 8.0815C31.9489 8.0815 32.3724 7.89083 32.6511 7.5095C32.9334 7.1245 33.0746 6.6295 33.0746 6.0245C33.0746 5.40483 32.9316 4.90983 32.6456 4.5395C32.3633 4.1655 31.9416 3.9785 31.3806 3.9785C30.9956 3.9785 30.6784 4.0665 30.4291 4.2425C30.1798 4.41483 29.9946 4.655 29.8736 4.963C29.7526 5.26733 29.6921 5.62117 29.6921 6.0245C29.6921 6.64783 29.8351 7.1465 30.1211 7.5205C30.4071 7.8945 30.8269 8.0815 31.3806 8.0815ZM41.3419 9.165C40.5499 9.165 39.8752 8.99267 39.3179 8.648C38.7605 8.29967 38.3334 7.81567 38.0364 7.196C37.743 6.57633 37.5964 5.85767 37.5964 5.04C37.5964 4.22233 37.743 3.50367 38.0364 2.884C38.3334 2.26433 38.7605 1.78217 39.3179 1.4375C39.8752 1.08917 40.5499 0.915 41.3419 0.915C42.2549 0.915 43.0102 1.146 43.6079 1.608C44.2092 2.07 44.6272 2.6915 44.8619 3.4725L43.6959 3.786C43.5419 3.23233 43.2669 2.79783 42.8709 2.4825C42.4785 2.16717 41.9689 2.0095 41.3419 2.0095C40.7809 2.0095 40.3134 2.136 39.9394 2.389C39.5654 2.642 39.283 2.99583 39.0924 3.4505C38.9054 3.90517 38.8119 4.435 38.8119 5.04C38.8082 5.645 38.8999 6.17483 39.0869 6.6295C39.2775 7.08417 39.5599 7.438 39.9339 7.691C40.3115 7.944 40.7809 8.0705 41.3419 8.0705C41.9689 8.0705 42.4785 7.91283 42.8709 7.5975C43.2669 7.2785 43.5419 6.844 43.6959 6.294L44.8619 6.6075C44.6272 7.3885 44.2092 8.01 43.6079 8.472C43.0102 8.934 42.2549 9.165 41.3419 9.165ZM48.816 9.165C48.222 9.165 47.7069 9.03117 47.2705 8.7635C46.8342 8.49583 46.4969 8.12733 46.2585 7.658C46.0239 7.185 45.9065 6.6405 45.9065 6.0245C45.9065 5.40483 46.0275 4.86033 46.2695 4.391C46.5115 3.918 46.8507 3.55133 47.287 3.291C47.7234 3.027 48.233 2.895 48.816 2.895C49.41 2.895 49.9252 3.02883 50.3615 3.2965C50.7979 3.56417 51.1352 3.93267 51.3735 4.402C51.6119 4.87133 51.731 5.41217 51.731 6.0245C51.731 6.64417 51.61 7.1905 51.368 7.6635C51.1297 8.13283 50.7924 8.50133 50.356 8.769C49.9197 9.033 49.4064 9.165 48.816 9.165ZM48.816 8.0815C49.3844 8.0815 49.8079 7.89083 50.0865 7.5095C50.3689 7.1245 50.51 6.6295 50.51 6.0245C50.51 5.40483 50.367 4.90983 50.081 4.5395C49.7987 4.1655 49.377 3.9785 48.816 3.9785C48.431 3.9785 48.1139 4.0665 47.8645 4.2425C47.6152 4.41483 47.43 4.655 47.309 4.963C47.188 5.26733 47.1275 5.62117 47.1275 6.0245C47.1275 6.64783 47.2705 7.1465 47.5565 7.5205C47.8425 7.8945 48.2624 8.0815 48.816 8.0815ZM55.4641 9.165C54.9105 9.165 54.432 9.0275 54.0286 8.7525C53.629 8.4775 53.3191 8.1035 53.0991 7.6305C52.8828 7.15383 52.7746 6.6185 52.7746 6.0245C52.7746 5.42683 52.8846 4.89333 53.1046 4.424C53.3246 3.951 53.6363 3.57883 54.0396 3.3075C54.4466 3.0325 54.9288 2.895 55.4861 2.895C56.0471 2.895 56.5183 3.0325 56.8996 3.3075C57.2846 3.57883 57.5743 3.951 57.7686 4.424C57.9666 4.897 58.0656 5.4305 58.0656 6.0245C58.0656 6.6185 57.9666 7.152 57.7686 7.625C57.5706 8.098 57.2791 8.47383 56.8941 8.7525C56.5091 9.0275 56.0325 9.165 55.4641 9.165ZM55.6236 8.1255C56.0013 8.1255 56.3093 8.03567 56.5476 7.856C56.786 7.67633 56.9601 7.42883 57.0701 7.1135C57.1801 6.79817 57.2351 6.43517 57.2351 6.0245C57.2351 5.61383 57.1783 5.25083 57.0646 4.9355C56.9546 4.62017 56.7823 4.3745 56.5476 4.1985C56.3166 4.0225 56.0215 3.9345 55.6621 3.9345C55.2808 3.9345 54.9673 4.028 54.7216 4.215C54.476 4.402 54.2926 4.65317 54.1716 4.9685C54.0543 5.28383 53.9956 5.63583 53.9956 6.0245C53.9956 6.41683 54.0543 6.7725 54.1716 7.0915C54.2926 7.40683 54.4723 7.658 54.7106 7.845C54.9526 8.032 55.257 8.1255 55.6236 8.1255ZM57.2351 9V4.7265H57.1031V1.08H58.2581V9H57.2351ZM62.5965 9.165C62.0062 9.165 61.4874 9.03667 61.04 8.78C60.5964 8.51967 60.2499 8.1585 60.0005 7.6965C59.7549 7.23083 59.632 6.69183 59.632 6.0795C59.632 5.4305 59.753 4.86767 59.995 4.391C60.2407 3.91433 60.5817 3.54583 61.018 3.2855C61.4544 3.02517 61.9622 2.895 62.5415 2.895C63.1465 2.895 63.6617 3.03617 64.087 3.3185C64.5124 3.59717 64.8295 3.995 65.0385 4.512C65.2512 5.029 65.3355 5.64317 65.2915 6.3545H64.142V5.9365C64.1347 5.24717 64.0027 4.7375 63.746 4.4075C63.493 4.0775 63.1062 3.9125 62.5855 3.9125C62.0099 3.9125 61.5772 4.094 61.2875 4.457C60.9979 4.82 60.853 5.34433 60.853 6.03C60.853 6.68267 60.9979 7.18867 61.2875 7.548C61.5772 7.90367 61.9952 8.0815 62.5415 8.0815C62.9009 8.0815 63.2107 8.00083 63.471 7.8395C63.735 7.6745 63.9404 7.43983 64.087 7.1355L65.2145 7.493C64.9835 8.02467 64.6334 8.43717 64.164 8.7305C63.6947 9.02017 63.1722 9.165 62.5965 9.165ZM60.479 6.3545V5.458H64.7195V6.3545H60.479ZM68.5077 9L71.0817 1.08H72.7372L75.3112 9H74.1177L71.7472 1.773H72.0442L69.7012 9H68.5077ZM69.8442 7.2125V6.1345H73.9802V7.2125H69.8442ZM78.8224 9.165C78.2687 9.165 77.7902 9.0275 77.3869 8.7525C76.9872 8.4775 76.6774 8.1035 76.4574 7.6305C76.2411 7.15383 76.1329 6.6185 76.1329 6.0245C76.1329 5.42683 76.2429 4.89333 76.4629 4.424C76.6829 3.951 76.9946 3.57883 77.3979 3.3075C77.8049 3.0325 78.2871 2.895 78.8444 2.895C79.4054 2.895 79.8766 3.0325 80.2579 3.3075C80.6429 3.57883 80.9326 3.951 81.1269 4.424C81.3249 4.897 81.4239 5.4305 81.4239 6.0245C81.4239 6.6185 81.3249 7.152 81.1269 7.625C80.9289 8.098 80.6374 8.47383 80.2524 8.7525C79.8674 9.0275 79.3907 9.165 78.8224 9.165ZM78.9819 8.1255C79.3596 8.1255 79.6676 8.03567 79.9059 7.856C80.1442 7.67633 80.3184 7.42883 80.4284 7.1135C80.5384 6.79817 80.5934 6.43517 80.5934 6.0245C80.5934 5.61383 80.5366 5.25083 80.4229 4.9355C80.3129 4.62017 80.1406 4.3745 79.9059 4.1985C79.6749 4.0225 79.3797 3.9345 79.0204 3.9345C78.6391 3.9345 78.3256 4.028 78.0799 4.215C77.8342 4.402 77.6509 4.65317 77.5299 4.9685C77.4126 5.28383 77.3539 5.63583 77.3539 6.0245C77.3539 6.41683 77.4126 6.7725 77.5299 7.0915C77.6509 7.40683 77.8306 7.658 78.0689 7.845C78.3109 8.032 78.6152 8.1255 78.9819 8.1255ZM80.5934 9V4.7265H80.4614V1.08H81.6164V9H80.5934ZM85.6798 9.165C85.1261 9.165 84.6476 9.0275 84.2443 8.7525C83.8446 8.4775 83.5348 8.1035 83.3148 7.6305C83.0984 7.15383 82.9903 6.6185 82.9903 6.0245C82.9903 5.42683 83.1003 4.89333 83.3203 4.424C83.5403 3.951 83.8519 3.57883 84.2553 3.3075C84.6623 3.0325 85.1444 2.895 85.7018 2.895C86.2628 2.895 86.7339 3.0325 87.1153 3.3075C87.5003 3.57883 87.7899 3.951 87.9843 4.424C88.1823 4.897 88.2813 5.4305 88.2813 6.0245C88.2813 6.6185 88.1823 7.152 87.9843 7.625C87.7863 8.098 87.4948 8.47383 87.1098 8.7525C86.7248 9.0275 86.2481 9.165 85.6798 9.165ZM85.8393 8.1255C86.2169 8.1255 86.5249 8.03567 86.7633 7.856C87.0016 7.67633 87.1758 7.42883 87.2858 7.1135C87.3958 6.79817 87.4508 6.43517 87.4508 6.0245C87.4508 5.61383 87.3939 5.25083 87.2803 4.9355C87.1703 4.62017 86.9979 4.3745 86.7633 4.1985C86.5323 4.0225 86.2371 3.9345 85.8778 3.9345C85.4964 3.9345 85.1829 4.028 84.9373 4.215C84.6916 4.402 84.5083 4.65317 84.3873 4.9685C84.2699 5.28383 84.2113 5.63583 84.2113 6.0245C84.2113 6.41683 84.2699 6.7725 84.3873 7.0915C84.5083 7.40683 84.6879 7.658 84.9263 7.845C85.1683 8.032 85.4726 8.1255 85.8393 8.1255ZM87.4508 9V4.7265H87.3188V1.08H88.4738V9H87.4508ZM92.8122 9.165C92.2218 9.165 91.703 9.03667 91.2557 8.78C90.812 8.51967 90.4655 8.1585 90.2162 7.6965C89.9705 7.23083 89.8477 6.69183 89.8477 6.0795C89.8477 5.4305 89.9687 4.86767 90.2107 4.391C90.4563 3.91433 90.7973 3.54583 91.2337 3.2855C91.67 3.02517 92.1778 2.895 92.7572 2.895C93.3622 2.895 93.8773 3.03617 94.3027 3.3185C94.728 3.59717 95.0452 3.995 95.2542 4.512C95.4668 5.029 95.5512 5.64317 95.5072 6.3545H94.3577V5.9365C94.3503 5.24717 94.2183 4.7375 93.9617 4.4075C93.7087 4.0775 93.3218 3.9125 92.8012 3.9125C92.2255 3.9125 91.7928 4.094 91.5032 4.457C91.2135 4.82 91.0687 5.34433 91.0687 6.03C91.0687 6.68267 91.2135 7.18867 91.5032 7.548C91.7928 7.90367 92.2108 8.0815 92.7572 8.0815C93.1165 8.0815 93.4263 8.00083 93.6867 7.8395C93.9507 7.6745 94.156 7.43983 94.3027 7.1355L95.4302 7.493C95.1992 8.02467 94.849 8.43717 94.3797 8.7305C93.9103 9.02017 93.3878 9.165 92.8122 9.165ZM90.6947 6.3545V5.458H94.9352V6.3545H90.6947ZM99.2656 9.165C98.712 9.165 98.2335 9.0275 97.8301 8.7525C97.4305 8.4775 97.1206 8.1035 96.9006 7.6305C96.6843 7.15383 96.5761 6.6185 96.5761 6.0245C96.5761 5.42683 96.6861 4.89333 96.9061 4.424C97.1261 3.951 97.4378 3.57883 97.8411 3.3075C98.2481 3.0325 98.7303 2.895 99.2876 2.895C99.8486 2.895 100.32 3.0325 100.701 3.3075C101.086 3.57883 101.376 3.951 101.57 4.424C101.768 4.897 101.867 5.4305 101.867 6.0245C101.867 6.6185 101.768 7.152 101.57 7.625C101.372 8.098 101.081 8.47383 100.696 8.7525C100.311 9.0275 99.834 9.165 99.2656 9.165ZM99.4251 8.1255C99.8028 8.1255 100.111 8.03567 100.349 7.856C100.587 7.67633 100.762 7.42883 100.872 7.1135C100.982 6.79817 101.037 6.43517 101.037 6.0245C101.037 5.61383 100.98 5.25083 100.866 4.9355C100.756 4.62017 100.584 4.3745 100.349 4.1985C100.118 4.0225 99.823 3.9345 99.4636 3.9345C99.0823 3.9345 98.7688 4.028 98.5231 4.215C98.2775 4.402 98.0941 4.65317 97.9731 4.9685C97.8558 5.28383 97.7971 5.63583 97.7971 6.0245C97.7971 6.41683 97.8558 6.7725 97.9731 7.0915C98.0941 7.40683 98.2738 7.658 98.5121 7.845C98.7541 8.032 99.0585 8.1255 99.4251 8.1255ZM101.037 9V4.7265H100.905V1.08H102.06V9H101.037ZM104.314 9V7.8835H105.463V9H104.314ZM104.314 7.02V1.08H105.463V7.02H104.314ZM110.088 9V1.08H113.289C113.366 1.08 113.461 1.08367 113.575 1.091C113.688 1.09467 113.796 1.10567 113.899 1.124C114.339 1.19367 114.706 1.344 114.999 1.575C115.296 1.806 115.518 2.0975 115.665 2.4495C115.811 2.8015 115.885 3.19017 115.885 3.6155C115.885 4.0445 115.811 4.435 115.665 4.787C115.518 5.139 115.296 5.4305 114.999 5.6615C114.706 5.8925 114.339 6.04283 113.899 6.1125C113.796 6.12717 113.686 6.13817 113.569 6.1455C113.455 6.15283 113.362 6.1565 113.289 6.1565H111.237V9H110.088ZM111.237 5.0675H113.245C113.318 5.0675 113.399 5.06383 113.487 5.0565C113.578 5.04917 113.664 5.03633 113.745 5.018C113.98 4.963 114.169 4.86217 114.312 4.7155C114.455 4.56517 114.557 4.39283 114.62 4.1985C114.682 4.00417 114.713 3.80983 114.713 3.6155C114.713 3.42117 114.682 3.22867 114.62 3.038C114.557 2.84367 114.455 2.67317 114.312 2.5265C114.169 2.37617 113.98 2.2735 113.745 2.2185C113.664 2.1965 113.578 2.18183 113.487 2.1745C113.399 2.16717 113.318 2.1635 113.245 2.1635H111.237V5.0675ZM117.259 9V0.915H118.409V9H117.259ZM122.86 9.165C122.269 9.165 121.751 9.03667 121.303 8.78C120.86 8.51967 120.513 8.1585 120.264 7.6965C120.018 7.23083 119.895 6.69183 119.895 6.0795C119.895 5.4305 120.016 4.86767 120.258 4.391C120.504 3.91433 120.845 3.54583 121.281 3.2855C121.718 3.02517 122.225 2.895 122.805 2.895C123.41 2.895 123.925 3.03617 124.35 3.3185C124.776 3.59717 125.093 3.995 125.302 4.512C125.514 5.029 125.599 5.64317 125.555 6.3545H124.405V5.9365C124.398 5.24717 124.266 4.7375 124.009 4.4075C123.756 4.0775 123.369 3.9125 122.849 3.9125C122.273 3.9125 121.84 4.094 121.551 4.457C121.261 4.82 121.116 5.34433 121.116 6.03C121.116 6.68267 121.261 7.18867 121.551 7.548C121.84 7.90367 122.258 8.0815 122.805 8.0815C123.164 8.0815 123.474 8.00083 123.734 7.8395C123.998 7.6745 124.204 7.43983 124.35 7.1355L125.478 7.493C125.247 8.02467 124.897 8.43717 124.427 8.7305C123.958 9.02017 123.435 9.165 122.86 9.165ZM120.742 6.3545V5.458H124.983V6.3545H120.742ZM128.524 9.165C128.084 9.165 127.715 9.08433 127.418 8.923C127.121 8.758 126.896 8.54167 126.742 8.274C126.591 8.00267 126.516 7.70567 126.516 7.383C126.516 7.08233 126.569 6.81833 126.676 6.591C126.782 6.36367 126.94 6.17117 127.149 6.0135C127.358 5.85217 127.614 5.722 127.919 5.623C128.183 5.546 128.482 5.47817 128.815 5.4195C129.149 5.36083 129.499 5.30583 129.866 5.2545C130.236 5.20317 130.603 5.15183 130.966 5.1005L130.548 5.3315C130.555 4.86583 130.456 4.52117 130.251 4.2975C130.049 4.07017 129.701 3.9565 129.206 3.9565C128.894 3.9565 128.608 4.02983 128.348 4.1765C128.087 4.3195 127.906 4.55783 127.803 4.8915L126.731 4.5615C126.877 4.05183 127.156 3.64667 127.567 3.346C127.981 3.04533 128.531 2.895 129.217 2.895C129.748 2.895 130.21 2.98667 130.603 3.17C130.999 3.34967 131.288 3.63567 131.472 4.028C131.567 4.22233 131.626 4.42767 131.648 4.644C131.67 4.86033 131.681 5.09317 131.681 5.3425V9H130.663V7.6415L130.861 7.8175C130.616 8.27217 130.302 8.61133 129.921 8.835C129.543 9.055 129.077 9.165 128.524 9.165ZM128.727 8.2245C129.054 8.2245 129.334 8.16767 129.569 8.054C129.803 7.93667 129.992 7.78817 130.135 7.6085C130.278 7.42883 130.372 7.24183 130.416 7.0475C130.478 6.8715 130.513 6.6735 130.52 6.4535C130.531 6.2335 130.537 6.0575 130.537 5.9255L130.911 6.063C130.548 6.118 130.218 6.1675 129.921 6.2115C129.624 6.2555 129.354 6.2995 129.112 6.3435C128.874 6.38383 128.661 6.43333 128.474 6.492C128.317 6.547 128.175 6.613 128.051 6.69C127.93 6.767 127.833 6.8605 127.759 6.9705C127.69 7.0805 127.655 7.21433 127.655 7.372C127.655 7.526 127.693 7.669 127.77 7.801C127.847 7.92933 127.965 8.032 128.122 8.109C128.28 8.186 128.482 8.2245 128.727 8.2245ZM135.546 9.1595C134.823 9.1595 134.235 9 133.78 8.681C133.325 8.362 133.047 7.91283 132.944 7.3335L134.121 7.152C134.194 7.46 134.363 7.70383 134.627 7.8835C134.895 8.0595 135.227 8.1475 135.623 8.1475C135.982 8.1475 136.262 8.07417 136.464 7.9275C136.669 7.78083 136.772 7.57917 136.772 7.3225C136.772 7.17217 136.735 7.05117 136.662 6.9595C136.592 6.86417 136.444 6.77433 136.217 6.69C135.989 6.60567 135.643 6.50117 135.177 6.3765C134.667 6.2445 134.262 6.10333 133.962 5.953C133.665 5.799 133.452 5.62117 133.324 5.4195C133.199 5.21417 133.137 4.96667 133.137 4.677C133.137 4.31767 133.232 4.00417 133.423 3.7365C133.613 3.46883 133.881 3.26167 134.226 3.115C134.574 2.96833 134.981 2.895 135.447 2.895C135.901 2.895 136.306 2.9665 136.662 3.1095C137.018 3.2525 137.306 3.456 137.526 3.72C137.746 3.98033 137.878 4.2865 137.922 4.6385L136.745 4.853C136.704 4.567 136.57 4.3415 136.343 4.1765C136.116 4.0115 135.821 3.92167 135.458 3.907C135.109 3.89233 134.827 3.951 134.611 4.083C134.394 4.21133 134.286 4.38917 134.286 4.6165C134.286 4.7485 134.326 4.86033 134.407 4.952C134.491 5.04367 134.653 5.13167 134.891 5.216C135.129 5.30033 135.481 5.40117 135.947 5.5185C136.446 5.64683 136.842 5.78983 137.135 5.9475C137.428 6.1015 137.637 6.28667 137.762 6.503C137.89 6.71567 137.955 6.97417 137.955 7.2785C137.955 7.86517 137.74 8.32533 137.311 8.659C136.886 8.99267 136.297 9.1595 135.546 9.1595ZM141.971 9.165C141.381 9.165 140.862 9.03667 140.414 8.78C139.971 8.51967 139.624 8.1585 139.375 7.6965C139.129 7.23083 139.006 6.69183 139.006 6.0795C139.006 5.4305 139.127 4.86767 139.369 4.391C139.615 3.91433 139.956 3.54583 140.392 3.2855C140.829 3.02517 141.337 2.895 141.916 2.895C142.521 2.895 143.036 3.03617 143.461 3.3185C143.887 3.59717 144.204 3.995 144.413 4.512C144.626 5.029 144.71 5.64317 144.666 6.3545H143.516V5.9365C143.509 5.24717 143.377 4.7375 143.12 4.4075C142.867 4.0775 142.481 3.9125 141.96 3.9125C141.384 3.9125 140.952 4.094 140.662 4.457C140.372 4.82 140.227 5.34433 140.227 6.03C140.227 6.68267 140.372 7.18867 140.662 7.548C140.952 7.90367 141.37 8.0815 141.916 8.0815C142.275 8.0815 142.585 8.00083 142.845 7.8395C143.109 7.6745 143.315 7.43983 143.461 7.1355L144.589 7.493C144.358 8.02467 144.008 8.43717 143.538 8.7305C143.069 9.02017 142.547 9.165 141.971 9.165ZM139.853 6.3545V5.458H144.094V6.3545H139.853ZM148.432 9V3.06H149.455V4.501L149.312 4.314C149.385 4.12333 149.481 3.94917 149.598 3.7915C149.715 3.63017 149.851 3.49817 150.005 3.3955C150.155 3.2855 150.322 3.20117 150.506 3.1425C150.693 3.08017 150.883 3.0435 151.078 3.0325C151.272 3.01783 151.459 3.027 151.639 3.06V4.138C151.444 4.08667 151.228 4.072 150.99 4.094C150.755 4.116 150.539 4.19117 150.341 4.3195C150.154 4.4405 150.005 4.58717 149.895 4.7595C149.789 4.93183 149.712 5.12433 149.664 5.337C149.616 5.546 149.593 5.76783 149.593 6.0025V9H148.432ZM155.378 9.165C154.788 9.165 154.269 9.03667 153.822 8.78C153.378 8.51967 153.031 8.1585 152.782 7.6965C152.536 7.23083 152.414 6.69183 152.414 6.0795C152.414 5.4305 152.535 4.86767 152.777 4.391C153.022 3.91433 153.363 3.54583 153.8 3.2855C154.236 3.02517 154.744 2.895 155.323 2.895C155.928 2.895 156.443 3.03617 156.869 3.3185C157.294 3.59717 157.611 3.995 157.82 4.512C158.033 5.029 158.117 5.64317 158.073 6.3545H156.924V5.9365C156.916 5.24717 156.784 4.7375 156.528 4.4075C156.275 4.0775 155.888 3.9125 155.367 3.9125C154.791 3.9125 154.359 4.094 154.069 4.457C153.779 4.82 153.635 5.34433 153.635 6.03C153.635 6.68267 153.779 7.18867 154.069 7.548C154.359 7.90367 154.777 8.0815 155.323 8.0815C155.682 8.0815 155.992 8.00083 156.253 7.8395C156.517 7.6745 156.722 7.43983 156.869 7.1355L157.996 7.493C157.765 8.02467 157.415 8.43717 156.946 8.7305C156.476 9.02017 155.954 9.165 155.378 9.165ZM153.261 6.3545V5.458H157.501V6.3545H153.261ZM160.863 9L158.707 3.06H159.868L161.446 7.559L163.025 3.06H164.185L162.029 9H160.863ZM165.451 2.0865V0.97H166.601V2.0865H165.451ZM165.451 9V3.06H166.601V9H165.451ZM171.052 9.165C170.461 9.165 169.943 9.03667 169.495 8.78C169.052 8.51967 168.705 8.1585 168.456 7.6965C168.21 7.23083 168.087 6.69183 168.087 6.0795C168.087 5.4305 168.208 4.86767 168.45 4.391C168.696 3.91433 169.037 3.54583 169.473 3.2855C169.91 3.02517 170.417 2.895 170.997 2.895C171.602 2.895 172.117 3.03617 172.542 3.3185C172.968 3.59717 173.285 3.995 173.494 4.512C173.706 5.029 173.791 5.64317 173.747 6.3545H172.597V5.9365C172.59 5.24717 172.458 4.7375 172.201 4.4075C171.948 4.0775 171.561 3.9125 171.041 3.9125C170.465 3.9125 170.032 4.094 169.743 4.457C169.453 4.82 169.308 5.34433 169.308 6.03C169.308 6.68267 169.453 7.18867 169.743 7.548C170.032 7.90367 170.45 8.0815 170.997 8.0815C171.356 8.0815 171.666 8.00083 171.926 7.8395C172.19 7.6745 172.396 7.43983 172.542 7.1355L173.67 7.493C173.439 8.02467 173.089 8.43717 172.619 8.7305C172.15 9.02017 171.627 9.165 171.052 9.165ZM168.934 6.3545V5.458H173.175V6.3545H168.934ZM176.196 9L174.381 3.0545L175.519 3.06L176.762 7.1355L178.016 3.06H179.006L180.26 7.1355L181.503 3.06H182.636L180.821 9H179.897L178.511 4.699L177.12 9H176.196ZM186.957 11.64L188.106 8.5105L188.123 9.4345L185.532 3.06H186.731L188.667 7.9825H188.315L190.163 3.06H191.329L188.051 11.64H186.957ZM194.72 9.165C194.126 9.165 193.611 9.03117 193.175 8.7635C192.738 8.49583 192.401 8.12733 192.163 7.658C191.928 7.185 191.811 6.6405 191.811 6.0245C191.811 5.40483 191.932 4.86033 192.174 4.391C192.416 3.918 192.755 3.55133 193.191 3.291C193.628 3.027 194.137 2.895 194.72 2.895C195.314 2.895 195.829 3.02883 196.266 3.2965C196.702 3.56417 197.039 3.93267 197.278 4.402C197.516 4.87133 197.635 5.41217 197.635 6.0245C197.635 6.64417 197.514 7.1905 197.272 7.6635C197.034 8.13283 196.697 8.50133 196.26 8.769C195.824 9.033 195.311 9.165 194.72 9.165ZM194.72 8.0815C195.289 8.0815 195.712 7.89083 195.991 7.5095C196.273 7.1245 196.414 6.6295 196.414 6.0245C196.414 5.40483 196.271 4.90983 195.985 4.5395C195.703 4.1655 195.281 3.9785 194.72 3.9785C194.335 3.9785 194.018 4.0665 193.769 4.2425C193.519 4.41483 193.334 4.655 193.213 4.963C193.092 5.26733 193.032 5.62117 193.032 6.0245C193.032 6.64783 193.175 7.1465 193.461 7.5205C193.747 7.8945 194.167 8.0815 194.72 8.0815ZM201.247 9.1595C200.837 9.1595 200.492 9.0935 200.213 8.9615C199.935 8.8295 199.707 8.65717 199.531 8.4445C199.359 8.22817 199.227 7.9935 199.135 7.7405C199.044 7.4875 198.981 7.24 198.948 6.998C198.915 6.756 198.899 6.54333 198.899 6.36V3.06H200.065V5.9805C200.065 6.2115 200.083 6.44983 200.12 6.6955C200.16 6.9375 200.234 7.163 200.34 7.372C200.45 7.581 200.602 7.74967 200.796 7.878C200.994 8.00633 201.251 8.0705 201.566 8.0705C201.772 8.0705 201.966 8.0375 202.149 7.9715C202.333 7.90183 202.492 7.79183 202.628 7.6415C202.767 7.49117 202.875 7.29317 202.952 7.0475C203.033 6.80183 203.073 6.503 203.073 6.151L203.788 6.4205C203.788 6.9595 203.688 7.43617 203.486 7.8505C203.284 8.26117 202.995 8.582 202.617 8.813C202.239 9.044 201.783 9.1595 201.247 9.1595ZM203.211 9V7.284H203.073V3.06H204.234V9H203.211ZM205.941 9V3.06H206.964V4.501L206.821 4.314C206.895 4.12333 206.99 3.94917 207.107 3.7915C207.225 3.63017 207.36 3.49817 207.514 3.3955C207.665 3.2855 207.832 3.20117 208.015 3.1425C208.202 3.08017 208.393 3.0435 208.587 3.0325C208.781 3.01783 208.968 3.027 209.148 3.06V4.138C208.954 4.08667 208.737 4.072 208.499 4.094C208.264 4.116 208.048 4.19117 207.85 4.3195C207.663 4.4405 207.514 4.58717 207.404 4.7595C207.298 4.93183 207.221 5.12433 207.173 5.337C207.126 5.546 207.102 5.76783 207.102 6.0025V9H205.941ZM215.307 9.165C214.713 9.165 214.198 9.03117 213.762 8.7635C213.325 8.49583 212.988 8.12733 212.75 7.658C212.515 7.185 212.398 6.6405 212.398 6.0245C212.398 5.40483 212.519 4.86033 212.761 4.391C213.003 3.918 213.342 3.55133 213.778 3.291C214.214 3.027 214.724 2.895 215.307 2.895C215.901 2.895 216.416 3.02883 216.853 3.2965C217.289 3.56417 217.626 3.93267 217.865 4.402C218.103 4.87133 218.222 5.41217 218.222 6.0245C218.222 6.64417 218.101 7.1905 217.859 7.6635C217.621 8.13283 217.283 8.50133 216.847 8.769C216.411 9.033 215.897 9.165 215.307 9.165ZM215.307 8.0815C215.875 8.0815 216.299 7.89083 216.578 7.5095C216.86 7.1245 217.001 6.6295 217.001 6.0245C217.001 5.40483 216.858 4.90983 216.572 4.5395C216.29 4.1655 215.868 3.9785 215.307 3.9785C214.922 3.9785 214.605 4.0665 214.356 4.2425C214.106 4.41483 213.921 4.655 213.8 4.963C213.679 5.26733 213.619 5.62117 213.619 6.0245C213.619 6.64783 213.762 7.1465 214.048 7.5205C214.334 7.8945 214.753 8.0815 215.307 8.0815ZM219.596 9V3.06H220.619V4.501L220.476 4.314C220.549 4.12333 220.644 3.94917 220.762 3.7915C220.879 3.63017 221.015 3.49817 221.169 3.3955C221.319 3.2855 221.486 3.20117 221.669 3.1425C221.856 3.08017 222.047 3.0435 222.241 3.0325C222.436 3.01783 222.623 3.027 222.802 3.06V4.138C222.608 4.08667 222.392 4.072 222.153 4.094C221.919 4.116 221.702 4.19117 221.504 4.3195C221.317 4.4405 221.169 4.58717 221.059 4.7595C220.952 4.93183 220.875 5.12433 220.828 5.337C220.78 5.546 220.756 5.76783 220.756 6.0025V9H219.596ZM226.267 9.165C225.713 9.165 225.234 9.0275 224.831 8.7525C224.431 8.4775 224.122 8.1035 223.902 7.6305C223.685 7.15383 223.577 6.6185 223.577 6.0245C223.577 5.42683 223.687 4.89333 223.907 4.424C224.127 3.951 224.439 3.57883 224.842 3.3075C225.249 3.0325 225.731 2.895 226.289 2.895C226.85 2.895 227.321 3.0325 227.702 3.3075C228.087 3.57883 228.377 3.951 228.571 4.424C228.769 4.897 228.868 5.4305 228.868 6.0245C228.868 6.6185 228.769 7.152 228.571 7.625C228.373 8.098 228.082 8.47383 227.697 8.7525C227.312 9.0275 226.835 9.165 226.267 9.165ZM226.426 8.1255C226.804 8.1255 227.112 8.03567 227.35 7.856C227.588 7.67633 227.763 7.42883 227.873 7.1135C227.983 6.79817 228.038 6.43517 228.038 6.0245C228.038 5.61383 227.981 5.25083 227.867 4.9355C227.757 4.62017 227.585 4.3745 227.35 4.1985C227.119 4.0225 226.824 3.9345 226.465 3.9345C226.083 3.9345 225.77 4.028 225.524 4.215C225.278 4.402 225.095 4.65317 224.974 4.9685C224.857 5.28383 224.798 5.63583 224.798 6.0245C224.798 6.41683 224.857 6.7725 224.974 7.0915C225.095 7.40683 225.275 7.658 225.513 7.845C225.755 8.032 226.059 8.1255 226.426 8.1255ZM228.038 9V4.7265H227.906V1.08H229.061V9H228.038ZM233.399 9.165C232.809 9.165 232.29 9.03667 231.843 8.78C231.399 8.51967 231.052 8.1585 230.803 7.6965C230.557 7.23083 230.435 6.69183 230.435 6.0795C230.435 5.4305 230.556 4.86767 230.798 4.391C231.043 3.91433 231.384 3.54583 231.821 3.2855C232.257 3.02517 232.765 2.895 233.344 2.895C233.949 2.895 234.464 3.03617 234.89 3.3185C235.315 3.59717 235.632 3.995 235.841 4.512C236.054 5.029 236.138 5.64317 236.094 6.3545H234.945V5.9365C234.937 5.24717 234.805 4.7375 234.549 4.4075C234.296 4.0775 233.909 3.9125 233.388 3.9125C232.812 3.9125 232.38 4.094 232.09 4.457C231.8 4.82 231.656 5.34433 231.656 6.03C231.656 6.68267 231.8 7.18867 232.09 7.548C232.38 7.90367 232.798 8.0815 233.344 8.0815C233.703 8.0815 234.013 8.00083 234.274 7.8395C234.538 7.6745 234.743 7.43983 234.89 7.1355L236.017 7.493C235.786 8.02467 235.436 8.43717 234.967 8.7305C234.497 9.02017 233.975 9.165 233.399 9.165ZM231.282 6.3545V5.458H235.522V6.3545H231.282ZM237.493 9V3.06H238.516V4.501L238.373 4.314C238.446 4.12333 238.542 3.94917 238.659 3.7915C238.776 3.63017 238.912 3.49817 239.066 3.3955C239.216 3.2855 239.383 3.20117 239.567 3.1425C239.754 3.08017 239.944 3.0435 240.139 3.0325C240.333 3.01783 240.52 3.027 240.7 3.06V4.138C240.505 4.08667 240.289 4.072 240.051 4.094C239.816 4.116 239.6 4.19117 239.402 4.3195C239.215 4.4405 239.066 4.58717 238.956 4.7595C238.85 4.93183 238.773 5.12433 238.725 5.337C238.677 5.546 238.654 5.76783 238.654 6.0025V9H237.493ZM246.639 9.165C246.085 9.165 245.606 9.0275 245.203 8.7525C244.803 8.4775 244.494 8.1035 244.274 7.6305C244.057 7.15383 243.949 6.6185 243.949 6.0245C243.949 5.42683 244.059 4.89333 244.279 4.424C244.499 3.951 244.811 3.57883 245.214 3.3075C245.621 3.0325 246.103 2.895 246.661 2.895C247.222 2.895 247.693 3.0325 248.074 3.3075C248.459 3.57883 248.749 3.951 248.943 4.424C249.141 4.897 249.24 5.4305 249.24 6.0245C249.24 6.6185 249.141 7.152 248.943 7.625C248.745 8.098 248.454 8.47383 248.069 8.7525C247.684 9.0275 247.207 9.165 246.639 9.165ZM246.798 8.1255C247.176 8.1255 247.484 8.03567 247.722 7.856C247.96 7.67633 248.135 7.42883 248.245 7.1135C248.355 6.79817 248.41 6.43517 248.41 6.0245C248.41 5.61383 248.353 5.25083 248.239 4.9355C248.129 4.62017 247.957 4.3745 247.722 4.1985C247.491 4.0225 247.196 3.9345 246.837 3.9345C246.455 3.9345 246.142 4.028 245.896 4.215C245.65 4.402 245.467 4.65317 245.346 4.9685C245.229 5.28383 245.17 5.63583 245.17 6.0245C245.17 6.41683 245.229 6.7725 245.346 7.0915C245.467 7.40683 245.647 7.658 245.885 7.845C246.127 8.032 246.431 8.1255 246.798 8.1255ZM248.41 9V4.7265H248.278V1.08H249.433V9H248.41ZM253.771 9.165C253.181 9.165 252.662 9.03667 252.214 8.78C251.771 8.51967 251.424 8.1585 251.175 7.6965C250.929 7.23083 250.806 6.69183 250.806 6.0795C250.806 5.4305 250.927 4.86767 251.169 4.391C251.415 3.91433 251.756 3.54583 252.192 3.2855C252.629 3.02517 253.137 2.895 253.716 2.895C254.321 2.895 254.836 3.03617 255.261 3.3185C255.687 3.59717 256.004 3.995 256.213 4.512C256.426 5.029 256.51 5.64317 256.466 6.3545H255.316V5.9365C255.309 5.24717 255.177 4.7375 254.92 4.4075C254.667 4.0775 254.281 3.9125 253.76 3.9125C253.184 3.9125 252.752 4.094 252.462 4.457C252.172 4.82 252.027 5.34433 252.027 6.03C252.027 6.68267 252.172 7.18867 252.462 7.548C252.752 7.90367 253.17 8.0815 253.716 8.0815C254.075 8.0815 254.385 8.00083 254.645 7.8395C254.909 7.6745 255.115 7.43983 255.261 7.1355L256.389 7.493C256.158 8.02467 255.808 8.43717 255.338 8.7305C254.869 9.02017 254.347 9.165 253.771 9.165ZM251.653 6.3545V5.458H255.894V6.3545H251.653ZM261.264 9C260.89 9.07333 260.523 9.1045 260.164 9.0935C259.805 9.0825 259.484 9.01283 259.201 8.8845C258.919 8.75617 258.706 8.5545 258.563 8.2795C258.435 8.03383 258.365 7.7845 258.354 7.5315C258.347 7.27483 258.343 6.98517 258.343 6.6625V1.41H259.498V6.6075C259.498 6.84583 259.5 7.053 259.504 7.229C259.511 7.405 259.55 7.5535 259.619 7.6745C259.751 7.90183 259.96 8.032 260.246 8.065C260.536 8.09433 260.875 8.0815 261.264 8.0265V9ZM257.205 3.984V3.06H261.264V3.984H257.205ZM264.359 9.165C263.919 9.165 263.55 9.08433 263.253 8.923C262.956 8.758 262.731 8.54167 262.577 8.274C262.426 8.00267 262.351 7.70567 262.351 7.383C262.351 7.08233 262.404 6.81833 262.511 6.591C262.617 6.36367 262.775 6.17117 262.984 6.0135C263.193 5.85217 263.449 5.722 263.754 5.623C264.018 5.546 264.317 5.47817 264.65 5.4195C264.984 5.36083 265.334 5.30583 265.701 5.2545C266.071 5.20317 266.438 5.15183 266.801 5.1005L266.383 5.3315C266.39 4.86583 266.291 4.52117 266.086 4.2975C265.884 4.07017 265.536 3.9565 265.041 3.9565C264.729 3.9565 264.443 4.02983 264.183 4.1765C263.922 4.3195 263.741 4.55783 263.638 4.8915L262.566 4.5615C262.712 4.05183 262.991 3.64667 263.402 3.346C263.816 3.04533 264.366 2.895 265.052 2.895C265.583 2.895 266.045 2.98667 266.438 3.17C266.834 3.34967 267.123 3.63567 267.307 4.028C267.402 4.22233 267.461 4.42767 267.483 4.644C267.505 4.86033 267.516 5.09317 267.516 5.3425V9H266.498V7.6415L266.696 7.8175C266.451 8.27217 266.137 8.61133 265.756 8.835C265.378 9.055 264.912 9.165 264.359 9.165ZM264.562 8.2245C264.889 8.2245 265.169 8.16767 265.404 8.054C265.638 7.93667 265.827 7.78817 265.97 7.6085C266.113 7.42883 266.207 7.24183 266.251 7.0475C266.313 6.8715 266.348 6.6735 266.355 6.4535C266.366 6.2335 266.372 6.0575 266.372 5.9255L266.746 6.063C266.383 6.118 266.053 6.1675 265.756 6.2115C265.459 6.2555 265.189 6.2995 264.947 6.3435C264.709 6.38383 264.496 6.43333 264.309 6.492C264.152 6.547 264.01 6.613 263.886 6.69C263.765 6.767 263.668 6.8605 263.594 6.9705C263.525 7.0805 263.49 7.21433 263.49 7.372C263.49 7.526 263.528 7.669 263.605 7.801C263.682 7.92933 263.8 8.032 263.957 8.109C264.115 8.186 264.317 8.2245 264.562 8.2245ZM269.219 2.0865V0.97H270.368V2.0865H269.219ZM269.219 9V3.06H270.368V9H269.219ZM272.295 9V0.915H273.445V9H272.295ZM278.173 9V2.851C278.173 2.70067 278.178 2.54117 278.189 2.3725C278.2 2.20017 278.232 2.0315 278.283 1.8665C278.338 1.69783 278.428 1.54383 278.552 1.4045C278.703 1.2395 278.868 1.12217 279.047 1.0525C279.227 0.982833 279.405 0.942499 279.581 0.931499C279.761 0.9205 279.926 0.915 280.076 0.915H280.824V1.861H280.131C279.86 1.861 279.656 1.92883 279.52 2.0645C279.388 2.1965 279.322 2.38533 279.322 2.631V9H278.173ZM277.188 3.984V3.06H280.824V3.984H277.188ZM284.229 9.165C283.635 9.165 283.12 9.03117 282.684 8.7635C282.248 8.49583 281.91 8.12733 281.672 7.658C281.437 7.185 281.32 6.6405 281.32 6.0245C281.32 5.40483 281.441 4.86033 281.683 4.391C281.925 3.918 282.264 3.55133 282.7 3.291C283.137 3.027 283.646 2.895 284.229 2.895C284.823 2.895 285.339 3.02883 285.775 3.2965C286.211 3.56417 286.549 3.93267 286.787 4.402C287.025 4.87133 287.144 5.41217 287.144 6.0245C287.144 6.64417 287.023 7.1905 286.781 7.6635C286.543 8.13283 286.206 8.50133 285.769 8.769C285.333 9.033 284.82 9.165 284.229 9.165ZM284.229 8.0815C284.798 8.0815 285.221 7.89083 285.5 7.5095C285.782 7.1245 285.923 6.6295 285.923 6.0245C285.923 5.40483 285.78 4.90983 285.494 4.5395C285.212 4.1655 284.79 3.9785 284.229 3.9785C283.844 3.9785 283.527 4.0665 283.278 4.2425C283.029 4.41483 282.843 4.655 282.722 4.963C282.601 5.26733 282.541 5.62117 282.541 6.0245C282.541 6.64783 282.684 7.1465 282.97 7.5205C283.256 7.8945 283.676 8.0815 284.229 8.0815ZM288.518 9V3.06H289.541V4.501L289.398 4.314C289.471 4.12333 289.567 3.94917 289.684 3.7915C289.801 3.63017 289.937 3.49817 290.091 3.3955C290.241 3.2855 290.408 3.20117 290.591 3.1425C290.778 3.08017 290.969 3.0435 291.163 3.0325C291.358 3.01783 291.545 3.027 291.724 3.06V4.138C291.53 4.08667 291.314 4.072 291.075 4.094C290.841 4.116 290.624 4.19117 290.426 4.3195C290.239 4.4405 290.091 4.58717 289.981 4.7595C289.875 4.93183 289.798 5.12433 289.75 5.337C289.702 5.546 289.678 5.76783 289.678 6.0025V9H288.518ZM297.543 9.1595C297.132 9.1595 296.787 9.0935 296.509 8.9615C296.23 8.8295 296.003 8.65717 295.827 8.4445C295.654 8.22817 295.522 7.9935 295.431 7.7405C295.339 7.4875 295.277 7.24 295.244 6.998C295.211 6.756 295.194 6.54333 295.194 6.36V3.06H296.36V5.9805C296.36 6.2115 296.378 6.44983 296.415 6.6955C296.455 6.9375 296.529 7.163 296.635 7.372C296.745 7.581 296.897 7.74967 297.092 7.878C297.29 8.00633 297.546 8.0705 297.862 8.0705C298.067 8.0705 298.261 8.0375 298.445 7.9715C298.628 7.90183 298.787 7.79183 298.923 7.6415C299.062 7.49117 299.171 7.29317 299.248 7.0475C299.328 6.80183 299.369 6.503 299.369 6.151L300.084 6.4205C300.084 6.9595 299.983 7.43617 299.781 7.8505C299.579 8.26117 299.29 8.582 298.912 8.813C298.534 9.044 298.078 9.1595 297.543 9.1595ZM299.506 9V7.284H299.369V3.06H300.529V9H299.506ZM305.025 9.165C304.457 9.165 303.98 9.0275 303.595 8.7525C303.21 8.47383 302.919 8.098 302.721 7.625C302.523 7.152 302.424 6.6185 302.424 6.0245C302.424 5.4305 302.521 4.897 302.715 4.424C302.913 3.951 303.203 3.57883 303.584 3.3075C303.969 3.0325 304.442 2.895 305.003 2.895C305.56 2.895 306.041 3.0325 306.444 3.3075C306.851 3.57883 307.165 3.951 307.385 4.424C307.605 4.89333 307.715 5.42683 307.715 6.0245C307.715 6.6185 307.605 7.15383 307.385 7.6305C307.168 8.1035 306.858 8.4775 306.455 8.7525C306.055 9.0275 305.579 9.165 305.025 9.165ZM302.231 11.64V3.06H303.254V7.3335H303.386V11.64H302.231ZM304.866 8.1255C305.232 8.1255 305.535 8.032 305.773 7.845C306.015 7.658 306.195 7.40683 306.312 7.0915C306.433 6.7725 306.494 6.41683 306.494 6.0245C306.494 5.63583 306.433 5.28383 306.312 4.9685C306.195 4.65317 306.013 4.402 305.768 4.215C305.522 4.028 305.208 3.9345 304.827 3.9345C304.468 3.9345 304.171 4.0225 303.936 4.1985C303.705 4.3745 303.533 4.62017 303.419 4.9355C303.309 5.25083 303.254 5.61383 303.254 6.0245C303.254 6.43517 303.309 6.79817 303.419 7.1135C303.529 7.42883 303.703 7.67633 303.942 7.856C304.18 8.03567 304.488 8.1255 304.866 8.1255ZM311.453 9.165C310.9 9.165 310.421 9.0275 310.018 8.7525C309.618 8.4775 309.308 8.1035 309.088 7.6305C308.872 7.15383 308.764 6.6185 308.764 6.0245C308.764 5.42683 308.874 4.89333 309.094 4.424C309.314 3.951 309.626 3.57883 310.029 3.3075C310.436 3.0325 310.918 2.895 311.475 2.895C312.036 2.895 312.508 3.0325 312.889 3.3075C313.274 3.57883 313.564 3.951 313.758 4.424C313.956 4.897 314.055 5.4305 314.055 6.0245C314.055 6.6185 313.956 7.152 313.758 7.625C313.56 8.098 313.268 8.47383 312.883 8.7525C312.498 9.0275 312.022 9.165 311.453 9.165ZM311.613 8.1255C311.991 8.1255 312.299 8.03567 312.537 7.856C312.775 7.67633 312.949 7.42883 313.059 7.1135C313.169 6.79817 313.224 6.43517 313.224 6.0245C313.224 5.61383 313.168 5.25083 313.054 4.9355C312.944 4.62017 312.772 4.3745 312.537 4.1985C312.306 4.0225 312.011 3.9345 311.651 3.9345C311.27 3.9345 310.957 4.028 310.711 4.215C310.465 4.402 310.282 4.65317 310.161 4.9685C310.044 5.28383 309.985 5.63583 309.985 6.0245C309.985 6.41683 310.044 6.7725 310.161 7.0915C310.282 7.40683 310.462 7.658 310.7 7.845C310.942 8.032 311.246 8.1255 311.613 8.1255ZM313.224 9V4.7265H313.092V1.08H314.247V9H313.224ZM317.629 9.165C317.189 9.165 316.82 9.08433 316.523 8.923C316.226 8.758 316.001 8.54167 315.847 8.274C315.697 8.00267 315.621 7.70567 315.621 7.383C315.621 7.08233 315.675 6.81833 315.781 6.591C315.887 6.36367 316.045 6.17117 316.254 6.0135C316.463 5.85217 316.72 5.722 317.024 5.623C317.288 5.546 317.587 5.47817 317.92 5.4195C318.254 5.36083 318.604 5.30583 318.971 5.2545C319.341 5.20317 319.708 5.15183 320.071 5.1005L319.653 5.3315C319.66 4.86583 319.561 4.52117 319.356 4.2975C319.154 4.07017 318.806 3.9565 318.311 3.9565C317.999 3.9565 317.713 4.02983 317.453 4.1765C317.193 4.3195 317.011 4.55783 316.908 4.8915L315.836 4.5615C315.983 4.05183 316.261 3.64667 316.672 3.346C317.086 3.04533 317.636 2.895 318.322 2.895C318.854 2.895 319.316 2.98667 319.708 3.17C320.104 3.34967 320.394 3.63567 320.577 4.028C320.672 4.22233 320.731 4.42767 320.753 4.644C320.775 4.86033 320.786 5.09317 320.786 5.3425V9H319.768V7.6415L319.966 7.8175C319.721 8.27217 319.407 8.61133 319.026 8.835C318.648 9.055 318.183 9.165 317.629 9.165ZM317.832 8.2245C318.159 8.2245 318.439 8.16767 318.674 8.054C318.909 7.93667 319.097 7.78817 319.24 7.6085C319.383 7.42883 319.477 7.24183 319.521 7.0475C319.583 6.8715 319.618 6.6735 319.625 6.4535C319.636 6.2335 319.642 6.0575 319.642 5.9255L320.016 6.063C319.653 6.118 319.323 6.1675 319.026 6.2115C318.729 6.2555 318.459 6.2995 318.217 6.3435C317.979 6.38383 317.766 6.43333 317.579 6.492C317.422 6.547 317.281 6.613 317.156 6.69C317.035 6.767 316.938 6.8605 316.864 6.9705C316.795 7.0805 316.76 7.21433 316.76 7.372C316.76 7.526 316.798 7.669 316.875 7.801C316.952 7.92933 317.07 8.032 317.227 8.109C317.385 8.186 317.587 8.2245 317.832 8.2245ZM325.778 9C325.404 9.07333 325.037 9.1045 324.678 9.0935C324.319 9.0825 323.998 9.01283 323.716 8.8845C323.433 8.75617 323.221 8.5545 323.078 8.2795C322.949 8.03383 322.88 7.7845 322.869 7.5315C322.861 7.27483 322.858 6.98517 322.858 6.6625V1.41H324.013V6.6075C324.013 6.84583 324.014 7.053 324.018 7.229C324.025 7.405 324.064 7.5535 324.134 7.6745C324.266 7.90183 324.475 8.032 324.761 8.065C325.05 8.09433 325.389 8.0815 325.778 8.0265V9ZM321.719 3.984V3.06H325.778V3.984H321.719ZM329.561 9.165C328.971 9.165 328.452 9.03667 328.005 8.78C327.561 8.51967 327.215 8.1585 326.965 7.6965C326.72 7.23083 326.597 6.69183 326.597 6.0795C326.597 5.4305 326.718 4.86767 326.96 4.391C327.206 3.91433 327.547 3.54583 327.983 3.2855C328.419 3.02517 328.927 2.895 329.506 2.895C330.111 2.895 330.627 3.03617 331.052 3.3185C331.477 3.59717 331.794 3.995 332.003 4.512C332.216 5.029 332.3 5.64317 332.256 6.3545H331.107V5.9365C331.1 5.24717 330.968 4.7375 330.711 4.4075C330.458 4.0775 330.071 3.9125 329.55 3.9125C328.975 3.9125 328.542 4.094 328.252 4.457C327.963 4.82 327.818 5.34433 327.818 6.03C327.818 6.68267 327.963 7.18867 328.252 7.548C328.542 7.90367 328.96 8.0815 329.506 8.0815C329.866 8.0815 330.176 8.00083 330.436 7.8395C330.7 7.6745 330.905 7.43983 331.052 7.1355L332.179 7.493C331.948 8.02467 331.598 8.43717 331.129 8.7305C330.66 9.02017 330.137 9.165 329.561 9.165ZM327.444 6.3545V5.458H331.684V6.3545H327.444ZM336.015 9.165C335.461 9.165 334.983 9.0275 334.579 8.7525C334.18 8.4775 333.87 8.1035 333.65 7.6305C333.434 7.15383 333.325 6.6185 333.325 6.0245C333.325 5.42683 333.435 4.89333 333.655 4.424C333.875 3.951 334.187 3.57883 334.59 3.3075C334.997 3.0325 335.48 2.895 336.037 2.895C336.598 2.895 337.069 3.0325 337.45 3.3075C337.835 3.57883 338.125 3.951 338.319 4.424C338.517 4.897 338.616 5.4305 338.616 6.0245C338.616 6.6185 338.517 7.152 338.319 7.625C338.121 8.098 337.83 8.47383 337.445 8.7525C337.06 9.0275 336.583 9.165 336.015 9.165ZM336.174 8.1255C336.552 8.1255 336.86 8.03567 337.098 7.856C337.337 7.67633 337.511 7.42883 337.621 7.1135C337.731 6.79817 337.786 6.43517 337.786 6.0245C337.786 5.61383 337.729 5.25083 337.615 4.9355C337.505 4.62017 337.333 4.3745 337.098 4.1985C336.867 4.0225 336.572 3.9345 336.213 3.9345C335.832 3.9345 335.518 4.028 335.272 4.215C335.027 4.402 334.843 4.65317 334.722 4.9685C334.605 5.28383 334.546 5.63583 334.546 6.0245C334.546 6.41683 334.605 6.7725 334.722 7.0915C334.843 7.40683 335.023 7.658 335.261 7.845C335.503 8.032 335.808 8.1255 336.174 8.1255ZM337.786 9V4.7265H337.654V1.08H338.809V9H337.786ZM3.311 26.165C2.70233 26.165 2.18533 26.0293 1.76 25.758C1.33467 25.4867 1.00833 25.1145 0.781 24.6415C0.557333 24.1685 0.443667 23.6313 0.44 23.03C0.443667 22.4177 0.561 21.8768 0.792 21.4075C1.023 20.9345 1.353 20.5642 1.782 20.2965C2.211 20.0288 2.72617 19.895 3.3275 19.895C3.9765 19.895 4.53017 20.0563 4.9885 20.379C5.4505 20.7017 5.75483 21.1435 5.9015 21.7045L4.7575 22.0345C4.64383 21.7008 4.45683 21.4423 4.1965 21.259C3.93983 21.072 3.64467 20.9785 3.311 20.9785C2.93333 20.9785 2.6235 21.0683 2.3815 21.248C2.1395 21.424 1.95983 21.666 1.8425 21.974C1.72517 22.282 1.66467 22.634 1.661 23.03C1.66467 23.6423 1.804 24.1373 2.079 24.515C2.35767 24.8927 2.76833 25.0815 3.311 25.0815C3.68133 25.0815 3.98017 24.9972 4.2075 24.8285C4.4385 24.6562 4.6145 24.4105 4.7355 24.0915L5.9015 24.3665C5.70717 24.9458 5.38633 25.3913 4.939 25.703C4.49167 26.011 3.949 26.165 3.311 26.165ZM8.78926 26.165C8.34926 26.165 7.98076 26.0843 7.68376 25.923C7.38676 25.758 7.16126 25.5417 7.00726 25.274C6.85692 25.0027 6.78176 24.7057 6.78176 24.383C6.78176 24.0823 6.83492 23.8183 6.94126 23.591C7.04759 23.3637 7.20526 23.1712 7.41426 23.0135C7.62326 22.8522 7.87992 22.722 8.18426 22.623C8.44826 22.546 8.74709 22.4782 9.08076 22.4195C9.41442 22.3608 9.76459 22.3058 10.1313 22.2545C10.5016 22.2032 10.8683 22.1518 11.2313 22.1005L10.8133 22.3315C10.8206 21.8658 10.7216 21.5212 10.5163 21.2975C10.3146 21.0702 9.96626 20.9565 9.47126 20.9565C9.15959 20.9565 8.87359 21.0298 8.61326 21.1765C8.35292 21.3195 8.17142 21.5578 8.06876 21.8915L6.99626 21.5615C7.14292 21.0518 7.42159 20.6467 7.83226 20.346C8.24659 20.0453 8.79659 19.895 9.48226 19.895C10.0139 19.895 10.4759 19.9867 10.8683 20.17C11.2643 20.3497 11.5539 20.6357 11.7373 21.028C11.8326 21.2223 11.8913 21.4277 11.9133 21.644C11.9353 21.8603 11.9463 22.0932 11.9463 22.3425V26H10.9288V24.6415L11.1268 24.8175C10.8811 25.2722 10.5676 25.6113 10.1863 25.835C9.80859 26.055 9.34292 26.165 8.78926 26.165ZM8.99276 25.2245C9.31909 25.2245 9.59959 25.1677 9.83426 25.054C10.0689 24.9367 10.2578 24.7882 10.4008 24.6085C10.5438 24.4288 10.6373 24.2418 10.6813 24.0475C10.7436 23.8715 10.7784 23.6735 10.7858 23.4535C10.7968 23.2335 10.8023 23.0575 10.8023 22.9255L11.1763 23.063C10.8133 23.118 10.4833 23.1675 10.1863 23.2115C9.88926 23.2555 9.61976 23.2995 9.37776 23.3435C9.13942 23.3838 8.92676 23.4333 8.73976 23.492C8.58209 23.547 8.44092 23.613 8.31626 23.69C8.19526 23.767 8.09809 23.8605 8.02476 23.9705C7.95509 24.0805 7.92026 24.2143 7.92026 24.372C7.92026 24.526 7.95876 24.669 8.03576 24.801C8.11276 24.9293 8.23009 25.032 8.38776 25.109C8.54542 25.186 8.74709 25.2245 8.99276 25.2245ZM13.5395 26V20.06H14.5625V21.501L14.4195 21.314C14.4928 21.1233 14.5881 20.9492 14.7055 20.7915C14.8228 20.6302 14.9585 20.4982 15.1125 20.3955C15.2628 20.2855 15.4296 20.2012 15.613 20.1425C15.8 20.0802 15.9906 20.0435 16.185 20.0325C16.3793 20.0178 16.5663 20.027 16.746 20.06V21.138C16.5516 21.0867 16.3353 21.072 16.097 21.094C15.8623 21.116 15.646 21.1912 15.448 21.3195C15.261 21.4405 15.1125 21.5872 15.0025 21.7595C14.8961 21.9318 14.8191 22.1243 14.7715 22.337C14.7238 22.546 14.7 22.7678 14.7 23.0025V26H13.5395ZM21.3574 26C20.9834 26.0733 20.6167 26.1045 20.2574 26.0935C19.898 26.0825 19.5772 26.0128 19.2949 25.8845C19.0125 25.7562 18.7999 25.5545 18.6569 25.2795C18.5285 25.0338 18.4589 24.7845 18.4479 24.5315C18.4405 24.2748 18.4369 23.9852 18.4369 23.6625V18.41H19.5919V23.6075C19.5919 23.8458 19.5937 24.053 19.5974 24.229C19.6047 24.405 19.6432 24.5535 19.7129 24.6745C19.8449 24.9018 20.0539 25.032 20.3399 25.065C20.6295 25.0943 20.9687 25.0815 21.3574 25.0265V26ZM17.2984 20.984V20.06H21.3574V20.984H17.2984ZM27.9304 26.165C27.362 26.165 26.8854 26.0275 26.5004 25.7525C26.1154 25.4738 25.8239 25.098 25.6259 24.625C25.4279 24.152 25.3289 23.6185 25.3289 23.0245C25.3289 22.4305 25.426 21.897 25.6204 21.424C25.8184 20.951 26.108 20.5788 26.4894 20.3075C26.8744 20.0325 27.3474 19.895 27.9084 19.895C28.4657 19.895 28.946 20.0325 29.3494 20.3075C29.7564 20.5788 30.0699 20.951 30.2899 21.424C30.5099 21.8933 30.6199 22.4268 30.6199 23.0245C30.6199 23.6185 30.5099 24.1538 30.2899 24.6305C30.0735 25.1035 29.7637 25.4775 29.3604 25.7525C28.9607 26.0275 28.484 26.165 27.9304 26.165ZM25.1364 26V18.08H26.2914V21.7265H26.1594V26H25.1364ZM27.7709 25.1255C28.1375 25.1255 28.44 25.032 28.6784 24.845C28.9204 24.658 29.1 24.4068 29.2174 24.0915C29.3384 23.7725 29.3989 23.4168 29.3989 23.0245C29.3989 22.6358 29.3384 22.2838 29.2174 21.9685C29.1 21.6532 28.9185 21.402 28.6729 21.215C28.4272 21.028 28.1137 20.9345 27.7324 20.9345C27.373 20.9345 27.076 21.0225 26.8414 21.1985C26.6104 21.3745 26.438 21.6202 26.3244 21.9355C26.2144 22.2508 26.1594 22.6138 26.1594 23.0245C26.1594 23.4352 26.2144 23.7982 26.3244 24.1135C26.4344 24.4288 26.6085 24.6763 26.8469 24.856C27.0852 25.0357 27.3932 25.1255 27.7709 25.1255ZM34.6338 26.165C34.0434 26.165 33.5246 26.0367 33.0773 25.78C32.6336 25.5197 32.2871 25.1585 32.0378 24.6965C31.7921 24.2308 31.6693 23.6918 31.6693 23.0795C31.6693 22.4305 31.7903 21.8677 32.0323 21.391C32.2779 20.9143 32.6189 20.5458 33.0553 20.2855C33.4916 20.0252 33.9994 19.895 34.5788 19.895C35.1838 19.895 35.6989 20.0362 36.1243 20.3185C36.5496 20.5972 36.8668 20.995 37.0758 21.512C37.2884 22.029 37.3728 22.6432 37.3288 23.3545H36.1793V22.9365C36.1719 22.2472 36.0399 21.7375 35.7833 21.4075C35.5303 21.0775 35.1434 20.9125 34.6228 20.9125C34.0471 20.9125 33.6144 21.094 33.3248 21.457C33.0351 21.82 32.8903 22.3443 32.8903 23.03C32.8903 23.6827 33.0351 24.1887 33.3248 24.548C33.6144 24.9037 34.0324 25.0815 34.5788 25.0815C34.9381 25.0815 35.2479 25.0008 35.5083 24.8395C35.7723 24.6745 35.9776 24.4398 36.1243 24.1355L37.2518 24.493C37.0208 25.0247 36.6706 25.4372 36.2013 25.7305C35.7319 26.0202 35.2094 26.165 34.6338 26.165ZM32.5163 23.3545V22.458H36.7568V23.3545H32.5163ZM39.2722 26V19.851C39.2722 19.7007 39.2777 19.5412 39.2887 19.3725C39.2997 19.2002 39.3309 19.0315 39.3822 18.8665C39.4372 18.6978 39.5271 18.5438 39.6517 18.4045C39.8021 18.2395 39.9671 18.1222 40.1467 18.0525C40.3264 17.9828 40.5042 17.9425 40.6802 17.9315C40.8599 17.9205 41.0249 17.915 41.1752 17.915H41.9232V18.861H41.2302C40.9589 18.861 40.7554 18.9288 40.6197 19.0645C40.4877 19.1965 40.4217 19.3853 40.4217 19.631V26H39.2722ZM38.2877 20.984V20.06H41.9232V20.984H38.2877ZM45.3287 26.165C44.7347 26.165 44.2195 26.0312 43.7832 25.7635C43.3468 25.4958 43.0095 25.1273 42.7712 24.658C42.5365 24.185 42.4192 23.6405 42.4192 23.0245C42.4192 22.4048 42.5402 21.8603 42.7822 21.391C43.0242 20.918 43.3633 20.5513 43.7997 20.291C44.236 20.027 44.7457 19.895 45.3287 19.895C45.9227 19.895 46.4378 20.0288 46.8742 20.2965C47.3105 20.5642 47.6478 20.9327 47.8862 21.402C48.1245 21.8713 48.2437 22.4122 48.2437 23.0245C48.2437 23.6442 48.1227 24.1905 47.8807 24.6635C47.6423 25.1328 47.305 25.5013 46.8687 25.769C46.4323 26.033 45.919 26.165 45.3287 26.165ZM45.3287 25.0815C45.897 25.0815 46.3205 24.8908 46.5992 24.5095C46.8815 24.1245 47.0227 23.6295 47.0227 23.0245C47.0227 22.4048 46.8797 21.9098 46.5937 21.5395C46.3113 21.1655 45.8897 20.9785 45.3287 20.9785C44.9437 20.9785 44.6265 21.0665 44.3772 21.2425C44.1278 21.4148 43.9427 21.655 43.8217 21.963C43.7007 22.2673 43.6402 22.6212 43.6402 23.0245C43.6402 23.6478 43.7832 24.1465 44.0692 24.5205C44.3552 24.8945 44.775 25.0815 45.3287 25.0815ZM49.6173 26V20.06H50.6403V21.501L50.4973 21.314C50.5706 21.1233 50.666 20.9492 50.7833 20.7915C50.9006 20.6302 51.0363 20.4982 51.1903 20.3955C51.3406 20.2855 51.5075 20.2012 51.6908 20.1425C51.8778 20.0802 52.0685 20.0435 52.2628 20.0325C52.4571 20.0178 52.6441 20.027 52.8238 20.06V21.138C52.6295 21.0867 52.4131 21.072 52.1748 21.094C51.9401 21.116 51.7238 21.1912 51.5258 21.3195C51.3388 21.4405 51.1903 21.5872 51.0803 21.7595C50.974 21.9318 50.897 22.1243 50.8493 22.337C50.8016 22.546 50.7778 22.7678 50.7778 23.0025V26H49.6173ZM56.5633 26.165C55.973 26.165 55.4541 26.0367 55.0068 25.78C54.5631 25.5197 54.2166 25.1585 53.9673 24.6965C53.7216 24.2308 53.5988 23.6918 53.5988 23.0795C53.5988 22.4305 53.7198 21.8677 53.9618 21.391C54.2075 20.9143 54.5485 20.5458 54.9848 20.2855C55.4211 20.0252 55.929 19.895 56.5083 19.895C57.1133 19.895 57.6285 20.0362 58.0538 20.3185C58.4791 20.5972 58.7963 20.995 59.0053 21.512C59.218 22.029 59.3023 22.6432 59.2583 23.3545H58.1088V22.9365C58.1015 22.2472 57.9695 21.7375 57.7128 21.4075C57.4598 21.0775 57.073 20.9125 56.5523 20.9125C55.9766 20.9125 55.544 21.094 55.2543 21.457C54.9646 21.82 54.8198 22.3443 54.8198 23.03C54.8198 23.6827 54.9646 24.1887 55.2543 24.548C55.544 24.9037 55.962 25.0815 56.5083 25.0815C56.8676 25.0815 57.1775 25.0008 57.4378 24.8395C57.7018 24.6745 57.9071 24.4398 58.0538 24.1355L59.1813 24.493C58.9503 25.0247 58.6001 25.4372 58.1308 25.7305C57.6615 26.0202 57.139 26.165 56.5633 26.165ZM54.4458 23.3545V22.458H58.6863V23.3545H54.4458ZM70.1414 26L70.1469 22.2985C70.1469 21.8695 70.0369 21.5358 69.8169 21.2975C69.5969 21.0555 69.3072 20.9345 68.9479 20.9345C68.7279 20.9345 68.5262 20.9858 68.3429 21.0885C68.1632 21.1875 68.0166 21.3378 67.9029 21.5395C67.7929 21.7375 67.7379 21.9868 67.7379 22.2875L67.1824 22.007C67.1751 21.589 67.2631 21.2223 67.4464 20.907C67.6334 20.5917 67.8864 20.3478 68.2054 20.1755C68.5244 19.9995 68.8819 19.9115 69.2779 19.9115C69.9196 19.9115 70.4164 20.104 70.7684 20.489C71.1204 20.874 71.2964 21.3855 71.2964 22.0235L71.2909 26H70.1414ZM63.0189 26V20.06H64.0419V21.776H64.1739V26H63.0189ZM66.5829 26L66.5884 22.3205C66.5884 21.8878 66.4784 21.5487 66.2584 21.303C66.0421 21.0573 65.7506 20.9345 65.3839 20.9345C65.0209 20.9345 64.7276 21.0592 64.5039 21.3085C64.2839 21.5578 64.1739 21.8842 64.1739 22.2875L63.6239 21.9355C63.6239 21.5468 63.7174 21.2003 63.9044 20.896C64.0914 20.5917 64.3444 20.3515 64.6634 20.1755C64.9824 19.9995 65.3436 19.9115 65.7469 19.9115C66.1686 19.9115 66.5279 20.0013 66.8249 20.181C67.1219 20.357 67.3474 20.6045 67.5014 20.9235C67.6591 21.2425 67.7379 21.6128 67.7379 22.0345L67.7324 26H66.5829ZM74.5671 26.165C74.1271 26.165 73.7586 26.0843 73.4616 25.923C73.1646 25.758 72.9391 25.5417 72.7851 25.274C72.6348 25.0027 72.5596 24.7057 72.5596 24.383C72.5596 24.0823 72.6128 23.8183 72.7191 23.591C72.8254 23.3637 72.9831 23.1712 73.1921 23.0135C73.4011 22.8522 73.6578 22.722 73.9621 22.623C74.2261 22.546 74.5249 22.4782 74.8586 22.4195C75.1923 22.3608 75.5424 22.3058 75.9091 22.2545C76.2794 22.2032 76.6461 22.1518 77.0091 22.1005L76.5911 22.3315C76.5984 21.8658 76.4994 21.5212 76.2941 21.2975C76.0924 21.0702 75.7441 20.9565 75.2491 20.9565C74.9374 20.9565 74.6514 21.0298 74.3911 21.1765C74.1308 21.3195 73.9493 21.5578 73.8466 21.8915L72.7741 21.5615C72.9208 21.0518 73.1994 20.6467 73.6101 20.346C74.0244 20.0453 74.5744 19.895 75.2601 19.895C75.7918 19.895 76.2538 19.9867 76.6461 20.17C77.0421 20.3497 77.3318 20.6357 77.5151 21.028C77.6104 21.2223 77.6691 21.4277 77.6911 21.644C77.7131 21.8603 77.7241 22.0932 77.7241 22.3425V26H76.7066V24.6415L76.9046 24.8175C76.6589 25.2722 76.3454 25.6113 75.9641 25.835C75.5864 26.055 75.1208 26.165 74.5671 26.165ZM74.7706 25.2245C75.0969 25.2245 75.3774 25.1677 75.6121 25.054C75.8468 24.9367 76.0356 24.7882 76.1786 24.6085C76.3216 24.4288 76.4151 24.2418 76.4591 24.0475C76.5214 23.8715 76.5563 23.6735 76.5636 23.4535C76.5746 23.2335 76.5801 23.0575 76.5801 22.9255L76.9541 23.063C76.5911 23.118 76.2611 23.1675 75.9641 23.2115C75.6671 23.2555 75.3976 23.2995 75.1556 23.3435C74.9173 23.3838 74.7046 23.4333 74.5176 23.492C74.3599 23.547 74.2188 23.613 74.0941 23.69C73.9731 23.767 73.8759 23.8605 73.8026 23.9705C73.7329 24.0805 73.6981 24.2143 73.6981 24.372C73.6981 24.526 73.7366 24.669 73.8136 24.801C73.8906 24.9293 74.0079 25.032 74.1656 25.109C74.3233 25.186 74.5249 25.2245 74.7706 25.2245ZM79.3118 26L79.3173 18.08H80.4833V22.92L82.8153 20.06H84.2783L81.8143 23.03L84.5313 26H82.9693L80.4833 23.14V26H79.3118ZM85.3609 19.0865V17.97H86.5104V19.0865H85.3609ZM85.3609 26V20.06H86.5104V26H85.3609ZM92.496 26V23.0795C92.496 22.8485 92.4758 22.612 92.4355 22.37C92.3988 22.1243 92.3255 21.897 92.2155 21.688C92.1092 21.479 91.957 21.3103 91.759 21.182C91.5647 21.0537 91.3098 20.9895 90.9945 20.9895C90.7892 20.9895 90.5948 21.0243 90.4115 21.094C90.2282 21.16 90.0668 21.2682 89.9275 21.4185C89.7918 21.5688 89.6837 21.7668 89.603 22.0125C89.526 22.2582 89.4875 22.557 89.4875 22.909L88.7725 22.6395C88.7725 22.1005 88.8733 21.6257 89.075 21.215C89.2767 20.8007 89.5663 20.478 89.944 20.247C90.3217 20.016 90.7782 19.9005 91.3135 19.9005C91.7242 19.9005 92.0688 19.9665 92.3475 20.0985C92.6262 20.2305 92.8517 20.4047 93.024 20.621C93.2 20.8337 93.3338 21.0665 93.4255 21.3195C93.5172 21.5725 93.5795 21.82 93.6125 22.062C93.6455 22.304 93.662 22.5167 93.662 22.7V26H92.496ZM88.3215 26V20.06H89.35V21.776H89.4875V26H88.3215ZM97.7071 28.805C97.3881 28.805 97.0782 28.7555 96.7776 28.6565C96.4806 28.5575 96.2092 28.4108 95.9636 28.2165C95.7179 28.0258 95.5144 27.7893 95.3531 27.507L96.4146 26.968C96.5429 27.221 96.7262 27.4062 96.9646 27.5235C97.2029 27.6408 97.4541 27.6995 97.7181 27.6995C98.0444 27.6995 98.3231 27.6408 98.5541 27.5235C98.7851 27.4098 98.9592 27.2375 99.0766 27.0065C99.1976 26.7755 99.2562 26.4895 99.2526 26.1485V24.4875H99.3901V20.06H100.408V26.1595C100.408 26.3172 100.402 26.4675 100.391 26.6105C100.38 26.7535 100.36 26.8965 100.331 27.0395C100.246 27.4392 100.085 27.7692 99.8466 28.0295C99.6119 28.2898 99.3112 28.4842 98.9446 28.6125C98.5816 28.7408 98.1691 28.805 97.7071 28.805ZM97.6191 26.165C97.0654 26.165 96.5869 26.0275 96.1836 25.7525C95.7839 25.4775 95.4741 25.1035 95.2541 24.6305C95.0377 24.1538 94.9296 23.6185 94.9296 23.0245C94.9296 22.4268 95.0396 21.8933 95.2596 21.424C95.4796 20.951 95.7912 20.5788 96.1946 20.3075C96.6016 20.0325 97.0837 19.895 97.6411 19.895C98.2021 19.895 98.6732 20.0325 99.0546 20.3075C99.4396 20.5788 99.7292 20.951 99.9236 21.424C100.122 21.897 100.221 22.4305 100.221 23.0245C100.221 23.6185 100.122 24.152 99.9236 24.625C99.7256 25.098 99.4341 25.4738 99.0491 25.7525C98.6641 26.0275 98.1874 26.165 97.6191 26.165ZM97.7786 25.1255C98.1562 25.1255 98.4642 25.0357 98.7026 24.856C98.9409 24.6763 99.1151 24.4288 99.2251 24.1135C99.3351 23.7982 99.3901 23.4352 99.3901 23.0245C99.3901 22.6138 99.3332 22.2508 99.2196 21.9355C99.1096 21.6202 98.9372 21.3745 98.7026 21.1985C98.4716 21.0225 98.1764 20.9345 97.8171 20.9345C97.4357 20.9345 97.1222 21.028 96.8766 21.215C96.6309 21.402 96.4476 21.6532 96.3266 21.9685C96.2092 22.2838 96.1506 22.6358 96.1506 23.0245C96.1506 23.4168 96.2092 23.7725 96.3266 24.0915C96.4476 24.4068 96.6272 24.658 96.8656 24.845C97.1076 25.032 97.4119 25.1255 97.7786 25.1255ZM107.883 26C107.509 26.0733 107.142 26.1045 106.783 26.0935C106.424 26.0825 106.103 26.0128 105.821 25.8845C105.538 25.7562 105.326 25.5545 105.183 25.2795C105.054 25.0338 104.985 24.7845 104.974 24.5315C104.966 24.2748 104.963 23.9852 104.963 23.6625V18.41H106.118V23.6075C106.118 23.8458 106.119 24.053 106.123 24.229C106.13 24.405 106.169 24.5535 106.239 24.6745C106.371 24.9018 106.58 25.032 106.866 25.065C107.155 25.0943 107.494 25.0815 107.883 25.0265V26ZM103.824 20.984V20.06H107.883V20.984H103.824ZM113.469 26V23.0795C113.469 22.8485 113.449 22.612 113.409 22.37C113.372 22.1243 113.299 21.897 113.189 21.688C113.083 21.479 112.93 21.3103 112.732 21.182C112.538 21.0537 112.283 20.9895 111.968 20.9895C111.763 20.9895 111.568 21.0243 111.385 21.094C111.202 21.16 111.04 21.2682 110.901 21.4185C110.765 21.5688 110.657 21.7668 110.576 22.0125C110.499 22.2582 110.461 22.557 110.461 22.909L109.746 22.6395C109.746 22.1005 109.847 21.6257 110.048 21.215C110.25 20.8007 110.54 20.478 110.917 20.247C111.295 20.016 111.752 19.9005 112.287 19.9005C112.698 19.9005 113.042 19.9665 113.321 20.0985C113.6 20.2305 113.825 20.4047 113.997 20.621C114.173 20.8337 114.307 21.0665 114.399 21.3195C114.491 21.5725 114.553 21.82 114.586 22.062C114.619 22.304 114.635 22.5167 114.635 22.7V26H113.469ZM109.295 26V18.08H110.323V22.3535H110.461V26H109.295ZM118.868 26.165C118.277 26.165 117.758 26.0367 117.311 25.78C116.867 25.5197 116.521 25.1585 116.272 24.6965C116.026 24.2308 115.903 23.6918 115.903 23.0795C115.903 22.4305 116.024 21.8677 116.266 21.391C116.512 20.9143 116.853 20.5458 117.289 20.2855C117.725 20.0252 118.233 19.895 118.813 19.895C119.418 19.895 119.933 20.0362 120.358 20.3185C120.783 20.5972 121.101 20.995 121.31 21.512C121.522 22.029 121.607 22.6432 121.563 23.3545H120.413V22.9365C120.406 22.2472 120.274 21.7375 120.017 21.4075C119.764 21.0775 119.377 20.9125 118.857 20.9125C118.281 20.9125 117.848 21.094 117.559 21.457C117.269 21.82 117.124 22.3443 117.124 23.03C117.124 23.6827 117.269 24.1887 117.559 24.548C117.848 24.9037 118.266 25.0815 118.813 25.0815C119.172 25.0815 119.482 25.0008 119.742 24.8395C120.006 24.6745 120.211 24.4398 120.358 24.1355L121.486 24.493C121.255 25.0247 120.904 25.4372 120.435 25.7305C119.966 26.0202 119.443 26.165 118.868 26.165ZM116.75 23.3545V22.458H120.991V23.3545H116.75ZM128.117 26.165C127.549 26.165 127.072 26.0275 126.687 25.7525C126.302 25.4738 126.011 25.098 125.813 24.625C125.615 24.152 125.516 23.6185 125.516 23.0245C125.516 22.4305 125.613 21.897 125.807 21.424C126.005 20.951 126.295 20.5788 126.676 20.3075C127.061 20.0325 127.534 19.895 128.095 19.895C128.653 19.895 129.133 20.0325 129.536 20.3075C129.943 20.5788 130.257 20.951 130.477 21.424C130.697 21.8933 130.807 22.4268 130.807 23.0245C130.807 23.6185 130.697 24.1538 130.477 24.6305C130.26 25.1035 129.951 25.4775 129.547 25.7525C129.148 26.0275 128.671 26.165 128.117 26.165ZM125.323 28.64V20.06H126.346V24.3335H126.478V28.64H125.323ZM127.958 25.1255C128.324 25.1255 128.627 25.032 128.865 24.845C129.107 24.658 129.287 24.4068 129.404 24.0915C129.525 23.7725 129.586 23.4168 129.586 23.0245C129.586 22.6358 129.525 22.2838 129.404 21.9685C129.287 21.6532 129.105 21.402 128.86 21.215C128.614 21.028 128.301 20.9345 127.919 20.9345C127.56 20.9345 127.263 21.0225 127.028 21.1985C126.797 21.3745 126.625 21.6202 126.511 21.9355C126.401 22.2508 126.346 22.6138 126.346 23.0245C126.346 23.4352 126.401 23.7982 126.511 24.1135C126.621 24.4288 126.795 24.6763 127.034 24.856C127.272 25.0357 127.58 25.1255 127.958 25.1255ZM133.864 26.165C133.424 26.165 133.055 26.0843 132.758 25.923C132.461 25.758 132.236 25.5417 132.082 25.274C131.931 25.0027 131.856 24.7057 131.856 24.383C131.856 24.0823 131.909 23.8183 132.016 23.591C132.122 23.3637 132.28 23.1712 132.489 23.0135C132.698 22.8522 132.954 22.722 133.259 22.623C133.523 22.546 133.821 22.4782 134.155 22.4195C134.489 22.3608 134.839 22.3058 135.206 22.2545C135.576 22.2032 135.943 22.1518 136.306 22.1005L135.888 22.3315C135.895 21.8658 135.796 21.5212 135.591 21.2975C135.389 21.0702 135.041 20.9565 134.546 20.9565C134.234 20.9565 133.948 21.0298 133.688 21.1765C133.427 21.3195 133.246 21.5578 133.143 21.8915L132.071 21.5615C132.217 21.0518 132.496 20.6467 132.907 20.346C133.321 20.0453 133.871 19.895 134.557 19.895C135.088 19.895 135.55 19.9867 135.943 20.17C136.339 20.3497 136.628 20.6357 136.812 21.028C136.907 21.2223 136.966 21.4277 136.988 21.644C137.01 21.8603 137.021 22.0932 137.021 22.3425V26H136.003V24.6415L136.201 24.8175C135.955 25.2722 135.642 25.6113 135.261 25.835C134.883 26.055 134.417 26.165 133.864 26.165ZM134.067 25.2245C134.393 25.2245 134.674 25.1677 134.909 25.054C135.143 24.9367 135.332 24.7882 135.475 24.6085C135.618 24.4288 135.712 24.2418 135.756 24.0475C135.818 23.8715 135.853 23.6735 135.86 23.4535C135.871 23.2335 135.877 23.0575 135.877 22.9255L136.251 23.063C135.888 23.118 135.558 23.1675 135.261 23.2115C134.964 23.2555 134.694 23.2995 134.452 23.3435C134.214 23.3838 134.001 23.4333 133.814 23.492C133.656 23.547 133.515 23.613 133.391 23.69C133.27 23.767 133.172 23.8605 133.099 23.9705C133.029 24.0805 132.995 24.2143 132.995 24.372C132.995 24.526 133.033 24.669 133.11 24.801C133.187 24.9293 133.304 25.032 133.462 25.109C133.62 25.186 133.821 25.2245 134.067 25.2245ZM139.084 28.64L140.233 25.5105L140.25 26.4345L137.659 20.06H138.858L140.794 24.9825H140.442L142.29 20.06H143.456L140.178 28.64H139.084ZM151.6 26L151.605 22.2985C151.605 21.8695 151.495 21.5358 151.275 21.2975C151.055 21.0555 150.766 20.9345 150.406 20.9345C150.186 20.9345 149.985 20.9858 149.801 21.0885C149.622 21.1875 149.475 21.3378 149.361 21.5395C149.251 21.7375 149.196 21.9868 149.196 22.2875L148.641 22.007C148.634 21.589 148.722 21.2223 148.905 20.907C149.092 20.5917 149.345 20.3478 149.664 20.1755C149.983 19.9995 150.34 19.9115 150.736 19.9115C151.378 19.9115 151.875 20.104 152.227 20.489C152.579 20.874 152.755 21.3855 152.755 22.0235L152.749 26H151.6ZM144.477 26V20.06H145.5V21.776H145.632V26H144.477ZM148.041 26L148.047 22.3205C148.047 21.8878 147.937 21.5487 147.717 21.303C147.501 21.0573 147.209 20.9345 146.842 20.9345C146.479 20.9345 146.186 21.0592 145.962 21.3085C145.742 21.5578 145.632 21.8842 145.632 22.2875L145.082 21.9355C145.082 21.5468 145.176 21.2003 145.363 20.896C145.55 20.5917 145.803 20.3515 146.122 20.1755C146.441 19.9995 146.802 19.9115 147.205 19.9115C147.627 19.9115 147.986 20.0013 148.283 20.181C148.58 20.357 148.806 20.6045 148.96 20.9235C149.118 21.2425 149.196 21.6128 149.196 22.0345L149.191 26H148.041ZM156.907 26.165C156.317 26.165 155.798 26.0367 155.351 25.78C154.907 25.5197 154.561 25.1585 154.311 24.6965C154.066 24.2308 153.943 23.6918 153.943 23.0795C153.943 22.4305 154.064 21.8677 154.306 21.391C154.552 20.9143 154.893 20.5458 155.329 20.2855C155.765 20.0252 156.273 19.895 156.852 19.895C157.457 19.895 157.973 20.0362 158.398 20.3185C158.823 20.5972 159.14 20.995 159.349 21.512C159.562 22.029 159.646 22.6432 159.602 23.3545H158.453V22.9365C158.446 22.2472 158.314 21.7375 158.057 21.4075C157.804 21.0775 157.417 20.9125 156.896 20.9125C156.321 20.9125 155.888 21.094 155.598 21.457C155.309 21.82 155.164 22.3443 155.164 23.03C155.164 23.6827 155.309 24.1887 155.598 24.548C155.888 24.9037 156.306 25.0815 156.852 25.0815C157.212 25.0815 157.522 25.0008 157.782 24.8395C158.046 24.6745 158.251 24.4398 158.398 24.1355L159.525 24.493C159.294 25.0247 158.944 25.4372 158.475 25.7305C158.006 26.0202 157.483 26.165 156.907 26.165ZM154.79 23.3545V22.458H159.03V23.3545H154.79ZM165.009 26V23.0795C165.009 22.8485 164.989 22.612 164.949 22.37C164.912 22.1243 164.839 21.897 164.729 21.688C164.622 21.479 164.47 21.3103 164.272 21.182C164.078 21.0537 163.823 20.9895 163.508 20.9895C163.302 20.9895 163.108 21.0243 162.925 21.094C162.741 21.16 162.58 21.2682 162.441 21.4185C162.305 21.5688 162.197 21.7668 162.116 22.0125C162.039 22.2582 162.001 22.557 162.001 22.909L161.286 22.6395C161.286 22.1005 161.387 21.6257 161.588 21.215C161.79 20.8007 162.08 20.478 162.457 20.247C162.835 20.016 163.291 19.9005 163.827 19.9005C164.237 19.9005 164.582 19.9665 164.861 20.0985C165.139 20.2305 165.365 20.4047 165.537 20.621C165.713 20.8337 165.847 21.0665 165.939 21.3195C166.03 21.5725 166.093 21.82 166.126 22.062C166.159 22.304 166.175 22.5167 166.175 22.7V26H165.009ZM160.835 26V20.06H161.863V21.776H162.001V26H160.835ZM171.172 26C170.798 26.0733 170.431 26.1045 170.072 26.0935C169.712 26.0825 169.392 26.0128 169.109 25.8845C168.827 25.7562 168.614 25.5545 168.471 25.2795C168.343 25.0338 168.273 24.7845 168.262 24.5315C168.255 24.2748 168.251 23.9852 168.251 23.6625V18.41H169.406V23.6075C169.406 23.8458 169.408 24.053 169.412 24.229C169.419 24.405 169.458 24.5535 169.527 24.6745C169.659 24.9018 169.868 25.032 170.154 25.065C170.444 25.0943 170.783 25.0815 171.172 25.0265V26ZM167.113 20.984V20.06H171.172V20.984H167.113ZM172.787 26V24.7845H174.003V26H172.787Z" fill="#2BBC5D"/>
</svg>
