<svg width="12" height="17" viewBox="0 0 12 17" fill="none" xmlns="http://www.w3.org/2000/svg">
<path d="M11 7.07864H10V4.04494C10 1.82022 8.2 0 6 0C3.8 0 2 1.82022 2 4.04494V7.07864H1C0.5 7.07864 0 7.58426 0 8.08987V15.1685C0 15.6741 0.5 16.1797 1 16.1797H11C11.5 16.1797 12 15.6741 12 15.1685V8.08987C12 7.58426 11.5 7.07864 11 7.07864ZM7 14.1573H5L5.4 11.9326C4.9 11.7303 4.5 11.1236 4.5 10.618C4.5 9.80897 5.2 9.10111 6 9.10111C6.8 9.10111 7.5 9.80897 7.5 10.618C7.5 11.2247 7.2 11.7303 6.6 11.9326L7 14.1573ZM8 7.07864H4V4.04494C4 2.93258 4.9 2.02247 6 2.02247C7.1 2.02247 8 2.93258 8 4.04494V7.07864Z" fill="white"/>
</svg>
