<svg width="356" height="72" viewBox="0 0 356 72" fill="none" xmlns="http://www.w3.org/2000/svg">
<g filter="url(#filter0_d_2_18044)">
<rect x="5" y="4" width="346" height="62" rx="9" fill="#F4F4F4"/>
<path d="M22.906 30.18C22.294 30.18 21.742 30.076 21.25 29.868C20.762 29.66 20.358 29.364 20.038 28.98C19.722 28.592 19.516 28.134 19.42 27.606L20.524 27.432C20.664 27.976 20.954 28.402 21.394 28.71C21.838 29.014 22.36 29.166 22.96 29.166C23.348 29.166 23.698 29.106 24.01 28.986C24.326 28.862 24.576 28.686 24.76 28.458C24.944 28.23 25.036 27.96 25.036 27.648C25.036 27.456 25.002 27.292 24.934 27.156C24.87 27.016 24.78 26.898 24.664 26.802C24.552 26.702 24.424 26.618 24.28 26.55C24.136 26.482 23.986 26.426 23.83 26.382L21.628 25.728C21.388 25.656 21.156 25.566 20.932 25.458C20.708 25.346 20.508 25.208 20.332 25.044C20.156 24.876 20.016 24.676 19.912 24.444C19.808 24.208 19.756 23.93 19.756 23.61C19.756 23.098 19.888 22.662 20.152 22.302C20.42 21.938 20.782 21.66 21.238 21.468C21.694 21.276 22.208 21.182 22.78 21.186C23.36 21.19 23.878 21.294 24.334 21.498C24.794 21.698 25.174 21.986 25.474 22.362C25.778 22.738 25.982 23.188 26.086 23.712L24.952 23.91C24.892 23.558 24.758 23.256 24.55 23.004C24.346 22.748 24.09 22.552 23.782 22.416C23.474 22.276 23.136 22.204 22.768 22.2C22.416 22.196 22.098 22.252 21.814 22.368C21.53 22.484 21.304 22.646 21.136 22.854C20.968 23.058 20.884 23.294 20.884 23.562C20.884 23.826 20.96 24.04 21.112 24.204C21.264 24.364 21.45 24.492 21.67 24.588C21.894 24.68 22.112 24.756 22.324 24.816L23.968 25.29C24.156 25.342 24.372 25.414 24.616 25.506C24.864 25.598 25.104 25.728 25.336 25.896C25.568 26.06 25.76 26.28 25.912 26.556C26.064 26.828 26.14 27.172 26.14 27.588C26.14 28.004 26.056 28.374 25.888 28.698C25.724 29.022 25.494 29.294 25.198 29.514C24.902 29.73 24.558 29.894 24.166 30.006C23.774 30.122 23.354 30.18 22.906 30.18ZM32.1326 30V26.754C32.1326 26.446 32.1046 26.15 32.0486 25.866C31.9966 25.582 31.9026 25.328 31.7666 25.104C31.6346 24.876 31.4546 24.696 31.2266 24.564C31.0026 24.432 30.7186 24.366 30.3746 24.366C30.1066 24.366 29.8626 24.412 29.6426 24.504C29.4266 24.592 29.2406 24.728 29.0846 24.912C28.9286 25.096 28.8066 25.328 28.7186 25.608C28.6346 25.884 28.5926 26.21 28.5926 26.586L27.8906 26.37C27.8906 25.742 28.0026 25.204 28.2266 24.756C28.4546 24.304 28.7726 23.958 29.1806 23.718C29.5926 23.474 30.0766 23.352 30.6326 23.352C31.0526 23.352 31.4106 23.418 31.7066 23.55C32.0026 23.682 32.2486 23.858 32.4446 24.078C32.6406 24.294 32.7946 24.538 32.9066 24.81C33.0186 25.078 33.0966 25.352 33.1406 25.632C33.1886 25.908 33.2126 26.17 33.2126 26.418V30H32.1326ZM27.5126 30V21.36H28.4726V26.13H28.5926V30H27.5126ZM35.0125 22.374V21.27H36.0805V22.374H35.0125ZM35.0125 30V23.52H36.0805V30H35.0125ZM40.9768 30.18C40.3688 30.18 39.8568 30.03 39.4408 29.73C39.0248 29.426 38.7088 29.016 38.4928 28.5C38.2808 27.98 38.1748 27.398 38.1748 26.754C38.1748 26.102 38.2808 25.518 38.4928 25.002C38.7088 24.486 39.0248 24.08 39.4408 23.784C39.8608 23.488 40.3748 23.34 40.9828 23.34C41.5828 23.34 42.0988 23.49 42.5308 23.79C42.9668 24.086 43.3008 24.492 43.5328 25.008C43.7648 25.524 43.8808 26.106 43.8808 26.754C43.8808 27.402 43.7648 27.984 43.5328 28.5C43.3008 29.016 42.9668 29.426 42.5308 29.73C42.0988 30.03 41.5808 30.18 40.9768 30.18ZM37.9948 32.88V23.52H38.9488V28.29H39.0688V32.88H37.9948ZM40.8448 29.202C41.2728 29.202 41.6268 29.094 41.9068 28.878C42.1868 28.662 42.3968 28.37 42.5368 28.002C42.6768 27.63 42.7468 27.214 42.7468 26.754C42.7468 26.298 42.6768 25.886 42.5368 25.518C42.4008 25.15 42.1888 24.858 41.9008 24.642C41.6168 24.426 41.2548 24.318 40.8148 24.318C40.3948 24.318 40.0468 24.422 39.7708 24.63C39.4948 24.834 39.2888 25.12 39.1528 25.488C39.0168 25.852 38.9488 26.274 38.9488 26.754C38.9488 27.226 39.0148 27.648 39.1468 28.02C39.2828 28.388 39.4908 28.678 39.7708 28.89C40.0508 29.098 40.4088 29.202 40.8448 29.202ZM48.2921 30.18C47.6841 30.18 47.1721 30.03 46.7561 29.73C46.3401 29.426 46.0241 29.016 45.8081 28.5C45.5961 27.98 45.4901 27.398 45.4901 26.754C45.4901 26.102 45.5961 25.518 45.8081 25.002C46.0241 24.486 46.3401 24.08 46.7561 23.784C47.1761 23.488 47.6901 23.34 48.2981 23.34C48.8981 23.34 49.4141 23.49 49.8461 23.79C50.2821 24.086 50.6161 24.492 50.8481 25.008C51.0801 25.524 51.1961 26.106 51.1961 26.754C51.1961 27.402 51.0801 27.984 50.8481 28.5C50.6161 29.016 50.2821 29.426 49.8461 29.73C49.4141 30.03 48.8961 30.18 48.2921 30.18ZM45.3101 32.88V23.52H46.2641V28.29H46.3841V32.88H45.3101ZM48.1601 29.202C48.5881 29.202 48.9421 29.094 49.2221 28.878C49.5021 28.662 49.7121 28.37 49.8521 28.002C49.9921 27.63 50.0621 27.214 50.0621 26.754C50.0621 26.298 49.9921 25.886 49.8521 25.518C49.7161 25.15 49.5041 24.858 49.2161 24.642C48.9321 24.426 48.5701 24.318 48.1301 24.318C47.7101 24.318 47.3621 24.422 47.0861 24.63C46.8101 24.834 46.6041 25.12 46.4681 25.488C46.3321 25.852 46.2641 26.274 46.2641 26.754C46.2641 27.226 46.3301 27.648 46.4621 28.02C46.5981 28.388 46.8061 28.678 47.0861 28.89C47.3661 29.098 47.7241 29.202 48.1601 29.202ZM52.7514 22.374V21.27H53.8194V22.374H52.7514ZM52.7514 30V23.52H53.8194V30H52.7514ZM60.3537 30V26.754C60.3537 26.446 60.3257 26.15 60.2697 25.866C60.2177 25.582 60.1237 25.328 59.9877 25.104C59.8557 24.876 59.6757 24.696 59.4477 24.564C59.2237 24.432 58.9397 24.366 58.5957 24.366C58.3277 24.366 58.0837 24.412 57.8637 24.504C57.6477 24.592 57.4617 24.728 57.3057 24.912C57.1497 25.096 57.0277 25.328 56.9397 25.608C56.8557 25.884 56.8137 26.21 56.8137 26.586L56.1117 26.37C56.1117 25.742 56.2237 25.204 56.4477 24.756C56.6757 24.304 56.9937 23.958 57.4017 23.718C57.8137 23.474 58.2977 23.352 58.8537 23.352C59.2737 23.352 59.6317 23.418 59.9277 23.55C60.2237 23.682 60.4697 23.858 60.6657 24.078C60.8617 24.294 61.0157 24.538 61.1277 24.81C61.2397 25.078 61.3177 25.352 61.3617 25.632C61.4097 25.908 61.4337 26.17 61.4337 26.418V30H60.3537ZM55.7337 30V23.52H56.6937V25.254H56.8137V30H55.7337ZM65.7356 33.06C65.3956 33.06 65.0636 33.008 64.7396 32.904C64.4156 32.8 64.1176 32.642 63.8456 32.43C63.5776 32.222 63.3536 31.958 63.1736 31.638L64.1516 31.122C64.3116 31.438 64.5376 31.668 64.8296 31.812C65.1256 31.956 65.4296 32.028 65.7416 32.028C66.1536 32.028 66.4956 31.952 66.7676 31.8C67.0396 31.652 67.2396 31.43 67.3676 31.134C67.4996 30.838 67.5636 30.47 67.5596 30.03V28.26H67.6856V23.52H68.6336V30.042C68.6336 30.218 68.6276 30.388 68.6156 30.552C68.6076 30.716 68.5876 30.878 68.5556 31.038C68.4716 31.498 68.3056 31.876 68.0576 32.172C67.8096 32.472 67.4896 32.694 67.0976 32.838C66.7056 32.986 66.2516 33.06 65.7356 33.06ZM65.6576 30.18C65.0536 30.18 64.5356 30.03 64.1036 29.73C63.6716 29.426 63.3376 29.016 63.1016 28.5C62.8696 27.984 62.7536 27.402 62.7536 26.754C62.7536 26.106 62.8696 25.524 63.1016 25.008C63.3376 24.492 63.6716 24.086 64.1036 23.79C64.5356 23.49 65.0516 23.34 65.6516 23.34C66.2636 23.34 66.7776 23.488 67.1936 23.784C67.6096 24.08 67.9236 24.486 68.1356 25.002C68.3516 25.518 68.4596 26.102 68.4596 26.754C68.4596 27.398 68.3516 27.98 68.1356 28.5C67.9236 29.016 67.6096 29.426 67.1936 29.73C66.7776 30.03 66.2656 30.18 65.6576 30.18ZM65.7896 29.202C66.2256 29.202 66.5836 29.098 66.8636 28.89C67.1436 28.678 67.3496 28.388 67.4816 28.02C67.6176 27.648 67.6856 27.226 67.6856 26.754C67.6856 26.274 67.6176 25.852 67.4816 25.488C67.3496 25.12 67.1456 24.834 66.8696 24.63C66.5936 24.422 66.2436 24.318 65.8196 24.318C65.3796 24.318 65.0156 24.426 64.7276 24.642C64.4436 24.858 64.2316 25.15 64.0916 25.518C63.9556 25.886 63.8876 26.298 63.8876 26.754C63.8876 27.214 63.9576 27.63 64.0976 28.002C64.2376 28.37 64.4476 28.662 64.7276 28.878C65.0116 29.094 65.3656 29.202 65.7896 29.202ZM75.7113 30.18C75.0673 30.18 74.5113 30.034 74.0433 29.742C73.5793 29.45 73.2213 29.046 72.9693 28.53C72.7173 28.014 72.5913 27.422 72.5913 26.754C72.5913 26.074 72.7193 25.478 72.9753 24.966C73.2313 24.454 73.5933 24.056 74.0613 23.772C74.5293 23.484 75.0793 23.34 75.7113 23.34C76.3593 23.34 76.9173 23.486 77.3853 23.778C77.8533 24.066 78.2113 24.468 78.4593 24.984C78.7113 25.496 78.8373 26.086 78.8373 26.754C78.8373 27.43 78.7113 28.026 78.4593 28.542C78.2073 29.054 77.8473 29.456 77.3793 29.748C76.9113 30.036 76.3553 30.18 75.7113 30.18ZM75.7113 29.166C76.3833 29.166 76.8833 28.942 77.2113 28.494C77.5393 28.046 77.7033 27.466 77.7033 26.754C77.7033 26.022 77.5373 25.44 77.2053 25.008C76.8733 24.572 76.3753 24.354 75.7113 24.354C75.2593 24.354 74.8873 24.456 74.5953 24.66C74.3033 24.864 74.0853 25.146 73.9413 25.506C73.7973 25.866 73.7253 26.282 73.7253 26.754C73.7253 27.482 73.8933 28.066 74.2293 28.506C74.5653 28.946 75.0593 29.166 75.7113 29.166ZM83.2543 30.18C82.6463 30.18 82.1343 30.03 81.7183 29.73C81.3023 29.426 80.9863 29.016 80.7703 28.5C80.5583 27.98 80.4523 27.398 80.4523 26.754C80.4523 26.102 80.5583 25.518 80.7703 25.002C80.9863 24.486 81.3023 24.08 81.7183 23.784C82.1383 23.488 82.6523 23.34 83.2603 23.34C83.8603 23.34 84.3763 23.49 84.8083 23.79C85.2443 24.086 85.5783 24.492 85.8103 25.008C86.0423 25.524 86.1583 26.106 86.1583 26.754C86.1583 27.402 86.0423 27.984 85.8103 28.5C85.5783 29.016 85.2443 29.426 84.8083 29.73C84.3763 30.03 83.8583 30.18 83.2543 30.18ZM80.2723 32.88V23.52H81.2263V28.29H81.3463V32.88H80.2723ZM83.1223 29.202C83.5503 29.202 83.9043 29.094 84.1843 28.878C84.4643 28.662 84.6743 28.37 84.8143 28.002C84.9543 27.63 85.0243 27.214 85.0243 26.754C85.0243 26.298 84.9543 25.886 84.8143 25.518C84.6783 25.15 84.4663 24.858 84.1783 24.642C83.8943 24.426 83.5323 24.318 83.0923 24.318C82.6723 24.318 82.3243 24.422 82.0483 24.63C81.7723 24.834 81.5663 25.12 81.4303 25.488C81.2943 25.852 81.2263 26.274 81.2263 26.754C81.2263 27.226 81.2923 27.648 81.4243 28.02C81.5603 28.388 81.7683 28.678 82.0483 28.89C82.3283 29.098 82.6863 29.202 83.1223 29.202ZM91.2116 30C90.8276 30.076 90.4476 30.106 90.0716 30.09C89.6996 30.078 89.3676 30.004 89.0756 29.868C88.7836 29.728 88.5616 29.512 88.4096 29.22C88.2816 28.964 88.2116 28.706 88.1996 28.446C88.1916 28.182 88.1876 27.884 88.1876 27.552V21.72H89.2556V27.504C89.2556 27.768 89.2576 27.994 89.2616 28.182C89.2696 28.37 89.3116 28.532 89.3876 28.668C89.5316 28.924 89.7596 29.074 90.0716 29.118C90.3876 29.162 90.7676 29.15 91.2116 29.082V30ZM86.8736 24.402V23.52H91.2116V24.402H86.8736ZM92.7672 22.374V21.27H93.8352V22.374H92.7672ZM92.7672 30V23.52H93.8352V30H92.7672ZM98.5155 30.18C97.8715 30.18 97.3155 30.034 96.8475 29.742C96.3835 29.45 96.0255 29.046 95.7735 28.53C95.5215 28.014 95.3955 27.422 95.3955 26.754C95.3955 26.074 95.5235 25.478 95.7795 24.966C96.0355 24.454 96.3975 24.056 96.8655 23.772C97.3335 23.484 97.8835 23.34 98.5155 23.34C99.1635 23.34 99.7215 23.486 100.189 23.778C100.657 24.066 101.015 24.468 101.263 24.984C101.515 25.496 101.641 26.086 101.641 26.754C101.641 27.43 101.515 28.026 101.263 28.542C101.011 29.054 100.651 29.456 100.183 29.748C99.7155 30.036 99.1595 30.18 98.5155 30.18ZM98.5155 29.166C99.1875 29.166 99.6875 28.942 100.015 28.494C100.343 28.046 100.507 27.466 100.507 26.754C100.507 26.022 100.341 25.44 100.009 25.008C99.6775 24.572 99.1795 24.354 98.5155 24.354C98.0635 24.354 97.6915 24.456 97.3995 24.66C97.1075 24.864 96.8895 25.146 96.7455 25.506C96.6015 25.866 96.5295 26.282 96.5295 26.754C96.5295 27.482 96.6975 28.066 97.0335 28.506C97.3695 28.946 97.8635 29.166 98.5155 29.166ZM107.697 30V26.754C107.697 26.446 107.669 26.15 107.613 25.866C107.561 25.582 107.467 25.328 107.331 25.104C107.199 24.876 107.019 24.696 106.791 24.564C106.567 24.432 106.283 24.366 105.939 24.366C105.671 24.366 105.427 24.412 105.207 24.504C104.991 24.592 104.805 24.728 104.649 24.912C104.493 25.096 104.371 25.328 104.283 25.608C104.199 25.884 104.157 26.21 104.157 26.586L103.455 26.37C103.455 25.742 103.567 25.204 103.791 24.756C104.019 24.304 104.337 23.958 104.745 23.718C105.157 23.474 105.641 23.352 106.197 23.352C106.617 23.352 106.975 23.418 107.271 23.55C107.567 23.682 107.813 23.858 108.009 24.078C108.205 24.294 108.359 24.538 108.471 24.81C108.583 25.078 108.661 25.352 108.705 25.632C108.753 25.908 108.777 26.17 108.777 26.418V30H107.697ZM103.077 30V23.52H104.037V25.254H104.157V30H103.077ZM112.904 30.174C112.132 30.174 111.498 30.006 111.002 29.67C110.51 29.33 110.208 28.856 110.096 28.248L111.188 28.074C111.276 28.426 111.478 28.706 111.794 28.914C112.11 29.118 112.502 29.22 112.97 29.22C113.414 29.22 113.762 29.128 114.014 28.944C114.266 28.76 114.392 28.51 114.392 28.194C114.392 28.01 114.35 27.862 114.266 27.75C114.182 27.634 114.008 27.526 113.744 27.426C113.484 27.326 113.09 27.206 112.562 27.066C111.99 26.914 111.54 26.756 111.212 26.592C110.884 26.428 110.65 26.238 110.51 26.022C110.37 25.806 110.3 25.544 110.3 25.236C110.3 24.856 110.404 24.524 110.612 24.24C110.82 23.952 111.11 23.73 111.482 23.574C111.858 23.418 112.294 23.34 112.79 23.34C113.282 23.34 113.722 23.418 114.11 23.574C114.498 23.73 114.81 23.952 115.046 24.24C115.286 24.524 115.428 24.856 115.472 25.236L114.38 25.434C114.328 25.086 114.16 24.812 113.876 24.612C113.596 24.412 113.234 24.306 112.79 24.294C112.37 24.278 112.028 24.352 111.764 24.516C111.504 24.68 111.374 24.902 111.374 25.182C111.374 25.338 111.422 25.472 111.518 25.584C111.618 25.696 111.8 25.802 112.064 25.902C112.332 26.002 112.72 26.116 113.228 26.244C113.8 26.388 114.25 26.546 114.578 26.718C114.91 26.886 115.146 27.086 115.286 27.318C115.426 27.546 115.496 27.828 115.496 28.164C115.496 28.788 115.266 29.28 114.806 29.64C114.346 29.996 113.712 30.174 112.904 30.174ZM120.842 30L118.862 23.514L119.924 23.52L121.37 28.26L122.828 23.52H123.77L125.222 28.26L126.674 23.52H127.73L125.75 30H124.862L123.296 25.074L121.73 30H120.842ZM129.054 22.374V21.27H130.122V22.374H129.054ZM129.054 30V23.52H130.122V30H129.054ZM132.162 30V21.18H133.23V30H132.162ZM135.27 30V21.18H136.338V30H135.27ZM143.229 30.174C142.457 30.174 141.823 30.006 141.327 29.67C140.835 29.33 140.533 28.856 140.421 28.248L141.513 28.074C141.601 28.426 141.803 28.706 142.119 28.914C142.435 29.118 142.827 29.22 143.295 29.22C143.739 29.22 144.087 29.128 144.339 28.944C144.591 28.76 144.717 28.51 144.717 28.194C144.717 28.01 144.675 27.862 144.591 27.75C144.507 27.634 144.333 27.526 144.069 27.426C143.809 27.326 143.415 27.206 142.887 27.066C142.315 26.914 141.865 26.756 141.537 26.592C141.209 26.428 140.975 26.238 140.835 26.022C140.695 25.806 140.625 25.544 140.625 25.236C140.625 24.856 140.729 24.524 140.937 24.24C141.145 23.952 141.435 23.73 141.807 23.574C142.183 23.418 142.619 23.34 143.115 23.34C143.607 23.34 144.047 23.418 144.435 23.574C144.823 23.73 145.135 23.952 145.371 24.24C145.611 24.524 145.753 24.856 145.797 25.236L144.705 25.434C144.653 25.086 144.485 24.812 144.201 24.612C143.921 24.412 143.559 24.306 143.115 24.294C142.695 24.278 142.353 24.352 142.089 24.516C141.829 24.68 141.699 24.902 141.699 25.182C141.699 25.338 141.747 25.472 141.843 25.584C141.943 25.696 142.125 25.802 142.389 25.902C142.657 26.002 143.045 26.116 143.553 26.244C144.125 26.388 144.575 26.546 144.903 26.718C145.235 26.886 145.471 27.086 145.611 27.318C145.751 27.546 145.821 27.828 145.821 28.164C145.821 28.788 145.591 29.28 145.131 29.64C144.671 29.996 144.037 30.174 143.229 30.174ZM151.878 30V26.754C151.878 26.446 151.85 26.15 151.794 25.866C151.742 25.582 151.648 25.328 151.512 25.104C151.38 24.876 151.2 24.696 150.972 24.564C150.748 24.432 150.464 24.366 150.12 24.366C149.852 24.366 149.608 24.412 149.388 24.504C149.172 24.592 148.986 24.728 148.83 24.912C148.674 25.096 148.552 25.328 148.464 25.608C148.38 25.884 148.338 26.21 148.338 26.586L147.636 26.37C147.636 25.742 147.748 25.204 147.972 24.756C148.2 24.304 148.518 23.958 148.926 23.718C149.338 23.474 149.822 23.352 150.378 23.352C150.798 23.352 151.156 23.418 151.452 23.55C151.748 23.682 151.994 23.858 152.19 24.078C152.386 24.294 152.54 24.538 152.652 24.81C152.764 25.078 152.842 25.352 152.886 25.632C152.934 25.908 152.958 26.17 152.958 26.418V30H151.878ZM147.258 30V21.36H148.218V26.13H148.338V30H147.258ZM157.398 30.18C156.754 30.18 156.198 30.034 155.73 29.742C155.266 29.45 154.908 29.046 154.656 28.53C154.404 28.014 154.278 27.422 154.278 26.754C154.278 26.074 154.406 25.478 154.662 24.966C154.918 24.454 155.28 24.056 155.748 23.772C156.216 23.484 156.766 23.34 157.398 23.34C158.046 23.34 158.604 23.486 159.072 23.778C159.54 24.066 159.898 24.468 160.146 24.984C160.398 25.496 160.524 26.086 160.524 26.754C160.524 27.43 160.398 28.026 160.146 28.542C159.894 29.054 159.534 29.456 159.066 29.748C158.598 30.036 158.042 30.18 157.398 30.18ZM157.398 29.166C158.07 29.166 158.57 28.942 158.898 28.494C159.226 28.046 159.39 27.466 159.39 26.754C159.39 26.022 159.224 25.44 158.892 25.008C158.56 24.572 158.062 24.354 157.398 24.354C156.946 24.354 156.574 24.456 156.282 24.66C155.99 24.864 155.772 25.146 155.628 25.506C155.484 25.866 155.412 26.282 155.412 26.754C155.412 27.482 155.58 28.066 155.916 28.506C156.252 28.946 156.746 29.166 157.398 29.166ZM163.111 30L161.131 23.514L162.193 23.52L163.639 28.26L165.097 23.52H166.039L167.491 28.26L168.943 23.52H169.999L168.019 30H167.131L165.565 25.074L163.999 30H163.111ZM176.185 30.168C175.769 30.168 175.411 30.102 175.111 29.97C174.815 29.838 174.569 29.662 174.373 29.442C174.177 29.222 174.023 28.978 173.911 28.71C173.799 28.442 173.719 28.168 173.671 27.888C173.627 27.608 173.605 27.346 173.605 27.102V23.52H174.685V26.766C174.685 27.07 174.713 27.364 174.769 27.648C174.825 27.932 174.919 28.188 175.051 28.416C175.187 28.644 175.367 28.824 175.591 28.956C175.819 29.088 176.103 29.154 176.443 29.154C176.711 29.154 176.955 29.108 177.175 29.016C177.395 28.924 177.583 28.788 177.739 28.608C177.895 28.424 178.015 28.192 178.099 27.912C178.183 27.632 178.225 27.306 178.225 26.934L178.927 27.15C178.927 27.774 178.813 28.312 178.585 28.764C178.361 29.216 178.043 29.564 177.631 29.808C177.223 30.048 176.741 30.168 176.185 30.168ZM178.345 30V28.266H178.225V23.52H179.299V30H178.345ZM184.074 30.18C183.466 30.18 182.954 30.03 182.538 29.73C182.122 29.426 181.806 29.016 181.59 28.5C181.378 27.98 181.272 27.398 181.272 26.754C181.272 26.102 181.378 25.518 181.59 25.002C181.806 24.486 182.122 24.08 182.538 23.784C182.958 23.488 183.472 23.34 184.08 23.34C184.68 23.34 185.196 23.49 185.628 23.79C186.064 24.086 186.398 24.492 186.63 25.008C186.862 25.524 186.978 26.106 186.978 26.754C186.978 27.402 186.862 27.984 186.63 28.5C186.398 29.016 186.064 29.426 185.628 29.73C185.196 30.03 184.678 30.18 184.074 30.18ZM181.092 32.88V23.52H182.046V28.29H182.166V32.88H181.092ZM183.942 29.202C184.37 29.202 184.724 29.094 185.004 28.878C185.284 28.662 185.494 28.37 185.634 28.002C185.774 27.63 185.844 27.214 185.844 26.754C185.844 26.298 185.774 25.886 185.634 25.518C185.498 25.15 185.286 24.858 184.998 24.642C184.714 24.426 184.352 24.318 183.912 24.318C183.492 24.318 183.144 24.422 182.868 24.63C182.592 24.834 182.386 25.12 182.25 25.488C182.114 25.852 182.046 26.274 182.046 26.754C182.046 27.226 182.112 27.648 182.244 28.02C182.38 28.388 182.588 28.678 182.868 28.89C183.148 29.098 183.506 29.202 183.942 29.202ZM193.696 30.18C193.052 30.18 192.496 30.034 192.028 29.742C191.564 29.45 191.206 29.046 190.954 28.53C190.702 28.014 190.576 27.422 190.576 26.754C190.576 26.074 190.704 25.478 190.96 24.966C191.216 24.454 191.578 24.056 192.046 23.772C192.514 23.484 193.064 23.34 193.696 23.34C194.344 23.34 194.902 23.486 195.37 23.778C195.838 24.066 196.196 24.468 196.444 24.984C196.696 25.496 196.822 26.086 196.822 26.754C196.822 27.43 196.696 28.026 196.444 28.542C196.192 29.054 195.832 29.456 195.364 29.748C194.896 30.036 194.34 30.18 193.696 30.18ZM193.696 29.166C194.368 29.166 194.868 28.942 195.196 28.494C195.524 28.046 195.688 27.466 195.688 26.754C195.688 26.022 195.522 25.44 195.19 25.008C194.858 24.572 194.36 24.354 193.696 24.354C193.244 24.354 192.872 24.456 192.58 24.66C192.288 24.864 192.07 25.146 191.926 25.506C191.782 25.866 191.71 26.282 191.71 26.754C191.71 27.482 191.878 28.066 192.214 28.506C192.55 28.946 193.044 29.166 193.696 29.166ZM202.877 30V26.754C202.877 26.446 202.849 26.15 202.793 25.866C202.741 25.582 202.647 25.328 202.511 25.104C202.379 24.876 202.199 24.696 201.971 24.564C201.747 24.432 201.463 24.366 201.119 24.366C200.851 24.366 200.607 24.412 200.387 24.504C200.171 24.592 199.985 24.728 199.829 24.912C199.673 25.096 199.551 25.328 199.463 25.608C199.379 25.884 199.337 26.21 199.337 26.586L198.635 26.37C198.635 25.742 198.747 25.204 198.971 24.756C199.199 24.304 199.517 23.958 199.925 23.718C200.337 23.474 200.821 23.352 201.377 23.352C201.797 23.352 202.155 23.418 202.451 23.55C202.747 23.682 202.993 23.858 203.189 24.078C203.385 24.294 203.539 24.538 203.651 24.81C203.763 25.078 203.841 25.352 203.885 25.632C203.933 25.908 203.957 26.17 203.957 26.418V30H202.877ZM198.257 30V23.52H199.217V25.254H199.337V30H198.257ZM208.308 30.18C207.652 30.18 207.094 30.034 206.634 29.742C206.178 29.446 205.83 29.04 205.59 28.524C205.35 28.008 205.226 27.42 205.218 26.76C205.226 26.084 205.352 25.49 205.596 24.978C205.844 24.462 206.198 24.06 206.658 23.772C207.118 23.484 207.672 23.34 208.32 23.34C209.004 23.34 209.592 23.508 210.084 23.844C210.58 24.18 210.912 24.64 211.08 25.224L210.024 25.542C209.888 25.166 209.666 24.874 209.358 24.666C209.054 24.458 208.704 24.354 208.308 24.354C207.864 24.354 207.498 24.458 207.21 24.666C206.922 24.87 206.708 25.154 206.568 25.518C206.428 25.878 206.356 26.292 206.352 26.76C206.36 27.48 206.526 28.062 206.85 28.506C207.178 28.946 207.664 29.166 208.308 29.166C208.732 29.166 209.084 29.07 209.364 28.878C209.644 28.682 209.856 28.4 210 28.032L211.08 28.314C210.856 28.918 210.506 29.38 210.03 29.7C209.554 30.02 208.98 30.18 208.308 30.18ZM215.057 30.18C214.421 30.18 213.865 30.04 213.389 29.76C212.917 29.476 212.549 29.082 212.285 28.578C212.021 28.07 211.889 27.478 211.889 26.802C211.889 26.094 212.019 25.482 212.279 24.966C212.539 24.446 212.901 24.046 213.365 23.766C213.833 23.482 214.381 23.34 215.009 23.34C215.661 23.34 216.215 23.49 216.671 23.79C217.131 24.09 217.475 24.518 217.703 25.074C217.935 25.63 218.035 26.292 218.003 27.06H216.923V26.676C216.911 25.88 216.749 25.286 216.437 24.894C216.125 24.498 215.661 24.3 215.045 24.3C214.385 24.3 213.883 24.512 213.539 24.936C213.195 25.36 213.023 25.968 213.023 26.76C213.023 27.524 213.195 28.116 213.539 28.536C213.883 28.956 214.373 29.166 215.009 29.166C215.437 29.166 215.809 29.068 216.125 28.872C216.441 28.676 216.689 28.394 216.869 28.026L217.895 28.38C217.643 28.952 217.263 29.396 216.755 29.712C216.251 30.024 215.685 30.18 215.057 30.18ZM212.663 27.06V26.202H217.451V27.06H212.663ZM222.881 32.88L224.135 29.472L224.153 30.48L221.321 23.52H222.443L224.663 29.118H224.279L226.361 23.52H227.447L223.919 32.88H222.881ZM231.084 30.18C230.44 30.18 229.884 30.034 229.416 29.742C228.952 29.45 228.594 29.046 228.342 28.53C228.09 28.014 227.964 27.422 227.964 26.754C227.964 26.074 228.092 25.478 228.348 24.966C228.604 24.454 228.966 24.056 229.434 23.772C229.902 23.484 230.452 23.34 231.084 23.34C231.732 23.34 232.29 23.486 232.758 23.778C233.226 24.066 233.584 24.468 233.832 24.984C234.084 25.496 234.21 26.086 234.21 26.754C234.21 27.43 234.084 28.026 233.832 28.542C233.58 29.054 233.22 29.456 232.752 29.748C232.284 30.036 231.728 30.18 231.084 30.18ZM231.084 29.166C231.756 29.166 232.256 28.942 232.584 28.494C232.912 28.046 233.076 27.466 233.076 26.754C233.076 26.022 232.91 25.44 232.578 25.008C232.246 24.572 231.748 24.354 231.084 24.354C230.632 24.354 230.26 24.456 229.968 24.66C229.676 24.864 229.458 25.146 229.314 25.506C229.17 25.866 229.098 26.282 229.098 26.754C229.098 27.482 229.266 28.066 229.602 28.506C229.938 28.946 230.432 29.166 231.084 29.166ZM238.111 30.168C237.695 30.168 237.337 30.102 237.037 29.97C236.741 29.838 236.495 29.662 236.299 29.442C236.103 29.222 235.949 28.978 235.837 28.71C235.725 28.442 235.645 28.168 235.597 27.888C235.553 27.608 235.531 27.346 235.531 27.102V23.52H236.611V26.766C236.611 27.07 236.639 27.364 236.695 27.648C236.751 27.932 236.845 28.188 236.977 28.416C237.113 28.644 237.293 28.824 237.517 28.956C237.745 29.088 238.029 29.154 238.369 29.154C238.637 29.154 238.881 29.108 239.101 29.016C239.321 28.924 239.509 28.788 239.665 28.608C239.821 28.424 239.941 28.192 240.025 27.912C240.109 27.632 240.151 27.306 240.151 26.934L240.853 27.15C240.853 27.774 240.739 28.312 240.511 28.764C240.287 29.216 239.969 29.564 239.557 29.808C239.149 30.048 238.667 30.168 238.111 30.168ZM240.271 30V28.266H240.151V23.52H241.225V30H240.271ZM248.355 30.18C247.719 30.18 247.163 30.04 246.687 29.76C246.215 29.476 245.847 29.082 245.583 28.578C245.319 28.07 245.187 27.478 245.187 26.802C245.187 26.094 245.317 25.482 245.577 24.966C245.837 24.446 246.199 24.046 246.663 23.766C247.131 23.482 247.679 23.34 248.307 23.34C248.959 23.34 249.513 23.49 249.969 23.79C250.429 24.09 250.773 24.518 251.001 25.074C251.233 25.63 251.333 26.292 251.301 27.06H250.221V26.676C250.209 25.88 250.047 25.286 249.735 24.894C249.423 24.498 248.959 24.3 248.343 24.3C247.683 24.3 247.181 24.512 246.837 24.936C246.493 25.36 246.321 25.968 246.321 26.76C246.321 27.524 246.493 28.116 246.837 28.536C247.181 28.956 247.671 29.166 248.307 29.166C248.735 29.166 249.107 29.068 249.423 28.872C249.739 28.676 249.987 28.394 250.167 28.026L251.193 28.38C250.941 28.952 250.561 29.396 250.053 29.712C249.549 30.024 248.983 30.18 248.355 30.18ZM245.961 27.06V26.202H250.749V27.06H245.961ZM257.195 30V26.754C257.195 26.446 257.167 26.15 257.111 25.866C257.059 25.582 256.965 25.328 256.829 25.104C256.697 24.876 256.517 24.696 256.289 24.564C256.065 24.432 255.781 24.366 255.437 24.366C255.169 24.366 254.925 24.412 254.705 24.504C254.489 24.592 254.303 24.728 254.147 24.912C253.991 25.096 253.869 25.328 253.781 25.608C253.697 25.884 253.655 26.21 253.655 26.586L252.953 26.37C252.953 25.742 253.065 25.204 253.289 24.756C253.517 24.304 253.835 23.958 254.243 23.718C254.655 23.474 255.139 23.352 255.695 23.352C256.115 23.352 256.473 23.418 256.769 23.55C257.065 23.682 257.311 23.858 257.507 24.078C257.703 24.294 257.857 24.538 257.969 24.81C258.081 25.078 258.159 25.352 258.203 25.632C258.251 25.908 258.275 26.17 258.275 26.418V30H257.195ZM252.575 30V23.52H253.535V25.254H253.655V30H252.575ZM263.573 30C263.189 30.076 262.809 30.106 262.433 30.09C262.061 30.078 261.729 30.004 261.437 29.868C261.145 29.728 260.923 29.512 260.771 29.22C260.643 28.964 260.573 28.706 260.561 28.446C260.553 28.182 260.549 27.884 260.549 27.552V21.72H261.617V27.504C261.617 27.768 261.619 27.994 261.623 28.182C261.631 28.37 261.673 28.532 261.749 28.668C261.893 28.924 262.121 29.074 262.433 29.118C262.749 29.162 263.129 29.15 263.573 29.082V30ZM259.235 24.402V23.52H263.573V24.402H259.235ZM267.547 30.18C266.911 30.18 266.355 30.04 265.879 29.76C265.407 29.476 265.039 29.082 264.775 28.578C264.511 28.07 264.379 27.478 264.379 26.802C264.379 26.094 264.509 25.482 264.769 24.966C265.029 24.446 265.391 24.046 265.855 23.766C266.323 23.482 266.871 23.34 267.499 23.34C268.151 23.34 268.705 23.49 269.161 23.79C269.621 24.09 269.965 24.518 270.193 25.074C270.425 25.63 270.525 26.292 270.493 27.06H269.413V26.676C269.401 25.88 269.239 25.286 268.927 24.894C268.615 24.498 268.151 24.3 267.535 24.3C266.875 24.3 266.373 24.512 266.029 24.936C265.685 25.36 265.513 25.968 265.513 26.76C265.513 27.524 265.685 28.116 266.029 28.536C266.373 28.956 266.863 29.166 267.499 29.166C267.927 29.166 268.299 29.068 268.615 28.872C268.931 28.676 269.179 28.394 269.359 28.026L270.385 28.38C270.133 28.952 269.753 29.396 269.245 29.712C268.741 30.024 268.175 30.18 267.547 30.18ZM265.153 27.06V26.202H269.941V27.06H265.153ZM271.949 30V23.52H272.903V25.086L272.747 24.882C272.823 24.682 272.921 24.498 273.041 24.33C273.165 24.162 273.303 24.024 273.455 23.916C273.623 23.78 273.813 23.676 274.025 23.604C274.237 23.532 274.453 23.49 274.673 23.478C274.893 23.462 275.099 23.476 275.291 23.52V24.522C275.067 24.462 274.821 24.446 274.553 24.474C274.285 24.502 274.037 24.6 273.809 24.768C273.601 24.916 273.439 25.096 273.323 25.308C273.211 25.52 273.133 25.75 273.089 25.998C273.045 26.242 273.023 26.492 273.023 26.748V30H271.949ZM280.91 30.18C280.426 30.18 280.02 30.092 279.692 29.916C279.368 29.736 279.122 29.5 278.954 29.208C278.79 28.916 278.708 28.596 278.708 28.248C278.708 27.908 278.772 27.614 278.9 27.366C279.032 27.114 279.216 26.906 279.452 26.742C279.688 26.574 279.97 26.442 280.298 26.346C280.606 26.262 280.95 26.19 281.33 26.13C281.714 26.066 282.102 26.008 282.494 25.956C282.886 25.904 283.252 25.854 283.592 25.806L283.208 26.028C283.22 25.452 283.104 25.026 282.86 24.75C282.62 24.474 282.204 24.336 281.612 24.336C281.22 24.336 280.876 24.426 280.58 24.606C280.288 24.782 280.082 25.07 279.962 25.47L278.948 25.164C279.104 24.596 279.406 24.15 279.854 23.826C280.302 23.502 280.892 23.34 281.624 23.34C282.212 23.34 282.716 23.446 283.136 23.658C283.56 23.866 283.864 24.182 284.048 24.606C284.14 24.806 284.198 25.024 284.222 25.26C284.246 25.492 284.258 25.736 284.258 25.992V30H283.31V28.446L283.532 28.59C283.288 29.114 282.946 29.51 282.506 29.778C282.07 30.046 281.538 30.18 280.91 30.18ZM281.072 29.286C281.456 29.286 281.788 29.218 282.068 29.082C282.352 28.942 282.58 28.76 282.752 28.536C282.924 28.308 283.036 28.06 283.088 27.792C283.148 27.592 283.18 27.37 283.184 27.126C283.192 26.878 283.196 26.688 283.196 26.556L283.568 26.718C283.22 26.766 282.878 26.812 282.542 26.856C282.206 26.9 281.888 26.948 281.588 27C281.288 27.048 281.018 27.106 280.778 27.174C280.602 27.23 280.436 27.302 280.28 27.39C280.128 27.478 280.004 27.592 279.908 27.732C279.816 27.868 279.77 28.038 279.77 28.242C279.77 28.418 279.814 28.586 279.902 28.746C279.994 28.906 280.134 29.036 280.322 29.136C280.514 29.236 280.764 29.286 281.072 29.286ZM22.288 48.174C21.516 48.174 20.882 48.006 20.386 47.67C19.894 47.33 19.592 46.856 19.48 46.248L20.572 46.074C20.66 46.426 20.862 46.706 21.178 46.914C21.494 47.118 21.886 47.22 22.354 47.22C22.798 47.22 23.146 47.128 23.398 46.944C23.65 46.76 23.776 46.51 23.776 46.194C23.776 46.01 23.734 45.862 23.65 45.75C23.566 45.634 23.392 45.526 23.128 45.426C22.868 45.326 22.474 45.206 21.946 45.066C21.374 44.914 20.924 44.756 20.596 44.592C20.268 44.428 20.034 44.238 19.894 44.022C19.754 43.806 19.684 43.544 19.684 43.236C19.684 42.856 19.788 42.524 19.996 42.24C20.204 41.952 20.494 41.73 20.866 41.574C21.242 41.418 21.678 41.34 22.174 41.34C22.666 41.34 23.106 41.418 23.494 41.574C23.882 41.73 24.194 41.952 24.43 42.24C24.67 42.524 24.812 42.856 24.856 43.236L23.764 43.434C23.712 43.086 23.544 42.812 23.26 42.612C22.98 42.412 22.618 42.306 22.174 42.294C21.754 42.278 21.412 42.352 21.148 42.516C20.888 42.68 20.758 42.902 20.758 43.182C20.758 43.338 20.806 43.472 20.902 43.584C21.002 43.696 21.184 43.802 21.448 43.902C21.716 44.002 22.104 44.116 22.612 44.244C23.184 44.388 23.634 44.546 23.962 44.718C24.294 44.886 24.53 45.086 24.67 45.318C24.81 45.546 24.88 45.828 24.88 46.164C24.88 46.788 24.65 47.28 24.19 47.64C23.73 47.996 23.096 48.174 22.288 48.174ZM30.9373 48V44.754C30.9373 44.446 30.9093 44.15 30.8533 43.866C30.8013 43.582 30.7073 43.328 30.5713 43.104C30.4393 42.876 30.2593 42.696 30.0313 42.564C29.8073 42.432 29.5233 42.366 29.1793 42.366C28.9113 42.366 28.6673 42.412 28.4473 42.504C28.2313 42.592 28.0453 42.728 27.8893 42.912C27.7333 43.096 27.6113 43.328 27.5233 43.608C27.4393 43.884 27.3973 44.21 27.3973 44.586L26.6953 44.37C26.6953 43.742 26.8073 43.204 27.0313 42.756C27.2593 42.304 27.5773 41.958 27.9853 41.718C28.3973 41.474 28.8813 41.352 29.4373 41.352C29.8573 41.352 30.2153 41.418 30.5113 41.55C30.8073 41.682 31.0533 41.858 31.2493 42.078C31.4453 42.294 31.5993 42.538 31.7113 42.81C31.8233 43.078 31.9013 43.352 31.9453 43.632C31.9933 43.908 32.0173 44.17 32.0173 44.418V48H30.9373ZM26.3173 48V39.36H27.2773V44.13H27.3973V48H26.3173ZM33.8172 40.374V39.27H34.8852V40.374H33.8172ZM33.8172 48V41.52H34.8852V48H33.8172ZM39.7815 48.18C39.1735 48.18 38.6615 48.03 38.2455 47.73C37.8295 47.426 37.5135 47.016 37.2975 46.5C37.0855 45.98 36.9795 45.398 36.9795 44.754C36.9795 44.102 37.0855 43.518 37.2975 43.002C37.5135 42.486 37.8295 42.08 38.2455 41.784C38.6655 41.488 39.1795 41.34 39.7875 41.34C40.3875 41.34 40.9035 41.49 41.3355 41.79C41.7715 42.086 42.1055 42.492 42.3375 43.008C42.5695 43.524 42.6855 44.106 42.6855 44.754C42.6855 45.402 42.5695 45.984 42.3375 46.5C42.1055 47.016 41.7715 47.426 41.3355 47.73C40.9035 48.03 40.3855 48.18 39.7815 48.18ZM36.7995 50.88V41.52H37.7535V46.29H37.8735V50.88H36.7995ZM39.6495 47.202C40.0775 47.202 40.4315 47.094 40.7115 46.878C40.9915 46.662 41.2015 46.37 41.3415 46.002C41.4815 45.63 41.5515 45.214 41.5515 44.754C41.5515 44.298 41.4815 43.886 41.3415 43.518C41.2055 43.15 40.9935 42.858 40.7055 42.642C40.4215 42.426 40.0595 42.318 39.6195 42.318C39.1995 42.318 38.8515 42.422 38.5755 42.63C38.2995 42.834 38.0935 43.12 37.9575 43.488C37.8215 43.852 37.7535 44.274 37.7535 44.754C37.7535 45.226 37.8195 45.648 37.9515 46.02C38.0875 46.388 38.2955 46.678 38.5755 46.89C38.8555 47.098 39.2135 47.202 39.6495 47.202ZM47.0968 48.18C46.4888 48.18 45.9768 48.03 45.5608 47.73C45.1448 47.426 44.8288 47.016 44.6128 46.5C44.4008 45.98 44.2948 45.398 44.2948 44.754C44.2948 44.102 44.4008 43.518 44.6128 43.002C44.8288 42.486 45.1448 42.08 45.5608 41.784C45.9808 41.488 46.4948 41.34 47.1028 41.34C47.7028 41.34 48.2188 41.49 48.6508 41.79C49.0868 42.086 49.4208 42.492 49.6528 43.008C49.8848 43.524 50.0008 44.106 50.0008 44.754C50.0008 45.402 49.8848 45.984 49.6528 46.5C49.4208 47.016 49.0868 47.426 48.6508 47.73C48.2188 48.03 47.7008 48.18 47.0968 48.18ZM44.1148 50.88V41.52H45.0688V46.29H45.1888V50.88H44.1148ZM46.9648 47.202C47.3928 47.202 47.7468 47.094 48.0268 46.878C48.3068 46.662 48.5168 46.37 48.6568 46.002C48.7968 45.63 48.8668 45.214 48.8668 44.754C48.8668 44.298 48.7968 43.886 48.6568 43.518C48.5208 43.15 48.3088 42.858 48.0208 42.642C47.7368 42.426 47.3748 42.318 46.9348 42.318C46.5148 42.318 46.1668 42.422 45.8908 42.63C45.6148 42.834 45.4088 43.12 45.2728 43.488C45.1368 43.852 45.0688 44.274 45.0688 44.754C45.0688 45.226 45.1348 45.648 45.2668 46.02C45.4028 46.388 45.6108 46.678 45.8908 46.89C46.1708 47.098 46.5288 47.202 46.9648 47.202ZM51.5561 40.374V39.27H52.6241V40.374H51.5561ZM51.5561 48V41.52H52.6241V48H51.5561ZM59.1584 48V44.754C59.1584 44.446 59.1304 44.15 59.0744 43.866C59.0224 43.582 58.9284 43.328 58.7924 43.104C58.6604 42.876 58.4804 42.696 58.2524 42.564C58.0284 42.432 57.7444 42.366 57.4004 42.366C57.1324 42.366 56.8884 42.412 56.6684 42.504C56.4524 42.592 56.2664 42.728 56.1104 42.912C55.9544 43.096 55.8324 43.328 55.7444 43.608C55.6604 43.884 55.6184 44.21 55.6184 44.586L54.9164 44.37C54.9164 43.742 55.0284 43.204 55.2524 42.756C55.4804 42.304 55.7984 41.958 56.2064 41.718C56.6184 41.474 57.1024 41.352 57.6584 41.352C58.0784 41.352 58.4364 41.418 58.7324 41.55C59.0284 41.682 59.2744 41.858 59.4704 42.078C59.6664 42.294 59.8204 42.538 59.9324 42.81C60.0444 43.078 60.1224 43.352 60.1664 43.632C60.2144 43.908 60.2384 44.17 60.2384 44.418V48H59.1584ZM54.5384 48V41.52H55.4984V43.254H55.6184V48H54.5384ZM64.5403 51.06C64.2003 51.06 63.8683 51.008 63.5443 50.904C63.2203 50.8 62.9223 50.642 62.6503 50.43C62.3823 50.222 62.1583 49.958 61.9783 49.638L62.9563 49.122C63.1163 49.438 63.3423 49.668 63.6343 49.812C63.9303 49.956 64.2343 50.028 64.5463 50.028C64.9583 50.028 65.3003 49.952 65.5723 49.8C65.8443 49.652 66.0443 49.43 66.1723 49.134C66.3043 48.838 66.3683 48.47 66.3643 48.03V46.26H66.4903V41.52H67.4383V48.042C67.4383 48.218 67.4323 48.388 67.4203 48.552C67.4123 48.716 67.3923 48.878 67.3603 49.038C67.2763 49.498 67.1103 49.876 66.8623 50.172C66.6143 50.472 66.2943 50.694 65.9023 50.838C65.5103 50.986 65.0563 51.06 64.5403 51.06ZM64.4623 48.18C63.8583 48.18 63.3403 48.03 62.9083 47.73C62.4763 47.426 62.1423 47.016 61.9063 46.5C61.6743 45.984 61.5583 45.402 61.5583 44.754C61.5583 44.106 61.6743 43.524 61.9063 43.008C62.1423 42.492 62.4763 42.086 62.9083 41.79C63.3403 41.49 63.8563 41.34 64.4563 41.34C65.0683 41.34 65.5823 41.488 65.9983 41.784C66.4143 42.08 66.7283 42.486 66.9403 43.002C67.1563 43.518 67.2643 44.102 67.2643 44.754C67.2643 45.398 67.1563 45.98 66.9403 46.5C66.7283 47.016 66.4143 47.426 65.9983 47.73C65.5823 48.03 65.0703 48.18 64.4623 48.18ZM64.5943 47.202C65.0303 47.202 65.3883 47.098 65.6683 46.89C65.9483 46.678 66.1543 46.388 66.2863 46.02C66.4223 45.648 66.4903 45.226 66.4903 44.754C66.4903 44.274 66.4223 43.852 66.2863 43.488C66.1543 43.12 65.9503 42.834 65.6743 42.63C65.3983 42.422 65.0483 42.318 64.6243 42.318C64.1843 42.318 63.8203 42.426 63.5323 42.642C63.2483 42.858 63.0363 43.15 62.8963 43.518C62.7603 43.886 62.6923 44.298 62.6923 44.754C62.6923 45.214 62.7623 45.63 62.9023 46.002C63.0423 46.37 63.2523 46.662 63.5323 46.878C63.8163 47.094 64.1703 47.202 64.5943 47.202ZM73.5979 48.18C73.1139 48.18 72.7079 48.092 72.3799 47.916C72.0559 47.736 71.8099 47.5 71.6419 47.208C71.4779 46.916 71.3959 46.596 71.3959 46.248C71.3959 45.908 71.4599 45.614 71.5879 45.366C71.7199 45.114 71.9039 44.906 72.1399 44.742C72.3759 44.574 72.6579 44.442 72.9859 44.346C73.2939 44.262 73.6379 44.19 74.0179 44.13C74.4019 44.066 74.7899 44.008 75.1819 43.956C75.5739 43.904 75.9399 43.854 76.2799 43.806L75.8959 44.028C75.9079 43.452 75.7919 43.026 75.5479 42.75C75.3079 42.474 74.8919 42.336 74.2999 42.336C73.9079 42.336 73.5639 42.426 73.2679 42.606C72.9759 42.782 72.7699 43.07 72.6499 43.47L71.6359 43.164C71.7919 42.596 72.0939 42.15 72.5419 41.826C72.9899 41.502 73.5799 41.34 74.3119 41.34C74.8999 41.34 75.4039 41.446 75.8239 41.658C76.2479 41.866 76.5519 42.182 76.7359 42.606C76.8279 42.806 76.8859 43.024 76.9099 43.26C76.9339 43.492 76.9459 43.736 76.9459 43.992V48H75.9979V46.446L76.2199 46.59C75.9759 47.114 75.6339 47.51 75.1939 47.778C74.7579 48.046 74.2259 48.18 73.5979 48.18ZM73.7599 47.286C74.1439 47.286 74.4759 47.218 74.7559 47.082C75.0399 46.942 75.2679 46.76 75.4399 46.536C75.6119 46.308 75.7239 46.06 75.7759 45.792C75.8359 45.592 75.8679 45.37 75.8719 45.126C75.8799 44.878 75.8839 44.688 75.8839 44.556L76.2559 44.718C75.9079 44.766 75.5659 44.812 75.2299 44.856C74.8939 44.9 74.5759 44.948 74.2759 45C73.9759 45.048 73.7059 45.106 73.4659 45.174C73.2899 45.23 73.1239 45.302 72.9679 45.39C72.8159 45.478 72.6919 45.592 72.5959 45.732C72.5039 45.868 72.4579 46.038 72.4579 46.242C72.4579 46.418 72.5019 46.586 72.5899 46.746C72.6819 46.906 72.8219 47.036 73.0099 47.136C73.2019 47.236 73.4519 47.286 73.7599 47.286ZM81.1699 48.18C80.5659 48.18 80.0479 48.03 79.6159 47.73C79.1839 47.426 78.8499 47.016 78.6139 46.5C78.3819 45.984 78.2659 45.402 78.2659 44.754C78.2659 44.106 78.3819 43.524 78.6139 43.008C78.8499 42.492 79.1839 42.086 79.6159 41.79C80.0479 41.49 80.5639 41.34 81.1639 41.34C81.7759 41.34 82.2899 41.488 82.7059 41.784C83.1219 42.08 83.4359 42.486 83.6479 43.002C83.8639 43.518 83.9719 44.102 83.9719 44.754C83.9719 45.398 83.8639 45.98 83.6479 46.5C83.4359 47.016 83.1219 47.426 82.7059 47.73C82.2899 48.03 81.7779 48.18 81.1699 48.18ZM81.3019 47.202C81.7379 47.202 82.0959 47.098 82.3759 46.89C82.6559 46.678 82.8619 46.388 82.9939 46.02C83.1299 45.648 83.1979 45.226 83.1979 44.754C83.1979 44.274 83.1299 43.852 82.9939 43.488C82.8619 43.12 82.6579 42.834 82.3819 42.63C82.1059 42.422 81.7559 42.318 81.3319 42.318C80.8919 42.318 80.5279 42.426 80.2399 42.642C79.9559 42.858 79.7439 43.15 79.6039 43.518C79.4679 43.886 79.3999 44.298 79.3999 44.754C79.3999 45.214 79.4699 45.63 79.6099 46.002C79.7499 46.37 79.9599 46.662 80.2399 46.878C80.5239 47.094 80.8779 47.202 81.3019 47.202ZM83.1979 48V43.23H83.0779V39.36H84.1519V48H83.1979ZM88.497 48.18C87.893 48.18 87.375 48.03 86.943 47.73C86.511 47.426 86.177 47.016 85.941 46.5C85.709 45.984 85.593 45.402 85.593 44.754C85.593 44.106 85.709 43.524 85.941 43.008C86.177 42.492 86.511 42.086 86.943 41.79C87.375 41.49 87.891 41.34 88.491 41.34C89.103 41.34 89.617 41.488 90.033 41.784C90.449 42.08 90.763 42.486 90.975 43.002C91.191 43.518 91.299 44.102 91.299 44.754C91.299 45.398 91.191 45.98 90.975 46.5C90.763 47.016 90.449 47.426 90.033 47.73C89.617 48.03 89.105 48.18 88.497 48.18ZM88.629 47.202C89.065 47.202 89.423 47.098 89.703 46.89C89.983 46.678 90.189 46.388 90.321 46.02C90.457 45.648 90.525 45.226 90.525 44.754C90.525 44.274 90.457 43.852 90.321 43.488C90.189 43.12 89.985 42.834 89.709 42.63C89.433 42.422 89.083 42.318 88.659 42.318C88.219 42.318 87.855 42.426 87.567 42.642C87.283 42.858 87.071 43.15 86.931 43.518C86.795 43.886 86.727 44.298 86.727 44.754C86.727 45.214 86.797 45.63 86.937 46.002C87.077 46.37 87.287 46.662 87.567 46.878C87.851 47.094 88.205 47.202 88.629 47.202ZM90.525 48V43.23H90.405V39.36H91.479V48H90.525ZM93.28 48V41.52H94.234V43.086L94.078 42.882C94.154 42.682 94.252 42.498 94.372 42.33C94.496 42.162 94.634 42.024 94.786 41.916C94.954 41.78 95.144 41.676 95.356 41.604C95.568 41.532 95.784 41.49 96.004 41.478C96.224 41.462 96.43 41.476 96.622 41.52V42.522C96.398 42.462 96.152 42.446 95.884 42.474C95.616 42.502 95.368 42.6 95.14 42.768C94.932 42.916 94.77 43.096 94.654 43.308C94.542 43.52 94.464 43.75 94.42 43.998C94.376 44.242 94.354 44.492 94.354 44.748V48H93.28ZM100.567 48.18C99.9314 48.18 99.3754 48.04 98.8994 47.76C98.4274 47.476 98.0594 47.082 97.7954 46.578C97.5314 46.07 97.3994 45.478 97.3994 44.802C97.3994 44.094 97.5294 43.482 97.7894 42.966C98.0494 42.446 98.4114 42.046 98.8754 41.766C99.3434 41.482 99.8914 41.34 100.519 41.34C101.171 41.34 101.725 41.49 102.181 41.79C102.641 42.09 102.985 42.518 103.213 43.074C103.445 43.63 103.545 44.292 103.513 45.06H102.433V44.676C102.421 43.88 102.259 43.286 101.947 42.894C101.635 42.498 101.171 42.3 100.555 42.3C99.8954 42.3 99.3934 42.512 99.0494 42.936C98.7054 43.36 98.5334 43.968 98.5334 44.76C98.5334 45.524 98.7054 46.116 99.0494 46.536C99.3934 46.956 99.8834 47.166 100.519 47.166C100.947 47.166 101.319 47.068 101.635 46.872C101.951 46.676 102.199 46.394 102.379 46.026L103.405 46.38C103.153 46.952 102.773 47.396 102.265 47.712C101.761 48.024 101.195 48.18 100.567 48.18ZM98.1734 45.06V44.202H102.961V45.06H98.1734ZM107.417 48.174C106.645 48.174 106.011 48.006 105.515 47.67C105.023 47.33 104.721 46.856 104.609 46.248L105.701 46.074C105.789 46.426 105.991 46.706 106.307 46.914C106.623 47.118 107.015 47.22 107.483 47.22C107.927 47.22 108.275 47.128 108.527 46.944C108.779 46.76 108.905 46.51 108.905 46.194C108.905 46.01 108.863 45.862 108.779 45.75C108.695 45.634 108.521 45.526 108.257 45.426C107.997 45.326 107.603 45.206 107.075 45.066C106.503 44.914 106.053 44.756 105.725 44.592C105.397 44.428 105.163 44.238 105.023 44.022C104.883 43.806 104.813 43.544 104.813 43.236C104.813 42.856 104.917 42.524 105.125 42.24C105.333 41.952 105.623 41.73 105.995 41.574C106.371 41.418 106.807 41.34 107.303 41.34C107.795 41.34 108.235 41.418 108.623 41.574C109.011 41.73 109.323 41.952 109.559 42.24C109.799 42.524 109.941 42.856 109.985 43.236L108.893 43.434C108.841 43.086 108.673 42.812 108.389 42.612C108.109 42.412 107.747 42.306 107.303 42.294C106.883 42.278 106.541 42.352 106.277 42.516C106.017 42.68 105.887 42.902 105.887 43.182C105.887 43.338 105.935 43.472 106.031 43.584C106.131 43.696 106.313 43.802 106.577 43.902C106.845 44.002 107.233 44.116 107.741 44.244C108.313 44.388 108.763 44.546 109.091 44.718C109.423 44.886 109.659 45.086 109.799 45.318C109.939 45.546 110.009 45.828 110.009 46.164C110.009 46.788 109.779 47.28 109.319 47.64C108.859 47.996 108.225 48.174 107.417 48.174ZM113.901 48.174C113.129 48.174 112.495 48.006 111.999 47.67C111.507 47.33 111.205 46.856 111.093 46.248L112.185 46.074C112.273 46.426 112.475 46.706 112.791 46.914C113.107 47.118 113.499 47.22 113.967 47.22C114.411 47.22 114.759 47.128 115.011 46.944C115.263 46.76 115.389 46.51 115.389 46.194C115.389 46.01 115.347 45.862 115.263 45.75C115.179 45.634 115.005 45.526 114.741 45.426C114.481 45.326 114.087 45.206 113.559 45.066C112.987 44.914 112.537 44.756 112.209 44.592C111.881 44.428 111.647 44.238 111.507 44.022C111.367 43.806 111.297 43.544 111.297 43.236C111.297 42.856 111.401 42.524 111.609 42.24C111.817 41.952 112.107 41.73 112.479 41.574C112.855 41.418 113.291 41.34 113.787 41.34C114.279 41.34 114.719 41.418 115.107 41.574C115.495 41.73 115.807 41.952 116.043 42.24C116.283 42.524 116.425 42.856 116.469 43.236L115.377 43.434C115.325 43.086 115.157 42.812 114.873 42.612C114.593 42.412 114.231 42.306 113.787 42.294C113.367 42.278 113.025 42.352 112.761 42.516C112.501 42.68 112.371 42.902 112.371 43.182C112.371 43.338 112.419 43.472 112.515 43.584C112.615 43.696 112.797 43.802 113.061 43.902C113.329 44.002 113.717 44.116 114.225 44.244C114.797 44.388 115.247 44.546 115.575 44.718C115.907 44.886 116.143 45.086 116.283 45.318C116.423 45.546 116.493 45.828 116.493 46.164C116.493 46.788 116.263 47.28 115.803 47.64C115.343 47.996 114.709 48.174 113.901 48.174Z" fill="#7A7A7A"/>
</g>
<defs>
<filter id="filter0_d_2_18044" x="0" y="0" width="356" height="72" filterUnits="userSpaceOnUse" color-interpolation-filters="sRGB">
<feFlood flood-opacity="0" result="BackgroundImageFix"/>
<feColorMatrix in="SourceAlpha" type="matrix" values="0 0 0 0 0 0 0 0 0 0 0 0 0 0 0 0 0 0 127 0" result="hardAlpha"/>
<feOffset dy="1"/>
<feGaussianBlur stdDeviation="2.5"/>
<feComposite in2="hardAlpha" operator="out"/>
<feColorMatrix type="matrix" values="0 0 0 0 0 0 0 0 0 0 0 0 0 0 0 0 0 0 0.19 0"/>
<feBlend mode="normal" in2="BackgroundImageFix" result="effect1_dropShadow_2_18044"/>
<feBlend mode="normal" in="SourceGraphic" in2="effect1_dropShadow_2_18044" result="shape"/>
</filter>
</defs>
</svg>
