<svg width="350" height="111" viewBox="0 0 350 111" fill="none" xmlns="http://www.w3.org/2000/svg">
<g filter="url(#filter0_d_204_85)">
<path d="M4 8C4 5.23858 6.23858 3 9 3H341C343.761 3 346 5.23858 346 8V100C346 102.761 343.761 105 341 105H9C6.23858 105 4 102.761 4 100V8Z" fill="white"/>
<path d="M25.2315 30.195C24.5685 30.195 23.9705 30.0823 23.4375 29.857C22.9088 29.6317 22.4712 29.311 22.1245 28.895C21.7822 28.4747 21.559 27.9785 21.455 27.4065L22.651 27.218C22.8027 27.8073 23.1168 28.2688 23.5935 28.6025C24.0745 28.9318 24.64 29.0965 25.29 29.0965C25.7103 29.0965 26.0895 29.0315 26.4275 28.9015C26.7698 28.7672 27.0407 28.5765 27.24 28.3295C27.4393 28.0825 27.539 27.79 27.539 27.452C27.539 27.244 27.5022 27.0663 27.4285 26.919C27.3592 26.7673 27.2617 26.6395 27.136 26.5355C27.0147 26.4272 26.876 26.3362 26.72 26.2625C26.564 26.1888 26.4015 26.1282 26.2325 26.0805L23.847 25.372C23.587 25.294 23.3357 25.1965 23.093 25.0795C22.8503 24.9582 22.6337 24.8087 22.443 24.631C22.2523 24.449 22.1007 24.2323 21.988 23.981C21.8753 23.7253 21.819 23.4242 21.819 23.0775C21.819 22.5228 21.962 22.0505 22.248 21.6605C22.5383 21.2662 22.9305 20.965 23.4245 20.757C23.9185 20.549 24.4753 20.4472 25.095 20.4515C25.7233 20.4558 26.2845 20.5685 26.7785 20.7895C27.2768 21.0062 27.6885 21.3182 28.0135 21.7255C28.3428 22.1328 28.5638 22.6203 28.6765 23.188L27.448 23.4025C27.383 23.0212 27.2378 22.694 27.0125 22.421C26.7915 22.1437 26.5142 21.9313 26.1805 21.784C25.8468 21.6323 25.4807 21.5543 25.082 21.55C24.7007 21.5457 24.3562 21.6063 24.0485 21.732C23.7408 21.8577 23.496 22.0332 23.314 22.2585C23.132 22.4795 23.041 22.7352 23.041 23.0255C23.041 23.3115 23.1233 23.5433 23.288 23.721C23.4527 23.8943 23.6542 24.033 23.8925 24.137C24.1352 24.2367 24.3713 24.319 24.601 24.384L26.382 24.8975C26.5857 24.9538 26.8197 25.0318 27.084 25.1315C27.3527 25.2312 27.6127 25.372 27.864 25.554C28.1153 25.7317 28.3233 25.97 28.488 26.269C28.6527 26.5637 28.735 26.9363 28.735 27.387C28.735 27.8377 28.644 28.2385 28.462 28.5895C28.2843 28.9405 28.0352 29.2352 27.7145 29.4735C27.3938 29.7075 27.0212 29.8852 26.5965 30.0065C26.1718 30.1322 25.7168 30.195 25.2315 30.195ZM32.8935 30.182C32.4428 30.182 32.055 30.1105 31.73 29.9675C31.4093 29.8245 31.1428 29.6338 30.9305 29.3955C30.7181 29.1572 30.5513 28.8928 30.43 28.6025C30.3086 28.3122 30.222 28.0153 30.17 27.712C30.1223 27.4087 30.0985 27.1248 30.0985 26.8605V22.98H31.2685V26.4965C31.2685 26.8258 31.2988 27.1443 31.3595 27.452C31.4201 27.7597 31.522 28.037 31.665 28.284C31.8123 28.531 32.0073 28.726 32.25 28.869C32.497 29.012 32.8046 29.0835 33.173 29.0835C33.4633 29.0835 33.7276 29.0337 33.966 28.934C34.2043 28.8343 34.408 28.687 34.577 28.492C34.746 28.2927 34.876 28.0413 34.967 27.738C35.058 27.4347 35.1035 27.0815 35.1035 26.6785L35.864 26.9125C35.864 27.5885 35.7405 28.1713 35.4935 28.661C35.2508 29.1507 34.9063 29.5277 34.46 29.792C34.018 30.052 33.4958 30.182 32.8935 30.182ZM35.2335 30V28.1215H35.1035V22.98H36.267V30H35.2335ZM41.4409 30.195C40.7822 30.195 40.2275 30.0325 39.7769 29.7075C39.3262 29.3782 38.9839 28.934 38.7499 28.375C38.5202 27.8117 38.4054 27.1812 38.4054 26.4835C38.4054 25.7772 38.5202 25.1445 38.7499 24.5855C38.9839 24.0265 39.3262 23.5867 39.7769 23.266C40.2319 22.9453 40.7887 22.785 41.4474 22.785C42.0974 22.785 42.6564 22.9475 43.1244 23.2725C43.5967 23.5932 43.9585 24.033 44.2099 24.592C44.4612 25.151 44.5869 25.7815 44.5869 26.4835C44.5869 27.1855 44.4612 27.816 44.2099 28.375C43.9585 28.934 43.5967 29.3782 43.1244 29.7075C42.6564 30.0325 42.0952 30.195 41.4409 30.195ZM38.2104 30V20.64H39.3739V24.8325H39.2439V30H38.2104ZM41.2979 29.1355C41.7615 29.1355 42.145 29.0185 42.4484 28.7845C42.7517 28.5505 42.9792 28.2342 43.1309 27.8355C43.2825 27.4325 43.3584 26.9818 43.3584 26.4835C43.3584 25.9895 43.2825 25.5432 43.1309 25.1445C42.9835 24.7458 42.7539 24.4295 42.4419 24.1955C42.1342 23.9615 41.742 23.8445 41.2654 23.8445C40.8104 23.8445 40.4334 23.9572 40.1344 24.1825C39.8354 24.4035 39.6122 24.7133 39.4649 25.112C39.3175 25.5063 39.2439 25.9635 39.2439 26.4835C39.2439 26.9948 39.3154 27.452 39.4584 27.855C39.6057 28.2537 39.831 28.5678 40.1344 28.7975C40.4377 29.0228 40.8255 29.1355 41.2979 29.1355ZM50.0613 30C49.6453 30.0823 49.2336 30.1148 48.8263 30.0975C48.4233 30.0845 48.0636 30.0043 47.7473 29.857C47.431 29.7053 47.1905 29.4713 47.0258 29.155C46.8871 28.8777 46.8113 28.5982 46.7983 28.3165C46.7896 28.0305 46.7853 27.7077 46.7853 27.348V21.03H47.9423V27.296C47.9423 27.582 47.9445 27.8268 47.9488 28.0305C47.9575 28.2342 48.003 28.4097 48.0853 28.557C48.2413 28.8343 48.4883 28.9968 48.8263 29.0445C49.1686 29.0922 49.5803 29.0792 50.0613 29.0055V30ZM45.3618 23.9355V22.98H50.0613V23.9355H45.3618ZM54.3145 30.195C53.6169 30.195 53.0145 30.0368 52.5075 29.7205C52.0049 29.4042 51.617 28.9665 51.344 28.4075C51.071 27.8485 50.9345 27.2072 50.9345 26.4835C50.9345 25.7468 51.0732 25.1012 51.3505 24.5465C51.6279 23.9918 52.02 23.5607 52.527 23.253C53.034 22.941 53.6299 22.785 54.3145 22.785C55.0165 22.785 55.621 22.9432 56.128 23.2595C56.635 23.5715 57.0229 24.007 57.2915 24.566C57.5645 25.1207 57.701 25.7598 57.701 26.4835C57.701 27.2158 57.5645 27.8615 57.2915 28.4205C57.0185 28.9752 56.6285 29.4107 56.1215 29.727C55.6145 30.039 55.0122 30.195 54.3145 30.195ZM54.3145 29.0965C55.0425 29.0965 55.5842 28.8538 55.9395 28.3685C56.2949 27.8832 56.4725 27.2548 56.4725 26.4835C56.4725 25.6905 56.2927 25.06 55.933 24.592C55.5734 24.1197 55.0339 23.8835 54.3145 23.8835C53.8249 23.8835 53.4219 23.994 53.1055 24.215C52.7892 24.436 52.553 24.7415 52.397 25.1315C52.241 25.5215 52.163 25.9722 52.163 26.4835C52.163 27.2722 52.345 27.9048 52.709 28.3815C53.073 28.8582 53.6082 29.0965 54.3145 29.0965ZM63.1817 30C62.7657 30.0823 62.354 30.1148 61.9467 30.0975C61.5437 30.0845 61.184 30.0043 60.8677 29.857C60.5513 29.7053 60.3108 29.4713 60.1462 29.155C60.0075 28.8777 59.9317 28.5982 59.9187 28.3165C59.91 28.0305 59.9057 27.7077 59.9057 27.348V21.03H61.0627V27.296C61.0627 27.582 61.0648 27.8268 61.0692 28.0305C61.0778 28.2342 61.1233 28.4097 61.2057 28.557C61.3617 28.8343 61.6087 28.9968 61.9467 29.0445C62.289 29.0922 62.7007 29.0792 63.1817 29.0055V30ZM58.4821 23.9355V22.98H63.1817V23.9355H58.4821ZM66.7324 30.195C66.208 30.195 65.7682 30.0997 65.4129 29.909C65.0619 29.714 64.7954 29.4583 64.6134 29.142C64.4357 28.8257 64.3469 28.479 64.3469 28.102C64.3469 27.7337 64.4162 27.4152 64.5549 27.1465C64.6979 26.8735 64.8972 26.6482 65.1529 26.4705C65.4085 26.2885 65.714 26.1455 66.0694 26.0415C66.403 25.9505 66.7757 25.8725 67.1874 25.8075C67.6034 25.7382 68.0237 25.6753 68.4484 25.619C68.873 25.5627 69.2695 25.5085 69.6379 25.4565L69.2219 25.697C69.2349 25.073 69.1092 24.6115 68.8449 24.3125C68.5849 24.0135 68.1342 23.864 67.4929 23.864C67.0682 23.864 66.6955 23.9615 66.3749 24.1565C66.0585 24.3472 65.8354 24.6592 65.7054 25.0925L64.6069 24.761C64.7759 24.1457 65.103 23.6625 65.5884 23.3115C66.0737 22.9605 66.7129 22.785 67.5059 22.785C68.1429 22.785 68.6889 22.8998 69.1439 23.1295C69.6032 23.3548 69.9325 23.6972 70.1319 24.1565C70.2315 24.3732 70.2944 24.6093 70.3204 24.865C70.3464 25.1163 70.3594 25.3807 70.3594 25.658V30H69.3324V28.3165L69.5729 28.4725C69.3085 29.0402 68.938 29.4692 68.4614 29.7595C67.989 30.0498 67.4127 30.195 66.7324 30.195ZM66.9079 29.2265C67.3239 29.2265 67.6835 29.1528 67.9869 29.0055C68.2945 28.8538 68.5415 28.6567 68.7279 28.414C68.9142 28.167 69.0355 27.8983 69.0919 27.608C69.1569 27.3913 69.1915 27.1508 69.1959 26.8865C69.2045 26.6178 69.2089 26.412 69.2089 26.269L69.6119 26.4445C69.2349 26.4965 68.8644 26.5463 68.5004 26.594C68.1364 26.6417 67.7919 26.6937 67.4669 26.75C67.1419 26.802 66.8494 26.8648 66.5894 26.9385C66.3987 26.9992 66.2189 27.0772 66.0499 27.1725C65.8852 27.2678 65.7509 27.3913 65.6469 27.543C65.5472 27.6903 65.4974 27.8745 65.4974 28.0955C65.4974 28.2862 65.545 28.4682 65.6404 28.6415C65.74 28.8148 65.8917 28.9557 66.0954 29.064C66.3034 29.1723 66.5742 29.2265 66.9079 29.2265ZM72.3094 30V20.445H73.4664V30H72.3094Z" fill="#848484"/>
<path d="M25.2435 57V48.9205H22.13V47.64H29.7155V48.9205H26.602V57H25.2435ZM31.9541 57.195C31.4341 57.195 30.9986 57.0997 30.6476 56.909C30.2966 56.714 30.0301 56.4583 29.8481 56.142C29.6705 55.8213 29.5816 55.4703 29.5816 55.089C29.5816 54.7337 29.6445 54.4217 29.7701 54.153C29.8958 53.8843 30.0821 53.6568 30.3291 53.4705C30.5761 53.2798 30.8795 53.126 31.2391 53.009C31.5511 52.918 31.9043 52.8378 32.2986 52.7685C32.693 52.6992 33.1068 52.6342 33.5401 52.5735C33.9778 52.5128 34.4111 52.4522 34.8401 52.3915L34.3461 52.6645C34.3548 52.1142 34.2378 51.7068 33.9951 51.4425C33.7568 51.1738 33.3451 51.0395 32.7601 51.0395C32.3918 51.0395 32.0538 51.1262 31.7461 51.2995C31.4385 51.4685 31.224 51.7502 31.1026 52.1445L29.8351 51.7545C30.0085 51.1522 30.3378 50.6733 30.8231 50.318C31.3128 49.9627 31.9628 49.785 32.7731 49.785C33.4015 49.785 33.9475 49.8933 34.4111 50.11C34.8791 50.3223 35.2215 50.6603 35.4381 51.124C35.5508 51.3537 35.6201 51.5963 35.6461 51.852C35.6721 52.1077 35.6851 52.3828 35.6851 52.6775V57H34.4826V55.3945L34.7166 55.6025C34.4263 56.1398 34.0558 56.5407 33.6051 56.805C33.1588 57.065 32.6085 57.195 31.9541 57.195ZM32.1946 56.0835C32.5803 56.0835 32.9118 56.0163 33.1891 55.882C33.4665 55.7433 33.6896 55.5678 33.8586 55.3555C34.0276 55.1432 34.1381 54.9222 34.1901 54.6925C34.2638 54.4845 34.305 54.2505 34.3136 53.9905C34.3266 53.7305 34.3331 53.5225 34.3331 53.3665L34.7751 53.529C34.3461 53.594 33.9561 53.6525 33.6051 53.7045C33.2541 53.7565 32.9356 53.8085 32.6496 53.8605C32.368 53.9082 32.1166 53.9667 31.8956 54.036C31.7093 54.101 31.5425 54.179 31.3951 54.27C31.2521 54.361 31.1373 54.4715 31.0506 54.6015C30.9683 54.7315 30.9271 54.8897 30.9271 55.076C30.9271 55.258 30.9726 55.427 31.0636 55.583C31.1546 55.7347 31.2933 55.856 31.4796 55.947C31.666 56.038 31.9043 56.0835 32.1946 56.0835ZM36.723 57L39.349 53.451L36.7815 49.98H38.3935L40.142 52.3915L41.871 49.98H43.483L40.9155 53.451L43.548 57H41.9295L40.142 54.5105L38.3415 57H36.723Z" fill="#848484"/>
<path d="M27.088 87V76.832H23.16V75.48H32.44V76.832H28.512V87H27.088ZM36.2725 87.24C35.4138 87.24 34.6725 87.0453 34.0485 86.656C33.4298 86.2667 32.9525 85.728 32.6165 85.04C32.2805 84.352 32.1125 83.5627 32.1125 82.672C32.1125 81.7653 32.2832 80.9707 32.6245 80.288C32.9658 79.6053 33.4485 79.0747 34.0725 78.696C34.6965 78.312 35.4298 78.12 36.2725 78.12C37.1365 78.12 37.8805 78.3147 38.5045 78.704C39.1285 79.088 39.6058 79.624 39.9365 80.312C40.2725 80.9947 40.4405 81.7813 40.4405 82.672C40.4405 83.5733 40.2725 84.368 39.9365 85.056C39.6005 85.7387 39.1205 86.2747 38.4965 86.664C37.8725 87.048 37.1312 87.24 36.2725 87.24ZM36.2725 85.888C37.1685 85.888 37.8352 85.5893 38.2725 84.992C38.7098 84.3947 38.9285 83.6213 38.9285 82.672C38.9285 81.696 38.7072 80.92 38.2645 80.344C37.8218 79.7627 37.1578 79.472 36.2725 79.472C35.6698 79.472 35.1738 79.608 34.7845 79.88C34.3952 80.152 34.1045 80.528 33.9125 81.008C33.7205 81.488 33.6245 82.0427 33.6245 82.672C33.6245 83.6427 33.8485 84.4213 34.2965 85.008C34.7445 85.5947 35.4032 85.888 36.2725 85.888ZM47.1859 87C46.6739 87.1013 46.1672 87.1413 45.6659 87.12C45.1699 87.104 44.7272 87.0053 44.3379 86.824C43.9485 86.6373 43.6525 86.3493 43.4499 85.96C43.2792 85.6187 43.1859 85.2747 43.1699 84.928C43.1592 84.576 43.1539 84.1787 43.1539 83.736V75.96H44.5779V83.672C44.5779 84.024 44.5805 84.3253 44.5859 84.576C44.5965 84.8267 44.6525 85.0427 44.7539 85.224C44.9459 85.5653 45.2499 85.7653 45.6659 85.824C46.0872 85.8827 46.5939 85.8667 47.1859 85.776V87ZM41.4019 79.536V78.36H47.1859V79.536H41.4019ZM51.556 87.24C50.9107 87.24 50.3693 87.1227 49.932 86.888C49.5 86.648 49.172 86.3333 48.948 85.944C48.7293 85.5547 48.62 85.128 48.62 84.664C48.62 84.2107 48.7053 83.8187 48.876 83.488C49.052 83.152 49.2973 82.8747 49.612 82.656C49.9267 82.432 50.3027 82.256 50.74 82.128C51.1507 82.016 51.6093 81.92 52.116 81.84C52.628 81.7547 53.1453 81.6773 53.668 81.608C54.1907 81.5387 54.6787 81.472 55.132 81.408L54.62 81.704C54.636 80.936 54.4813 80.368 54.156 80C53.836 79.632 53.2813 79.448 52.492 79.448C51.9693 79.448 51.5107 79.568 51.116 79.808C50.7267 80.0427 50.452 80.4267 50.292 80.96L48.94 80.552C49.148 79.7947 49.5507 79.2 50.148 78.768C50.7453 78.336 51.532 78.12 52.508 78.12C53.292 78.12 53.964 78.2613 54.524 78.544C55.0893 78.8213 55.4947 79.2427 55.74 79.808C55.8627 80.0747 55.94 80.3653 55.972 80.68C56.004 80.9893 56.02 81.3147 56.02 81.656V87H54.756V84.928L55.052 85.12C54.7267 85.8187 54.2707 86.3467 53.684 86.704C53.1027 87.0613 52.3933 87.24 51.556 87.24ZM51.772 86.048C52.284 86.048 52.7267 85.9573 53.1 85.776C53.4787 85.5893 53.7827 85.3467 54.012 85.048C54.2413 84.744 54.3907 84.4133 54.46 84.056C54.54 83.7893 54.5827 83.4933 54.588 83.168C54.5987 82.8373 54.604 82.584 54.604 82.408L55.1 82.624C54.636 82.688 54.18 82.7493 53.732 82.808C53.284 82.8667 52.86 82.9307 52.46 83C52.06 83.064 51.7 83.1413 51.38 83.232C51.1453 83.3067 50.924 83.4027 50.716 83.52C50.5133 83.6373 50.348 83.7893 50.22 83.976C50.0973 84.1573 50.036 84.384 50.036 84.656C50.036 84.8907 50.0947 85.1147 50.212 85.328C50.3347 85.5413 50.5213 85.7147 50.772 85.848C51.028 85.9813 51.3613 86.048 51.772 86.048ZM58.42 87V75.24H59.844V87H58.42Z" fill="black"/>
</g>
<path d="M275.374 31.287V29.7855H276.531V31.287H275.374ZM275.374 20.8545V19.3465H276.531V20.8545H275.374ZM276.043 30.195C275.41 30.195 274.841 30.0823 274.334 29.857C273.831 29.6273 273.417 29.3045 273.092 28.8885C272.767 28.4682 272.555 27.9742 272.455 27.4065L273.593 27.218C273.731 27.7943 274.024 28.2515 274.47 28.5895C274.921 28.9275 275.462 29.0965 276.095 29.0965C276.732 29.0965 277.248 28.9427 277.642 28.635C278.036 28.3273 278.234 27.9308 278.234 27.4455C278.234 27.0902 278.127 26.8042 277.915 26.5875C277.707 26.3708 277.356 26.1867 276.862 26.035L274.724 25.372C273.445 24.9733 272.806 24.2107 272.806 23.084C272.806 22.5553 272.934 22.0938 273.19 21.6995C273.45 21.3008 273.811 20.9932 274.275 20.7765C274.743 20.5555 275.287 20.4472 275.907 20.4515C276.509 20.4558 277.046 20.5685 277.519 20.7895C277.991 21.0062 278.381 21.3182 278.689 21.7255C279.001 22.1328 279.211 22.6203 279.319 23.188L278.149 23.4025C278.088 23.0342 277.954 22.7113 277.746 22.434C277.542 22.1567 277.282 21.9422 276.966 21.7905C276.65 21.6345 276.294 21.5543 275.9 21.55C275.532 21.5457 275.2 21.6063 274.906 21.732C274.615 21.8577 274.386 22.0332 274.217 22.2585C274.048 22.4838 273.963 22.7417 273.963 23.032C273.963 23.3483 274.08 23.617 274.314 23.838C274.552 24.0547 274.925 24.241 275.432 24.397L277.187 24.917C277.958 25.1467 278.515 25.4565 278.858 25.8465C279.2 26.2322 279.371 26.7478 279.371 27.3935C279.371 27.9525 279.232 28.4422 278.955 28.8625C278.682 29.2828 278.294 29.61 277.792 29.844C277.293 30.078 276.71 30.195 276.043 30.195ZM283.428 30.182C282.964 30.182 282.533 30.0975 282.134 29.9285C281.736 29.7552 281.391 29.5125 281.101 29.2005C280.815 28.8842 280.605 28.5093 280.47 28.076L281.582 27.7575C281.725 28.1908 281.963 28.5202 282.297 28.7455C282.63 28.9708 283.005 29.0813 283.421 29.077C283.803 29.0683 284.132 28.9817 284.409 28.817C284.691 28.648 284.908 28.4183 285.059 28.128C285.215 27.8377 285.293 27.5018 285.293 27.1205C285.293 26.5398 285.12 26.0697 284.773 25.71C284.427 25.346 283.972 25.164 283.408 25.164C283.252 25.164 283.088 25.1857 282.914 25.229C282.745 25.2723 282.587 25.333 282.44 25.411L281.881 24.4945L285.352 21.355L285.501 21.745H280.841V20.64H286.359V21.7515L283.402 24.5855L283.389 24.176C284.008 24.1327 284.55 24.2345 285.014 24.4815C285.477 24.7285 285.837 25.0817 286.093 25.541C286.353 26.0003 286.483 26.5268 286.483 27.1205C286.483 27.7185 286.348 28.2472 286.08 28.7065C285.811 29.1658 285.447 29.5277 284.988 29.792C284.528 30.052 284.008 30.182 283.428 30.182ZM291.494 30.195C290.901 30.195 290.361 30.052 289.876 29.766C289.395 29.48 289.011 29.09 288.725 28.596C288.444 28.0977 288.303 27.5365 288.303 26.9125V23.799C288.303 23.1447 288.444 22.5662 288.725 22.0635C289.011 21.5565 289.401 21.1622 289.895 20.8805C290.394 20.5945 290.961 20.4515 291.598 20.4515C292.114 20.4515 292.593 20.5577 293.035 20.77C293.481 20.978 293.856 21.2792 294.159 21.6735L293.295 22.4405C293.108 22.1675 292.866 21.9508 292.567 21.7905C292.268 21.6302 291.945 21.55 291.598 21.55C291.187 21.55 290.82 21.6497 290.5 21.849C290.183 22.044 289.934 22.304 289.752 22.629C289.57 22.9497 289.479 23.2963 289.479 23.669V25.5475L289.226 25.2615C289.499 24.8715 289.845 24.5595 290.266 24.3255C290.686 24.0915 291.141 23.9745 291.631 23.9745C292.211 23.9745 292.731 24.111 293.191 24.384C293.654 24.657 294.018 25.0275 294.283 25.4955C294.551 25.9592 294.686 26.4813 294.686 27.062C294.686 27.6427 294.541 28.1692 294.25 28.6415C293.96 29.1138 293.572 29.4908 293.087 29.7725C292.606 30.0542 292.075 30.195 291.494 30.195ZM291.494 29.077C291.867 29.077 292.207 28.9882 292.515 28.8105C292.822 28.6285 293.065 28.3858 293.243 28.0825C293.425 27.7748 293.516 27.4347 293.516 27.062C293.516 26.6893 293.425 26.3492 293.243 26.0415C293.065 25.7338 292.822 25.4912 292.515 25.3135C292.211 25.1315 291.873 25.0405 291.501 25.0405C291.128 25.0405 290.788 25.1315 290.48 25.3135C290.177 25.4912 289.934 25.7338 289.752 26.0415C289.57 26.3492 289.479 26.6893 289.479 27.062C289.479 27.4303 289.568 27.7683 289.746 28.076C289.928 28.3793 290.17 28.622 290.474 28.804C290.781 28.986 291.122 29.077 291.494 29.077ZM299.666 30.195C299.059 30.195 298.518 30.0585 298.041 29.7855C297.569 29.5082 297.194 29.1333 296.917 28.661C296.644 28.1843 296.507 27.6427 296.507 27.036V23.604C296.507 22.9973 296.644 22.4557 296.917 21.979C297.194 21.5023 297.569 21.1275 298.041 20.8545C298.518 20.5815 299.059 20.445 299.666 20.445C300.273 20.445 300.814 20.5815 301.291 20.8545C301.768 21.1275 302.143 21.5023 302.416 21.979C302.689 22.4557 302.825 22.9973 302.825 23.604V27.036C302.825 27.6427 302.689 28.1843 302.416 28.661C302.143 29.1333 301.768 29.5082 301.291 29.7855C300.814 30.0585 300.273 30.195 299.666 30.195ZM299.666 29.0835C300.034 29.0835 300.368 28.9947 300.667 28.817C300.966 28.6393 301.204 28.401 301.382 28.102C301.56 27.7987 301.649 27.465 301.649 27.101V23.5325C301.649 23.1642 301.56 22.8305 301.382 22.5315C301.204 22.2325 300.966 21.9942 300.667 21.8165C300.368 21.6388 300.034 21.55 299.666 21.55C299.302 21.55 298.968 21.6388 298.665 21.8165C298.366 21.9942 298.128 22.2325 297.95 22.5315C297.772 22.8305 297.684 23.1642 297.684 23.5325V27.101C297.684 27.465 297.772 27.7987 297.95 28.102C298.128 28.401 298.366 28.6393 298.665 28.817C298.968 28.9947 299.302 29.0835 299.666 29.0835ZM304.983 30V28.726H306.257V30H304.983ZM311.568 30.195C310.961 30.195 310.419 30.0585 309.943 29.7855C309.47 29.5082 309.095 29.1333 308.818 28.661C308.545 28.1843 308.409 27.6427 308.409 27.036V23.604C308.409 22.9973 308.545 22.4557 308.818 21.979C309.095 21.5023 309.47 21.1275 309.943 20.8545C310.419 20.5815 310.961 20.445 311.568 20.445C312.174 20.445 312.716 20.5815 313.193 20.8545C313.669 21.1275 314.044 21.5023 314.317 21.979C314.59 22.4557 314.727 22.9973 314.727 23.604V27.036C314.727 27.6427 314.59 28.1843 314.317 28.661C314.044 29.1333 313.669 29.5082 313.193 29.7855C312.716 30.0585 312.174 30.195 311.568 30.195ZM311.568 29.0835C311.936 29.0835 312.27 28.9947 312.569 28.817C312.868 28.6393 313.106 28.401 313.284 28.102C313.461 27.7987 313.55 27.465 313.55 27.101V23.5325C313.55 23.1642 313.461 22.8305 313.284 22.5315C313.106 22.2325 312.868 21.9942 312.569 21.8165C312.27 21.6388 311.936 21.55 311.568 21.55C311.204 21.55 310.87 21.6388 310.567 21.8165C310.268 21.9942 310.029 22.2325 309.852 22.5315C309.674 22.8305 309.585 23.1642 309.585 23.5325V27.101C309.585 27.465 309.674 27.7987 309.852 28.102C310.029 28.401 310.268 28.6393 310.567 28.817C310.87 28.9947 311.204 29.0835 311.568 29.0835ZM319.835 30.195C319.229 30.195 318.687 30.0585 318.21 29.7855C317.738 29.5082 317.363 29.1333 317.086 28.661C316.813 28.1843 316.676 27.6427 316.676 27.036V23.604C316.676 22.9973 316.813 22.4557 317.086 21.979C317.363 21.5023 317.738 21.1275 318.21 20.8545C318.687 20.5815 319.229 20.445 319.835 20.445C320.442 20.445 320.984 20.5815 321.46 20.8545C321.937 21.1275 322.312 21.5023 322.585 21.979C322.858 22.4557 322.994 22.9973 322.994 23.604V27.036C322.994 27.6427 322.858 28.1843 322.585 28.661C322.312 29.1333 321.937 29.5082 321.46 29.7855C320.984 30.0585 320.442 30.195 319.835 30.195ZM319.835 29.0835C320.204 29.0835 320.537 28.9947 320.836 28.817C321.135 28.6393 321.374 28.401 321.551 28.102C321.729 27.7987 321.818 27.465 321.818 27.101V23.5325C321.818 23.1642 321.729 22.8305 321.551 22.5315C321.374 22.2325 321.135 21.9942 320.836 21.8165C320.537 21.6388 320.204 21.55 319.835 21.55C319.471 21.55 319.138 21.6388 318.834 21.8165C318.535 21.9942 318.297 22.2325 318.119 22.5315C317.942 22.8305 317.853 23.1642 317.853 23.5325V27.101C317.853 27.465 317.942 27.7987 318.119 28.102C318.297 28.401 318.535 28.6393 318.834 28.817C319.138 28.9947 319.471 29.0835 319.835 29.0835Z" fill="black"/>
<path d="M297.374 62.287V60.7855H298.531V62.287H297.374ZM297.374 51.8545V50.3465H298.531V51.8545H297.374ZM298.043 61.195C297.41 61.195 296.841 61.0823 296.334 60.857C295.831 60.6273 295.417 60.3045 295.092 59.8885C294.767 59.4682 294.555 58.9742 294.455 58.4065L295.593 58.218C295.731 58.7943 296.024 59.2515 296.47 59.5895C296.921 59.9275 297.462 60.0965 298.095 60.0965C298.732 60.0965 299.248 59.9427 299.642 59.635C300.036 59.3273 300.234 58.9308 300.234 58.4455C300.234 58.0902 300.127 57.8042 299.915 57.5875C299.707 57.3708 299.356 57.1867 298.862 57.035L296.724 56.372C295.445 55.9733 294.806 55.2107 294.806 54.084C294.806 53.5553 294.934 53.0938 295.19 52.6995C295.45 52.3008 295.811 51.9932 296.275 51.7765C296.743 51.5555 297.287 51.4472 297.907 51.4515C298.509 51.4558 299.046 51.5685 299.519 51.7895C299.991 52.0062 300.381 52.3182 300.689 52.7255C301.001 53.1328 301.211 53.6203 301.319 54.188L300.149 54.4025C300.088 54.0342 299.954 53.7113 299.746 53.434C299.542 53.1567 299.282 52.9422 298.966 52.7905C298.65 52.6345 298.294 52.5543 297.9 52.55C297.532 52.5457 297.2 52.6063 296.906 52.732C296.615 52.8577 296.386 53.0332 296.217 53.2585C296.048 53.4838 295.963 53.7417 295.963 54.032C295.963 54.3483 296.08 54.617 296.314 54.838C296.552 55.0547 296.925 55.241 297.432 55.397L299.187 55.917C299.958 56.1467 300.515 56.4565 300.858 56.8465C301.2 57.2322 301.371 57.7478 301.371 58.3935C301.371 58.9525 301.232 59.4422 300.955 59.8625C300.682 60.2828 300.294 60.61 299.792 60.844C299.293 61.078 298.71 61.195 298.043 61.195ZM304.492 61V52.9205L302.73 53.9865V52.693L304.492 51.64H305.668V61H304.492ZM307.959 61V59.726H309.233V61H307.959ZM311.125 60.9935L311.131 59.9535L315.285 56.216C315.632 55.904 315.863 55.6093 315.98 55.332C316.102 55.0503 316.162 54.7622 316.162 54.4675C316.162 54.1078 316.08 53.7828 315.915 53.4925C315.751 53.2022 315.525 52.9725 315.239 52.8035C314.958 52.6345 314.637 52.55 314.277 52.55C313.905 52.55 313.573 52.6388 313.283 52.8165C312.993 52.9898 312.763 53.2217 312.594 53.512C312.429 53.8023 312.349 54.1187 312.353 54.461H311.17C311.17 53.8717 311.307 53.3517 311.58 52.901C311.853 52.446 312.223 52.0907 312.691 51.835C313.164 51.575 313.699 51.445 314.297 51.445C314.878 51.445 315.398 51.5793 315.857 51.848C316.316 52.1123 316.678 52.4742 316.942 52.9335C317.211 53.3885 317.345 53.9042 317.345 54.4805C317.345 54.8878 317.293 55.241 317.189 55.54C317.09 55.839 316.934 56.1163 316.721 56.372C316.509 56.6233 316.243 56.892 315.922 57.178L312.47 60.2785L312.321 59.8885H317.345V60.9935H311.125ZM322.222 61.195C321.628 61.195 321.089 61.052 320.604 60.766C320.123 60.48 319.739 60.09 319.453 59.596C319.171 59.0977 319.031 58.5365 319.031 57.9125V54.799C319.031 54.1447 319.171 53.5662 319.453 53.0635C319.739 52.5565 320.129 52.1622 320.623 51.8805C321.121 51.5945 321.689 51.4515 322.326 51.4515C322.842 51.4515 323.321 51.5577 323.763 51.77C324.209 51.978 324.584 52.2792 324.887 52.6735L324.023 53.4405C323.836 53.1675 323.594 52.9508 323.295 52.7905C322.996 52.6302 322.673 52.55 322.326 52.55C321.914 52.55 321.548 52.6497 321.228 52.849C320.911 53.044 320.662 53.304 320.48 53.629C320.298 53.9497 320.207 54.2963 320.207 54.669V56.5475L319.954 56.2615C320.227 55.8715 320.573 55.5595 320.994 55.3255C321.414 55.0915 321.869 54.9745 322.359 54.9745C322.939 54.9745 323.459 55.111 323.919 55.384C324.382 55.657 324.746 56.0275 325.011 56.4955C325.279 56.9592 325.414 57.4813 325.414 58.062C325.414 58.6427 325.268 59.1692 324.978 59.6415C324.688 60.1138 324.3 60.4908 323.815 60.7725C323.334 61.0542 322.803 61.195 322.222 61.195ZM322.222 60.077C322.595 60.077 322.935 59.9882 323.243 59.8105C323.55 59.6285 323.793 59.3858 323.971 59.0825C324.153 58.7748 324.244 58.4347 324.244 58.062C324.244 57.6893 324.153 57.3492 323.971 57.0415C323.793 56.7338 323.55 56.4912 323.243 56.3135C322.939 56.1315 322.601 56.0405 322.229 56.0405C321.856 56.0405 321.516 56.1315 321.208 56.3135C320.905 56.4912 320.662 56.7338 320.48 57.0415C320.298 57.3492 320.207 57.6893 320.207 58.062C320.207 58.4303 320.296 58.7683 320.474 59.076C320.656 59.3793 320.898 59.622 321.202 59.804C321.509 59.986 321.849 60.077 322.222 60.077Z" fill="black"/>
<path d="M269.144 92.592V90.72H270.816V92.592H269.144ZM269.144 79.768V77.888H270.816V79.768H269.144ZM270.064 91.24C269.264 91.24 268.549 91.096 267.92 90.808C267.291 90.52 266.773 90.112 266.368 89.584C265.968 89.0507 265.707 88.4213 265.584 87.696L267.24 87.432C267.4 88.1147 267.741 88.6587 268.264 89.064C268.787 89.464 269.413 89.664 270.144 89.664C270.869 89.664 271.459 89.4907 271.912 89.144C272.371 88.7973 272.6 88.3547 272.6 87.816C272.6 87.432 272.483 87.12 272.248 86.88C272.019 86.64 271.643 86.4373 271.12 86.272L268.416 85.44C266.816 84.944 266.016 83.984 266.016 82.56C266.016 81.888 266.176 81.304 266.496 80.808C266.821 80.312 267.277 79.928 267.864 79.656C268.451 79.384 269.136 79.248 269.92 79.248C270.672 79.2587 271.339 79.3973 271.92 79.664C272.507 79.9307 272.992 80.3147 273.376 80.816C273.765 81.3173 274.035 81.92 274.184 82.624L272.48 82.928C272.405 82.5173 272.248 82.1547 272.008 81.84C271.773 81.5253 271.475 81.28 271.112 81.104C270.755 80.928 270.352 80.8373 269.904 80.832C269.483 80.8213 269.104 80.888 268.768 81.032C268.437 81.1707 268.173 81.368 267.976 81.624C267.784 81.8747 267.688 82.16 267.688 82.48C267.688 82.832 267.824 83.1307 268.096 83.376C268.368 83.6213 268.797 83.832 269.384 84.008L271.504 84.624C272.475 84.912 273.176 85.2987 273.608 85.784C274.04 86.2693 274.256 86.9147 274.256 87.72C274.256 88.424 274.08 89.04 273.728 89.568C273.381 90.0907 272.893 90.5013 272.264 90.8C271.635 91.0933 270.901 91.24 270.064 91.24ZM279.588 91.216C279.017 91.216 278.481 91.1093 277.98 90.896C277.478 90.6773 277.044 90.368 276.676 89.968C276.313 89.568 276.049 89.096 275.884 88.552L277.5 88.104C277.654 88.6 277.924 88.9813 278.308 89.248C278.692 89.5093 279.118 89.6373 279.588 89.632C280.009 89.6267 280.38 89.528 280.7 89.336C281.02 89.144 281.27 88.8853 281.452 88.56C281.633 88.2293 281.724 87.8507 281.724 87.424C281.724 86.784 281.524 86.256 281.124 85.84C280.729 85.424 280.212 85.216 279.572 85.216C279.39 85.216 279.204 85.2427 279.012 85.296C278.825 85.3493 278.649 85.4187 278.484 85.504L277.7 84.184L281.764 80.592L281.94 81.072H276.34V79.48H283.268V81.072L279.892 84.32L279.876 83.776C280.601 83.776 281.23 83.9387 281.764 84.264C282.297 84.584 282.708 85.0213 282.996 85.576C283.289 86.1253 283.436 86.7413 283.436 87.424C283.436 88.16 283.262 88.8133 282.916 89.384C282.574 89.9547 282.113 90.4027 281.532 90.728C280.956 91.0533 280.308 91.216 279.588 91.216ZM289.88 91.24C289.133 91.24 288.461 91.064 287.864 90.712C287.267 90.3547 286.792 89.8667 286.44 89.248C286.093 88.6293 285.92 87.9253 285.92 87.136V83.464C285.92 82.6267 286.093 81.8907 286.44 81.256C286.792 80.6213 287.277 80.128 287.896 79.776C288.52 79.424 289.237 79.248 290.048 79.248C290.656 79.248 291.227 79.3627 291.76 79.592C292.293 79.8213 292.755 80.1627 293.144 80.616L291.92 81.76C291.701 81.4773 291.427 81.2533 291.096 81.088C290.771 80.9173 290.421 80.832 290.048 80.832C289.568 80.832 289.147 80.9467 288.784 81.176C288.421 81.4 288.136 81.696 287.928 82.064C287.725 82.432 287.624 82.8267 287.624 83.248V85.36L287.296 84.992C287.627 84.56 288.037 84.2187 288.528 83.968C289.019 83.7173 289.544 83.592 290.104 83.592C290.819 83.592 291.456 83.76 292.016 84.096C292.581 84.4267 293.024 84.8773 293.344 85.448C293.669 86.0187 293.832 86.6613 293.832 87.376C293.832 88.096 293.651 88.7493 293.288 89.336C292.931 89.9173 292.451 90.3813 291.848 90.728C291.251 91.0693 290.595 91.24 289.88 91.24ZM289.88 89.632C290.296 89.632 290.675 89.5307 291.016 89.328C291.357 89.1253 291.629 88.8533 291.832 88.512C292.035 88.1707 292.136 87.792 292.136 87.376C292.136 86.96 292.035 86.5813 291.832 86.24C291.635 85.8987 291.365 85.6267 291.024 85.424C290.683 85.2213 290.304 85.12 289.888 85.12C289.472 85.12 289.091 85.2213 288.744 85.424C288.403 85.6267 288.131 85.8987 287.928 86.24C287.725 86.5813 287.624 86.96 287.624 87.376C287.624 87.7867 287.725 88.1627 287.928 88.504C288.131 88.8453 288.403 89.12 288.744 89.328C289.085 89.5307 289.464 89.632 289.88 89.632ZM296.858 91L300.906 81.072H295.778V79.48H302.706V81.072L298.666 91H296.858ZM304.789 91V89.232H306.557V91H304.789ZM309.159 90.992L309.167 89.504L314.183 85.008C314.589 84.6507 314.863 84.3093 315.007 83.984C315.157 83.6587 315.231 83.3333 315.231 83.008C315.231 82.5973 315.141 82.2293 314.959 81.904C314.778 81.5733 314.527 81.312 314.207 81.12C313.887 80.928 313.519 80.832 313.103 80.832C312.677 80.832 312.295 80.9333 311.959 81.136C311.629 81.3333 311.37 81.5973 311.183 81.928C310.997 82.2587 310.906 82.616 310.911 83H309.199C309.199 82.2533 309.367 81.6 309.703 81.04C310.045 80.4747 310.511 80.0347 311.103 79.72C311.695 79.4 312.373 79.24 313.135 79.24C313.861 79.24 314.511 79.4053 315.087 79.736C315.663 80.0613 316.117 80.5093 316.447 81.08C316.783 81.6507 316.951 82.3013 316.951 83.032C316.951 83.56 316.882 84.008 316.743 84.376C316.605 84.744 316.397 85.0853 316.119 85.4C315.842 85.7147 315.495 86.056 315.079 86.424L311.207 89.88L311.023 89.4H316.951V90.992H309.159ZM318.95 90.992L318.958 89.504L323.974 85.008C324.379 84.6507 324.654 84.3093 324.798 83.984C324.947 83.6587 325.022 83.3333 325.022 83.008C325.022 82.5973 324.931 82.2293 324.75 81.904C324.569 81.5733 324.318 81.312 323.998 81.12C323.678 80.928 323.31 80.832 322.894 80.832C322.467 80.832 322.086 80.9333 321.75 81.136C321.419 81.3333 321.161 81.5973 320.974 81.928C320.787 82.2587 320.697 82.616 320.702 83H318.99C318.99 82.2533 319.158 81.6 319.494 81.04C319.835 80.4747 320.302 80.0347 320.894 79.72C321.486 79.4 322.163 79.24 322.926 79.24C323.651 79.24 324.302 79.4053 324.878 79.736C325.454 80.0613 325.907 80.5093 326.238 81.08C326.574 81.6507 326.742 82.3013 326.742 83.032C326.742 83.56 326.673 84.008 326.534 84.376C326.395 84.744 326.187 85.0853 325.91 85.4C325.633 85.7147 325.286 86.056 324.87 86.424L320.998 89.88L320.814 89.4H326.742V90.992H318.95Z" fill="#3C3C3F"/>
<defs>
<filter id="filter0_d_204_85" x="0" y="0.5" width="350" height="110" filterUnits="userSpaceOnUse" color-interpolation-filters="sRGB">
<feFlood flood-opacity="0" result="BackgroundImageFix"/>
<feColorMatrix in="SourceAlpha" type="matrix" values="0 0 0 0 0 0 0 0 0 0 0 0 0 0 0 0 0 0 127 0" result="hardAlpha"/>
<feOffset dy="1.5"/>
<feGaussianBlur stdDeviation="2"/>
<feComposite in2="hardAlpha" operator="out"/>
<feColorMatrix type="matrix" values="0 0 0 0 0 0 0 0 0 0 0 0 0 0 0 0 0 0 0.25 0"/>
<feBlend mode="normal" in2="BackgroundImageFix" result="effect1_dropShadow_204_85"/>
<feBlend mode="normal" in="SourceGraphic" in2="effect1_dropShadow_204_85" result="shape"/>
</filter>
</defs>
</svg>
