<svg width="85" height="24" viewBox="0 0 85 24" fill="none" xmlns="http://www.w3.org/2000/svg">
<path d="M4.144 19.592V17.72H5.816V19.592H4.144ZM4.144 6.768V4.888H5.816V6.768H4.144ZM5.064 18.24C4.264 18.24 3.54933 18.096 2.92 17.808C2.29067 17.52 1.77333 17.112 1.368 16.584C0.968 16.0507 0.706667 15.4213 0.584 14.696L2.24 14.432C2.4 15.1147 2.74133 15.6587 3.264 16.064C3.78667 16.464 4.41333 16.664 5.144 16.664C5.86933 16.664 6.45867 16.4907 6.912 16.144C7.37067 15.7973 7.6 15.3547 7.6 14.816C7.6 14.432 7.48267 14.12 7.248 13.88C7.01867 13.64 6.64267 13.4373 6.12 13.272L3.416 12.44C1.816 11.944 1.016 10.984 1.016 9.56C1.016 8.888 1.176 8.304 1.496 7.808C1.82133 7.312 2.27733 6.928 2.864 6.656C3.45067 6.384 4.136 6.248 4.92 6.248C5.672 6.25867 6.33867 6.39733 6.92 6.664C7.50667 6.93067 7.992 7.31467 8.376 7.816C8.76533 8.31733 9.03467 8.92 9.184 9.624L7.48 9.928C7.40533 9.51733 7.248 9.15467 7.008 8.84C6.77333 8.52533 6.47467 8.28 6.112 8.104C5.75467 7.928 5.352 7.83733 4.904 7.832C4.48267 7.82133 4.104 7.888 3.768 8.032C3.43733 8.17067 3.17333 8.368 2.976 8.624C2.784 8.87467 2.688 9.16 2.688 9.48C2.688 9.832 2.824 10.1307 3.096 10.376C3.368 10.6213 3.79733 10.832 4.384 11.008L6.504 11.624C7.47467 11.912 8.176 12.2987 8.608 12.784C9.04 13.2693 9.256 13.9147 9.256 14.72C9.256 15.424 9.08 16.04 8.728 16.568C8.38133 17.0907 7.89333 17.5013 7.264 17.8C6.63467 18.0933 5.90133 18.24 5.064 18.24ZM14.5877 18.216C14.0171 18.216 13.4811 18.1093 12.9797 17.896C12.4784 17.6773 12.0437 17.368 11.6757 16.968C11.3131 16.568 11.0491 16.096 10.8837 15.552L12.4997 15.104C12.6544 15.6 12.9237 15.9813 13.3077 16.248C13.6917 16.5093 14.1184 16.6373 14.5877 16.632C15.0091 16.6267 15.3797 16.528 15.6997 16.336C16.0197 16.144 16.2704 15.8853 16.4517 15.56C16.6331 15.2293 16.7238 14.8507 16.7238 14.424C16.7238 13.784 16.5237 13.256 16.1237 12.84C15.7291 12.424 15.2117 12.216 14.5717 12.216C14.3904 12.216 14.2037 12.2427 14.0117 12.296C13.8251 12.3493 13.6491 12.4187 13.4837 12.504L12.6997 11.184L16.7638 7.592L16.9397 8.072H11.3397V6.48H18.2677V8.072L14.8917 11.32L14.8758 10.776C15.6011 10.776 16.2304 10.9387 16.7638 11.264C17.2971 11.584 17.7077 12.0213 17.9957 12.576C18.2891 13.1253 18.4358 13.7413 18.4358 14.424C18.4358 15.16 18.2624 15.8133 17.9158 16.384C17.5744 16.9547 17.1131 17.4027 16.5317 17.728C15.9557 18.0533 15.3077 18.216 14.5877 18.216ZM24.88 18.24C24.1333 18.24 23.4613 18.064 22.864 17.712C22.2667 17.3547 21.792 16.8667 21.44 16.248C21.0933 15.6293 20.92 14.9253 20.92 14.136V10.464C20.92 9.62667 21.0933 8.89067 21.44 8.256C21.792 7.62133 22.2773 7.128 22.896 6.776C23.52 6.424 24.2373 6.248 25.048 6.248C25.656 6.248 26.2267 6.36267 26.76 6.592C27.2933 6.82133 27.7547 7.16267 28.144 7.616L26.92 8.76C26.7013 8.47733 26.4267 8.25333 26.096 8.088C25.7707 7.91733 25.4213 7.832 25.048 7.832C24.568 7.832 24.1467 7.94667 23.784 8.176C23.4213 8.4 23.136 8.696 22.928 9.064C22.7253 9.432 22.624 9.82667 22.624 10.248V12.36L22.296 11.992C22.6267 11.56 23.0373 11.2187 23.528 10.968C24.0187 10.7173 24.544 10.592 25.104 10.592C25.8187 10.592 26.456 10.76 27.016 11.096C27.5813 11.4267 28.024 11.8773 28.344 12.448C28.6693 13.0187 28.832 13.6613 28.832 14.376C28.832 15.096 28.6507 15.7493 28.288 16.336C27.9307 16.9173 27.4507 17.3813 26.848 17.728C26.2507 18.0693 25.5947 18.24 24.88 18.24ZM24.88 16.632C25.296 16.632 25.6747 16.5307 26.016 16.328C26.3573 16.1253 26.6293 15.8533 26.832 15.512C27.0347 15.1707 27.136 14.792 27.136 14.376C27.136 13.96 27.0347 13.5813 26.832 13.24C26.6347 12.8987 26.3653 12.6267 26.024 12.424C25.6827 12.2213 25.304 12.12 24.888 12.12C24.472 12.12 24.0907 12.2213 23.744 12.424C23.4027 12.6267 23.1307 12.8987 22.928 13.24C22.7253 13.5813 22.624 13.96 22.624 14.376C22.624 14.7867 22.7253 15.1627 22.928 15.504C23.1307 15.8453 23.4027 16.12 23.744 16.328C24.0853 16.5307 24.464 16.632 24.88 16.632ZM31.8575 18L35.9055 8.072H30.7775V6.48H37.7055V8.072L33.6655 18H31.8575ZM39.7892 18V16.232H41.5572V18H39.7892ZM44.1594 17.992L44.1674 16.504L49.1834 12.008C49.5887 11.6507 49.8634 11.3093 50.0074 10.984C50.1567 10.6587 50.2314 10.3333 50.2314 10.008C50.2314 9.59733 50.1407 9.22933 49.9594 8.904C49.778 8.57333 49.5274 8.312 49.2074 8.12C48.8874 7.928 48.5194 7.832 48.1034 7.832C47.6767 7.832 47.2954 7.93333 46.9594 8.136C46.6287 8.33333 46.37 8.59733 46.1834 8.928C45.9967 9.25867 45.906 9.616 45.9114 10H44.1994C44.1994 9.25333 44.3674 8.6 44.7034 8.04C45.0447 7.47467 45.5114 7.03467 46.1034 6.72C46.6954 6.4 47.3727 6.24 48.1354 6.24C48.8607 6.24 49.5114 6.40533 50.0874 6.736C50.6634 7.06133 51.1167 7.50933 51.4474 8.08C51.7834 8.65067 51.9514 9.30133 51.9514 10.032C51.9514 10.56 51.882 11.008 51.7434 11.376C51.6047 11.744 51.3967 12.0853 51.1194 12.4C50.842 12.7147 50.4954 13.056 50.0794 13.424L46.2074 16.88L46.0234 16.4H51.9514V17.992H44.1594ZM53.95 17.992L53.958 16.504L58.974 12.008C59.3793 11.6507 59.654 11.3093 59.798 10.984C59.9473 10.6587 60.022 10.3333 60.022 10.008C60.022 9.59733 59.9313 9.22933 59.75 8.904C59.5687 8.57333 59.318 8.312 58.998 8.12C58.678 7.928 58.31 7.832 57.894 7.832C57.4673 7.832 57.086 7.93333 56.75 8.136C56.4193 8.33333 56.1607 8.59733 55.974 8.928C55.7873 9.25867 55.6967 9.616 55.702 10H53.99C53.99 9.25333 54.158 8.6 54.494 8.04C54.8353 7.47467 55.302 7.03467 55.894 6.72C56.486 6.4 57.1633 6.24 57.926 6.24C58.6513 6.24 59.302 6.40533 59.878 6.736C60.454 7.06133 60.9073 7.50933 61.238 8.08C61.574 8.65067 61.742 9.30133 61.742 10.032C61.742 10.56 61.6727 11.008 61.534 11.376C61.3953 11.744 61.1873 12.0853 60.91 12.4C60.6327 12.7147 60.286 13.056 59.87 13.424L55.998 16.88L55.814 16.4H61.742V17.992H53.95Z" fill="#3C3C3F"/>
<path d="M79.0536 10.2221L81.4406 13.1682L83.8276 10.2221C84.0675 9.92597 84.4551 9.92597 84.6951 10.2221C84.935 10.5182 84.935 10.9966 84.6951 11.2927L81.8712 14.7779C81.6313 15.074 81.2437 15.074 81.0038 14.7779L78.18 11.2927C77.94 10.9966 77.94 10.5182 78.18 10.2221C78.4199 9.93356 78.8136 9.92597 79.0536 10.2221Z" fill="#3C3C3F"/>
</svg>
