<svg width="344" height="121" viewBox="0 0 344 121" fill="none" xmlns="http://www.w3.org/2000/svg">
<path d="M9.2315 30.195C8.5685 30.195 7.9705 30.0823 7.4375 29.857C6.90883 29.6317 6.47117 29.311 6.1245 28.895C5.78217 28.4747 5.559 27.9785 5.455 27.4065L6.651 27.218C6.80267 27.8073 7.11683 28.2688 7.5935 28.6025C8.0745 28.9318 8.64 29.0965 9.29 29.0965C9.71033 29.0965 10.0895 29.0315 10.4275 28.9015C10.7698 28.7672 11.0407 28.5765 11.24 28.3295C11.4393 28.0825 11.539 27.79 11.539 27.452C11.539 27.244 11.5022 27.0663 11.4285 26.919C11.3592 26.7673 11.2617 26.6395 11.136 26.5355C11.0147 26.4272 10.876 26.3362 10.72 26.2625C10.564 26.1888 10.4015 26.1282 10.2325 26.0805L7.847 25.372C7.587 25.294 7.33567 25.1965 7.093 25.0795C6.85033 24.9582 6.63367 24.8087 6.443 24.631C6.25233 24.449 6.10067 24.2323 5.988 23.981C5.87533 23.7253 5.819 23.4242 5.819 23.0775C5.819 22.5228 5.962 22.0505 6.248 21.6605C6.53833 21.2662 6.9305 20.965 7.4245 20.757C7.9185 20.549 8.47533 20.4472 9.095 20.4515C9.72333 20.4558 10.2845 20.5685 10.7785 20.7895C11.2768 21.0062 11.6885 21.3182 12.0135 21.7255C12.3428 22.1328 12.5638 22.6203 12.6765 23.188L11.448 23.4025C11.383 23.0212 11.2378 22.694 11.0125 22.421C10.7915 22.1437 10.5142 21.9313 10.1805 21.784C9.84683 21.6323 9.48067 21.5543 9.082 21.55C8.70067 21.5457 8.35617 21.6063 8.0485 21.732C7.74083 21.8577 7.496 22.0332 7.314 22.2585C7.132 22.4795 7.041 22.7352 7.041 23.0255C7.041 23.3115 7.12333 23.5433 7.288 23.721C7.45267 23.8943 7.65417 24.033 7.8925 24.137C8.13517 24.2367 8.37133 24.319 8.601 24.384L10.382 24.8975C10.5857 24.9538 10.8197 25.0318 11.084 25.1315C11.3527 25.2312 11.6127 25.372 11.864 25.554C12.1153 25.7317 12.3233 25.97 12.488 26.269C12.6527 26.5637 12.735 26.9363 12.735 27.387C12.735 27.8377 12.644 28.2385 12.462 28.5895C12.2843 28.9405 12.0352 29.2352 11.7145 29.4735C11.3938 29.7075 11.0212 29.8852 10.5965 30.0065C10.1718 30.1322 9.71683 30.195 9.2315 30.195ZM16.7635 30.182C16.3128 30.182 15.925 30.1105 15.6 29.9675C15.2793 29.8245 15.0128 29.6338 14.8005 29.3955C14.5881 29.1572 14.4213 28.8928 14.3 28.6025C14.1786 28.3122 14.092 28.0153 14.04 27.712C13.9923 27.4087 13.9685 27.1248 13.9685 26.8605V22.98H15.1385V26.4965C15.1385 26.8258 15.1688 27.1443 15.2295 27.452C15.2901 27.7597 15.392 28.037 15.535 28.284C15.6823 28.531 15.8773 28.726 16.12 28.869C16.367 29.012 16.6746 29.0835 17.043 29.0835C17.3333 29.0835 17.5976 29.0337 17.836 28.934C18.0743 28.8343 18.278 28.687 18.447 28.492C18.616 28.2927 18.746 28.0413 18.837 27.738C18.928 27.4347 18.9735 27.0815 18.9735 26.6785L19.734 26.9125C19.734 27.5885 19.6105 28.1713 19.3635 28.661C19.1208 29.1507 18.7763 29.5277 18.33 29.792C17.888 30.052 17.3658 30.182 16.7635 30.182ZM19.1035 30V28.1215H18.9735V22.98H20.137V30H19.1035ZM25.1809 30.195C24.5222 30.195 23.9675 30.0325 23.5169 29.7075C23.0662 29.3782 22.7239 28.934 22.4899 28.375C22.2602 27.8117 22.1454 27.1812 22.1454 26.4835C22.1454 25.7772 22.2602 25.1445 22.4899 24.5855C22.7239 24.0265 23.0662 23.5867 23.5169 23.266C23.9719 22.9453 24.5287 22.785 25.1874 22.785C25.8374 22.785 26.3964 22.9475 26.8644 23.2725C27.3367 23.5932 27.6985 24.033 27.9499 24.592C28.2012 25.151 28.3269 25.7815 28.3269 26.4835C28.3269 27.1855 28.2012 27.816 27.9499 28.375C27.6985 28.934 27.3367 29.3782 26.8644 29.7075C26.3964 30.0325 25.8352 30.195 25.1809 30.195ZM21.9504 30V20.64H23.1139V24.8325H22.9839V30H21.9504ZM25.0379 29.1355C25.5015 29.1355 25.885 29.0185 26.1884 28.7845C26.4917 28.5505 26.7192 28.2342 26.8709 27.8355C27.0225 27.4325 27.0984 26.9818 27.0984 26.4835C27.0984 25.9895 27.0225 25.5432 26.8709 25.1445C26.7235 24.7458 26.4939 24.4295 26.1819 24.1955C25.8742 23.9615 25.482 23.8445 25.0054 23.8445C24.5504 23.8445 24.1734 23.9572 23.8744 24.1825C23.5754 24.4035 23.3522 24.7133 23.2049 25.112C23.0575 25.5063 22.9839 25.9635 22.9839 26.4835C22.9839 26.9948 23.0554 27.452 23.1984 27.855C23.3457 28.2537 23.571 28.5678 23.8744 28.7975C24.1777 29.0228 24.5655 29.1355 25.0379 29.1355ZM33.6713 30C33.2553 30.0823 32.8436 30.1148 32.4363 30.0975C32.0333 30.0845 31.6736 30.0043 31.3573 29.857C31.041 29.7053 30.8005 29.4713 30.6358 29.155C30.4971 28.8777 30.4213 28.5982 30.4083 28.3165C30.3996 28.0305 30.3953 27.7077 30.3953 27.348V21.03H31.5523V27.296C31.5523 27.582 31.5545 27.8268 31.5588 28.0305C31.5675 28.2342 31.613 28.4097 31.6953 28.557C31.8513 28.8343 32.0983 28.9968 32.4363 29.0445C32.7786 29.0922 33.1903 29.0792 33.6713 29.0055V30ZM28.9718 23.9355V22.98H33.6713V23.9355H28.9718ZM37.7945 30.195C37.0969 30.195 36.4945 30.0368 35.9875 29.7205C35.4849 29.4042 35.097 28.9665 34.824 28.4075C34.551 27.8485 34.4145 27.2072 34.4145 26.4835C34.4145 25.7468 34.5532 25.1012 34.8305 24.5465C35.1079 23.9918 35.5 23.5607 36.007 23.253C36.514 22.941 37.1099 22.785 37.7945 22.785C38.4965 22.785 39.101 22.9432 39.608 23.2595C40.115 23.5715 40.5029 24.007 40.7715 24.566C41.0445 25.1207 41.181 25.7598 41.181 26.4835C41.181 27.2158 41.0445 27.8615 40.7715 28.4205C40.4985 28.9752 40.1085 29.4107 39.6015 29.727C39.0945 30.039 38.4922 30.195 37.7945 30.195ZM37.7945 29.0965C38.5225 29.0965 39.0642 28.8538 39.4195 28.3685C39.7749 27.8832 39.9525 27.2548 39.9525 26.4835C39.9525 25.6905 39.7727 25.06 39.413 24.592C39.0534 24.1197 38.5139 23.8835 37.7945 23.8835C37.3049 23.8835 36.9019 23.994 36.5855 24.215C36.2692 24.436 36.033 24.7415 35.877 25.1315C35.721 25.5215 35.643 25.9722 35.643 26.4835C35.643 27.2722 35.825 27.9048 36.189 28.3815C36.553 28.8582 37.0882 29.0965 37.7945 29.0965ZM46.5316 30C46.1156 30.0823 45.704 30.1148 45.2966 30.0975C44.8936 30.0845 44.534 30.0043 44.2176 29.857C43.9013 29.7053 43.6608 29.4713 43.4961 29.155C43.3575 28.8777 43.2816 28.5982 43.2686 28.3165C43.26 28.0305 43.2556 27.7077 43.2556 27.348V21.03H44.4126V27.296C44.4126 27.582 44.4148 27.8268 44.4191 28.0305C44.4278 28.2342 44.4733 28.4097 44.5556 28.557C44.7116 28.8343 44.9586 28.9968 45.2966 29.0445C45.639 29.0922 46.0506 29.0792 46.5316 29.0055V30ZM41.8321 23.9355V22.98H46.5316V23.9355H41.8321ZM49.9524 30.195C49.428 30.195 48.9882 30.0997 48.6329 29.909C48.2819 29.714 48.0154 29.4583 47.8334 29.142C47.6557 28.8257 47.5669 28.479 47.5669 28.102C47.5669 27.7337 47.6362 27.4152 47.7749 27.1465C47.9179 26.8735 48.1172 26.6482 48.3729 26.4705C48.6285 26.2885 48.934 26.1455 49.2894 26.0415C49.623 25.9505 49.9957 25.8725 50.4074 25.8075C50.8234 25.7382 51.2437 25.6753 51.6684 25.619C52.093 25.5627 52.4895 25.5085 52.8579 25.4565L52.4419 25.697C52.4549 25.073 52.3292 24.6115 52.0649 24.3125C51.8049 24.0135 51.3542 23.864 50.7129 23.864C50.2882 23.864 49.9155 23.9615 49.5949 24.1565C49.2785 24.3472 49.0554 24.6592 48.9254 25.0925L47.8269 24.761C47.9959 24.1457 48.323 23.6625 48.8084 23.3115C49.2937 22.9605 49.9329 22.785 50.7259 22.785C51.3629 22.785 51.9089 22.8998 52.3639 23.1295C52.8232 23.3548 53.1525 23.6972 53.3519 24.1565C53.4515 24.3732 53.5144 24.6093 53.5404 24.865C53.5664 25.1163 53.5794 25.3807 53.5794 25.658V30H52.5524V28.3165L52.7929 28.4725C52.5285 29.0402 52.158 29.4692 51.6814 29.7595C51.209 30.0498 50.6327 30.195 49.9524 30.195ZM50.1279 29.2265C50.5439 29.2265 50.9035 29.1528 51.2069 29.0055C51.5145 28.8538 51.7615 28.6567 51.9479 28.414C52.1342 28.167 52.2555 27.8983 52.3119 27.608C52.3769 27.3913 52.4115 27.1508 52.4159 26.8865C52.4245 26.6178 52.4289 26.412 52.4289 26.269L52.8319 26.4445C52.4549 26.4965 52.0844 26.5463 51.7204 26.594C51.3564 26.6417 51.0119 26.6937 50.6869 26.75C50.3619 26.802 50.0694 26.8648 49.8094 26.9385C49.6187 26.9992 49.4389 27.0772 49.2699 27.1725C49.1052 27.2678 48.9709 27.3913 48.8669 27.543C48.7672 27.6903 48.7174 27.8745 48.7174 28.0955C48.7174 28.2862 48.765 28.4682 48.8604 28.6415C48.96 28.8148 49.1117 28.9557 49.3154 29.064C49.5234 29.1723 49.7942 29.2265 50.1279 29.2265ZM55.3994 30V20.445H56.5564V30H55.3994Z" fill="black"/>
<path d="M8.2315 54.195C7.5685 54.195 6.9705 54.0823 6.4375 53.857C5.90883 53.6317 5.47117 53.311 5.1245 52.895C4.78217 52.4747 4.559 51.9785 4.455 51.4065L5.651 51.218C5.80267 51.8073 6.11683 52.2688 6.5935 52.6025C7.0745 52.9318 7.64 53.0965 8.29 53.0965C8.71033 53.0965 9.0895 53.0315 9.4275 52.9015C9.76983 52.7672 10.0407 52.5765 10.24 52.3295C10.4393 52.0825 10.539 51.79 10.539 51.452C10.539 51.244 10.5022 51.0663 10.4285 50.919C10.3592 50.7673 10.2617 50.6395 10.136 50.5355C10.0147 50.4272 9.876 50.3362 9.72 50.2625C9.564 50.1888 9.4015 50.1282 9.2325 50.0805L6.847 49.372C6.587 49.294 6.33567 49.1965 6.093 49.0795C5.85033 48.9582 5.63367 48.8087 5.443 48.631C5.25233 48.449 5.10067 48.2323 4.988 47.981C4.87533 47.7253 4.819 47.4242 4.819 47.0775C4.819 46.5228 4.962 46.0505 5.248 45.6605C5.53833 45.2662 5.9305 44.965 6.4245 44.757C6.9185 44.549 7.47533 44.4472 8.095 44.4515C8.72333 44.4558 9.2845 44.5685 9.7785 44.7895C10.2768 45.0062 10.6885 45.3182 11.0135 45.7255C11.3428 46.1328 11.5638 46.6203 11.6765 47.188L10.448 47.4025C10.383 47.0212 10.2378 46.694 10.0125 46.421C9.7915 46.1437 9.51417 45.9313 9.1805 45.784C8.84683 45.6323 8.48067 45.5543 8.082 45.55C7.70067 45.5457 7.35617 45.6063 7.0485 45.732C6.74083 45.8577 6.496 46.0332 6.314 46.2585C6.132 46.4795 6.041 46.7352 6.041 47.0255C6.041 47.3115 6.12333 47.5433 6.288 47.721C6.45267 47.8943 6.65417 48.033 6.8925 48.137C7.13517 48.2367 7.37133 48.319 7.601 48.384L9.382 48.8975C9.58567 48.9538 9.81967 49.0318 10.084 49.1315C10.3527 49.2312 10.6127 49.372 10.864 49.554C11.1153 49.7317 11.3233 49.97 11.488 50.269C11.6527 50.5637 11.735 50.9363 11.735 51.387C11.735 51.8377 11.644 52.2385 11.462 52.5895C11.2843 52.9405 11.0352 53.2352 10.7145 53.4735C10.3938 53.7075 10.0212 53.8852 9.5965 54.0065C9.17183 54.1322 8.71683 54.195 8.2315 54.195ZM18.097 54V50.4835C18.097 50.1498 18.0666 49.8292 18.006 49.5215C17.9496 49.2138 17.8478 48.9387 17.7005 48.696C17.5575 48.449 17.3625 48.254 17.1155 48.111C16.8728 47.968 16.5651 47.8965 16.1925 47.8965C15.9021 47.8965 15.6378 47.9463 15.3995 48.046C15.1655 48.1413 14.964 48.2887 14.795 48.488C14.626 48.6873 14.4938 48.9387 14.3985 49.242C14.3075 49.541 14.262 49.8942 14.262 50.3015L13.5015 50.0675C13.5015 49.3872 13.6228 48.8043 13.8655 48.319C14.1125 47.8293 14.457 47.4545 14.899 47.1945C15.3453 46.9302 15.8696 46.798 16.472 46.798C16.927 46.798 17.3148 46.8695 17.6355 47.0125C17.9561 47.1555 18.2226 47.3462 18.435 47.5845C18.6473 47.8185 18.8141 48.0828 18.9355 48.3775C19.0568 48.6678 19.1413 48.9647 19.189 49.268C19.241 49.567 19.267 49.8508 19.267 50.1195V54H18.097ZM13.092 54V44.64H14.132V49.8075H14.262V54H13.092ZM21.0869 45.7385V44.5425H22.2439V45.7385H21.0869ZM21.0869 54V46.98H22.2439V54H21.0869ZM27.4182 54.195C26.7595 54.195 26.2048 54.0325 25.7542 53.7075C25.3035 53.3782 24.9612 52.934 24.7272 52.375C24.4975 51.8117 24.3827 51.1812 24.3827 50.4835C24.3827 49.7772 24.4975 49.1445 24.7272 48.5855C24.9612 48.0265 25.3035 47.5867 25.7542 47.266C26.2092 46.9453 26.766 46.785 27.4247 46.785C28.0747 46.785 28.6337 46.9475 29.1017 47.2725C29.574 47.5932 29.9358 48.033 30.1872 48.592C30.4385 49.151 30.5642 49.7815 30.5642 50.4835C30.5642 51.1855 30.4385 51.816 30.1872 52.375C29.9358 52.934 29.574 53.3782 29.1017 53.7075C28.6337 54.0325 28.0725 54.195 27.4182 54.195ZM24.1877 57.12V46.98H25.2212V52.1475H25.3512V57.12H24.1877ZM27.2752 53.1355C27.7388 53.1355 28.1223 53.0185 28.4257 52.7845C28.729 52.5505 28.9565 52.2342 29.1082 51.8355C29.2598 51.4325 29.3357 50.9818 29.3357 50.4835C29.3357 49.9895 29.2598 49.5432 29.1082 49.1445C28.9608 48.7458 28.7312 48.4295 28.4192 48.1955C28.1115 47.9615 27.7193 47.8445 27.2427 47.8445C26.7877 47.8445 26.4107 47.9572 26.1117 48.1825C25.8127 48.4035 25.5895 48.7133 25.4422 49.112C25.2948 49.5063 25.2212 49.9635 25.2212 50.4835C25.2212 50.9948 25.2927 51.452 25.4357 51.855C25.583 52.2537 25.8083 52.5678 26.1117 52.7975C26.415 53.0228 26.8028 53.1355 27.2752 53.1355ZM35.2131 54.195C34.5544 54.195 33.9998 54.0325 33.5491 53.7075C33.0984 53.3782 32.7561 52.934 32.5221 52.375C32.2924 51.8117 32.1776 51.1812 32.1776 50.4835C32.1776 49.7772 32.2924 49.1445 32.5221 48.5855C32.7561 48.0265 33.0984 47.5867 33.5491 47.266C34.0041 46.9453 34.5609 46.785 35.2196 46.785C35.8696 46.785 36.4286 46.9475 36.8966 47.2725C37.3689 47.5932 37.7308 48.033 37.9821 48.592C38.2334 49.151 38.3591 49.7815 38.3591 50.4835C38.3591 51.1855 38.2334 51.816 37.9821 52.375C37.7308 52.934 37.3689 53.3782 36.8966 53.7075C36.4286 54.0325 35.8674 54.195 35.2131 54.195ZM31.9826 57.12V46.98H33.0161V52.1475H33.1461V57.12H31.9826ZM35.0701 53.1355C35.5338 53.1355 35.9173 53.0185 36.2206 52.7845C36.5239 52.5505 36.7514 52.2342 36.9031 51.8355C37.0548 51.4325 37.1306 50.9818 37.1306 50.4835C37.1306 49.9895 37.0548 49.5432 36.9031 49.1445C36.7558 48.7458 36.5261 48.4295 36.2141 48.1955C35.9064 47.9615 35.5143 47.8445 35.0376 47.8445C34.5826 47.8445 34.2056 47.9572 33.9066 48.1825C33.6076 48.4035 33.3844 48.7133 33.2371 49.112C33.0898 49.5063 33.0161 49.9635 33.0161 50.4835C33.0161 50.9948 33.0876 51.452 33.2306 51.855C33.3779 52.2537 33.6033 52.5678 33.9066 52.7975C34.2099 53.0228 34.5978 53.1355 35.0701 53.1355ZM39.914 45.7385V44.5425H41.071V45.7385H39.914ZM39.914 54V46.98H41.071V54H39.914ZM48.0198 54V50.4835C48.0198 50.1498 47.9895 49.8292 47.9288 49.5215C47.8725 49.2138 47.7707 48.9387 47.6233 48.696C47.4803 48.449 47.2853 48.254 47.0383 48.111C46.7957 47.968 46.488 47.8965 46.1153 47.8965C45.825 47.8965 45.5607 47.9463 45.3223 48.046C45.0883 48.1413 44.8868 48.2887 44.7178 48.488C44.5488 48.6873 44.4167 48.9387 44.3213 49.242C44.2303 49.541 44.1848 49.8942 44.1848 50.3015L43.4243 50.0675C43.4243 49.3872 43.5457 48.8043 43.7883 48.319C44.0353 47.8293 44.3798 47.4545 44.8218 47.1945C45.2682 46.9302 45.7925 46.798 46.3948 46.798C46.8498 46.798 47.2377 46.8695 47.5583 47.0125C47.879 47.1555 48.1455 47.3462 48.3578 47.5845C48.5702 47.8185 48.737 48.0828 48.8583 48.3775C48.9797 48.6678 49.0642 48.9647 49.1118 49.268C49.1638 49.567 49.1898 49.8508 49.1898 50.1195V54H48.0198ZM43.0148 54V46.98H44.0548V48.8585H44.1848V54H43.0148ZM53.7202 57.315C53.3519 57.315 52.9922 57.2587 52.6412 57.146C52.2902 57.0333 51.9674 56.8622 51.6727 56.6325C51.3824 56.4072 51.1397 56.1212 50.9447 55.7745L52.0042 55.2155C52.1776 55.5578 52.4224 55.807 52.7387 55.963C53.0594 56.119 53.3887 56.197 53.7267 56.197C54.1731 56.197 54.5436 56.1147 54.8382 55.95C55.1329 55.7897 55.3496 55.5492 55.4882 55.2285C55.6312 54.9078 55.7006 54.5092 55.6962 54.0325V52.115H55.8327V46.98H56.8597V54.0455C56.8597 54.2362 56.8532 54.4203 56.8402 54.598C56.8316 54.7757 56.8099 54.9512 56.7752 55.1245C56.6842 55.6228 56.5044 56.0323 56.2357 56.353C55.9671 56.678 55.6204 56.9185 55.1957 57.0745C54.7711 57.2348 54.2792 57.315 53.7202 57.315ZM53.6357 54.195C52.9814 54.195 52.4202 54.0325 51.9522 53.7075C51.4842 53.3782 51.1224 52.934 50.8667 52.375C50.6154 51.816 50.4897 51.1855 50.4897 50.4835C50.4897 49.7815 50.6154 49.151 50.8667 48.592C51.1224 48.033 51.4842 47.5932 51.9522 47.2725C52.4202 46.9475 52.9792 46.785 53.6292 46.785C54.2922 46.785 54.8491 46.9453 55.2997 47.266C55.7504 47.5867 56.0906 48.0265 56.3202 48.5855C56.5542 49.1445 56.6712 49.7772 56.6712 50.4835C56.6712 51.1812 56.5542 51.8117 56.3202 52.375C56.0906 52.934 55.7504 53.3782 55.2997 53.7075C54.8491 54.0325 54.2944 54.195 53.6357 54.195ZM53.7787 53.1355C54.2511 53.1355 54.6389 53.0228 54.9422 52.7975C55.2456 52.5678 55.4687 52.2537 55.6117 51.855C55.7591 51.452 55.8327 50.9948 55.8327 50.4835C55.8327 49.9635 55.7591 49.5063 55.6117 49.112C55.4687 48.7133 55.2477 48.4035 54.9487 48.1825C54.6497 47.9572 54.2706 47.8445 53.8112 47.8445C53.3346 47.8445 52.9402 47.9615 52.6282 48.1955C52.3206 48.4295 52.0909 48.7458 51.9392 49.1445C51.7919 49.5432 51.7182 49.9895 51.7182 50.4835C51.7182 50.9818 51.7941 51.4325 51.9457 51.8355C52.0974 52.2342 52.3249 52.5505 52.6282 52.7845C52.9359 53.0185 53.3194 53.1355 53.7787 53.1355Z" fill="black"/>
<path d="M5.91 81V71.64H11.825V72.7385H7.067V75.67H11.045V76.7685H7.067V79.9015H11.825V81H5.91ZM16.0395 81.1885C15.2032 81.1885 14.5164 81.0065 13.979 80.6425C13.446 80.2742 13.1189 79.7607 12.9975 79.102L14.1805 78.9135C14.2759 79.2948 14.4947 79.5982 14.837 79.8235C15.1794 80.0445 15.604 80.155 16.111 80.155C16.592 80.155 16.969 80.0553 17.242 79.856C17.515 79.6567 17.6515 79.3858 17.6515 79.0435C17.6515 78.8442 17.606 78.6838 17.515 78.5625C17.424 78.4368 17.2355 78.3198 16.9495 78.2115C16.6679 78.1032 16.241 77.9732 15.669 77.8215C15.0494 77.6568 14.5619 77.4857 14.2065 77.308C13.8512 77.1303 13.5977 76.9245 13.446 76.6905C13.2944 76.4565 13.2185 76.1727 13.2185 75.839C13.2185 75.4273 13.3312 75.0677 13.5565 74.76C13.7819 74.448 14.096 74.2075 14.499 74.0385C14.9064 73.8695 15.3787 73.785 15.916 73.785C16.449 73.785 16.9257 73.8695 17.346 74.0385C17.7664 74.2075 18.1044 74.448 18.36 74.76C18.62 75.0677 18.7739 75.4273 18.8215 75.839L17.6385 76.0535C17.5822 75.6765 17.4002 75.3797 17.0925 75.163C16.7892 74.9463 16.397 74.8315 15.916 74.8185C15.461 74.8012 15.0905 74.8813 14.8045 75.059C14.5229 75.2367 14.382 75.4772 14.382 75.7805C14.382 75.9495 14.434 76.0947 14.538 76.216C14.6464 76.3373 14.8435 76.4522 15.1295 76.5605C15.4199 76.6688 15.8402 76.7923 16.3905 76.931C17.0102 77.087 17.4977 77.2582 17.853 77.4445C18.2127 77.6265 18.4684 77.8432 18.62 78.0945C18.7717 78.3415 18.8475 78.647 18.8475 79.011C18.8475 79.687 18.5984 80.22 18.1 80.61C17.6017 80.9957 16.9149 81.1885 16.0395 81.1885ZM24.2006 81C23.7846 81.0823 23.3729 81.1148 22.9656 81.0975C22.5626 81.0845 22.2029 81.0043 21.8866 80.857C21.5703 80.7053 21.3298 80.4713 21.1651 80.155C21.0264 79.8777 20.9506 79.5982 20.9376 79.3165C20.9289 79.0305 20.9246 78.7077 20.9246 78.348V72.03H22.0816V78.296C22.0816 78.582 22.0838 78.8268 22.0881 79.0305C22.0968 79.2342 22.1423 79.4097 22.2246 79.557C22.3806 79.8343 22.6276 79.9968 22.9656 80.0445C23.3079 80.0922 23.7196 80.0792 24.2006 80.0055V81ZM19.5011 74.9355V73.98H24.2006V74.9355H19.5011ZM25.7558 72.7385V71.5425H26.9128V72.7385H25.7558ZM25.7558 81V73.98H26.9128V81H25.7558ZM37.2546 81L37.2611 76.5085C37.2611 75.9842 37.1203 75.5747 36.8386 75.28C36.5613 74.981 36.1995 74.8315 35.7531 74.8315C35.4931 74.8315 35.2461 74.8922 35.0121 75.0135C34.7781 75.1305 34.5875 75.3168 34.4401 75.5725C34.2928 75.8238 34.2191 76.1467 34.2191 76.541L33.6081 76.294C33.5995 75.7957 33.7013 75.3602 33.9136 74.9875C34.1303 74.6105 34.425 74.318 34.7976 74.11C35.1703 73.902 35.5906 73.798 36.0586 73.798C36.791 73.798 37.3673 74.0212 37.7876 74.4675C38.208 74.9095 38.4181 75.5053 38.4181 76.255L38.4116 81H37.2546ZM28.8566 81V73.98H29.8901V75.8585H30.0201V81H28.8566ZM33.0621 81L33.0686 76.554C33.0686 76.0167 32.93 75.5963 32.6526 75.293C32.3753 74.9853 32.007 74.8315 31.5476 74.8315C31.0926 74.8315 30.7243 74.9875 30.4426 75.2995C30.161 75.6115 30.0201 76.0253 30.0201 76.541L29.4091 76.177C29.4091 75.722 29.5175 75.3147 29.7341 74.955C29.9508 74.5953 30.2455 74.3137 30.6181 74.11C30.9908 73.902 31.4133 73.798 31.8856 73.798C32.358 73.798 32.7696 73.8977 33.1206 74.097C33.4716 74.2963 33.7425 74.5823 33.9331 74.955C34.1238 75.3233 34.2191 75.7632 34.2191 76.2745L34.2126 81H33.0621ZM42.1067 81.195C41.5823 81.195 41.1425 81.0997 40.7872 80.909C40.4362 80.714 40.1697 80.4583 39.9877 80.142C39.81 79.8257 39.7212 79.479 39.7212 79.102C39.7212 78.7337 39.7905 78.4152 39.9292 78.1465C40.0722 77.8735 40.2715 77.6482 40.5272 77.4705C40.7828 77.2885 41.0883 77.1455 41.4437 77.0415C41.7773 76.9505 42.15 76.8725 42.5617 76.8075C42.9777 76.7382 43.398 76.6753 43.8227 76.619C44.2473 76.5627 44.6438 76.5085 45.0122 76.4565L44.5962 76.697C44.6092 76.073 44.4835 75.6115 44.2192 75.3125C43.9592 75.0135 43.5085 74.864 42.8672 74.864C42.4425 74.864 42.0698 74.9615 41.7492 75.1565C41.4328 75.3472 41.2097 75.6592 41.0797 76.0925L39.9812 75.761C40.1502 75.1457 40.4773 74.6625 40.9627 74.3115C41.448 73.9605 42.0872 73.785 42.8802 73.785C43.5172 73.785 44.0632 73.8998 44.5182 74.1295C44.9775 74.3548 45.3068 74.6972 45.5062 75.1565C45.6058 75.3732 45.6687 75.6093 45.6947 75.865C45.7207 76.1163 45.7337 76.3807 45.7337 76.658V81H44.7067V79.3165L44.9472 79.4725C44.6828 80.0402 44.3123 80.4692 43.8357 80.7595C43.3633 81.0498 42.787 81.195 42.1067 81.195ZM42.2822 80.2265C42.6982 80.2265 43.0578 80.1528 43.3612 80.0055C43.6688 79.8538 43.9158 79.6567 44.1022 79.414C44.2885 79.167 44.4098 78.8983 44.4662 78.608C44.5312 78.3913 44.5658 78.1508 44.5702 77.8865C44.5788 77.6178 44.5832 77.412 44.5832 77.269L44.9862 77.4445C44.6092 77.4965 44.2387 77.5463 43.8747 77.594C43.5107 77.6417 43.1662 77.6937 42.8412 77.75C42.5162 77.802 42.2237 77.8648 41.9637 77.9385C41.773 77.9992 41.5932 78.0772 41.4242 78.1725C41.2595 78.2678 41.1252 78.3913 41.0212 78.543C40.9215 78.6903 40.8717 78.8745 40.8717 79.0955C40.8717 79.2862 40.9193 79.4682 41.0147 79.6415C41.1143 79.8148 41.266 79.9557 41.4697 80.064C41.6777 80.1723 41.9485 80.2265 42.2822 80.2265ZM51.3432 81C50.9272 81.0823 50.5155 81.1148 50.1082 81.0975C49.7052 81.0845 49.3455 81.0043 49.0292 80.857C48.7128 80.7053 48.4723 80.4713 48.3077 80.155C48.169 79.8777 48.0932 79.5982 48.0802 79.3165C48.0715 79.0305 48.0672 78.7077 48.0672 78.348V72.03H49.2242V78.296C49.2242 78.582 49.2263 78.8268 49.2307 79.0305C49.2393 79.2342 49.2848 79.4097 49.3672 79.557C49.5232 79.8343 49.7702 79.9968 50.1082 80.0445C50.4505 80.0922 50.8622 80.0792 51.3432 80.0055V81ZM46.6437 74.9355V73.98H51.3432V74.9355H46.6437ZM55.5184 81.195C54.8294 81.195 54.2271 81.0433 53.7114 80.74C53.2001 80.4323 52.8014 80.0055 52.5154 79.4595C52.2294 78.9092 52.0864 78.2678 52.0864 77.5355C52.0864 76.7685 52.2272 76.1055 52.5089 75.5465C52.7906 74.9832 53.1827 74.5498 53.6854 74.2465C54.1924 73.9388 54.7861 73.785 55.4664 73.785C56.1727 73.785 56.7729 73.9475 57.2669 74.2725C57.7652 74.5975 58.1379 75.0612 58.3849 75.6635C58.6362 76.2658 58.7446 76.983 58.7099 77.815H57.5399V77.399C57.5269 76.5367 57.3514 75.8932 57.0134 75.4685C56.6754 75.0395 56.1727 74.825 55.5054 74.825C54.7904 74.825 54.2466 75.0547 53.8739 75.514C53.5012 75.9733 53.3149 76.632 53.3149 77.49C53.3149 78.3177 53.5012 78.959 53.8739 79.414C54.2466 79.869 54.7774 80.0965 55.4664 80.0965C55.9301 80.0965 56.3331 79.9903 56.6754 79.778C57.0177 79.5657 57.2864 79.2602 57.4814 78.8615L58.5929 79.245C58.3199 79.8647 57.9082 80.3457 57.3579 80.688C56.8119 81.026 56.1987 81.195 55.5184 81.195ZM52.9249 77.815V76.8855H58.1119V77.815H52.9249ZM62.9131 81.195C62.2587 81.195 61.6976 81.0325 61.2296 80.7075C60.7616 80.3782 60.3997 79.934 60.1441 79.375C59.8927 78.816 59.7671 78.1855 59.7671 77.4835C59.7671 76.7815 59.8927 76.151 60.1441 75.592C60.3997 75.033 60.7616 74.5932 61.2296 74.2725C61.6976 73.9475 62.2566 73.785 62.9066 73.785C63.5696 73.785 64.1264 73.9453 64.5771 74.266C65.0277 74.5867 65.3679 75.0265 65.5976 75.5855C65.8316 76.1445 65.9486 76.7772 65.9486 77.4835C65.9486 78.1812 65.8316 78.8117 65.5976 79.375C65.3679 79.934 65.0277 80.3782 64.5771 80.7075C64.1264 81.0325 63.5717 81.195 62.9131 81.195ZM63.0561 80.1355C63.5284 80.1355 63.9162 80.0228 64.2196 79.7975C64.5229 79.5678 64.7461 79.2537 64.8891 78.855C65.0364 78.452 65.1101 77.9948 65.1101 77.4835C65.1101 76.9635 65.0364 76.5063 64.8891 76.112C64.7461 75.7133 64.5251 75.4035 64.2261 75.1825C63.9271 74.9572 63.5479 74.8445 63.0886 74.8445C62.6119 74.8445 62.2176 74.9615 61.9056 75.1955C61.5979 75.4295 61.3682 75.7458 61.2166 76.1445C61.0692 76.5432 60.9956 76.9895 60.9956 77.4835C60.9956 77.9818 61.0714 78.4325 61.2231 78.8355C61.3747 79.2342 61.6022 79.5505 61.9056 79.7845C62.2132 80.0185 62.5967 80.1355 63.0561 80.1355ZM65.1101 81V75.8325H64.9801V71.64H66.1436V81H65.1101ZM74.4867 81C74.0707 81.0823 73.6591 81.1148 73.2517 81.0975C72.8487 81.0845 72.4891 81.0043 72.1727 80.857C71.8564 80.7053 71.6159 80.4713 71.4512 80.155C71.3126 79.8777 71.2367 79.5982 71.2237 79.3165C71.2151 79.0305 71.2107 78.7077 71.2107 78.348V72.03H72.3677V78.296C72.3677 78.582 72.3699 78.8268 72.3742 79.0305C72.3829 79.2342 72.4284 79.4097 72.5107 79.557C72.6667 79.8343 72.9137 79.9968 73.2517 80.0445C73.5941 80.0922 74.0057 80.0792 74.4867 80.0055V81ZM69.7872 74.9355V73.98H74.4867V74.9355H69.7872ZM77.9075 81.195C77.3831 81.195 76.9433 81.0997 76.588 80.909C76.237 80.714 75.9705 80.4583 75.7885 80.142C75.6108 79.8257 75.522 79.479 75.522 79.102C75.522 78.7337 75.5913 78.4152 75.73 78.1465C75.873 77.8735 76.0723 77.6482 76.328 77.4705C76.5836 77.2885 76.8891 77.1455 77.2445 77.0415C77.5781 76.9505 77.9508 76.8725 78.3625 76.8075C78.7785 76.7382 79.1988 76.6753 79.6235 76.619C80.0481 76.5627 80.4446 76.5085 80.813 76.4565L80.397 76.697C80.41 76.073 80.2843 75.6115 80.02 75.3125C79.76 75.0135 79.3093 74.864 78.668 74.864C78.2433 74.864 77.8706 74.9615 77.55 75.1565C77.2336 75.3472 77.0105 75.6592 76.8805 76.0925L75.782 75.761C75.951 75.1457 76.2781 74.6625 76.7635 74.3115C77.2488 73.9605 77.888 73.785 78.681 73.785C79.318 73.785 79.864 73.8998 80.319 74.1295C80.7783 74.3548 81.1076 74.6972 81.307 75.1565C81.4066 75.3732 81.4695 75.6093 81.4955 75.865C81.5215 76.1163 81.5345 76.3807 81.5345 76.658V81H80.5075V79.3165L80.748 79.4725C80.4836 80.0402 80.1131 80.4692 79.6365 80.7595C79.1641 81.0498 78.5878 81.195 77.9075 81.195ZM78.083 80.2265C78.499 80.2265 78.8586 80.1528 79.162 80.0055C79.4696 79.8538 79.7166 79.6567 79.903 79.414C80.0893 79.167 80.2106 78.8983 80.267 78.608C80.332 78.3913 80.3666 78.1508 80.371 77.8865C80.3796 77.6178 80.384 77.412 80.384 77.269L80.787 77.4445C80.41 77.4965 80.0395 77.5463 79.6755 77.594C79.3115 77.6417 78.967 77.6937 78.642 77.75C78.317 77.802 78.0245 77.8648 77.7645 77.9385C77.5738 77.9992 77.394 78.0772 77.225 78.1725C77.0603 78.2678 76.926 78.3913 76.822 78.543C76.7223 78.6903 76.6725 78.8745 76.6725 79.0955C76.6725 79.2862 76.7201 79.4682 76.8155 79.6415C76.9151 79.8148 77.0668 79.9557 77.2705 80.064C77.4785 80.1723 77.7493 80.2265 78.083 80.2265ZM82.4445 81L85.129 77.451L82.503 73.98H83.881L85.805 76.554L87.7095 73.98H89.0875L86.4615 77.451L89.1525 81H87.768L85.805 78.348L83.829 81H82.4445Z" fill="black"/>
<path d="M8.1214 120V110.288H4.3934V108.48H13.7774V110.288H10.0494V120H8.1214ZM17.5913 120.24C16.7273 120.24 15.9726 120.045 15.3273 119.656C14.6819 119.267 14.1806 118.731 13.8233 118.048C13.4713 117.36 13.2953 116.571 13.2953 115.68C13.2953 114.773 13.4766 113.979 13.8393 113.296C14.2019 112.613 14.7059 112.08 15.3513 111.696C15.9966 111.312 16.7433 111.12 17.5913 111.12C18.4606 111.12 19.2179 111.315 19.8633 111.704C20.5086 112.093 21.0099 112.632 21.3673 113.32C21.7246 114.003 21.9033 114.789 21.9033 115.68C21.9033 116.576 21.7219 117.368 21.3593 118.056C21.0019 118.739 20.5006 119.275 19.8553 119.664C19.2099 120.048 18.4553 120.24 17.5913 120.24ZM17.5913 118.432C18.3593 118.432 18.9299 118.176 19.3033 117.664C19.6766 117.152 19.8633 116.491 19.8633 115.68C19.8633 114.843 19.6739 114.176 19.2953 113.68C18.9166 113.179 18.3486 112.928 17.5913 112.928C17.0739 112.928 16.6473 113.045 16.3113 113.28C15.9806 113.509 15.7353 113.832 15.5753 114.248C15.4153 114.659 15.3353 115.136 15.3353 115.68C15.3353 116.517 15.5246 117.187 15.9033 117.688C16.2873 118.184 16.8499 118.432 17.5913 118.432ZM28.7299 120C28.1592 120.107 27.5992 120.152 27.0499 120.136C26.5059 120.125 26.0179 120.027 25.5859 119.84C25.1539 119.648 24.8259 119.347 24.6019 118.936C24.4046 118.563 24.3006 118.181 24.2899 117.792C24.2792 117.403 24.2739 116.963 24.2739 116.472V108.96H26.1939V116.36C26.1939 116.707 26.1966 117.011 26.2019 117.272C26.2126 117.533 26.2686 117.747 26.3699 117.912C26.5619 118.232 26.8686 118.411 27.2899 118.448C27.7112 118.485 28.1912 118.464 28.7299 118.384V120ZM22.7059 112.872V111.36H28.7299V112.872H22.7059ZM33.0038 120.24C32.3798 120.24 31.8518 120.123 31.4198 119.888C30.9878 119.648 30.6598 119.331 30.4358 118.936C30.2171 118.541 30.1078 118.107 30.1078 117.632C30.1078 117.216 30.1771 116.843 30.3158 116.512C30.4544 116.176 30.6678 115.888 30.9558 115.648C31.2438 115.403 31.6171 115.203 32.0758 115.048C32.4224 114.936 32.8278 114.835 33.2918 114.744C33.7611 114.653 34.2678 114.571 34.8118 114.496C35.3611 114.416 35.9344 114.331 36.5318 114.24L35.8438 114.632C35.8491 114.035 35.7158 113.595 35.4438 113.312C35.1718 113.029 34.7131 112.888 34.0678 112.888C33.6784 112.888 33.3024 112.979 32.9398 113.16C32.5771 113.341 32.3238 113.653 32.1798 114.096L30.4198 113.544C30.6331 112.813 31.0384 112.227 31.6358 111.784C32.2384 111.341 33.0491 111.12 34.0678 111.12C34.8358 111.12 35.5104 111.245 36.0918 111.496C36.6784 111.747 37.1131 112.157 37.3958 112.728C37.5504 113.032 37.6438 113.344 37.6758 113.664C37.7078 113.979 37.7238 114.323 37.7238 114.696V120H36.0358V118.128L36.3158 118.432C35.9264 119.056 35.4704 119.515 34.9478 119.808C34.4304 120.096 33.7824 120.24 33.0038 120.24ZM33.3878 118.704C33.8251 118.704 34.1984 118.627 34.5078 118.472C34.8171 118.317 35.0624 118.128 35.2438 117.904C35.4304 117.68 35.5558 117.469 35.6198 117.272C35.7211 117.027 35.7771 116.747 35.7878 116.432C35.8038 116.112 35.8118 115.853 35.8118 115.656L36.4038 115.832C35.8224 115.923 35.3238 116.003 34.9078 116.072C34.4918 116.141 34.1344 116.208 33.8358 116.272C33.5371 116.331 33.2731 116.397 33.0438 116.472C32.8198 116.552 32.6304 116.645 32.4758 116.752C32.3211 116.859 32.2011 116.981 32.1158 117.12C32.0358 117.259 31.9958 117.421 31.9958 117.608C31.9958 117.821 32.0491 118.011 32.1558 118.176C32.2624 118.336 32.4171 118.464 32.6198 118.56C32.8278 118.656 33.0838 118.704 33.3878 118.704ZM39.9665 120V108.24H41.8945V120H39.9665Z" fill="black"/>
<path d="M293.633 57.386V55.769H294.879V57.386H293.633ZM293.633 46.151V44.527H294.879V46.151H293.633ZM294.354 56.21C293.673 56.21 293.059 56.0887 292.513 55.846C291.972 55.5987 291.526 55.251 291.176 54.803C290.826 54.3503 290.597 53.8183 290.49 53.207L291.715 53.004C291.864 53.6247 292.179 54.117 292.66 54.481C293.145 54.845 293.729 55.027 294.41 55.027C295.096 55.027 295.651 54.8613 296.076 54.53C296.501 54.1987 296.713 53.7717 296.713 53.249C296.713 52.8663 296.599 52.5583 296.37 52.325C296.146 52.0917 295.768 51.8933 295.236 51.73L292.933 51.016C291.556 50.5867 290.868 49.7653 290.868 48.552C290.868 47.9827 291.006 47.4857 291.281 47.061C291.561 46.6317 291.951 46.3003 292.45 46.067C292.954 45.829 293.54 45.7123 294.207 45.717C294.856 45.7217 295.434 45.843 295.943 46.081C296.452 46.3143 296.872 46.6503 297.203 47.089C297.539 47.5277 297.765 48.0527 297.882 48.664L296.622 48.895C296.557 48.4983 296.412 48.1507 296.188 47.852C295.969 47.5533 295.689 47.3223 295.348 47.159C295.007 46.991 294.625 46.9047 294.2 46.9C293.803 46.8953 293.446 46.9607 293.129 47.096C292.816 47.2313 292.569 47.4203 292.387 47.663C292.205 47.9057 292.114 48.1833 292.114 48.496C292.114 48.8367 292.24 49.126 292.492 49.364C292.749 49.5973 293.15 49.798 293.696 49.966L295.586 50.526C296.417 50.7733 297.016 51.107 297.385 51.527C297.754 51.9423 297.938 52.4977 297.938 53.193C297.938 53.795 297.789 54.3223 297.49 54.775C297.196 55.2277 296.778 55.58 296.237 55.832C295.7 56.084 295.073 56.21 294.354 56.21ZM305.187 56.21C304.669 56.21 304.186 56.1027 303.738 55.888C303.294 55.6733 302.914 55.3793 302.597 55.006C302.284 54.628 302.06 54.194 301.925 53.704L303.122 53.382C303.206 53.7133 303.355 54.0003 303.57 54.243C303.784 54.481 304.034 54.6677 304.319 54.803C304.608 54.9337 304.909 54.999 305.222 54.999C305.632 54.999 306.001 54.901 306.328 54.705C306.659 54.5043 306.92 54.2407 307.112 53.914C307.303 53.5827 307.399 53.221 307.399 52.829C307.399 52.423 307.298 52.0567 307.098 51.73C306.902 51.3987 306.638 51.1373 306.307 50.946C305.975 50.7547 305.614 50.659 305.222 50.659C304.778 50.659 304.398 50.7523 304.081 50.939C303.768 51.121 303.521 51.345 303.339 51.611L302.233 51.191L302.541 45.92H307.952V47.103H303.143L303.696 46.585L303.437 50.806L303.164 50.449C303.444 50.1503 303.777 49.9193 304.165 49.756C304.557 49.5927 304.956 49.511 305.362 49.511C305.987 49.511 306.547 49.658 307.042 49.952C307.536 50.2413 307.928 50.638 308.218 51.142C308.507 51.6413 308.652 52.2037 308.652 52.829C308.652 53.4497 308.493 54.0167 308.176 54.53C307.858 55.0387 307.436 55.447 306.909 55.755C306.386 56.0583 305.812 56.21 305.187 56.21ZM310.55 56V54.628H311.922V56H310.55ZM317.396 45.717C318.04 45.717 318.621 45.871 319.139 46.179C319.657 46.487 320.068 46.907 320.371 47.439C320.679 47.971 320.833 48.5753 320.833 49.252V52.605C320.833 53.3097 320.681 53.9327 320.378 54.474C320.075 55.0153 319.655 55.44 319.118 55.748C318.586 56.056 317.975 56.21 317.284 56.21C316.733 56.21 316.218 56.0957 315.737 55.867C315.261 55.6383 314.857 55.314 314.526 54.894L315.457 54.068C315.662 54.3573 315.926 54.5907 316.248 54.768C316.57 54.9407 316.915 55.027 317.284 55.027C317.732 55.027 318.126 54.9197 318.467 54.705C318.812 54.4903 319.081 54.2103 319.272 53.865C319.468 53.5197 319.566 53.1463 319.566 52.745V50.722L319.839 51.03C319.55 51.45 319.179 51.786 318.726 52.038C318.273 52.29 317.781 52.416 317.249 52.416C316.624 52.416 316.064 52.269 315.569 51.975C315.074 51.681 314.682 51.2843 314.393 50.785C314.104 50.281 313.959 49.7163 313.959 49.091C313.959 48.4657 314.115 47.8987 314.428 47.39C314.741 46.8767 315.156 46.4707 315.674 46.172C316.197 45.8687 316.771 45.717 317.396 45.717ZM317.396 46.921C316.995 46.921 316.628 47.019 316.297 47.215C315.97 47.4063 315.709 47.6677 315.513 47.999C315.317 48.3257 315.219 48.6897 315.219 49.091C315.219 49.4923 315.315 49.8587 315.506 50.19C315.702 50.5167 315.963 50.778 316.29 50.974C316.621 51.17 316.988 51.268 317.389 51.268C317.79 51.268 318.157 51.17 318.488 50.974C318.819 50.778 319.081 50.5167 319.272 50.19C319.468 49.8587 319.566 49.4923 319.566 49.091C319.566 48.6943 319.468 48.3327 319.272 48.006C319.081 47.6747 318.819 47.411 318.488 47.215C318.161 47.019 317.797 46.921 317.396 46.921ZM325.776 56.21C325.258 56.21 324.775 56.1027 324.327 55.888C323.884 55.6733 323.504 55.3793 323.186 55.006C322.874 54.628 322.65 54.194 322.514 53.704L323.711 53.382C323.795 53.7133 323.945 54.0003 324.159 54.243C324.374 54.481 324.624 54.6677 324.908 54.803C325.198 54.9337 325.499 54.999 325.811 54.999C326.222 54.999 326.591 54.901 326.917 54.705C327.249 54.5043 327.51 54.2407 327.701 53.914C327.893 53.5827 327.988 53.221 327.988 52.829C327.988 52.423 327.888 52.0567 327.687 51.73C327.491 51.3987 327.228 51.1373 326.896 50.946C326.565 50.7547 326.203 50.659 325.811 50.659C325.368 50.659 324.988 50.7523 324.67 50.939C324.358 51.121 324.11 51.345 323.928 51.611L322.822 51.191L323.13 45.92H328.541V47.103H323.732L324.285 46.585L324.026 50.806L323.753 50.449C324.033 50.1503 324.367 49.9193 324.754 49.756C325.146 49.5927 325.545 49.511 325.951 49.511C326.577 49.511 327.137 49.658 327.631 49.952C328.126 50.2413 328.518 50.638 328.807 51.142C329.097 51.6413 329.241 52.2037 329.241 52.829C329.241 53.4497 329.083 54.0167 328.765 54.53C328.448 55.0387 328.026 55.447 327.498 55.755C326.976 56.0583 326.402 56.21 325.776 56.21Z" fill="black"/>
<path d="M280.633 31.386V29.769H281.879V31.386H280.633ZM280.633 20.151V18.527H281.879V20.151H280.633ZM281.354 30.21C280.673 30.21 280.059 30.0887 279.513 29.846C278.972 29.5987 278.526 29.251 278.176 28.803C277.826 28.3503 277.597 27.8183 277.49 27.207L278.715 27.004C278.864 27.6247 279.179 28.117 279.66 28.481C280.145 28.845 280.729 29.027 281.41 29.027C282.096 29.027 282.651 28.8613 283.076 28.53C283.501 28.1987 283.713 27.7717 283.713 27.249C283.713 26.8663 283.599 26.5583 283.37 26.325C283.146 26.0917 282.768 25.8933 282.236 25.73L279.933 25.016C278.556 24.5867 277.868 23.7653 277.868 22.552C277.868 21.9827 278.006 21.4857 278.281 21.061C278.561 20.6317 278.951 20.3003 279.45 20.067C279.954 19.829 280.54 19.7123 281.207 19.717C281.856 19.7217 282.434 19.843 282.943 20.081C283.452 20.3143 283.872 20.6503 284.203 21.089C284.539 21.5277 284.765 22.0527 284.882 22.664L283.622 22.895C283.557 22.4983 283.412 22.1507 283.188 21.852C282.969 21.5533 282.689 21.3223 282.348 21.159C282.007 20.991 281.625 20.9047 281.2 20.9C280.803 20.8953 280.446 20.9607 280.129 21.096C279.816 21.2313 279.569 21.4203 279.387 21.663C279.205 21.9057 279.114 22.1833 279.114 22.496C279.114 22.8367 279.24 23.126 279.492 23.364C279.749 23.5973 280.15 23.798 280.696 23.966L282.586 24.526C283.417 24.7733 284.016 25.107 284.385 25.527C284.754 25.9423 284.938 26.4977 284.938 27.193C284.938 27.795 284.789 28.3223 284.49 28.775C284.196 29.2277 283.778 29.58 283.237 29.832C282.7 30.084 282.073 30.21 281.354 30.21ZM289.167 30.196C288.668 30.196 288.203 30.105 287.774 29.923C287.345 29.7363 286.974 29.475 286.661 29.139C286.353 28.7983 286.127 28.3947 285.982 27.928L287.179 27.585C287.333 28.0517 287.59 28.4063 287.949 28.649C288.308 28.8917 288.712 29.0107 289.16 29.006C289.571 28.9967 289.925 28.9033 290.224 28.726C290.527 28.544 290.761 28.2967 290.924 27.984C291.092 27.6713 291.176 27.3097 291.176 26.899C291.176 26.2737 290.989 25.7673 290.616 25.38C290.243 24.988 289.753 24.792 289.146 24.792C288.978 24.792 288.801 24.8153 288.614 24.862C288.432 24.9087 288.262 24.974 288.103 25.058L287.501 24.071L291.239 20.69L291.4 21.11H286.381V19.92H292.324V21.117L289.139 24.169L289.125 23.728C289.792 23.6813 290.376 23.791 290.875 24.057C291.374 24.323 291.762 24.7033 292.037 25.198C292.317 25.6927 292.457 26.2597 292.457 26.899C292.457 27.543 292.312 28.1123 292.023 28.607C291.734 29.1017 291.342 29.4913 290.847 29.776C290.352 30.056 289.792 30.196 289.167 30.196ZM297.714 30.21C297.075 30.21 296.494 30.056 295.971 29.748C295.453 29.44 295.04 29.02 294.732 28.488C294.429 27.9513 294.277 27.347 294.277 26.675V23.322C294.277 22.6173 294.429 21.9943 294.732 21.453C295.04 20.907 295.46 20.4823 295.992 20.179C296.529 19.871 297.14 19.717 297.826 19.717C298.381 19.717 298.897 19.8313 299.373 20.06C299.854 20.284 300.257 20.6083 300.584 21.033L299.653 21.859C299.452 21.565 299.191 21.3317 298.869 21.159C298.547 20.9863 298.199 20.9 297.826 20.9C297.383 20.9 296.988 21.0073 296.643 21.222C296.302 21.432 296.034 21.712 295.838 22.062C295.642 22.4073 295.544 22.7807 295.544 23.182V25.205L295.271 24.897C295.565 24.477 295.938 24.141 296.391 23.889C296.844 23.637 297.334 23.511 297.861 23.511C298.486 23.511 299.046 23.658 299.541 23.952C300.04 24.246 300.432 24.645 300.717 25.149C301.006 25.6483 301.151 26.2107 301.151 26.836C301.151 27.4613 300.995 28.0283 300.682 28.537C300.369 29.0457 299.952 29.4517 299.429 29.755C298.911 30.0583 298.339 30.21 297.714 30.21ZM297.714 29.006C298.115 29.006 298.482 28.9103 298.813 28.719C299.144 28.523 299.406 28.2617 299.597 27.935C299.793 27.6037 299.891 27.2373 299.891 26.836C299.891 26.4347 299.793 26.0683 299.597 25.737C299.406 25.4057 299.144 25.1443 298.813 24.953C298.486 24.757 298.122 24.659 297.721 24.659C297.32 24.659 296.953 24.757 296.622 24.953C296.295 25.1443 296.034 25.4057 295.838 25.737C295.642 26.0683 295.544 26.4347 295.544 26.836C295.544 27.2327 295.64 27.5967 295.831 27.928C296.027 28.2547 296.288 28.516 296.615 28.712C296.946 28.908 297.313 29.006 297.714 29.006ZM306.374 30.21C305.721 30.21 305.138 30.063 304.624 29.769C304.116 29.4703 303.712 29.0667 303.413 28.558C303.119 28.0447 302.972 27.4613 302.972 26.808V23.112C302.972 22.4587 303.119 21.8753 303.413 21.362C303.712 20.8487 304.116 20.445 304.624 20.151C305.138 19.857 305.721 19.71 306.374 19.71C307.028 19.71 307.611 19.857 308.124 20.151C308.638 20.445 309.041 20.8487 309.335 21.362C309.629 21.8753 309.776 22.4587 309.776 23.112V26.808C309.776 27.4613 309.629 28.0447 309.335 28.558C309.041 29.0667 308.638 29.4703 308.124 29.769C307.611 30.063 307.028 30.21 306.374 30.21ZM306.374 29.013C306.771 29.013 307.13 28.9173 307.452 28.726C307.774 28.5347 308.031 28.278 308.222 27.956C308.414 27.6293 308.509 27.27 308.509 26.878V23.035C308.509 22.6383 308.414 22.279 308.222 21.957C308.031 21.635 307.774 21.3783 307.452 21.187C307.13 20.9957 306.771 20.9 306.374 20.9C305.982 20.9 305.623 20.9957 305.296 21.187C304.974 21.3783 304.718 21.635 304.526 21.957C304.335 22.279 304.239 22.6383 304.239 23.035V26.878C304.239 27.27 304.335 27.6293 304.526 27.956C304.718 28.278 304.974 28.5347 305.296 28.726C305.623 28.9173 305.982 29.013 306.374 29.013ZM311.96 30V28.628H313.332V30H311.96ZM318.911 30.21C318.258 30.21 317.675 30.063 317.161 29.769C316.653 29.4703 316.249 29.0667 315.95 28.558C315.656 28.0447 315.509 27.4613 315.509 26.808V23.112C315.509 22.4587 315.656 21.8753 315.95 21.362C316.249 20.8487 316.653 20.445 317.161 20.151C317.675 19.857 318.258 19.71 318.911 19.71C319.565 19.71 320.148 19.857 320.661 20.151C321.175 20.445 321.578 20.8487 321.872 21.362C322.166 21.8753 322.313 22.4587 322.313 23.112V26.808C322.313 27.4613 322.166 28.0447 321.872 28.558C321.578 29.0667 321.175 29.4703 320.661 29.769C320.148 30.063 319.565 30.21 318.911 30.21ZM318.911 29.013C319.308 29.013 319.667 28.9173 319.989 28.726C320.311 28.5347 320.568 28.278 320.759 27.956C320.951 27.6293 321.046 27.27 321.046 26.878V23.035C321.046 22.6383 320.951 22.279 320.759 21.957C320.568 21.635 320.311 21.3783 319.989 21.187C319.667 20.9957 319.308 20.9 318.911 20.9C318.519 20.9 318.16 20.9957 317.833 21.187C317.511 21.3783 317.255 21.635 317.063 21.957C316.872 22.279 316.776 22.6383 316.776 23.035V26.878C316.776 27.27 316.872 27.6293 317.063 27.956C317.255 28.278 317.511 28.5347 317.833 28.726C318.16 28.9173 318.519 29.013 318.911 29.013ZM327.675 30.21C327.022 30.21 326.438 30.063 325.925 29.769C325.416 29.4703 325.013 29.0667 324.714 28.558C324.42 28.0447 324.273 27.4613 324.273 26.808V23.112C324.273 22.4587 324.42 21.8753 324.714 21.362C325.013 20.8487 325.416 20.445 325.925 20.151C326.438 19.857 327.022 19.71 327.675 19.71C328.328 19.71 328.912 19.857 329.425 20.151C329.938 20.445 330.342 20.8487 330.636 21.362C330.93 21.8753 331.077 22.4587 331.077 23.112V26.808C331.077 27.4613 330.93 28.0447 330.636 28.558C330.342 29.0667 329.938 29.4703 329.425 29.769C328.912 30.063 328.328 30.21 327.675 30.21ZM327.675 29.013C328.072 29.013 328.431 28.9173 328.753 28.726C329.075 28.5347 329.332 28.278 329.523 27.956C329.714 27.6293 329.81 27.27 329.81 26.878V23.035C329.81 22.6383 329.714 22.279 329.523 21.957C329.332 21.635 329.075 21.3783 328.753 21.187C328.431 20.9957 328.072 20.9 327.675 20.9C327.283 20.9 326.924 20.9957 326.597 21.187C326.275 21.3783 326.018 21.635 325.827 21.957C325.636 22.279 325.54 22.6383 325.54 23.035V26.878C325.54 27.27 325.636 27.6293 325.827 27.956C326.018 28.278 326.275 28.5347 326.597 28.726C326.924 28.9173 327.283 29.013 327.675 29.013Z" fill="black"/>
<path d="M270.136 120.592V118.696H272.064V120.592H270.136ZM270.136 107.792V105.896H272.064V107.792H270.136ZM271.144 119.24C270.333 119.24 269.608 119.091 268.968 118.792C268.328 118.493 267.803 118.072 267.392 117.528C266.987 116.984 266.728 116.339 266.616 115.592L268.52 115.288C268.669 115.944 268.989 116.467 269.48 116.856C269.976 117.24 270.568 117.432 271.256 117.432C271.917 117.432 272.461 117.277 272.888 116.968C273.315 116.653 273.528 116.256 273.528 115.776C273.528 115.44 273.427 115.168 273.224 114.96C273.021 114.747 272.696 114.571 272.248 114.432L269.472 113.568C267.856 113.067 267.048 112.085 267.048 110.624C267.048 109.941 267.211 109.347 267.536 108.84C267.867 108.328 268.331 107.936 268.928 107.664C269.525 107.387 270.229 107.251 271.04 107.256C271.792 107.261 272.461 107.397 273.048 107.664C273.64 107.931 274.131 108.315 274.52 108.816C274.915 109.317 275.195 109.92 275.36 110.624L273.384 110.984C273.309 110.605 273.163 110.272 272.944 109.984C272.725 109.696 272.451 109.472 272.12 109.312C271.789 109.152 271.421 109.067 271.016 109.056C270.627 109.051 270.277 109.112 269.968 109.24C269.659 109.363 269.413 109.539 269.232 109.768C269.051 109.992 268.96 110.245 268.96 110.528C268.96 110.843 269.085 111.112 269.336 111.336C269.592 111.56 269.995 111.752 270.544 111.912L272.616 112.512C273.613 112.8 274.331 113.192 274.768 113.688C275.211 114.179 275.432 114.832 275.432 115.648C275.432 116.363 275.253 116.989 274.896 117.528C274.539 118.067 274.037 118.488 273.392 118.792C272.747 119.091 271.997 119.24 271.144 119.24ZM283.666 119.216C283.09 119.216 282.546 119.104 282.034 118.88C281.522 118.656 281.077 118.339 280.698 117.928C280.325 117.517 280.055 117.032 279.89 116.472L281.754 115.968C281.887 116.427 282.13 116.781 282.482 117.032C282.839 117.277 283.231 117.397 283.658 117.392C284.037 117.392 284.375 117.304 284.674 117.128C284.973 116.952 285.207 116.715 285.378 116.416C285.549 116.112 285.634 115.773 285.634 115.4C285.634 114.829 285.45 114.352 285.082 113.968C284.714 113.584 284.239 113.392 283.658 113.392C283.482 113.392 283.309 113.416 283.138 113.464C282.973 113.512 282.813 113.579 282.658 113.664L281.778 112.144L285.65 108.832L285.818 109.296H280.338V107.48H287.402V109.304L284.29 112.296L284.274 111.728C284.973 111.776 285.567 111.971 286.058 112.312C286.554 112.653 286.933 113.093 287.194 113.632C287.461 114.171 287.594 114.76 287.594 115.4C287.594 116.125 287.415 116.776 287.058 117.352C286.706 117.928 286.231 118.384 285.634 118.72C285.042 119.051 284.386 119.216 283.666 119.216ZM293.651 119.24C292.899 119.24 292.222 119.064 291.619 118.712C291.022 118.355 290.547 117.861 290.195 117.232C289.843 116.603 289.667 115.88 289.667 115.064V111.56C289.667 110.685 289.84 109.925 290.187 109.28C290.539 108.635 291.03 108.136 291.659 107.784C292.294 107.432 293.03 107.256 293.867 107.256C294.448 107.256 295 107.355 295.523 107.552C296.046 107.744 296.51 108.053 296.915 108.48L295.523 109.832C295.32 109.592 295.072 109.403 294.779 109.264C294.491 109.125 294.187 109.056 293.867 109.056C293.419 109.056 293.027 109.163 292.691 109.376C292.355 109.584 292.094 109.859 291.907 110.2C291.726 110.541 291.635 110.907 291.635 111.296V113.208L291.283 112.824C291.614 112.44 292.011 112.141 292.475 111.928C292.939 111.709 293.424 111.6 293.931 111.6C294.656 111.6 295.296 111.765 295.851 112.096C296.406 112.421 296.843 112.869 297.163 113.44C297.483 114.005 297.643 114.651 297.643 115.376C297.643 116.096 297.459 116.749 297.091 117.336C296.728 117.917 296.246 118.381 295.643 118.728C295.04 119.069 294.376 119.24 293.651 119.24ZM293.651 117.392C294.024 117.392 294.366 117.304 294.675 117.128C294.984 116.947 295.23 116.704 295.411 116.4C295.598 116.091 295.691 115.749 295.691 115.376C295.691 115.003 295.6 114.661 295.419 114.352C295.238 114.043 294.992 113.797 294.683 113.616C294.379 113.429 294.04 113.336 293.667 113.336C293.294 113.336 292.952 113.429 292.643 113.616C292.334 113.797 292.088 114.043 291.907 114.352C291.726 114.661 291.635 115.003 291.635 115.376C291.635 115.739 291.723 116.075 291.899 116.384C292.08 116.688 292.323 116.933 292.627 117.12C292.936 117.301 293.278 117.392 293.651 117.392ZM300.188 119L304.156 109.304H299.124V107.48H306.22V109.304L302.268 119H300.188ZM308.19 119V117.024H310.166V119H308.19ZM312.409 118.984V117.304L317.337 112.912C317.721 112.571 317.988 112.248 318.137 111.944C318.287 111.64 318.361 111.347 318.361 111.064C318.361 110.68 318.279 110.339 318.113 110.04C317.948 109.736 317.719 109.496 317.425 109.32C317.137 109.144 316.804 109.056 316.425 109.056C316.025 109.056 315.671 109.149 315.361 109.336C315.057 109.517 314.82 109.76 314.649 110.064C314.479 110.368 314.399 110.696 314.409 111.048H312.425C312.425 110.28 312.596 109.611 312.937 109.04C313.284 108.469 313.759 108.027 314.361 107.712C314.969 107.397 315.671 107.24 316.465 107.24C317.201 107.24 317.863 107.405 318.449 107.736C319.036 108.061 319.497 108.515 319.833 109.096C320.169 109.672 320.337 110.336 320.337 111.088C320.337 111.637 320.263 112.099 320.113 112.472C319.964 112.845 319.74 113.189 319.441 113.504C319.148 113.819 318.783 114.168 318.345 114.552L314.849 117.648L314.673 117.168H320.337V118.984H312.409ZM321.941 118.984V117.304L326.869 112.912C327.253 112.571 327.519 112.248 327.669 111.944C327.818 111.64 327.893 111.347 327.893 111.064C327.893 110.68 327.81 110.339 327.645 110.04C327.479 109.736 327.25 109.496 326.957 109.32C326.669 109.144 326.335 109.056 325.957 109.056C325.557 109.056 325.202 109.149 324.893 109.336C324.589 109.517 324.351 109.76 324.181 110.064C324.01 110.368 323.93 110.696 323.941 111.048H321.957C321.957 110.28 322.127 109.611 322.469 109.04C322.815 108.469 323.29 108.027 323.893 107.712C324.501 107.397 325.202 107.24 325.997 107.24C326.733 107.24 327.394 107.405 327.981 107.736C328.567 108.061 329.029 108.515 329.365 109.096C329.701 109.672 329.869 110.336 329.869 111.088C329.869 111.637 329.794 112.099 329.645 112.472C329.495 112.845 329.271 113.189 328.973 113.504C328.679 113.819 328.314 114.168 327.877 114.552L324.381 117.648L324.205 117.168H329.869V118.984H321.941Z" fill="black"/>
<path d="M296.633 83.386V81.769H297.879V83.386H296.633ZM296.633 72.151V70.527H297.879V72.151H296.633ZM297.354 82.21C296.673 82.21 296.059 82.0887 295.513 81.846C294.972 81.5987 294.526 81.251 294.176 80.803C293.826 80.3503 293.597 79.8183 293.49 79.207L294.715 79.004C294.864 79.6247 295.179 80.117 295.66 80.481C296.145 80.845 296.729 81.027 297.41 81.027C298.096 81.027 298.651 80.8613 299.076 80.53C299.501 80.1987 299.713 79.7717 299.713 79.249C299.713 78.8663 299.599 78.5583 299.37 78.325C299.146 78.0917 298.768 77.8933 298.236 77.73L295.933 77.016C294.556 76.5867 293.868 75.7653 293.868 74.552C293.868 73.9827 294.006 73.4857 294.281 73.061C294.561 72.6317 294.951 72.3003 295.45 72.067C295.954 71.829 296.54 71.7123 297.207 71.717C297.856 71.7217 298.434 71.843 298.943 72.081C299.452 72.3143 299.872 72.6503 300.203 73.089C300.539 73.5277 300.765 74.0527 300.882 74.664L299.622 74.895C299.557 74.4983 299.412 74.1507 299.188 73.852C298.969 73.5533 298.689 73.3223 298.348 73.159C298.007 72.991 297.625 72.9047 297.2 72.9C296.803 72.8953 296.446 72.9607 296.129 73.096C295.816 73.2313 295.569 73.4203 295.387 73.663C295.205 73.9057 295.114 74.1833 295.114 74.496C295.114 74.8367 295.24 75.126 295.492 75.364C295.749 75.5973 296.15 75.798 296.696 75.966L298.586 76.526C299.417 76.7733 300.016 77.107 300.385 77.527C300.754 77.9423 300.938 78.4977 300.938 79.193C300.938 79.795 300.789 80.3223 300.49 80.775C300.196 81.2277 299.778 81.58 299.237 81.832C298.7 82.084 298.073 82.21 297.354 82.21ZM306.962 82V73.299L305.065 74.447V73.054L306.962 71.92H308.229V82H306.962ZM310.556 82V80.628H311.928V82H310.556ZM313.825 81.993L313.832 80.873L318.305 76.848C318.678 76.512 318.928 76.1947 319.054 75.896C319.185 75.5927 319.25 75.2823 319.25 74.965C319.25 74.5777 319.161 74.2277 318.984 73.915C318.807 73.6023 318.564 73.355 318.256 73.173C317.953 72.991 317.607 72.9 317.22 72.9C316.819 72.9 316.462 72.9957 316.149 73.187C315.836 73.3737 315.589 73.6233 315.407 73.936C315.23 74.2487 315.143 74.5893 315.148 74.958H313.874C313.874 74.3233 314.021 73.7633 314.315 73.278C314.609 72.788 315.008 72.4053 315.512 72.13C316.021 71.85 316.597 71.71 317.241 71.71C317.866 71.71 318.426 71.8547 318.921 72.144C319.416 72.4287 319.805 72.8183 320.09 73.313C320.379 73.803 320.524 74.3583 320.524 74.979C320.524 75.4177 320.468 75.798 320.356 76.12C320.249 76.442 320.081 76.7407 319.852 77.016C319.623 77.2867 319.336 77.576 318.991 77.884L315.274 81.223L315.113 80.803H320.524V81.993H313.825ZM325.636 82.21C324.996 82.21 324.415 82.056 323.893 81.748C323.375 81.44 322.962 81.02 322.654 80.488C322.35 79.9513 322.199 79.347 322.199 78.675V75.322C322.199 74.6173 322.35 73.9943 322.654 73.453C322.962 72.907 323.382 72.4823 323.914 72.179C324.45 71.871 325.062 71.717 325.748 71.717C326.303 71.717 326.819 71.8313 327.295 72.06C327.775 72.284 328.179 72.6083 328.506 73.033L327.575 73.859C327.374 73.565 327.113 73.3317 326.791 73.159C326.469 72.9863 326.121 72.9 325.748 72.9C325.304 72.9 324.91 73.0073 324.565 73.222C324.224 73.432 323.956 73.712 323.76 74.062C323.564 74.4073 323.466 74.7807 323.466 75.182V77.205L323.193 76.897C323.487 76.477 323.86 76.141 324.313 75.889C324.765 75.637 325.255 75.511 325.783 75.511C326.408 75.511 326.968 75.658 327.463 75.952C327.962 76.246 328.354 76.645 328.639 77.149C328.928 77.6483 329.073 78.2107 329.073 78.836C329.073 79.4613 328.916 80.0283 328.604 80.537C328.291 81.0457 327.873 81.4517 327.351 81.755C326.833 82.0583 326.261 82.21 325.636 82.21ZM325.636 81.006C326.037 81.006 326.403 80.9103 326.735 80.719C327.066 80.523 327.327 80.2617 327.519 79.935C327.715 79.6037 327.813 79.2373 327.813 78.836C327.813 78.4347 327.715 78.0683 327.519 77.737C327.327 77.4057 327.066 77.1443 326.735 76.953C326.408 76.757 326.044 76.659 325.643 76.659C325.241 76.659 324.875 76.757 324.544 76.953C324.217 77.1443 323.956 77.4057 323.76 77.737C323.564 78.0683 323.466 78.4347 323.466 78.836C323.466 79.2327 323.561 79.5967 323.753 79.928C323.949 80.2547 324.21 80.516 324.537 80.712C324.868 80.908 325.234 81.006 325.636 81.006Z" fill="black"/>
<path d="M0 92.75L335 92.75" stroke="#CECECE" stroke-width="0.5"/>
<path d="M2 0.749896L334.674 0.767683" stroke="#CECECE" stroke-width="0.5"/>
</svg>
