<svg width="350" height="74" viewBox="0 0 350 74" fill="none" xmlns="http://www.w3.org/2000/svg">
<g filter="url(#filter0_d_204_84)">
<rect x="4" y="3" width="342" height="65" rx="6" fill="white"/>
<path d="M102.554 45.326L101.894 44.846L102.842 43.622L101.36 43.172L101.612 42.398L103.07 42.914L103.034 41.36H103.85L103.814 42.914L105.266 42.398L105.518 43.172L104.042 43.622L104.978 44.846L104.318 45.326L103.442 44.054L102.554 45.326ZM107.912 45.326L107.252 44.846L108.2 43.622L106.718 43.172L106.97 42.398L108.428 42.914L108.392 41.36H109.208L109.172 42.914L110.624 42.398L110.876 43.172L109.4 43.622L110.336 44.846L109.676 45.326L108.8 44.054L107.912 45.326ZM113.271 45.326L112.611 44.846L113.559 43.622L112.077 43.172L112.329 42.398L113.787 42.914L113.751 41.36H114.567L114.531 42.914L115.983 42.398L116.235 43.172L114.759 43.622L115.695 44.846L115.035 45.326L114.159 44.054L113.271 45.326ZM118.629 45.326L117.969 44.846L118.917 43.622L117.435 43.172L117.687 42.398L119.145 42.914L119.109 41.36H119.925L119.889 42.914L121.341 42.398L121.593 43.172L120.117 43.622L121.053 44.846L120.393 45.326L119.517 44.054L118.629 45.326ZM127.077 50V48.326H123.033V47.486L125.925 41.36H126.915L124.023 47.486H127.077V44.966H127.965V47.486H128.907V48.326H127.965V50H127.077ZM130.231 49.994L130.237 49.19L134.143 45.662C134.479 45.358 134.701 45.07 134.809 44.798C134.921 44.522 134.977 44.234 134.977 43.934C134.977 43.578 134.893 43.256 134.725 42.968C134.557 42.68 134.331 42.452 134.047 42.284C133.763 42.112 133.445 42.026 133.093 42.026C132.725 42.026 132.397 42.114 132.109 42.29C131.821 42.466 131.593 42.698 131.425 42.986C131.261 43.274 131.181 43.588 131.185 43.928H130.285C130.285 43.404 130.409 42.934 130.657 42.518C130.905 42.102 131.241 41.776 131.665 41.54C132.089 41.3 132.569 41.18 133.105 41.18C133.629 41.18 134.099 41.304 134.515 41.552C134.935 41.796 135.265 42.128 135.505 42.548C135.749 42.964 135.871 43.428 135.871 43.94C135.871 44.3 135.827 44.618 135.739 44.894C135.655 45.166 135.521 45.42 135.337 45.656C135.157 45.888 134.927 46.128 134.647 46.376L131.179 49.508L131.041 49.148H135.871V49.994H130.231ZM141.005 50V48.326H136.961V47.486L139.853 41.36H140.843L137.951 47.486H141.005V44.966H141.893V47.486H142.835V48.326H141.893V50H141.005ZM144.159 49.994L144.165 49.19L148.071 45.662C148.407 45.358 148.629 45.07 148.737 44.798C148.849 44.522 148.905 44.234 148.905 43.934C148.905 43.578 148.821 43.256 148.653 42.968C148.485 42.68 148.259 42.452 147.975 42.284C147.691 42.112 147.373 42.026 147.021 42.026C146.653 42.026 146.325 42.114 146.037 42.29C145.749 42.466 145.521 42.698 145.353 42.986C145.189 43.274 145.109 43.588 145.113 43.928H144.213C144.213 43.404 144.337 42.934 144.585 42.518C144.833 42.102 145.169 41.776 145.593 41.54C146.017 41.3 146.497 41.18 147.033 41.18C147.557 41.18 148.027 41.304 148.443 41.552C148.863 41.796 149.193 42.128 149.433 42.548C149.677 42.964 149.799 43.428 149.799 43.94C149.799 44.3 149.755 44.618 149.667 44.894C149.583 45.166 149.449 45.42 149.265 45.656C149.085 45.888 148.855 46.128 148.575 46.376L145.107 49.508L144.969 49.148H149.799V49.994H144.159Z" fill="#374151"/>
<path d="M86.5879 46.9507C86.5879 46.9507 86.9044 48.54 86.9756 48.8729H85.5844L86.2511 47.0145C86.2429 47.0276 86.3884 46.6255 86.4716 46.3779L86.5879 46.9507ZM91 42.0619V53.9494C90.9998 54.4932 90.789 55.0146 90.4139 55.3992C90.0389 55.7837 89.5302 55.9998 88.9998 56H69.0002C68.4698 55.9998 67.9611 55.7837 67.5861 55.3992C67.211 55.0146 67.0002 54.4932 67 53.9494V42.0619C67.0002 41.5181 67.211 40.9966 67.5861 40.6121C67.9611 40.2275 68.4698 40.0114 69.0002 40.0112H88.9998C89.5302 40.0114 90.0389 40.2275 90.4139 40.6121C90.789 40.9966 90.9998 41.5181 91 42.0619ZM73.3546 51.218L75.9877 44.5887H74.217L72.5798 49.1167L72.4006 48.1986L71.8171 45.1484C71.7211 44.7255 71.4256 44.6056 71.0589 44.5887H68.3635L68.3342 44.7209C68.9515 44.8762 69.5436 45.1222 70.0922 45.4514L71.5839 51.218H73.3546ZM77.2882 51.2265L78.3381 44.5887H76.6634L75.618 51.2265H77.2882ZM83.117 49.0567C83.1252 48.3009 82.6753 47.7242 81.713 47.2498C81.1258 46.9461 80.7673 46.7416 80.7673 46.4294C80.7756 46.1472 81.0718 45.8566 81.7295 45.8566C82.1579 45.8442 82.5836 45.9304 82.9752 46.1088L83.1252 46.181L83.3547 44.7455C82.876 44.5576 82.3674 44.4619 81.8548 44.4633C80.2003 44.4633 79.0379 45.3691 79.0296 46.6585C79.0169 47.6112 79.8628 48.1409 80.4966 48.4608C81.1423 48.7853 81.3635 48.999 81.3635 49.2851C81.3553 49.7295 80.8386 49.934 80.3593 49.934C79.6926 49.934 79.3341 49.8271 78.7881 49.5795L78.5676 49.4727L78.3344 50.9635C78.7259 51.1473 79.4511 51.3095 80.2011 51.318C81.959 51.3219 83.105 50.4292 83.1177 49.0544L83.117 49.0567ZM88.9998 51.2265L87.6499 44.5887H86.3539C85.9542 44.5887 85.6497 44.7086 85.4787 45.14L82.991 51.2273H84.7489C84.7489 51.2273 85.0362 50.4069 85.0992 50.2323H87.2494C87.2996 50.4676 87.4496 51.2273 87.4496 51.2273L88.9998 51.2265Z" fill="#0066B3"/>
</g>
<path d="M65.98 29V18.92H70.145C70.243 18.92 70.369 18.9247 70.523 18.934C70.677 18.9387 70.8193 18.9527 70.95 18.976C71.5333 19.0647 72.014 19.2583 72.392 19.557C72.7747 19.8557 73.057 20.2337 73.239 20.691C73.4257 21.1437 73.519 21.6477 73.519 22.203C73.519 22.7537 73.4257 23.2577 73.239 23.715C73.0523 24.1677 72.7677 24.5433 72.385 24.842C72.007 25.1407 71.5287 25.3343 70.95 25.423C70.8193 25.4417 70.6747 25.4557 70.516 25.465C70.362 25.4743 70.2383 25.479 70.145 25.479H67.667V29H65.98ZM67.667 23.904H70.075C70.1683 23.904 70.2733 23.8993 70.39 23.89C70.5067 23.8807 70.614 23.862 70.712 23.834C70.992 23.764 71.2113 23.6403 71.37 23.463C71.5333 23.2857 71.6477 23.085 71.713 22.861C71.783 22.637 71.818 22.4177 71.818 22.203C71.818 21.9883 71.783 21.769 71.713 21.545C71.6477 21.3163 71.5333 21.1133 71.37 20.936C71.2113 20.7587 70.992 20.635 70.712 20.565C70.614 20.537 70.5067 20.5207 70.39 20.516C70.2733 20.5067 70.1683 20.502 70.075 20.502H67.667V23.904ZM76.844 29.21C76.298 29.21 75.836 29.1073 75.458 28.902C75.08 28.692 74.793 28.4143 74.597 28.069C74.4057 27.7237 74.31 27.3433 74.31 26.928C74.31 26.564 74.3707 26.2373 74.492 25.948C74.6133 25.654 74.8 25.402 75.052 25.192C75.304 24.9773 75.6307 24.8023 76.032 24.667C76.3353 24.569 76.69 24.4803 77.096 24.401C77.5067 24.3217 77.95 24.2493 78.426 24.184C78.9067 24.114 79.4083 24.0393 79.931 23.96L79.329 24.303C79.3337 23.7803 79.217 23.3953 78.979 23.148C78.741 22.9007 78.3397 22.777 77.775 22.777C77.4343 22.777 77.1053 22.8563 76.788 23.015C76.4707 23.1737 76.249 23.4467 76.123 23.834L74.583 23.351C74.7697 22.7117 75.1243 22.1983 75.647 21.811C76.1743 21.4237 76.8837 21.23 77.775 21.23C78.447 21.23 79.0373 21.3397 79.546 21.559C80.0593 21.7783 80.4397 22.1377 80.687 22.637C80.8223 22.903 80.904 23.176 80.932 23.456C80.96 23.7313 80.974 24.0323 80.974 24.359V29H79.497V27.362L79.742 27.628C79.4013 28.174 79.0023 28.5753 78.545 28.832C78.0923 29.084 77.5253 29.21 76.844 29.21ZM77.18 27.866C77.5627 27.866 77.8893 27.7983 78.16 27.663C78.4307 27.5277 78.6453 27.362 78.804 27.166C78.9673 26.97 79.077 26.7857 79.133 26.613C79.2217 26.3983 79.2707 26.1533 79.28 25.878C79.294 25.598 79.301 25.3717 79.301 25.199L79.819 25.353C79.3103 25.4323 78.874 25.5023 78.51 25.563C78.146 25.6237 77.8333 25.682 77.572 25.738C77.3107 25.7893 77.0797 25.8477 76.879 25.913C76.683 25.983 76.5173 26.0647 76.382 26.158C76.2467 26.2513 76.1417 26.3587 76.067 26.48C75.997 26.6013 75.962 26.7437 75.962 26.907C75.962 27.0937 76.0087 27.2593 76.102 27.404C76.1953 27.544 76.3307 27.656 76.508 27.74C76.69 27.824 76.914 27.866 77.18 27.866ZM83.3666 32.36L84.8226 28.363L84.8506 29.539L81.5536 21.44H83.3106L85.6486 27.432H85.2006L87.4756 21.44H89.1626L84.9486 32.36H83.3666ZM99.2856 29V24.408C99.2856 23.89 99.1572 23.4863 98.9006 23.197C98.6439 22.903 98.2962 22.756 97.8576 22.756C97.5869 22.756 97.3442 22.819 97.1296 22.945C96.9149 23.0663 96.7446 23.2483 96.6186 23.491C96.4926 23.729 96.4296 24.0137 96.4296 24.345L95.6806 23.904C95.6759 23.3813 95.7926 22.9217 96.0306 22.525C96.2732 22.1237 96.5999 21.811 97.0106 21.587C97.4212 21.363 97.8786 21.251 98.3826 21.251C99.2179 21.251 99.8572 21.503 100.301 22.007C100.749 22.5063 100.973 23.1643 100.973 23.981V29H99.2856ZM90.1926 29V21.44H91.6836V23.785H91.8936V29H90.1926ZM94.7496 29V24.429C94.7496 23.9017 94.6212 23.491 94.3646 23.197C94.1079 22.903 93.7579 22.756 93.3146 22.756C92.8852 22.756 92.5399 22.903 92.2786 23.197C92.0219 23.491 91.8936 23.8737 91.8936 24.345L91.1376 23.841C91.1376 23.351 91.2589 22.91 91.5016 22.518C91.7442 22.126 92.0709 21.818 92.4816 21.594C92.8969 21.3653 93.3612 21.251 93.8746 21.251C94.4392 21.251 94.9106 21.3723 95.2886 21.615C95.6712 21.853 95.9559 22.1797 96.1426 22.595C96.3339 23.0057 96.4296 23.47 96.4296 23.988V29H94.7496ZM106.112 29.21C105.347 29.21 104.675 29.0443 104.096 28.713C103.518 28.3817 103.065 27.922 102.738 27.334C102.416 26.746 102.255 26.0693 102.255 25.304C102.255 24.478 102.414 23.7617 102.731 23.155C103.049 22.5437 103.49 22.07 104.054 21.734C104.619 21.398 105.272 21.23 106.014 21.23C106.798 21.23 107.463 21.4143 108.009 21.783C108.56 22.147 108.968 22.6627 109.234 23.33C109.5 23.9973 109.601 24.7837 109.535 25.689H107.862V25.073C107.858 24.2517 107.713 23.652 107.428 23.274C107.144 22.896 106.696 22.707 106.084 22.707C105.394 22.707 104.88 22.9217 104.544 23.351C104.208 23.7757 104.04 24.3987 104.04 25.22C104.04 25.9853 104.208 26.578 104.544 26.998C104.88 27.418 105.37 27.628 106.014 27.628C106.43 27.628 106.787 27.537 107.085 27.355C107.389 27.1683 107.622 26.9 107.785 26.55L109.451 27.054C109.162 27.7353 108.714 28.265 108.107 28.643C107.505 29.021 106.84 29.21 106.112 29.21ZM103.508 25.689V24.415H108.709V25.689H103.508ZM116.121 29V25.36C116.121 25.122 116.105 24.8583 116.072 24.569C116.039 24.2797 115.962 24.002 115.841 23.736C115.724 23.4653 115.547 23.2437 115.309 23.071C115.076 22.8983 114.758 22.812 114.357 22.812C114.142 22.812 113.93 22.847 113.72 22.917C113.51 22.987 113.319 23.1083 113.146 23.281C112.978 23.449 112.843 23.6823 112.74 23.981C112.637 24.275 112.586 24.653 112.586 25.115L111.585 24.688C111.585 24.044 111.709 23.4607 111.956 22.938C112.208 22.4153 112.577 22 113.062 21.692C113.547 21.3793 114.145 21.223 114.854 21.223C115.414 21.223 115.876 21.3163 116.24 21.503C116.604 21.6897 116.893 21.9277 117.108 22.217C117.323 22.5063 117.481 22.8143 117.584 23.141C117.687 23.4677 117.752 23.778 117.78 24.072C117.813 24.3613 117.829 24.597 117.829 24.779V29H116.121ZM110.878 29V21.44H112.383V23.785H112.586V29H110.878ZM124.087 29C123.587 29.0933 123.097 29.133 122.617 29.119C122.141 29.1097 121.714 29.0233 121.336 28.86C120.958 28.692 120.671 28.4283 120.475 28.069C120.302 27.7423 120.211 27.4087 120.202 27.068C120.192 26.7273 120.188 26.3423 120.188 25.913V19.34H121.868V25.815C121.868 26.1183 121.87 26.3843 121.875 26.613C121.884 26.8417 121.933 27.0283 122.022 27.173C122.19 27.453 122.458 27.6093 122.827 27.642C123.195 27.6747 123.615 27.656 124.087 27.586V29ZM118.816 22.763V21.44H124.087V22.763H118.816ZM128.515 29V18.92H130.034L133.52 26.06L137.006 18.92H138.525V29H136.95V22.539L133.856 29H133.184L130.097 22.539V29H128.515ZM143.929 29.21C143.163 29.21 142.491 29.0443 141.913 28.713C141.334 28.3817 140.881 27.922 140.555 27.334C140.233 26.746 140.072 26.0693 140.072 25.304C140.072 24.478 140.23 23.7617 140.548 23.155C140.865 22.5437 141.306 22.07 141.871 21.734C142.435 21.398 143.089 21.23 143.831 21.23C144.615 21.23 145.28 21.4143 145.826 21.783C146.376 22.147 146.785 22.6627 147.051 23.33C147.317 23.9973 147.417 24.7837 147.352 25.689H145.679V25.073C145.674 24.2517 145.529 23.652 145.245 23.274C144.96 22.896 144.512 22.707 143.901 22.707C143.21 22.707 142.697 22.9217 142.361 23.351C142.025 23.7757 141.857 24.3987 141.857 25.22C141.857 25.9853 142.025 26.578 142.361 26.998C142.697 27.418 143.187 27.628 143.831 27.628C144.246 27.628 144.603 27.537 144.902 27.355C145.205 27.1683 145.438 26.9 145.602 26.55L147.268 27.054C146.978 27.7353 146.53 28.265 145.924 28.643C145.322 29.021 144.657 29.21 143.929 29.21ZM141.325 25.689V24.415H146.526V25.689H141.325ZM153.345 29C152.845 29.0933 152.355 29.133 151.875 29.119C151.399 29.1097 150.972 29.0233 150.594 28.86C150.216 28.692 149.929 28.4283 149.733 28.069C149.56 27.7423 149.469 27.4087 149.46 27.068C149.45 26.7273 149.446 26.3423 149.446 25.913V19.34H151.126V25.815C151.126 26.1183 151.128 26.3843 151.133 26.613C151.142 26.8417 151.191 27.0283 151.28 27.173C151.448 27.453 151.716 27.6093 152.085 27.642C152.453 27.6747 152.873 27.656 153.345 27.586V29ZM148.074 22.763V21.44H153.345V22.763H148.074ZM160.199 29V25.36C160.199 25.122 160.183 24.8583 160.15 24.569C160.118 24.2797 160.041 24.002 159.919 23.736C159.803 23.4653 159.625 23.2437 159.387 23.071C159.154 22.8983 158.837 22.812 158.435 22.812C158.221 22.812 158.008 22.847 157.798 22.917C157.588 22.987 157.397 23.1083 157.224 23.281C157.056 23.449 156.921 23.6823 156.818 23.981C156.716 24.275 156.664 24.653 156.664 25.115L155.663 24.688C155.663 24.044 155.787 23.4607 156.034 22.938C156.286 22.4153 156.655 22 157.14 21.692C157.626 21.3793 158.223 21.223 158.932 21.223C159.492 21.223 159.954 21.3163 160.318 21.503C160.682 21.6897 160.972 21.9277 161.186 22.217C161.401 22.5063 161.56 22.8143 161.662 23.141C161.765 23.4677 161.83 23.778 161.858 24.072C161.891 24.3613 161.907 24.597 161.907 24.779V29H160.199ZM154.956 29V18.92H156.461V24.226H156.664V29H154.956ZM167.073 29.21C166.317 29.21 165.657 29.0397 165.092 28.699C164.527 28.3583 164.089 27.8893 163.776 27.292C163.468 26.69 163.314 25.9993 163.314 25.22C163.314 24.4267 163.473 23.7313 163.79 23.134C164.107 22.5367 164.548 22.07 165.113 21.734C165.678 21.398 166.331 21.23 167.073 21.23C167.834 21.23 168.496 21.4003 169.061 21.741C169.626 22.0817 170.064 22.553 170.377 23.155C170.69 23.7523 170.846 24.4407 170.846 25.22C170.846 26.004 170.687 26.697 170.37 27.299C170.057 27.8963 169.619 28.3653 169.054 28.706C168.489 29.042 167.829 29.21 167.073 29.21ZM167.073 27.628C167.745 27.628 168.244 27.404 168.571 26.956C168.898 26.508 169.061 25.9293 169.061 25.22C169.061 24.4873 168.895 23.904 168.564 23.47C168.233 23.0313 167.736 22.812 167.073 22.812C166.62 22.812 166.247 22.9147 165.953 23.12C165.664 23.3207 165.449 23.603 165.309 23.967C165.169 24.3263 165.099 24.744 165.099 25.22C165.099 25.9527 165.265 26.5383 165.596 26.977C165.932 27.411 166.424 27.628 167.073 27.628ZM175.419 29.21C174.724 29.21 174.117 29.035 173.599 28.685C173.081 28.335 172.68 27.859 172.395 27.257C172.111 26.655 171.968 25.976 171.968 25.22C171.968 24.4547 172.111 23.7733 172.395 23.176C172.685 22.574 173.093 22.1003 173.62 21.755C174.148 21.405 174.768 21.23 175.482 21.23C176.201 21.23 176.803 21.405 177.288 21.755C177.778 22.1003 178.149 22.574 178.401 23.176C178.653 23.778 178.779 24.4593 178.779 25.22C178.779 25.9713 178.653 26.6503 178.401 27.257C178.149 27.859 177.774 28.335 177.274 28.685C176.775 29.035 176.157 29.21 175.419 29.21ZM175.678 27.698C176.131 27.698 176.495 27.5953 176.77 27.39C177.05 27.18 177.253 26.8883 177.379 26.515C177.51 26.1417 177.575 25.71 177.575 25.22C177.575 24.7253 177.51 24.2937 177.379 23.925C177.253 23.5517 177.055 23.2623 176.784 23.057C176.514 22.847 176.164 22.742 175.734 22.742C175.282 22.742 174.908 22.854 174.614 23.078C174.32 23.2973 174.103 23.596 173.963 23.974C173.823 24.3473 173.753 24.7627 173.753 25.22C173.753 25.682 173.821 26.102 173.956 26.48C174.096 26.8533 174.309 27.1497 174.593 27.369C174.878 27.5883 175.24 27.698 175.678 27.698ZM177.575 29V23.694H177.365V18.92H179.066V29H177.575Z" fill="#3C3C3F"/>
<rect x="23" y="12" width="33" height="33" rx="3" fill="#EAF6F5"/>
<path d="M48.3571 21H31.6429C31.2873 21 31 21.2844 31 21.6364V34.3636C31 34.7156 31.2873 35 31.6429 35H48.3571C48.7127 35 49 34.7156 49 34.3636V21.6364C49 21.2844 48.7127 21 48.3571 21ZM32.4464 22.4318H47.5536V24.8182H32.4464V22.4318ZM47.5536 33.5682H32.4464V26.5682H47.5536V33.5682ZM42.7924 32.2955H46.1071C46.1955 32.2955 46.2679 32.2239 46.2679 32.1364V30.7045C46.2679 30.617 46.1955 30.5455 46.1071 30.5455H42.7924C42.704 30.5455 42.6317 30.617 42.6317 30.7045V32.1364C42.6317 32.2239 42.704 32.2955 42.7924 32.2955Z" fill="#27544F"/>
<defs>
<filter id="filter0_d_204_84" x="0" y="0.5" width="350" height="73" filterUnits="userSpaceOnUse" color-interpolation-filters="sRGB">
<feFlood flood-opacity="0" result="BackgroundImageFix"/>
<feColorMatrix in="SourceAlpha" type="matrix" values="0 0 0 0 0 0 0 0 0 0 0 0 0 0 0 0 0 0 127 0" result="hardAlpha"/>
<feOffset dy="1.5"/>
<feGaussianBlur stdDeviation="2"/>
<feComposite in2="hardAlpha" operator="out"/>
<feColorMatrix type="matrix" values="0 0 0 0 0 0 0 0 0 0 0 0 0 0 0 0 0 0 0.25 0"/>
<feBlend mode="normal" in2="BackgroundImageFix" result="effect1_dropShadow_204_84"/>
<feBlend mode="normal" in="SourceGraphic" in2="effect1_dropShadow_204_84" result="shape"/>
</filter>
</defs>
</svg>
