<svg width="360" height="92" viewBox="0 0 360 92" fill="none" xmlns="http://www.w3.org/2000/svg">
<g filter="url(#filter0_d_204_83)">
<rect x="4" y="3" width="342" height="83" rx="6" fill="white"/>
<path d="M70.972 54.18C70.352 54.18 69.792 54.074 69.292 53.862C68.796 53.646 68.386 53.34 68.062 52.944C67.742 52.544 67.534 52.07 67.438 51.522L68.746 51.324C68.878 51.852 69.154 52.264 69.574 52.56C69.994 52.852 70.484 52.998 71.044 52.998C71.392 52.998 71.712 52.944 72.004 52.836C72.296 52.724 72.53 52.566 72.706 52.362C72.886 52.154 72.976 51.906 72.976 51.618C72.976 51.462 72.948 51.324 72.892 51.204C72.84 51.084 72.766 50.98 72.67 50.892C72.578 50.8 72.464 50.722 72.328 50.658C72.196 50.59 72.05 50.532 71.89 50.484L69.676 49.83C69.46 49.766 69.24 49.684 69.016 49.584C68.792 49.48 68.586 49.346 68.398 49.182C68.214 49.014 68.064 48.808 67.948 48.564C67.832 48.316 67.774 48.016 67.774 47.664C67.774 47.132 67.91 46.682 68.182 46.314C68.458 45.942 68.83 45.662 69.298 45.474C69.766 45.282 70.29 45.186 70.87 45.186C71.454 45.194 71.976 45.298 72.436 45.498C72.9 45.698 73.284 45.986 73.588 46.362C73.896 46.734 74.108 47.186 74.224 47.718L72.88 47.946C72.82 47.622 72.692 47.344 72.496 47.112C72.3 46.876 72.06 46.696 71.776 46.572C71.492 46.444 71.184 46.378 70.852 46.374C70.532 46.366 70.238 46.414 69.97 46.518C69.706 46.622 69.494 46.768 69.334 46.956C69.178 47.144 69.1 47.36 69.1 47.604C69.1 47.844 69.17 48.038 69.31 48.186C69.45 48.334 69.622 48.452 69.826 48.54C70.034 48.624 70.24 48.694 70.444 48.75L72.04 49.2C72.24 49.256 72.466 49.332 72.718 49.428C72.974 49.52 73.22 49.65 73.456 49.818C73.696 49.986 73.894 50.21 74.05 50.49C74.206 50.766 74.284 51.114 74.284 51.534C74.284 51.97 74.196 52.354 74.02 52.686C73.844 53.014 73.602 53.29 73.294 53.514C72.99 53.734 72.638 53.9 72.238 54.012C71.838 54.124 71.416 54.18 70.972 54.18ZM79.3907 54C78.9827 54.08 78.5827 54.114 78.1907 54.102C77.7987 54.09 77.4487 54.014 77.1407 53.874C76.8327 53.734 76.6007 53.514 76.4447 53.214C76.3047 52.946 76.2287 52.674 76.2167 52.398C76.2087 52.118 76.2047 51.802 76.2047 51.45V45.72H77.4647V51.39C77.4647 51.65 77.4667 51.876 77.4707 52.068C77.4787 52.26 77.5207 52.422 77.5967 52.554C77.7407 52.802 77.9687 52.944 78.2807 52.98C78.5967 53.012 78.9667 52.998 79.3907 52.938V54ZM74.9627 48.528V47.52H79.3907V48.528H74.9627ZM82.7069 54.18C82.2269 54.18 81.8249 54.092 81.5009 53.916C81.1769 53.736 80.9309 53.5 80.7629 53.208C80.5989 52.912 80.5169 52.588 80.5169 52.236C80.5169 51.908 80.5749 51.62 80.6909 51.372C80.8069 51.124 80.9789 50.914 81.2069 50.742C81.4349 50.566 81.7149 50.424 82.0469 50.316C82.3349 50.232 82.6609 50.158 83.0249 50.094C83.3889 50.03 83.7709 49.97 84.1709 49.914C84.5749 49.858 84.9749 49.802 85.3709 49.746L84.9149 49.998C84.9229 49.49 84.8149 49.114 84.5909 48.87C84.3709 48.622 83.9909 48.498 83.4509 48.498C83.1109 48.498 82.7989 48.578 82.5149 48.738C82.2309 48.894 82.0329 49.154 81.9209 49.518L80.7509 49.158C80.9109 48.602 81.2149 48.16 81.6629 47.832C82.1149 47.504 82.7149 47.34 83.4629 47.34C84.0429 47.34 84.5469 47.44 84.9749 47.64C85.4069 47.836 85.7229 48.148 85.9229 48.576C86.0269 48.788 86.0909 49.012 86.1149 49.248C86.1389 49.484 86.1509 49.738 86.1509 50.01V54H85.0409V52.518L85.2569 52.71C84.9889 53.206 84.6469 53.576 84.2309 53.82C83.8189 54.06 83.3109 54.18 82.7069 54.18ZM82.9289 53.154C83.2849 53.154 83.5909 53.092 83.8469 52.968C84.1029 52.84 84.3089 52.678 84.4649 52.482C84.6209 52.286 84.7229 52.082 84.7709 51.87C84.8389 51.678 84.8769 51.462 84.8849 51.222C84.8969 50.982 84.9029 50.79 84.9029 50.646L85.3109 50.796C84.9149 50.856 84.5549 50.91 84.2309 50.958C83.9069 51.006 83.6129 51.054 83.3489 51.102C83.0889 51.146 82.8569 51.2 82.6529 51.264C82.4809 51.324 82.3269 51.396 82.1909 51.48C82.0589 51.564 81.9529 51.666 81.8729 51.786C81.7969 51.906 81.7589 52.052 81.7589 52.224C81.7589 52.392 81.8009 52.548 81.8849 52.692C81.9689 52.832 82.0969 52.944 82.2689 53.028C82.4409 53.112 82.6609 53.154 82.9289 53.154ZM92.3769 54V50.814C92.3769 50.562 92.3549 50.304 92.3109 50.04C92.2709 49.772 92.1909 49.524 92.0709 49.296C91.9549 49.068 91.7889 48.884 91.5729 48.744C91.3609 48.604 91.0829 48.534 90.7389 48.534C90.5149 48.534 90.3029 48.572 90.1029 48.648C89.9029 48.72 89.7269 48.838 89.5749 49.002C89.4269 49.166 89.3089 49.382 89.2209 49.65C89.1369 49.918 89.0949 50.244 89.0949 50.628L88.3149 50.334C88.3149 49.746 88.4249 49.228 88.6449 48.78C88.8649 48.328 89.1809 47.976 89.5929 47.724C90.0049 47.472 90.5029 47.346 91.0869 47.346C91.5349 47.346 91.9109 47.418 92.2149 47.562C92.5189 47.706 92.7649 47.896 92.9529 48.132C93.1449 48.364 93.2909 48.618 93.3909 48.894C93.4909 49.17 93.5589 49.44 93.5949 49.704C93.6309 49.968 93.6489 50.2 93.6489 50.4V54H92.3769ZM87.8229 54V47.52H88.9449V49.392H89.0949V54H87.8229ZM97.8237 54.18C97.2197 54.18 96.6977 54.03 96.2577 53.73C95.8217 53.43 95.4837 53.022 95.2437 52.506C95.0077 51.986 94.8897 51.402 94.8897 50.754C94.8897 50.102 95.0097 49.52 95.2497 49.008C95.4897 48.492 95.8297 48.086 96.2697 47.79C96.7137 47.49 97.2397 47.34 97.8477 47.34C98.4597 47.34 98.9737 47.49 99.3897 47.79C99.8097 48.086 100.126 48.492 100.338 49.008C100.554 49.524 100.662 50.106 100.662 50.754C100.662 51.402 100.554 51.984 100.338 52.5C100.122 53.016 99.8037 53.426 99.3837 53.73C98.9637 54.03 98.4437 54.18 97.8237 54.18ZM97.9977 53.046C98.4097 53.046 98.7457 52.948 99.0057 52.752C99.2657 52.556 99.4557 52.286 99.5757 51.942C99.6957 51.598 99.7557 51.202 99.7557 50.754C99.7557 50.306 99.6937 49.91 99.5697 49.566C99.4497 49.222 99.2617 48.954 99.0057 48.762C98.7537 48.57 98.4317 48.474 98.0397 48.474C97.6237 48.474 97.2817 48.576 97.0137 48.78C96.7457 48.984 96.5457 49.258 96.4137 49.602C96.2857 49.946 96.2217 50.33 96.2217 50.754C96.2217 51.182 96.2857 51.57 96.4137 51.918C96.5457 52.262 96.7417 52.536 97.0017 52.74C97.2657 52.944 97.5977 53.046 97.9977 53.046ZM99.7557 54V49.338H99.6117V45.36H100.872V54H99.7557ZM104.5 54.18C104.02 54.18 103.618 54.092 103.294 53.916C102.97 53.736 102.724 53.5 102.556 53.208C102.392 52.912 102.31 52.588 102.31 52.236C102.31 51.908 102.368 51.62 102.484 51.372C102.6 51.124 102.772 50.914 103 50.742C103.228 50.566 103.508 50.424 103.84 50.316C104.128 50.232 104.454 50.158 104.818 50.094C105.182 50.03 105.564 49.97 105.964 49.914C106.368 49.858 106.768 49.802 107.164 49.746L106.708 49.998C106.716 49.49 106.608 49.114 106.384 48.87C106.164 48.622 105.784 48.498 105.244 48.498C104.904 48.498 104.592 48.578 104.308 48.738C104.024 48.894 103.826 49.154 103.714 49.518L102.544 49.158C102.704 48.602 103.008 48.16 103.456 47.832C103.908 47.504 104.508 47.34 105.256 47.34C105.836 47.34 106.34 47.44 106.768 47.64C107.2 47.836 107.516 48.148 107.716 48.576C107.82 48.788 107.884 49.012 107.908 49.248C107.932 49.484 107.944 49.738 107.944 50.01V54H106.834V52.518L107.05 52.71C106.782 53.206 106.44 53.576 106.024 53.82C105.612 54.06 105.104 54.18 104.5 54.18ZM104.722 53.154C105.078 53.154 105.384 53.092 105.64 52.968C105.896 52.84 106.102 52.678 106.258 52.482C106.414 52.286 106.516 52.082 106.564 51.87C106.632 51.678 106.67 51.462 106.678 51.222C106.69 50.982 106.696 50.79 106.696 50.646L107.104 50.796C106.708 50.856 106.348 50.91 106.024 50.958C105.7 51.006 105.406 51.054 105.142 51.102C104.882 51.146 104.65 51.2 104.446 51.264C104.274 51.324 104.12 51.396 103.984 51.48C103.852 51.564 103.746 51.666 103.666 51.786C103.59 51.906 103.552 52.052 103.552 52.224C103.552 52.392 103.594 52.548 103.678 52.692C103.762 52.832 103.89 52.944 104.062 53.028C104.234 53.112 104.454 53.154 104.722 53.154ZM109.623 54V47.52H110.739V49.092L110.583 48.888C110.663 48.68 110.767 48.49 110.895 48.318C111.023 48.142 111.171 47.998 111.339 47.886C111.503 47.766 111.685 47.674 111.885 47.61C112.089 47.542 112.297 47.502 112.509 47.49C112.721 47.474 112.925 47.484 113.121 47.52V48.696C112.909 48.64 112.673 48.624 112.413 48.648C112.157 48.672 111.921 48.754 111.705 48.894C111.501 49.026 111.339 49.186 111.219 49.374C111.103 49.562 111.019 49.772 110.967 50.004C110.915 50.232 110.889 50.474 110.889 50.73V54H109.623ZM116.84 54.18C116.236 54.18 115.714 54.03 115.274 53.73C114.838 53.43 114.5 53.022 114.26 52.506C114.024 51.986 113.906 51.402 113.906 50.754C113.906 50.102 114.026 49.52 114.266 49.008C114.506 48.492 114.846 48.086 115.286 47.79C115.73 47.49 116.256 47.34 116.864 47.34C117.476 47.34 117.99 47.49 118.406 47.79C118.826 48.086 119.142 48.492 119.354 49.008C119.57 49.524 119.678 50.106 119.678 50.754C119.678 51.402 119.57 51.984 119.354 52.5C119.138 53.016 118.82 53.426 118.4 53.73C117.98 54.03 117.46 54.18 116.84 54.18ZM117.014 53.046C117.426 53.046 117.762 52.948 118.022 52.752C118.282 52.556 118.472 52.286 118.592 51.942C118.712 51.598 118.772 51.202 118.772 50.754C118.772 50.306 118.71 49.91 118.586 49.566C118.466 49.222 118.278 48.954 118.022 48.762C117.77 48.57 117.448 48.474 117.056 48.474C116.64 48.474 116.298 48.576 116.03 48.78C115.762 48.984 115.562 49.258 115.43 49.602C115.302 49.946 115.238 50.33 115.238 50.754C115.238 51.182 115.302 51.57 115.43 51.918C115.562 52.262 115.758 52.536 116.018 52.74C116.282 52.944 116.614 53.046 117.014 53.046ZM118.772 54V49.338H118.628V45.36H119.888V54H118.772ZM127.287 55.836C126.819 55.296 126.417 54.69 126.081 54.018C125.745 53.346 125.487 52.64 125.307 51.9C125.127 51.16 125.041 50.42 125.049 49.68C125.041 48.936 125.127 48.194 125.307 47.454C125.487 46.714 125.745 46.01 126.081 45.342C126.417 44.67 126.819 44.064 127.287 43.524L128.079 44.124C127.607 44.684 127.219 45.266 126.915 45.87C126.615 46.474 126.393 47.096 126.249 47.736C126.105 48.372 126.031 49.02 126.027 49.68C126.031 50.332 126.105 50.98 126.249 51.624C126.397 52.264 126.621 52.888 126.921 53.496C127.225 54.1 127.611 54.678 128.079 55.23L127.287 55.836ZM132.49 54.18C131.942 54.18 131.444 54.048 130.996 53.784C130.552 53.52 130.198 53.16 129.934 52.704C129.674 52.244 129.544 51.726 129.544 51.15V48.276C129.544 47.672 129.674 47.138 129.934 46.674C130.198 46.206 130.558 45.842 131.014 45.582C131.474 45.318 131.998 45.186 132.586 45.186C133.062 45.186 133.504 45.284 133.912 45.48C134.324 45.672 134.67 45.95 134.95 46.314L134.152 47.022C133.98 46.77 133.756 46.57 133.48 46.422C133.204 46.274 132.906 46.2 132.586 46.2C132.206 46.2 131.868 46.292 131.572 46.476C131.28 46.656 131.05 46.896 130.882 47.196C130.714 47.492 130.63 47.812 130.63 48.156V49.89L130.396 49.626C130.648 49.266 130.968 48.978 131.356 48.762C131.744 48.546 132.164 48.438 132.616 48.438C133.152 48.438 133.632 48.564 134.056 48.816C134.484 49.068 134.82 49.41 135.064 49.842C135.312 50.27 135.436 50.752 135.436 51.288C135.436 51.824 135.302 52.31 135.034 52.746C134.766 53.182 134.408 53.53 133.96 53.79C133.516 54.05 133.026 54.18 132.49 54.18ZM132.49 53.148C132.834 53.148 133.148 53.066 133.432 52.902C133.716 52.734 133.94 52.51 134.104 52.23C134.272 51.946 134.356 51.632 134.356 51.288C134.356 50.944 134.272 50.63 134.104 50.346C133.94 50.062 133.716 49.838 133.432 49.674C133.152 49.506 132.84 49.422 132.496 49.422C132.152 49.422 131.838 49.506 131.554 49.674C131.274 49.838 131.05 50.062 130.882 50.346C130.714 50.63 130.63 50.944 130.63 51.288C130.63 51.628 130.712 51.94 130.876 52.224C131.044 52.504 131.268 52.728 131.548 52.896C131.832 53.064 132.146 53.148 132.49 53.148ZM143.257 54C142.873 54.076 142.493 54.106 142.117 54.09C141.745 54.078 141.413 54.004 141.121 53.868C140.829 53.728 140.607 53.512 140.455 53.22C140.327 52.964 140.257 52.706 140.245 52.446C140.237 52.182 140.233 51.884 140.233 51.552V45.72H141.301V51.504C141.301 51.768 141.303 51.994 141.307 52.182C141.315 52.37 141.357 52.532 141.433 52.668C141.577 52.924 141.805 53.074 142.117 53.118C142.433 53.162 142.813 53.15 143.257 53.082V54ZM138.919 48.402V47.52H143.257V48.402H138.919ZM147.183 54.18C146.539 54.18 145.983 54.034 145.515 53.742C145.051 53.45 144.693 53.046 144.441 52.53C144.189 52.014 144.063 51.422 144.063 50.754C144.063 50.074 144.191 49.478 144.447 48.966C144.703 48.454 145.065 48.056 145.533 47.772C146.001 47.484 146.551 47.34 147.183 47.34C147.831 47.34 148.389 47.486 148.857 47.778C149.325 48.066 149.683 48.468 149.931 48.984C150.183 49.496 150.309 50.086 150.309 50.754C150.309 51.43 150.183 52.026 149.931 52.542C149.679 53.054 149.319 53.456 148.851 53.748C148.383 54.036 147.827 54.18 147.183 54.18ZM147.183 53.166C147.855 53.166 148.355 52.942 148.683 52.494C149.011 52.046 149.175 51.466 149.175 50.754C149.175 50.022 149.009 49.44 148.677 49.008C148.345 48.572 147.847 48.354 147.183 48.354C146.731 48.354 146.359 48.456 146.067 48.66C145.775 48.864 145.557 49.146 145.413 49.506C145.269 49.866 145.197 50.282 145.197 50.754C145.197 51.482 145.365 52.066 145.701 52.506C146.037 52.946 146.531 53.166 147.183 53.166ZM157.099 45.186C157.651 45.186 158.149 45.318 158.593 45.582C159.037 45.846 159.389 46.206 159.649 46.662C159.913 47.118 160.045 47.636 160.045 48.216V51.09C160.045 51.694 159.915 52.228 159.655 52.692C159.395 53.156 159.035 53.52 158.575 53.784C158.119 54.048 157.595 54.18 157.003 54.18C156.531 54.18 156.089 54.082 155.677 53.886C155.269 53.69 154.923 53.412 154.639 53.052L155.437 52.344C155.613 52.592 155.839 52.792 156.115 52.944C156.391 53.092 156.687 53.166 157.003 53.166C157.387 53.166 157.725 53.074 158.017 52.89C158.313 52.706 158.543 52.466 158.707 52.17C158.875 51.874 158.959 51.554 158.959 51.21V49.476L159.193 49.74C158.945 50.1 158.627 50.388 158.239 50.604C157.851 50.82 157.429 50.928 156.973 50.928C156.437 50.928 155.957 50.802 155.533 50.55C155.109 50.298 154.773 49.958 154.525 49.53C154.277 49.098 154.153 48.614 154.153 48.078C154.153 47.542 154.287 47.056 154.555 46.62C154.823 46.18 155.179 45.832 155.623 45.576C156.071 45.316 156.563 45.186 157.099 45.186ZM157.099 46.218C156.755 46.218 156.441 46.302 156.157 46.47C155.877 46.634 155.653 46.858 155.485 47.142C155.317 47.422 155.233 47.734 155.233 48.078C155.233 48.422 155.315 48.736 155.479 49.02C155.647 49.3 155.871 49.524 156.151 49.692C156.435 49.86 156.749 49.944 157.093 49.944C157.437 49.944 157.751 49.86 158.035 49.692C158.319 49.524 158.543 49.3 158.707 49.02C158.875 48.736 158.959 48.422 158.959 48.078C158.959 47.738 158.875 47.428 158.707 47.148C158.543 46.864 158.319 46.638 158.035 46.47C157.755 46.302 157.443 46.218 157.099 46.218ZM167.344 54.18C166.736 54.18 166.224 54.03 165.808 53.73C165.392 53.426 165.076 53.016 164.86 52.5C164.648 51.98 164.542 51.398 164.542 50.754C164.542 50.102 164.648 49.518 164.86 49.002C165.076 48.486 165.392 48.08 165.808 47.784C166.228 47.488 166.742 47.34 167.35 47.34C167.95 47.34 168.466 47.49 168.898 47.79C169.334 48.086 169.668 48.492 169.9 49.008C170.132 49.524 170.248 50.106 170.248 50.754C170.248 51.402 170.132 51.984 169.9 52.5C169.668 53.016 169.334 53.426 168.898 53.73C168.466 54.03 167.948 54.18 167.344 54.18ZM164.362 54V45.36H165.436V49.23H165.316V54H164.362ZM167.212 53.202C167.64 53.202 167.994 53.094 168.274 52.878C168.554 52.662 168.764 52.37 168.904 52.002C169.044 51.63 169.114 51.214 169.114 50.754C169.114 50.298 169.044 49.886 168.904 49.518C168.768 49.15 168.556 48.858 168.268 48.642C167.984 48.426 167.622 48.318 167.182 48.318C166.762 48.318 166.414 48.422 166.138 48.63C165.862 48.834 165.656 49.12 165.52 49.488C165.384 49.852 165.316 50.274 165.316 50.754C165.316 51.226 165.382 51.648 165.514 52.02C165.65 52.388 165.858 52.678 166.138 52.89C166.418 53.098 166.776 53.202 167.212 53.202ZM174.144 54.168C173.728 54.168 173.37 54.102 173.07 53.97C172.774 53.838 172.528 53.662 172.332 53.442C172.136 53.222 171.982 52.978 171.87 52.71C171.758 52.442 171.678 52.168 171.63 51.888C171.586 51.608 171.564 51.346 171.564 51.102V47.52H172.644V50.766C172.644 51.07 172.672 51.364 172.728 51.648C172.784 51.932 172.878 52.188 173.01 52.416C173.146 52.644 173.326 52.824 173.55 52.956C173.778 53.088 174.062 53.154 174.402 53.154C174.67 53.154 174.914 53.108 175.134 53.016C175.354 52.924 175.542 52.788 175.698 52.608C175.854 52.424 175.974 52.192 176.058 51.912C176.142 51.632 176.184 51.306 176.184 50.934L176.886 51.15C176.886 51.774 176.772 52.312 176.544 52.764C176.32 53.216 176.002 53.564 175.59 53.808C175.182 54.048 174.7 54.168 174.144 54.168ZM176.304 54V52.266H176.184V47.52H177.258V54H176.304ZM181.505 54.174C180.733 54.174 180.099 54.006 179.603 53.67C179.111 53.33 178.809 52.856 178.697 52.248L179.789 52.074C179.877 52.426 180.079 52.706 180.395 52.914C180.711 53.118 181.103 53.22 181.571 53.22C182.015 53.22 182.363 53.128 182.615 52.944C182.867 52.76 182.993 52.51 182.993 52.194C182.993 52.01 182.951 51.862 182.867 51.75C182.783 51.634 182.609 51.526 182.345 51.426C182.085 51.326 181.691 51.206 181.163 51.066C180.591 50.914 180.141 50.756 179.813 50.592C179.485 50.428 179.251 50.238 179.111 50.022C178.971 49.806 178.901 49.544 178.901 49.236C178.901 48.856 179.005 48.524 179.213 48.24C179.421 47.952 179.711 47.73 180.083 47.574C180.459 47.418 180.895 47.34 181.391 47.34C181.883 47.34 182.323 47.418 182.711 47.574C183.099 47.73 183.411 47.952 183.647 48.24C183.887 48.524 184.029 48.856 184.073 49.236L182.981 49.434C182.929 49.086 182.761 48.812 182.477 48.612C182.197 48.412 181.835 48.306 181.391 48.294C180.971 48.278 180.629 48.352 180.365 48.516C180.105 48.68 179.975 48.902 179.975 49.182C179.975 49.338 180.023 49.472 180.119 49.584C180.219 49.696 180.401 49.802 180.665 49.902C180.933 50.002 181.321 50.116 181.829 50.244C182.401 50.388 182.851 50.546 183.179 50.718C183.511 50.886 183.747 51.086 183.887 51.318C184.027 51.546 184.097 51.828 184.097 52.164C184.097 52.788 183.867 53.28 183.407 53.64C182.947 53.996 182.313 54.174 181.505 54.174ZM185.661 46.374V45.27H186.729V46.374H185.661ZM185.661 54V47.52H186.729V54H185.661ZM193.263 54V50.754C193.263 50.446 193.235 50.15 193.179 49.866C193.127 49.582 193.033 49.328 192.897 49.104C192.765 48.876 192.585 48.696 192.357 48.564C192.133 48.432 191.849 48.366 191.505 48.366C191.237 48.366 190.993 48.412 190.773 48.504C190.557 48.592 190.371 48.728 190.215 48.912C190.059 49.096 189.937 49.328 189.849 49.608C189.765 49.884 189.723 50.21 189.723 50.586L189.021 50.37C189.021 49.742 189.133 49.204 189.357 48.756C189.585 48.304 189.903 47.958 190.311 47.718C190.723 47.474 191.207 47.352 191.763 47.352C192.183 47.352 192.541 47.418 192.837 47.55C193.133 47.682 193.379 47.858 193.575 48.078C193.771 48.294 193.925 48.538 194.037 48.81C194.149 49.078 194.227 49.352 194.271 49.632C194.319 49.908 194.343 50.17 194.343 50.418V54H193.263ZM188.643 54V47.52H189.603V49.254H189.723V54H188.643ZM198.772 54.18C198.136 54.18 197.58 54.04 197.104 53.76C196.632 53.476 196.264 53.082 196 52.578C195.736 52.07 195.604 51.478 195.604 50.802C195.604 50.094 195.734 49.482 195.994 48.966C196.254 48.446 196.616 48.046 197.08 47.766C197.548 47.482 198.096 47.34 198.724 47.34C199.376 47.34 199.93 47.49 200.386 47.79C200.846 48.09 201.19 48.518 201.418 49.074C201.65 49.63 201.75 50.292 201.718 51.06H200.638V50.676C200.626 49.88 200.464 49.286 200.152 48.894C199.84 48.498 199.376 48.3 198.76 48.3C198.1 48.3 197.598 48.512 197.254 48.936C196.91 49.36 196.738 49.968 196.738 50.76C196.738 51.524 196.91 52.116 197.254 52.536C197.598 52.956 198.088 53.166 198.724 53.166C199.152 53.166 199.524 53.068 199.84 52.872C200.156 52.676 200.404 52.394 200.584 52.026L201.61 52.38C201.358 52.952 200.978 53.396 200.47 53.712C199.966 54.024 199.4 54.18 198.772 54.18ZM196.378 51.06V50.202H201.166V51.06H196.378ZM205.622 54.174C204.85 54.174 204.216 54.006 203.72 53.67C203.228 53.33 202.926 52.856 202.814 52.248L203.906 52.074C203.994 52.426 204.196 52.706 204.512 52.914C204.828 53.118 205.22 53.22 205.688 53.22C206.132 53.22 206.48 53.128 206.732 52.944C206.984 52.76 207.11 52.51 207.11 52.194C207.11 52.01 207.068 51.862 206.984 51.75C206.9 51.634 206.726 51.526 206.462 51.426C206.202 51.326 205.808 51.206 205.28 51.066C204.708 50.914 204.258 50.756 203.93 50.592C203.602 50.428 203.368 50.238 203.228 50.022C203.088 49.806 203.018 49.544 203.018 49.236C203.018 48.856 203.122 48.524 203.33 48.24C203.538 47.952 203.828 47.73 204.2 47.574C204.576 47.418 205.012 47.34 205.508 47.34C206 47.34 206.44 47.418 206.828 47.574C207.216 47.73 207.528 47.952 207.764 48.24C208.004 48.524 208.146 48.856 208.19 49.236L207.098 49.434C207.046 49.086 206.878 48.812 206.594 48.612C206.314 48.412 205.952 48.306 205.508 48.294C205.088 48.278 204.746 48.352 204.482 48.516C204.222 48.68 204.092 48.902 204.092 49.182C204.092 49.338 204.14 49.472 204.236 49.584C204.336 49.696 204.518 49.802 204.782 49.902C205.05 50.002 205.438 50.116 205.946 50.244C206.518 50.388 206.968 50.546 207.296 50.718C207.628 50.886 207.864 51.086 208.004 51.318C208.144 51.546 208.214 51.828 208.214 52.164C208.214 52.788 207.984 53.28 207.524 53.64C207.064 53.996 206.43 54.174 205.622 54.174ZM212.106 54.174C211.334 54.174 210.7 54.006 210.204 53.67C209.712 53.33 209.41 52.856 209.298 52.248L210.39 52.074C210.478 52.426 210.68 52.706 210.996 52.914C211.312 53.118 211.704 53.22 212.172 53.22C212.616 53.22 212.964 53.128 213.216 52.944C213.468 52.76 213.594 52.51 213.594 52.194C213.594 52.01 213.552 51.862 213.468 51.75C213.384 51.634 213.21 51.526 212.946 51.426C212.686 51.326 212.292 51.206 211.764 51.066C211.192 50.914 210.742 50.756 210.414 50.592C210.086 50.428 209.852 50.238 209.712 50.022C209.572 49.806 209.502 49.544 209.502 49.236C209.502 48.856 209.606 48.524 209.814 48.24C210.022 47.952 210.312 47.73 210.684 47.574C211.06 47.418 211.496 47.34 211.992 47.34C212.484 47.34 212.924 47.418 213.312 47.574C213.7 47.73 214.012 47.952 214.248 48.24C214.488 48.524 214.63 48.856 214.674 49.236L213.582 49.434C213.53 49.086 213.362 48.812 213.078 48.612C212.798 48.412 212.436 48.306 211.992 48.294C211.572 48.278 211.23 48.352 210.966 48.516C210.706 48.68 210.576 48.902 210.576 49.182C210.576 49.338 210.624 49.472 210.72 49.584C210.82 49.696 211.002 49.802 211.266 49.902C211.534 50.002 211.922 50.116 212.43 50.244C213.002 50.388 213.452 50.546 213.78 50.718C214.112 50.886 214.348 51.086 214.488 51.318C214.628 51.546 214.698 51.828 214.698 52.164C214.698 52.788 214.468 53.28 214.008 53.64C213.548 53.996 212.914 54.174 212.106 54.174ZM221.207 54.18C220.603 54.18 220.085 54.03 219.653 53.73C219.221 53.426 218.887 53.016 218.651 52.5C218.419 51.984 218.303 51.402 218.303 50.754C218.303 50.106 218.419 49.524 218.651 49.008C218.887 48.492 219.221 48.086 219.653 47.79C220.085 47.49 220.601 47.34 221.201 47.34C221.813 47.34 222.327 47.488 222.743 47.784C223.159 48.08 223.473 48.486 223.685 49.002C223.901 49.518 224.009 50.102 224.009 50.754C224.009 51.398 223.901 51.98 223.685 52.5C223.473 53.016 223.159 53.426 222.743 53.73C222.327 54.03 221.815 54.18 221.207 54.18ZM221.339 53.202C221.775 53.202 222.133 53.098 222.413 52.89C222.693 52.678 222.899 52.388 223.031 52.02C223.167 51.648 223.235 51.226 223.235 50.754C223.235 50.274 223.167 49.852 223.031 49.488C222.899 49.12 222.695 48.834 222.419 48.63C222.143 48.422 221.793 48.318 221.369 48.318C220.929 48.318 220.565 48.426 220.277 48.642C219.993 48.858 219.781 49.15 219.641 49.518C219.505 49.886 219.437 50.298 219.437 50.754C219.437 51.214 219.507 51.63 219.647 52.002C219.787 52.37 219.997 52.662 220.277 52.878C220.561 53.094 220.915 53.202 221.339 53.202ZM223.235 54V49.23H223.115V45.36H224.189V54H223.235ZM227.832 54.18C227.348 54.18 226.942 54.092 226.614 53.916C226.29 53.736 226.044 53.5 225.876 53.208C225.712 52.916 225.63 52.596 225.63 52.248C225.63 51.908 225.694 51.614 225.822 51.366C225.954 51.114 226.138 50.906 226.374 50.742C226.61 50.574 226.892 50.442 227.22 50.346C227.528 50.262 227.872 50.19 228.252 50.13C228.636 50.066 229.024 50.008 229.416 49.956C229.808 49.904 230.174 49.854 230.514 49.806L230.13 50.028C230.142 49.452 230.026 49.026 229.782 48.75C229.542 48.474 229.126 48.336 228.534 48.336C228.142 48.336 227.798 48.426 227.502 48.606C227.21 48.782 227.004 49.07 226.884 49.47L225.87 49.164C226.026 48.596 226.328 48.15 226.776 47.826C227.224 47.502 227.814 47.34 228.546 47.34C229.134 47.34 229.638 47.446 230.058 47.658C230.482 47.866 230.786 48.182 230.97 48.606C231.062 48.806 231.12 49.024 231.144 49.26C231.168 49.492 231.18 49.736 231.18 49.992V54H230.232V52.446L230.454 52.59C230.21 53.114 229.868 53.51 229.428 53.778C228.992 54.046 228.46 54.18 227.832 54.18ZM227.994 53.286C228.378 53.286 228.71 53.218 228.99 53.082C229.274 52.942 229.502 52.76 229.674 52.536C229.846 52.308 229.958 52.06 230.01 51.792C230.07 51.592 230.102 51.37 230.106 51.126C230.114 50.878 230.118 50.688 230.118 50.556L230.49 50.718C230.142 50.766 229.8 50.812 229.464 50.856C229.128 50.9 228.81 50.948 228.51 51C228.21 51.048 227.94 51.106 227.7 51.174C227.524 51.23 227.358 51.302 227.202 51.39C227.05 51.478 226.926 51.592 226.83 51.732C226.738 51.868 226.692 52.038 226.692 52.242C226.692 52.418 226.736 52.586 226.824 52.746C226.916 52.906 227.056 53.036 227.244 53.136C227.436 53.236 227.686 53.286 227.994 53.286ZM233.397 56.88L234.651 53.472L234.669 54.48L231.837 47.52H232.959L235.179 53.118H234.795L236.877 47.52H237.963L234.435 56.88H233.397ZM241.522 54.174C240.75 54.174 240.116 54.006 239.62 53.67C239.128 53.33 238.826 52.856 238.714 52.248L239.806 52.074C239.894 52.426 240.096 52.706 240.412 52.914C240.728 53.118 241.12 53.22 241.588 53.22C242.032 53.22 242.38 53.128 242.632 52.944C242.884 52.76 243.01 52.51 243.01 52.194C243.01 52.01 242.968 51.862 242.884 51.75C242.8 51.634 242.626 51.526 242.362 51.426C242.102 51.326 241.708 51.206 241.18 51.066C240.608 50.914 240.158 50.756 239.83 50.592C239.502 50.428 239.268 50.238 239.128 50.022C238.988 49.806 238.918 49.544 238.918 49.236C238.918 48.856 239.022 48.524 239.23 48.24C239.438 47.952 239.728 47.73 240.1 47.574C240.476 47.418 240.912 47.34 241.408 47.34C241.9 47.34 242.34 47.418 242.728 47.574C243.116 47.73 243.428 47.952 243.664 48.24C243.904 48.524 244.046 48.856 244.09 49.236L242.998 49.434C242.946 49.086 242.778 48.812 242.494 48.612C242.214 48.412 241.852 48.306 241.408 48.294C240.988 48.278 240.646 48.352 240.382 48.516C240.122 48.68 239.992 48.902 239.992 49.182C239.992 49.338 240.04 49.472 240.136 49.584C240.236 49.696 240.418 49.802 240.682 49.902C240.95 50.002 241.338 50.116 241.846 50.244C242.418 50.388 242.868 50.546 243.196 50.718C243.528 50.886 243.764 51.086 243.904 51.318C244.044 51.546 244.114 51.828 244.114 52.164C244.114 52.788 243.884 53.28 243.424 53.64C242.964 53.996 242.33 54.174 241.522 54.174ZM245.773 56.196L244.981 55.59C245.449 55.038 245.833 54.46 246.133 53.856C246.437 53.248 246.663 52.624 246.811 51.984C246.959 51.34 247.033 50.692 247.033 50.04C247.033 49.38 246.959 48.732 246.811 48.096C246.667 47.456 246.443 46.834 246.139 46.23C245.839 45.626 245.453 45.044 244.981 44.484L245.773 43.884C246.241 44.424 246.643 45.03 246.979 45.702C247.319 46.37 247.577 47.074 247.753 47.814C247.933 48.554 248.019 49.296 248.011 50.04C248.019 50.78 247.933 51.52 247.753 52.26C247.577 53 247.319 53.706 246.979 54.378C246.643 55.05 246.241 55.656 245.773 56.196ZM71.338 70.18C70.746 70.18 70.206 70.076 69.718 69.868C69.23 69.66 68.81 69.362 68.458 68.974C68.106 68.582 67.834 68.11 67.642 67.558C67.454 67.002 67.36 66.376 67.36 65.68C67.36 64.76 67.524 63.964 67.852 63.292C68.18 62.62 68.642 62.102 69.238 61.738C69.834 61.37 70.534 61.186 71.338 61.186C72.306 61.186 73.086 61.412 73.678 61.864C74.27 62.312 74.678 62.926 74.902 63.706L73.822 63.928C73.642 63.404 73.346 62.986 72.934 62.674C72.522 62.362 72.008 62.206 71.392 62.206C70.748 62.202 70.212 62.346 69.784 62.638C69.36 62.926 69.04 63.332 68.824 63.856C68.608 64.38 68.498 64.988 68.494 65.68C68.49 66.368 68.596 66.972 68.812 67.492C69.028 68.012 69.35 68.42 69.778 68.716C70.21 69.008 70.748 69.156 71.392 69.16C71.948 69.164 72.416 69.058 72.796 68.842C73.176 68.626 73.47 68.314 73.678 67.906C73.886 67.498 74.012 67.008 74.056 66.436H72.22V65.554H75.184C75.196 65.634 75.202 65.73 75.202 65.842C75.206 65.95 75.208 66.024 75.208 66.064C75.208 66.852 75.06 67.558 74.764 68.182C74.472 68.802 74.038 69.29 73.462 69.646C72.89 70.002 72.182 70.18 71.338 70.18ZM79.3344 70.18C78.6984 70.18 78.1424 70.04 77.6664 69.76C77.1944 69.476 76.8264 69.082 76.5624 68.578C76.2984 68.07 76.1664 67.478 76.1664 66.802C76.1664 66.094 76.2964 65.482 76.5564 64.966C76.8164 64.446 77.1784 64.046 77.6424 63.766C78.1104 63.482 78.6584 63.34 79.2864 63.34C79.9384 63.34 80.4924 63.49 80.9484 63.79C81.4084 64.09 81.7524 64.518 81.9804 65.074C82.2124 65.63 82.3124 66.292 82.2804 67.06H81.2004V66.676C81.1884 65.88 81.0264 65.286 80.7144 64.894C80.4024 64.498 79.9384 64.3 79.3224 64.3C78.6624 64.3 78.1604 64.512 77.8164 64.936C77.4724 65.36 77.3004 65.968 77.3004 66.76C77.3004 67.524 77.4724 68.116 77.8164 68.536C78.1604 68.956 78.6504 69.166 79.2864 69.166C79.7144 69.166 80.0864 69.068 80.4024 68.872C80.7184 68.676 80.9664 68.394 81.1464 68.026L82.1724 68.38C81.9204 68.952 81.5404 69.396 81.0324 69.712C80.5284 70.024 79.9624 70.18 79.3344 70.18ZM76.9404 67.06V66.202H81.7284V67.06H76.9404ZM87.3542 70C86.9702 70.076 86.5902 70.106 86.2142 70.09C85.8422 70.078 85.5102 70.004 85.2182 69.868C84.9262 69.728 84.7042 69.512 84.5522 69.22C84.4242 68.964 84.3542 68.706 84.3422 68.446C84.3342 68.182 84.3302 67.884 84.3302 67.552V61.72H85.3982V67.504C85.3982 67.768 85.4002 67.994 85.4042 68.182C85.4122 68.37 85.4542 68.532 85.5302 68.668C85.6742 68.924 85.9022 69.074 86.2142 69.118C86.5302 69.162 86.9102 69.15 87.3542 69.082V70ZM83.0162 64.402V63.52H87.3542V64.402H83.0162ZM91.4322 62.374V61.27H92.5002V62.374H91.4322ZM91.4322 70V63.52H92.5002V70H91.4322ZM98.0385 70C97.6545 70.076 97.2745 70.106 96.8985 70.09C96.5265 70.078 96.1945 70.004 95.9025 69.868C95.6105 69.728 95.3885 69.512 95.2365 69.22C95.1085 68.964 95.0385 68.706 95.0265 68.446C95.0185 68.182 95.0145 67.884 95.0145 67.552V61.72H96.0825V67.504C96.0825 67.768 96.0845 67.994 96.0885 68.182C96.0965 68.37 96.1385 68.532 96.2145 68.668C96.3585 68.924 96.5865 69.074 96.8985 69.118C97.2145 69.162 97.5945 69.15 98.0385 69.082V70ZM93.7005 64.402V63.52H98.0385V64.402H93.7005ZM104.972 70.18C104.364 70.18 103.852 70.03 103.436 69.73C103.02 69.426 102.704 69.016 102.488 68.5C102.276 67.98 102.17 67.398 102.17 66.754C102.17 66.102 102.276 65.518 102.488 65.002C102.704 64.486 103.02 64.08 103.436 63.784C103.856 63.488 104.37 63.34 104.978 63.34C105.578 63.34 106.094 63.49 106.526 63.79C106.962 64.086 107.296 64.492 107.528 65.008C107.76 65.524 107.876 66.106 107.876 66.754C107.876 67.402 107.76 67.984 107.528 68.5C107.296 69.016 106.962 69.426 106.526 69.73C106.094 70.03 105.576 70.18 104.972 70.18ZM101.99 70V61.36H103.064V65.23H102.944V70H101.99ZM104.84 69.202C105.268 69.202 105.622 69.094 105.902 68.878C106.182 68.662 106.392 68.37 106.532 68.002C106.672 67.63 106.742 67.214 106.742 66.754C106.742 66.298 106.672 65.886 106.532 65.518C106.396 65.15 106.184 64.858 105.896 64.642C105.612 64.426 105.25 64.318 104.81 64.318C104.39 64.318 104.042 64.422 103.766 64.63C103.49 64.834 103.284 65.12 103.148 65.488C103.012 65.852 102.944 66.274 102.944 66.754C102.944 67.226 103.01 67.648 103.142 68.02C103.278 68.388 103.486 68.678 103.766 68.89C104.046 69.098 104.404 69.202 104.84 69.202ZM112.12 70.18C111.484 70.18 110.928 70.04 110.452 69.76C109.98 69.476 109.612 69.082 109.348 68.578C109.084 68.07 108.952 67.478 108.952 66.802C108.952 66.094 109.082 65.482 109.342 64.966C109.602 64.446 109.964 64.046 110.428 63.766C110.896 63.482 111.444 63.34 112.072 63.34C112.724 63.34 113.278 63.49 113.734 63.79C114.194 64.09 114.538 64.518 114.766 65.074C114.998 65.63 115.098 66.292 115.066 67.06H113.986V66.676C113.974 65.88 113.812 65.286 113.5 64.894C113.188 64.498 112.724 64.3 112.108 64.3C111.448 64.3 110.946 64.512 110.602 64.936C110.258 65.36 110.086 65.968 110.086 66.76C110.086 67.524 110.258 68.116 110.602 68.536C110.946 68.956 111.436 69.166 112.072 69.166C112.5 69.166 112.872 69.068 113.188 68.872C113.504 68.676 113.752 68.394 113.932 68.026L114.958 68.38C114.706 68.952 114.326 69.396 113.818 69.712C113.314 70.024 112.748 70.18 112.12 70.18ZM109.726 67.06V66.202H114.514V67.06H109.726ZM120.14 70C119.756 70.076 119.376 70.106 119 70.09C118.628 70.078 118.296 70.004 118.004 69.868C117.712 69.728 117.49 69.512 117.338 69.22C117.21 68.964 117.14 68.706 117.128 68.446C117.12 68.182 117.116 67.884 117.116 67.552V61.72H118.184V67.504C118.184 67.768 118.186 67.994 118.19 68.182C118.198 68.37 118.24 68.532 118.316 68.668C118.46 68.924 118.688 69.074 119 69.118C119.316 69.162 119.696 69.15 120.14 69.082V70ZM115.802 64.402V63.52H120.14V64.402H115.802ZM122.955 70L120.975 63.514L122.037 63.52L123.483 68.26L124.941 63.52H125.883L127.335 68.26L128.787 63.52H129.843L127.863 70H126.975L125.409 65.074L123.843 70H122.955ZM133.62 70.18C132.984 70.18 132.428 70.04 131.952 69.76C131.48 69.476 131.112 69.082 130.848 68.578C130.584 68.07 130.452 67.478 130.452 66.802C130.452 66.094 130.582 65.482 130.842 64.966C131.102 64.446 131.464 64.046 131.928 63.766C132.396 63.482 132.944 63.34 133.572 63.34C134.224 63.34 134.778 63.49 135.234 63.79C135.694 64.09 136.038 64.518 136.266 65.074C136.498 65.63 136.598 66.292 136.566 67.06H135.486V66.676C135.474 65.88 135.312 65.286 135 64.894C134.688 64.498 134.224 64.3 133.608 64.3C132.948 64.3 132.446 64.512 132.102 64.936C131.758 65.36 131.586 65.968 131.586 66.76C131.586 67.524 131.758 68.116 132.102 68.536C132.446 68.956 132.936 69.166 133.572 69.166C134 69.166 134.372 69.068 134.688 68.872C135.004 68.676 135.252 68.394 135.432 68.026L136.458 68.38C136.206 68.952 135.826 69.396 135.318 69.712C134.814 70.024 134.248 70.18 133.62 70.18ZM131.226 67.06V66.202H136.014V67.06H131.226ZM140.83 70.18C140.194 70.18 139.638 70.04 139.162 69.76C138.69 69.476 138.322 69.082 138.058 68.578C137.794 68.07 137.662 67.478 137.662 66.802C137.662 66.094 137.792 65.482 138.052 64.966C138.312 64.446 138.674 64.046 139.138 63.766C139.606 63.482 140.154 63.34 140.782 63.34C141.434 63.34 141.988 63.49 142.444 63.79C142.904 64.09 143.248 64.518 143.476 65.074C143.708 65.63 143.808 66.292 143.776 67.06H142.696V66.676C142.684 65.88 142.522 65.286 142.21 64.894C141.898 64.498 141.434 64.3 140.818 64.3C140.158 64.3 139.656 64.512 139.312 64.936C138.968 65.36 138.796 65.968 138.796 66.76C138.796 67.524 138.968 68.116 139.312 68.536C139.656 68.956 140.146 69.166 140.782 69.166C141.21 69.166 141.582 69.068 141.898 68.872C142.214 68.676 142.462 68.394 142.642 68.026L143.668 68.38C143.416 68.952 143.036 69.396 142.528 69.712C142.024 70.024 141.458 70.18 140.83 70.18ZM138.436 67.06V66.202H143.224V67.06H138.436ZM149.67 70V66.754C149.67 66.446 149.642 66.15 149.586 65.866C149.534 65.582 149.44 65.328 149.304 65.104C149.172 64.876 148.992 64.696 148.764 64.564C148.54 64.432 148.256 64.366 147.912 64.366C147.644 64.366 147.4 64.412 147.18 64.504C146.964 64.592 146.778 64.728 146.622 64.912C146.466 65.096 146.344 65.328 146.256 65.608C146.172 65.884 146.13 66.21 146.13 66.586L145.428 66.37C145.428 65.742 145.54 65.204 145.764 64.756C145.992 64.304 146.31 63.958 146.718 63.718C147.13 63.474 147.614 63.352 148.17 63.352C148.59 63.352 148.948 63.418 149.244 63.55C149.54 63.682 149.786 63.858 149.982 64.078C150.178 64.294 150.332 64.538 150.444 64.81C150.556 65.078 150.634 65.352 150.678 65.632C150.726 65.908 150.75 66.17 150.75 66.418V70H149.67ZM145.05 70V63.52H146.01V65.254H146.13V70H145.05ZM156.795 70L154.293 61.36H155.409L157.329 68.194L159.243 61.366L160.365 61.36L162.285 68.194L164.199 61.36H165.321L162.819 70H161.751L159.807 63.226L157.863 70H156.795ZM168.556 70.18C167.92 70.18 167.364 70.04 166.888 69.76C166.416 69.476 166.048 69.082 165.784 68.578C165.52 68.07 165.388 67.478 165.388 66.802C165.388 66.094 165.518 65.482 165.778 64.966C166.038 64.446 166.4 64.046 166.864 63.766C167.332 63.482 167.88 63.34 168.508 63.34C169.16 63.34 169.714 63.49 170.17 63.79C170.63 64.09 170.974 64.518 171.202 65.074C171.434 65.63 171.534 66.292 171.502 67.06H170.422V66.676C170.41 65.88 170.248 65.286 169.936 64.894C169.624 64.498 169.16 64.3 168.544 64.3C167.884 64.3 167.382 64.512 167.038 64.936C166.694 65.36 166.522 65.968 166.522 66.76C166.522 67.524 166.694 68.116 167.038 68.536C167.382 68.956 167.872 69.166 168.508 69.166C168.936 69.166 169.308 69.068 169.624 68.872C169.94 68.676 170.188 68.394 170.368 68.026L171.394 68.38C171.142 68.952 170.762 69.396 170.254 69.712C169.75 70.024 169.184 70.18 168.556 70.18ZM166.162 67.06V66.202H170.95V67.06H166.162ZM175.502 70.18C174.898 70.18 174.38 70.03 173.948 69.73C173.516 69.426 173.182 69.016 172.946 68.5C172.714 67.984 172.598 67.402 172.598 66.754C172.598 66.106 172.714 65.524 172.946 65.008C173.182 64.492 173.516 64.086 173.948 63.79C174.38 63.49 174.896 63.34 175.496 63.34C176.108 63.34 176.622 63.488 177.038 63.784C177.454 64.08 177.768 64.486 177.98 65.002C178.196 65.518 178.304 66.102 178.304 66.754C178.304 67.398 178.196 67.98 177.98 68.5C177.768 69.016 177.454 69.426 177.038 69.73C176.622 70.03 176.11 70.18 175.502 70.18ZM175.634 69.202C176.07 69.202 176.428 69.098 176.708 68.89C176.988 68.678 177.194 68.388 177.326 68.02C177.462 67.648 177.53 67.226 177.53 66.754C177.53 66.274 177.462 65.852 177.326 65.488C177.194 65.12 176.99 64.834 176.714 64.63C176.438 64.422 176.088 64.318 175.664 64.318C175.224 64.318 174.86 64.426 174.572 64.642C174.288 64.858 174.076 65.15 173.936 65.518C173.8 65.886 173.732 66.298 173.732 66.754C173.732 67.214 173.802 67.63 173.942 68.002C174.082 68.37 174.292 68.662 174.572 68.878C174.856 69.094 175.21 69.202 175.634 69.202ZM177.53 70V65.23H177.41V61.36H178.484V70H177.53ZM180.165 71.344L180.231 70.846C180.399 70.858 180.525 70.826 180.609 70.75C180.693 70.674 180.747 70.57 180.771 70.438C180.795 70.306 180.799 70.16 180.783 70H180.165V68.644H181.341V70.18C181.341 70.6 181.237 70.916 181.029 71.128C180.825 71.34 180.537 71.412 180.165 71.344ZM185.305 70.174C184.701 70.174 184.189 70.01 183.769 69.682C183.349 69.354 183.061 68.914 182.905 68.362L183.967 68.11C184.031 68.402 184.185 68.65 184.429 68.854C184.677 69.058 184.961 69.16 185.281 69.16C185.489 69.16 185.701 69.11 185.917 69.01C186.133 68.906 186.299 68.738 186.415 68.506C186.495 68.346 186.541 68.17 186.553 67.978C186.565 67.782 186.571 67.552 186.571 67.288V61.36H187.651V67.288C187.651 67.536 187.649 67.758 187.645 67.954C187.645 68.15 187.625 68.338 187.585 68.518C187.549 68.694 187.477 68.874 187.369 69.058C187.153 69.438 186.863 69.72 186.499 69.904C186.139 70.084 185.741 70.174 185.305 70.174ZM191.414 70.18C190.93 70.18 190.524 70.092 190.196 69.916C189.872 69.736 189.626 69.5 189.458 69.208C189.294 68.916 189.212 68.596 189.212 68.248C189.212 67.908 189.276 67.614 189.404 67.366C189.536 67.114 189.72 66.906 189.956 66.742C190.192 66.574 190.474 66.442 190.802 66.346C191.11 66.262 191.454 66.19 191.834 66.13C192.218 66.066 192.606 66.008 192.998 65.956C193.39 65.904 193.756 65.854 194.096 65.806L193.712 66.028C193.724 65.452 193.608 65.026 193.364 64.75C193.124 64.474 192.708 64.336 192.116 64.336C191.724 64.336 191.38 64.426 191.084 64.606C190.792 64.782 190.586 65.07 190.466 65.47L189.452 65.164C189.608 64.596 189.91 64.15 190.358 63.826C190.806 63.502 191.396 63.34 192.128 63.34C192.716 63.34 193.22 63.446 193.64 63.658C194.064 63.866 194.368 64.182 194.552 64.606C194.644 64.806 194.702 65.024 194.726 65.26C194.75 65.492 194.762 65.736 194.762 65.992V70H193.814V68.446L194.036 68.59C193.792 69.114 193.45 69.51 193.01 69.778C192.574 70.046 192.042 70.18 191.414 70.18ZM191.576 69.286C191.96 69.286 192.292 69.218 192.572 69.082C192.856 68.942 193.084 68.76 193.256 68.536C193.428 68.308 193.54 68.06 193.592 67.792C193.652 67.592 193.684 67.37 193.688 67.126C193.696 66.878 193.7 66.688 193.7 66.556L194.072 66.718C193.724 66.766 193.382 66.812 193.046 66.856C192.71 66.9 192.392 66.948 192.092 67C191.792 67.048 191.522 67.106 191.282 67.174C191.106 67.23 190.94 67.302 190.784 67.39C190.632 67.478 190.508 67.592 190.412 67.732C190.32 67.868 190.274 68.038 190.274 68.242C190.274 68.418 190.318 68.586 190.406 68.746C190.498 68.906 190.638 69.036 190.826 69.136C191.018 69.236 191.268 69.286 191.576 69.286ZM201.056 70V66.754C201.056 66.446 201.028 66.15 200.972 65.866C200.92 65.582 200.826 65.328 200.69 65.104C200.558 64.876 200.378 64.696 200.15 64.564C199.926 64.432 199.642 64.366 199.298 64.366C199.03 64.366 198.786 64.412 198.566 64.504C198.35 64.592 198.164 64.728 198.008 64.912C197.852 65.096 197.73 65.328 197.642 65.608C197.558 65.884 197.516 66.21 197.516 66.586L196.814 66.37C196.814 65.742 196.926 65.204 197.15 64.756C197.378 64.304 197.696 63.958 198.104 63.718C198.516 63.474 199 63.352 199.556 63.352C199.976 63.352 200.334 63.418 200.63 63.55C200.926 63.682 201.172 63.858 201.368 64.078C201.564 64.294 201.718 64.538 201.83 64.81C201.942 65.078 202.02 65.352 202.064 65.632C202.112 65.908 202.136 66.17 202.136 66.418V70H201.056ZM196.436 70V63.52H197.396V65.254H197.516V70H196.436ZM207.844 70V62.542L206.218 63.526V62.332L207.844 61.36H208.93V70H207.844ZM213.889 70.18C213.445 70.18 213.031 70.088 212.647 69.904C212.267 69.72 211.941 69.468 211.669 69.148C211.401 68.824 211.209 68.452 211.093 68.032L212.119 67.756C212.191 68.04 212.319 68.286 212.503 68.494C212.687 68.698 212.901 68.858 213.145 68.974C213.393 69.086 213.651 69.142 213.919 69.142C214.271 69.142 214.587 69.058 214.867 68.89C215.151 68.718 215.375 68.492 215.539 68.212C215.703 67.928 215.785 67.618 215.785 67.282C215.785 66.934 215.699 66.62 215.527 66.34C215.359 66.056 215.133 65.832 214.849 65.668C214.565 65.504 214.255 65.422 213.919 65.422C213.539 65.422 213.213 65.502 212.941 65.662C212.673 65.818 212.461 66.01 212.305 66.238L211.357 65.878L211.621 61.36H216.259V62.374H212.137L212.611 61.93L212.389 65.548L212.155 65.242C212.395 64.986 212.681 64.788 213.013 64.648C213.349 64.508 213.691 64.438 214.039 64.438C214.575 64.438 215.055 64.564 215.479 64.816C215.903 65.064 216.239 65.404 216.487 65.836C216.735 66.264 216.859 66.746 216.859 67.282C216.859 67.814 216.723 68.3 216.451 68.74C216.179 69.176 215.817 69.526 215.365 69.79C214.917 70.05 214.425 70.18 213.889 70.18ZM218.294 66.658V65.776H221.894V66.658H218.294ZM228.322 70V62.374H225.376V61.36H232.336V62.374H229.39V70H228.322ZM238.025 70V66.754C238.025 66.446 237.997 66.15 237.941 65.866C237.889 65.582 237.795 65.328 237.659 65.104C237.527 64.876 237.347 64.696 237.119 64.564C236.895 64.432 236.611 64.366 236.267 64.366C235.999 64.366 235.755 64.412 235.535 64.504C235.319 64.592 235.133 64.728 234.977 64.912C234.821 65.096 234.699 65.328 234.611 65.608C234.527 65.884 234.485 66.21 234.485 66.586L233.783 66.37C233.783 65.742 233.895 65.204 234.119 64.756C234.347 64.304 234.665 63.958 235.073 63.718C235.485 63.474 235.969 63.352 236.525 63.352C236.945 63.352 237.303 63.418 237.599 63.55C237.895 63.682 238.141 63.858 238.337 64.078C238.533 64.294 238.687 64.538 238.799 64.81C238.911 65.078 238.989 65.352 239.033 65.632C239.081 65.908 239.105 66.17 239.105 66.418V70H238.025ZM233.405 70V61.36H234.365V66.13H234.485V70H233.405ZM243.245 70.168C242.829 70.168 242.471 70.102 242.171 69.97C241.875 69.838 241.629 69.662 241.433 69.442C241.237 69.222 241.083 68.978 240.971 68.71C240.859 68.442 240.779 68.168 240.731 67.888C240.687 67.608 240.665 67.346 240.665 67.102V63.52H241.745V66.766C241.745 67.07 241.773 67.364 241.829 67.648C241.885 67.932 241.979 68.188 242.111 68.416C242.247 68.644 242.427 68.824 242.651 68.956C242.879 69.088 243.163 69.154 243.503 69.154C243.771 69.154 244.015 69.108 244.235 69.016C244.455 68.924 244.643 68.788 244.799 68.608C244.955 68.424 245.075 68.192 245.159 67.912C245.243 67.632 245.285 67.306 245.285 66.934L245.987 67.15C245.987 67.774 245.873 68.312 245.645 68.764C245.421 69.216 245.103 69.564 244.691 69.808C244.283 70.048 243.801 70.168 243.245 70.168ZM245.405 70V68.266H245.285V63.52H246.359V70H245.405ZM248.159 70V63.52H249.113V65.086L248.957 64.882C249.033 64.682 249.131 64.498 249.251 64.33C249.375 64.162 249.513 64.024 249.665 63.916C249.833 63.78 250.023 63.676 250.235 63.604C250.447 63.532 250.663 63.49 250.883 63.478C251.103 63.462 251.309 63.476 251.501 63.52V64.522C251.277 64.462 251.031 64.446 250.763 64.474C250.495 64.502 250.247 64.6 250.019 64.768C249.811 64.916 249.649 65.096 249.533 65.308C249.421 65.52 249.343 65.75 249.299 65.998C249.255 66.242 249.233 66.492 249.233 66.748V70H248.159ZM254.969 70.174C254.197 70.174 253.563 70.006 253.067 69.67C252.575 69.33 252.273 68.856 252.161 68.248L253.253 68.074C253.341 68.426 253.543 68.706 253.859 68.914C254.175 69.118 254.567 69.22 255.035 69.22C255.479 69.22 255.827 69.128 256.079 68.944C256.331 68.76 256.457 68.51 256.457 68.194C256.457 68.01 256.415 67.862 256.331 67.75C256.247 67.634 256.073 67.526 255.809 67.426C255.549 67.326 255.155 67.206 254.627 67.066C254.055 66.914 253.605 66.756 253.277 66.592C252.949 66.428 252.715 66.238 252.575 66.022C252.435 65.806 252.365 65.544 252.365 65.236C252.365 64.856 252.469 64.524 252.677 64.24C252.885 63.952 253.175 63.73 253.547 63.574C253.923 63.418 254.359 63.34 254.855 63.34C255.347 63.34 255.787 63.418 256.175 63.574C256.563 63.73 256.875 63.952 257.111 64.24C257.351 64.524 257.493 64.856 257.537 65.236L256.445 65.434C256.393 65.086 256.225 64.812 255.941 64.612C255.661 64.412 255.299 64.306 254.855 64.294C254.435 64.278 254.093 64.352 253.829 64.516C253.569 64.68 253.439 64.902 253.439 65.182C253.439 65.338 253.487 65.472 253.583 65.584C253.683 65.696 253.865 65.802 254.129 65.902C254.397 66.002 254.785 66.116 255.293 66.244C255.865 66.388 256.315 66.546 256.643 66.718C256.975 66.886 257.211 67.086 257.351 67.318C257.491 67.546 257.561 67.828 257.561 68.164C257.561 68.788 257.331 69.28 256.871 69.64C256.411 69.996 255.777 70.174 254.969 70.174ZM258.884 71.344L258.95 70.846C259.118 70.858 259.244 70.826 259.328 70.75C259.412 70.674 259.466 70.57 259.49 70.438C259.514 70.306 259.518 70.16 259.502 70H258.884V68.644H260.06V70.18C260.06 70.6 259.956 70.916 259.748 71.128C259.544 71.34 259.256 71.412 258.884 71.344ZM266.546 70.174C265.942 70.174 265.43 70.01 265.01 69.682C264.59 69.354 264.302 68.914 264.146 68.362L265.208 68.11C265.272 68.402 265.426 68.65 265.67 68.854C265.918 69.058 266.202 69.16 266.522 69.16C266.73 69.16 266.942 69.11 267.158 69.01C267.374 68.906 267.54 68.738 267.656 68.506C267.736 68.346 267.782 68.17 267.794 67.978C267.806 67.782 267.812 67.552 267.812 67.288V61.36H268.892V67.288C268.892 67.536 268.89 67.758 268.886 67.954C268.886 68.15 268.866 68.338 268.826 68.518C268.79 68.694 268.718 68.874 268.61 69.058C268.394 69.438 268.104 69.72 267.74 69.904C267.38 70.084 266.982 70.174 266.546 70.174ZM272.655 70.18C272.171 70.18 271.765 70.092 271.437 69.916C271.113 69.736 270.867 69.5 270.699 69.208C270.535 68.916 270.453 68.596 270.453 68.248C270.453 67.908 270.517 67.614 270.645 67.366C270.777 67.114 270.961 66.906 271.197 66.742C271.433 66.574 271.715 66.442 272.043 66.346C272.351 66.262 272.695 66.19 273.075 66.13C273.459 66.066 273.847 66.008 274.239 65.956C274.631 65.904 274.997 65.854 275.337 65.806L274.953 66.028C274.965 65.452 274.849 65.026 274.605 64.75C274.365 64.474 273.949 64.336 273.357 64.336C272.965 64.336 272.621 64.426 272.325 64.606C272.033 64.782 271.827 65.07 271.707 65.47L270.693 65.164C270.849 64.596 271.151 64.15 271.599 63.826C272.047 63.502 272.637 63.34 273.369 63.34C273.957 63.34 274.461 63.446 274.881 63.658C275.305 63.866 275.609 64.182 275.793 64.606C275.885 64.806 275.943 65.024 275.967 65.26C275.991 65.492 276.003 65.736 276.003 65.992V70H275.055V68.446L275.277 68.59C275.033 69.114 274.691 69.51 274.251 69.778C273.815 70.046 273.283 70.18 272.655 70.18ZM272.817 69.286C273.201 69.286 273.533 69.218 273.813 69.082C274.097 68.942 274.325 68.76 274.497 68.536C274.669 68.308 274.781 68.06 274.833 67.792C274.893 67.592 274.925 67.37 274.929 67.126C274.937 66.878 274.941 66.688 274.941 66.556L275.313 66.718C274.965 66.766 274.623 66.812 274.287 66.856C273.951 66.9 273.633 66.948 273.333 67C273.033 67.048 272.763 67.106 272.523 67.174C272.347 67.23 272.181 67.302 272.025 67.39C271.873 67.478 271.749 67.592 271.653 67.732C271.561 67.868 271.515 68.038 271.515 68.242C271.515 68.418 271.559 68.586 271.647 68.746C271.739 68.906 271.879 69.036 272.067 69.136C272.259 69.236 272.509 69.286 272.817 69.286ZM282.297 70V66.754C282.297 66.446 282.269 66.15 282.213 65.866C282.161 65.582 282.067 65.328 281.931 65.104C281.799 64.876 281.619 64.696 281.391 64.564C281.167 64.432 280.883 64.366 280.539 64.366C280.271 64.366 280.027 64.412 279.807 64.504C279.591 64.592 279.405 64.728 279.249 64.912C279.093 65.096 278.971 65.328 278.883 65.608C278.799 65.884 278.757 66.21 278.757 66.586L278.055 66.37C278.055 65.742 278.167 65.204 278.391 64.756C278.619 64.304 278.937 63.958 279.345 63.718C279.757 63.474 280.241 63.352 280.797 63.352C281.217 63.352 281.575 63.418 281.871 63.55C282.167 63.682 282.413 63.858 282.609 64.078C282.805 64.294 282.959 64.538 283.071 64.81C283.183 65.078 283.261 65.352 283.305 65.632C283.353 65.908 283.377 66.17 283.377 66.418V70H282.297ZM277.677 70V63.52H278.637V65.254H278.757V70H277.677ZM289.086 70V62.542L287.46 63.526V62.332L289.086 61.36H290.172V70H289.086ZM295.521 70.18C294.973 70.18 294.475 70.048 294.027 69.784C293.583 69.52 293.229 69.16 292.965 68.704C292.705 68.244 292.575 67.726 292.575 67.15V64.276C292.575 63.672 292.705 63.138 292.965 62.674C293.229 62.206 293.589 61.842 294.045 61.582C294.505 61.318 295.029 61.186 295.617 61.186C296.093 61.186 296.535 61.284 296.943 61.48C297.355 61.672 297.701 61.95 297.981 62.314L297.183 63.022C297.011 62.77 296.787 62.57 296.511 62.422C296.235 62.274 295.937 62.2 295.617 62.2C295.237 62.2 294.899 62.292 294.603 62.476C294.311 62.656 294.081 62.896 293.913 63.196C293.745 63.492 293.661 63.812 293.661 64.156V65.89L293.427 65.626C293.679 65.266 293.999 64.978 294.387 64.762C294.775 64.546 295.195 64.438 295.647 64.438C296.183 64.438 296.663 64.564 297.087 64.816C297.515 65.068 297.851 65.41 298.095 65.842C298.343 66.27 298.467 66.752 298.467 67.288C298.467 67.824 298.333 68.31 298.065 68.746C297.797 69.182 297.439 69.53 296.991 69.79C296.547 70.05 296.057 70.18 295.521 70.18ZM295.521 69.148C295.865 69.148 296.179 69.066 296.463 68.902C296.747 68.734 296.971 68.51 297.135 68.23C297.303 67.946 297.387 67.632 297.387 67.288C297.387 66.944 297.303 66.63 297.135 66.346C296.971 66.062 296.747 65.838 296.463 65.674C296.183 65.506 295.871 65.422 295.527 65.422C295.183 65.422 294.869 65.506 294.585 65.674C294.305 65.838 294.081 66.062 293.913 66.346C293.745 66.63 293.661 66.944 293.661 67.288C293.661 67.628 293.743 67.94 293.907 68.224C294.075 68.504 294.299 68.728 294.579 68.896C294.863 69.064 295.177 69.148 295.521 69.148Z" fill="#374151"/>
</g>
<path d="M65.98 32V21.92H69.193C69.277 21.92 69.4427 21.9223 69.69 21.927C69.942 21.9317 70.1847 21.948 70.418 21.976C71.216 22.0787 71.8903 22.3633 72.441 22.83C72.9963 23.292 73.4163 23.8823 73.701 24.601C73.9857 25.3197 74.128 26.106 74.128 26.96C74.128 27.814 73.9857 28.6003 73.701 29.319C73.4163 30.0377 72.9963 30.6303 72.441 31.097C71.8903 31.559 71.216 31.8413 70.418 31.944C70.1893 31.972 69.949 31.9883 69.697 31.993C69.445 31.9977 69.277 32 69.193 32H65.98ZM67.695 30.411H69.193C69.333 30.411 69.5103 30.4063 69.725 30.397C69.9443 30.3877 70.138 30.3667 70.306 30.334C70.782 30.2453 71.1693 30.033 71.468 29.697C71.7667 29.361 71.986 28.9527 72.126 28.472C72.2707 27.9913 72.343 27.4873 72.343 26.96C72.343 26.414 72.2707 25.9007 72.126 25.42C71.9813 24.9393 71.7573 24.5357 71.454 24.209C71.1553 23.8823 70.7727 23.6747 70.306 23.586C70.138 23.5487 69.9443 23.5277 69.725 23.523C69.5103 23.5137 69.333 23.509 69.193 23.509H67.695V30.411ZM79.2197 32.21C78.4544 32.21 77.7824 32.0443 77.2037 31.713C76.6251 31.3817 76.1724 30.922 75.8457 30.334C75.5237 29.746 75.3627 29.0693 75.3627 28.304C75.3627 27.478 75.5214 26.7617 75.8387 26.155C76.1561 25.5437 76.5971 25.07 77.1617 24.734C77.7264 24.398 78.3797 24.23 79.1217 24.23C79.9057 24.23 80.5707 24.4143 81.1167 24.783C81.6674 25.147 82.0757 25.6627 82.3417 26.33C82.6077 26.9973 82.7081 27.7837 82.6427 28.689H80.9697V28.073C80.9651 27.2517 80.8204 26.652 80.5357 26.274C80.2511 25.896 79.8031 25.707 79.1917 25.707C78.5011 25.707 77.9877 25.9217 77.6517 26.351C77.3157 26.7757 77.1477 27.3987 77.1477 28.22C77.1477 28.9853 77.3157 29.578 77.6517 29.998C77.9877 30.418 78.4777 30.628 79.1217 30.628C79.5371 30.628 79.8941 30.537 80.1927 30.355C80.4961 30.1683 80.7294 29.9 80.8927 29.55L82.5587 30.054C82.2694 30.7353 81.8214 31.265 81.2147 31.643C80.6127 32.021 79.9477 32.21 79.2197 32.21ZM76.6157 28.689V27.415H81.8167V28.689H76.6157ZM84.3446 32V21.71H86.0316V32H84.3446ZM88.2684 23.292V21.745H89.9554V23.292H88.2684ZM88.2684 32V24.44H89.9554V32H88.2684ZM94.0963 32L91.3523 24.44H93.0393L94.9433 29.921L96.8403 24.44H98.5343L95.7903 32H94.0963ZM102.954 32.21C102.189 32.21 101.517 32.0443 100.938 31.713C100.359 31.3817 99.9068 30.922 99.5801 30.334C99.2581 29.746 99.0971 29.0693 99.0971 28.304C99.0971 27.478 99.2558 26.7617 99.5731 26.155C99.8904 25.5437 100.331 25.07 100.896 24.734C101.461 24.398 102.114 24.23 102.856 24.23C103.64 24.23 104.305 24.4143 104.851 24.783C105.402 25.147 105.81 25.6627 106.076 26.33C106.342 26.9973 106.442 27.7837 106.377 28.689H104.704V28.073C104.699 27.2517 104.555 26.652 104.27 26.274C103.985 25.896 103.537 25.707 102.926 25.707C102.235 25.707 101.722 25.9217 101.386 26.351C101.05 26.7757 100.882 27.3987 100.882 28.22C100.882 28.9853 101.05 29.578 101.386 29.998C101.722 30.418 102.212 30.628 102.856 30.628C103.271 30.628 103.628 30.537 103.927 30.355C104.23 30.1683 104.464 29.9 104.627 29.55L106.293 30.054C106.004 30.7353 105.556 31.265 104.949 31.643C104.347 32.021 103.682 32.21 102.954 32.21ZM100.35 28.689V27.415H105.551V28.689H100.35ZM107.939 32V24.44H109.43V26.281L109.248 26.043C109.341 25.791 109.465 25.5623 109.619 25.357C109.778 25.147 109.967 24.9743 110.186 24.839C110.373 24.713 110.578 24.615 110.802 24.545C111.031 24.4703 111.264 24.426 111.502 24.412C111.74 24.3933 111.971 24.4027 112.195 24.44V26.015C111.971 25.9497 111.712 25.9287 111.418 25.952C111.129 25.9753 110.867 26.057 110.634 26.197C110.401 26.323 110.209 26.484 110.06 26.68C109.915 26.876 109.808 27.1 109.738 27.352C109.668 27.5993 109.633 27.8677 109.633 28.157V32H107.939ZM114.292 35.36L115.748 31.363L115.776 32.539L112.479 24.44H114.236L116.574 30.432H116.126L118.401 24.44H120.088L115.874 35.36H114.292ZM126.357 32V23.502H123.095V21.92H131.306V23.502H128.044V32H126.357ZM132.435 35.36L133.891 31.363L133.919 32.539L130.622 24.44H132.379L134.717 30.432H134.269L136.544 24.44H138.231L134.017 35.36H132.435ZM142.908 32.21C142.171 32.21 141.552 32.035 141.053 31.685C140.554 31.335 140.178 30.859 139.926 30.257C139.674 29.6503 139.548 28.9713 139.548 28.22C139.548 27.4593 139.674 26.778 139.926 26.176C140.178 25.574 140.547 25.1003 141.032 24.755C141.522 24.405 142.126 24.23 142.845 24.23C143.559 24.23 144.177 24.405 144.7 24.755C145.227 25.1003 145.636 25.574 145.925 26.176C146.214 26.7733 146.359 27.4547 146.359 28.22C146.359 28.976 146.217 29.655 145.932 30.257C145.647 30.859 145.246 31.335 144.728 31.685C144.21 32.035 143.603 32.21 142.908 32.21ZM139.261 35.36V24.44H140.752V29.746H140.962V35.36H139.261ZM142.649 30.698C143.088 30.698 143.449 30.5883 143.734 30.369C144.019 30.1497 144.229 29.8533 144.364 29.48C144.504 29.102 144.574 28.682 144.574 28.22C144.574 27.7627 144.504 27.3473 144.364 26.974C144.224 26.596 144.007 26.2973 143.713 26.078C143.419 25.854 143.046 25.742 142.593 25.742C142.164 25.742 141.814 25.847 141.543 26.057C141.272 26.2623 141.072 26.5517 140.941 26.925C140.815 27.2937 140.752 27.7253 140.752 28.22C140.752 28.71 140.815 29.1417 140.941 29.515C141.072 29.8883 141.275 30.18 141.55 30.39C141.83 30.5953 142.196 30.698 142.649 30.698ZM151.339 32.21C150.574 32.21 149.902 32.0443 149.323 31.713C148.744 31.3817 148.292 30.922 147.965 30.334C147.643 29.746 147.482 29.0693 147.482 28.304C147.482 27.478 147.641 26.7617 147.958 26.155C148.275 25.5437 148.716 25.07 149.281 24.734C149.846 24.398 150.499 24.23 151.241 24.23C152.025 24.23 152.69 24.4143 153.236 24.783C153.787 25.147 154.195 25.6627 154.461 26.33C154.727 26.9973 154.827 27.7837 154.762 28.689H153.089V28.073C153.084 27.2517 152.94 26.652 152.655 26.274C152.37 25.896 151.922 25.707 151.311 25.707C150.62 25.707 150.107 25.9217 149.771 26.351C149.435 26.7757 149.267 27.3987 149.267 28.22C149.267 28.9853 149.435 29.578 149.771 29.998C150.107 30.418 150.597 30.628 151.241 30.628C151.656 30.628 152.013 30.537 152.312 30.355C152.615 30.1683 152.849 29.9 153.012 29.55L154.678 30.054C154.389 30.7353 153.941 31.265 153.334 31.643C152.732 32.021 152.067 32.21 151.339 32.21ZM148.735 28.689V27.415H153.936V28.689H148.735Z" fill="#3C3C3F"/>
<rect x="23" y="14" width="33" height="33" rx="3" fill="#EAF6F5"/>
<path d="M45.1364 35.7812C45.7777 35.7812 46.2955 35.2369 46.2955 34.5625C46.2955 33.8881 45.7777 33.3438 45.1364 33.3438C44.495 33.3438 43.9773 33.8881 43.9773 34.5625C43.9773 35.2369 44.495 35.7812 45.1364 35.7812ZM46.2955 28.4688H44.3636V30.5H47.81L46.2955 28.4688ZM35.8636 35.7812C36.505 35.7812 37.0227 35.2369 37.0227 34.5625C37.0227 33.8881 36.505 33.3438 35.8636 33.3438C35.2223 33.3438 34.7045 33.8881 34.7045 34.5625C34.7045 35.2369 35.2223 35.7812 35.8636 35.7812ZM46.6818 27.25L49 30.5V34.5625H47.4545C47.4545 35.9112 46.4191 37 45.1364 37C43.8536 37 42.8182 35.9112 42.8182 34.5625H38.1818C38.1818 35.9112 37.1464 37 35.8636 37C34.5809 37 33.5455 35.9112 33.5455 34.5625H32V25.625C32 24.7231 32.6877 24 33.5455 24H44.3636V27.25H46.6818ZM33.5455 25.625V32.9375H34.1327C34.5577 32.4419 35.1759 32.125 35.8636 32.125C36.5514 32.125 37.1695 32.4419 37.5945 32.9375H42.8182V25.625H33.5455ZM38.9545 26.4375L41.6591 29.2812L38.9545 32.125V30.0938H35.0909V28.4688H38.9545V26.4375Z" fill="#27544F"/>
<defs>
<filter id="filter0_d_204_83" x="0" y="0.5" width="350" height="91" filterUnits="userSpaceOnUse" color-interpolation-filters="sRGB">
<feFlood flood-opacity="0" result="BackgroundImageFix"/>
<feColorMatrix in="SourceAlpha" type="matrix" values="0 0 0 0 0 0 0 0 0 0 0 0 0 0 0 0 0 0 127 0" result="hardAlpha"/>
<feOffset dy="1.5"/>
<feGaussianBlur stdDeviation="2"/>
<feComposite in2="hardAlpha" operator="out"/>
<feColorMatrix type="matrix" values="0 0 0 0 0 0 0 0 0 0 0 0 0 0 0 0 0 0 0.25 0"/>
<feBlend mode="normal" in2="BackgroundImageFix" result="effect1_dropShadow_204_83"/>
<feBlend mode="normal" in="SourceGraphic" in2="effect1_dropShadow_204_83" result="shape"/>
</filter>
</defs>
</svg>
