<svg width="375" height="55" viewBox="0 0 375 55" fill="none" xmlns="http://www.w3.org/2000/svg">
<g filter="url(#filter0_d_2_170)">
<rect x="-5" y="6" width="386" height="45" fill="white"/>
<rect x="-4.5" y="6.5" width="385" height="44" stroke="#F9F9F9"/>
</g>
<path d="M230.21 26.1809L232.14 30.3958L234.07 26.1809H236.145L233.105 32.0588V35.4231H231.175V32.0588L228.128 26.1809H230.21ZM236.164 32.0588V31.9255C236.164 31.422 236.236 30.9586 236.38 30.5354C236.524 30.108 236.733 29.7377 237.009 29.4246C237.284 29.1114 237.622 28.8681 238.024 28.6946C238.426 28.5168 238.887 28.428 239.408 28.428C239.928 28.428 240.392 28.5168 240.798 28.6946C241.204 28.8681 241.545 29.1114 241.82 29.4246C242.099 29.7377 242.311 30.108 242.455 30.5354C242.599 30.9586 242.671 31.422 242.671 31.9255V32.0588C242.671 32.5582 242.599 33.0216 242.455 33.449C242.311 33.8722 242.099 34.2424 241.82 34.5598C241.545 34.873 241.206 35.1163 240.804 35.2898C240.402 35.4633 239.941 35.55 239.421 35.55C238.9 35.55 238.437 35.4633 238.031 35.2898C237.628 35.1163 237.288 34.873 237.009 34.5598C236.733 34.2424 236.524 33.8722 236.38 33.449C236.236 33.0216 236.164 32.5582 236.164 32.0588ZM237.992 31.9255V32.0588C237.992 32.3466 238.018 32.6153 238.069 32.865C238.119 33.1147 238.2 33.3347 238.31 33.5251C238.424 33.7113 238.572 33.8573 238.754 33.9631C238.936 34.0689 239.158 34.1218 239.421 34.1218C239.675 34.1218 239.892 34.0689 240.074 33.9631C240.256 33.8573 240.402 33.7113 240.512 33.5251C240.622 33.3347 240.703 33.1147 240.754 32.865C240.809 32.6153 240.836 32.3466 240.836 32.0588V31.9255C240.836 31.6462 240.809 31.3839 240.754 31.1384C240.703 30.8888 240.62 30.6687 240.506 30.4783C240.396 30.2836 240.25 30.1313 240.068 30.0212C239.886 29.9112 239.666 29.8562 239.408 29.8562C239.15 29.8562 238.93 29.9112 238.748 30.0212C238.57 30.1313 238.424 30.2836 238.31 30.4783C238.2 30.6687 238.119 30.8888 238.069 31.1384C238.018 31.3839 237.992 31.6462 237.992 31.9255ZM247.857 33.7791V28.5549H249.685V35.4231H247.965L247.857 33.7791ZM248.06 32.3699L248.599 32.3572C248.599 32.8142 248.546 33.2395 248.441 33.6331C248.335 34.0224 248.176 34.3609 247.965 34.6487C247.753 34.9322 247.486 35.1544 247.165 35.3152C246.843 35.4718 246.464 35.55 246.029 35.55C245.694 35.55 245.385 35.5035 245.102 35.4104C244.823 35.3131 244.581 35.1628 244.378 34.9597C244.179 34.7524 244.023 34.4879 243.908 34.1663C243.798 33.8404 243.743 33.449 243.743 32.9919V28.5549H245.572V33.0046C245.572 33.2078 245.595 33.3792 245.641 33.5188C245.692 33.6584 245.762 33.7727 245.851 33.8616C245.94 33.9504 246.043 34.0139 246.162 34.052C246.285 34.0901 246.42 34.1091 246.568 34.1091C246.945 34.1091 247.241 34.033 247.457 33.8806C247.677 33.7283 247.831 33.5209 247.92 33.2585C248.013 32.9919 248.06 32.6957 248.06 32.3699ZM252.909 30.053V35.4231H251.081V28.5549H252.802L252.909 30.053ZM254.979 28.5105L254.947 30.2053C254.858 30.1926 254.75 30.182 254.623 30.1736C254.501 30.1609 254.388 30.1545 254.287 30.1545C254.029 30.1545 253.804 30.1884 253.614 30.2561C253.428 30.3196 253.271 30.4148 253.144 30.5417C253.022 30.6687 252.928 30.8232 252.865 31.0051C252.806 31.1871 252.772 31.3944 252.763 31.6272L252.395 31.5129C252.395 31.0686 252.44 30.6602 252.529 30.2878C252.617 29.9112 252.747 29.5833 252.916 29.304C253.089 29.0247 253.301 28.8088 253.551 28.6565C253.8 28.5042 254.086 28.428 254.407 28.428C254.509 28.428 254.613 28.4364 254.719 28.4534C254.824 28.4661 254.911 28.4851 254.979 28.5105ZM262.812 31.3669H260.438L260.425 30.0593H262.418C262.769 30.0593 263.057 30.0149 263.281 29.926C263.506 29.8329 263.673 29.6996 263.783 29.5261C263.897 29.3484 263.954 29.1326 263.954 28.8787C263.954 28.5909 263.899 28.3582 263.789 28.1804C263.684 28.0027 263.516 27.8736 263.288 27.7932C263.064 27.7128 262.774 27.6726 262.418 27.6726H261.098V35.4231H259.194V26.1809H262.418C262.956 26.1809 263.436 26.2317 263.859 26.3333C264.287 26.4348 264.648 26.5893 264.945 26.7966C265.241 27.004 265.467 27.2664 265.624 27.5837C265.78 27.8969 265.859 28.2693 265.859 28.7009C265.859 29.0818 265.772 29.433 265.598 29.7546C265.429 30.0763 265.16 30.3386 264.792 30.5417C264.428 30.7449 263.952 30.857 263.364 30.8782L262.812 31.3669ZM262.729 35.4231H259.917L260.66 33.9377H262.729C263.064 33.9377 263.337 33.8848 263.548 33.7791C263.76 33.669 263.916 33.5209 264.018 33.3347C264.119 33.1485 264.17 32.9348 264.17 32.6936C264.17 32.4228 264.124 32.1879 264.031 31.989C263.942 31.7901 263.798 31.6378 263.599 31.532C263.4 31.422 263.138 31.3669 262.812 31.3669H260.977L260.99 30.0593H263.275L263.713 30.5735C264.276 30.565 264.729 30.6645 265.072 30.8718C265.419 31.075 265.67 31.3394 265.827 31.6653C265.988 31.9911 266.068 32.3403 266.068 32.7126C266.068 33.3051 265.939 33.8044 265.681 34.2107C265.423 34.6127 265.044 34.9153 264.545 35.1184C264.05 35.3215 263.444 35.4231 262.729 35.4231ZM269.21 30.053V35.4231H267.382V28.5549H269.102L269.21 30.053ZM271.28 28.5105L271.248 30.2053C271.159 30.1926 271.051 30.182 270.924 30.1736C270.801 30.1609 270.689 30.1545 270.588 30.1545C270.33 30.1545 270.105 30.1884 269.915 30.2561C269.729 30.3196 269.572 30.4148 269.445 30.5417C269.322 30.6687 269.229 30.8232 269.166 31.0051C269.107 31.1871 269.073 31.3944 269.064 31.6272L268.696 31.5129C268.696 31.0686 268.74 30.6602 268.829 30.2878C268.918 29.9112 269.047 29.5833 269.217 29.304C269.39 29.0247 269.602 28.8088 269.851 28.6565C270.101 28.5042 270.387 28.428 270.708 28.428C270.81 28.428 270.913 28.4364 271.019 28.4534C271.125 28.4661 271.212 28.4851 271.28 28.5105ZM275.634 33.8743V30.8147C275.634 30.5946 275.598 30.4063 275.526 30.2498C275.454 30.0889 275.342 29.9641 275.19 29.8752C275.042 29.7864 274.849 29.7419 274.612 29.7419C274.409 29.7419 274.233 29.7779 274.085 29.8499C273.937 29.9176 273.823 30.017 273.742 30.1482C273.662 30.2751 273.622 30.4254 273.622 30.5989H271.794C271.794 30.3069 271.861 30.0297 271.997 29.7673C272.132 29.505 272.329 29.2743 272.587 29.0754C272.845 28.8723 273.152 28.7136 273.508 28.5994C273.867 28.4851 274.269 28.428 274.714 28.428C275.247 28.428 275.721 28.5168 276.135 28.6946C276.55 28.8723 276.876 29.1389 277.113 29.4944C277.354 29.8499 277.475 30.2942 277.475 30.8274V33.7664C277.475 34.143 277.498 34.4519 277.545 34.6931C277.591 34.9301 277.659 35.1375 277.748 35.3152V35.4231H275.901C275.812 35.2369 275.744 35.0042 275.698 34.7249C275.655 34.4413 275.634 34.1578 275.634 33.8743ZM275.875 31.24L275.888 32.2747H274.866C274.625 32.2747 274.415 32.3022 274.238 32.3572C274.06 32.4122 273.914 32.4905 273.8 32.592C273.685 32.6894 273.601 32.8036 273.546 32.9348C273.495 33.066 273.469 33.2099 273.469 33.3665C273.469 33.523 273.505 33.6648 273.577 33.7917C273.649 33.9145 273.753 34.0118 273.888 34.0837C274.024 34.1514 274.183 34.1853 274.365 34.1853C274.64 34.1853 274.879 34.1303 275.082 34.0203C275.285 33.9102 275.441 33.7748 275.552 33.614C275.666 33.4532 275.725 33.3009 275.729 33.157L276.212 33.9314C276.144 34.1049 276.051 34.2847 275.932 34.4709C275.818 34.6571 275.672 34.8328 275.494 34.9978C275.317 35.1586 275.103 35.2919 274.853 35.3977C274.604 35.4993 274.307 35.55 273.965 35.55C273.529 35.55 273.133 35.4633 272.778 35.2898C272.426 35.1121 272.147 34.8687 271.94 34.5598C271.737 34.2467 271.635 33.8912 271.635 33.4934C271.635 33.1337 271.703 32.8142 271.838 32.5349C271.974 32.2556 272.172 32.0208 272.435 31.8303C272.701 31.6357 273.034 31.4897 273.431 31.3923C273.829 31.2908 274.29 31.24 274.815 31.24H275.875ZM280.674 30.0212V35.4231H278.846V28.5549H280.56L280.674 30.0212ZM280.407 31.7478H279.912C279.912 31.24 279.978 30.783 280.109 30.3767C280.24 29.9662 280.424 29.6171 280.661 29.3293C280.898 29.0374 281.18 28.8152 281.506 28.6628C281.836 28.5063 282.204 28.428 282.61 28.428C282.932 28.428 283.226 28.4745 283.492 28.5676C283.759 28.6607 283.988 28.8088 284.178 29.012C284.373 29.2151 284.521 29.4838 284.622 29.8181C284.728 30.1524 284.781 30.5608 284.781 31.0432V35.4231H282.94V31.0369C282.94 30.7322 282.898 30.4952 282.813 30.3259C282.729 30.1567 282.604 30.0382 282.439 29.9705C282.278 29.8985 282.079 29.8625 281.842 29.8625C281.597 29.8625 281.383 29.9112 281.201 30.0085C281.023 30.1059 280.875 30.2413 280.757 30.4148C280.642 30.5841 280.556 30.783 280.496 31.0115C280.437 31.24 280.407 31.4854 280.407 31.7478ZM290.227 33.925V25.6731H292.068V35.4231H290.411L290.227 33.925ZM285.885 32.0715V31.9382C285.885 31.4135 285.945 30.9374 286.063 30.51C286.182 30.0784 286.355 29.7081 286.584 29.3992C286.812 29.0903 287.094 28.8512 287.428 28.6819C287.762 28.5126 288.143 28.428 288.571 28.428C288.973 28.428 289.324 28.5126 289.624 28.6819C289.929 28.8512 290.187 29.0924 290.399 29.4055C290.615 29.7144 290.788 30.0805 290.919 30.5037C291.05 30.9226 291.146 31.3818 291.205 31.8811V32.1731C291.146 32.6513 291.05 33.0956 290.919 33.5061C290.788 33.9166 290.615 34.2763 290.399 34.5852C290.187 34.8899 289.929 35.1269 289.624 35.2961C289.32 35.4654 288.964 35.55 288.558 35.55C288.13 35.55 287.75 35.4633 287.415 35.2898C287.085 35.1163 286.806 34.873 286.577 34.5598C286.353 34.2467 286.182 33.8785 286.063 33.4553C285.945 33.0321 285.885 32.5709 285.885 32.0715ZM287.714 31.9382V32.0715C287.714 32.3551 287.735 32.6195 287.777 32.865C287.824 33.1104 287.898 33.3284 287.999 33.5188C288.105 33.705 288.24 33.851 288.406 33.9568C288.575 34.0583 288.78 34.1091 289.021 34.1091C289.334 34.1091 289.593 34.0393 289.796 33.8997C289.999 33.7558 290.153 33.559 290.259 33.3093C290.369 33.0597 290.433 32.7719 290.449 32.446V31.6145C290.437 31.3479 290.399 31.1088 290.335 30.8972C290.276 30.6814 290.187 30.4973 290.069 30.345C289.954 30.1926 289.81 30.0741 289.637 29.9895C289.468 29.9049 289.267 29.8625 289.034 29.8625C288.797 29.8625 288.594 29.9176 288.425 30.0276C288.255 30.1334 288.118 30.2794 288.012 30.4656C287.91 30.6518 287.834 30.8718 287.783 31.1257C287.737 31.3754 287.714 31.6462 287.714 31.9382Z" fill="#111111"/>
<path d="M120.813 26.3948V34.9272H119.498V27.7234H118V26.3948H120.813Z" fill="#010101"/>
<path d="M122.5 30.9456H125.876V32.0832H122.5V30.9456Z" fill="#010101"/>
<path d="M128.676 34.5301C128.164 34.2753 127.736 33.8875 127.444 33.4113C127.153 32.9181 127.001 32.3618 127.001 31.7959C127.001 31.2301 127.153 30.6737 127.444 30.1806C127.737 29.7094 128.162 29.3254 128.67 29.0713C129.223 28.7976 129.838 28.66 130.46 28.671C131.035 28.6587 131.605 28.7845 132.117 29.0369C132.581 29.2697 132.956 29.6366 133.188 30.0853L132.039 30.7257C131.873 30.4594 131.636 30.2403 131.351 30.091C130.982 29.9098 130.564 29.8423 130.153 29.8976C129.742 29.9528 129.36 30.1283 129.057 30.3998C128.69 30.7467 128.507 31.2098 128.507 31.7893C128.507 32.3687 128.688 32.8319 129.051 33.1788C129.354 33.4491 129.737 33.6238 130.147 33.6791C130.558 33.7343 130.976 33.6674 131.345 33.4875C131.63 33.3382 131.867 33.1191 132.033 32.8528L133.188 33.5009C132.948 33.9493 132.57 34.317 132.105 34.5549C131.599 34.8101 131.032 34.938 130.46 34.9266C129.84 34.9374 129.227 34.8012 128.676 34.5301Z" fill="#010101"/>
<path d="M134.313 25.826H136.001V34.9273H134.313V25.826Z" fill="#010101"/>
<path d="M137.931 27.3413C137.854 27.2601 137.793 27.1623 137.751 27.0539C137.71 26.9455 137.688 26.8287 137.688 26.7107C137.688 26.5926 137.71 26.4759 137.751 26.3674C137.793 26.259 137.854 26.1612 137.931 26.08C138.093 25.9104 138.309 25.8194 138.532 25.8265C138.752 25.8189 138.967 25.9053 139.133 26.0682C139.211 26.1431 139.273 26.2364 139.315 26.3413C139.357 26.4463 139.378 26.5604 139.376 26.6753C139.378 26.7967 139.359 26.9175 139.318 27.03C139.277 27.1426 139.216 27.2446 139.138 27.3296C139.059 27.4177 138.964 27.4867 138.86 27.5323C138.755 27.5779 138.644 27.5992 138.532 27.5948C138.309 27.6019 138.093 27.5109 137.931 27.3413ZM137.867 28.6302H139.186V34.9273H137.867V28.6302Z" fill="#010101"/>
<path d="M142.176 34.53C141.664 34.2751 141.236 33.8874 140.944 33.4112C140.653 32.918 140.501 32.3617 140.501 31.7958C140.501 31.2299 140.653 30.6736 140.944 30.1804C141.237 29.7093 141.662 29.3252 142.17 29.0711C142.723 28.7975 143.338 28.6599 143.96 28.6709C144.535 28.6586 145.105 28.7844 145.617 29.0368C146.081 29.2696 146.456 29.6365 146.688 30.0851L145.542 30.7332C145.376 30.4669 145.139 30.2478 144.854 30.0985C144.485 29.9173 144.067 29.8498 143.656 29.9051C143.245 29.9603 142.863 30.1358 142.56 30.4073C142.193 30.7542 142.01 31.2173 142.01 31.7968C142.01 32.3762 142.19 32.8394 142.55 33.1863C142.853 33.4566 143.236 33.6313 143.646 33.6866C144.057 33.7418 144.475 33.6749 144.844 33.495C145.129 33.3457 145.366 33.1266 145.532 32.8603L146.681 33.5008C146.443 33.9482 146.067 34.3158 145.605 34.5548C145.099 34.81 144.532 34.9379 143.96 34.9265C143.34 34.9373 142.727 34.801 142.176 34.53Z" fill="#010101"/>
<path d="M150.243 32.1172L149.207 33.1971V34.9273H147.814V25.826H149.207V31.3236L152.095 28.3724H153.767L151.282 31.1232L154.001 34.9273H152.307L150.243 32.1172Z" fill="#010101"/>
<path d="M159.489 34.5309C159.012 34.2718 158.618 33.8847 158.352 33.4138C158.073 32.9193 157.93 32.3604 157.939 31.7937C157.93 31.2289 158.072 30.6717 158.352 30.1795C158.619 29.7112 159.013 29.3263 159.489 29.0682C159.994 28.7978 160.56 28.6608 161.134 28.6705C161.629 28.6619 162.12 28.768 162.566 28.9805C162.98 29.181 163.326 29.4958 163.564 29.8871L162.936 30.3082C162.743 30.0155 162.473 29.7798 162.157 29.6258C161.837 29.4725 161.486 29.3945 161.131 29.3977C160.709 29.3913 160.292 29.4941 159.923 29.696C159.567 29.8927 159.276 30.1872 159.085 30.5441C158.888 30.9332 158.785 31.3629 158.785 31.7986C158.785 32.2344 158.888 32.664 159.085 33.0532C159.278 33.4075 159.568 33.6997 159.923 33.8954C160.292 34.0973 160.709 34.2001 161.131 34.1936C161.485 34.197 161.836 34.121 162.157 33.9714C162.475 33.8193 162.744 33.5832 162.936 33.289L163.561 33.7102C163.322 34.1025 162.974 34.4175 162.559 34.6167C162.113 34.8279 161.625 34.934 161.131 34.9267C160.559 34.9365 159.993 34.8002 159.489 34.5309Z" fill="#E71583"/>
<path d="M169.636 29.1291C170.088 29.5995 170.314 30.2847 170.314 31.1846V34.9273H169.488V31.2705C169.488 30.5996 169.329 30.0883 169.012 29.7365C168.694 29.3848 168.242 29.2089 167.655 29.2089C166.996 29.2089 166.475 29.4154 166.092 29.8286C165.708 30.2417 165.515 30.813 165.514 31.5425V34.9273H164.689V25.826H165.514V29.6097C165.74 29.2324 166.062 28.9303 166.444 28.7385C166.868 28.5277 167.332 28.4227 167.801 28.4317C168.571 28.4262 169.182 28.6587 169.636 29.1291Z" fill="#E71583"/>
<path d="M178.178 32.05H172.86C172.873 32.3444 172.947 32.6333 173.078 32.8995C173.209 33.1657 173.394 33.4037 173.622 33.5994C174.081 33.9931 174.661 34.1899 175.362 34.1899C175.735 34.194 176.106 34.1244 176.45 33.9853C176.779 33.8496 177.073 33.6438 177.308 33.3831L177.792 33.921C177.507 34.2501 177.144 34.507 176.734 34.6694C176.291 34.8446 175.816 34.9321 175.338 34.9266C174.734 34.9382 174.136 34.7993 173.604 34.5232C173.111 34.2645 172.703 33.8777 172.425 33.4065C172.139 32.9144 171.993 32.3574 172.002 31.7927C171.992 31.2304 172.13 30.6749 172.405 30.179C172.661 29.7167 173.044 29.3322 173.513 29.0681C173.996 28.8 174.545 28.6627 175.102 28.6705C175.658 28.6622 176.205 28.7996 176.686 29.0681C177.151 29.331 177.532 29.7135 177.786 30.1732C178.06 30.671 178.199 31.2285 178.189 31.7927L178.178 32.05ZM173.567 29.951C173.148 30.3403 172.896 30.8687 172.862 31.4302H177.371C177.337 30.8687 177.085 30.3403 176.666 29.951C176.239 29.5856 175.688 29.3839 175.118 29.3839C174.548 29.3839 173.998 29.5856 173.571 29.951H173.567Z" fill="#E71583"/>
<path d="M180.865 34.529C180.387 34.2702 179.993 33.8832 179.728 33.4123C179.448 32.9182 179.306 32.3594 179.314 31.7927C179.305 31.2279 179.448 30.6708 179.728 30.179C179.995 29.7106 180.389 29.3258 180.865 29.0681C181.369 28.7977 181.935 28.6608 182.508 28.6705C183.003 28.6619 183.493 28.768 183.94 28.9804C184.355 29.1805 184.702 29.496 184.939 29.8886L184.315 30.3096C184.122 30.0168 183.853 29.7811 183.537 29.6275C183.218 29.4742 182.867 29.3962 182.512 29.3994C182.09 29.393 181.674 29.4957 181.304 29.6976C180.949 29.894 180.658 30.1885 180.468 30.5454C180.27 30.9344 180.168 31.3639 180.168 31.7996C180.168 32.2352 180.27 32.6647 180.468 33.0537C180.66 33.4081 180.95 33.7004 181.304 33.8956C181.674 34.0975 182.09 34.2003 182.512 34.1938C182.866 34.1972 183.217 34.1212 183.537 33.9716C183.855 33.8199 184.124 33.5838 184.315 33.2895L184.939 33.7105C184.701 34.1029 184.353 34.4179 183.938 34.6167C183.493 34.8279 183.005 34.934 182.512 34.9266C181.938 34.937 181.37 34.8001 180.865 34.529Z" fill="#E71583"/>
<path d="M188.283 31.6877L186.872 33.0866V34.9273H186.064V25.826H186.872V31.9986L190.445 28.4746H191.447L188.886 31.113L191.69 34.9273H190.7L188.283 31.6877Z" fill="#E71583"/>
<path d="M193.767 34.5218C193.303 34.2595 192.919 33.8733 192.656 33.4053C192.391 32.9099 192.252 32.3553 192.252 31.7918C192.252 31.2283 192.391 30.6737 192.656 30.1783C192.918 29.7111 193.302 29.3266 193.767 29.0676C194.255 28.8065 194.799 28.67 195.351 28.67C195.903 28.67 196.447 28.8065 196.935 29.0676C197.4 29.3264 197.782 29.712 198.04 30.1803C198.302 30.6768 198.439 31.231 198.439 31.7937C198.439 32.3565 198.302 32.9106 198.04 33.4072C197.782 33.8755 197.399 34.262 196.936 34.5238C196.449 34.7886 195.905 34.9272 195.352 34.9272C194.799 34.9272 194.255 34.7886 193.768 34.5238L193.767 34.5218ZM196.513 33.8905C196.856 33.6919 197.135 33.3976 197.317 33.0428C197.507 32.6538 197.606 32.2257 197.606 31.7918C197.606 31.3579 197.507 30.9298 197.317 30.5408C197.135 30.186 196.856 29.8917 196.513 29.6931C196.157 29.4975 195.757 29.395 195.351 29.395C194.945 29.395 194.546 29.4975 194.189 29.6931C193.846 29.8925 193.565 30.1865 193.38 30.5408C193.186 30.9287 193.085 31.3572 193.085 31.7918C193.085 32.2264 193.186 32.6549 193.38 33.0428C193.565 33.3971 193.846 33.6911 194.189 33.8905C194.546 34.0861 194.945 34.1886 195.351 34.1886C195.757 34.1886 196.157 34.0861 196.513 33.8905Z" fill="#E71583"/>
<path d="M205.752 28.6702V34.8679H204.953V33.7364C204.739 34.1082 204.426 34.4124 204.049 34.6145C203.643 34.828 203.191 34.9354 202.734 34.9268C201.927 34.9268 201.291 34.7009 200.826 34.2491C200.36 33.7973 200.127 33.1353 200.127 32.2631V28.6702H200.961V32.1825C200.961 32.8373 201.121 33.3324 201.442 33.6676C201.763 34.0029 202.22 34.1718 202.812 34.1744C203.464 34.1744 203.977 33.976 204.35 33.5792C204.723 33.1824 204.911 32.6304 204.914 31.9232V28.6702H205.752Z" fill="#E71583"/>
<path d="M211.377 34.5037C211.197 34.6478 210.986 34.7551 210.757 34.8186C210.508 34.8915 210.248 34.9282 209.986 34.9274C209.367 34.9274 208.891 34.7747 208.557 34.4694C208.223 34.1641 208.055 33.7328 208.055 33.1755V29.5344H206.877V28.8493H208.055V27.5326H208.945V28.8493H210.951V29.5363H208.945V33.1316C208.945 33.4904 209.044 33.7633 209.24 33.9503C209.436 34.1373 209.718 34.2308 210.086 34.2308C210.267 34.2313 210.447 34.2042 210.619 34.1507C210.782 34.1015 210.933 34.0237 211.064 33.9217L211.377 34.5037Z" fill="#E71583"/>
<path d="M103.073 19H101.927C95.8923 19 91 23.8923 91 29.9272V31.0728C91 37.1077 95.8923 42 101.927 42H103.073C109.108 42 114 37.1077 114 31.0728V29.9272C114 23.8923 109.108 19 103.073 19Z" fill="#131313"/>
<path d="M102.53 26.3948C101.412 26.3961 100.34 26.8388 99.5497 27.6257C98.7591 28.4127 98.3143 29.4797 98.313 30.5926V36.9594C98.3318 36.9732 98.3516 36.985 98.3714 36.9978C98.745 37.2383 99.1388 37.446 99.5485 37.6186C99.6792 37.6738 99.8099 37.7251 99.9445 37.7714H99.9574V37.7477L99.9475 35.8153L99.9277 35.8055V35.7789L99.9485 35.7887L99.9406 33.9066C100.47 34.3176 101.091 34.5966 101.751 34.7206C102.411 34.8446 103.091 34.8099 103.735 34.6194C104.379 34.4289 104.968 34.0881 105.452 33.6254C105.937 33.1627 106.304 32.5914 106.522 31.9591C106.74 31.3269 106.803 30.6519 106.707 29.9903C106.61 29.3288 106.356 28.6998 105.965 28.1558C105.575 27.6118 105.06 27.1684 104.462 26.8626C103.865 26.5568 103.203 26.3974 102.531 26.3977L102.53 26.3948ZM102.53 33.1843C102.015 33.1843 101.512 33.0323 101.084 32.7475C100.656 32.4627 100.322 32.058 100.125 31.5844C99.9278 31.1109 99.8763 30.5898 99.9767 30.087C100.077 29.5843 100.325 29.1225 100.689 28.7601C101.053 28.3976 101.517 28.1508 102.022 28.0508C102.528 27.9508 103.051 28.0021 103.527 28.1983C104.003 28.3944 104.409 28.7266 104.695 29.1528C104.981 29.579 105.134 30.0801 105.134 30.5926C105.133 31.2797 104.859 31.9385 104.371 32.4243C103.883 32.9102 103.221 33.1835 102.53 33.1843Z" fill="#E63081"/>
<path d="M107.298 36.1202H109.885V37.8929H102.496C102.314 37.8929 102.133 37.8862 101.953 37.8738C101.87 37.8671 101.788 37.8604 101.705 37.8509H101.686C101.115 37.7899 100.554 37.6618 100.013 37.4691V37.4461L100.005 35.5656V35.5398C101.267 36.1667 102.718 36.2981 104.072 35.9081C105.426 35.5181 106.584 34.6351 107.319 33.4332C108.054 32.2313 108.311 30.7977 108.041 29.4153C107.77 28.0329 106.992 26.8019 105.858 25.9652C104.725 25.1285 103.319 24.7469 101.918 24.8955C100.517 25.0441 99.2225 25.7122 98.2899 26.768C97.3573 27.8239 96.8542 29.1908 96.88 30.5992C96.9058 32.0075 97.4585 33.3551 98.4291 34.3762V36.6767C97.2123 35.8717 96.2603 34.7254 95.6927 33.3815C95.1694 32.1464 94.9922 30.7923 95.1799 29.4642C95.3677 28.1361 95.9133 26.8842 96.7584 25.8425C97.6035 24.8008 98.7162 24.0086 99.9772 23.5509C101.238 23.0932 102.6 22.9871 103.917 23.2441C105.233 23.5012 106.455 24.1115 107.451 25.0099C108.448 25.9082 109.181 27.0606 109.572 28.3436C109.963 29.6266 109.997 30.9919 109.672 32.293C109.346 33.5942 108.672 34.7822 107.723 35.7298C107.584 35.8663 107.443 35.9961 107.298 36.1202Z" fill="#FDECF3"/>
<path d="M217.835 35.4973L219.845 32.2028L217.816 28.9828H218.942L220.478 31.4211L221.911 28.9828H223.019L220.999 32.2494L223.047 35.4973H221.921L220.376 33.0404L218.942 35.4973H217.835Z" fill="black"/>
<defs>
<filter id="filter0_d_2_170" x="-10" y="0" width="396" height="55" filterUnits="userSpaceOnUse" color-interpolation-filters="sRGB">
<feFlood flood-opacity="0" result="BackgroundImageFix"/>
<feColorMatrix in="SourceAlpha" type="matrix" values="0 0 0 0 0 0 0 0 0 0 0 0 0 0 0 0 0 0 127 0" result="hardAlpha"/>
<feMorphology radius="2" operator="dilate" in="SourceAlpha" result="effect1_dropShadow_2_170"/>
<feOffset dy="-1"/>
<feGaussianBlur stdDeviation="1.5"/>
<feComposite in2="hardAlpha" operator="out"/>
<feColorMatrix type="matrix" values="0 0 0 0 0 0 0 0 0 0 0 0 0 0 0 0 0 0 0.15 0"/>
<feBlend mode="normal" in2="BackgroundImageFix" result="effect1_dropShadow_2_170"/>
<feBlend mode="normal" in="SourceGraphic" in2="effect1_dropShadow_2_170" result="shape"/>
</filter>
</defs>
</svg>
