<svg width="280" height="25" viewBox="0 0 280 25" fill="none" xmlns="http://www.w3.org/2000/svg">
<path d="M19.98 21V10.92H23.872C23.97 10.92 24.0797 10.9247 24.201 10.934C24.327 10.9387 24.453 10.9527 24.579 10.976C25.1063 11.0553 25.552 11.2397 25.916 11.529C26.2847 11.8137 26.5623 12.173 26.749 12.607C26.9403 13.041 27.036 13.5217 27.036 14.049C27.036 14.8097 26.8353 15.47 26.434 16.03C26.0327 16.59 25.4587 16.9423 24.712 17.087L24.355 17.171H21.009V21H19.98ZM26.084 21L24.096 16.898L25.083 16.52L27.267 21H26.084ZM21.009 16.191H23.844C23.928 16.191 24.026 16.1863 24.138 16.177C24.25 16.1677 24.3597 16.1513 24.467 16.128C24.8123 16.0533 25.0947 15.911 25.314 15.701C25.538 15.491 25.7037 15.2413 25.811 14.952C25.923 14.6627 25.979 14.3617 25.979 14.049C25.979 13.7363 25.923 13.4353 25.811 13.146C25.7037 12.852 25.538 12.6 25.314 12.39C25.0947 12.18 24.8123 12.0377 24.467 11.963C24.3597 11.9397 24.25 11.9257 24.138 11.921C24.026 11.9117 23.928 11.907 23.844 11.907H21.009V16.191ZM32.011 21.21C31.2737 21.21 30.6344 21.0467 30.093 20.72C29.5564 20.3933 29.1387 19.9337 28.84 19.341C28.5414 18.7483 28.392 18.053 28.392 17.255C28.392 16.429 28.539 15.715 28.833 15.113C29.127 14.511 29.54 14.0467 30.072 13.72C30.6087 13.3933 31.241 13.23 31.969 13.23C32.7157 13.23 33.3527 13.4027 33.88 13.748C34.4074 14.0887 34.8064 14.5787 35.077 15.218C35.3477 15.8573 35.4714 16.6203 35.448 17.507H34.398V17.143C34.3794 16.163 34.167 15.4233 33.761 14.924C33.3597 14.4247 32.7717 14.175 31.997 14.175C31.185 14.175 30.562 14.4387 30.128 14.966C29.6987 15.4933 29.484 16.2447 29.484 17.22C29.484 18.172 29.6987 18.9117 30.128 19.439C30.562 19.9617 31.1757 20.223 31.969 20.223C32.5104 20.223 32.9817 20.0993 33.383 19.852C33.789 19.6 34.1087 19.2383 34.342 18.767L35.301 19.138C35.0024 19.796 34.5614 20.307 33.978 20.671C33.3994 21.0303 32.7437 21.21 32.011 21.21ZM29.12 17.507V16.646H34.895V17.507H29.12ZM45.8124 21L45.8194 16.037C45.8194 15.4537 45.6561 14.9963 45.3294 14.665C45.0074 14.329 44.5967 14.161 44.0974 14.161C43.8127 14.161 43.5351 14.2263 43.2644 14.357C42.9937 14.4877 42.7697 14.6977 42.5924 14.987C42.4197 15.2763 42.3334 15.6543 42.3334 16.121L41.7244 15.946C41.7104 15.4047 41.8154 14.931 42.0394 14.525C42.2681 14.119 42.5807 13.804 42.9774 13.58C43.3787 13.3513 43.8314 13.237 44.3354 13.237C45.0961 13.237 45.7051 13.4727 46.1624 13.944C46.6197 14.4107 46.8484 15.043 46.8484 15.841L46.8414 21H45.8124ZM36.7894 21V13.44H37.7134V15.302H37.8254V21H36.7894ZM41.3114 21L41.3184 16.107C41.3184 15.505 41.1574 15.0313 40.8354 14.686C40.5181 14.336 40.0981 14.161 39.5754 14.161C39.0527 14.161 38.6304 14.3407 38.3084 14.7C37.9864 15.0547 37.8254 15.5283 37.8254 16.121L37.2094 15.785C37.2094 15.2997 37.3237 14.8657 37.5524 14.483C37.7811 14.0957 38.0937 13.7923 38.4904 13.573C38.8871 13.349 39.3374 13.237 39.8414 13.237C40.3221 13.237 40.7491 13.3397 41.1224 13.545C41.5004 13.7503 41.7967 14.049 42.0114 14.441C42.2261 14.833 42.3334 15.309 42.3334 15.869L42.3264 21H41.3114ZM51.7796 21.21C51.0282 21.21 50.3866 21.0397 49.8546 20.699C49.3226 20.3583 48.9142 19.887 48.6296 19.285C48.3449 18.683 48.2026 17.9923 48.2026 17.213C48.2026 16.4197 48.3472 15.7243 48.6366 15.127C48.9259 14.5297 49.3366 14.0653 49.8686 13.734C50.4052 13.398 51.0422 13.23 51.7796 13.23C52.5356 13.23 53.1796 13.4003 53.7116 13.741C54.2482 14.077 54.6566 14.546 54.9366 15.148C55.2212 15.7453 55.3636 16.4337 55.3636 17.213C55.3636 18.0063 55.2212 18.704 54.9366 19.306C54.6519 19.9033 54.2412 20.37 53.7046 20.706C53.1679 21.042 52.5262 21.21 51.7796 21.21ZM51.7796 20.223C52.6196 20.223 53.2449 19.9453 53.6556 19.39C54.0662 18.83 54.2716 18.1043 54.2716 17.213C54.2716 16.2983 54.0639 15.5703 53.6486 15.029C53.2379 14.4877 52.6149 14.217 51.7796 14.217C51.2149 14.217 50.7482 14.3453 50.3796 14.602C50.0156 14.854 49.7426 15.2063 49.5606 15.659C49.3832 16.107 49.2946 16.625 49.2946 17.213C49.2946 18.123 49.5046 18.8533 49.9246 19.404C50.3446 19.95 50.9629 20.223 51.7796 20.223ZM58.6783 21L55.9343 13.44H56.9773L59.2103 19.656L61.4293 13.44H62.4863L59.7423 21H58.6783ZM66.6692 21.21C65.9319 21.21 65.2926 21.0467 64.7512 20.72C64.2146 20.3933 63.7969 19.9337 63.4982 19.341C63.1996 18.7483 63.0502 18.053 63.0502 17.255C63.0502 16.429 63.1972 15.715 63.4912 15.113C63.7852 14.511 64.1982 14.0467 64.7302 13.72C65.2669 13.3933 65.8992 13.23 66.6272 13.23C67.3739 13.23 68.0109 13.4027 68.5382 13.748C69.0656 14.0887 69.4646 14.5787 69.7352 15.218C70.0059 15.8573 70.1296 16.6203 70.1062 17.507H69.0562V17.143C69.0376 16.163 68.8252 15.4233 68.4192 14.924C68.0179 14.4247 67.4299 14.175 66.6552 14.175C65.8432 14.175 65.2202 14.4387 64.7862 14.966C64.3569 15.4933 64.1422 16.2447 64.1422 17.22C64.1422 18.172 64.3569 18.9117 64.7862 19.439C65.2202 19.9617 65.8339 20.223 66.6272 20.223C67.1686 20.223 67.6399 20.0993 68.0412 19.852C68.4472 19.6 68.7669 19.2383 69.0002 18.767L69.9592 19.138C69.6606 19.796 69.2196 20.307 68.6362 20.671C68.0576 21.0303 67.4019 21.21 66.6692 21.21ZM63.7782 17.507V16.646H69.5532V17.507H63.7782Z" fill="#EB001B"/>
<path d="M0.888889 20.2222C0.888889 21.2 1.68889 22 2.66667 22H9.77778C10.7556 22 11.5556 21.2 11.5556 20.2222V9.55556H0.888889V20.2222ZM2.66667 11.3333H9.77778V20.2222H2.66667V11.3333ZM9.33333 6.88889L8.44444 6H4L3.11111 6.88889H0V8.66667H12.4444V6.88889H9.33333Z" fill="#EB001B"/>
<path d="M241.722 16.6973V5.80727L239.283 7.29226V5.19526L241.722 3.73727H243.639V16.6973H241.722Z" fill="#111111"/>
<g opacity="0.09">
<circle cx="214.459" cy="10.4587" r="10.4587" fill="#111111"/>
<rect x="210.973" y="9.76147" width="6.97248" height="1.3945" fill="white"/>
</g>
<circle cx="269.541" cy="10.4587" r="10.4587" fill="#111111"/>
<path fill-rule="evenodd" clip-rule="evenodd" d="M270.239 9.7614V6.97241L268.844 6.97241V9.7614H266.055V11.1559H268.844V13.9449L270.239 13.9449V11.1559H273.028V9.7614H270.239Z" fill="white"/>
</svg>
