<svg width="24" height="28" viewBox="0 0 24 28" fill="none" xmlns="http://www.w3.org/2000/svg">
<path fill-rule="evenodd" clip-rule="evenodd" d="M10.715 6.56738H18.4799C22.649 6.56738 24.2184 8.67382 23.9758 11.7685C23.575 16.8795 20.4802 19.7041 16.3753 19.7041H14.2928C13.7296 19.7041 13.3508 20.0762 13.1984 21.0844L12.3185 26.9456C12.2604 27.3257 12.06 27.5457 11.7593 27.5777H6.88071C6.42172 27.5777 6.25937 27.2277 6.37762 26.4695L9.35208 7.67961C9.47034 6.92546 9.88323 6.56738 10.715 6.56738Z" fill="#009EE3"/>
<path fill-rule="evenodd" clip-rule="evenodd" d="M5.84869 0.0999756H13.6236C15.8123 0.0999756 18.408 0.171991 20.1458 1.70031C21.3063 2.72252 21.9156 4.34886 21.7753 6.10122C21.2983 12.0244 17.7465 15.3431 12.9862 15.3431H9.15187C8.50045 15.3431 8.06751 15.7732 7.88311 16.9435L6.81279 23.7349C6.74464 24.175 6.55222 24.435 6.21148 24.467H1.41506C0.883907 24.467 0.695496 24.0669 0.833796 23.1828L4.28129 1.39224C4.41959 0.51606 4.90264 0.0999756 5.84869 0.0999756Z" fill="#113984"/>
<path fill-rule="evenodd" clip-rule="evenodd" d="M7.99554 16.2534L9.35249 7.67961C9.47075 6.92546 9.88364 6.56738 10.7054 6.56738H18.4703C19.7551 6.56738 20.7953 6.76743 21.6091 7.1375C20.8274 12.4086 17.412 15.3392 12.9363 15.3392H9.11197C8.59886 15.3392 8.22204 15.5953 7.99554 16.2534Z" fill="#172C70"/>
</svg>
