<svg width="350" height="86" viewBox="0 0 350 86" fill="none" xmlns="http://www.w3.org/2000/svg">
<g filter="url(#filter0_d_204_82)">
<rect x="4" y="3" width="342" height="77" rx="6" fill="white"/>
</g>
<rect x="24" y="12" width="33" height="33" rx="3" fill="#59B9AF" fill-opacity="0.13"/>
<path d="M32.8998 29.8001H33.7998V35.4C33.7998 36.2824 34.6072 37 35.5999 37H46.4001C47.3928 37 48.2002 36.2824 48.2002 35.4V29.8001H49.1002C49.2782 29.8 49.4521 29.7531 49.6001 29.6652C49.7481 29.5773 49.8634 29.4524 49.9315 29.3062C49.9996 29.16 50.0174 28.9992 49.9827 28.8441C49.948 28.6889 49.8623 28.5464 49.7365 28.4345L41.6363 21.2346C41.5528 21.1602 41.4536 21.1012 41.3444 21.061C41.2352 21.0207 41.1182 21 41 21C40.8818 21 40.7648 21.0207 40.6556 21.061C40.5464 21.1012 40.4472 21.1602 40.3637 21.2346L32.2635 28.4345C32.1377 28.5464 32.052 28.6889 32.0173 28.8441C31.9826 28.9992 32.0004 29.16 32.0685 29.3062C32.1366 29.4524 32.2519 29.5773 32.3999 29.6652C32.5479 29.7531 32.7218 29.8 32.8998 29.8001ZM39.2 35.4V31.4001H42.8V35.4H39.2ZM41 22.9313L46.4001 27.7313V31.4001L46.401 35.4H44.6001V31.4001C44.6001 30.5177 43.7928 29.8001 42.8 29.8001H39.2C38.2072 29.8001 37.3999 30.5177 37.3999 31.4001V35.4H35.5999V27.7313L41 22.9313Z" fill="#27544F"/>
<path d="M66.84 48V39.36H67.722V43.254H72.498V39.36H73.374V48H72.498V44.1H67.722V48H66.84ZM77.0288 48.18C76.5408 48.18 76.1308 48.092 75.7988 47.916C75.4708 47.74 75.2248 47.506 75.0608 47.214C74.8968 46.922 74.8148 46.604 74.8148 46.26C74.8148 45.908 74.8848 45.608 75.0248 45.36C75.1688 45.108 75.3628 44.902 75.6068 44.742C75.8548 44.582 76.1408 44.46 76.4648 44.376C76.7928 44.296 77.1548 44.226 77.5508 44.166C77.9508 44.102 78.3408 44.048 78.7208 44.004C79.1048 43.956 79.4408 43.91 79.7288 43.866L79.4168 44.058C79.4288 43.418 79.3048 42.944 79.0448 42.636C78.7848 42.328 78.3328 42.174 77.6888 42.174C77.2448 42.174 76.8688 42.274 76.5608 42.474C76.2568 42.674 76.0428 42.99 75.9188 43.422L75.0608 43.17C75.2088 42.59 75.5068 42.14 75.9548 41.82C76.4028 41.5 76.9848 41.34 77.7008 41.34C78.2928 41.34 78.7948 41.452 79.2068 41.676C79.6228 41.896 79.9168 42.216 80.0888 42.636C80.1688 42.824 80.2208 43.034 80.2448 43.266C80.2688 43.498 80.2808 43.734 80.2808 43.974V48H79.4948V46.374L79.7228 46.47C79.5028 47.026 79.1608 47.45 78.6968 47.742C78.2328 48.034 77.6768 48.18 77.0288 48.18ZM77.1308 47.418C77.5428 47.418 77.9028 47.344 78.2108 47.196C78.5188 47.048 78.7668 46.846 78.9548 46.59C79.1428 46.33 79.2648 46.038 79.3208 45.714C79.3688 45.506 79.3948 45.278 79.3988 45.03C79.4028 44.778 79.4048 44.59 79.4048 44.466L79.7408 44.64C79.4408 44.68 79.1148 44.72 78.7628 44.76C78.4148 44.8 78.0708 44.846 77.7308 44.898C77.3948 44.95 77.0908 45.012 76.8188 45.084C76.6348 45.136 76.4568 45.21 76.2848 45.306C76.1128 45.398 75.9708 45.522 75.8588 45.678C75.7508 45.834 75.6968 46.028 75.6968 46.26C75.6968 46.448 75.7428 46.63 75.8348 46.806C75.9308 46.982 76.0828 47.128 76.2908 47.244C76.5028 47.36 76.7828 47.418 77.1308 47.418ZM84.4768 48.18C83.8728 48.18 83.3568 48.03 82.9288 47.73C82.5008 47.426 82.1728 47.016 81.9448 46.5C81.7168 45.984 81.6028 45.402 81.6028 44.754C81.6028 44.11 81.7148 43.53 81.9388 43.014C82.1668 42.498 82.4928 42.09 82.9168 41.79C83.3408 41.49 83.8488 41.34 84.4408 41.34C85.0488 41.34 85.5608 41.488 85.9768 41.784C86.3928 42.08 86.7068 42.486 86.9188 43.002C87.1348 43.514 87.2428 44.098 87.2428 44.754C87.2428 45.398 87.1368 45.98 86.9248 46.5C86.7128 47.016 86.4008 47.426 85.9888 47.73C85.5768 48.03 85.0728 48.18 84.4768 48.18ZM84.5668 47.358C85.0268 47.358 85.4068 47.246 85.7068 47.022C86.0068 46.798 86.2308 46.49 86.3788 46.098C86.5268 45.702 86.6008 45.254 86.6008 44.754C86.6008 44.246 86.5268 43.798 86.3788 43.41C86.2308 43.018 86.0068 42.712 85.7068 42.492C85.4108 42.272 85.0368 42.162 84.5848 42.162C84.1208 42.162 83.7368 42.276 83.4328 42.504C83.1288 42.732 82.9028 43.042 82.7548 43.434C82.6108 43.826 82.5388 44.266 82.5388 44.754C82.5388 45.246 82.6128 45.69 82.7608 46.086C82.9128 46.478 83.1388 46.788 83.4388 47.016C83.7388 47.244 84.1148 47.358 84.5668 47.358ZM86.6008 48V43.122H86.5048V39.36H87.3928V48H86.6008ZM89.3161 40.29V39.3H90.1981V40.29H89.3161ZM89.3161 48V41.52H90.1981V48H89.3161ZM93.9709 48.18C93.4829 48.18 93.0729 48.092 92.7409 47.916C92.4129 47.74 92.1669 47.506 92.0029 47.214C91.8389 46.922 91.7569 46.604 91.7569 46.26C91.7569 45.908 91.8269 45.608 91.9669 45.36C92.1109 45.108 92.3049 44.902 92.5489 44.742C92.7969 44.582 93.0829 44.46 93.4069 44.376C93.7349 44.296 94.0969 44.226 94.4929 44.166C94.8929 44.102 95.2829 44.048 95.6629 44.004C96.0469 43.956 96.3829 43.91 96.6709 43.866L96.3589 44.058C96.3709 43.418 96.2469 42.944 95.9869 42.636C95.7269 42.328 95.2749 42.174 94.6309 42.174C94.1869 42.174 93.8109 42.274 93.5029 42.474C93.1989 42.674 92.9849 42.99 92.8609 43.422L92.0029 43.17C92.1509 42.59 92.4489 42.14 92.8969 41.82C93.3449 41.5 93.9269 41.34 94.6429 41.34C95.2349 41.34 95.7369 41.452 96.1489 41.676C96.5649 41.896 96.8589 42.216 97.0309 42.636C97.1109 42.824 97.1629 43.034 97.1869 43.266C97.2109 43.498 97.2229 43.734 97.2229 43.974V48H96.4369V46.374L96.6649 46.47C96.4449 47.026 96.1029 47.45 95.6389 47.742C95.1749 48.034 94.6189 48.18 93.9709 48.18ZM94.0729 47.418C94.4849 47.418 94.8449 47.344 95.1529 47.196C95.4609 47.048 95.7089 46.846 95.8969 46.59C96.0849 46.33 96.2069 46.038 96.2629 45.714C96.3109 45.506 96.3369 45.278 96.3409 45.03C96.3449 44.778 96.3469 44.59 96.3469 44.466L96.6829 44.64C96.3829 44.68 96.0569 44.72 95.7049 44.76C95.3569 44.8 95.0129 44.846 94.6729 44.898C94.3369 44.95 94.0329 45.012 93.7609 45.084C93.5769 45.136 93.3989 45.21 93.2269 45.306C93.0549 45.398 92.9129 45.522 92.8009 45.678C92.6929 45.834 92.6389 46.028 92.6389 46.26C92.6389 46.448 92.6849 46.63 92.7769 46.806C92.8729 46.982 93.0249 47.128 93.2329 47.244C93.4449 47.36 93.7249 47.418 94.0729 47.418ZM100.827 48L103.803 39.36H104.973L107.949 48H107.031L104.205 39.852H104.553L101.745 48H100.827ZM102.153 45.906V45.078H106.617V45.906H102.153ZM109.273 48V39.18H110.155V48H109.273ZM112.193 40.29V39.3H113.075V40.29H112.193ZM112.193 48V41.52H113.075V48H112.193ZM69.39 64.18C68.942 64.18 68.528 64.088 68.148 63.904C67.768 63.72 67.444 63.466 67.176 63.142C66.908 62.818 66.716 62.446 66.6 62.026L67.446 61.798C67.522 62.11 67.66 62.38 67.86 62.608C68.06 62.832 68.294 63.006 68.562 63.13C68.834 63.254 69.118 63.316 69.414 63.316C69.798 63.316 70.142 63.224 70.446 63.04C70.754 62.852 70.998 62.604 71.178 62.296C71.358 61.988 71.448 61.65 71.448 61.282C71.448 60.902 71.354 60.56 71.166 60.256C70.978 59.948 70.73 59.704 70.422 59.524C70.114 59.344 69.778 59.254 69.414 59.254C69.006 59.254 68.654 59.344 68.358 59.524C68.062 59.7 67.826 59.922 67.65 60.19L66.846 59.854L67.11 55.36H71.724V56.206H67.5L67.938 55.792L67.704 59.626L67.482 59.332C67.73 59.048 68.03 58.826 68.382 58.666C68.734 58.506 69.104 58.426 69.492 58.426C70.024 58.426 70.504 58.554 70.932 58.81C71.36 59.062 71.7 59.404 71.952 59.836C72.204 60.268 72.33 60.75 72.33 61.282C72.33 61.81 72.196 62.294 71.928 62.734C71.66 63.17 71.304 63.52 70.86 63.784C70.416 64.048 69.926 64.18 69.39 64.18ZM77.6898 64V62.326H73.6458V61.486L76.5378 55.36H77.5278L74.6358 61.486H77.6898V58.966H78.5778V61.486H79.5198V62.326H78.5778V64H77.6898ZM83.6339 64.18C83.1859 64.18 82.7719 64.088 82.3919 63.904C82.0119 63.72 81.6879 63.466 81.4199 63.142C81.1519 62.818 80.9599 62.446 80.8439 62.026L81.6899 61.798C81.7659 62.11 81.9039 62.38 82.1039 62.608C82.3039 62.832 82.5379 63.006 82.8059 63.13C83.0779 63.254 83.3619 63.316 83.6579 63.316C84.0419 63.316 84.3859 63.224 84.6899 63.04C84.9979 62.852 85.2419 62.604 85.4219 62.296C85.6019 61.988 85.6919 61.65 85.6919 61.282C85.6919 60.902 85.5979 60.56 85.4099 60.256C85.2219 59.948 84.9739 59.704 84.6659 59.524C84.3579 59.344 84.0219 59.254 83.6579 59.254C83.2499 59.254 82.8979 59.344 82.6019 59.524C82.3059 59.7 82.0699 59.922 81.8939 60.19L81.0899 59.854L81.3539 55.36H85.9679V56.206H81.7439L82.1819 55.792L81.9479 59.626L81.7259 59.332C81.9739 59.048 82.2739 58.826 82.6259 58.666C82.9779 58.506 83.3479 58.426 83.7359 58.426C84.2679 58.426 84.7479 58.554 85.1759 58.81C85.6039 59.062 85.9439 59.404 86.1959 59.836C86.4479 60.268 86.5739 60.75 86.5739 61.282C86.5739 61.81 86.4399 62.294 86.1719 62.734C85.9039 63.17 85.5479 63.52 85.1039 63.784C84.6599 64.048 84.1699 64.18 83.6339 64.18ZM92.506 64L90.01 55.36H90.928L92.95 62.494L94.96 55.366L95.884 55.36L97.906 62.494L99.916 55.36H100.84L98.35 64H97.462L95.422 56.914L93.394 64H92.506ZM101.452 64V62.974H102.478V64H101.452ZM108.479 64V56.344L106.853 57.322V56.332L108.479 55.36H109.373V64H108.479ZM115.573 64V62.326H111.529V61.486L114.421 55.36H115.411L112.519 61.486H115.573V58.966H116.461V61.486H117.403V62.326H116.461V64H115.573ZM122.495 64C122.131 64.076 121.771 64.106 121.415 64.09C121.063 64.074 120.747 63.998 120.467 63.862C120.191 63.726 119.981 63.514 119.837 63.226C119.721 62.986 119.657 62.744 119.645 62.5C119.637 62.252 119.633 61.97 119.633 61.654V55.72H120.509V61.618C120.509 61.89 120.511 62.118 120.515 62.302C120.523 62.482 120.565 62.642 120.641 62.782C120.785 63.05 121.013 63.21 121.325 63.262C121.641 63.314 122.031 63.302 122.495 63.226V64ZM118.247 58.276V57.52H122.495V58.276H118.247ZM128.572 64V60.694C128.572 60.334 128.538 60.004 128.47 59.704C128.402 59.4 128.292 59.136 128.14 58.912C127.992 58.684 127.798 58.508 127.558 58.384C127.322 58.26 127.034 58.198 126.694 58.198C126.382 58.198 126.106 58.252 125.866 58.36C125.63 58.468 125.43 58.624 125.266 58.828C125.106 59.028 124.984 59.272 124.9 59.56C124.816 59.848 124.774 60.176 124.774 60.544L124.15 60.406C124.15 59.742 124.266 59.184 124.498 58.732C124.73 58.28 125.05 57.938 125.458 57.706C125.866 57.474 126.334 57.358 126.862 57.358C127.25 57.358 127.588 57.418 127.876 57.538C128.168 57.658 128.414 57.82 128.614 58.024C128.818 58.228 128.982 58.462 129.106 58.726C129.23 58.986 129.32 59.264 129.376 59.56C129.432 59.852 129.46 60.144 129.46 60.436V64H128.572ZM123.886 64V55.36H124.684V60.238H124.774V64H123.886ZM136.659 64.18C136.055 64.18 135.511 64.08 135.027 63.88C134.547 63.676 134.149 63.388 133.833 63.016C133.521 62.644 133.317 62.202 133.221 61.69L134.121 61.54C134.265 62.1 134.569 62.54 135.033 62.86C135.497 63.176 136.051 63.334 136.695 63.334C137.119 63.334 137.499 63.268 137.835 63.136C138.171 63 138.435 62.808 138.627 62.56C138.819 62.312 138.915 62.018 138.915 61.678C138.915 61.454 138.875 61.264 138.795 61.108C138.715 60.948 138.609 60.816 138.477 60.712C138.345 60.608 138.201 60.522 138.045 60.454C137.889 60.382 137.737 60.324 137.589 60.28L135.399 59.626C135.135 59.55 134.891 59.454 134.667 59.338C134.443 59.218 134.247 59.076 134.079 58.912C133.915 58.744 133.787 58.548 133.695 58.324C133.603 58.1 133.557 57.844 133.557 57.556C133.557 57.068 133.685 56.646 133.941 56.29C134.197 55.934 134.547 55.66 134.991 55.468C135.435 55.276 135.941 55.182 136.509 55.186C137.085 55.186 137.599 55.288 138.051 55.492C138.507 55.696 138.883 55.988 139.179 56.368C139.475 56.744 139.671 57.19 139.767 57.706L138.843 57.874C138.783 57.498 138.645 57.172 138.429 56.896C138.213 56.62 137.937 56.408 137.601 56.26C137.269 56.108 136.903 56.03 136.503 56.026C136.115 56.026 135.769 56.092 135.465 56.224C135.165 56.352 134.927 56.528 134.751 56.752C134.575 56.976 134.487 57.232 134.487 57.52C134.487 57.812 134.567 58.046 134.727 58.222C134.891 58.398 135.091 58.536 135.327 58.636C135.567 58.736 135.799 58.818 136.023 58.882L137.715 59.38C137.891 59.428 138.097 59.498 138.333 59.59C138.573 59.678 138.805 59.806 139.029 59.974C139.257 60.138 139.445 60.354 139.593 60.622C139.741 60.89 139.815 61.23 139.815 61.642C139.815 62.042 139.735 62.4 139.575 62.716C139.419 63.032 139.197 63.298 138.909 63.514C138.625 63.73 138.291 63.894 137.907 64.006C137.527 64.122 137.111 64.18 136.659 64.18ZM144.701 64C144.337 64.076 143.977 64.106 143.621 64.09C143.269 64.074 142.953 63.998 142.673 63.862C142.397 63.726 142.187 63.514 142.043 63.226C141.927 62.986 141.863 62.744 141.851 62.5C141.843 62.252 141.839 61.97 141.839 61.654V55.72H142.715V61.618C142.715 61.89 142.717 62.118 142.721 62.302C142.729 62.482 142.771 62.642 142.847 62.782C142.991 63.05 143.219 63.21 143.531 63.262C143.847 63.314 144.237 63.302 144.701 63.226V64ZM140.453 58.276V57.52H144.701V58.276H140.453ZM146.098 64V57.52H146.89V59.08L146.734 58.876C146.806 58.684 146.9 58.508 147.016 58.348C147.132 58.184 147.258 58.05 147.394 57.946C147.562 57.798 147.758 57.686 147.982 57.61C148.206 57.53 148.432 57.484 148.66 57.472C148.888 57.456 149.096 57.472 149.284 57.52V58.348C149.048 58.288 148.79 58.274 148.51 58.306C148.23 58.338 147.972 58.45 147.736 58.642C147.52 58.81 147.358 59.012 147.25 59.248C147.142 59.48 147.07 59.728 147.034 59.992C146.998 60.252 146.98 60.51 146.98 60.766V64H146.098ZM153.167 64.18C152.535 64.18 151.987 64.04 151.523 63.76C151.063 63.48 150.705 63.086 150.449 62.578C150.193 62.07 150.065 61.474 150.065 60.79C150.065 60.082 150.191 59.47 150.443 58.954C150.695 58.438 151.049 58.04 151.505 57.76C151.965 57.48 152.507 57.34 153.131 57.34C153.771 57.34 154.317 57.488 154.769 57.784C155.221 58.076 155.563 58.496 155.795 59.044C156.027 59.592 156.133 60.246 156.113 61.006H155.213V60.694C155.197 59.854 155.015 59.22 154.667 58.792C154.323 58.364 153.819 58.15 153.155 58.15C152.459 58.15 151.925 58.376 151.553 58.828C151.185 59.28 151.001 59.924 151.001 60.76C151.001 61.576 151.185 62.21 151.553 62.662C151.925 63.11 152.451 63.334 153.131 63.334C153.595 63.334 153.999 63.228 154.343 63.016C154.691 62.8 154.965 62.49 155.165 62.086L155.987 62.404C155.731 62.968 155.353 63.406 154.853 63.718C154.357 64.026 153.795 64.18 153.167 64.18ZM150.689 61.006V60.268H155.639V61.006H150.689ZM160.307 64.18C159.675 64.18 159.127 64.04 158.663 63.76C158.203 63.48 157.845 63.086 157.589 62.578C157.333 62.07 157.205 61.474 157.205 60.79C157.205 60.082 157.331 59.47 157.583 58.954C157.835 58.438 158.189 58.04 158.645 57.76C159.105 57.48 159.647 57.34 160.271 57.34C160.911 57.34 161.457 57.488 161.909 57.784C162.361 58.076 162.703 58.496 162.935 59.044C163.167 59.592 163.273 60.246 163.253 61.006H162.353V60.694C162.337 59.854 162.155 59.22 161.807 58.792C161.463 58.364 160.959 58.15 160.295 58.15C159.599 58.15 159.065 58.376 158.693 58.828C158.325 59.28 158.141 59.924 158.141 60.76C158.141 61.576 158.325 62.21 158.693 62.662C159.065 63.11 159.591 63.334 160.271 63.334C160.735 63.334 161.139 63.228 161.483 63.016C161.831 62.8 162.105 62.49 162.305 62.086L163.127 62.404C162.871 62.968 162.493 63.406 161.993 63.718C161.497 64.026 160.935 64.18 160.307 64.18ZM157.829 61.006V60.268H162.779V61.006H157.829ZM168.232 64C167.868 64.076 167.508 64.106 167.152 64.09C166.8 64.074 166.484 63.998 166.204 63.862C165.928 63.726 165.718 63.514 165.574 63.226C165.458 62.986 165.394 62.744 165.382 62.5C165.374 62.252 165.37 61.97 165.37 61.654V55.72H166.246V61.618C166.246 61.89 166.248 62.118 166.252 62.302C166.26 62.482 166.302 62.642 166.378 62.782C166.522 63.05 166.75 63.21 167.062 63.262C167.378 63.314 167.768 63.302 168.232 63.226V64ZM163.984 58.276V57.52H168.232V58.276H163.984ZM173.531 64L171.551 57.514L172.433 57.52L173.969 62.554L175.511 57.52H176.315L177.857 62.554L179.405 57.52H180.281L178.301 64H177.533L175.913 58.84L174.299 64H173.531ZM182.973 64.18C182.485 64.18 182.075 64.092 181.743 63.916C181.415 63.74 181.169 63.506 181.005 63.214C180.841 62.922 180.759 62.604 180.759 62.26C180.759 61.908 180.829 61.608 180.969 61.36C181.113 61.108 181.307 60.902 181.551 60.742C181.799 60.582 182.085 60.46 182.409 60.376C182.737 60.296 183.099 60.226 183.495 60.166C183.895 60.102 184.285 60.048 184.665 60.004C185.049 59.956 185.385 59.91 185.673 59.866L185.361 60.058C185.373 59.418 185.249 58.944 184.989 58.636C184.729 58.328 184.277 58.174 183.633 58.174C183.189 58.174 182.813 58.274 182.505 58.474C182.201 58.674 181.987 58.99 181.863 59.422L181.005 59.17C181.153 58.59 181.451 58.14 181.899 57.82C182.347 57.5 182.929 57.34 183.645 57.34C184.237 57.34 184.739 57.452 185.151 57.676C185.567 57.896 185.861 58.216 186.033 58.636C186.113 58.824 186.165 59.034 186.189 59.266C186.213 59.498 186.225 59.734 186.225 59.974V64H185.439V62.374L185.667 62.47C185.447 63.026 185.105 63.45 184.641 63.742C184.177 64.034 183.621 64.18 182.973 64.18ZM183.075 63.418C183.487 63.418 183.847 63.344 184.155 63.196C184.463 63.048 184.711 62.846 184.899 62.59C185.087 62.33 185.209 62.038 185.265 61.714C185.313 61.506 185.339 61.278 185.343 61.03C185.347 60.778 185.349 60.59 185.349 60.466L185.685 60.64C185.385 60.68 185.059 60.72 184.707 60.76C184.359 60.8 184.015 60.846 183.675 60.898C183.339 60.95 183.035 61.012 182.763 61.084C182.579 61.136 182.401 61.21 182.229 61.306C182.057 61.398 181.915 61.522 181.803 61.678C181.695 61.834 181.641 62.028 181.641 62.26C181.641 62.448 181.687 62.63 181.779 62.806C181.875 62.982 182.027 63.128 182.235 63.244C182.447 63.36 182.727 63.418 183.075 63.418ZM188.468 66.88L189.722 63.478L189.74 64.486L186.902 57.52H187.838L190.166 63.346H189.782L191.93 57.52H192.83L189.35 66.88H188.468ZM192.911 65.254L192.965 64.816C193.125 64.828 193.241 64.796 193.313 64.72C193.385 64.644 193.429 64.542 193.445 64.414C193.461 64.286 193.465 64.148 193.457 64H192.911V62.734H193.937V64.24C193.937 64.608 193.843 64.884 193.655 65.068C193.471 65.252 193.223 65.314 192.911 65.254ZM198.861 64V55.36H199.749L204.507 62.44V55.36H205.395V64H204.507L199.749 56.914V64H198.861ZM209.253 64V60.382L206.355 55.36H207.375L209.697 59.374L212.007 55.36H213.027L210.141 60.382V64H209.253ZM216.487 64L219.667 56.218H215.665V55.36H220.609V56.218L217.435 64H216.487ZM222.947 64L226.127 56.218H222.125V55.36H227.069V56.218L223.895 64H222.947ZM231.449 64.18C230.917 64.18 230.437 64.056 230.009 63.808C229.585 63.56 229.249 63.224 229.001 62.8C228.753 62.372 228.629 61.892 228.629 61.36V58C228.629 57.468 228.753 56.99 229.001 56.566C229.249 56.138 229.585 55.8 230.009 55.552C230.437 55.304 230.917 55.18 231.449 55.18C231.981 55.18 232.459 55.304 232.883 55.552C233.311 55.8 233.649 56.138 233.897 56.566C234.145 56.99 234.269 57.468 234.269 58V61.36C234.269 61.892 234.145 62.372 233.897 62.8C233.649 63.224 233.311 63.56 232.883 63.808C232.459 64.056 231.981 64.18 231.449 64.18ZM231.449 63.328C231.805 63.328 232.129 63.242 232.421 63.07C232.713 62.894 232.945 62.66 233.117 62.368C233.289 62.076 233.375 61.754 233.375 61.402V57.958C233.375 57.602 233.289 57.278 233.117 56.986C232.945 56.694 232.713 56.462 232.421 56.29C232.129 56.114 231.805 56.026 231.449 56.026C231.093 56.026 230.769 56.114 230.477 56.29C230.185 56.462 229.953 56.694 229.781 56.986C229.609 57.278 229.523 57.602 229.523 57.958V61.402C229.523 61.754 229.609 62.076 229.781 62.368C229.953 62.66 230.185 62.894 230.477 63.07C230.769 63.242 231.093 63.328 231.449 63.328ZM237.579 64V56.344L235.953 57.322V56.332L237.579 55.36H238.473V64H237.579ZM242.375 64V56.344L240.749 57.322V56.332L242.375 55.36H243.269V64H242.375Z" fill="#374151"/>
<defs>
<filter id="filter0_d_204_82" x="0" y="0.5" width="350" height="85" filterUnits="userSpaceOnUse" color-interpolation-filters="sRGB">
<feFlood flood-opacity="0" result="BackgroundImageFix"/>
<feColorMatrix in="SourceAlpha" type="matrix" values="0 0 0 0 0 0 0 0 0 0 0 0 0 0 0 0 0 0 127 0" result="hardAlpha"/>
<feOffset dy="1.5"/>
<feGaussianBlur stdDeviation="2"/>
<feComposite in2="hardAlpha" operator="out"/>
<feColorMatrix type="matrix" values="0 0 0 0 0 0 0 0 0 0 0 0 0 0 0 0 0 0 0.25 0"/>
<feBlend mode="normal" in2="BackgroundImageFix" result="effect1_dropShadow_204_82"/>
<feBlend mode="normal" in="SourceGraphic" in2="effect1_dropShadow_204_82" result="shape"/>
</filter>
</defs>
</svg>
