<svg width="265" height="75" viewBox="0 0 265 75" fill="none" xmlns="http://www.w3.org/2000/svg">
<path d="M31.7901 33.0924C40.5836 33.0924 47.7121 25.9639 47.7121 17.1705C47.7121 8.37703 40.5836 1.24854 31.7901 1.24854C22.9967 1.24854 15.8682 8.37703 15.8682 17.1705C15.8682 25.9639 22.9967 33.0924 31.7901 33.0924Z" fill="#EAEAEA"/>
<path d="M31.1334 15.0036V2.79747C31.1334 1.93691 30.3647 1.28049 29.5148 1.41822C26.0335 1.97891 17.9973 4.38967 16.1404 14.7233C15.987 15.5751 16.6464 16.3575 17.5128 16.3604L29.7327 16.4005C30.5053 16.4034 31.1334 15.7773 31.1334 15.0036Z" fill="#FFB3C7"/>
<path d="M102.971 31.8439C111.764 31.8439 118.893 24.7154 118.893 15.9219C118.893 7.1285 111.764 0 102.971 0C94.1773 0 87.0488 7.1285 87.0488 15.9219C87.0488 24.7154 94.1773 31.8439 102.971 31.8439Z" fill="#EAEAEA"/>
<path d="M102.314 13.7551V1.54894C102.314 0.688371 101.545 0.0319571 100.696 0.169687C97.2142 0.730374 89.178 3.14113 87.3211 13.4748C87.1677 14.3265 87.8271 15.109 88.6935 15.1119L100.913 15.1519C101.686 15.1549 102.314 14.5287 102.314 13.7551Z" fill="#FFB3C7"/>
<path d="M103.951 13.7551V1.54894C103.951 0.688371 104.72 0.0319571 105.57 0.169687C109.051 0.730374 117.087 3.14113 118.944 13.4748C119.098 14.3265 118.438 15.109 117.572 15.1119L105.352 15.1519C104.58 15.1549 103.951 14.5287 103.951 13.7551Z" fill="#FFB3C7"/>
<path d="M172.278 32.4679C181.072 32.4679 188.2 25.3394 188.2 16.546C188.2 7.75252 181.072 0.624023 172.278 0.624023C163.485 0.624023 156.356 7.75252 156.356 16.546C156.356 25.3394 163.485 32.4679 172.278 32.4679Z" fill="#EAEAEA"/>
<path d="M171.622 14.3791V2.17296C171.622 1.31239 170.853 0.655981 170.003 0.79371C166.522 1.3544 158.486 3.76515 156.629 14.0988C156.475 14.9506 157.135 15.733 158.001 15.7359L170.221 15.776C170.994 15.7789 171.622 15.1528 171.622 14.3791Z" fill="#FFB3C7"/>
<path d="M173.259 14.3791V2.17296C173.259 1.31239 174.028 0.655981 174.877 0.79371C178.359 1.3544 186.395 3.76515 188.252 14.0988C188.405 14.9506 187.746 15.733 186.879 15.7359L174.66 15.776C173.888 15.7789 173.259 15.1528 173.259 14.3791Z" fill="#FFB3C7"/>
<path d="M173.146 18.5716V30.7778C173.146 31.6384 173.915 32.2948 174.765 32.1571C178.246 31.5964 186.283 29.1856 188.139 18.852C188.293 18.0002 187.634 17.2178 186.767 17.2149L174.547 17.1748C173.776 17.1719 173.146 17.798 173.146 18.5716Z" fill="#FFB3C7"/>
<path d="M242.834 33.7169C251.628 33.7169 258.756 26.5884 258.756 17.795C258.756 9.00154 251.628 1.87305 242.834 1.87305C234.041 1.87305 226.912 9.00154 226.912 17.795C226.912 26.5884 234.041 33.7169 242.834 33.7169Z" fill="#EAEAEA"/>
<path d="M242.177 15.6282V3.42198C242.177 2.56142 241.409 1.905 240.559 2.04273C237.077 2.60342 229.041 5.01418 227.184 15.3478C227.031 16.1996 227.69 16.982 228.557 16.9849L240.777 17.025C241.549 17.0279 242.177 16.4018 242.177 15.6282Z" fill="#FFB3C7"/>
<path d="M243.814 15.6282V3.42198C243.814 2.56142 244.583 1.905 245.433 2.04273C248.914 2.60342 256.951 5.01418 258.807 15.3478C258.961 16.1996 258.301 16.982 257.435 16.9849L245.215 17.025C244.444 17.0279 243.814 16.4018 243.814 15.6282Z" fill="#FFB3C7"/>
<path d="M243.701 19.8207V32.0268C243.701 32.8874 244.47 33.5438 245.32 33.4061C248.801 32.8454 256.837 30.4347 258.694 20.101C258.848 19.2492 258.188 18.4668 257.322 18.4639L245.102 18.4238C244.33 18.4209 243.701 19.047 243.701 19.8207Z" fill="#FFB3C7"/>
<path d="M242.064 19.9188V32.125C242.064 32.9856 241.295 33.642 240.446 33.5042C236.964 32.9436 228.928 30.5328 227.071 20.1992C226.918 19.3474 227.577 18.565 228.443 18.562L240.663 18.522C241.436 18.5191 242.064 19.1452 242.064 19.9188Z" fill="#FFB3C7"/>
<path d="M27.8779 49V42.62L26.5229 43.435V42.61L27.8779 41.8H28.6229V49H27.8779ZM32.5343 49.145C31.901 49.145 31.3793 49.0083 30.9693 48.735C30.5627 48.4617 30.3127 48.0817 30.2193 47.595L30.9693 47.47C31.0493 47.7767 31.231 48.0217 31.5143 48.205C31.801 48.385 32.1543 48.475 32.5743 48.475C32.9843 48.475 33.3077 48.39 33.5443 48.22C33.781 48.0467 33.8993 47.8117 33.8993 47.515C33.8993 47.3483 33.861 47.2133 33.7843 47.11C33.711 47.0033 33.5593 46.905 33.3293 46.815C33.0993 46.725 32.756 46.6183 32.2993 46.495C31.8093 46.3617 31.426 46.2283 31.1493 46.095C30.8727 45.9617 30.676 45.8083 30.5593 45.635C30.4427 45.4583 30.3843 45.2433 30.3843 44.99C30.3843 44.6833 30.471 44.415 30.6443 44.185C30.8177 43.9517 31.0577 43.7717 31.3643 43.645C31.671 43.515 32.0277 43.45 32.4343 43.45C32.841 43.45 33.2043 43.5167 33.5243 43.65C33.8477 43.78 34.1077 43.9633 34.3043 44.2C34.501 44.4367 34.6177 44.7117 34.6543 45.025L33.9043 45.16C33.8543 44.8433 33.696 44.5933 33.4293 44.41C33.166 44.2233 32.831 44.1267 32.4243 44.12C32.041 44.11 31.7293 44.1833 31.4893 44.34C31.2493 44.4933 31.1293 44.6983 31.1293 44.955C31.1293 45.0983 31.1727 45.2217 31.2593 45.325C31.346 45.425 31.5027 45.52 31.7293 45.61C31.9593 45.7 32.286 45.7983 32.7093 45.905C33.206 46.0317 33.596 46.165 33.8793 46.305C34.1627 46.445 34.3643 46.61 34.4843 46.8C34.6043 46.99 34.6643 47.225 34.6643 47.505C34.6643 48.015 34.4743 48.4167 34.0943 48.71C33.7177 49 33.1977 49.145 32.5343 49.145ZM38.7132 49C38.4099 49.0633 38.1099 49.0883 37.8132 49.075C37.5199 49.0617 37.2566 48.9983 37.0232 48.885C36.7932 48.7717 36.6182 48.595 36.4982 48.355C36.4016 48.155 36.3482 47.9533 36.3382 47.75C36.3316 47.5433 36.3282 47.3083 36.3282 47.045V42.1H37.0582V47.015C37.0582 47.2417 37.0599 47.4317 37.0632 47.585C37.0699 47.735 37.1049 47.8683 37.1682 47.985C37.2882 48.2083 37.4782 48.3417 37.7382 48.385C38.0016 48.4283 38.3266 48.4183 38.7132 48.355V49ZM35.1732 44.23V43.6H38.7132V44.23H35.1732ZM7.37715 63V55.8H8.11215V63H7.37715ZM13.5111 63V60.245C13.5111 59.945 13.4828 59.67 13.4261 59.42C13.3695 59.1667 13.2778 58.9467 13.1511 58.76C13.0278 58.57 12.8661 58.4233 12.6661 58.32C12.4695 58.2167 12.2295 58.165 11.9461 58.165C11.6861 58.165 11.4561 58.21 11.2561 58.3C11.0595 58.39 10.8928 58.52 10.7561 58.69C10.6228 58.8567 10.5211 59.06 10.4511 59.3C10.3811 59.54 10.3461 59.8133 10.3461 60.12L9.82613 60.005C9.82613 59.4517 9.9228 58.9867 10.1161 58.61C10.3095 58.2333 10.5761 57.9483 10.9161 57.755C11.2561 57.5617 11.6461 57.465 12.0861 57.465C12.4095 57.465 12.6911 57.515 12.9311 57.615C13.1745 57.715 13.3795 57.85 13.5461 58.02C13.7161 58.19 13.8528 58.385 13.9561 58.605C14.0595 58.8217 14.1345 59.0533 14.1811 59.3C14.2278 59.5433 14.2511 59.7867 14.2511 60.03V63H13.5111ZM9.60613 63V57.6H10.2711V58.93H10.3461V63H9.60613ZM17.5636 63.145C16.9303 63.145 16.4086 63.0083 15.9986 62.735C15.592 62.4617 15.342 62.0817 15.2486 61.595L15.9986 61.47C16.0786 61.7767 16.2603 62.0217 16.5436 62.205C16.8303 62.385 17.1836 62.475 17.6036 62.475C18.0136 62.475 18.337 62.39 18.5736 62.22C18.8103 62.0467 18.9286 61.8117 18.9286 61.515C18.9286 61.3483 18.8903 61.2133 18.8136 61.11C18.7403 61.0033 18.5886 60.905 18.3586 60.815C18.1286 60.725 17.7853 60.6183 17.3286 60.495C16.8386 60.3617 16.4553 60.2283 16.1786 60.095C15.902 59.9617 15.7053 59.8083 15.5886 59.635C15.472 59.4583 15.4136 59.2433 15.4136 58.99C15.4136 58.6833 15.5003 58.415 15.6736 58.185C15.847 57.9517 16.087 57.7717 16.3936 57.645C16.7003 57.515 17.057 57.45 17.4636 57.45C17.8703 57.45 18.2336 57.5167 18.5536 57.65C18.877 57.78 19.137 57.9633 19.3336 58.2C19.5303 58.4367 19.647 58.7117 19.6836 59.025L18.9336 59.16C18.8836 58.8433 18.7253 58.5933 18.4586 58.41C18.1953 58.2233 17.8603 58.1267 17.4536 58.12C17.0703 58.11 16.7586 58.1833 16.5186 58.34C16.2786 58.4933 16.1586 58.6983 16.1586 58.955C16.1586 59.0983 16.202 59.2217 16.2886 59.325C16.3753 59.425 16.532 59.52 16.7586 59.61C16.9886 59.7 17.3153 59.7983 17.7386 59.905C18.2353 60.0317 18.6253 60.165 18.9086 60.305C19.192 60.445 19.3936 60.61 19.5136 60.8C19.6336 60.99 19.6936 61.225 19.6936 61.505C19.6936 62.015 19.5036 62.4167 19.1236 62.71C18.747 63 18.227 63.145 17.5636 63.145ZM23.7425 63C23.4392 63.0633 23.1392 63.0883 22.8425 63.075C22.5492 63.0617 22.2859 62.9983 22.0525 62.885C21.8225 62.7717 21.6475 62.595 21.5275 62.355C21.4309 62.155 21.3775 61.9533 21.3675 61.75C21.3609 61.5433 21.3575 61.3083 21.3575 61.045V56.1H22.0875V61.015C22.0875 61.2417 22.0892 61.4317 22.0925 61.585C22.0992 61.735 22.1342 61.8683 22.1975 61.985C22.3175 62.2083 22.5075 62.3417 22.7675 62.385C23.0309 62.4283 23.3559 62.4183 23.7425 62.355V63ZM20.2025 58.23V57.6H23.7425V58.23H20.2025ZM26.3514 63.15C25.9448 63.15 25.6031 63.0767 25.3264 62.93C25.0531 62.7833 24.8481 62.5883 24.7114 62.345C24.5748 62.1017 24.5064 61.8367 24.5064 61.55C24.5064 61.2567 24.5648 61.0067 24.6814 60.8C24.8014 60.59 24.9631 60.4183 25.1664 60.285C25.3731 60.1517 25.6114 60.05 25.8814 59.98C26.1548 59.9133 26.4564 59.855 26.7864 59.805C27.1198 59.7517 27.4448 59.7067 27.7614 59.67C28.0814 59.63 28.3614 59.5917 28.6014 59.555L28.3414 59.715C28.3514 59.1817 28.2481 58.7867 28.0314 58.53C27.8148 58.2733 27.4381 58.145 26.9014 58.145C26.5314 58.145 26.2181 58.2283 25.9614 58.395C25.7081 58.5617 25.5298 58.825 25.4264 59.185L24.7114 58.975C24.8348 58.4917 25.0831 58.1167 25.4564 57.85C25.8298 57.5833 26.3148 57.45 26.9114 57.45C27.4048 57.45 27.8231 57.5433 28.1664 57.73C28.5131 57.9133 28.7581 58.18 28.9014 58.53C28.9681 58.6867 29.0114 58.8617 29.0314 59.055C29.0514 59.2483 29.0614 59.445 29.0614 59.645V63H28.4064V61.645L28.5964 61.725C28.4131 62.1883 28.1281 62.5417 27.7414 62.785C27.3548 63.0283 26.8914 63.15 26.3514 63.15ZM26.4364 62.515C26.7798 62.515 27.0798 62.4533 27.3364 62.33C27.5931 62.2067 27.7998 62.0383 27.9564 61.825C28.1131 61.6083 28.2148 61.365 28.2614 61.095C28.3014 60.9217 28.3231 60.7317 28.3264 60.525C28.3298 60.315 28.3314 60.1583 28.3314 60.055L28.6114 60.2C28.3614 60.2333 28.0898 60.2667 27.7964 60.3C27.5064 60.3333 27.2198 60.3717 26.9364 60.415C26.6564 60.4583 26.4031 60.51 26.1764 60.57C26.0231 60.6133 25.8748 60.675 25.7314 60.755C25.5881 60.8317 25.4698 60.935 25.3764 61.065C25.2864 61.195 25.2414 61.3567 25.2414 61.55C25.2414 61.7067 25.2798 61.8583 25.3564 62.005C25.4364 62.1517 25.5631 62.2733 25.7364 62.37C25.9131 62.4667 26.1464 62.515 26.4364 62.515ZM30.4631 63V55.65H31.1981V63H30.4631ZM32.7971 63V55.65H33.5321V63H32.7971ZM41.4711 63L41.4761 59.455C41.4761 59.0383 41.3594 58.7117 41.1261 58.475C40.8961 58.235 40.6027 58.115 40.2461 58.115C40.0427 58.115 39.8444 58.1617 39.6511 58.255C39.4577 58.3483 39.2977 58.4983 39.1711 58.705C39.0477 58.9117 38.9861 59.1817 38.9861 59.515L38.5511 59.39C38.5411 59.0033 38.6161 58.665 38.7761 58.375C38.9394 58.085 39.1627 57.86 39.4461 57.7C39.7327 57.5367 40.0561 57.455 40.4161 57.455C40.9594 57.455 41.3944 57.6233 41.7211 57.96C42.0477 58.2933 42.2111 58.745 42.2111 59.315L42.2061 63H41.4711ZM35.0261 63V57.6H35.6861V58.93H35.7661V63H35.0261ZM38.2561 63L38.2611 59.505C38.2611 59.075 38.1461 58.7367 37.9161 58.49C37.6894 58.24 37.3894 58.115 37.0161 58.115C36.6427 58.115 36.3411 58.2433 36.1111 58.5C35.8811 58.7533 35.7661 59.0917 35.7661 59.515L35.3261 59.275C35.3261 58.9283 35.4077 58.6183 35.5711 58.345C35.7344 58.0683 35.9577 57.8517 36.2411 57.695C36.5244 57.535 36.8461 57.455 37.2061 57.455C37.5494 57.455 37.8544 57.5283 38.1211 57.675C38.3911 57.8217 38.6027 58.035 38.7561 58.315C38.9094 58.595 38.9861 58.935 38.9861 59.335L38.9811 63H38.2561ZM45.7633 63.15C45.2367 63.15 44.78 63.0333 44.3933 62.8C44.01 62.5667 43.7117 62.2383 43.4983 61.815C43.285 61.3917 43.1783 60.895 43.1783 60.325C43.1783 59.735 43.2833 59.225 43.4933 58.795C43.7033 58.365 43.9983 58.0333 44.3783 57.8C44.7617 57.5667 45.2133 57.45 45.7333 57.45C46.2667 57.45 46.7217 57.5733 47.0983 57.82C47.475 58.0633 47.76 58.4133 47.9533 58.87C48.1467 59.3267 48.235 59.8717 48.2183 60.505H47.4683V60.245C47.455 59.545 47.3033 59.0167 47.0133 58.66C46.7267 58.3033 46.3067 58.125 45.7533 58.125C45.1733 58.125 44.7283 58.3133 44.4183 58.69C44.1117 59.0667 43.9583 59.6033 43.9583 60.3C43.9583 60.98 44.1117 61.5083 44.4183 61.885C44.7283 62.2583 45.1667 62.445 45.7333 62.445C46.12 62.445 46.4567 62.3567 46.7433 62.18C47.0333 62 47.2617 61.7417 47.4283 61.405L48.1133 61.67C47.9 62.14 47.585 62.505 47.1683 62.765C46.755 63.0217 46.2867 63.15 45.7633 63.15ZM43.6983 60.505V59.89H47.8233V60.505H43.6983ZM53.0814 63V60.245C53.0814 59.945 53.0531 59.67 52.9964 59.42C52.9398 59.1667 52.8481 58.9467 52.7214 58.76C52.5981 58.57 52.4364 58.4233 52.2364 58.32C52.0398 58.2167 51.7998 58.165 51.5164 58.165C51.2564 58.165 51.0264 58.21 50.8264 58.3C50.6298 58.39 50.4631 58.52 50.3264 58.69C50.1931 58.8567 50.0914 59.06 50.0214 59.3C49.9514 59.54 49.9164 59.8133 49.9164 60.12L49.3964 60.005C49.3964 59.4517 49.4931 58.9867 49.6864 58.61C49.8798 58.2333 50.1464 57.9483 50.4864 57.755C50.8264 57.5617 51.2164 57.465 51.6564 57.465C51.9798 57.465 52.2614 57.515 52.5014 57.615C52.7448 57.715 52.9498 57.85 53.1164 58.02C53.2864 58.19 53.4231 58.385 53.5264 58.605C53.6298 58.8217 53.7048 59.0533 53.7514 59.3C53.7981 59.5433 53.8214 59.7867 53.8214 60.03V63H53.0814ZM49.1764 63V57.6H49.8414V58.93H49.9164V63H49.1764ZM58.0589 63C57.7556 63.0633 57.4556 63.0883 57.1589 63.075C56.8656 63.0617 56.6023 62.9983 56.3689 62.885C56.1389 62.7717 55.9639 62.595 55.8439 62.355C55.7473 62.155 55.6939 61.9533 55.6839 61.75C55.6773 61.5433 55.6739 61.3083 55.6739 61.045V56.1H56.4039V61.015C56.4039 61.2417 56.4056 61.4317 56.4089 61.585C56.4156 61.735 56.4506 61.8683 56.5139 61.985C56.6339 62.2083 56.8239 62.3417 57.0839 62.385C57.3473 62.4283 57.6723 62.4183 58.0589 62.355V63ZM54.5189 58.23V57.6H58.0589V58.23H54.5189Z" fill="black"/>
<path d="M85.999 48.9951L86.004 48.3251L89.259 45.3851C89.539 45.1318 89.724 44.8918 89.814 44.6651C89.9074 44.4351 89.954 44.1951 89.954 43.9451C89.954 43.6485 89.884 43.3801 89.744 43.1401C89.604 42.9001 89.4157 42.7101 89.179 42.5701C88.9424 42.4268 88.6774 42.3551 88.384 42.3551C88.0774 42.3551 87.804 42.4285 87.564 42.5751C87.324 42.7218 87.134 42.9151 86.994 43.1551C86.8574 43.3951 86.7907 43.6568 86.794 43.9401H86.044C86.044 43.5035 86.1474 43.1118 86.354 42.7651C86.5607 42.4185 86.8407 42.1468 87.194 41.9501C87.5474 41.7501 87.9474 41.6501 88.394 41.6501C88.8307 41.6501 89.2224 41.7535 89.569 41.9601C89.919 42.1635 90.194 42.4401 90.394 42.7901C90.5974 43.1368 90.699 43.5235 90.699 43.9501C90.699 44.2501 90.6624 44.5151 90.589 44.7451C90.519 44.9718 90.4074 45.1835 90.254 45.3801C90.104 45.5735 89.9124 45.7735 89.679 45.9801L86.789 48.5901L86.674 48.2901H90.699V48.9951H85.999ZM95.0541 49.0001L93.4041 43.5951L94.1391 43.6001L95.4191 47.7951L96.7041 43.6001H97.3741L98.6591 47.7951L99.9491 43.6001H100.679L99.0291 49.0001H98.3891L97.0391 44.7001L95.6941 49.0001H95.0541ZM103.67 49.1501C103.143 49.1501 102.686 49.0335 102.3 48.8001C101.916 48.5668 101.618 48.2385 101.405 47.8151C101.191 47.3918 101.085 46.8951 101.085 46.3251C101.085 45.7351 101.19 45.2251 101.4 44.7951C101.61 44.3651 101.905 44.0335 102.285 43.8001C102.668 43.5668 103.12 43.4501 103.64 43.4501C104.173 43.4501 104.628 43.5735 105.005 43.8201C105.381 44.0635 105.666 44.4135 105.86 44.8701C106.053 45.3268 106.141 45.8718 106.125 46.5051H105.375V46.2451C105.361 45.5451 105.21 45.0168 104.92 44.6601C104.633 44.3035 104.213 44.1251 103.66 44.1251C103.08 44.1251 102.635 44.3135 102.325 44.6901C102.018 45.0668 101.865 45.6035 101.865 46.3001C101.865 46.9801 102.018 47.5085 102.325 47.8851C102.635 48.2585 103.073 48.4451 103.64 48.4451C104.026 48.4451 104.363 48.3568 104.65 48.1801C104.94 48.0001 105.168 47.7418 105.335 47.4051L106.02 47.6701C105.806 48.1401 105.491 48.5051 105.075 48.7651C104.661 49.0218 104.193 49.1501 103.67 49.1501ZM101.605 46.5051V45.8901H105.73V46.5051H101.605ZM109.519 49.1501C108.993 49.1501 108.536 49.0335 108.149 48.8001C107.766 48.5668 107.468 48.2385 107.254 47.8151C107.041 47.3918 106.934 46.8951 106.934 46.3251C106.934 45.7351 107.039 45.2251 107.249 44.7951C107.459 44.3651 107.754 44.0335 108.134 43.8001C108.518 43.5668 108.969 43.4501 109.489 43.4501C110.023 43.4501 110.478 43.5735 110.854 43.8201C111.231 44.0635 111.516 44.4135 111.709 44.8701C111.903 45.3268 111.991 45.8718 111.974 46.5051H111.224V46.2451C111.211 45.5451 111.059 45.0168 110.769 44.6601C110.483 44.3035 110.063 44.1251 109.509 44.1251C108.929 44.1251 108.484 44.3135 108.174 44.6901C107.868 45.0668 107.714 45.6035 107.714 46.3001C107.714 46.9801 107.868 47.5085 108.174 47.8851C108.484 48.2585 108.923 48.4451 109.489 48.4451C109.876 48.4451 110.213 48.3568 110.499 48.1801C110.789 48.0001 111.018 47.7418 111.184 47.4051L111.869 47.6701C111.656 48.1401 111.341 48.5051 110.924 48.7651C110.511 49.0218 110.043 49.1501 109.519 49.1501ZM107.454 46.5051V45.8901H111.579V46.5051H107.454ZM113.079 49.0001L113.084 41.8001H113.824V46.2001L116.234 43.6001H117.214L114.684 46.3001L117.544 49.0001H116.474L113.824 46.4001V49.0001H113.079ZM119.962 49.1451C119.329 49.1451 118.807 49.0085 118.397 48.7351C117.99 48.4618 117.74 48.0818 117.647 47.5951L118.397 47.4701C118.477 47.7768 118.659 48.0218 118.942 48.2051C119.229 48.3851 119.582 48.4751 120.002 48.4751C120.412 48.4751 120.735 48.3901 120.972 48.2201C121.209 48.0468 121.327 47.8118 121.327 47.5151C121.327 47.3485 121.289 47.2135 121.212 47.1101C121.139 47.0035 120.987 46.9051 120.757 46.8151C120.527 46.7251 120.184 46.6185 119.727 46.4951C119.237 46.3618 118.854 46.2285 118.577 46.0951C118.3 45.9618 118.104 45.8085 117.987 45.6351C117.87 45.4585 117.812 45.2435 117.812 44.9901C117.812 44.6835 117.899 44.4151 118.072 44.1851C118.245 43.9518 118.485 43.7718 118.792 43.6451C119.099 43.5151 119.455 43.4501 119.862 43.4501C120.269 43.4501 120.632 43.5168 120.952 43.6501C121.275 43.7801 121.535 43.9635 121.732 44.2001C121.929 44.4368 122.045 44.7118 122.082 45.0251L121.332 45.1601C121.282 44.8435 121.124 44.5935 120.857 44.4101C120.594 44.2235 120.259 44.1268 119.852 44.1201C119.469 44.1101 119.157 44.1835 118.917 44.3401C118.677 44.4935 118.557 44.6985 118.557 44.9551C118.557 45.0985 118.6 45.2218 118.687 45.3251C118.774 45.4251 118.93 45.5201 119.157 45.6101C119.387 45.7001 119.714 45.7985 120.137 45.9051C120.634 46.0318 121.024 46.1651 121.307 46.3051C121.59 46.4451 121.792 46.6101 121.912 46.8001C122.032 46.9901 122.092 47.2251 122.092 47.5051C122.092 48.0151 121.902 48.4168 121.522 48.7101C121.145 49.0001 120.625 49.1451 119.962 49.1451ZM94.2238 63.0001V55.6501H94.9588V63.0001H94.2238ZM98.0028 63.1501C97.5961 63.1501 97.2545 63.0768 96.9778 62.9301C96.7045 62.7835 96.4995 62.5885 96.3628 62.3451C96.2261 62.1018 96.1578 61.8368 96.1578 61.5501C96.1578 61.2568 96.2161 61.0068 96.3328 60.8001C96.4528 60.5901 96.6145 60.4185 96.8178 60.2851C97.0245 60.1518 97.2628 60.0501 97.5328 59.9801C97.8061 59.9135 98.1078 59.8551 98.4378 59.8051C98.7711 59.7518 99.0961 59.7068 99.4128 59.6701C99.7328 59.6301 100.013 59.5918 100.253 59.5551L99.9928 59.7151C100.003 59.1818 99.8995 58.7868 99.6828 58.5301C99.4661 58.2735 99.0895 58.1451 98.5528 58.1451C98.1828 58.1451 97.8695 58.2285 97.6128 58.3951C97.3595 58.5618 97.1811 58.8251 97.0778 59.1851L96.3628 58.9751C96.4861 58.4918 96.7345 58.1168 97.1078 57.8501C97.4811 57.5835 97.9661 57.4501 98.5628 57.4501C99.0561 57.4501 99.4745 57.5435 99.8178 57.7301C100.164 57.9135 100.409 58.1801 100.553 58.5301C100.619 58.6868 100.663 58.8618 100.683 59.0551C100.703 59.2485 100.713 59.4451 100.713 59.6451V63.0001H100.058V61.6451L100.248 61.7251C100.064 62.1885 99.7795 62.5418 99.3928 62.7851C99.0061 63.0285 98.5428 63.1501 98.0028 63.1501ZM98.0878 62.5151C98.4311 62.5151 98.7311 62.4535 98.9878 62.3301C99.2445 62.2068 99.4511 62.0385 99.6078 61.8251C99.7645 61.6085 99.8661 61.3651 99.9128 61.0951C99.9528 60.9218 99.9745 60.7318 99.9778 60.5251C99.9811 60.3151 99.9828 60.1585 99.9828 60.0551L100.263 60.2001C100.013 60.2335 99.7411 60.2668 99.4478 60.3001C99.1578 60.3335 98.8711 60.3718 98.5878 60.4151C98.3078 60.4585 98.0545 60.5101 97.8278 60.5701C97.6745 60.6135 97.5261 60.6751 97.3828 60.7551C97.2395 60.8318 97.1211 60.9351 97.0278 61.0651C96.9378 61.1951 96.8928 61.3568 96.8928 61.5501C96.8928 61.7068 96.9311 61.8585 97.0078 62.0051C97.0878 62.1518 97.2145 62.2735 97.3878 62.3701C97.5645 62.4668 97.7978 62.5151 98.0878 62.5151ZM104.954 63.0001C104.651 63.0635 104.351 63.0885 104.054 63.0751C103.761 63.0618 103.498 62.9985 103.264 62.8851C103.034 62.7718 102.859 62.5951 102.739 62.3551C102.643 62.1551 102.589 61.9535 102.579 61.7501C102.573 61.5435 102.569 61.3085 102.569 61.0451V56.1001H103.299V61.0151C103.299 61.2418 103.301 61.4318 103.304 61.5851C103.311 61.7351 103.346 61.8685 103.409 61.9851C103.529 62.2085 103.719 62.3418 103.979 62.3851C104.243 62.4285 104.568 62.4185 104.954 62.3551V63.0001ZM101.414 58.2301V57.6001H104.954V58.2301H101.414ZM108.108 63.1501C107.581 63.1501 107.125 63.0335 106.738 62.8001C106.355 62.5668 106.056 62.2385 105.843 61.8151C105.63 61.3918 105.523 60.8951 105.523 60.3251C105.523 59.7351 105.628 59.2251 105.838 58.7951C106.048 58.3651 106.343 58.0335 106.723 57.8001C107.106 57.5668 107.558 57.4501 108.078 57.4501C108.611 57.4501 109.066 57.5735 109.443 57.8201C109.82 58.0635 110.105 58.4135 110.298 58.8701C110.491 59.3268 110.58 59.8718 110.563 60.5051H109.813V60.2451C109.8 59.5451 109.648 59.0168 109.358 58.6601C109.071 58.3035 108.651 58.1251 108.098 58.1251C107.518 58.1251 107.073 58.3135 106.763 58.6901C106.456 59.0668 106.303 59.6035 106.303 60.3001C106.303 60.9801 106.456 61.5085 106.763 61.8851C107.073 62.2585 107.511 62.4451 108.078 62.4451C108.465 62.4451 108.801 62.3568 109.088 62.1801C109.378 62.0001 109.606 61.7418 109.773 61.4051L110.458 61.6701C110.245 62.1401 109.93 62.5051 109.513 62.7651C109.1 63.0218 108.631 63.1501 108.108 63.1501ZM106.043 60.5051V59.8901H110.168V60.5051H106.043ZM111.673 63.0001V57.6001H112.333V58.9001L112.203 58.7301C112.263 58.5701 112.341 58.4235 112.438 58.2901C112.534 58.1535 112.639 58.0418 112.753 57.9551C112.893 57.8318 113.056 57.7385 113.243 57.6751C113.429 57.6085 113.618 57.5701 113.808 57.5601C113.998 57.5468 114.171 57.5601 114.328 57.6001V58.2901C114.131 58.2401 113.916 58.2285 113.683 58.2551C113.449 58.2818 113.234 58.3751 113.038 58.5351C112.858 58.6751 112.723 58.8435 112.633 59.0401C112.543 59.2335 112.483 59.4401 112.453 59.6601C112.423 59.8768 112.408 60.0918 112.408 60.3051V63.0001H111.673Z" fill="black"/>
<path d="M161.222 49.1451C160.865 49.1451 160.537 49.0818 160.237 48.9551C159.937 48.8285 159.679 48.6485 159.462 48.4151C159.245 48.1785 159.087 47.8968 158.987 47.5701L159.687 47.3601C159.807 47.7168 160.004 47.9868 160.277 48.1701C160.554 48.3535 160.865 48.4418 161.212 48.4351C161.532 48.4285 161.807 48.3568 162.037 48.2201C162.27 48.0835 162.449 47.8935 162.572 47.6501C162.695 47.4068 162.757 47.1251 162.757 46.8051C162.757 46.3151 162.614 45.9218 162.327 45.6251C162.044 45.3251 161.669 45.1751 161.202 45.1751C161.072 45.1751 160.935 45.1935 160.792 45.2301C160.649 45.2635 160.515 45.3118 160.392 45.3751L160.022 44.7901L162.822 42.2051L162.942 42.5051H159.272V41.8001H163.432V42.5151L160.992 44.8451L160.982 44.5551C161.482 44.4918 161.922 44.5485 162.302 44.7251C162.682 44.9018 162.979 45.1718 163.192 45.5351C163.409 45.8951 163.517 46.3185 163.517 46.8051C163.517 47.2651 163.417 47.6718 163.217 48.0251C163.02 48.3751 162.749 48.6501 162.402 48.8501C162.055 49.0468 161.662 49.1451 161.222 49.1451ZM167.966 49.0001L166.316 43.5951L167.051 43.6001L168.331 47.7951L169.616 43.6001H170.286L171.571 47.7951L172.861 43.6001H173.591L171.941 49.0001H171.301L169.951 44.7001L168.606 49.0001H167.966ZM176.582 49.1501C176.055 49.1501 175.598 49.0335 175.212 48.8001C174.828 48.5668 174.53 48.2385 174.317 47.8151C174.103 47.3918 173.997 46.8951 173.997 46.3251C173.997 45.7351 174.102 45.2251 174.312 44.7951C174.522 44.3651 174.817 44.0335 175.197 43.8001C175.58 43.5668 176.032 43.4501 176.552 43.4501C177.085 43.4501 177.54 43.5735 177.917 43.8201C178.293 44.0635 178.578 44.4135 178.772 44.8701C178.965 45.3268 179.053 45.8718 179.037 46.5051H178.287V46.2451C178.273 45.5451 178.122 45.0168 177.832 44.6601C177.545 44.3035 177.125 44.1251 176.572 44.1251C175.992 44.1251 175.547 44.3135 175.237 44.6901C174.93 45.0668 174.777 45.6035 174.777 46.3001C174.777 46.9801 174.93 47.5085 175.237 47.8851C175.547 48.2585 175.985 48.4451 176.552 48.4451C176.938 48.4451 177.275 48.3568 177.562 48.1801C177.852 48.0001 178.08 47.7418 178.247 47.4051L178.932 47.6701C178.718 48.1401 178.403 48.5051 177.987 48.7651C177.573 49.0218 177.105 49.1501 176.582 49.1501ZM174.517 46.5051V45.8901H178.642V46.5051H174.517ZM182.431 49.1501C181.905 49.1501 181.448 49.0335 181.061 48.8001C180.678 48.5668 180.38 48.2385 180.166 47.8151C179.953 47.3918 179.846 46.8951 179.846 46.3251C179.846 45.7351 179.951 45.2251 180.161 44.7951C180.371 44.3651 180.666 44.0335 181.046 43.8001C181.43 43.5668 181.881 43.4501 182.401 43.4501C182.935 43.4501 183.39 43.5735 183.766 43.8201C184.143 44.0635 184.428 44.4135 184.621 44.8701C184.815 45.3268 184.903 45.8718 184.886 46.5051H184.136V46.2451C184.123 45.5451 183.971 45.0168 183.681 44.6601C183.395 44.3035 182.975 44.1251 182.421 44.1251C181.841 44.1251 181.396 44.3135 181.086 44.6901C180.78 45.0668 180.626 45.6035 180.626 46.3001C180.626 46.9801 180.78 47.5085 181.086 47.8851C181.396 48.2585 181.835 48.4451 182.401 48.4451C182.788 48.4451 183.125 48.3568 183.411 48.1801C183.701 48.0001 183.93 47.7418 184.096 47.4051L184.781 47.6701C184.568 48.1401 184.253 48.5051 183.836 48.7651C183.423 49.0218 182.955 49.1501 182.431 49.1501ZM180.366 46.5051V45.8901H184.491V46.5051H180.366ZM185.991 49.0001L185.996 41.8001H186.736V46.2001L189.146 43.6001H190.126L187.596 46.3001L190.456 49.0001H189.386L186.736 46.4001V49.0001H185.991ZM192.874 49.1451C192.241 49.1451 191.719 49.0085 191.309 48.7351C190.903 48.4618 190.653 48.0818 190.559 47.5951L191.309 47.4701C191.389 47.7768 191.571 48.0218 191.854 48.2051C192.141 48.3851 192.494 48.4751 192.914 48.4751C193.324 48.4751 193.648 48.3901 193.884 48.2201C194.121 48.0468 194.239 47.8118 194.239 47.5151C194.239 47.3485 194.201 47.2135 194.124 47.1101C194.051 47.0035 193.899 46.9051 193.669 46.8151C193.439 46.7251 193.096 46.6185 192.639 46.4951C192.149 46.3618 191.766 46.2285 191.489 46.0951C191.213 45.9618 191.016 45.8085 190.899 45.6351C190.783 45.4585 190.724 45.2435 190.724 44.9901C190.724 44.6835 190.811 44.4151 190.984 44.1851C191.158 43.9518 191.398 43.7718 191.704 43.6451C192.011 43.5151 192.368 43.4501 192.774 43.4501C193.181 43.4501 193.544 43.5168 193.864 43.6501C194.188 43.7801 194.448 43.9635 194.644 44.2001C194.841 44.4368 194.958 44.7118 194.994 45.0251L194.244 45.1601C194.194 44.8435 194.036 44.5935 193.769 44.4101C193.506 44.2235 193.171 44.1268 192.764 44.1201C192.381 44.1101 192.069 44.1835 191.829 44.3401C191.589 44.4935 191.469 44.6985 191.469 44.9551C191.469 45.0985 191.513 45.2218 191.599 45.3251C191.686 45.4251 191.843 45.5201 192.069 45.6101C192.299 45.7001 192.626 45.7985 193.049 45.9051C193.546 46.0318 193.936 46.1651 194.219 46.3051C194.503 46.4451 194.704 46.6101 194.824 46.8001C194.944 46.9901 195.004 47.2251 195.004 47.5051C195.004 48.0151 194.814 48.4168 194.434 48.7101C194.058 49.0001 193.538 49.1451 192.874 49.1451ZM167.224 63.0001V55.6501H167.959V63.0001H167.224ZM171.003 63.1501C170.596 63.1501 170.254 63.0768 169.978 62.9301C169.704 62.7835 169.499 62.5885 169.363 62.3451C169.226 62.1018 169.158 61.8368 169.158 61.5501C169.158 61.2568 169.216 61.0068 169.333 60.8001C169.453 60.5901 169.614 60.4185 169.818 60.2851C170.024 60.1518 170.263 60.0501 170.533 59.9801C170.806 59.9135 171.108 59.8551 171.438 59.8051C171.771 59.7518 172.096 59.7068 172.413 59.6701C172.733 59.6301 173.013 59.5918 173.253 59.5551L172.993 59.7151C173.003 59.1818 172.899 58.7868 172.683 58.5301C172.466 58.2735 172.089 58.1451 171.553 58.1451C171.183 58.1451 170.869 58.2285 170.613 58.3951C170.359 58.5618 170.181 58.8251 170.078 59.1851L169.363 58.9751C169.486 58.4918 169.734 58.1168 170.108 57.8501C170.481 57.5835 170.966 57.4501 171.563 57.4501C172.056 57.4501 172.474 57.5435 172.818 57.7301C173.164 57.9135 173.409 58.1801 173.553 58.5301C173.619 58.6868 173.663 58.8618 173.683 59.0551C173.703 59.2485 173.713 59.4451 173.713 59.6451V63.0001H173.058V61.6451L173.248 61.7251C173.064 62.1885 172.779 62.5418 172.393 62.7851C172.006 63.0285 171.543 63.1501 171.003 63.1501ZM171.088 62.5151C171.431 62.5151 171.731 62.4535 171.988 62.3301C172.244 62.2068 172.451 62.0385 172.608 61.8251C172.764 61.6085 172.866 61.3651 172.913 61.0951C172.953 60.9218 172.974 60.7318 172.978 60.5251C172.981 60.3151 172.983 60.1585 172.983 60.0551L173.263 60.2001C173.013 60.2335 172.741 60.2668 172.448 60.3001C172.158 60.3335 171.871 60.3718 171.588 60.4151C171.308 60.4585 171.054 60.5101 170.828 60.5701C170.674 60.6135 170.526 60.6751 170.383 60.7551C170.239 60.8318 170.121 60.9351 170.028 61.0651C169.938 61.1951 169.893 61.3568 169.893 61.5501C169.893 61.7068 169.931 61.8585 170.008 62.0051C170.088 62.1518 170.214 62.2735 170.388 62.3701C170.564 62.4668 170.798 62.5151 171.088 62.5151ZM177.954 63.0001C177.651 63.0635 177.351 63.0885 177.054 63.0751C176.761 63.0618 176.498 62.9985 176.264 62.8851C176.034 62.7718 175.859 62.5951 175.739 62.3551C175.643 62.1551 175.589 61.9535 175.579 61.7501C175.573 61.5435 175.569 61.3085 175.569 61.0451V56.1001H176.299V61.0151C176.299 61.2418 176.301 61.4318 176.304 61.5851C176.311 61.7351 176.346 61.8685 176.409 61.9851C176.529 62.2085 176.719 62.3418 176.979 62.3851C177.243 62.4285 177.568 62.4185 177.954 62.3551V63.0001ZM174.414 58.2301V57.6001H177.954V58.2301H174.414ZM181.108 63.1501C180.581 63.1501 180.125 63.0335 179.738 62.8001C179.355 62.5668 179.056 62.2385 178.843 61.8151C178.63 61.3918 178.523 60.8951 178.523 60.3251C178.523 59.7351 178.628 59.2251 178.838 58.7951C179.048 58.3651 179.343 58.0335 179.723 57.8001C180.106 57.5668 180.558 57.4501 181.078 57.4501C181.611 57.4501 182.066 57.5735 182.443 57.8201C182.82 58.0635 183.105 58.4135 183.298 58.8701C183.491 59.3268 183.58 59.8718 183.563 60.5051H182.813V60.2451C182.8 59.5451 182.648 59.0168 182.358 58.6601C182.071 58.3035 181.651 58.1251 181.098 58.1251C180.518 58.1251 180.073 58.3135 179.763 58.6901C179.456 59.0668 179.303 59.6035 179.303 60.3001C179.303 60.9801 179.456 61.5085 179.763 61.8851C180.073 62.2585 180.511 62.4451 181.078 62.4451C181.465 62.4451 181.801 62.3568 182.088 62.1801C182.378 62.0001 182.606 61.7418 182.773 61.4051L183.458 61.6701C183.245 62.1401 182.93 62.5051 182.513 62.7651C182.1 63.0218 181.631 63.1501 181.108 63.1501ZM179.043 60.5051V59.8901H183.168V60.5051H179.043ZM184.673 63.0001V57.6001H185.333V58.9001L185.203 58.7301C185.263 58.5701 185.341 58.4235 185.438 58.2901C185.534 58.1535 185.639 58.0418 185.753 57.9551C185.893 57.8318 186.056 57.7385 186.243 57.6751C186.429 57.6085 186.618 57.5701 186.808 57.5601C186.998 57.5468 187.171 57.5601 187.328 57.6001V58.2901C187.131 58.2401 186.916 58.2285 186.683 58.2551C186.449 58.2818 186.234 58.3751 186.038 58.5351C185.858 58.6751 185.723 58.8435 185.633 59.0401C185.543 59.2335 185.483 59.4401 185.453 59.6601C185.423 59.8768 185.408 60.0918 185.408 60.3051V63.0001H184.673Z" fill="black"/>
<path d="M229.354 49.0878V47.6928H225.984V46.9928L228.394 41.8878H229.219L226.809 46.9928H229.354V44.8928H230.094V46.9928H230.879V47.6928H230.094V49.0878H229.354ZM235.235 49.0878L233.585 43.6828L234.32 43.6878L235.6 47.8828L236.885 43.6878H237.555L238.84 47.8828L240.13 43.6878H240.86L239.21 49.0878H238.57L237.22 44.7878L235.875 49.0878H235.235ZM243.85 49.2378C243.324 49.2378 242.867 49.1211 242.48 48.8878C242.097 48.6544 241.799 48.3261 241.585 47.9028C241.372 47.4794 241.265 46.9828 241.265 46.4128C241.265 45.8228 241.37 45.3128 241.58 44.8828C241.79 44.4528 242.085 44.1211 242.465 43.8878C242.849 43.6544 243.3 43.5378 243.82 43.5378C244.354 43.5378 244.809 43.6611 245.185 43.9078C245.562 44.1511 245.847 44.5011 246.04 44.9578C246.234 45.4144 246.322 45.9594 246.305 46.5928H245.555V46.3328C245.542 45.6328 245.39 45.1044 245.1 44.7478C244.814 44.3911 244.394 44.2128 243.84 44.2128C243.26 44.2128 242.815 44.4011 242.505 44.7778C242.199 45.1544 242.045 45.6911 242.045 46.3878C242.045 47.0678 242.199 47.5961 242.505 47.9728C242.815 48.3461 243.254 48.5328 243.82 48.5328C244.207 48.5328 244.544 48.4444 244.83 48.2678C245.12 48.0878 245.349 47.8294 245.515 47.4928L246.2 47.7578C245.987 48.2278 245.672 48.5928 245.255 48.8528C244.842 49.1094 244.374 49.2378 243.85 49.2378ZM241.785 46.5928V45.9778H245.91V46.5928H241.785ZM249.7 49.2378C249.173 49.2378 248.717 49.1211 248.33 48.8878C247.947 48.6544 247.648 48.3261 247.435 47.9028C247.222 47.4794 247.115 46.9828 247.115 46.4128C247.115 45.8228 247.22 45.3128 247.43 44.8828C247.64 44.4528 247.935 44.1211 248.315 43.8878C248.698 43.6544 249.15 43.5378 249.67 43.5378C250.203 43.5378 250.658 43.6611 251.035 43.9078C251.412 44.1511 251.697 44.5011 251.89 44.9578C252.083 45.4144 252.172 45.9594 252.155 46.5928H251.405V46.3328C251.392 45.6328 251.24 45.1044 250.95 44.7478C250.663 44.3911 250.243 44.2128 249.69 44.2128C249.11 44.2128 248.665 44.4011 248.355 44.7778C248.048 45.1544 247.895 45.6911 247.895 46.3878C247.895 47.0678 248.048 47.5961 248.355 47.9728C248.665 48.3461 249.103 48.5328 249.67 48.5328C250.057 48.5328 250.393 48.4444 250.68 48.2678C250.97 48.0878 251.198 47.8294 251.365 47.4928L252.05 47.7578C251.837 48.2278 251.522 48.5928 251.105 48.8528C250.692 49.1094 250.223 49.2378 249.7 49.2378ZM247.635 46.5928V45.9778H251.76V46.5928H247.635ZM253.26 49.0878L253.265 41.8878H254.005V46.2878L256.415 43.6878H257.395L254.865 46.3878L257.725 49.0878H256.655L254.005 46.4878V49.0878H253.26ZM260.143 49.2328C259.509 49.2328 258.988 49.0961 258.578 48.8228C258.171 48.5494 257.921 48.1694 257.828 47.6828L258.578 47.5578C258.658 47.8644 258.839 48.1094 259.123 48.2928C259.409 48.4728 259.763 48.5628 260.183 48.5628C260.593 48.5628 260.916 48.4778 261.153 48.3078C261.389 48.1344 261.508 47.8994 261.508 47.6028C261.508 47.4361 261.469 47.3011 261.393 47.1978C261.319 47.0911 261.168 46.9928 260.938 46.9028C260.708 46.8128 260.364 46.7061 259.908 46.5828C259.418 46.4494 259.034 46.3161 258.758 46.1828C258.481 46.0494 258.284 45.8961 258.168 45.7228C258.051 45.5461 257.993 45.3311 257.993 45.0778C257.993 44.7711 258.079 44.5028 258.253 44.2728C258.426 44.0394 258.666 43.8594 258.973 43.7328C259.279 43.6028 259.636 43.5378 260.043 43.5378C260.449 43.5378 260.813 43.6044 261.133 43.7378C261.456 43.8678 261.716 44.0511 261.913 44.2878C262.109 44.5244 262.226 44.7994 262.263 45.1128L261.513 45.2478C261.463 44.9311 261.304 44.6811 261.038 44.4978C260.774 44.3111 260.439 44.2144 260.033 44.2078C259.649 44.1978 259.338 44.2711 259.098 44.4278C258.858 44.5811 258.738 44.7861 258.738 45.0428C258.738 45.1861 258.781 45.3094 258.868 45.4128C258.954 45.5128 259.111 45.6078 259.338 45.6978C259.568 45.7878 259.894 45.8861 260.318 45.9928C260.814 46.1194 261.204 46.2528 261.488 46.3928C261.771 46.5328 261.973 46.6978 262.093 46.8878C262.213 47.0778 262.273 47.3128 262.273 47.5928C262.273 48.1028 262.083 48.5044 261.703 48.7978C261.326 49.0878 260.806 49.2328 260.143 49.2328ZM234.307 63.0878V55.7378H235.042V63.0878H234.307ZM238.086 63.2378C237.679 63.2378 237.338 63.1644 237.061 63.0178C236.788 62.8711 236.583 62.6761 236.446 62.4328C236.309 62.1894 236.241 61.9244 236.241 61.6378C236.241 61.3444 236.299 61.0944 236.416 60.8878C236.536 60.6778 236.698 60.5061 236.901 60.3728C237.108 60.2394 237.346 60.1378 237.616 60.0678C237.889 60.0011 238.191 59.9428 238.521 59.8928C238.854 59.8394 239.179 59.7944 239.496 59.7578C239.816 59.7178 240.096 59.6794 240.336 59.6428L240.076 59.8028C240.086 59.2694 239.983 58.8744 239.766 58.6178C239.549 58.3611 239.173 58.2328 238.636 58.2328C238.266 58.2328 237.953 58.3161 237.696 58.4828C237.443 58.6494 237.264 58.9128 237.161 59.2728L236.446 59.0628C236.569 58.5794 236.818 58.2044 237.191 57.9378C237.564 57.6711 238.049 57.5378 238.646 57.5378C239.139 57.5378 239.558 57.6311 239.901 57.8178C240.248 58.0011 240.493 58.2678 240.636 58.6178C240.703 58.7744 240.746 58.9494 240.766 59.1428C240.786 59.3361 240.796 59.5328 240.796 59.7328V63.0878H240.141V61.7328L240.331 61.8128C240.148 62.2761 239.863 62.6294 239.476 62.8728C239.089 63.1161 238.626 63.2378 238.086 63.2378ZM238.171 62.6028C238.514 62.6028 238.814 62.5411 239.071 62.4178C239.328 62.2944 239.534 62.1261 239.691 61.9128C239.848 61.6961 239.949 61.4528 239.996 61.1828C240.036 61.0094 240.058 60.8194 240.061 60.6128C240.064 60.4028 240.066 60.2461 240.066 60.1428L240.346 60.2878C240.096 60.3211 239.824 60.3544 239.531 60.3878C239.241 60.4211 238.954 60.4594 238.671 60.5028C238.391 60.5461 238.138 60.5978 237.911 60.6578C237.758 60.7011 237.609 60.7628 237.466 60.8428C237.323 60.9194 237.204 61.0228 237.111 61.1528C237.021 61.2828 236.976 61.4444 236.976 61.6378C236.976 61.7944 237.014 61.9461 237.091 62.0928C237.171 62.2394 237.298 62.3611 237.471 62.4578C237.648 62.5544 237.881 62.6028 238.171 62.6028ZM245.038 63.0878C244.734 63.1511 244.434 63.1761 244.138 63.1628C243.844 63.1494 243.581 63.0861 243.348 62.9728C243.118 62.8594 242.943 62.6828 242.823 62.4428C242.726 62.2428 242.673 62.0411 242.663 61.8378C242.656 61.6311 242.653 61.3961 242.653 61.1328V56.1878H243.383V61.1028C243.383 61.3294 243.384 61.5194 243.388 61.6728C243.394 61.8228 243.429 61.9561 243.493 62.0728C243.613 62.2961 243.803 62.4294 244.063 62.4728C244.326 62.5161 244.651 62.5061 245.038 62.4428V63.0878ZM241.498 58.3178V57.6878H245.038V58.3178H241.498ZM248.191 63.2378C247.664 63.2378 247.208 63.1211 246.821 62.8878C246.438 62.6544 246.139 62.3261 245.926 61.9028C245.713 61.4794 245.606 60.9828 245.606 60.4128C245.606 59.8228 245.711 59.3128 245.921 58.8828C246.131 58.4528 246.426 58.1211 246.806 57.8878C247.189 57.6544 247.641 57.5378 248.161 57.5378C248.694 57.5378 249.149 57.6611 249.526 57.9078C249.903 58.1511 250.188 58.5011 250.381 58.9578C250.574 59.4144 250.663 59.9594 250.646 60.5928H249.896V60.3328C249.883 59.6328 249.731 59.1044 249.441 58.7478C249.154 58.3911 248.734 58.2128 248.181 58.2128C247.601 58.2128 247.156 58.4011 246.846 58.7778C246.539 59.1544 246.386 59.6911 246.386 60.3878C246.386 61.0678 246.539 61.5961 246.846 61.9728C247.156 62.3461 247.594 62.5328 248.161 62.5328C248.548 62.5328 248.884 62.4444 249.171 62.2678C249.461 62.0878 249.689 61.8294 249.856 61.4928L250.541 61.7578C250.328 62.2278 250.013 62.5928 249.596 62.8528C249.183 63.1094 248.714 63.2378 248.191 63.2378ZM246.126 60.5928V59.9778H250.251V60.5928H246.126ZM251.756 63.0878V57.6878H252.416V58.9878L252.286 58.8178C252.346 58.6578 252.424 58.5111 252.521 58.3778C252.617 58.2411 252.722 58.1294 252.836 58.0428C252.976 57.9194 253.139 57.8261 253.326 57.7628C253.512 57.6961 253.701 57.6578 253.891 57.6478C254.081 57.6344 254.254 57.6478 254.411 57.6878V58.3778C254.214 58.3278 253.999 58.3161 253.766 58.3428C253.532 58.3694 253.317 58.4628 253.121 58.6228C252.941 58.7628 252.806 58.9311 252.716 59.1278C252.626 59.3211 252.566 59.5278 252.536 59.7478C252.506 59.9644 252.491 60.1794 252.491 60.3928V63.0878H251.756Z" fill="black"/>
</svg>
