<svg width="62" height="10" viewBox="0 0 62 10" fill="none" xmlns="http://www.w3.org/2000/svg">
<path d="M0.63 7V0.52H3.132C3.195 0.52 3.2655 0.523 3.3435 0.529C3.4245 0.532 3.5055 0.541 3.5865 0.556C3.9255 0.607 4.212 0.7255 4.446 0.9115C4.683 1.0945 4.8615 1.3255 4.9815 1.6045C5.1045 1.8835 5.166 2.1925 5.166 2.5315C5.166 2.8675 5.1045 3.175 4.9815 3.454C4.8585 3.733 4.6785 3.9655 4.4415 4.1515C4.2075 4.3345 3.9225 4.4515 3.5865 4.5025C3.5055 4.5145 3.4245 4.5235 3.3435 4.5295C3.2655 4.5355 3.195 4.5385 3.132 4.5385H1.2915V7H0.63ZM1.2915 3.9085H3.114C3.168 3.9085 3.231 3.9055 3.303 3.8995C3.375 3.8935 3.4455 3.883 3.5145 3.868C3.7365 3.82 3.918 3.7285 4.059 3.5935C4.203 3.4585 4.3095 3.298 4.3785 3.112C4.4505 2.926 4.4865 2.7325 4.4865 2.5315C4.4865 2.3305 4.4505 2.137 4.3785 1.951C4.3095 1.762 4.203 1.6 4.059 1.465C3.918 1.33 3.7365 1.2385 3.5145 1.1905C3.4455 1.1755 3.375 1.1665 3.303 1.1635C3.231 1.1575 3.168 1.1545 3.114 1.1545H1.2915V3.9085ZM7.2412 7.135C6.8752 7.135 6.5677 7.069 6.3187 6.937C6.0727 6.805 5.8882 6.6295 5.7652 6.4105C5.6422 6.1915 5.5807 5.953 5.5807 5.695C5.5807 5.431 5.6332 5.206 5.7382 5.02C5.8462 4.831 5.9917 4.6765 6.1747 4.5565C6.3607 4.4365 6.5752 4.345 6.8182 4.282C7.0642 4.222 7.3357 4.1695 7.6327 4.1245C7.9327 4.0765 8.2252 4.036 8.5102 4.003C8.7982 3.967 9.0502 3.9325 9.2662 3.8995L9.0322 4.0435C9.0412 3.5635 8.9482 3.208 8.7532 2.977C8.5582 2.746 8.2192 2.6305 7.7362 2.6305C7.4032 2.6305 7.1212 2.7055 6.8902 2.8555C6.6622 3.0055 6.5017 3.2425 6.4087 3.5665L5.7652 3.3775C5.8762 2.9425 6.0997 2.605 6.4357 2.365C6.7717 2.125 7.2082 2.005 7.7452 2.005C8.1892 2.005 8.5657 2.089 8.8747 2.257C9.1867 2.422 9.4072 2.662 9.5362 2.977C9.5962 3.118 9.6352 3.2755 9.6532 3.4495C9.6712 3.6235 9.6802 3.8005 9.6802 3.9805V7H9.0907V5.7805L9.2617 5.8525C9.0967 6.2695 8.8402 6.5875 8.4922 6.8065C8.1442 7.0255 7.7272 7.135 7.2412 7.135ZM7.3177 6.5635C7.6267 6.5635 7.8967 6.508 8.1277 6.397C8.3587 6.286 8.5447 6.1345 8.6857 5.9425C8.8267 5.7475 8.9182 5.5285 8.9602 5.2855C8.9962 5.1295 9.0157 4.9585 9.0187 4.7725C9.0217 4.5835 9.0232 4.4425 9.0232 4.3495L9.2752 4.48C9.0502 4.51 8.8057 4.54 8.5417 4.57C8.2807 4.6 8.0227 4.6345 7.7677 4.6735C7.5157 4.7125 7.2877 4.759 7.0837 4.813C6.9457 4.852 6.8122 4.9075 6.6832 4.9795C6.5542 5.0485 6.4477 5.1415 6.3637 5.2585C6.2827 5.3755 6.2422 5.521 6.2422 5.695C6.2422 5.836 6.2767 5.9725 6.3457 6.1045C6.4177 6.2365 6.5317 6.346 6.6877 6.433C6.8467 6.52 7.0567 6.5635 7.3177 6.5635ZM11.2722 9.16L12.2127 6.6085L12.2262 7.3645L10.0977 2.14H10.7997L12.5457 6.5095H12.2577L13.8687 2.14H14.5437L11.9337 9.16H11.2722ZM18.1621 7L16.6771 2.1355L17.3386 2.14L18.4906 5.9155L19.6471 2.14H20.2501L21.4066 5.9155L22.5676 2.14H23.2246L21.7396 7H21.1636L19.9486 3.13L18.7381 7H18.1621ZM24.1253 1.2175V0.475H24.7868V1.2175H24.1253ZM24.1253 7V2.14H24.7868V7H24.1253ZM28.7819 7C28.5089 7.057 28.2389 7.0795 27.9719 7.0675C27.7079 7.0555 27.4709 6.9985 27.2609 6.8965C27.0539 6.7945 26.8964 6.6355 26.7884 6.4195C26.7014 6.2395 26.6534 6.058 26.6444 5.875C26.6384 5.689 26.6354 5.4775 26.6354 5.2405V0.789999H27.2924V5.2135C27.2924 5.4175 27.2939 5.5885 27.2969 5.7265C27.3029 5.8615 27.3344 5.9815 27.3914 6.0865C27.4994 6.2875 27.6704 6.4075 27.9044 6.4465C28.1414 6.4855 28.4339 6.4765 28.7819 6.4195V7ZM25.5959 2.707V2.14H28.7819V2.707H25.5959ZM33.2494 7V4.5205C33.2494 4.2505 33.2239 4.003 33.1729 3.778C33.1219 3.55 33.0394 3.352 32.9254 3.184C32.8144 3.013 32.6689 2.881 32.4889 2.788C32.3119 2.695 32.0959 2.6485 31.8409 2.6485C31.6069 2.6485 31.3999 2.689 31.2199 2.77C31.0429 2.851 30.8929 2.968 30.7699 3.121C30.6499 3.271 30.5584 3.454 30.4954 3.67C30.4324 3.886 30.4009 4.132 30.4009 4.408L29.9329 4.3045C29.9329 3.8065 30.0199 3.388 30.1939 3.049C30.3679 2.71 30.6079 2.4535 30.9139 2.2795C31.2199 2.1055 31.5709 2.0185 31.9669 2.0185C32.2579 2.0185 32.5114 2.0635 32.7274 2.1535C32.9464 2.2435 33.1309 2.365 33.2809 2.518C33.4339 2.671 33.5569 2.8465 33.6499 3.0445C33.7429 3.2395 33.8104 3.448 33.8524 3.67C33.8944 3.889 33.9154 4.108 33.9154 4.327V7H33.2494ZM29.7349 7V0.52H30.3334V4.1785H30.4009V7H29.7349ZM36.8849 7V0.52H37.5464V3.58L40.5029 0.52H41.3489L38.3294 3.6475L41.5964 7H40.7324L37.5464 3.76V7H36.8849ZM42.3186 7V0.385H42.9801V7H42.3186ZM45.7197 7.135C45.3537 7.135 45.0462 7.069 44.7972 6.937C44.5512 6.805 44.3667 6.6295 44.2437 6.4105C44.1207 6.1915 44.0592 5.953 44.0592 5.695C44.0592 5.431 44.1117 5.206 44.2167 5.02C44.3247 4.831 44.4702 4.6765 44.6532 4.5565C44.8392 4.4365 45.0537 4.345 45.2967 4.282C45.5427 4.222 45.8142 4.1695 46.1112 4.1245C46.4112 4.0765 46.7037 4.036 46.9887 4.003C47.2767 3.967 47.5287 3.9325 47.7447 3.8995L47.5107 4.0435C47.5197 3.5635 47.4267 3.208 47.2317 2.977C47.0367 2.746 46.6977 2.6305 46.2147 2.6305C45.8817 2.6305 45.5997 2.7055 45.3687 2.8555C45.1407 3.0055 44.9802 3.2425 44.8872 3.5665L44.2437 3.3775C44.3547 2.9425 44.5782 2.605 44.9142 2.365C45.2502 2.125 45.6867 2.005 46.2237 2.005C46.6677 2.005 47.0442 2.089 47.3532 2.257C47.6652 2.422 47.8857 2.662 48.0147 2.977C48.0747 3.118 48.1137 3.2755 48.1317 3.4495C48.1497 3.6235 48.1587 3.8005 48.1587 3.9805V7H47.5692V5.7805L47.7402 5.8525C47.5752 6.2695 47.3187 6.5875 46.9707 6.8065C46.6227 7.0255 46.2057 7.135 45.7197 7.135ZM45.7962 6.5635C46.1052 6.5635 46.3752 6.508 46.6062 6.397C46.8372 6.286 47.0232 6.1345 47.1642 5.9425C47.3052 5.7475 47.3967 5.5285 47.4387 5.2855C47.4747 5.1295 47.4942 4.9585 47.4972 4.7725C47.5002 4.5835 47.5017 4.4425 47.5017 4.3495L47.7537 4.48C47.5287 4.51 47.2842 4.54 47.0202 4.57C46.7592 4.6 46.5012 4.6345 46.2462 4.6735C45.9942 4.7125 45.7662 4.759 45.5622 4.813C45.4242 4.852 45.2907 4.9075 45.1617 4.9795C45.0327 5.0485 44.9262 5.1415 44.8422 5.2585C44.7612 5.3755 44.7207 5.521 44.7207 5.695C44.7207 5.836 44.7552 5.9725 44.8242 6.1045C44.8962 6.2365 45.0102 6.346 45.1662 6.433C45.3252 6.52 45.5352 6.5635 45.7962 6.5635ZM49.3302 7V2.14H49.9242V3.31L49.8072 3.157C49.8612 3.013 49.9317 2.881 50.0187 2.761C50.1057 2.638 50.2002 2.5375 50.3022 2.4595C50.4282 2.3485 50.5752 2.2645 50.7432 2.2075C50.9112 2.1475 51.0807 2.113 51.2517 2.104C51.4227 2.092 51.5787 2.104 51.7197 2.14V2.761C51.5427 2.716 51.3492 2.7055 51.1392 2.7295C50.9292 2.7535 50.7357 2.8375 50.5587 2.9815C50.3967 3.1075 50.2752 3.259 50.1942 3.436C50.1132 3.61 50.0592 3.796 50.0322 3.994C50.0052 4.189 49.9917 4.3825 49.9917 4.5745V7H49.3302ZM56.0834 7V4.5205C56.0834 4.2505 56.0579 4.003 56.0069 3.778C55.9559 3.55 55.8734 3.352 55.7594 3.184C55.6484 3.013 55.5029 2.881 55.3229 2.788C55.1459 2.695 54.9299 2.6485 54.6749 2.6485C54.4409 2.6485 54.2339 2.689 54.0539 2.77C53.8769 2.851 53.7269 2.968 53.6039 3.121C53.4839 3.271 53.3924 3.454 53.3294 3.67C53.2664 3.886 53.2349 4.132 53.2349 4.408L52.7669 4.3045C52.7669 3.8065 52.8539 3.388 53.0279 3.049C53.2019 2.71 53.4419 2.4535 53.7479 2.2795C54.0539 2.1055 54.4049 2.0185 54.8009 2.0185C55.0919 2.0185 55.3454 2.0635 55.5614 2.1535C55.7804 2.2435 55.9649 2.365 56.1149 2.518C56.2679 2.671 56.3909 2.8465 56.4839 3.0445C56.5769 3.2395 56.6444 3.448 56.6864 3.67C56.7284 3.889 56.7494 4.108 56.7494 4.327V7H56.0834ZM52.5689 7V2.14H53.1674V3.337H53.2349V7H52.5689ZM59.3076 7.135C58.9416 7.135 58.6341 7.069 58.3851 6.937C58.1391 6.805 57.9546 6.6295 57.8316 6.4105C57.7086 6.1915 57.6471 5.953 57.6471 5.695C57.6471 5.431 57.6996 5.206 57.8046 5.02C57.9126 4.831 58.0581 4.6765 58.2411 4.5565C58.4271 4.4365 58.6416 4.345 58.8846 4.282C59.1306 4.222 59.4021 4.1695 59.6991 4.1245C59.9991 4.0765 60.2916 4.036 60.5766 4.003C60.8646 3.967 61.1166 3.9325 61.3326 3.8995L61.0986 4.0435C61.1076 3.5635 61.0146 3.208 60.8196 2.977C60.6246 2.746 60.2856 2.6305 59.8026 2.6305C59.4696 2.6305 59.1876 2.7055 58.9566 2.8555C58.7286 3.0055 58.5681 3.2425 58.4751 3.5665L57.8316 3.3775C57.9426 2.9425 58.1661 2.605 58.5021 2.365C58.8381 2.125 59.2746 2.005 59.8116 2.005C60.2556 2.005 60.6321 2.089 60.9411 2.257C61.2531 2.422 61.4736 2.662 61.6026 2.977C61.6626 3.118 61.7016 3.2755 61.7196 3.4495C61.7376 3.6235 61.7466 3.8005 61.7466 3.9805V7H61.1571V5.7805L61.3281 5.8525C61.1631 6.2695 60.9066 6.5875 60.5586 6.8065C60.2106 7.0255 59.7936 7.135 59.3076 7.135ZM59.3841 6.5635C59.6931 6.5635 59.9631 6.508 60.1941 6.397C60.4251 6.286 60.6111 6.1345 60.7521 5.9425C60.8931 5.7475 60.9846 5.5285 61.0266 5.2855C61.0626 5.1295 61.0821 4.9585 61.0851 4.7725C61.0881 4.5835 61.0896 4.4425 61.0896 4.3495L61.3416 4.48C61.1166 4.51 60.8721 4.54 60.6081 4.57C60.3471 4.6 60.0891 4.6345 59.8341 4.6735C59.5821 4.7125 59.3541 4.759 59.1501 4.813C59.0121 4.852 58.8786 4.9075 58.7496 4.9795C58.6206 5.0485 58.5141 5.1415 58.4301 5.2585C58.3491 5.3755 58.3086 5.521 58.3086 5.695C58.3086 5.836 58.3431 5.9725 58.4121 6.1045C58.4841 6.2365 58.5981 6.346 58.7541 6.433C58.9131 6.52 59.1231 6.5635 59.3841 6.5635Z" fill="black"/>
</svg>
