<svg width="56" height="10" viewBox="0 0 56 10" fill="none" xmlns="http://www.w3.org/2000/svg">
<path d="M0.63 7V0.52H3.132C3.195 0.52 3.2655 0.523 3.3435 0.529C3.4245 0.532 3.5055 0.541 3.5865 0.556C3.9255 0.607 4.212 0.7255 4.446 0.9115C4.683 1.0945 4.8615 1.3255 4.9815 1.6045C5.1045 1.8835 5.166 2.1925 5.166 2.5315C5.166 2.8675 5.1045 3.175 4.9815 3.454C4.8585 3.733 4.6785 3.9655 4.4415 4.1515C4.2075 4.3345 3.9225 4.4515 3.5865 4.5025C3.5055 4.5145 3.4245 4.5235 3.3435 4.5295C3.2655 4.5355 3.195 4.5385 3.132 4.5385H1.2915V7H0.63ZM1.2915 3.9085H3.114C3.168 3.9085 3.231 3.9055 3.303 3.8995C3.375 3.8935 3.4455 3.883 3.5145 3.868C3.7365 3.82 3.918 3.7285 4.059 3.5935C4.203 3.4585 4.3095 3.298 4.3785 3.112C4.4505 2.926 4.4865 2.7325 4.4865 2.5315C4.4865 2.3305 4.4505 2.137 4.3785 1.951C4.3095 1.762 4.203 1.6 4.059 1.465C3.918 1.33 3.7365 1.2385 3.5145 1.1905C3.4455 1.1755 3.375 1.1665 3.303 1.1635C3.231 1.1575 3.168 1.1545 3.114 1.1545H1.2915V3.9085ZM7.2412 7.135C6.8752 7.135 6.5677 7.069 6.3187 6.937C6.0727 6.805 5.8882 6.6295 5.7652 6.4105C5.6422 6.1915 5.5807 5.953 5.5807 5.695C5.5807 5.431 5.6332 5.206 5.7382 5.02C5.8462 4.831 5.9917 4.6765 6.1747 4.5565C6.3607 4.4365 6.5752 4.345 6.8182 4.282C7.0642 4.222 7.3357 4.1695 7.6327 4.1245C7.9327 4.0765 8.2252 4.036 8.5102 4.003C8.7982 3.967 9.0502 3.9325 9.2662 3.8995L9.0322 4.0435C9.0412 3.5635 8.9482 3.208 8.7532 2.977C8.5582 2.746 8.2192 2.6305 7.7362 2.6305C7.4032 2.6305 7.1212 2.7055 6.8902 2.8555C6.6622 3.0055 6.5017 3.2425 6.4087 3.5665L5.7652 3.3775C5.8762 2.9425 6.0997 2.605 6.4357 2.365C6.7717 2.125 7.2082 2.005 7.7452 2.005C8.1892 2.005 8.5657 2.089 8.8747 2.257C9.1867 2.422 9.4072 2.662 9.5362 2.977C9.5962 3.118 9.6352 3.2755 9.6532 3.4495C9.6712 3.6235 9.6802 3.8005 9.6802 3.9805V7H9.0907V5.7805L9.2617 5.8525C9.0967 6.2695 8.8402 6.5875 8.4922 6.8065C8.1442 7.0255 7.7272 7.135 7.2412 7.135ZM7.3177 6.5635C7.6267 6.5635 7.8967 6.508 8.1277 6.397C8.3587 6.286 8.5447 6.1345 8.6857 5.9425C8.8267 5.7475 8.9182 5.5285 8.9602 5.2855C8.9962 5.1295 9.0157 4.9585 9.0187 4.7725C9.0217 4.5835 9.0232 4.4425 9.0232 4.3495L9.2752 4.48C9.0502 4.51 8.8057 4.54 8.5417 4.57C8.2807 4.6 8.0227 4.6345 7.7677 4.6735C7.5157 4.7125 7.2877 4.759 7.0837 4.813C6.9457 4.852 6.8122 4.9075 6.6832 4.9795C6.5542 5.0485 6.4477 5.1415 6.3637 5.2585C6.2827 5.3755 6.2422 5.521 6.2422 5.695C6.2422 5.836 6.2767 5.9725 6.3457 6.1045C6.4177 6.2365 6.5317 6.346 6.6877 6.433C6.8467 6.52 7.0567 6.5635 7.3177 6.5635ZM11.2722 9.16L12.2127 6.6085L12.2262 7.3645L10.0977 2.14H10.7997L12.5457 6.5095H12.2577L13.8687 2.14H14.5437L11.9337 9.16H11.2722ZM18.1621 7L16.6771 2.1355L17.3386 2.14L18.4906 5.9155L19.6471 2.14H20.2501L21.4066 5.9155L22.5676 2.14H23.2246L21.7396 7H21.1636L19.9486 3.13L18.7381 7H18.1621ZM24.1253 1.2175V0.475H24.7868V1.2175H24.1253ZM24.1253 7V2.14H24.7868V7H24.1253ZM28.7819 7C28.5089 7.057 28.2389 7.0795 27.9719 7.0675C27.7079 7.0555 27.4709 6.9985 27.2609 6.8965C27.0539 6.7945 26.8964 6.6355 26.7884 6.4195C26.7014 6.2395 26.6534 6.058 26.6444 5.875C26.6384 5.689 26.6354 5.4775 26.6354 5.2405V0.789999H27.2924V5.2135C27.2924 5.4175 27.2939 5.5885 27.2969 5.7265C27.3029 5.8615 27.3344 5.9815 27.3914 6.0865C27.4994 6.2875 27.6704 6.4075 27.9044 6.4465C28.1414 6.4855 28.4339 6.4765 28.7819 6.4195V7ZM25.5959 2.707V2.14H28.7819V2.707H25.5959ZM33.2494 7V4.5205C33.2494 4.2505 33.2239 4.003 33.1729 3.778C33.1219 3.55 33.0394 3.352 32.9254 3.184C32.8144 3.013 32.6689 2.881 32.4889 2.788C32.3119 2.695 32.0959 2.6485 31.8409 2.6485C31.6069 2.6485 31.3999 2.689 31.2199 2.77C31.0429 2.851 30.8929 2.968 30.7699 3.121C30.6499 3.271 30.5584 3.454 30.4954 3.67C30.4324 3.886 30.4009 4.132 30.4009 4.408L29.9329 4.3045C29.9329 3.8065 30.0199 3.388 30.1939 3.049C30.3679 2.71 30.6079 2.4535 30.9139 2.2795C31.2199 2.1055 31.5709 2.0185 31.9669 2.0185C32.2579 2.0185 32.5114 2.0635 32.7274 2.1535C32.9464 2.2435 33.1309 2.365 33.2809 2.518C33.4339 2.671 33.5569 2.8465 33.6499 3.0445C33.7429 3.2395 33.8104 3.448 33.8524 3.67C33.8944 3.889 33.9154 4.108 33.9154 4.327V7H33.2494ZM29.7349 7V0.52H30.3334V4.1785H30.4009V7H29.7349ZM39.5084 7.135C38.8634 7.135 38.3189 6.9925 37.8749 6.7075C37.4309 6.4195 37.0949 6.022 36.8669 5.515C36.6389 5.008 36.5249 4.423 36.5249 3.76C36.5249 3.097 36.6389 2.512 36.8669 2.005C37.0949 1.498 37.4309 1.102 37.8749 0.817C38.3189 0.529 38.8634 0.385 39.5084 0.385C40.2614 0.385 40.8764 0.5785 41.3534 0.9655C41.8304 1.3495 42.1574 1.8655 42.3344 2.5135L41.6594 2.689C41.5214 2.176 41.2739 1.7695 40.9169 1.4695C40.5599 1.1695 40.0904 1.0195 39.5084 1.0195C39.0014 1.0195 38.5799 1.135 38.2439 1.366C37.9079 1.597 37.6544 1.9195 37.4834 2.3335C37.3154 2.7445 37.2284 3.22 37.2224 3.76C37.2194 4.3 37.3019 4.7755 37.4699 5.1865C37.6409 5.5975 37.8959 5.92 38.2349 6.154C38.5769 6.385 39.0014 6.5005 39.5084 6.5005C40.0904 6.5005 40.5599 6.3505 40.9169 6.0505C41.2739 5.7475 41.5214 5.341 41.6594 4.831L42.3344 5.0065C42.1574 5.6545 41.8304 6.172 41.3534 6.559C40.8764 6.943 40.2614 7.135 39.5084 7.135ZM44.7178 7.135C44.3518 7.135 44.0443 7.069 43.7953 6.937C43.5493 6.805 43.3648 6.6295 43.2418 6.4105C43.1188 6.1915 43.0573 5.953 43.0573 5.695C43.0573 5.431 43.1098 5.206 43.2148 5.02C43.3228 4.831 43.4683 4.6765 43.6513 4.5565C43.8373 4.4365 44.0518 4.345 44.2948 4.282C44.5408 4.222 44.8123 4.1695 45.1093 4.1245C45.4093 4.0765 45.7018 4.036 45.9868 4.003C46.2748 3.967 46.5268 3.9325 46.7428 3.8995L46.5088 4.0435C46.5178 3.5635 46.4248 3.208 46.2298 2.977C46.0348 2.746 45.6958 2.6305 45.2128 2.6305C44.8798 2.6305 44.5978 2.7055 44.3668 2.8555C44.1388 3.0055 43.9783 3.2425 43.8853 3.5665L43.2418 3.3775C43.3528 2.9425 43.5763 2.605 43.9123 2.365C44.2483 2.125 44.6848 2.005 45.2218 2.005C45.6658 2.005 46.0423 2.089 46.3513 2.257C46.6633 2.422 46.8838 2.662 47.0128 2.977C47.0728 3.118 47.1118 3.2755 47.1298 3.4495C47.1478 3.6235 47.1568 3.8005 47.1568 3.9805V7H46.5673V5.7805L46.7383 5.8525C46.5733 6.2695 46.3168 6.5875 45.9688 6.8065C45.6208 7.0255 45.2038 7.135 44.7178 7.135ZM44.7943 6.5635C45.1033 6.5635 45.3733 6.508 45.6043 6.397C45.8353 6.286 46.0213 6.1345 46.1623 5.9425C46.3033 5.7475 46.3948 5.5285 46.4368 5.2855C46.4728 5.1295 46.4923 4.9585 46.4953 4.7725C46.4983 4.5835 46.4998 4.4425 46.4998 4.3495L46.7518 4.48C46.5268 4.51 46.2823 4.54 46.0183 4.57C45.7573 4.6 45.4993 4.6345 45.2443 4.6735C44.9923 4.7125 44.7643 4.759 44.5603 4.813C44.4223 4.852 44.2888 4.9075 44.1598 4.9795C44.0308 5.0485 43.9243 5.1415 43.8403 5.2585C43.7593 5.3755 43.7188 5.521 43.7188 5.695C43.7188 5.836 43.7533 5.9725 43.8223 6.1045C43.8943 6.2365 44.0083 6.346 44.1643 6.433C44.3233 6.52 44.5333 6.5635 44.7943 6.5635ZM48.3282 7V2.14H48.9222V3.31L48.8052 3.157C48.8592 3.013 48.9297 2.881 49.0167 2.761C49.1037 2.638 49.1982 2.5375 49.3002 2.4595C49.4262 2.3485 49.5732 2.2645 49.7412 2.2075C49.9092 2.1475 50.0787 2.113 50.2497 2.104C50.4207 2.092 50.5767 2.104 50.7177 2.14V2.761C50.5407 2.716 50.3472 2.7055 50.1372 2.7295C49.9272 2.7535 49.7337 2.8375 49.5567 2.9815C49.3947 3.1075 49.2732 3.259 49.1922 3.436C49.1112 3.61 49.0572 3.796 49.0302 3.994C49.0032 4.189 48.9897 4.3825 48.9897 4.5745V7H48.3282ZM53.369 7.135C52.916 7.135 52.529 7.0225 52.208 6.7975C51.887 6.5695 51.641 6.262 51.47 5.875C51.299 5.488 51.2135 5.0515 51.2135 4.5655C51.2135 4.0825 51.2975 3.6475 51.4655 3.2605C51.6365 2.8735 51.881 2.5675 52.199 2.3425C52.517 2.1175 52.898 2.005 53.342 2.005C53.798 2.005 54.182 2.116 54.494 2.338C54.806 2.56 55.0415 2.8645 55.2005 3.2515C55.3625 3.6355 55.4435 4.0735 55.4435 4.5655C55.4435 5.0485 55.364 5.485 55.205 5.875C55.046 6.262 54.812 6.5695 54.503 6.7975C54.194 7.0225 53.816 7.135 53.369 7.135ZM53.4365 6.5185C53.7815 6.5185 54.0665 6.4345 54.2915 6.2665C54.5165 6.0985 54.6845 5.8675 54.7955 5.5735C54.9065 5.2765 54.962 4.9405 54.962 4.5655C54.962 4.1845 54.9065 3.8485 54.7955 3.5575C54.6845 3.2635 54.5165 3.034 54.2915 2.869C54.0695 2.704 53.789 2.6215 53.45 2.6215C53.102 2.6215 52.814 2.707 52.586 2.878C52.358 3.049 52.1885 3.2815 52.0775 3.5755C51.9695 3.8695 51.9155 4.1995 51.9155 4.5655C51.9155 4.9345 51.971 5.2675 52.082 5.5645C52.196 5.8585 52.3655 6.091 52.5905 6.262C52.8155 6.433 53.0975 6.5185 53.4365 6.5185ZM54.962 7V3.3415H54.89V0.52H55.556V7H54.962Z" fill="black"/>
</svg>
